/* XPM */
static char *_1684366586[] = {
/* columns rows colors chars-per-pixel */
"20 20 104 2 ",
"   c None",
".  c #140000",
"X  c #160000",
"o  c #170000",
"O  c #1A0000",
"+  c #1B0000",
"@  c #1C0000",
"#  c #1D0000",
"$  c #230000",
"%  c #250000",
"&  c #260000",
"*  c #270000",
"=  c #280000",
"-  c #290000",
";  c #2A0000",
":  c #2B0000",
">  c #2C0000",
",  c #2D0000",
"<  c #2E0000",
"1  c #2F0000",
"2  c #300000",
"3  c #310000",
"4  c #320000",
"5  c #330000",
"6  c #340000",
"7  c #350000",
"8  c #360000",
"9  c #370000",
"0  c #380000",
"q  c #390000",
"w  c #3A0000",
"e  c #3B0000",
"r  c #3C0000",
"t  c #3D0000",
"y  c #3E0000",
"u  c #3F0000",
"i  c #400000",
"p  c #410000",
"a  c #420000",
"s  c #450000",
"d  c #460000",
"f  c #470000",
"g  c #480000",
"h  c #490000",
"j  c #4A0000",
"k  c #4B0000",
"l  c #4C0000",
"z  c #4E0000",
"x  c #4F0000",
"c  c #500000",
"v  c #520000",
"b  c #530000",
"n  c #540000",
"m  c #550000",
"M  c #560000",
"N  c #570000",
"B  c #580000",
"V  c #590000",
"C  c #5A0000",
"Z  c #5B0000",
"A  c #5C0000",
"S  c #5D0000",
"D  c #5E0000",
"F  c #5F0000",
"G  c #600000",
"H  c #610000",
"J  c #620000",
"K  c #630000",
"L  c #640000",
"P  c #650000",
"I  c #660000",
"U  c #670000",
"Y  c #680000",
"T  c #690000",
"R  c #6A0000",
"E  c #6B0000",
"W  c #6C0000",
"Q  c #6D0000",
"!  c #6E0000",
"~  c #6F0000",
"^  c #700000",
"/  c #710000",
"(  c #720000",
")  c #730000",
"_  c #740000",
"`  c #750000",
"'  c #760000",
"]  c #780000",
"[  c #790000",
"{  c #7A0000",
"}  c #7B0000",
"|  c #7C0000",
" . c #7D0000",
".. c #800000",
"X. c #810000",
"o. c #820000",
"O. c #830000",
"+. c #840000",
"@. c #860000",
"#. c #8A0000",
"$. c #8E0000",
"%. c #910000",
"&. c #980000",
"*. c #9A0000",
/* pixels */
"            > 3 > 3 > 3 3 *             ",
"        6 s i i 6 u u e e u i 6 o       ",
"    O i i e g Z Q { F F g e 6 i u @     ",
"    u u 6 K @.Q F K s M ( E s > 6 e     ",
"  > u 6 ( &.U e g M i u s U ` i > u >   ",
"  e u Z *.@.K g K M g Z s g U Q 6 u u   ",
"  u e { | X.( K z - > U F g Z U z > u @ ",
"  e s ( F { U U i 3 6 M K s c Z Z > e - ",
"  e M E z K c K s 6 e K K z s Z U 6 6 - ",
"  6 Z K c F M K u 6 6 M F g s K E 6 6 - ",
"  3 z K Z M M E e 3 3 M E c z F U u 6 - ",
"  6 i K Z c c U e 3 6 M U K c Z U 6 6 - ",
"  u e E F z F Q u > 3 M E M z F K - 6 * ",
"  u 3 c E F F { E i c @.( Z Z E s 3 e O ",
"  6 6 e Q { Q ( $.#.%.X.U K Q K > 6 e   ",
"  * u 6 e Q X.| X.{ ` E U E K u 3 u -   ",
"    6 i 3 > c ( { ` { Q U g > 6 i e     ",
"    . e i 6 3 > 3 e 3 3 - - 3 u e o     ",
"        > e u 6 > 3 3 3 e e e >         ",
"            O $ * * * - * O             "
};
