/* XPM */
static char *_1684366869[] = {
/* columns rows colors chars-per-pixel */
"20 20 96 2 ",
"   c None",
".  c #190000",
"X  c #1C0000",
"o  c #230000",
"O  c #250000",
"+  c #260000",
"@  c #270000",
"#  c #280000",
"$  c #290000",
"%  c #2A0000",
"&  c #2B0000",
"*  c #2C0000",
"=  c #2D0000",
"-  c #2E0000",
";  c #2F0000",
":  c #300000",
">  c #310000",
",  c #320000",
"<  c #330000",
"1  c #340000",
"2  c #350000",
"3  c #360000",
"4  c #370000",
"5  c #380000",
"6  c #390000",
"7  c #3A0000",
"8  c #3B0000",
"9  c #3C0000",
"0  c #3D0000",
"q  c #3E0000",
"w  c #3F0000",
"e  c #400000",
"r  c #420000",
"t  c #430000",
"y  c #440000",
"u  c #470000",
"i  c #480000",
"p  c #490000",
"a  c #4B0000",
"s  c #4C0000",
"d  c #4E0000",
"f  c #510000",
"g  c #520000",
"h  c #530000",
"j  c #560000",
"k  c #590000",
"l  c #5C0000",
"z  c #5D0000",
"x  c #5F0000",
"c  c #600000",
"v  c #610000",
"b  c #620000",
"n  c #630000",
"m  c #640000",
"M  c #650000",
"N  c #660000",
"B  c #670000",
"V  c #690000",
"C  c #6A0000",
"Z  c #6B0000",
"A  c #6C0000",
"S  c #6E0000",
"D  c #6F0000",
"F  c #700000",
"G  c #710000",
"H  c #720000",
"J  c #730000",
"K  c #740000",
"L  c #750000",
"P  c #760000",
"I  c #770000",
"U  c #780000",
"Y  c #790000",
"T  c #7A0000",
"R  c #7B0000",
"E  c #7C0000",
"W  c #7E0000",
"Q  c #7F0000",
"!  c #800000",
"~  c #810000",
"^  c #820000",
"/  c #830000",
"(  c #840000",
")  c #850000",
"_  c #860000",
"`  c #870000",
"'  c #880000",
"]  c #8A0000",
"[  c #8B0000",
"{  c #8C0000",
"}  c #8D0000",
"|  c #900000",
" . c #930000",
".. c #940000",
"X. c #9B0000",
"o. c #9C0000",
/* pixels */
"            - - % % % % % - % % % - @   ",
"        o u u r q q q 2 7 q q q q u q   ",
"      , u q q s Z x x j F Z a u 2 2 q   ",
"  . 7 r 7 7 x ] Q B S S ~ Q f a % % 7   ",
"  q r , q K | _ Q B c F U _ c r @ @ 2   ",
"  q 7 s _ o._ K U F Z F U ~ Z s - % 2   ",
"  7 - f U K F B ~ _ U K U ] F x , , 7   ",
"  7 , % , 2 7 , ~ | ~ ] ] ..K c - - 7   ",
"  2 2 , - , 2 % S _ U Q Q _ S c - @ 7   ",
"          X 7 - F } K S S K S S , - 7   ",
"            2 , Z Q F Z Z B f l % @ 2   ",
"            7 2 F ] F Z c l u j % @ 7   ",
"            q q F ~ K F F Z l x % % 2   ",
"            2 , F ] Q Q Q F c c - @ 2   ",
"            7 , U .._ ~ _ U F S - % 2   ",
"            7 , Q o._ ] } ~ U F - @ 7   ",
"            7 2 c U K Z S Z S B % % 2   ",
"            7 2 - % % % % % - , - , 7   ",
"            , 2 7 2 , , , , , , , 2 7   ",
"                                        "
};
