/* XPM */
static char *_1684366869[] = {
/* columns rows colors chars-per-pixel */
"20 20 97 2 ",
"   c None",
".  c #1C0000",
"X  c #1D0000",
"o  c #210000",
"O  c #220000",
"+  c #240000",
"@  c #250000",
"#  c #260000",
"$  c #270000",
"%  c #280000",
"&  c #290000",
"*  c #2A0000",
"=  c #2B0000",
"-  c #2C0000",
";  c #2D0000",
":  c #2E0000",
">  c #2F0000",
",  c #300000",
"<  c #310000",
"1  c #320000",
"2  c #330000",
"3  c #340000",
"4  c #350000",
"5  c #360000",
"6  c #370000",
"7  c #380000",
"8  c #390000",
"9  c #3A0000",
"0  c #3B0000",
"q  c #3C0000",
"w  c #3D0000",
"e  c #3E0000",
"r  c #3F0000",
"t  c #400000",
"y  c #410000",
"u  c #430000",
"i  c #440000",
"p  c #450000",
"a  c #470000",
"s  c #480000",
"d  c #490000",
"f  c #4A0000",
"g  c #4B0000",
"h  c #4D0000",
"j  c #4E0000",
"k  c #4F0000",
"l  c #500000",
"z  c #520000",
"x  c #530000",
"c  c #540000",
"v  c #560000",
"b  c #580000",
"n  c #5A0000",
"m  c #5B0000",
"M  c #5C0000",
"N  c #5E0000",
"B  c #5F0000",
"V  c #600000",
"C  c #610000",
"Z  c #620000",
"A  c #630000",
"S  c #640000",
"D  c #650000",
"F  c #660000",
"G  c #670000",
"H  c #680000",
"J  c #690000",
"K  c #6A0000",
"L  c #6B0000",
"P  c #6C0000",
"I  c #6D0000",
"U  c #6E0000",
"Y  c #6F0000",
"T  c #700000",
"R  c #710000",
"E  c #720000",
"W  c #730000",
"Q  c #740000",
"!  c #750000",
"~  c #760000",
"^  c #770000",
"/  c #780000",
"(  c #7A0000",
")  c #7B0000",
"_  c #7C0000",
"`  c #7D0000",
"'  c #7F0000",
"]  c #800000",
"[  c #810000",
"{  c #850000",
"}  c #860000",
"|  c #870000",
" . c #880000",
".. c #890000",
"X. c #8A0000",
"o. c #8E0000",
"O. c #930000",
/* pixels */
"  % - % % % % % - % % % % - - O         ",
"  y y 6 9 9 w w w w 9 9 y w y w 9 O     ",
"  9 w 9 g z ( G G C K C W b g 2 2 w O   ",
"  2 p w - g P G C C W C G W W j 2 6 9   ",
"  6 z j % 9 v z v G G z M G C W j 6 9   ",
"  2 w j g j G b v M K W W W M M C 2 9 X ",
"  6 - - % O $ $ $ - 9 } ~ W G b C - 6 X ",
"  6 9 6 - 2 6 9 6 6 z o.W ( W P P 2 6 X ",
"  - 9 2 g W ` K G G ~ ~ C K K P G 6 9 X ",
"  9 2 z ` P W G C W ~ W K K P ~ p 2 w   ",
"  9 9 W K z K K K ` ] ( W ( W j - 9 9   ",
"  6 j ` M v C K K z p y w 9 2 2 9 y %   ",
"  6 v W K K P ( j % $ $ $ $ - 2 2 6 9 . ",
"  6 b ~ K K P ] ( ~ P K K ~ W K G 2 6 X ",
"  2 M  .P K P `  . .}  .} o.` ~ W 6 2 X ",
"  2 G  .K K W ~ ` ] } O.} } ] ` ( 6 2 X ",
"  6 j K C K G M P ~ W ( ~ W W P P 2 - X ",
"  6 % $ % 2 - $ - 2 2 2 - - 2 - % % 2 X ",
"  6 2 2 2 - - 2 2 2 - 2 2 6 2 - 2 6 9   ",
"                                        "
};
