/* XPM */
static char *_1684366869[] = {
/* columns rows colors chars-per-pixel */
"20 20 95 2 ",
"   c None",
".  c #170000",
"X  c #1C0000",
"o  c #1D0000",
"O  c #1F0000",
"+  c #220000",
"@  c #230000",
"#  c #240000",
"$  c #260000",
"%  c #270000",
"&  c #280000",
"*  c #290000",
"=  c #2A0000",
"-  c #2B0000",
";  c #2C0000",
":  c #2D0000",
">  c #2E0000",
",  c #2F0000",
"<  c #300000",
"1  c #310000",
"2  c #320000",
"3  c #330000",
"4  c #340000",
"5  c #350000",
"6  c #360000",
"7  c #370000",
"8  c #380000",
"9  c #390000",
"0  c #3A0000",
"q  c #3B0000",
"w  c #3C0000",
"e  c #3D0000",
"r  c #3E0000",
"t  c #3F0000",
"y  c #400000",
"u  c #410000",
"i  c #420000",
"p  c #430000",
"a  c #440000",
"s  c #450000",
"d  c #460000",
"f  c #470000",
"g  c #480000",
"h  c #490000",
"j  c #4A0000",
"k  c #4B0000",
"l  c #4C0000",
"z  c #4D0000",
"x  c #4E0000",
"c  c #4F0000",
"v  c #500000",
"b  c #510000",
"n  c #520000",
"m  c #530000",
"M  c #540000",
"N  c #550000",
"B  c #560000",
"V  c #570000",
"C  c #580000",
"Z  c #590000",
"A  c #5A0000",
"S  c #5B0000",
"D  c #5C0000",
"F  c #5D0000",
"G  c #5E0000",
"H  c #5F0000",
"J  c #600000",
"K  c #610000",
"L  c #620000",
"P  c #630000",
"I  c #640000",
"U  c #650000",
"Y  c #660000",
"T  c #670000",
"R  c #680000",
"E  c #690000",
"W  c #6A0000",
"Q  c #6B0000",
"!  c #6C0000",
"~  c #6D0000",
"^  c #6E0000",
"/  c #6F0000",
"(  c #700000",
")  c #710000",
"_  c #720000",
"`  c #730000",
"'  c #740000",
"]  c #750000",
"[  c #760000",
"{  c #770000",
"}  c #790000",
"|  c #7E0000",
" . c #830000",
".. c #860000",
"X. c #8A0000",
/* pixels */
"  & & : & & : & : : & : & o             ",
"  r q r q q r r u r r q q u r :         ",
"  q u v Z Z T T ( T G G d q r u q .     ",
"  6 g Z d u g v Z Z v / ( P u 6 r q     ",
"  2 v G 6 q r r u u q g V V ( r : r &   ",
"  q g Z g x g g x x V R Z d G P q q r   ",
"  r 2 : % : & : : & 2 } T u u V Z 2 r   ",
"  6 2 &   q 2 r u q q ( / d u u R 6 6 @ ",
"          2 6 R P G G } T g d u P 6 6 @ ",
"          2 2 R V x g V Z v v d P r 6 % ",
"          2 6 ] P V x Z Z x g u G 2 2 @ ",
"          6 2 d x u g ( P d u u Z & 2 % ",
"  u r r d r q 6 6 q q  .( x u v Z : 6 o ",
"  r g T R ] ( ( ( ( } X.T v x T u 2 r   ",
"  6 v ( / ] .... ./ ( / G Z T v : 6 6   ",
"  2 x ] ( ( ] ] ( T P R ] ( V 2 2 r @   ",
"  6 r P P T R T ( R P P V q & 6 r 2     ",
"  6 & & & & & % : : : : & 2 q r :       ",
"  6 6 2 : 2 2 2 : 6 6 6 6 6 : o         ",
"                                        "
};
