/* XPM */
static char *_1684366869[] = {
/* columns rows colors chars-per-pixel */
"20 20 85 1 ",
"  c None",
". c #220000",
"X c #240000",
"o c #250000",
"O c #260000",
"+ c #270000",
"@ c #280000",
"# c #290000",
"$ c #2A0000",
"% c #2C0000",
"& c #2D0000",
"* c #2E0000",
"= c #2F0000",
"- c #300000",
"; c #310000",
": c #320000",
"> c #330000",
", c #340000",
"< c #350000",
"1 c #360000",
"2 c #370000",
"3 c #380000",
"4 c #390000",
"5 c #3A0000",
"6 c #3B0000",
"7 c #3C0000",
"8 c #3D0000",
"9 c #3E0000",
"0 c #3F0000",
"q c #400000",
"w c #410000",
"e c #430000",
"r c #440000",
"t c #450000",
"y c #480000",
"u c #490000",
"i c #4B0000",
"p c #4C0000",
"a c #4D0000",
"s c #4E0000",
"d c #4F0000",
"f c #500000",
"g c #510000",
"h c #520000",
"j c #540000",
"k c #550000",
"l c #560000",
"z c #570000",
"x c #580000",
"c c #590000",
"v c #5A0000",
"b c #5B0000",
"n c #5C0000",
"m c #5D0000",
"M c #5E0000",
"N c #5F0000",
"B c #600000",
"V c #610000",
"C c #620000",
"Z c #630000",
"A c #640000",
"S c #650000",
"D c #660000",
"F c #670000",
"G c #680000",
"H c #690000",
"J c #6A0000",
"K c #6B0000",
"L c #6C0000",
"P c #6D0000",
"I c #6E0000",
"U c #6F0000",
"Y c #710000",
"T c #720000",
"R c #730000",
"E c #740000",
"W c #750000",
"Q c #770000",
"! c #780000",
"~ c #790000",
"^ c #7A0000",
"/ c #7B0000",
"( c #7E0000",
") c #820000",
"_ c #850000",
/* pixels */
" XX#X#X########X##X ",
" 77766776www776777w=",
" :aJcJCj,,7acmTJj,,=",
" =j^JFCU,:,aFF_Tj=:=",
" :wmCccC==:fFcJJc,=#",
" =6UUFFU6:6cCfJ^J,,=",
" ,umJUUQ,::jmfUTJ6,#",
" :ummJQTwwwjjfFTJ6,=",
" :aFcmUJF^JFfamFC,:#",
" ,jJccTUmUFjujCmC,:=",
" :uCcC^QFTJmcfCjm,:=",
" ,6w77tt777Cctmjm:=#",
" 6,:,::=###fCjmjJ,:=",
" XX.#XX..:,jFFFJF6:#",
"          :FCmFJT,,#",
"          :F(^^^),==",
"          ,f^QUUT,:#",
"          6::=#XX#,=",
"          ,6:==:,,7 ",
"                    "
};
