/* XPM */
static char *_1684366869[] = {
/* columns rows colors chars-per-pixel */
"20 20 98 2 ",
"   c None",
".  c #140000",
"X  c #160000",
"o  c #270000",
"O  c #280000",
"+  c #290000",
"@  c #2A0000",
"#  c #2B0000",
"$  c #2C0000",
"%  c #2D0000",
"&  c #2E0000",
"*  c #2F0000",
"=  c #300000",
"-  c #310000",
";  c #320000",
":  c #330000",
">  c #340000",
",  c #350000",
"<  c #360000",
"1  c #370000",
"2  c #380000",
"3  c #390000",
"4  c #3A0000",
"5  c #3C0000",
"6  c #3D0000",
"7  c #3E0000",
"8  c #3F0000",
"9  c #400000",
"0  c #410000",
"q  c #420000",
"w  c #430000",
"e  c #440000",
"r  c #450000",
"t  c #460000",
"y  c #470000",
"u  c #480000",
"i  c #490000",
"p  c #4A0000",
"a  c #4B0000",
"s  c #4C0000",
"d  c #4D0000",
"f  c #4E0000",
"g  c #4F0000",
"h  c #500000",
"j  c #510000",
"k  c #530000",
"l  c #540000",
"z  c #550000",
"x  c #560000",
"c  c #570000",
"v  c #580000",
"b  c #590000",
"n  c #5A0000",
"m  c #5B0000",
"M  c #5C0000",
"N  c #5D0000",
"B  c #5E0000",
"V  c #5F0000",
"C  c #600000",
"Z  c #610000",
"A  c #620000",
"S  c #630000",
"D  c #640000",
"F  c #650000",
"G  c #660000",
"H  c #670000",
"J  c #680000",
"K  c #690000",
"L  c #6A0000",
"P  c #6B0000",
"I  c #6C0000",
"U  c #6D0000",
"Y  c #6E0000",
"T  c #6F0000",
"R  c #700000",
"E  c #710000",
"W  c #720000",
"Q  c #730000",
"!  c #740000",
"~  c #750000",
"^  c #760000",
"/  c #770000",
"(  c #780000",
")  c #790000",
"_  c #7A0000",
"`  c #7B0000",
"'  c #7C0000",
"]  c #7D0000",
"[  c #7E0000",
"{  c #800000",
"}  c #810000",
"|  c #820000",
" . c #830000",
".. c #850000",
"X. c #860000",
"o. c #870000",
"O. c #890000",
"+. c #8B0000",
/* pixels */
"  O O % % O % % % O O % O O % % O %     ",
"  q 6 6 6 6 6 6 6 4 4 q q 6 6 6 q q >   ",
"  4 l J T Z T l k 4 q l J ~ J J k : >   ",
"  : M } ) R Z g g q g n H [ J Z l % :   ",
"  : n ~ H J q y y y k l n Z n g k % :   ",
"  > J } Z T n M Z l n M n l M M k : :   ",
"  : n X.T R ~ R p O O % % % : % > > :   ",
"  : M X.R T ~ ~ y O O > q 4 > > > 6 :   ",
"  > l [ J J Z H T g y n ~ T g 4 > 6 :   ",
"  : l [ ~ T J Z Z M l n J ~ R T 4 4 4   ",
"  : g ) ) ~ R H Z n Z H R R Z J M % >   ",
"  4 q p y g y p g p k ~ R J n H ~ : >   ",
"  6 > > : % > > : % 4 ) R T H J ~ : %   ",
"  4 g R R R T T n y J X.~ R M M R : :   ",
"  4 n +.+.} } X.~ M H ) ~ ~ H Z n % 4   ",
"  > l [ [ [ ) T H Z H ~ ) [ ) Z > % 4   ",
"  : 6 J T T T J J Z H T T H l : % 6 :   ",
"  4 % % O O % % O O O O : % % : > 4 X   ",
"  > > : : : : : > : % : : > > > % X     ",
"                                        "
};
