/* XPM */
static char *_1684366870[] = {
/* columns rows colors chars-per-pixel */
"20 20 92 1 ",
"  c None",
". c #160000",
"X c #190000",
"o c #1A0000",
"O c #200000",
"+ c #210000",
"@ c #220000",
"# c #230000",
"$ c #240000",
"% c #260000",
"& c #270000",
"* c #280000",
"= c #290000",
"- c #2A0000",
"; c #2B0000",
": c #2C0000",
"> c #2D0000",
", c #2E0000",
"< c #2F0000",
"1 c #300000",
"2 c #310000",
"3 c #320000",
"4 c #330000",
"5 c #340000",
"6 c #350000",
"7 c #360000",
"8 c #370000",
"9 c #380000",
"0 c #390000",
"q c #3A0000",
"w c #3B0000",
"e c #3C0000",
"r c #3D0000",
"t c #3E0000",
"y c #3F0000",
"u c #400000",
"i c #410000",
"p c #420000",
"a c #430000",
"s c #440000",
"d c #450000",
"f c #460000",
"g c #470000",
"h c #480000",
"j c #490000",
"k c #4A0000",
"l c #4B0000",
"z c #4C0000",
"x c #4D0000",
"c c #4E0000",
"v c #4F0000",
"b c #500000",
"n c #510000",
"m c #520000",
"M c #530000",
"N c #540000",
"B c #550000",
"V c #560000",
"C c #570000",
"Z c #580000",
"A c #590000",
"S c #5A0000",
"D c #5B0000",
"F c #5C0000",
"G c #5D0000",
"H c #5F0000",
"J c #600000",
"K c #610000",
"L c #620000",
"P c #630000",
"I c #640000",
"U c #650000",
"Y c #660000",
"T c #670000",
"R c #680000",
"E c #690000",
"W c #6B0000",
"Q c #6D0000",
"! c #6E0000",
"~ c #6F0000",
"^ c #700000",
"/ c #710000",
"( c #720000",
") c #750000",
"_ c #770000",
"` c #780000",
"' c #7E0000",
"] c #7F0000",
"[ c #800000",
"{ c #850000",
"} c #8A0000",
"| c #900000",
/* pixels */
"       $;;,;;;;;,   ",
"    ,ppeeeee7qeee7  ",
"   qdepdepn(YSLn47  ",
"  7pqF|Leqh!LnNS;7  ",
" $p7n_Ee;qeSnpen;4  ",
" 7eN}NhdhnvSShvh47  ",
" 74'[hphN744,;,,qq  ",
" 7e{Fpdvn7ehve77ee  ",
" 4dYhdvnY!((YFLp7e4 ",
" 7h!nvNdvnnhhN!(77e ",
" 7d(nnpvNvvvnnF_E,qo",
" qp`nhpvv4qpSLvL!,7@",
" eq!YdhFv@$;Y_NLY4,@",
" qqn[LhS(!(({!Y(E47@",
" 4q,N_nNFY!YLL!_L,q@",
" oq4,v(_LLYSY('(74e ",
"  ;e7;7nL!ELYYSq,q7 ",
"   ;ee44,44,;;$,qqo ",
"    o,77477,4777,.  ",
"                    "
};
