/* XPM */
static char *_1684366870[] = {
/* columns rows colors chars-per-pixel */
"20 20 89 1 ",
"  c None",
". c #230000",
"X c #250000",
"o c #260000",
"O c #270000",
"+ c #280000",
"@ c #290000",
"# c #2A0000",
"$ c #2B0000",
"% c #2C0000",
"& c #2D0000",
"* c #2E0000",
"= c #2F0000",
"- c #300000",
"; c #310000",
": c #320000",
"> c #330000",
", c #340000",
"< c #350000",
"1 c #360000",
"2 c #370000",
"3 c #380000",
"4 c #390000",
"5 c #3A0000",
"6 c #3B0000",
"7 c #3C0000",
"8 c #3D0000",
"9 c #3E0000",
"0 c #3F0000",
"q c #400000",
"w c #410000",
"e c #420000",
"r c #430000",
"t c #450000",
"y c #460000",
"u c #490000",
"i c #4B0000",
"p c #4C0000",
"a c #4D0000",
"s c #4E0000",
"d c #4F0000",
"f c #500000",
"g c #510000",
"h c #520000",
"j c #540000",
"k c #550000",
"l c #560000",
"z c #570000",
"x c #580000",
"c c #5A0000",
"v c #5B0000",
"b c #5C0000",
"n c #5D0000",
"m c #5E0000",
"M c #5F0000",
"N c #600000",
"B c #610000",
"V c #620000",
"C c #630000",
"Z c #640000",
"A c #650000",
"S c #660000",
"D c #670000",
"F c #680000",
"G c #690000",
"H c #6A0000",
"J c #6C0000",
"K c #6D0000",
"L c #6E0000",
"P c #6F0000",
"I c #700000",
"U c #710000",
"Y c #720000",
"T c #730000",
"R c #760000",
"E c #780000",
"W c #790000",
"Q c #7A0000",
"! c #7B0000",
"~ c #7C0000",
"^ c #7D0000",
"/ c #7E0000",
"( c #7F0000",
") c #810000",
"_ c #830000",
"` c #840000",
"' c #860000",
"] c #870000",
"[ c #8B0000",
/* pixels */
" @@@@%%@@%@@%%%.    ",
" www0005100000ww0X  ",
" 5aC~RgwuHRgwjy15w@ ",
" :gP[`vjmATj5amv:55 ",
" :aH``CvmgCj:0wPu%5 ",
" 5uCTTmmCvTT1uuuC%5%",
" 1@%%%%@@@5HamvaA11%",
" :%%:%::101wyjjam:%%",
"         11a0waaj1%%",
"         X1vajjvm::@",
"          :uvCHHH:%%",
"          1CRAPHH1%%",
"          :A~PTTT:%%",
"          :j`W_W~1%%",
"          :m_APT~5%%",
"          1m~PWHW1%%",
"          1gPTPPC:%%",
"          5%%X@X@@1%",
"          51::::%11 ",
"                    "
};
