/* XPM */
static char *_1684366870[] = {
/* columns rows colors chars-per-pixel */
"20 20 96 2 ",
"   c None",
".  c #160000",
"X  c #170000",
"o  c #190000",
"O  c #1E0000",
"+  c #1F0000",
"@  c #210000",
"#  c #220000",
"$  c #240000",
"%  c #260000",
"&  c #270000",
"*  c #280000",
"=  c #290000",
"-  c #2A0000",
";  c #2B0000",
":  c #2C0000",
">  c #2D0000",
",  c #2E0000",
"<  c #2F0000",
"1  c #300000",
"2  c #310000",
"3  c #320000",
"4  c #330000",
"5  c #340000",
"6  c #350000",
"7  c #360000",
"8  c #370000",
"9  c #380000",
"0  c #390000",
"q  c #3A0000",
"w  c #3B0000",
"e  c #3C0000",
"r  c #3D0000",
"t  c #3E0000",
"y  c #3F0000",
"u  c #400000",
"i  c #410000",
"p  c #420000",
"a  c #430000",
"s  c #440000",
"d  c #450000",
"f  c #460000",
"g  c #470000",
"h  c #480000",
"j  c #4A0000",
"k  c #4B0000",
"l  c #4C0000",
"z  c #4D0000",
"x  c #4F0000",
"c  c #500000",
"v  c #510000",
"b  c #520000",
"n  c #540000",
"m  c #550000",
"M  c #560000",
"N  c #580000",
"B  c #590000",
"V  c #5A0000",
"C  c #5B0000",
"Z  c #5C0000",
"A  c #5D0000",
"S  c #5E0000",
"D  c #600000",
"F  c #610000",
"G  c #620000",
"H  c #630000",
"J  c #640000",
"K  c #650000",
"L  c #660000",
"P  c #670000",
"I  c #680000",
"U  c #690000",
"Y  c #6A0000",
"T  c #6B0000",
"R  c #6D0000",
"E  c #6E0000",
"W  c #6F0000",
"Q  c #700000",
"!  c #710000",
"~  c #720000",
"^  c #730000",
"/  c #740000",
"(  c #750000",
")  c #760000",
"_  c #770000",
"`  c #790000",
"'  c #7A0000",
"]  c #7C0000",
"[  c #7E0000",
"{  c #7F0000",
"}  c #800000",
"|  c #830000",
" . c #840000",
".. c #860000",
"X. c #900000",
"o. c #990000",
/* pixels */
"        O = = = : : = : = = = #         ",
"    O t p w t t w t 5 t t t w p t %     ",
"  o p p w k P Y ~ P x n H k t 5 w t #   ",
"  5 t p P _ R R ' P x p g g N b 4 5 w   ",
"  5 4 ~  .P P H ~ H t 4 4 = t Y x : w   ",
"  w p o.~ H Y Y Y Y b x A k 4 g A 5 5   ",
"  5 k X._ H P k : 5 : : N Y k k N : 4   ",
"  4 t  ._ n P N w k g p ' R n n n : 5   ",
"  5 4 A ~ n H { { R P ~  .P x H A 4 5   ",
"  5 4 g ~ H H P _ Y Y ~ _ A k H t 5 5   ",
"  w 4 n { A N Y R H P ~ ~ H n R b : w   ",
"  w p ' ~ A A A p t w t P _ Y R R : 4   ",
"  5 x { _ P P p % = = = N  .R P Y 4 4   ",
"  w p ' ~ H Y _ A H Y _  .} ' ~ ~ : 4   ",
"  5 4 H ' Y Y ' _ ~ '  . .~ ~ ~ H = 5   ",
"  5 4 5 P { ' ' ~ _ { { _ ~ R H w 5 t   ",
"  : t 4 4 H ~ R P P Y Y Y Y N 5 4 t 5   ",
"    5 p 5 4 4 4 4 : % % % % = : w w .   ",
"      : w 5 4 4 5 4 : 4 5 5 w w : .     ",
"                                        "
};
