/* XPM */
static char *_1684366870[] = {
/* columns rows colors chars-per-pixel */
"20 20 97 2 ",
"   c None",
".  c #160000",
"X  c #1C0000",
"o  c #1D0000",
"O  c #1F0000",
"+  c #200000",
"@  c #210000",
"#  c #220000",
"$  c #230000",
"%  c #260000",
"&  c #280000",
"*  c #290000",
"=  c #2A0000",
"-  c #2B0000",
";  c #2C0000",
":  c #2D0000",
">  c #2E0000",
",  c #2F0000",
"<  c #300000",
"1  c #310000",
"2  c #320000",
"3  c #330000",
"4  c #340000",
"5  c #350000",
"6  c #360000",
"7  c #370000",
"8  c #380000",
"9  c #390000",
"0  c #3A0000",
"q  c #3B0000",
"w  c #3C0000",
"e  c #3D0000",
"r  c #3E0000",
"t  c #3F0000",
"y  c #400000",
"u  c #410000",
"i  c #420000",
"p  c #430000",
"a  c #440000",
"s  c #450000",
"d  c #460000",
"f  c #470000",
"g  c #480000",
"h  c #490000",
"j  c #4A0000",
"k  c #4B0000",
"l  c #4F0000",
"z  c #500000",
"x  c #510000",
"c  c #520000",
"v  c #530000",
"b  c #540000",
"n  c #550000",
"m  c #560000",
"M  c #570000",
"N  c #580000",
"B  c #590000",
"V  c #5A0000",
"C  c #5B0000",
"Z  c #5C0000",
"A  c #5D0000",
"S  c #5E0000",
"D  c #5F0000",
"F  c #600000",
"G  c #610000",
"H  c #620000",
"J  c #630000",
"K  c #640000",
"L  c #650000",
"P  c #660000",
"I  c #670000",
"U  c #680000",
"Y  c #690000",
"T  c #6A0000",
"R  c #6B0000",
"E  c #6C0000",
"W  c #6D0000",
"Q  c #6E0000",
"!  c #6F0000",
"~  c #700000",
"^  c #710000",
"/  c #720000",
"(  c #730000",
")  c #740000",
"_  c #750000",
"`  c #760000",
"'  c #770000",
"]  c #780000",
"[  c #790000",
"{  c #7A0000",
"}  c #7C0000",
"|  c #7D0000",
" . c #7E0000",
".. c #810000",
"X. c #840000",
"o. c #850000",
"O. c #860000",
/* pixels */
"        $ * * * * ; ; ; * o             ",
"    $ u u r 0 r r r r r u u r ;         ",
"  $ a u r B R  .R a B D a 7 0 u 0 .     ",
"  7 r u ` X.R X.R a h H ( P a 3 0 0     ",
"  r 7 H ` D v R P h u l B (  .0 ; r *   ",
"  0 a ( B v B { R b B ( B B { H 0 7 0   ",
"  7 h P v H R v ; ; 7 ( { P ( P v * 0   ",
"  7 a B a b H D r 0 r W ` H P B P ; 0 o ",
"  0 3 D h a l ( W D P P H D P B D ; 3 $ ",
"  r ; v W v h B H H W B v H W H P 3 ; $ ",
"  7 0 3 h P b v b P ( R B b P B R 3 ; o ",
"  * r 0 3 r u 3 r r a R H a v D P ; 7 $ ",
"  3 u u 0 3 ; % % * * H R D R ( B * 7 o ",
"  ; r B H H P P P H r P R B H { r ; 0   ",
"  ; r { P H P R { X.D D B H ` B ; 7 7   ",
"  ; 0 ` ( P H R (  .( W W { B ; ; r $   ",
"  ; 7 P R H H H H ( R B v r * 7 0 ;     ",
"  ; 3 ; * * * % * ; 3 * * ; 7 0 ;       ",
"  * 0 3 7 3 3 3 3 3 3 7 7 7 ; o         ",
"                                        "
};
