/* XPM */
static char *_p1684642664[] = {
/* columns rows colors chars-per-pixel */
"64 64 196 2 ",
"   c None",
".  c #341618",
"X  c #36271F",
"o  c #2C0D35",
"O  c #2C2424",
"+  c #382828",
"@  c #322C2D",
"#  c #34302F",
"$  c #3F3C3C",
"%  c #4F0407",
"&  c #5D0607",
"*  c #461A1B",
"=  c #5A1B1B",
"-  c #650404",
";  c #6B0405",
":  c #6E0909",
">  c #670909",
",  c #730404",
"<  c #7D0404",
"1  c #730906",
"2  c #780909",
"3  c #631F1E",
"4  c #6C1A1A",
"5  c #731314",
"6  c #791716",
"7  c #7D1C1D",
"8  c #761E1A",
"9  c #4A281D",
"0  c #483019",
"q  c #7C201F",
"w  c #402F29",
"e  c #453D3F",
"r  c #583636",
"t  c #772628",
"y  c #6B2F30",
"u  c #6C3235",
"i  c #6D3C35",
"p  c #6E3D3A",
"a  c #77383D",
"s  c #224419",
"d  c #26561F",
"f  c #414038",
"g  c #624339",
"h  c #230D50",
"j  c #1C205A",
"k  c #383B4A",
"l  c #4A3E42",
"z  c #494245",
"x  c #4C494B",
"c  c #494748",
"v  c #5C4545",
"b  c #504E4E",
"n  c #524952",
"m  c #545353",
"M  c #595757",
"N  c #5E5B5A",
"B  c #684040",
"V  c #604345",
"C  c #764143",
"Z  c #724852",
"A  c #6F5758",
"S  c #625E5E",
"D  c #705253",
"F  c #62605E",
"G  c #534C6B",
"H  c #4E5474",
"J  c #655C63",
"K  c #705F6B",
"L  c #646364",
"P  c #686565",
"I  c #6C6B6D",
"U  c #7F746F",
"Y  c #747474",
"T  c #777877",
"R  c #757679",
"E  c #7A7A7B",
"W  c #6F6F70",
"Q  c #840404",
"!  c #8B0404",
"~  c #850906",
"^  c #890A06",
"/  c #860B0C",
"(  c #8C0A09",
")  c #930504",
"_  c #9C0404",
"`  c #9A0907",
"'  c #940D0D",
"]  c #9B0C0B",
"[  c #8D1414",
"{  c #801619",
"}  c #831D1C",
"|  c #891619",
" . c #981010",
".. c #90181A",
"X. c #961516",
"o. c #9E0D11",
"O. c #A40404",
"+. c #AB0504",
"@. c #A20907",
"#. c #AE0806",
"$. c #AC0B09",
"%. c #A40608",
"&. c #B40404",
"*. c #BB0504",
"=. c #B80708",
"-. c #BE0C0D",
";. c #B90907",
":. c #BC130D",
">. c #B61A1C",
",. c #87211F",
"<. c #802C18",
"1. c #831C21",
"2. c #9A1F21",
"3. c #8C2424",
"4. c #8A2C2B",
"5. c #862822",
"6. c #922624",
"7. c #942D2C",
"8. c #952B2B",
"9. c #80312F",
"0. c #8E3125",
"q. c #94312F",
"w. c #99302F",
"e. c #8A3231",
"r. c #973030",
"t. c #9C3434",
"y. c #9C3B3B",
"u. c #A42624",
"i. c #BF2A27",
"p. c #B82A29",
"a. c #A23B39",
"s. c #A13433",
"d. c #B73836",
"f. c #C30404",
"g. c #CB0504",
"h. c #CC0805",
"j. c #CE0A09",
"k. c #C20908",
"l. c #DA0403",
"z. c #DD0C0B",
"x. c #D40305",
"c. c #CA1B1A",
"v. c #D51C1C",
"b. c #E20504",
"n. c #EA0404",
"m. c #E80808",
"M. c #EB110D",
"N. c #F41413",
"B. c #F20C0D",
"V. c #C22121",
"C. c #CC3632",
"Z. c #D63439",
"A. c #EA2529",
"S. c #854D47",
"D. c #885352",
"F. c #965454",
"G. c #AD4343",
"H. c #AD4A4A",
"J. c #AD4648",
"K. c #B44C4C",
"L. c #B04445",
"P. c #A65857",
"I. c #B25251",
"U. c #BD5959",
"Y. c #BA5152",
"T. c #8D6768",
"R. c #817F7E",
"E. c #AB7474",
"W. c #C15B5C",
"Q. c #C94B4F",
"!. c #C66363",
"~. c #C96564",
"^. c #CC6B6C",
"/. c #CD7A78",
"(. c #D47474",
"). c #D77D7E",
"_. c #408334",
"`. c #1C148B",
"'. c #0F0F91",
"]. c #2C35A9",
"[. c #4A479C",
"{. c #7E7F80",
"}. c #817E81",
"|. c #848284",
" X c #8C8A8B",
".X c #888B8A",
"XX c #92888C",
"oX c #969798",
"OX c #979798",
"+X c #8E8F90",
"@X c #A59597",
"#X c #9BA49F",
"$X c #A4A4A4",
"%X c #B5ABB2",
"&X c #DE8689",
"*X c #E99196",
/* pixels */
"                                                                                                                                ",
"                                                                                                                                ",
"                                                                                                                                ",
"                                                                                                                                ",
"                                                                                                                                ",
"                                                                                                                                ",
"                                                                                                                                ",
"                                                                                                                                ",
"                                                                                                                                ",
"                                                                                                                                ",
"                                                                                                                                ",
"                                                                                                                                ",
"                                                                                P P                                             ",
"                                                                                P P                                             ",
"                                                                            +XOXP P                                             ",
"                        OX                          S                       +X+XP P                                             ",
"                        OXOX                        R.}.                    |.|.F F                                             ",
"                        OX$X                      K |.}.                    |.|.F L   P                                         ",
"                         X.X                    P.T.Y.Z.N.N.f.*.n.n.E.E.$X$XL F     T Y     T E                                 ",
"                         X XOX                  P.Q.A.A.N.B.f.=.n.n.I.@X$X$XL J     T E N   E Y                                 ",
"                        N S oX+X        x.x.h.h.A.A.B.m.h.h.b.z.V.V.%X%XoXoXr e ) ! D.D.W R +XR.                                ",
"                        L L  X+X      m.b.-.f.g.A.A.n.B.h.h.z.b.V.V.%X%XoXoXr r _ ! D.D.R {.W }.                                ",
"                        m m I I y.y.x.x.=.f.k.f.b.m.f.f.l.l.b.b.XXXX X Xm m 4 4 ! ! Z Z R R N                                   ",
"                        m x I I y.y.x.x.f.=.k.g.b.m.f.f.l.b.b.b.XXXX X Xm m 3 4 ! ! Z Z R R                                     ",
"                Y }.|.|.  z u y %.%.&.&.#.#.*.*.f.f.l.x.&.=.n.n.0.5.c c k e ^ ! t t R T M M / ~                                 ",
"                E E |.+X    y y %.%.*.&.#.&.f.f.*.f.l.l.*.=.m.B.4.4.x x e e ~ ! t t T T M M ^ ^ %.                              ",
"                    W E T.T.+.+.g.g.b.l.&.&.=.&.*.*.&.&.+.+.j.j.x.l.;.;.) ) O.O.#.$.t.t.....Q ! %._ ! Q                         ",
"                    Y W T.J.+.+.f.f.b.b.&.=.&.=.=.*.+.&.&.+.k.k.l.x.;.;._ _ O.O.$.#.y.t.....Q Q O._ Q ^                         ",
"                        -.-.&.&.*.*.l.l.` _ Q < Q Q f.g.g.g.z.z.l.l.@.@.< < O.O.&.&.&.+.&.&., , < < , 1                         ",
"                        -.-.&.*.*.f.l.l.` ` < Q Q Q g.g.g.g.z.z.l.l.O._ < < O._ &.&.&.&.&.&., , < < 1 1                         ",
"                    =.&.+.+. . .' ' =.*.*.*.! ^ %.O.g.g.n.n.f.g.%.%.: 2 > - ! ! &.+.&.+.&.&.! ! O.O.' ] o.X.                    ",
"                    =.=.&.+. . .' ( *.*.f.*.^ Q %.%.x.g.n.n.g.g.%.%.: 2 - - ) ! &.+.&.&.&.&.! ) O.O.( ] u.X.                    ",
"                    @._ [ [ a.y.0.0.8.8.~ ~ 2 < O.O.O.O.~ ( [ [ 4.4.<.<.0.0.3.3.] ] *.*.+.+.Q Q Q ! r.r.!.!.                    ",
"                    _ _ [ [ a.a.0.<.0.0.~ ~ ~ 2 _ O.%.O.~ ( [ [ 4.4.<.<.0.0.3.3.] o.*.*.+.+.Q < ! ! r.t.!.!.L.                  ",
"                $.] , 1 q.q.Y.Y.w.w.q.q.0 0 _._.d d s s s.w.w.w.6.3.a.G.W.W.t.r.1.3.: 2 , , _ _ g.f.2.2.K.J.6.3.                ",
"                $.k.1 1 q.0.Y.Y.t.t.q.q.0 0 _._.d d s s s.s.w.w.3.6.L.G.W.W.t.r.3.3.5 1 , , _ ) f.f.2.2.K.K...6.                ",
"                #.+.: ; q.e.K.K.~.!.a.y.} 1.5.5.7.w.w.7.6.,.a.s.!.W.~.~.L.L.U.U.,.6.6 6 - - _ _ f.f.< < { { Q 2                 ",
"                +.#.; 1 q.q.K.K.!.!.y.y.5.} 5.t 7.7.r.r.,.,.a.a.W.W.^.!.L.J.U.U.6.3.6 6 - - ) _ f.g.< < { { ; 2                 ",
"                1 1 J.J.p p 4.q.W.W.^.(.!.!.a.s.I.I.~.~.W.W.U.U.).(.K.K.w.w.K.H.{ } * * < , O._ Q Q _ _ < < ; ;                 ",
"                1 1 J.J.p p 7.7.W.W.^.^.!.!.t.a.I.I.~.!.W.W.U.Y.(.(.K.H.w.w.J.H.{ | * * , , _ O.< < _ %.Q < ; ,                 ",
"                , , 6.8.D D ,.} G.G.~.~.&X&XH.H.*X*X~.~.~.~.Q.K.J.G.t.t.} } 6 6 4 3 x x & & +.+.( ( +.O.- - & -                 ",
"                , , 8.8.D D 1.} G.G.~.~./.).H.H.*X*X~.~.W.~.K.K.G.G.s.y.} } 6 6 3 3 b x & & O.+.' ! O.O.- - - &                 ",
"                Q < 9.9.e $ g B 6 } K.K.I.I././.&X&X).).(.^.L.L.} } 5 5 { { A A m m . . % % ! ! , , , < - - , ,                 ",
"                Q Q 9.9.e $ p B } 7 K.Y.H.P././.&X&X).).(.(.L.L.1.} 5 5 { { A A M b . . % % ! ! < , < < & - , ,                 ",
"                ! ) u.u.X X O @ V V ,.,.q.w.a.y.L.L.a.y.7.7.q q = = V V @ @ # # * 9 > > T T { { ! Q ! ! & & - -                 ",
"                _ ) u.u.X + O O V g ,.,.q.q.a.a.L.L.a.y.7.7.q } = = B l @ @ # # . * > > E E { { Q Q ! ! & & - -                 ",
"                ) ( k.k.#X#X. . j j f f i i S.S.a a C C r y b b k k e $ X . + + 6 5 q q | ..v.v.+.O.) ) - - &                   ",
"                ) _ k.;.#X#XX . j j f f g g S.S.a a C C r r b b k k $ $ O O + + 5 5 7 7 ..1.v.v.%.+.) ! - -                     ",
"                &.=.@.@.s.s.^ ^ o o K K `.`.[.[.].].H H T Y b n h h 9 0 q 8 U T.P L P.F.b.b.n.b.O.O.) ) , ,                     ",
"                =.#.@.` s.s.^ ^ o o K K `.`.[.[.].].H H Y T b b h h 9 0 5 8 U R.F J P.P.b.z.n.b.O.O.) ) , ,                     ",
"                    6.6.$.$.C.C.] ' R.R.v v G G G G '.'. X XJ J 6 { 5 4 g g p u 5.1.>.>.h.h.+.+._ _ Q Q ; -                     ",
"                    6.6.$.$.C.C. .' R.E g v G H G G '.'.+X XJ J { { 4 4 g g p p 5.1.>.>.g.g.+.+._ _ Q < - -                     ",
"                      7.u.u.h.h.h.j.t t 6.8.i.i.p.p.1.1.E }.v v w w 4.e.k.:.M.M.:.:.@.O.%.%.&.&.O.+.! ! ;                       ",
"                        u.u.j.j.h.h.t t 6.6.i.V.p.p.1.} {.{.v n w w e.e.:.k.M.M.:.:.%.%.+.O.&.*.+.O.! !                         ",
"                        @.` ;.;.g.f.+.O.f.f.g.f.g.g.f.f.8 8 / / b.b.b.b.c.j.d.d.a.a.} } *.=.O.O.Q ! Q Q                         ",
"                        @.@.&.;.h.h.O.$.*.f.f.g.g.g.f.*.q 8 / / n.b.b.b.v.v.d.d.a.a...} *.&.O.O.! ! < Q                         ",
"                        u u %.%.*.=.+.+.O.O.g.x.f.g.+.+.O.+.x.g.&.&.&.&.' [ V.V.>.>.%.$.%.%.Q ! > 1                             ",
"                        u u @.O.*.=.+.&.O.O.g.g.g.f.+.&.+.+.g.g.&.&.&.&.[ ' V.c.>.u.$.$.%._ / Q : :                             ",
"                        i   : 1 +.+.l.j.! ^ +.#.) _ f.l.&.*.+.&.) ) f.*.%.%.a a |..X7 7 ! ! ! < ! !                             ",
"                            : > +.+.l.x.Q ! +.#.) ) &.f.&.&.&.+.) ) f.f.O.%.a a .X.X7 q Q ! ! _ Q !                             ",
"                              Q 1 1 - ; Q ) ! ! +.` < < ` O.) ) < ~ ) ( O.O.5.t L J 3 3 ) ) ) !                                 ",
"                                1 1 - ; ^ ! ) ! &.O.< < _ _ ! ) ~ < ) ) O.O.4.t L L = 3 ) ) ! !                                 ",
"                                      ; ; ,     _ *.; , > 1 O.` ( ! ) ] )       c x z l                                         ",
"                                        , ,     O.Q , , ; ; _ _ ! ) ] ]         c x l z                                         "
};
