/* XPM */
static char *_p1684642664[] = {
/* columns rows colors chars-per-pixel */
"64 64 194 2 ",
"   c None",
".  c #1A193E",
"X  c #361825",
"o  c #242120",
"O  c #302D2B",
"+  c #440F0F",
"@  c #5C0F06",
"#  c #5A0406",
"$  c #491312",
"%  c #551B15",
"&  c #551808",
"*  c #640504",
"=  c #6A0504",
"-  c #6C0A09",
";  c #720404",
":  c #7B0404",
">  c #760B0B",
",  c #7B0E0C",
"<  c #760705",
"1  c #761508",
"2  c #6B0710",
"3  c #631717",
"4  c #731A13",
"5  c #7C1A15",
"6  c #7D1B19",
"7  c #781716",
"8  c #451A23",
"9  c #522224",
"0  c #4A3E22",
"q  c #502F3C",
"w  c #672322",
"e  c #7C2B2C",
"r  c #782325",
"t  c #77393B",
"y  c #663436",
"u  c #24501D",
"i  c #275C21",
"p  c #1E0D43",
"a  c #382E58",
"s  c #220966",
"d  c #222562",
"f  c #373B67",
"g  c #542140",
"h  c #413F40",
"j  c #5A3356",
"k  c #783E43",
"l  c #6E3D5D",
"z  c #583462",
"x  c #45444D",
"c  c #4D4B4C",
"v  c #554C4C",
"b  c #595354",
"n  c #5B5A57",
"m  c #5C5B5B",
"M  c #555354",
"N  c #53514F",
"B  c #7C4544",
"V  c #774C4C",
"C  c #73514D",
"Z  c #71584C",
"A  c #61445F",
"S  c #625D5C",
"D  c #795A59",
"F  c #6C4A49",
"G  c #62625C",
"H  c #565161",
"J  c #5F6161",
"K  c #646464",
"L  c #6B6B6C",
"P  c #6A6864",
"I  c #6F7377",
"U  c #737273",
"Y  c #7C7C7C",
"T  c #6D6E71",
"R  c #615F64",
"E  c #830505",
"W  c #8C0404",
"Q  c #8A0905",
"!  c #8A0C0A",
"~  c #820B08",
"^  c #940505",
"/  c #9B0505",
"(  c #9B0B0A",
")  c #970A07",
"_  c #891407",
"`  c #841C1B",
"'  c #881615",
"]  c #961414",
"[  c #9A1715",
"{  c #9C191B",
"}  c #931B1B",
"|  c #9E1006",
" . c #A40404",
".. c #AC0404",
"X. c #A30A05",
"o. c #AB0906",
"O. c #A30A0C",
"+. c #AB0809",
"@. c #B30505",
"#. c #BB0505",
"$. c #B20906",
"%. c #B90906",
"&. c #B70B0B",
"*. c #A4120E",
"=. c #BE110C",
"-. c #AF1415",
";. c #A51815",
":. c #B01011",
">. c #812817",
",. c #812607",
"<. c #8D1E21",
"1. c #B41F23",
"2. c #822422",
"3. c #8B2625",
"4. c #8E2B2A",
"5. c #8F2728",
"6. c #942624",
"7. c #932B2B",
"8. c #992F2A",
"9. c #98342D",
"0. c #962F31",
"q. c #973435",
"w. c #9C3433",
"e. c #9A3933",
"r. c #9A3838",
"t. c #AF2424",
"y. c #B42624",
"u. c #A7302D",
"i. c #A33B3A",
"p. c #AA3636",
"a. c #C40504",
"s. c #CC0504",
"d. c #C30A06",
"f. c #CC0907",
"g. c #D30505",
"h. c #DB0303",
"j. c #D70908",
"k. c #C71414",
"l. c #E20404",
"z. c #E50806",
"x. c #C52B2D",
"c. c #FB2625",
"v. c #A9403F",
"b. c #A7413E",
"n. c #A63E40",
"m. c #804544",
"M. c #994B4A",
"N. c #864F52",
"B. c #805255",
"V. c #AC4342",
"C. c #AE4948",
"Z. c #B44B4B",
"A. c #B54A44",
"S. c #B7504F",
"D. c #BA5252",
"F. c #BE5856",
"G. c #827B7D",
"H. c #8C7C77",
"J. c #9C7D7B",
"K. c #95625E",
"L. c #C25C5C",
"P. c #C05957",
"I. c #C0605F",
"U. c #C75E60",
"Y. c #C36162",
"T. c #C86363",
"R. c #CB6A6B",
"E. c #D26E6F",
"W. c #D26F70",
"Q. c #D37373",
"!. c #D67C7B",
"~. c #428C33",
"^. c #7A8077",
"/. c #85837D",
"(. c #1F22A2",
"). c #1A38BE",
"_. c #817F80",
"`. c #7F8284",
"'. c #838384",
"]. c #8C8B8C",
"[. c #888788",
"{. c #938C8B",
"}. c #948F93",
"|. c #9E9E9F",
" X c #959597",
".X c #8E9092",
"XX c #A19FA0",
"oX c #9DA1A5",
"OX c #A6A5A9",
"+X c #9F9898",
"@X c #DD8283",
"#X c #E59293",
"$X c #C09FA4",
"%X c #C6C7CA",
/* pixels */
"                                                                                                                                ",
"                                                                                                                                ",
"                                                                                                                                ",
"                                                                                                                                ",
"                                                                                                                                ",
"                                                                                                                                ",
"                                                                                                                                ",
"                                                                                                                                ",
"                                                                                                                                ",
"                                                                                                                                ",
"                                                                                                                                ",
"                                                                                                                                ",
"                                            K K                                                                                 ",
"                                          P P K                                       S                 T                       ",
"                        L L             '._.[.].                                    _.G.            U U P K                     ",
"                        L L             '.'..X].                                    _.'.            U U K K                     ",
"                        K P '.[.        _._.OXOX                                    |.|.P K         U U                         ",
"                        K S '.[.        _._.OXOX                                    |.+XK K        XU U                         ",
"                            L L [.[.    G P '.[.    a.#.s.s.g.s.z.z.s.s.#.a.    '.`.Y Y c c ].]._.`.K m                         ",
"                            L L ].].[.  G n [.'._.  #.a.a.h.g.g.l.l.a.g.#.a.    ^.'.Y Y v c ].[.Y ^.M m                         ",
"                            b b U U  X XJ.K.o.X.s.s.a.a.h.h.z.l.c.c.g.j.s.a.s.s.d.a.k k XX|.'.'.m m c                           ",
"                            M M I U  X X{.{./ | g.s.a.#.h.h.z.l.c.c.s.j.s.s.s.s.a.a.k k XXXX'.'.m m                             ",
"                '._.            v b Y _.OXOX$X$X%.%.a.a.a.a.h.h.h.h.g.h.#.@.s.a.V.V.%X%X].].K J v y         U U                 ",
"                _./.T           v v /.'.OXOX$X$X%.%.a.f.a.a.h.h.h.h.g.g.@.@.s.a.V.b.%X%X].].J J r y       '.L Y _.              ",
"                    ].}.oXoXM.M.@.+.b b T L `.`.f.f.+.@.@...a.s.a.a.#.#.@...s.g.N.N.U U K K ` <.1.1. X X_._._.Y                 ",
"                    ].'.XXOXM.M.+.+.b b T T `.'.f.f.@.@.@.@.a.a.d.d.a.#...@.s.s.N.N.U Y P K <.<.1.1..X|.'._.Y _.                ",
"                        S R `.`.i.r.` ` 4.q.t.t.@.@.#.#.a.a.^ ^ /  .....s.s...@.*.*.q.q.-.;.#.#.I I U U F V                     ",
"                        R R `.`.r.w.` ` 0.0.t.y.@.@.#.#.s.a.^ ^ / / @...s.g.....*.*.q.q.;.;.@.#.I I T I t B                     ",
"                    o.o.&.&.e e g.g.@.#.^ ^ X./ a.a.h.l.s.s.^ ^ : : @.#.h.h.g.g.....W Q ) / s.s.} { ;.{ f.a.                    ",
"                    o.o.&.&.4.e f.g.@.#.! ^ X.X.a.#.h.l.s.s.^ ^ : : #.#.h.h.g.g.@...W Q ) ) s.s.{ } { { a.%.@.                  ",
"                    %.@.+.+.....#.#.] ' 6 5 ' ` ] ]  . .a.a.a.a. . .s.a.$.@.( X.} } 7 4 , ' #.#.$.$.X.X.%.%.X.X.                ",
"                  ) %.@.@.@.@...#.#.] ! ` 6 ` ' ] ] +. .a.a.a.a... .s.s.$.@.*.( } ' 7 > ' 7 @.%.@.@.X.X.%.%.X.X.                ",
"                _ ,.; ; ^ ^ o.o. . .i.e.8.4.e.e.i.i.5 ` 5 4 @ @ & & @ @ >.` 3.6.i.i.6 >.b.i.[ [ ) ^ ....: E 1 1                 ",
"                1 Q ; ; ^ W  .X. . .e.u.>.4.e.e.i.i.5 5 1 4 @ @ & & @ @ ` ` 3.3.i.i.>.>.i.i.{ { ) )  ...E : 1 1                 ",
"                d.d.^ / = = , , i.i.P.P.D.D.7.0.9.u.7.7.0 0 ~.~.u u u i >.r i.i.6.3.r.n.F.F.b.b.5.5.; ; : ; #.#.#.%.            ",
"                f.f.^ / = = , , i.i.P.I.S.S.7.0.w.r.7.7.0 0 ~.~.u u u i 2.2.i.r.3.3.n.n.F.F.C.b.4.5.; ; : : #.#.a.#.            ",
"                s.s...o.> > - 3 w.q.Z.Z.Y.Y.Y.T.v.v.w.9.4.4.3.3.7.0.<.<.q.w.w.w.D.D.R.R.S.Z.V.V.6 6 * * 1 E #.#.a.a.            ",
"                f.s. ...> > - - w.w.Z.Z.U.U.T.T.v.v.9.w.7.4.3.2.9.0.<.<.q.q.w.w.D.S.R.R.S.S.A.v.7 6 * - : : a.#.a.a.            ",
"                 ./ 8.8.7.0.G G 3 4 5.3.Z.C.T.T.R.R.F.F.T.T.C.C.3.3.R.R.L.U.D.D.@X@XZ.C.r.r.5 5 Z Z % % ^ / W ^ @. .            ",
"                 . .w.u.9.0.G S 4 4 3.5.Z.C.T.T.R.R.P.P.T.Y.C.C.3.3.R.R.Y.L.F.D.@X@XA.A.r.u.5 5 Z Z % % ^ ^ ^ W  . .            ",
"                ; ; 3.3.% % O O [.[.7 w w.w.n.A.T.T.E.E.W.Q.#X#XI.I.@X@XU.U.Q.Q.Z.Z.n.n.` ` D D c c $ $ : < ; ; = <             ",
"                ; ; 3.3.% % O O [.`.7 r w.w.V.n.T.T.E.E.W.Q.#X#XI.I.@X@XU.U.!.Q.Z.Z.n.n.` ' D D c c $ + : : ; ; : <             ",
"                W ^ ..$.V B.o o h h C V C V <.` n.n.R.R.Q.W.U.U.I.I.!.!.W.W.D.D.7.7.e e B.D K H + + B B > > ^ ^ : Q             ",
"                ^ W @.$.B.B.o o h h V V V V ` <.V.i.R.T.W.Q.Y.Y.I.I.!.!.W.W.S.D.6.7.e e D D K R + + B V > > ^ ^ / Q             ",
"                o.$.a.a.A.v.3 3 X X . . h j T T r r >.2.w.w.r.w.w.8.r.r.8.7.6 6 C C n M . . 9 9 7 4 9.9.:.:.$.$.$.$.            ",
"                $.$.a.a.A.b.4 3 8 8 . . x h L L 6 6 <.2.w.i.w.w.0.u.r.r.7.7.6 6 C C n n . p 9 9 4 4 u.9.:.:.@.@.%.$.            ",
"                o.o.%.d.z.z.D D /./.X . p p d d b S S S j j N.B t q.A l K K S n a a 8 8 % 3 _.H.G G -.;.f.f.o.o.                ",
"                $.$.d.d.z.z.G D /./.X o p p d d S b S S j j V V t t l l P K S S a a 8 8 % 3 _.J.G G 1.-.f.a.o.o.                ",
"                  a.....*.[ d.#.V.b.! _ 2 2 s s  X}.H H (.(.f f c x ).).z a {..Xz z 5 ` ! ! u.u.[ ] @.#.@...#.#.                ",
"                    ....*.*.d.d.i.V._ _ 2 2 s s  X}.H H (.(.f f x x ).).f f .X{.z j ` 6 _ ! u.u.] ] #.@... .#.#.                ",
"                    ! W C.C.i.i.%.%.f.k.:.:.7.4._.H.P P A A C C g g ^.^.q q ].{.r e r.r.k.k.g.j.[ [ #.#.O. . . .                ",
"                    W ! C.Z.i.i.%.%.k.k.:.:.4.4._./.P P A A V C g g ^.I q q .X.Xe r r.r.k.-.j.j.[ [ %.@. . . . .                ",
"                    : E w.w.n.n.] ] d.=.z.z.j.j.2.2.5.4.y.y.x.x.f.j.D.D.O.O.m.m.@.&.j.z.j.g.p.p.6.5. . .W : ~ ~                 ",
"                  Q E : 0.w.n.n.] ] k.=.z.z.j.f.2.2.7.4.y.y.x.x.f.f.D.D.O.O.m.B @.@.j.z.g.f.p.p.5.5. .+.E E E E                 ",
"                    ..@.; > 6.6.a.a./ ^ O.+.f.a.s.a.#.#.s.a.g.g.s.s.a.a.d.d.+.@.g.f.:.@.;.;.y.y.<.} ^ ^ ^ O. .O.                ",
"                    ../ - - u.6.a.a.^ / +. .a.a.a.s.#.@.a.a.s.s.f.s.f.s.d.d.@.@.f.f.@.+.;.;.y.y.<.<.^ ^ W W ^ /                 ",
"                            ].].t y l.l.a.a./ / ...... . . .s.s.a.f.) ) ..o.@.@. ./ @.@.%.$.O.O.Y G.I I                         ",
"                            {.].t t l.l.a.a./ / .... . . .o.s.s.f.s./ ) ....@.#./  .@.@.$.$.O.O.G.G.I U                         ",
"                            R S w w +.../ / W E  ./ a.a.@...W Q X.X.W W h.h.....E E E E +.o.> < v m R H                         ",
"                            K H w w ..../ / E W  ./ a.a.....Q Q X.X.W E h.h.o.@.E E E E o.+.> > b b n m                         ",
"                            b b          .| W ^   - ^ W : ; : ~ ....- = W E W E #.#.W ^ ) ) 6     b M                           ",
"                            b b          . .W /     Q ^ : : ~ ~ ....= = : E E W a.#.W W ) ]                                     ",
"                                                = * # # * * ^ W /   ^ / * # # * ; ; <                                           ",
"                                                = * # # = * E W     / ^ * # * * ; <                                             "
};
