/* XPM */
static char *_p1684642664[] = {
/* columns rows colors chars-per-pixel */
"64 64 196 2 ",
"   c None",
".  c #341618",
"X  c #36271F",
"o  c #2C0D35",
"O  c #2C2424",
"+  c #382828",
"@  c #322C2D",
"#  c #34302F",
"$  c #3F3C3C",
"%  c #4F0407",
"&  c #5D0607",
"*  c #461A1B",
"=  c #5A1B1B",
"-  c #650404",
";  c #6B0405",
":  c #6E0909",
">  c #670909",
",  c #730404",
"<  c #7D0404",
"1  c #730906",
"2  c #780909",
"3  c #631F1E",
"4  c #6C1A1A",
"5  c #731314",
"6  c #791716",
"7  c #7D1C1D",
"8  c #761E1A",
"9  c #4A281D",
"0  c #483019",
"q  c #7C201F",
"w  c #402F29",
"e  c #453D3F",
"r  c #583636",
"t  c #772628",
"y  c #6B2F30",
"u  c #6C3235",
"i  c #6D3C35",
"p  c #6E3D3A",
"a  c #77383D",
"s  c #224419",
"d  c #26561F",
"f  c #414038",
"g  c #624339",
"h  c #230D50",
"j  c #1C205A",
"k  c #383B4A",
"l  c #4A3E42",
"z  c #494245",
"x  c #4C494B",
"c  c #494748",
"v  c #5C4545",
"b  c #504E4E",
"n  c #524952",
"m  c #545353",
"M  c #595757",
"N  c #5E5B5A",
"B  c #684040",
"V  c #604345",
"C  c #764143",
"Z  c #724852",
"A  c #6F5758",
"S  c #625E5E",
"D  c #705253",
"F  c #62605E",
"G  c #534C6B",
"H  c #4E5474",
"J  c #655C63",
"K  c #705F6B",
"L  c #646364",
"P  c #686565",
"I  c #6C6B6D",
"U  c #7F746F",
"Y  c #747474",
"T  c #777877",
"R  c #757679",
"E  c #7A7A7B",
"W  c #6F6F70",
"Q  c #840404",
"!  c #8B0404",
"~  c #850906",
"^  c #890A06",
"/  c #860B0C",
"(  c #8C0A09",
")  c #930504",
"_  c #9C0404",
"`  c #9A0907",
"'  c #940D0D",
"]  c #9B0C0B",
"[  c #8D1414",
"{  c #801619",
"}  c #831D1C",
"|  c #891619",
" . c #981010",
".. c #90181A",
"X. c #961516",
"o. c #9E0D11",
"O. c #A40404",
"+. c #AB0504",
"@. c #A20907",
"#. c #AE0806",
"$. c #AC0B09",
"%. c #A40608",
"&. c #B40404",
"*. c #BB0504",
"=. c #B80708",
"-. c #BE0C0D",
";. c #B90907",
":. c #BC130D",
">. c #B61A1C",
",. c #87211F",
"<. c #802C18",
"1. c #831C21",
"2. c #9A1F21",
"3. c #8C2424",
"4. c #8A2C2B",
"5. c #862822",
"6. c #922624",
"7. c #942D2C",
"8. c #952B2B",
"9. c #80312F",
"0. c #8E3125",
"q. c #94312F",
"w. c #99302F",
"e. c #8A3231",
"r. c #973030",
"t. c #9C3434",
"y. c #9C3B3B",
"u. c #A42624",
"i. c #BF2A27",
"p. c #B82A29",
"a. c #A23B39",
"s. c #A13433",
"d. c #B73836",
"f. c #C30404",
"g. c #CB0504",
"h. c #CC0805",
"j. c #CE0A09",
"k. c #C20908",
"l. c #DA0403",
"z. c #DD0C0B",
"x. c #D40305",
"c. c #CA1B1A",
"v. c #D51C1C",
"b. c #E20504",
"n. c #EA0404",
"m. c #E80808",
"M. c #EB110D",
"N. c #F41413",
"B. c #F20C0D",
"V. c #C22121",
"C. c #CC3632",
"Z. c #D63439",
"A. c #EA2529",
"S. c #854D47",
"D. c #885352",
"F. c #965454",
"G. c #AD4343",
"H. c #AD4A4A",
"J. c #AD4648",
"K. c #B44C4C",
"L. c #B04445",
"P. c #A65857",
"I. c #B25251",
"U. c #BD5959",
"Y. c #BA5152",
"T. c #8D6768",
"R. c #817F7E",
"E. c #AB7474",
"W. c #C15B5C",
"Q. c #C94B4F",
"!. c #C66363",
"~. c #C96564",
"^. c #CC6B6C",
"/. c #CD7A78",
"(. c #D47474",
"). c #D77D7E",
"_. c #408334",
"`. c #1C148B",
"'. c #0F0F91",
"]. c #2C35A9",
"[. c #4A479C",
"{. c #7E7F80",
"}. c #817E81",
"|. c #848284",
" X c #8C8A8B",
".X c #888B8A",
"XX c #92888C",
"oX c #969798",
"OX c #979798",
"+X c #8E8F90",
"@X c #A59597",
"#X c #9BA49F",
"$X c #A4A4A4",
"%X c #B5ABB2",
"&X c #DE8689",
"*X c #E99196",
/* pixels */
"                                                                                                                                ",
"                                                                                                                                ",
"                                                                                                                                ",
"                                                                                                                                ",
"                                                                                                                                ",
"                                                                                                                                ",
"                                                                                                                                ",
"                                                                                                                                ",
"                                                                                                                                ",
"                                                                                                                                ",
"                                                                                                                                ",
"                                                                                                                                ",
"                                            P P                                                                                 ",
"                                            P P                                                                                 ",
"                                            P P OX+X                                                                            ",
"                                            P P  X+X                      S                           OX                        ",
"                                            F F |.|.                    }.}.                        #X$X                        ",
"                                        I   F F |.|.                    }.}.I                       OXOX                        ",
"                                E T     W T     L L $X$XE.E.n.n.-.*.N.N.Z.Q.T.I.                    XX X                        ",
"                                Y E   N E T     L L $X$X@XI.n.n.=.f.B.N.Z.A.Q.U.                  #X|. X                        ",
"                                |.+XR I D.D.) ) r e OXoX%X%XV.c.b.z.g.g.m.m.A.A.g.j.j.x.        +X+XS F                         ",
"                                }.W }.Y D.D.! ) r r OXOX%X%XV.i.b.z.j.g.M.m.A.A.g.g.k.l.m.      OX+XS S                         ",
"                                  N R R Z Z ! ! 3 4 m m .X.XXXXXb.b.l.l.f.g.b.b.k.g.*.=.x.x.y.y.I I M m                         ",
"                                    R Y Z Z ! ! 4 3 m n XX.XXXXXb.b.b.l.f.k.b.b.g.f.=.f.x.g.y.t.I I b n                         ",
"                                ^ 2 M M R T t t ~ ^ e e x c 9.4.m.n.;.&.l.l.*.f.*.f.+.#.;.*.%.%.y y c   |.|.E Y                 ",
"                              %.( ^ M M R R t t ^ ^ e e c x 4.4.n.B.&.*.l.l.*.k.f.f.+.#.&.&.%.%.y y     +X|.E E                 ",
"                        Q ! _ _ Q ! ....t.y.$.#.O.O.) _ =.=.l.l.h.h.#.+.+.&.*.*.&.=.*.&.b.b.g.g.+.+.F.T.E Y                     ",
"                        Q Q O._ ! ! ....t.t.#.+.O.O._ ) =.=.l.l.h.h.&.+.&.&.*.-.&.&.&.;.b.l.g.f.+.+.F.T.W Y                     ",
"                        2 < < < , , &.&.&.+.&.&._ O.< Q O.O.l.l.z.z.g.g.g.f.Q Q < Q ` ` l.l.*.f.=.&.-.-.                        ",
"                        1 1 < < , , &.&.&.&.&.&.O._ < < O.O.l.l.z.z.g.g.f.g.! Q Q < ` ` l.l.*.*.&.*.-.-.                        ",
"                    X.o.' ' O.O.! ! &.&.+.+.&.&.! ! ; > : : @.@.k.k.n.n.g.g.%.O.Q ! *.*.*.*.( [  . .+.&.=.=.                    ",
"                    X.u.` ` O.O.! ! &.&.&.&.&.+.! ) > - : : @.O.g.g.n.n.x.g.O.O.! ! *.f.*.*.' '  .] +.+.;.&.                    ",
"                    !.!.r.t.! ! Q Q +.&.*.*. .` 3.3.0.0.<.<.4.4.| | ^ Q %.%.%.O.2 < ^ ~ q.6.0.0.y.y.[ [ _ _                     ",
"                  G.!.!.t.r.! ! Q Q +.%.*.*.` ] 3.6.0.0.<.,.4.4.[ [ Q ! %.O.O.O.< < ~ ~ 6.0.0.0.a.a.[ [ O._                     ",
"                3.8.K.K.2.2.f.f.) _ , , 1 : 3.3.t.t.W.W.G.G.3.3.w.r.s.t.s s d d _._.0 0 q.q.t.t.Y.Y.0.0.1 1 ] $.                ",
"                2.1.K.H.2.2.f.g._ ) , , : 2 3.3.t.r.W.W.G.a.3.3.w.w.t.s.s s d d _._.0 0 q.q.t.t.Y.Y.w.q., 1 k.$.                ",
"                2 Q { { < < f.f._ ) - - 6 6 6.6.U.U.J.J.~.^.W.!.a.a.3.3.8.w.7.7.5.5.5.} y.y.~.~.K.K.q.q.; : +.+.                ",
"                2 ; { | < < k.g._ _ - - 6 2 6.,.U.U.J.L.^.~.W.W.a.a.3.3.w.w.7.7.t 5.} 5.y.y.~.~.K.K.q.q.: ; +.O.                ",
"                ; ; < < _ _ Q < _ O.< , * * } 7 J.J.w.w.J.K.(.(.Y.U.U.W.~.~.I.I.y.a.U.!.^.^.W.W.0.7.p p J.J.1 1                 ",
"                , 1 < < O._ < < O.O., , * * 7 } J.H.w.w.K.K.).(.U.U.W.W.~.~.I.I.t.y.~.!.^.(.U.U.q.0.p p J.J.1 1                 ",
"                & & - - +.+.( ' O.+.& & x x 3 3 6 6 } } t.s.G.G.K.K.~.!.!.!.*X*XL.H.).).~.~.G.G.} } D D 8.8., ,                 ",
"                - & - - +.O.( ! +.+.- & x b 3 4 6 6 } 7 a.t.G.G.K.K.!.!.!.~.*X*XL.K./.&X~.~.G.G.,.} D D 8.6., ,                 ",
"                , , - & < < , , Q Q % % . . M M A A { { 5 5 } } L.L.(.^.).).&X&X/./.I.I.K.Y.} } g B $ $ 9.9.< Q                 ",
"                , ; - - , < , < ! ! % % . . m M A D { { 5 5 } } L.L.(.(.).).&X&X/./.P.I.Y.K.} <.B B e e 9.9.< Q                 ",
"                - - - & ! ! Q Q { { E E - > X 9 # # @ @ V v = = 7 7 7.7.y.y.L.L.t.t.w.w...,.V V O O + O u.u._ )                 ",
"                - - & & ! ! Q Q { { E R - > * * # # @ @ V v = = q 7 7.7.y.a.L.L.t.a.w.w.,.,.v V O O X X u.u.) )                 ",
"                  & - - ) ) +.+.v.v.2.| 8 8 5 5 + + O . e $ k k b b r r C C a S.S.S.g i f f j j . . #X#Xk.k.( '                 ",
"                    - - ) ! %.+.v.v.| | 7 q 5 5 + + O O $ $ k k b b r y C C g e.S.S.i g f f j j X . #X#Xk.k._ )                 ",
"                    , , ) ) %.O.n.m.b.m.P.F.P S T.U q q 9 9 h h b b T T H H ].].[.[.`.`.K K o o ( ^ s.s.@.@.&.#.                ",
"                    , , ) ) O.+.b.b.b.b.P.P.P J U U 8 4 9 9 h h n b Y T H H ].].[.[.`.`.K K o o ( ^ s.s.@.@.&.&.                ",
"                    - - Q < _ _ +.+.g.g.>.>.q 5.i i g g 4 5 { { J J  X X'.'.G n G G g v R.R.'  .C.C.$.$.6.6.                    ",
"                    - ; < Q _ _ +.+.g.h.>.>.t 1.i g g g 5 4 { { J J  X X'.'.G G G H v v R.R.' ' C.C.$.$.6.6.                    ",
"                      ; ! ! +.O.&.&.+.O.%.%.:.:.B.M.k.:.e.e.w w v v }.{.1.1.p.p.i.i.6.6.t t g.h.j.j.u.6.8.                      ",
"                        ! ! O.+.&.&.O.+.%.%.:.-.M.M.:.k.e.e.w w v v {.{.1.1.p.p.i.i.6.6.t t h.h.j.j.u.u.                        ",
"                        Q Q ! ! O.O.;.;.1.,.a.a.d.d.j.c.b.b.b.n./ / 8 q *.f.g.g.h.g.f.f.+.O.g.g.;.;.@.@.                        ",
"                        Q Q ! Q O.O.;.;...} a.y.d.d.c.v.b.b.b.b./ / 8 8 f.f.x.g.f.f.f.-.O.O.g.g.;.;.O.@.                        ",
"                            : : / ! %.O.%.$.>.p.c.c.X.[ &.&.&.&.g.x.O.+.&.+.g.f.g.g.O.O.+.+.*.&.@.O.u u                         ",
"                            : : Q Q O.O.%.$.>.>.V.c.[ [ &.&.&.&.g.g.+.O.+.+.g.f.g.g.O.O.+.+.*.&.@.@.u u                         ",
"                            ! ! 2 ! ) ! 7 7 |.|.a a O.O.f.f.) ) +.&.=.&.l.f.) ) #.#.^ ! g.l.+.+.1 :   u                         ",
"                            ! Q _ Q ! Q } 7 .X.Xa a #.O.*.f.) ! &.+.=.&.f.&.) ) #.#.) ^ l.l.+.+.> :                             ",
"                                ! ) ) ) 3 = L L t t %.%.^ ( ~ Q ) ! O._ < < _ +.! ) ) < ; - 1 1 ~                               ",
"                                ! ! ( ) 3 3 L L t t +.O.) ~ Q Q ) ) _ _ < < +.&.! ! ! ! ; ; 1 1                                 ",
"                                        c c x z       _ ` ` ! ) ) O., - ; , *._     < ; -                                       ",
"                                        l l c c         ` ` ) ) ` ` ; ; , , Q O.    , 1                                         "
};
