/* XPM */
static char *result[] = {
/* columns rows colors chars-per-pixel */
"64 64 230 2 ",
"   c gray25",
".  c gray23",
"X  c #3E3E3E",
"o  c gray16",
"O  c #343434",
"+  c #3F3F3F",
"@  c #3E3E3D",
"#  c #3C3C3B",
"$  c gray24",
"%  c #3C3C3C",
"&  c #414141",
"*  c gray26",
"=  c #494949",
"-  c #3D3C3C",
";  c #434343",
":  c #2C2C2C",
">  c gray18",
",  c #3B3B3C",
"<  c #444444",
"1  c #484848",
"2  c gray28",
"3  c gray27",
"4  c #282828",
"5  c #3E3E3F",
"6  c #464646",
"7  c #4C4C4C",
"8  c #3A3A3A",
"9  c #3F3F3E",
"0  c gray17",
"q  c #444445",
"w  c #403F3F",
"e  c #3F3F40",
"r  c #252525",
"t  c #373737",
"y  c gray22",
"u  c #393939",
"i  c #454546",
"p  c #2A2A2A",
"a  c #3D3D3E",
"s  c #484849",
"d  c #232323",
"f  c gray21",
"g  c #353535",
"h  c #434344",
"j  c gray29",
"k  c gray30",
"l  c #2D2D2D",
"z  c #272727",
"x  c gray20",
"c  c #323232",
"v  c #373738",
"b  c #3A3A3B",
"n  c #1D1D1D",
"m  c gray11",
"M  c #1B1B1B",
"N  c #202020",
"B  c gray10",
"V  c #1E1E1E",
"C  c gray12",
"Z  c #191919",
"A  c #161616",
"S  c #181818",
"D  c #222222",
"F  c gray9",
"G  c #212120",
"H  c #1C1D1C",
"J  c gray13",
"K  c #313131",
"L  c #2F2F2F",
"P  c gray19",
"I  c #3D3D3C",
"U  c #3C3B3B",
"Y  c #4B4B4B",
"T  c #4E4E4E",
"R  c #373736",
"E  c #3F3E3E",
"W  c #3A3A39",
"Q  c #424141",
"!  c #474847",
"~  c gray15",
"^  c #414140",
"/  c #434342",
"(  c gray14",
")  c #40403F",
"_  c #444443",
"`  c #454444",
"'  c #474748",
"]  c #3B3C3C",
"[  c #1E1E1D",
"{  c #4A4A4B",
"}  c gray31",
"|  c #505050",
" . c #464545",
".. c #535353",
"X. c #4C4C4B",
"o. c #515151",
"O. c gray32",
"+. c #4D4D4C",
"@. c #4B4B4A",
"#. c #484847",
"$. c #464747",
"%. c #5A5A5A",
"&. c #555555",
"*. c gray33",
"=. c #5B5B5B",
"-. c #4F4F4E",
";. c gray35",
":. c #4F4E4E",
">. c #404140",
",. c #565656",
"<. c #606060",
"1. c #595A5A",
"2. c #555556",
"3. c #49494A",
"4. c gray34",
"5. c gray40",
"6. c #585858",
"7. c gray39",
"8. c #626262",
"9. c #424241",
"0. c #464645",
"q. c #464647",
"w. c gray37",
"e. c #5F5F5F",
"r. c gray38",
"t. c #525353",
"y. c #676767",
"u. c #5C5C5D",
"i. c #5D5D5D",
"p. c #686868",
"a. c #505150",
"s. c #5C5D5D",
"d. c gray36",
"f. c DimGray",
"g. c #6C6C6C",
"h. c #6D6D6D",
"j. c #585857",
"k. c #4E4D4D",
"l. c #414142",
"z. c #424243",
"x. c #6A6A6A",
"c. c gray45",
"v. c #717171",
"b. c #515152",
"n. c #454544",
"m. c #474848",
"M. c #4A4B4B",
"N. c #707171",
"B. c #484949",
"V. c #656565",
"C. c #666667",
"Z. c #6A6A6B",
"A. c #646464",
"S. c #4C4C4D",
"D. c #565657",
"F. c #4E4F4F",
"G. c #292A29",
"H. c #252625",
"J. c #242525",
"K. c #242524",
"L. c #232424",
"P. c #3B3B3A",
"I. c #3B3A3A",
"U. c #393938",
"Y. c #393838",
"T. c #494948",
"R. c #3E3D3D",
"E. c #232324",
"W. c #444343",
"Q. c #383837",
"!. c #363635",
"~. c #444344",
"^. c #383737",
"/. c #474746",
"(. c #333332",
"). c #4E4E4D",
"_. c #434242",
"`. c #3D3E3D",
"'. c #424342",
"]. c #414040",
"[. c #454646",
"{. c #2B2B2C",
"}. c #3C3C3D",
"|. c #1F2020",
" X c #1D1D1C",
".X c #3E3F3E",
"XX c #303031",
"oX c #333434",
"OX c #535453",
"+X c #555656",
"@X c #232322",
"#X c #5E5F5F",
"$X c #474646",
"%X c #424343",
"&X c #676867",
"*X c #666767",
"=X c #4E4F4E",
"-X c #525253",
";X c gray42",
":X c #6F7070",
">X c #1F201F",
",X c #484747",
"<X c gray44",
"1X c #727373",
"2X c #6D6E6E",
"3X c #505051",
"4X c #767676",
"5X c gray47",
"6X c #5E5E5F",
"7X c #2E2F2E",
"8X c gray46",
"9X c #757676",
"0X c #686969",
"qX c #3B3C3B",
"wX c #747474",
"eX c #727272",
"rX c #6F6F6F",
"tX c #636364",
"yX c #434444",
"uX c #6E6F6F",
"iX c #393A3A",
"pX c #6B6B6C",
"aX c #20201F",
"sX c #252424",
"dX c #212122",
"fX c #272728",
"gX c #454445",
"hX c #4A4949",
"jX c #404041",
"kX c white",
/* pixels */
"  . X . o O + @ # $ X . $ % & * =   + % $ + % - + + X % $ $ & ; + @ + : > + , % +   < 1 2 ; 1 < 3 3 & ; * & + + & X $ & ;   * < ",
"X . X . 4 O < * . % X $   5 & 6 7 . 8 % % . $ +   * + X   X + X 9 + * 0 : *   * *   2 6 2 6 3 3 & * & q + X w   & X X       & & ",
"+ X & e r t 3 5 $ y X     % u < * . . X 8 . & & 3 q * ; ; 6 * $ & & i p p $ a 2 s 2 3 q = 2 ; +   & X   e 5 $ $ * ;   *   < * X ",
"& & ; X d f ; . u u * ; & $ g +   + % . y $ X 1 1 3 ; 6 < h < * 3 X * 0 : < * ; 2 < * X   * * X & & + X % % X & 6 6 ; ; + & * $ ",
"3 = * % r y j ; * ; s s & % t % % % % 2 ; & + 6 6 k 2 < < 3 s 1 j     p l 1 &   6 * &   * 6 3     e & & X + 6 i 1 q < * <     + ",
"8 + 8 f z x % u t t 8 8 . c l > c c O a v f f f t . y y X   + u 8 g g : l + u u & 8 % y % + . 8 8 . . % X   X     $ y b % , 8 . ",
"n m M n N n M m m M m m M M M B n V n C m Z Z A Z S B M C n m B B Z S m D n F M C G n Z n M Z H m n V V V M M C N V V C m V C J ",
"K x O K 0 o 0 p : > K L K K l P L P c > L K K x u t K d K u P f g O t x x K L c K c K L P L P L P L > L > L K g > c 4 o g O t f ",
"+ * ; @ O y . t u 8 I . &   y % U $ *   & * & < Y j + d t j X @ %   6 % . % X u & * < X $ & 8 f $   X X $ 6 T * R   p o 9   6 + ",
"  $ E X t W X 8 . . . - Q + % 8 $ X $ 2 < 3 * ! Y 3 < ~ f ; % $ 8 X X R . . % . * < X   *   . t . & %   & 2 1 ^ X * p z   ;   % ",
"  $ / * . $ $ + X U $ + 3 & % @     < 1 2 2 ; j Y i & ( 8 < *   % & &   ) & * 3 2 <   3 2 w * % + _ ; _ & ` 1 3 & & : z $ * * ; ",
"X   2 * $ %   * ;   +   2 6 $ + < *   ' ; ; = = j j ] [ y 2 { & & ; T j = j ; 6 } k 7 | } Y = &  .} T } 6 _ 1 1 ; * l 4 % < 3 9 ",
"  ; < & X 8 $     X * < 2 1 ; < * X < 2 * 6 7 2 = 3 X ~ g 3 = 2 * 6 7 Y | Y 6 j ..k X.o.O.T +.< k O.....@.< 2 #.X < > 4 X & * + ",
"  + $ X + u + . u 8   ; $.6 * & 3 < 6 3 2 k k = 7 * X r t Y Y = 3 1 k k %.&.| *.=.k 6 O.=.O.-.2 T Y ;.=.:.1 1 X.3 ; P o ; ; ;   ",
"* >.& % . 8 + % % u X $.1 7 * + 2 2 < 2 = Y X.7 } 6 & ~ . o.*.= ; 1 &.,.%.<.;.1.2.3.3 4.5.%.6.k } %.7.8.O.j X.o.Y #.> ( & 2 6 & ",
"3 3 & X % X *   + 9.  ; j k 0.  2 j = 3.Y } 7 Y 7 q.  z + *.,.7 ; 7 ..,.w.e.w.r.t.; 6 =.y.u.i.o.6.w.y.p.;.O.Y 7 | &.g p 2 Y 2   ",
"* 3 + $ % + ; 9 * 9.+ % 2 j & * s j 7 j k a.7 k = < * 4 & 4.&.k 2 T 7 Y 6.s.d.w...2 1 i.f.e.;.%.<.7.g.h.r.j.T 6 k.} O 0 ; 1 1   ",
"; ; + % 8 $   % ; = $ 8 3 = l.< 1 s 7 1 2 | } T j 6 z.z + ;.} s 2 2 j 6 = 6.d.i.*.s T ,.p.y.5.p.x.f.c.v.5.,.b.7 = } x : < 2 = & ",
"n.3 6 + . $ $ $ . ; X . 3 j 1 3 2 1 = 2 2 T k 7 k 2 z.z + *.O.1 6 6 q.1 m.M.| &.} = } %.r.7.x.y.x.f.v.N.y.*.k j T 4.O P < h 3 * ",
"2 j ; . $ . $ e % . & X < 3.q < 2 B.6 3 2 = { Y k q.l.4 X | o.} 7 T T o.o.T = T } 1 o.w.p.V.C.Z.A.f.h.y.;.| O.O.;.6.c P 3 < 3 3 ",
"6 Y 6 % % X X $ u X < + < 2 * < 3 < < q i 6 s Y = < + 4   } o...O.*...,.6.&.o.O.&.j b.6.6.O.} O.4.i.i.6.} ..;.d.;.o.O l 2 1 6 2 ",
"2 } k X * 2 2 ; & 2 = i M.Y 3 6 < * < 1 s 3.= k = q 3 : % = k S.Y k = k O.t.,.*...| S.T T Y & + 1 1 7 } } T D.,...*.y O F.k 7 T ",
"> P > z 0 : : 0 l l l l L l z o p 0 ~ r p p ~ o 4 o p z ( ~ 4 z ( z z : L L P P L l 0 l : p N D r r p 0 G.: L p 0 > o o l l P L ",
"D V C ~ N ( z 4 r ~ z z r d r d ( ( ( z ~ z ~ ( ( r ~ 4 4 r D r H.d ( J J r J.J d K.( r r D ( d ( d N D D d d D L.~ ~ ( d r ( ( ",
"y K y . ~ K +   P.y + + $ +   @ . % X + & < % I.# X X X *   9 + $ y x z p 6 $ % ;   < ;   3 6 ; = 1 % X ; < 8 % X * + f . X 8 . ",
"t g + 8 z > $ $ y f # + &   X 8 X $ u O . & f f 8 % U.% X 8 . u Y.f c ( z 6 * * 2 1 ; 2 < & * * ;   @ 8 $ I.t t f   X y t W f y ",
"u u $ . ~ l % X . X 8 %   . # 8 _ * X t X & $ . $ X % +   $ % y t g y 4 4 < T.< 6 j * 3 ; . u ; &   R.8 . P.Y.u g 8 8 . U.P.$ y ",
"W 8 % 8 E.K $ & % $ %   z.. + X n.* + % & < + %   ; X & + $ 8 u U.g 8 o z & $ 6 3 Y 3 j < t % ; + * % g W.+ . y c Q.I   %   ; % ",
"+ 9 ) . J c   _ & *   & * $ 8 X < & & & 6 < + + + & 9 6 + X . x t f y ( 4 < 8 * 3 2 X 6 3 y . *   ; % 8 _ % 8 !.c f % X 8 X & + ",
"X & 9 t ( g       + $ +   + I X ~.* & & ^ 9.X X % @ $   % % . ^.I . $ z :   8 3 = _   /.6 % % Q n.0.# X * u t (.c f y u t . X X ",
"& * 2 . J c   * 3 & X + + % & ; ; ; +   3 ; & 8 % 8 P.$ U $ $ % * X + r : 2 9.).Y 6 6 j 6 $ + 6 2 6 + $ w -   $ u . u % f $ + 6 ",
"* 2 2 + r c & & ; ) + X + . * q * 2 ; & 3   % + % P.% < & X   @ + +   o : Y 3 1 3 3 6 j < * + _.W.1 Q + n.& X + X X   $ 8 $ & 2 ",
"< * ; X ~ % /.; 2 * < 6 < & = 2 1 3 & ; ;   + & % + & 3 2 * + X `.. & > > 1 6 3 3 2 Y X.; = 9.9.; 3 ^ 6 = 3 X R.& & ; & + < < 6 ",
"2 * z.a r . j Y j 2 Y 2 3 6 Y = = <   * 3 < * X + '.3 6 3 < 3 /.< X   l P 1   2 1 6 7 7 * 6 3 2   < * 0.* ].) X & $ % + 9 < < [.",
"< < ; X r t 0.1 = j 1 6 1 2 2 1 Y ' 3 3 <   8 X X < 3 l.; < 6 < + +   l > Y ; 3 1 3 1 = X 3 2 = * * X + + X 8 8 +   &   + ; < 2 ",
"3 & * & ( 8 *   6 2 = j j 2 i 2 1 2 i 3 * & +   * < ; * < 0.3 < X . * l l Y < 3 = 3 1 7 2 i = j 2 *   X . $ X . + 3 h < 3 ; 1 < ",
"6   ; & ( . j 6 2 Y T T 2 2 q.= q.3 < *   ; ; ; *   & < * & & *   $ < {.: = * 2 j 3 = = 2 ; < 2 6 ; + @ 8 & * X ; < 6 6 2 3 3 _.",
"T.; 2 * ~ X ..j Y ..*.O.} } 7 k 7 = 2 j = = = q.j j q q.= 2 = 3 ; ; = P : 6 * 3 Y = 1 k 1 ; = k ;   &   X < * ; j Y 1 6 Y T k ; ",
"% u y y 4 t 3 * * 6 6 6 * * & +     * ; X }.% . % . y y $ X $ 8 y y . K 0 . O O u y 8 % 8 v u u f f y y u . 8 . X & 8 % X X & X ",
"C n n V J J J N N C N N V V C V C C |.J V M  Xm M M m M C C V N C V V J D n B M M Z B Z M M m m m M n V n n n C N N C C C J N J ",
"O g x x f g g u y c O u .X+ X + X X y . u f y t O u c J P t u O XXc K P x O c O x . + t K c x c K g t g g O O oXy % 4 : 8 u 8 u ",
"X & . X * & < 2 6   * 1 Y } | 3.3 6 1 OX7 6 * $ % + . J f _ + + $ X % u X ^ . ^ * 6 Y % . * & + * ; _   ;   ; & 2 + 4 p 3 < * & ",
"; 3 ; + &   < 1 2 2 6 k | o.} 7 6 + 6 6.6.o.2 < + * 8 C t * % & X y . u . *   & R.; /.+ + & + X ; 6 2 2 1 2 6 3 6 3 p o *   . $ ",
"; 3   %   * 9.3 * < k *.6.4.*.j 3 < 2 +XA.<.O.2 & < . J t + . & @ u y f 8 # $ + 8 ; < / 9 - . . X = T.@.j 3 ;   < 6 L o $   % & ",
"< 3 % 8 + ; ; * + < o.%.d.%.4.6 & ; j *.<.i.7 6 ) 2 X @Xx u P.* - . 8 u %   $ % u + E $ I & $ + X n.< = Y ; & * < 2 L r X     6 ",
"3 6 * X < 2 _ * = 6 *.<.<.%.d.j &   j k *.#XY 3 X 3 $ N f t Q.* *   8 8 X X   X u @ +   + ^ %   6 6 3 Y 1 $X3 0.3 < > 4 @ * %X6 ",
"2 = ; + 1 = < < = = 2.8.&X<.*X} < 6 T k =X&.j * + * u J O + t * * & . $   % . . 8 + + ^ 9 $ X X < 2 /.2 n.n.3 6 3 3 : p X * ; = ",
"2 j <   2 j < 2 = Y -Xr.;Xg.:Xd.Y T | Y 1 = = ; + & u >Xx 9 u * /   % % . $ 8   & < X * + 6 3 /.= = 6 = 1 ,X1 = 1   4 z   ; 6 1 ",
"= =   + 6 = 2 2 7 a.6.y.<X<X1X2X%.;.&.,.3X7 } T 3 < % N g < 9 2 6 < @ 8 X X X + * 6 ; ;     j 1 ; 6 1 j j 2 3 1 1 1 L 0 & 2 6 6 ",
"2 7 ; 5 6 = j 2 Y k =.h.c.4X5XN.8.d.<.h.p.A.6X;.&...1 ( O 1 & * * l.$ < 6 * % . 6 1 < ;   + 1 1 ; 6 j 7 7 7 1 1 j 7 P 7X_ j 1 2 ",
"= 7 3   1 j 3.1 Y B.4.;Xc.8X9X<X0Xy.x.N.g.f.8.s.;.4.< ( O q & < * * X z.+ }.qXqX6 2 + $ & 6 = X.#.3 6 X.Y = 2 1 1 i L K 3 1 j 1 ",
"j 6 $ X 3 j 2 3 3 6 ,.h.wX4X4XeXv.rX7.tX7.w.o.*.o.O.& N O h * 3 ; + % + % t . $ &   & ; & q ; 2 3 1 6 k 6   /.j 6 1 c K n.= < 3 ",
"1 yX+   < j 3 < ; < | i.h.uX9X:X:Xy.%.i.w.e.*.Y j 1 . N iX* & ; ; % u y % % % 8 8 * ; * 3   q *   1 ; 2 = < 6 j = 7 L > 2 j 3   ",
"; &     + + + < 2 1 3X;.A.x.rXpX5.r.i.8.=.%.k < & X 8 C }.3 ; < ; & + . u X X u 5 * 2 2 6 * < 1 3 j 2 1 7 1 2 T k | L > j = < & ",
"%   % . . 8 X & 3 = = &.e.<.V.i.,.&...;.6.o.j   $ 3 % D $ < l.< + + & % u $ . % * * < 2 1 1 = j 3 2 T Y k 7 7 o.o.*.x O O.7 &   ",
"C N M m N n aXD ( ( r z : 0 l 4 ( ( ~ 4 4 o sXd N ( J V z d N d dXd ( d J J N n C D N z p 4 ~ r d D z 4 4 0 : 0 : : d ~ p o r V ",
"z 4 ( r C d d D ( ( ~ z 4 r r r ~ 4 z z 4 z z ~ 4 o p P > : l p o 4 l 4 r l o ~ z z o 4 r z ~ 4 z z fX4 z z 4 z o 4 : > l : p 4 ",
"$ $ u g D c % x % $ $   $ % % % $ & X $   X % . % + ; 6 * ; 6 6 6 6 j L p * @ $ X * ;   + ; * h +   * < ; + $ $ & & z.* * < ; * ",
"8 $ . O d K # u % + ^ % & 8 8 y P.X   X % % # $ X 5 * *   * 6 2 6 < 2 l r   + X .   < * * z.l.; * & %X* & + * + $ $ X X +     + ",
"; * X U.~ c % $ 9 % 3   ; u g t . P.8 % 9 % P.% % $   + < ;   3 6 6 6 l ~ & * - X + * * & ; * h gX; ; 3 * ; q   $ $ X 3 2 6 * + ",
"*   . $ ~ g + % 6 X   ; < % $ + $ u 8 u + / X X X   3 < 3 ].& hX/.3 ; : 4 * ; X $   * + ; ; ; i 6 * < 6 6 1 '   * +   < * 3 & + ",
"%   $ 8 d t % u & X $   ; $ + X   % X % X * + +   ; 6 + $ + _ = 2 < ; > o ;   )   ; < ; 1 jX+ j = < < * ; 6 2 ; *   & jX* 1 *   ",
"% $ $ $ : % . 8   * X + + . * $ , % X . . ; X % X & * & & X & < X % & K :   $ X +   * ; 6 6 3 2 2 3 < + 6 3 ; & & * z.< ; < *   ",
"X % % X L % $ u X & X I 8 8 & $ % + + 8 $   $ 8 X X $ + + % &   + 8 + x : X X 5 % X   * 3 3 < 3 3 q + ; h ; + $ & + $ 3 z.& ; & "
};
