/* XPM */
static char *result[] = {
/* columns rows colors chars-per-pixel */
"64 64 164 2 ",
"   c #260506",
".  c #2C0606",
"X  c #250807",
"o  c #2E0807",
"O  c #2C0708",
"+  c #270908",
"@  c #2D0A0A",
"#  c #320606",
"$  c #3D0505",
"%  c #330807",
"&  c #390907",
"*  c #3E0708",
"=  c #330B0B",
"-  c #3B0C0C",
";  c #34110F",
":  c #3B110F",
">  c #320F10",
",  c #390F10",
"<  c #2F1413",
"1  c #351212",
"2  c #3B1312",
"3  c #3B1916",
"4  c #2D2C2C",
"5  c #312E2E",
"6  c #30302F",
"7  c #343332",
"8  c #3A3535",
"9  c #353837",
"0  c #383738",
"q  c #373939",
"w  c #3D3B3B",
"e  c #450404",
"r  c #4C0505",
"t  c #430806",
"y  c #4E0907",
"u  c #4E0708",
"i  c #450C0C",
"p  c #4C0C0C",
"a  c #540505",
"s  c #5B0506",
"d  c #550907",
"f  c #5D0807",
"g  c #530709",
"h  c #5C0708",
"j  c #540C0C",
"k  c #5B0C0C",
"l  c #4C100F",
"z  c #54110E",
"x  c #5C110E",
"c  c #4E0E10",
"v  c #550F11",
"b  c #5B0F11",
"n  c #441312",
"m  c #4D1313",
"M  c #401917",
"N  c #451C1B",
"B  c #4A1B1B",
"V  c #541313",
"C  c #5C1313",
"Z  c #551817",
"A  c #5C1916",
"S  c #561718",
"D  c #5C1719",
"F  c #541B1B",
"G  c #5C1B1A",
"H  c #630505",
"J  c #680303",
"K  c #620907",
"L  c #680906",
"P  c #630708",
"I  c #630C0C",
"U  c #6A0C0B",
"Y  c #700D0D",
"T  c #64120E",
"R  c #6A120E",
"E  c #71120E",
"W  c #630F11",
"Q  c #6A0F10",
"!  c #631413",
"~  c #6A1413",
"^  c #651915",
"/  c #6B1915",
"(  c #641719",
")  c #6A1719",
"_  c #631B1A",
"`  c #6A1C1A",
"'  c #731513",
"]  c #741A15",
"[  c #721D1A",
"{  c #791D19",
"}  c #55201E",
"|  c #5D201E",
" . c #64211D",
".. c #6B221D",
"X. c #72221E",
"o. c #5C1E20",
"O. c #671E21",
"+. c #691E22",
"@. c #701F22",
"#. c #4A2323",
"$. c #552122",
"%. c #5C2222",
"&. c #552829",
"*. c #5C2B2B",
"=. c #5D2E30",
"-. c #403534",
";. c #433D3D",
":. c #4A3E3E",
">. c #652422",
",. c #6B2422",
"<. c #672825",
"1. c #6B2925",
"2. c #692429",
"3. c #622B29",
"4. c #742422",
"5. c #782722",
"6. c #722822",
"7. c #782B26",
"8. c #732E2B",
"9. c #66302C",
"0. c #71322C",
"q. c #653432",
"w. c #753730",
"e. c #793531",
"r. c #44403F",
"t. c #4A403F",
"y. c #3F3F40",
"u. c #443F40",
"i. c #3E4040",
"p. c #434242",
"a. c #4B4444",
"s. c #4E4847",
"d. c #47494A",
"f. c #4D4B4B",
"g. c #524545",
"h. c #534847",
"j. c #504748",
"k. c #534C4C",
"l. c #594E4E",
"z. c #4F514F",
"x. c #51504F",
"c. c #594F50",
"v. c #4E5151",
"b. c #545454",
"n. c #5B5353",
"m. c #575857",
"M. c #585857",
"N. c #575758",
"B. c #565959",
"V. c #5B5C5C",
"C. c #625656",
"Z. c #635C5C",
"A. c #695D5D",
"S. c #5E605F",
"D. c #60605F",
"F. c #5D5F60",
"G. c #5D6161",
"H. c #626363",
"J. c #6B6464",
"K. c #686867",
"L. c #6C6768",
"P. c #666A6A",
"I. c #6A6B6C",
"U. c #707372",
/* pixels */
"B.V.K.D.M.D.x.M.D.V.V.S.V.M.Z.S.V.V.F.G.V.H.H.K.G.V.H.G.G.H.H.H.H.H.V.V.B.b.N.M.V.F.N.b.V.V.V.K.H.H.G.V.V.M.V.K.V.V.V.V.Z.b.b.N.",
"a.g.h.k.h.k.k.h.f.x.b.h.b.b.K.I.V.a.k.g.s.n.n.n.n.c.c.n.n.n.n.c.b.b.N.n.H.K.H.B.c.s.a.k.c.k.l.c.c.k.h.a.a.a.k.n.j.:.s.k.b.p.s.t.",
"j C V V V Z k f Z F %.k F V.I.L.n a k j C _ C j p i p i c m p p i N #.i n N.H.j.p u c j j j j v j D O._ C C x C C V d m N N Z z ",
" ...~ A ` ` ' ' ' ' X.{ d s.P.J.j ' ' ' ~ ,...! ! C G G o._ ( D ! ! G D r s.K.C.g ( _ ) ! ^ ` ( W ~ ) +.` ! / ] _ ..>.>.F G _ ..",
"T ! W C ~ ~ ] ' R ] X.] x d.K.J.p T Y U ! ! C ! ) ! ! C ! ! ~ V Z C C D p k.I.C.a W I I I W ~ I I ! I ~ ! _ ..X./ R ! ~ C _ ^ / ",
"W ! I C I T { / ` ` X.] x a.I.J.t I U U W W D ! ! ~ W ( ) W ) G S C ! D p s.I.n.s C ! Q W U U W b k Q ~ ` / X.] ] ~ I ] ../ / ] ",
"~ C C I k I ] ..1.[ ` / z s.H.J.p T W I I C b W ( D b ( ! P ! ( G D D ( r a.I.Z.j ! D ! ! ! W W b k ~ ! T ~ R / ..^ U { 5.] / _ ",
"~ k b C k C !  ._ ` / T j p.G.D.j b ! b ! C D D D C D ( ( Q Q D o.C ! ( t s.I.M.p _ ! I C D ! W C D _ O.( ~ ! ,.` X.R E X.E R ] ",
"R T x k T T x T ^ L L L k w V.Z.p k C ( ( ! _ +.O.b b +.) +.( D V C b k e j.I.Z.a P U U b b b k b C D _ ( k ~ 7.X.] U ] E ' R ] ",
"% o X   . #     o . . # M a.b.M.N . + % . . o @ @ O   @ O @ @ + X     . - f.K.Z.- # # O o . . . . O . .   o % 1 - % . ; & # o & ",
"w q 9 w i.r.w w i.i.9 w p.f.b.B.J.V.k.d.d.p.i.p.u.y.u.p.u.y.w y.p.p.p.i.b.B.U.U.b.i.u.y.y.i.w d.p.i.;.p.p.w 0 0 9 q p.i.i.r.i.w ",
"c.r.;.a.a.h.s.s.k.a.t.s.f.d.k.M.P.I.P.H.c.f.k.f.j.f.c.k.k.k.g.g.k.l.k.c.l.n.Z.A.Z.n.c.k.k.n.C.Z.n.b.b.x.B.B.k.d.x.h.n.n.x.l.x.n.",
"_ m i m A p l V x j j B } $.y N N.Z.Z.B r m l j v j v k I ! C V Z c S c j V m V C v C D k V v D C Z m c N V.b.a.V d j C V Z F z ",
"..^ V j 7.7......./ I I k C j t p.B.Z.r k ! I H P U P U Q ) ( _ ) D G C I ~ _ G G ( ~ ~ ' ~ ! ,._ C C k * a.B.;.g T k I T ! ^ _ ",
"_ k d d x X.X.....^ I k j h d p 5 d.c.p k k I H P P h h k k C k k k k k g I I D W C ~ Q W I Q G D I b j * ;.V.h.d f f f I j x / ",
"~ f j j ^ ..A T ^ T I f f H s p 0 b.k.Z >.6.` h H h j k k d I f b k I d v b W U I k U Q U U U Q L U b k t ;.V.l.f b f K k d k U ",
"! j j j 1.>.x x ^  .x T z x d p w V.A.F 1.w...L s h d h f k k b j k I d v C ( ! D f ~ U C U ~ _ I U k j * a.G.n.a k k f k j k ! ",
"U k d h ! ,.^ x x C ^ x x x k y w B.M.m | R I f I h h h g k k k V C k k I k ~ ! C ~ W ! T I ~ U U U I j t ;.G.C.a j j h d p j ! ",
"U k k s I ^ / T ^ x x A z x d y w b.k.i Z ! T I I H K I k k k k C C I k k k I T W U P I x ~ ~ U U U C p * ;.H.A.a g k k k p v I ",
"# o o o = o o % = @ @ + .   . 2 p.b.b.: . @ . o o o # o O O + + O @ o   . . # # # # # . o % % % % % . . 1 p.H.J.n . . . . . @ = ",
"q q w 9 9 9 7 9 y.w p.w w w 0 p.f.B.H.d.w w i.w i.w w 0 8 i.w w w y.i.p.w w w w w w w p.w w w w q q q p.f.b.P.U.V.p.y.w w w 7 w ",
"H.k.s.a.a.s.;.w f.k.f.f.d.a.u.;.s.n.b.s.k.s.f.s.f.a.s.b.M.D.I.S.n.k.k.x.k.a.p.a.k.a.k.M.M.k.f.k.s.k.k.x.n.n.Z.J.Z.n.k.k.b.f.b.Z.",
"V.B p z V m z m p j p j V j v V V S S C v z p V l V a N m.V.Z.m z G G C A ^ G ! ! v V C C C C C G C V C V C m V C V Z Z } F #.b.",
"n.n j d k k C j k f C C k f I ! ( ! f k I U I U x I K r a.S.n.k  .....`  .` ] R R U U T ~ ~ ~ ~ [ ) I I W f b W C I k / 1.3.B ;.",
"s.n p r g I b b ! _ G V d a a h +.( a s H s k H s J H r w V.n.k T ^ A x A R R R U L ~ ! H P H L U U h f C x j k k f k T _ >.B 8 ",
"k.n p r k ! C o._ _ _ j y a a j 2.>.j f H s h k W I P u 7 B.l.s x A x x  .R R L H f f k H R ~ U U I k d f k j j k f h h ^ ..m r.",
"n.n a r k I ! _ C I ! j a a a j 2.` I ~ K s d k W W W v 8 b.h.a d k z z  ...X.L H f h I P I I k W T k k f k k j k k f g C  .n ;.",
"b.i a j k h h I I j k ! x f d a ( W A ^ k a s d h s s u w b.h.e d x z d  .0...K H f k P U U k W U U b b j j k k j k d j x A y 8 ",
"h.* V k x z m C _ V ^  .G A T x P k ^ C k j k j g h j i 8 b.a.e p m l x  . .A T k C I I I b k k I U C v j j z k j x j l k x t -.",
"M.< + @ @ + @ = @ = 1 3 ; ; > @ = = @ % o . @ + O O O < w f.a.@ o @ @ @ o @ ; : % @ @ % % @ O o % = % @ @ o + + @ o % o o ; @ ;.",
"V.f.7 4 7 4 4 6 4 4 5 6 7 6 6 7 6 7 9 6 7 7 4 5 7 7 7 0 i.N.V.d.i.7 6 6 6 6 4 4 5 4 4 5 4 4 7 7 7 4 4 4 4 4 4 4 6 4 4 4 4 6 7 d.",
"a.s.a.u.;.;.;.;.w 5 d.N.V.x.z.s.a.a.d.a.;.k.d.r.;.a.f.u.a.V.c.a.s.s.a.r.t.r.t.f.b.B.B.f.;.p.d.a.;.;.0 8 ;.;.8 ;.;.8 ;.;.;.r.r.a.",
"%.m D V V D o.S S C n k.V.k.n r V ^ A C z A .. .! )  .C n B Z B Z | _ G G A j B x.D.n.b ! ! ) ! ) ) ! Z v D ( ( ( D G o.$.F S F ",
"G V v V F v k P f k a g.G.a.a H f ~ R R ~ R X.6./ R ' ~ Z V Z x z z T ..>...L a ;.F.l.J U Q Y J U Y U f b U Q Q I I b D C C V _ ",
"V d v c V v h P I k d a.F.g.r s s H ~ / ! I K T / k I Z V m l z y x A ^ _ ..H a ;.b.h.I I I U U J J P s s s P h f j k V V m j j ",
"S k v b v v h h s W g ;.V.a.e s s s d ~ ! d T K ^  .G Z V C z z x L L f R T K r 7 v.g.H I U I P J J H s h b W W b j v S G C g v ",
"b j h v v j W b k  .a ;.V.g.e s a s s I ^ x T T K L T I k x T z p k K k R R ~ a 5 B.h.s H k I H s H H a v k W W W h D b ( D g b ",
"D b j c b v W b ! C r ;.B.u.r s f a I / ^ T T f H H s R T T K z c k f f f L R p 8 b.h.s g k k H s s s a a k W b b W W b ( g k v ",
"o.S o.V b b O.o.S S p u.V.a.e k k d d x ^ ^ k d ^ T K ~ ..R L d j j j K s K T i 8 b.h.a v k d k j j h g g j W b v o.D ( b s g b ",
"O @ = > > > @ @ @ = 2 u.b.f.@ o O + o o % = = % % & & & : & # . O X . % . o o 3 0 b.l.- O = @ # o . O . O @ = @ O # @ @ = & @ @ ",
"5 0 8 7 8 8 7 0 0 8 y.d.V.F.d.7 5 7 7 7 4 4 5 5 7 7 4 4 4 4 6 6 4 5 7 7 7 8 5 w p.b.P.f.8 6 7 7 7 7 0 7 7 5 5 5 5 7 7 6 6 4 4 4 ",
"f.f.u.u.u.u.u.u.s.p.;.a.b.c.a.p.;.;.a.;.;.;.-.s.s.t.r.w i.r.t.a.p.N.V.s.;.u.8 7 a.Z.H.n.k.;.;.u.a.j.c.g.u.u.;.-.u.u.i.i.d.y.d.f.",
"u., i n S o.D v V S v v V m V V V v m Z G C C C A ^ T | %.&.z n w N.f.- S o.V V S C C C G 3.q.9.%.V V D D _ ( D o.S o.o.=.V B f.",
"u.t S o.o.O.W b b W b W v v k W I k k k x A ! / E R T K x d Z p ;.N.u.r S Z d ~ ! ~ ~ I C G w.6.~ v k D W ! +.! ( O.O.( +.( c u.",
":.- S D W b b j h b b b k b I ~ T j V k x G  .T R / K f k V Z Z u.N.g.e I k z T T ~ W k k j C f d j v f h b ! I b W P Q W b i u.",
":.* c I P W D v ( ( ( b b C k G C z x k x A ^ T  .T f f I k z m ;.v.:.a / [ _  .^ R I k k k b C v j ! I k ! _ ~ ~ U P I Q b * u.",
"u.r j b h h W b ! ! I j W k C A ! T x k z z x K T I s f f j x j 8 f.u.s f ~ ! _ A ~ R k x f I C v k I W b C ) ~ U I k k b u $ u.",
"u.$ g v D b b h H h I ~ k I U ~ U I x f x f k k s j s k d k h j 8 v.u.s C C k k I T / T k I k C s h I I b b Q U P k W b b a $ ;.",
"u.e V b ! ^ _ A A k ! ! m C ^ G ! T ~ x x f b k k v j j j j k p w v.g.a C C b C C ! ! ~ S ! ! G j V ! ! D I ~ U U b ! v k j $ u.",
"l.- % - : : : ; - - = = = = - - & = % = = = & & & @ # # o + % 3 u.b.k.- = - % @ 1 n , - = % 2 2 ; - , - - - - - - - = & % % = s.",
"B.f.w 7 8 6 ;.r.w w ;.;.;.r.p.;.w 0 a.d.a.w ;.8 8 8 8 u.p.;.w p.f.K.I.b.w w 8 8 w 8 w w 8 8 w 8 8 8 8 w w 8 8 8 5 5 8 8 8 w p.v.",
"f.a.;.8 w r.a.t.p.;.;.a.s.k.f.f.a.f.b.V.B.f.;.w ;.;.u.u.a.a.a.p.a.Z.Z.k.k.a.u.u.u.p.a.a.u.d.f.z.f.d.d.a.a.p.;.8 7 8 8 w u.p.a.p.",
"G C A A z G  .Z C V j G C Z G Z z F s.b.a.t j G S G G G Z Z F G F G >.` _ _ G >._ G F | O.V m a.f.a.V j Z _ _ G D _ G G *.*.G G ",
"! ^ / / ......_ ! Z ! ` / ^ ` ,.G ! ;.B.a.r ~ G ! O.~ ~ C C ! ) ) ~ @.4.+.[ ,.,.>.>._ X.[ / a p.B.g.f ! ! / ) >.! C ! ! ! ! C ! ",
"C _ / ` ......R ! z k ^ A _ _ .._ A u.B.g.s _ _ >.,.[ ) C V C ~ ! ~ ' [ / ~ ) ! A ! ! ` [ ' k a.V.h.b ! ~ ` ` 4._ C ! k C ! ! b ",
"_ ,...1..... .^ ^ ! C _ G _ / / ..^ ;.B.g.a (  .1.6.8.4.! C ( ) ! ! O.O._ ! A C ~ W ^ ) / Y k a.G.k.H ! ! / [ ) _ ! ~ I A ^ _ ! ",
"_ 1.>. ._ ` / ` ~ ! G _ ( / ~ ~ ] I ;.B.a.j G ! _ ` ` ^ ! _ D ~ ! C o._ ( ( D G ! ~ >.O.~ W r -.V.l.s T ~ ~ O.~ ! ~ ! ! ! ( / / ",
"^ >.>.^ ^ ! ) / ~ C C ! ! ` >.) ` k ;.B.g.r _ C ! ! ! b V C C ! C S D C ! _ ( _ ! _ _ ( ~ D e ;.B.n.j ^ C ! ) ) ` ( ) ~ ~ ! _ ) ",
">._ _ Z C ^ ` ` ! C C _ _ ) ` >.` A ;.B.g.r ! V C _ D D D G D ! C C C D ( ( ) / ^ / .._ ) ~ r 8 V.n.~ X.~ ! _ _ O.O._ O.,.G _ ` ",
"%. . .S Z G _ _ C D Z G ^ C S  .G I ;.V.g.e Z k Z D C Z B F C _ _ D C Z Z D _ ! G  . ._ _ ^ p 8 b.h.A <.G G ! D C D D D o.F G G ",
"- ; ; - - 2 1 : ; = = - = = = 1 : M p.b.b.3 @ - = = - @ = - @ = > % = % % - 1 3 3 3 1 ; ; - M ;.f.k.#.2 , - , - - = , 1 > = @ > ",
"i.w ;.p.;.r.;.p.w w w p.u.u.u.;.p.p.d.M.V.b.a.r.;.p.p.p.p.p.p.p.p.w p.r.p.p.p.p.a.;.7 7 w ;.d.d.b.F.V.k.s.p.u.;.u.;.w ;.;.w w w ",
"b.N.b.B.b.b.b.b.b.f.f.b.b.N.b.b.B.b.B.Z.K.G.H.V.V.G.G.H.V.D.H.G.V.B.b.M.V.Z.N.N.M.M.f.f.f.B.M.b.M.H.S.B.b.V.B.N.b.b.b.f.b.f.v.b.",
"V.H.K.K.K.H.f.V.H.V.H.V.H.H.V.V.M.b.Z.H.H.B.B.Z.V.f.f.b.M.b.b.f.k.M.b.V.H.b.B.B.V.V.b.B.V.B.S.J.P.K.H.H.H.H.K.H.H.H.D.H.B.b.b.V."
};
