/* XPM */
static char *result[] = {
/* columns rows colors chars-per-pixel */
"64 64 242 2 ",
"   c #1C0707",
".  c #1F120A",
"X  c #1E1C1D",
"o  c #0D0B05",
"O  c #2B0203",
"+  c #2C0C0C",
"@  c #240808",
"#  c #340304",
"$  c #3C0505",
"%  c #3D0807",
"&  c #3C0708",
"*  c #340C0C",
"=  c #3D0A0A",
"-  c #300806",
";  c #21130C",
":  c #36100F",
">  c #201F1F",
",  c #281616",
"<  c #341212",
"1  c #3B1313",
"2  c #371A1A",
"3  c #310F10",
"4  c #322718",
"5  c #2F260F",
"6  c #211F20",
"7  c #242222",
"8  c #2D2C2C",
"9  c #292626",
"0  c #322E2E",
"q  c #3A2722",
"w  c #343233",
"e  c #3C3B3B",
"r  c #393636",
"t  c #430304",
"y  c #4B0505",
"u  c #440608",
"i  c #440A0A",
"p  c #4C0C0C",
"a  c #490808",
"s  c #510505",
"d  c #530D0D",
"f  c #590E0E",
"g  c #5B0507",
"h  c #47110D",
"j  c #4C0F10",
"k  c #540F10",
"l  c #5A0F11",
"z  c #441313",
"x  c #4C1313",
"c  c #4D1C1A",
"v  c #481B18",
"b  c #541212",
"n  c #5B1414",
"m  c #541B1B",
"M  c #5C1B1B",
"N  c #591817",
"B  c #55100F",
"V  c #660C0B",
"C  c #631514",
"Z  c #631B1B",
"A  c #691E1D",
"S  c #681716",
"D  c #741616",
"F  c #680E12",
"G  c #49241C",
"H  c #57221B",
"J  c #63211D",
"K  c #6A201E",
"L  c #74380C",
"P  c #661F21",
"I  c #4B2424",
"U  c #4A2A28",
"Y  c #542323",
"T  c #5C2323",
"R  c #542B2B",
"E  c #5C2C2C",
"W  c #572728",
"Q  c #5A352C",
"!  c #423D3D",
"~  c #483838",
"^  c #543031",
"/  c #5D3233",
"(  c #543B3B",
")  c #5C3B3B",
"_  c #4A3829",
"`  c #632423",
"'  c #6B2322",
"]  c #632C2B",
"[  c #672927",
"{  c #66342C",
"}  c #633434",
"|  c #643C3B",
" . c #6A3C3C",
".. c #683736",
"X. c #753D3E",
"o. c #581F20",
"O. c #7D4209",
"+. c #7D4712",
"@. c #4E403F",
"#. c #5F403F",
"$. c #7E5328",
"%. c #63413D",
"&. c #7E5B39",
"*. c #6E4535",
"=. c #773F40",
"-. c #444242",
";. c #4B4343",
":. c #4D4C4C",
">. c #4A4848",
",. c #534C4C",
"<. c #5B4C4C",
"1. c #554545",
"2. c #4F5050",
"3. c #545454",
"4. c #5C5353",
"5. c #5C5C5B",
"6. c #575858",
"7. c #585050",
"8. c #644444",
"9. c #6B4343",
"0. c #644B4B",
"q. c #6C4C4C",
"w. c #6A4847",
"e. c #734344",
"r. c #7A4243",
"t. c #734B4B",
"y. c #794B4A",
"u. c #645454",
"i. c #6C5353",
"p. c #635B5B",
"a. c #6A5C5C",
"s. c #695857",
"d. c #725555",
"f. c #745B5B",
"g. c #795D5D",
"h. c #775756",
"j. c #785749",
"k. c #786049",
"l. c #60605F",
"z. c #776750",
"x. c #735E61",
"c. c #635F60",
"v. c #5F6160",
"b. c #636363",
"n. c #6B6464",
"m. c #676969",
"M. c #6B6C6C",
"N. c #686867",
"B. c #746363",
"V. c #7C6463",
"C. c #736D6D",
"Z. c #7D6A6A",
"A. c #796867",
"S. c #75706E",
"D. c #6E7171",
"F. c #737474",
"G. c #7B7575",
"H. c #767878",
"J. c #7C7C7C",
"K. c #787778",
"L. c #747070",
"P. c #841314",
"I. c #844304",
"U. c #82460B",
"Y. c #84490D",
"T. c #8B4C0A",
"R. c #844C13",
"E. c #895219",
"W. c #955614",
"Q. c #955106",
"!. c #855627",
"~. c #885C32",
"^. c #915F2D",
"/. c #8D643A",
"(. c #916539",
"). c #825757",
"_. c #856749",
"`. c #846C56",
"'. c #8A735C",
"]. c #937252",
"[. c #836464",
"{. c #836C6C",
"}. c #8B6D6C",
"|. c #887667",
" X c #847373",
".X c #8A7474",
"XX c #837C7C",
"oX c #8B7A7A",
"OX c #847C75",
"+X c #937D7D",
"@X c #907F71",
"#X c #927868",
"$X c #8C837D",
"%X c #878179",
"&X c #9A8571",
"*X c #A38E6B",
"=X c #7E7F82",
"-X c #8C7F80",
";X c #7E8282",
":X c #848484",
">X c #8A8584",
",X c #8B8887",
"<X c #858989",
"1X c #8C8B8B",
"2X c #858789",
"3X c #918484",
"4X c #918D8D",
"5X c #998786",
"6X c #93908F",
"7X c #9A908F",
"8X c #8B8E91",
"9X c #8E9292",
"0X c #949494",
"qX c #999696",
"wX c #949699",
"eX c #969999",
"rX c #9B9B9B",
"tX c #989897",
"yX c #8D908F",
"uX c #A19E9E",
"iX c #A59897",
"pX c #A3918D",
"aX c #9FA09F",
"sX c #9C9EA2",
"dX c #9CA1A1",
"fX c #A4A4A4",
"gX c #A6ABAB",
"hX c #ACACAC",
"jX c #A8A6A6",
"kX c #ADB1B0",
"lX c #B2B4B4",
"zX c #B8B9BB",
"xX c #AEAFAF",
"cX c #C3BEBF",
"vX c #C5C1C2",
"bX c #C9C6C7",
"nX c #CECACB",
"mX c #CBC7C8",
"MX c #D1CECE",
"NX c #D1CFD0",
"BX c #D4D3D3",
"VX c #DAD8D8",
/* pixels */
"5.b.M.b.5.m.3.v.M.m.N.M.m.b.b.b.N.b.N.m.b.m.m.D.M.b.M.D.M.M.D.M.M.C.M.D.m.b.m.c.N.b.5.v.N.M.m.M.L.M.m.b.b.v.m.D.N.v.b.b.N.6.6.3.",
">.! 3.u.<.u.4.<.4.6.5.4.5.l.K.K.n.,.4.4.4.p.p.a.p.s.a.p.a.n.n.p.p.b.b.n.C.F.L.b.p.,.>.4.a.p.p.p.p.u.4.,.<.1.u.c.4.;.<.7.5.-.w ! ",
". _ @ ^ | | } ..%.8.8.} w.F.K.G.8.E / } ..| ../ E ^ ^ R ^ ^ R W ^ ( ( ^ #.M.L.c./ / ^ ^ / / E } ) ..=.|  .........../ | @.. _ . ",
"5 *Xk.bXVXVXVXBXVXVXVXVXBXBXMXNXBXBXNXNXNXnXnXNXnXmXmXnXnXnXmXbXmXvXvXmXmXvXcXvXmXMXMXMXnXBXnXNXBXNXBXBXBXNXNXVXBXBXNXBXcXk.*X4 ",
"o 5 5 7 7 7 7 X 7 6 > 6 > > 7 7 7 6 7 6 > 7 7 > 9 7 9 7 7 8 6 7 6 6 9 2 6 6 6 6 7 7 6 6 6 6 7 7 6 6 6 6 6 6 6 6 9 7 7 7 > 5 5 o ",
". .   4.D.F.C.K.F.L.F.F.F.F.F.H.F.F.K.F.F.K.F.A.K.J.=XG.J.J.J.=X-X=X-X-X=X=XH.J.=XJ.K.J.F.F.K.J.F.K.K.D.D.F.M.M.F.F.F.S.v.. . ; ",
"H x * rXiXX...X.pXhX).X.r.=.r.*.X.=.X.X.X.r.r.).=.=.=.X.=.X.X.X.=.=.r.r.!.).r.).r.r.r.r.e.=.=.=.=.=.=.=.=.e.fXiX*.X...$XuXc n M ",
"Z J = yXpX] B.u.W M ) A.V.V. X.X{..X X X.X.X.X+XoXoXoX.X+X+X+X+X-X-X-X-X-X-X+X.X+XoX.XoX.X.X X{. X X{.Z.Z.8.M } i.B.] [.rXN D D ",
"F S h F.-Xy.xX0XL.u.:X1XwXdX4X-XhXfXgXgXhXjXjXgXhXxXxXhXxXxXlXlXlXxXcXcXcXzXlXlXzXzXlXxXlXlXhXgX+X0XdXwXwX2Xu.n.wXgXt.}.9Xn D D ",
"* +   =Xi.y.xXuXqX8XK.L.K.a.d y q.0XyX4XqXqXqXrXtXuXaXuXjXuXxXlXxXzXzXlXzXlXfXfXjXjXuXiXqX0XwXe.t m G.K.K.-X1X4X4X1X| d.0X@ - * ",
"e e 9 1Xi.) lXjXfX4X>XG.J.U $ u t 9.J.:X:XXX:X1X4X9X4X4X.XuXqX[.}.[.}.&X*XpXsXrXqX9X1X>X9X,X=.t i t #.:X:X%X>X0XJ.:Xw.i.eXr -.! ",
"7.;.0 2X.XU uXfXhXfX4X1X1Xp.% $ & # W B.J.H.K.K.-X-X:X:Xc ] o.t s j S W.Q.T.'.:X,X2X:X>XV.T $ p t z C.9X1X1X0XJ.G.sX .V.rX! p.5.",
"Z b * 1XoX..K.xXuXhXxX>X X9Xu.# # * $ t W <.B.F.F.L.L.K.1.$ $ i a U H T.$.z.k.:X>X Xd.E a t p d h n.0XV.>X0X-XM.0XwX%.V.wX1 ] m ",
"K Z 1 <X Xe.D.1XhXfXqXM d [.wXp.O $ a i t t i W p.K.K.J.F.z $ a a $ z k.=X<X:Xf.E j y t u p t x C.wXh.a ] OXM.:X0X9Xy.[.tXx K ' ",
"M C i <X.Xy.9XC.fXxX] y M n [.wXS.( i b n n p t t Y B.H.N.i $ & & $ z 2X1XZ.T a y a j p p j 0.=XrX).l l t R <XqX>XwXt.g.yXh K K ",
"C V i <X+Xy.fXC.:XpXS d b Z n  .XXwXn.x n n k k p t a.1XG.h a a a a c 1XwXq.s k k k k d m F.sXoX=.n n p i b 4XqX6XaX9.V.0Xi C S ",
"C V i :X Xy.dX>XF.>XA f d n Z l M  .[.| n p d p y 1.XX:XXXb d d B y E wX6X4X} d n b b k t.}.X.Z k d p & y T 1X:X4XdXe.V.0Xz n n ",
"V V i <X.Xy.rX1XF.:X.XK d d n M n d y n n k b n i.%X>X2Xw.d n l N n n g.rXqX<Xq.d l b n n f n b k p i t m -X1X1XiXsXw.g.1X= b n ",
"V V i :X.Xt.dX1X:XF.0X-XZ g g d n M Z n n b d w.f.b V.wXq.p N M N n n A.gX[.N {. .d j n M Z Z b i y t o.>XtX,X6XqXrXt.V.wX= n n ",
"- *   :X{.e.rX0X4Xd.C.dXjX[.M y y g n n n b b n B a d V.9Xm d b N V ..hX[.n n Z Z n b Z C n f y t m i.0XgX-XV.0XeXrXw.f.<X  + * ",
"r e 8 ;X{.e.rX6X| g x t.5XlXfX{.9...` n n n n d d b p b } b n n N C M ..Z Z M C n N M C N ` E } f.1XfX>X9.N d 9.rXuX .g.yX8 r e ",
"v.6.r -X{.} fXOXp b % $ p [ ).pXiXiX.Xf b d n n b d b d l Z n Z Z Z N C K Z Z K C n n n n  X4X3X.Xy.` d y l n n >XrX9.x.0Xe 5.b.",
"v.I - :XV.| dXA.a b j = u k f n n C n d d f d d b n n d d f S Z Z K A A A A C n n d d d p b d n l n f b b b n M oXeX*.f.:X2 R 5.",
"7.h * %XA.%.rXXXb b n i = i * n ' Z n n d f f n d d d l { ..[ Y T J [ K N n n f d d d d p d b n M n j k n N d o.1XrX9.g.<XI I @.",
">.x * =X{. .aXrXV.x s y a # O i P A C M n d d d k d y Y #XA M B x N h Q H B f f p p B d b n Z b n d d p p a m  XtXwX%.g.4XI Y e ",
",.z * =X{.| dX1XqX0Xi.U v 2 < z o.T o.C n b b n n n d Y y.t t g g $ # G v f n f B j b n N ` ` m m c m Y } f.<X1X,XdX9.f.4Xc m ! ",
"4.z $ -XZ.| XXN ` t.OX:X%XXXG.S.G.XXx.n n b b n b k p G *.y C b B d # G H K K n n n b b M oX1XXXXXXXXX:X1XoXe.N H ,X9.d.<Xv v ~ ",
"3.p - 2XV.) | s n s n M m H b x x m N k b p b B k b k m { V k $ t B t G H K Z Z n n b b b n N N M M x m n p s b y d.w.d.1Xz h ~ ",
",.% * :XV.| | d n x n n n d p u a p a a B p B B p b b c { D t t t t N H c J Z K N b k d p a j a p a p p b b k b t 8.9.f.1Xz i ~ ",
"6.<   J.V.} | f n n N Z N n b x d t x m p i a t i d p v { F P.t t D d G v C M C d i i b Y z y p k k d k b n b b y w.9.h.<X; < ! ",
"5.3.7 J.V.%.i.y x j n M N B d s x <.F.<.t i i ( m d p v *.t B V N B O G v n n E ) i p k f.;X0.b d k n b b b b b d B.w.g.1X7 r >.",
";.>.w K.a.} 0XE t # i l d t x q.K.B.T t & i s.;XI y d * %.B $ a t # = U 1 b a } eX0.t p a } oX>Xq.x a a d B a u %.wX| f.<Xw >.>.",
"H N 1 D.f.) wX0Xx.U x m R d.:XC.U a $ % % 4.;XE $ i p $ + Q Y z z G U + % B i t | 8X0.i p t y | XX1Xq.Y j x / B.1XwX| d.<X1 T Y ",
"M b = ;XZ.} rX6XqX8X-X,X9XOX/ # O p a i u.H.R y i - % p - @ q 4 4 4 @ i b p i i t | <X0.$ i p t u 8.>XwX1X>XwXwX1X1X| d.:X1 M M ",
"b f * J.V.} rX4X,X9X>Xd./ a t i & i a a.;XI # - $ # # i i - O O O # & i i y $ $ $ $ ) 8Xi.$ i i u $ i / B.1X1X=X:XyX| i.>X1 k d ",
"b l = J.Z.| wX1XsXZ.N a p p h = & i s.;XR # h t U v ( # $ % i % u u u $ x <.c U $ $ $ 8.wX0.$ i p p i a a m Z.0X4X1X) i.:X1 l n ",
"l l & =XZ.| qXwX X' d n N j b p i p.:X/ d j a z b.5.U # % i $ u % i $ i t #.F.M.h u p t 8.eXi.t i a a x n p x  X1X8X) s.,X1 l n ",
"n n = K.{.9.0X0X9.C N b b b j j x.1X} d N p t a.J.^ # & % i % i & & # - % t 0.<Xu.t j p t 8.1Xu.a b x p p x y 9.0X8X) d.2X= b n ",
"n m 1 =XZ.9.qXtX.XZ N N b b B B.<X/ t b n B 0.n.I t $ % i p & & u $ & $ & - i E XX8.y i p p w.9Xs.a x j j p b S.6XwX) s.:X& l N ",
"3 3   J.V.e.wX0XsXx.n M b N A.9X^ t i i p 8.C.j t i p i i i # & % i $ i & & % y T :X| p p b d w.9Xi.y k b b B.9X,X0X=.d.:X@ 3 3 ",
"0 r 9 =XV.9.wX0X0X0Xq.b M Z.0X) y b i & x L.R a B h i i u t & $ % p $ # - p p x y 8.A.a B M ' C q.wXi.j m f.9X,X,X9X=.d.;X7 w 0 ",
"2.:.0 H.{.=.wX9X0X0XwXXX>XdX Xa b b p t 0.F.z u p p p p h U - % % i ) * - B i % a / %X1.d ' [ ' J :X0XG.XX1X>X1X1XwXw.g.;X8 2.2.",
";.= + =X{. .0X1XqXqXqXtXrXrX9XW y y i 0.:XJ.p.H p p p a ) ( $ p i $ 8.| p b # $ J C.2X:Xw.Z K Z  .8X1X0X9X>X>X,X,X0Xw.f.2X: I 2.",
"@.& 3 =XZ.| wX4XwXqXqX0XrX4X'.[.B.a.J.2XK.k.R.Y.a p i t % $ p p i a $ $ t i # h W.E.`.=X8XS.g.B.[.`.>X8X4X1X4X1X1X0X9.f.,Xz x ;.",
"@.* 1 K.V.| wX1X0X6X0XtX`.T.T.W.'.%X|.`.!.I.O.O.{ t i ~ 1.i p b p a z <.~ $ $ *.R.I.T.$.`.%X%X_.T.I.Y.`.9X>X1X>X1X9X8.d.:X1 a ;.",
"~ & * K.A. .0X0XqX0XqXqX^.(.(.E.T.+.Y.U.Y.$.k.D.J.<.4.J.<.$ i i i i u a.:Xs.p.J.%Xz.$.Y.T.O.+.T.$.~./.$.9X4X4X1X0XwX| a.2X1 i ! ",
";.u & ;XV.} wX6X0X0XqXqXrX4X|.(.T.E.R.E.I.$.&.V.J.F.H.1.# $ % % $ $ - $ s.<XJ.=X'./.$.O.Y.Y.+.+.&.V.%XyX4X<X1X1X1X0X| d.:X* & ! ",
"@.t - ;XB.) wX1XqX0X0XqX6X^.Q.W._.T.(.$X'.U.O.I.k.;Xu.t $ $ % i & - - # % B.;Xk.I.I.+.'.$X/.O.&.I.I.!.1X4X4X1X,X1XwX9.f.1X& & ! ",
";.$ * %X{.| sX0X0X4X0XwX$XT.].#X(.Q.#XfXqX$X|.!.`.s.u $ $ & & # & & # $ t x C.`.$.`.XX9XwX`.I.~.'./.R.%X1X4X4X1X4XyX| d.:X* % -.",
",.:   =XZ.*.dX4X4X0XqXqXqX@XqX7XW.W.&XqXrXfXtXV.} p p i & $ $ u i $ t i j d d / B.wXdXwX0X`.T.E.yX0X@X<X1X4X0XqX0XwX%.f.<X@ : >.",
"5.:.7 J.Z.%.wX6X0X0X4X0XtXrX7XrX(.^.aXtXV.9.T d k N b p $ U i a t h U a p b p d n T =.Z.tX4XE./.wX6XqX1XqX1X,X<X,X0X%.i.<X8 -.2.",
">.>.8 ;XZ.9.rX,X1X4X6XqXqX6X0X6X3X&XuXaXt.t d n M Z n N B.XXp j p m :Xi.N p b n b d s g.rX0X@X$X1XqX6X0X0X4X,X6X0XrXw.f.<X0 >.;.",
"M n 1 %XZ.Y oX0XrX1X>X6XeXrXqX0X0XtXqXrXfXh.N d d f { 5XkX9.a n N d i.rXZ.H n d d n f.qXqXrXrX0X6X1X6X6XqX,X4X0XqXOXE g.1XI G o.",
"C A h N.qX..f Y V.4XrXeXtXqX4XqXrX4XqX0XrXrX4X}.[..XqXhXoXj b b n n N XXwX>XV.h.{.>XrXqXtXtX0X0XqX1X1X6XwXwX1Xf.E p Y 1XC.i Z C ",
"l K H 1 p.9X,Xg.W c 9.{.1XwXeXqX0X4XqXqX4X6XuXfXjXjXaXjXd.t k d k B t V.0X0XqXaXrXrXtXtX0X4X4X0XwXwXrX1XB.%.] Y q.>XwX5.< b M n ",
"S ' [ T 1 q b.wXdX3Xd.E Y ..f.%XwXrX0X0X6XqX0X6XiXqXaXfX-Xk a d b y M 3X0X4XqXqX0X0XqX4X4X1X9X0X>Xg.| H E h.$XwX0Xc.q * b J J Z ",
"A [ ] ` T b : < ~ F.wXrX1XV. .T { d.XX0XwXqX0X0X0XqXrXtXrXoXn d y ` 7XtX6XqX0X4X4XtXtXrXqX>Xd.} T } g.,XrX9XL.@.< & k M P Z P Z ",
"S ` ] J M J ' M i + 2 -.F.0XaX4XZ.} m T %.Z.:XeXrXqXqXtX0XrXoX..{ 4XfXqXqX6X0XrXrX9X X8.W m / x.4XrX9XF.;.2 3 z m P P P Z Z Z A ",
"J J ` m m J K J Z M x i * 2 ~ M.0XrXtX{.| c N | V.>XrXrXtXqXtXqXtXaX0XtXdXeX4X[.| m m ^ V.0XrX1XF.>.2 1 i b P ` ` ` ` [ ] M ` P ",
"T J T Y m J [ ` M m Y o.M c = 3 , ~ b.<XdX0XZ.| m n E d.>XtXeXqXrXsXrX>Xf./ b m |  XqXrX9Xn.~ 7 8 w x ] T T Z o.o.m M o.W Y o.N ",
"3 3 < < < 1 < < 1 < 3 : < < < < 3 + 7 8 ! v.:XeXrXoX0.c x m 0.f.f.t.Y j m 8. XqXeX:X5.r .   + w :.3.U 1 1 : 1 < 3 < < < < 3 3 * ",
"@.e -.@.@.-.! -.e r ! -.@.e -.-.-.-.>.2.-.8 9 r 3.H.qXwX$Xi.W m m Y h.3XrXrX:X5.e 6 X 6 w -.>.>.4.v.v.,.>.;.! ! -.! ! ! -.! e e ",
"3.6.3.6.3.6.6.3.3.2.2.6.6.6.3.3.6.6.5.b.m.b.6.>.w 0 r 2.D.;X;XJ.J.;X<XD.6.r 8 w -.2.:.3.3.6.6.6.5.b.v.5.6.v.6.6.6.6.3.2.3.3.2.2.",
"v.v.m.m.m.l.6.5.v.v.5.5.b.v.v.v.3.3.v.b.b.6.5.v.5.:.-.r 0 0 0 w 0 w w w e -.3.5.v.5.6.5.v.5.b.b.N.m.b.b.n.b.b.b.b.b.b.c.6.2.3.c."
};
