/* XPM */
static char *_3965958d3e644abba714e8f5be5f7d7VPlWqdY9hmnozqJ2[] = {
/* columns rows colors chars-per-pixel */
"64 64 193 2 ",
"   c #070707",
".  c #0D0D0D",
"X  c #080708",
"o  c #0E0F10",
"O  c #0F1111",
"+  c #131414",
"@  c #141718",
"#  c #161A1A",
"$  c #1A1C1C",
"%  c #1C1F20",
"&  c #1D2223",
"*  c #1F2829",
"=  c #1E2728",
"-  c #232526",
";  c #2D2927",
":  c #252728",
">  c #242B2C",
",  c #292B2C",
"<  c #292725",
"1  c #252F30",
"2  c #282F30",
"3  c #263233",
"4  c #2A3436",
"5  c #2B3738",
"6  c #2D3A3C",
"7  c #313C3E",
"8  c #353736",
"9  c #433D39",
"0  c #4A433F",
"q  c #2F3E40",
"w  c #323F41",
"e  c #344244",
"r  c #3A4445",
"t  c #364649",
"y  c #3A4749",
"u  c #36484B",
"i  c #3B4A4C",
"p  c #3D4E51",
"a  c #3E5154",
"s  c #3F585C",
"d  c #424646",
"f  c #4A4947",
"g  c #414748",
"h  c #434B4C",
"j  c #4B4D4B",
"k  c #4C4744",
"l  c #534E4A",
"z  c #434F51",
"x  c #494F50",
"c  c #435355",
"v  c #4B5353",
"b  c #435659",
"n  c #4C5758",
"m  c #455A5D",
"M  c #4A5B5D",
"N  c #545553",
"B  c #5A5855",
"V  c #535C5C",
"C  c #595B59",
"Z  c #63605D",
"A  c #465D61",
"S  c #4A5E61",
"D  c #535F60",
"F  c #4C6265",
"G  c #4D666A",
"H  c #4F696D",
"J  c #476266",
"K  c #536264",
"L  c #5A6465",
"P  c #526669",
"I  c #5B6768",
"U  c #536A6D",
"Y  c #5C6A6D",
"T  c #4F6C70",
"R  c #546D71",
"E  c #5B6E71",
"W  c #567175",
"Q  c #5B7175",
"!  c #567479",
"~  c #5B757A",
"^  c #5C797D",
"/  c #626564",
"(  c #626A6C",
")  c #696B6A",
"_  c #626E70",
"`  c #637375",
"'  c #6A7576",
"]  c #627679",
"[  c #6A7779",
"{  c #63797D",
"}  c #6C7A7C",
"|  c #717574",
" . c #737C7D",
".. c #7D7D7B",
"X. c #79807F",
"o. c #5E7D81",
"O. c #637E82",
"+. c #6C7E81",
"@. c #737F80",
"#. c #5E8185",
"$. c #648185",
"%. c #6A8285",
"&. c #658589",
"*. c #6B8689",
"=. c #6C898D",
"-. c #67888D",
";. c #748284",
":. c #7A8485",
">. c #728689",
",. c #7B8788",
"<. c #738A8E",
"1. c #7C8B8D",
"2. c #6D8D92",
"3. c #748E91",
"4. c #7A8E91",
"5. c #6E9195",
"6. c #6F9398",
"7. c #749195",
"8. c #7B9296",
"9. c #75959A",
"0. c #7B9699",
"q. c #77989C",
"w. c #7B999D",
"e. c #7D9DA1",
"r. c #7DA0A4",
"t. c #838685",
"y. c #848A8B",
"u. c #8B8D8B",
"i. c #868887",
"p. c #8F918F",
"a. c #808F91",
"s. c #839395",
"d. c #8B9495",
"f. c #839699",
"g. c #8B9798",
"h. c #849A9D",
"j. c #8C9A9C",
"k. c #949594",
"l. c #939C9D",
"z. c #9A9E9C",
"x. c #839EA2",
"c. c #8A9EA1",
"v. c #929FA0",
"b. c #84A2A5",
"n. c #8CA2A5",
"m. c #86A5A9",
"M. c #8BA6A9",
"N. c #8DA9AD",
"B. c #92A3A5",
"V. c #9BA3A5",
"C. c #93A6A9",
"Z. c #9DA7A8",
"A. c #93AAAD",
"S. c #9AABAD",
"D. c #8EADB1",
"F. c #94AEB1",
"G. c #9DAEB1",
"H. c #95B2B5",
"J. c #9CB2B5",
"K. c #9DB6B9",
"L. c #9FB9BC",
"P. c #A3ABAC",
"I. c #A9AAA9",
"U. c #A2AFB0",
"Y. c #A3B3B5",
"T. c #A3B6B9",
"R. c #A9B7B9",
"E. c #A4BABD",
"W. c #ACBBBD",
"Q. c #ACB4B5",
"!. c #B1B2B0",
"~. c #B1BCBE",
"^. c #A7BEC1",
"/. c #ACBEC1",
"(. c #B1BFC0",
"). c #ACC1C4",
"_. c #AFC8CB",
"`. c #B4C2C4",
"'. c #B9C4C6",
"]. c #B4C6C9",
"[. c #BBC6C8",
"{. c #B5CACC",
"}. c #BCCACB",
"|. c #BDCED1",
" X c #C2CCCE",
".X c #C4CFD1",
"XX c #C5D2D3",
"oX c #C9D3D4",
"OX c #CAD7D9",
"+X c #CAD9DB",
"@X c #D3DDDE",
"#X c #D2DEE0",
"$X c #D4E0E1",
/* pixels */
"y.U.Z.Z.V.V.B.v.g.d.1.1.d.s.1.:.1.X.,.;.:.:. .;.:.;. .,.n . O - + + . K  .'  .[ } } } [ [ } @.} [ [ [ } ;.,.} _ ;.1.;.} ;.;.1.D ",
"s.e.e.N.N.K.A.G.T.r.b.7.b.b.{ U 7.! $.&.=.$.Q U *.O.W $.c X O $ + + O _ $.^ o.~ O.^ 2.Q R &.=.^ Q U o.$.$.$.~ P { +.7.-.=.~ =.m ",
"1.&.&.5.w.b.!.C h.m.-.w.w.<.u.4 W H R W 0.O.k.d W ^ R 7.c . O $ + + . Y O.$.R G t.l a H G O.$.H @.f p $.^ ~ W s  .N c $.R m Q u ",
"l.w.! ~ 9.N.' r h.m.h.b.A.h.f 4 ~ ^ ~ 2.0.=.v , %.7.^ 7.c X . $ + + . Y ^ R G H i = i A G O.*.o.r > S o.-.O.H G c < m ^ G A R c ",
"c.w.G ^ 9.L./.K.K.e.m.F.H.A.w.0.e.-.^ 3.<.7.3.~ =.*.Q 0.c X O $ O + . _ ^ E T J H m H A H ^ -.$.E ~ ~ $.2.*.o.! R G ^ W R ^ o.a ",
"g.H.7.9.H.%.D D c y r r r e e r e 5 4 7 5 7 5 V *.^ O.x.F   . $ O + . E ^ R R m 3 * * * > 4 8 5 4 7 5 6 7 6 6 4 5 3 Q R ! ! ! i ",
"s.N.m.5.H.*.7 2 - $ $ # # # # # @ @ O @ O . O ` 4.$.~ 8.M X . $ O + . I R P m a * O O @ @ # # # # $ $ $ $ $ # # O 7 s.T F T R 6 ",
"j.b.!.V b.*.y I E F M c c i h i e 5 3 4 3 & & ' $.d.B Q K X . % O + . Y Q ..> p 4 # * 7 5 6 r 7 7 6 6 6 w 5 5 3 & g h.J @.D A e ",
"n.H.L n K.4.h %.7.*.+.Q E I P M i z p i 7 3 > } h.V , { K   . $ O + O _ U 8 > c 3 @ 3 e e e e r i e e w u u e 6 1 i c.R n ; i a ",
"B.L.N.H.{.%.i 1.0.7.0.*.} { K m t c c p 4 3 3 ' b.7.~ x.D   O % + + . [ ^ U J G 4 @ 4 e e e 6 t y t w t u u e w 3 h x.~ F b A u ",
"B./.).)._.=.i 4.8.0.h.4.%.{ E n t i i y 5 4 4 } n.7.<.w.D   O % + @ . } ~ G s m 5 & 6 i t t i i i p t u t u e q 5 c B.5.7.-.H t ",
"j.E.).|.{.8.c 4.x.2.9.*.{ Q U S i c m p 6 5 3 } h.*.0.M.F X . $ O + . } -.H m m 3 & e t y a b b p p i p p z c p 6 v B.e.o.! o.a ",
"B.L.).{._.$.i %.A.x.*.&.<.%.] F b c S M y 6 > ' 0.o.-.b.D   . % O + . _ O.F G b 4 = u e y c a b a m i c S E Y n y n A.w.^ ! -.A ",
"v.).).{.|.%.e { A.N.7.3.8.<.4.U a a S a i y > } h.&.O.h.K X O % + @ o } O.U F R e * i t b P i u m S b m S E P m i D G.w.o.W -.c ",
"v.).E.{.XX*.6 8.m.M.x.e.$.&.%.E i u m b u e > } b.=.$.w.M X . % + + O ;.-.A H o.6 * b b m b i u b P F S S E E M h L W.w.! ! 2.b ",
"B.E.'.g.{.8.i <.N.w.M.A.7.0.8.E 6 t F m e e 5  .%.s./ U b . O & + @ + ,.0.u.c O.e * a J A b b A S S E Q P U { P c L G.2.<.Q ^ i ",
"V.).u.D ].j.p 8.N.A.D.D.K.J.8.m 6 e u u a z e  .$.K 8 P M . + - + # + g.B.Z 6 ^ w * a i G Q { { E E O.+.~ { { ] n I G.o.@.k z p ",
"Z.|.S.T.+Xf.c B././.F.R.`.F.*.a q e e a A c w } 4.J M 7.c . O - # # + g./.8.<.$.6 1 G E +.>.<.4.*.O.+.=.+.>.<.` n I W.H.O.i O.m ",
"U.XXXXXX+Xj.D J.)./.M.K./.J.<.t e e a A F n r X.8.$.$.w.P . O < # $ + g.).].E.C.i 5 E *.0.8.4.<.4.4.3.O.{ 3.f.+.D I R.T.K.q.-.S ",
"P..XXXOX$Xv.D R.[.`.K.H.`.).=.G J s A H G K i ,.h.2.7.L.` . + , $ $ + l.].T.W.K.n r ] 4.f.f.0.>.8.4.3.^ 3.c.c.>.S D R.^.K.7.5.S ",
"Z.|.}..X$Xj.L R.oX}.`.T.`.[.M.9.3.%.] ~ U S i X.0.$.4.L.` . + > $ % + V.|.E./.S.c r 4.c.c.B.h.0.h.h.h.4.n.S.B.a.Y I A.F./.F.F.P ",
"Z.|.|.|.$XV.I W..X X[.).].(.A.j.n.j.>.U U F y ;.x.=.0.).} . + < # $ + P.{.W.].J.n g f.B.C.S.C.j.n.B.v.c.B.G.S.j.} } R.m.F.F.^.} ",
"P..XR.R.$Xv.K F.XXoX.X.X`.K.G.C.j.f.<.Q Q G i y.F.0.n.OX[ . + , $ $ + V.].G.'.W.K h j.S.S.S.B.B.C.G.G.S.S.G.U.j.` } (.F.x.T.].@.",
"P.`.!.) }.d.D Y..XoXoXoX].W.T.h.7.3.f.0.%.U n d.x.z./ 4.} . + , $ $ + P.`.I.) `.( v B.S.S.C.B.S.G.Q.Y.S.C.c.x.3.S ( W.J.Q.i.G.,.",
"Z.|.| N '.1.V '.`.).}.OX X[.G.h.0.<.h.B.<.U M g.K.` r 1.` O + , # % + P.'./ L E.L N J.Y.W.Y.Y.R.Y.~.W.U.G.C.0.&.K D S.x.[ j 1.@.",
"V.XX`.`.OX .D ~. X'.T. XoX}.C.b.c.8.B.U.C.j.X.g./.J.M..X .O + , $ % + I.OXT.[./.L C W.~.~.W.W.`.W.W.(./.~.W.G.<.A Y G.w.! %.E.[ ",
"V.|.}..XXX .N Y.'.'.'.}. X[.W.G.W.S.J.'.'.!.d.v.J.J.A.}.y.O + , $ % + V.|.}.|.'.L L (.(.W.'.(.~.(.'.(.'.'.W.S.<.m I G.N.e.F.b.F ",
"l.{.R.[.oX .c R. X`. X.X XW.(.T.Y.J.G.R.Y.U.1.g.K.N.7.^.:.. + , $ % # z.]./.].T.D ( (.(.'.'.'.'.'.'.'.'. X[.'.n.E M B.e.$.N.7.a ",
"g.).T.'..X' h R.'.`.'. X'.H.R.[.S.G.T.(.`.Q.~ ;.T.w.$.b.} O + , $ - + j.|.E.F.A.v L '.'.'.'. X X X X X[. X X XB.Q K x.5.o.2.-.t ",
"l./.(.}.}.( N ~. X~.W.'.`.T.(. XT.A.R.'.'.R.X.,.J.w.^ x.} O + , $ % + j.|.}.J.T.D Y [..XoX X XoX X.XoX.X.X(.~.S.O.K f.-.2.o.W u ",
"z.}.W.}.XX_ n '. XW.Y.`.'.T.F. X/.n.R.`.(.Q.,.d.).=.~ [.:.. + - + $ + v.N.G.].].D Y /.`.U.'. XoXoX X[. XoX(.'.W.8.Y j.5.o.! ^ e ",
"V.[.!.| W.I v ~.}.n.8.T.[.(.W.}.T.K./.'.'.`.l.l.E.Y.X.~.d.. + < $ % + v.A.z.@.[.( ' '.M.x.T. X XoX[.'.oXOX X}.`.j.Y n.^ >.Y ! b ",
"V.`.' 0 B.K i n.A.3.*.0.E.L.L.E.A.T.`.W.(.(.v.a.E.d.f j.d.. + : # $ + P.C.j v (.( ' T.J.A.T. X(.}.oX X.XoX.X'.M.8.Y c.! | 0 U E ",
"z.(.<.*.8.v y f.b.3.8.n.J.A.C.T.b.F.A.A.Y.T.y.g.oXY.<.`.:.. + : $ $ + V.|.f.C.G.v Y C.m.T.[. X[.[. X[.'.].(.M.0.8.I B.F.*.K 7.S ",
"d.b.h.h.G 6 r 3.m.<.7.M.Y.Y.W.G.b.A.x.A.G.U.1.g.#X/.N.).:.o + > # $ + v.|.}.E.&.5 K b.m.F.'.[.'.'.'.[.[.W.n.M.7.*.I M.N.J.).N.U ",
"} G 7.x.W 5 3 %.M.0.x.M.W.[.W.F.A.C.T.(.W.G.g.l.}.E.J./. .o + > # $ + k.].T.9.A 6 M h.w.b.T.`.T.h.~.'.[.(.x.0.-.{ ' G.b.M.W.D.U ",
"` m $.~ G e > W h.*.0.J.T.(.R.'.`.Y.'. X'.U.s.l././.].L.P O + - # $ + 4.F.$.! H 5 c 3.7.w.b.A.W.T.W.'.R.W.Y.n.7.X._ Y.E.E.K.F.E ",
"` P U m J q > M ^ Q -.3.n.J.G.'. X`.'.[.(.U.;.z..X^.T.b.S o + ; # $ + ,.e.o.o.$.7 i <.-.=.w.<.b.(.~.W.R.R.G.M.%.T ` R.D.K.m.m.S ",
"Y U b a a 6 = c ~ P ] -.h.G.G.J.'.~.'.'.'.Z.+.l.XX(.T.N.Y o + : # $ + } o.W O.o.e w *.7.7.b.3.<.Y.U.Y.A.A.A.W.f.T U R.^.6.6.6.G ",
"E P i.6 e 5 > a P W W >.O.B.S.S.P.W.`.W.R.j.} V.XX'.i.B.' o + - + $ + +.=.p.y W t 7 $.7.=.8.0.8.x.G.Y.B.G.Y.(.S.%._ J.L.c.! X.P ",
"` G j % u 6 & p R G P O.o.4.f.0.n.Y.T.Y.Y.d.} P.XXd.f s.} . + : $ $ + @.~ f 4 U e 5 ^ $.&.3.A.C.n.C.x.B.G.R.R.S.X.*.T.H.z.0 R X.",
"_ U s i s 3 = a R H m E O.O.9.4.c.G.S.C.B.s.' V..XJ.v.].+.. + - # $ +  .#.H ~ O.e 4 { $.<.M.S.U.Y.n.h.M.S.R.Y.n.*.X.~.L.0.L #.R ",
"Y W U m a 3 & a P S p S P *.f.j.n.c.B.j.n.1._ l.].W.].].} . + - # $ + ,.5.2.w.&.e 3 U ^ ~ <.B.c.B.n.w.n.G.J.J.j.>.X.[.K.H.].H.U ",
"Y W G b s 4 % c S A G S R <.3.8.h.f.n.c.j.+.L l./.E.J.^.E o + - @ # + 1.2.^ 9.2.e 3 P &.m W 0.b.h.0.0.0.V.S.G.j.>.:.[._.T.).{.Q ",
"` U H A s 3 % u m S S G { { =.<.*.4.f.h.8.] D g.`.K.J.).` . + : # $ + 1.9.O.7.7.t 3 G W J P *.h.0.8.8.w.w.n.S.j.} X. X}./.].|.[ ",
"' ! H H m 3 # u A S U ] >.] >.<.*.<.0.f.s.` K g.E.N./.E.` o + : # $ + s.e.R -.2.h 5 M J ~ J W 9.c.7.7.8.h.n.B.f.Q ' }._./.^.).] ",
"{ ^ G H m 4 # u P P { +.E P E +.+.%.s.c.4.E V l.).m.^.).Y O + - # $ + d.m.W $.q.y 3 G ^ Q { <.5.8.<.*.0.c.h.h.>.G ( '.E.^.H.H.` ",
"Y R X.e J e # u P Y P E P P P ] O.{ +.*.>.Y c z./.P.t.G.` . @ ; $ % $ s.m.y.c 2.t 3 P Q J ~ X.^ $.*.$.{ *.7.<.{ S L (.H.Y.,.6.G ",
"` T V & m y = y P P F P Y Q ` Q ] E ~ { { L c g.E.:.f 1.} . + : $ $ + 1.3.B 5 $.p 4 p z b A R R ~ O.{ ~ ~ %.%.Y M L T.e.g.l F P ",
"` X.m b U t > i F K M K Y ~ ` Q ] R Q E E K x g.).0.;.^.` O + : $ $ # ;.$.J ^ 2.p 2 b b a S P E Q W %.%.] ~ { U M L B.e.U e $.A ",
"Y W ! ^ ~ t = y c c M F I P ` ] K S P S P M z l.).J.E.^.E O @ , $ % # 1.5.e.r.2.i 1 p p A S S ~ ~ P U Q P U Q K c n j.o.^ $.-.c ",
"] ^ ^ $.$.u % y c y c M S S U P c b S S K M i j.).N.J.N.P + @ , $ $ @ <.5.9.e.2.u > u m G S S E G c a c b c P M e h c.W ! ^ #.i ",
"[ &.-.$.X.t & e p w h m i m M m u p m S S n h d.L.N.F.e.S + + : $ $ $ @.2.e.2.&.w & p S D G m A c i i t i a c c 5 h f.^ o.O.&.i ",
"E ~ =.^ ^ t & 7 w q t p c c c i p p S S K c i j.H.r.D.r.s + @ : # % + ,.&.q.5.o.5 - p p u S p p i i t t y a y t 5 y 1.~ G G ^ u ",
"_ ~ ^ 7.r.c - e w 6 e z c i i y c S P U E n y s.H.2.2.e.b + + : $ $ + s.=.o.2.O.q % p p t z z u e t u y t y i e 3 r >.~ G m W e ",
"[ $.k.V 9.S - 7 q 5 6 t z r e t i v M M n p w 1.N.c./ 2.P o + - # $ + 1.0.t.u R 4 % w t w y u t e e e 7 5 7 r 7 > 7 <.R } n s e ",
"} $.C 8 $.n # * 1 > 1 3 5 4 1 1 5 w r w 6 w 6 1.m.I 8 O.P o + : # $ + ,.*.r 2 U 7 @ > 2 2 2 2 2 2 2 2 1 > > 1 : = 7 <.R L ; e t ",
"1.e.$.*.9.m g x v z x x v v n n V L ( ( I L V s.D.! G q.n o + - + # + } &.R E O.y g h h g i h h g g g d y r g d r x ;.H p 3 J u ",
"a.b.b.N.n.h.S.c.f.j.f.B.c.c.U.G.R.W.W.E.W.Y.G.B.2.o.&.e.m . O % + @ + [ o.{ R W s.c.s.g.s.s.g.s.4.f.f.f.g.s.f.f.a.s.] A R G R i ",
"4.e.N.A.M.9.o.o.&.! ~ $.3.0.=.w.A.m.F.w.q.7.#.o.^ o.! 3.m . O & + @ o ' O.W ! o.! ! ~ W o.R R R A P O.o.! ^ O.^ ~ P H p m A J w ",
"a.e.e.A.b.-.p.n T ~ W &.2.<.k.V 7.e.b.w.&.&.z.v J W H o.c . o % + + . _ ^ ~ $.W :.C A ~ o.R A u @.N S ~ R ~ O.R :.V u p p A J w ",
"a.w.3.m.b.-.N : m ~ ~ 3.=.O.N > &.9.7.b.9.~ N > H R F -.n . . $ + + . Y ^ ^ W H V , p R R J A u h ; p ^ ~ o.&.O.D - q p p m R w ",
"g.N.b.D.N.e.! R ^ ! { w.2.o.G ~ 2.w.0.9.9.&.E J ^ ! W w.K X . $ O + . ` $.W R O.R a W H R H A s s m ~ R E O.&.~ P S J p a m T e ",
"D M m M M b a a t 6 t i y w t i t y i t t e t w e q 6 i 5 . o $ O + + w w q 4 w w 6 5 3 2 5 2 1 4 q 6 4 6 w w 1 w t 5 1 * 1 3 * "
};
