/* XPM */
static char *__attack1684288911[] = {
/* columns rows colors chars-per-pixel */
"64 64 228 2 ",
"   c None",
".  c #1D140B",
"X  c #1F190D",
"o  c #1B1616",
"O  c #23160D",
"+  c #221A0D",
"@  c #2B1D0D",
"#  c #2D150C",
"$  c #38180D",
"%  c #231D11",
"&  c #251C19",
"*  c #361E16",
"=  c #2A240F",
"-  c #2C2413",
";  c #2E2814",
":  c #2A271A",
">  c #322613",
",  c #332B15",
"<  c #392C16",
"1  c #332C1B",
"2  c #3A2E19",
"3  c #392619",
"4  c #35321B",
"5  c #3D321B",
"6  c #26321C",
"7  c #271F21",
"8  c #232525",
"9  c #2B2523",
"0  c #2C2A2A",
"q  c #272828",
"w  c #332C2D",
"e  c #392C25",
"r  c #2C3225",
"t  c #313324",
"y  c #363C27",
"u  c #3D3D28",
"i  c #38372A",
"p  c #333333",
"a  c #3B3433",
"s  c #3A383A",
"d  c #312E32",
"f  c #46160D",
"g  c #57130C",
"h  c #471811",
"j  c #581B14",
"k  c #5D0C0B",
"l  c #690D0D",
"z  c #780B0E",
"x  c #690E14",
"c  c #790F12",
"v  c #6A1414",
"b  c #651816",
"n  c #731210",
"m  c #7B1514",
"M  c #741D19",
"N  c #7C1B1B",
"B  c #791518",
"V  c #6C110C",
"C  c #452918",
"Z  c #552D1A",
"A  c #42321C",
"S  c #49351F",
"D  c #473A1C",
"F  c #58371E",
"G  c #6C2319",
"H  c #78241D",
"J  c #7E1822",
"K  c #492C29",
"L  c #532825",
"P  c #493726",
"I  c #533B24",
"U  c #523E2C",
"Y  c #5B3C2B",
"T  c #553128",
"R  c #4A3A35",
"E  c #51353D",
"W  c #662723",
"Q  c #752723",
"!  c #653529",
"~  c #693925",
"^  c #6D3E31",
"/  c #30551F",
"(  c #3C412B",
")  c #355725",
"_  c #3B4737",
"`  c #285E22",
"'  c #3C6A2B",
"]  c #45472E",
"[  c #57442A",
"{  c #425725",
"}  c #4B4C33",
"|  c #484737",
" . c #544232",
".. c #5A4835",
"X. c #4D5437",
"o. c #555A3C",
"O. c #535539",
"+. c #664529",
"@. c #744E2C",
"#. c #77512A",
"$. c #634B3B",
"%. c #674934",
"&. c #69523A",
"*. c #775438",
"=. c #754535",
"-. c #4B6E37",
";. c #3F3F45",
":. c #3D4146",
">. c #4A4848",
",. c #565742",
"<. c #5D5B58",
"1. c #515149",
"2. c #6C5844",
"3. c #755B48",
"4. c #645650",
"5. c #5D6146",
"6. c #5C654A",
"7. c #5A6747",
"8. c #66684A",
"9. c #7B6248",
"0. c #6D6E54",
"q. c #716B55",
"w. c #76795C",
"e. c #6F734D",
"r. c #545D63",
"t. c #747671",
"y. c #831A1A",
"u. c #851818",
"i. c #810F16",
"p. c #87251D",
"a. c #871E24",
"s. c #971E22",
"d. c #852422",
"f. c #8B2223",
"g. c #8E2928",
"h. c #942324",
"j. c #9B2C2C",
"k. c #95252C",
"l. c #99342E",
"z. c #8A3832",
"x. c #963737",
"c. c #97312F",
"v. c #AB3429",
"b. c #A52C31",
"n. c #A5393A",
"m. c #A62727",
"M. c #AF2913",
"N. c #DD2716",
"B. c #E3201A",
"V. c #8E4617",
"C. c #B86C0F",
"Z. c #804A29",
"A. c #895836",
"S. c #945E39",
"D. c #914535",
"F. c #A4443E",
"G. c #B24D33",
"H. c #99633A",
"J. c #906B2F",
"K. c #AB693E",
"L. c #B36C3D",
"P. c #BE7934",
"I. c #C65A0A",
"U. c #CE6C13",
"Y. c #E8641C",
"T. c #86584B",
"R. c #9C4E43",
"E. c #A94243",
"W. c #B44845",
"Q. c #B55C57",
"!. c #A95749",
"~. c #83684A",
"^. c #826953",
"/. c #967A5B",
"(. c #8F7657",
"). c #A96E41",
"_. c #B97748",
"`. c #B46B59",
"'. c #84766B",
"]. c #997E66",
"[. c #BE6D68",
"{. c #C2574F",
"}. c #C47D4D",
"|. c #CA7C4E",
" X c #CB7B56",
".X c #C86F4F",
"XX c #CE7862",
"oX c #54883D",
"OX c #589445",
"+X c #C2851A",
"@X c #CE953B",
"#X c #9D815D",
"$X c #80825D",
"%X c #AB8745",
"&X c #B5844A",
"*X c #878369",
"=X c #998369",
"-X c #949175",
";X c #A2886B",
":X c #A48D75",
">X c #A88F78",
",X c #AC947C",
"<X c #AF9C7B",
"1X c #B2987E",
"2X c #CC8352",
"3X c #CA8653",
"4X c #D48A5A",
"5X c #D78B59",
"6X c #D0914D",
"7X c #ECA851",
"8X c #DA9462",
"9X c #E79A65",
"0X c #F89373",
"qX c #C6A277",
"wX c #D0A670",
"eX c #E9AA73",
"rX c #7E8687",
"tX c #AD9781",
"yX c #B29B83",
"uX c #BA9D81",
"iX c #BBA48B",
"pX c #B7A084",
"aX c #CDA78A",
"sX c #ECB889",
"dX c #F8B586",
"fX c #FAB693",
"gX c #E8C597",
"hX c #EBD0A5",
/* pixels */
"                                                                                                                                ",
"                                                                                                                                ",
"                                                                                                                                ",
"                                                                                                                                ",
"                                                                                                                                ",
"                                                                                                                                ",
"                                                        =X].=X'.w.w.8.-.                                                        ",
"                                                      oXoXOXOXOXOX-.-.) )                                                       ",
"                                                      K.qXgXhXgX8X_.A./ /                                                       ",
"                                                      |.dXdXfXdXsXeX%X` )                                                       ",
"                                                    { wX0XaX9XeXgX8.%X' _.                                                      ",
"                                                      B.> 7X/ I N.eX9X6X2X                                                      ",
"                                                    L.eXG.gX7XeXfXdX5X[ {                                                       ",
"                                                    K.8X6X}.6X7XdX8X_.$.                                                        ",
"                                                      +X4.x E 2.@X_.P.                                                          ",
"                                                      U.W L a.=.C.V.8 r.'.:X:X=X                                                ",
"                                                    >.I.Y.M.M.+XC.* p '.:X1X:X=X;X                                              ",
"                                              3.9.| p t V.U.J.#.7  .].tX,XiXiXiXiX=X9.                                          ",
"                                            9.1X%.P e t 7 o o R 9.=X$.<XtXtXiXiXiX/.;X%.                                        ",
"                                          3.~.2.2.U P < O P g.f.R.yX1X].,X>XtXuXyX=X#X..                                        ",
"                                          ~.$.3.f.=.~ * F f.n.n.Q.,XyXU ].:X>X,XyX=X/.&.                                        ",
"                                          ~.F H *.^ k.f.u.l.E.Q.`.=X(.^.3.[ Y %.A.*.Y A                                         ",
"                                          +.O ..$.8.d.g.N g.n.R.^./.3.& _.4X5X3X}.&XK.A.                                        ",
"                                          O 2 2 K I v f.x B N M +.T 3 3 |.4X4X4X2X_.A.I                                         ",
"                                        Z.& 3 > P < v g.J x j x h [ 2.^.L.|.5X5X3XK.A                                           ",
"                                        1.& & ;.~.- n u.a.J B J &.~.~.3.K.|.4X9X2XS.F                                           ",
"                                        <.rXrXt.#X3 n.Q.XXQ.Q.Q.9.e e *X*XqXuXuX1XA.[                                           ",
"                                      0.<.d q d t.u l u.z B u.g./.9.2X8X&X..-X,X-X$X]                                           ",
"                                      H.q 8 q 0 >.o q 8 9 w d 7 3X|.XX X|._.! _ o.( q                                           ",
"                                    *.3XR | 8 0 :.:.q r r 1 S.&X_..X}._.H.S.#.0 r t :                                           ",
"                                    #.5Xw p q 0 ;.F.J J L..X|.|.{.W.D.@.1 ; - 0 w q w                                           ",
"                                    @.%X8 r 0 p 8 E.E.W.W.n.~ ~ N z g ; - - - : - ; (                                           ",
"                                    Z.z.n :.8 8 8 c.j.g.h.n k g C # . : - - = - - 8 ,                                           ",
"                                      * v n p q v n m m K w } X.} } r d % O X X O +                                             ",
"                                      d.h.m >.1 , < , , - ( ( ( ( A = 0 % % X X + ,                                             ",
"                                      G H M 1.1 , < < , ; 6 4 4 5 5 % 0 ; - O X + 2 A                                           ",
"                                              ; > , , > @ X - - - + + ; , % O + = >  .S                                         ",
"                                                3 , < , @ - X + + X ; , - + + = < < C e.                                        ",
"                                                + S < 1 5 + = @ = X i C = = 2 2 2 H ! 2.A                                       ",
"                                                < D A &.S 2 O + = + A 5 < > H Z Q N U %.P                                       ",
"                                                > P A P ..A > , + O + > , < I g.a.Q [ 2.A                                       ",
"                                                O A U 5  .D O # = + + > 5 2 H z.k.f.[ K                                         ",
"                                                  } T U A , f k O + + D A M y.a.Q u.G  .                                        ",
"                                                  W u.C 2 < A = O + X C b N a.! H f.j  .                                        ",
"                                                  f.N Z S Z # $ # @ X @.k.p.! [ b.n.Q  .                                        ",
"                                                  f.d.m C j g $ = + X ~ s.g.T [ x.m.b  .                                        ",
"                                                  f.h.y.C A l g @ +   @ U q.].-XOXU Y R                                         ",
"                                                  [ h.C N C < > + +   . 0.w.w.w.4.,.3                                           ",
"                                                  u ,.8.o.] = , , > = + 8.w.'.OX6.8.2                                           ",
"                                                  8.} ] y y S < , ; +   ] 4.q.0.b.T t                                           ",
"                                                    ( ( ( D , , , ; , ; P ( } o...,.y                                           ",
"                                                        2 , 4 < , , , ; ( r > - u ,.,.u                                         ",
"                                                          1 , , , , = , ( X.8.5.5.,.,.(                                         ",
"                                                          2 4 4 , , ; ; } o.] D.5.6.o.(                                         ",
"                                                            _ ( > , ; ;   o.| A.6.8.o.(                                         ",
"                                                            h * g > = ;   } ,.,.!.Z.X.                                          ",
"                                                          f.m b 3 f > - ( ( z.T.n.t ,                                           ",
"                                                        d.V u.m g - - :     u G.v.H :                                           ",
"                                                      y.m m v C = h 3 :     y B V 2 1                                           ",
"                                                    L ! j j P 5 1 1 ;       L j.n.Z Z                                           ",
"                                                    a a R w w w 9         c.b.c.b.u.Q P                                         ",
"                                                                        k.k.b.m.p.p.T e                                         ",
"                                                                        Q ~ ! K y r 0                                           ",
"                                                                        w a s s s w                                             "
};
