/* XPM */
static char *__attack1684288911[] = {
/* columns rows colors chars-per-pixel */
"64 64 240 2 ",
"   c None",
".  c #1E160B",
"X  c #1F1911",
"o  c #221A0D",
"O  c #27190C",
"+  c #37170D",
"@  c #231C11",
"#  c #2A1E11",
"$  c #3D0E07",
"%  c #2A210E",
"&  c #2C2412",
"*  c #2A2619",
"=  c #322513",
"-  c #342B14",
";  c #3A2B16",
":  c #352C19",
">  c #3B2E1A",
",  c #392718",
"<  c #3D321A",
"1  c #383618",
"2  c #33240F",
"3  c #201D22",
"4  c #1D2623",
"5  c #242523",
"6  c #272923",
"7  c #2D2B24",
"8  c #2D2D2A",
"9  c #292626",
"0  c #372B2A",
"q  c #363C26",
"w  c #3B3E2A",
"e  c #383628",
"r  c #3A3534",
"t  c #383733",
"y  c #2C322E",
"u  c #4B0A0A",
"i  c #5D0E0C",
"p  c #570C0A",
"a  c #4A140B",
"s  c #57120B",
"d  c #5C140B",
"f  c #51180F",
"g  c #431E12",
"h  c #5B1C15",
"j  c #670D0C",
"k  c #6D120D",
"l  c #66170C",
"z  c #6A1412",
"x  c #661B16",
"c  c #791917",
"v  c #771010",
"b  c #432E1A",
"n  c #482515",
"m  c #562819",
"M  c #44341C",
"N  c #49331D",
"B  c #463718",
"V  c #593014",
"C  c #762B02",
"Z  c #6B251A",
"A  c #76201A",
"S  c #793109",
"D  c #442E21",
"F  c #433421",
"G  c #4C3422",
"H  c #483827",
"J  c #543C2B",
"K  c #583726",
"L  c #483C36",
"P  c #57322B",
"I  c #692B25",
"U  c #7A2421",
"Y  c #742924",
"T  c #73382C",
"R  c #2D521C",
"E  c #3D422A",
"W  c #355B25",
"Q  c #384632",
"!  c #366729",
"~  c #43432C",
"^  c #48472A",
"/  c #58432B",
"(  c #484933",
")  c #544231",
"_  c #5B4936",
"`  c #4E5438",
"'  c #57553C",
"]  c #47512E",
"[  c #654628",
"{  c #724F2B",
"}  c #654A36",
"|  c #68553A",
" . c #745237",
".. c #794C30",
"X. c #4D7138",
"o. c #6F6231",
"O. c #2F3F4E",
"+. c #374242",
"@. c #454546",
"#. c #595C42",
"$. c #495156",
"%. c #504F59",
"&. c #6B5644",
"*. c #735843",
"=. c #7C5B5A",
"-. c #5B6449",
";. c #656549",
":. c #796748",
">. c #656C51",
",. c #6B6855",
"<. c #746754",
"1. c #6B7054",
"2. c #757555",
"3. c #6B714F",
"4. c #7A7E64",
"5. c #696966",
"6. c #851C1B",
"7. c #96181B",
"8. c #9C0C07",
"9. c #85221E",
"0. c #852F0B",
"q. c #A53A0A",
"w. c #8B1F23",
"e. c #911E23",
"r. c #A61B23",
"t. c #852322",
"y. c #8B2424",
"u. c #892929",
"i. c #952429",
"p. c #952929",
"a. c #9E3336",
"s. c #853E32",
"d. c #A7322C",
"f. c #A92F32",
"g. c #A63637",
"h. c #B23733",
"j. c #AF262A",
"k. c #C32A16",
"l. c #914919",
"z. c #A9490B",
"x. c #B2570C",
"c. c #B3731A",
"v. c #86552F",
"b. c #98552A",
"n. c #885A35",
"m. c #874331",
"M. c #A2552C",
"N. c #A74639",
"B. c #B64D34",
"V. c #9E6237",
"C. c #8A743C",
"Z. c #B77A3C",
"A. c #B06C39",
"S. c #CB5506",
"D. c #CB560D",
"F. c #F25600",
"G. c #D76508",
"H. c #E76609",
"J. c #F4690E",
"K. c #E96F15",
"L. c #EA7515",
"P. c #F77818",
"I. c #F17210",
"U. c #C75B3B",
"Y. c #D37230",
"T. c #EF7120",
"R. c #AA3C40",
"E. c #905346",
"W. c #AE4543",
"Q. c #B74642",
"!. c #A95B48",
"~. c #B5584F",
"^. c #876949",
"/. c #88724A",
"(. c #836C51",
"). c #996654",
"_. c #887659",
"`. c #967B5B",
"'. c #BA7847",
"]. c #B06D4F",
"[. c #867D67",
"{. c #967965",
"}. c #AC7D6A",
"|. c #B46D60",
" X c #C85945",
".X c #C35554",
"XX c #D75E4E",
"oX c #C37A4A",
"OX c #D17E46",
"+X c #D1624B",
"@X c #4B8233",
"#X c #568B3D",
"$X c #599844",
"%X c #7E8869",
"&X c #B7841E",
"*X c #9D843D",
"=X c #FD831A",
"-X c #FC8D07",
";X c #C48E28",
":X c #CD9A3D",
">X c #FE8628",
",X c #D6A835",
"<X c #CA871A",
"1X c #8D856A",
"2X c #998369",
"3X c #8A8675",
"4X c #958C74",
"5X c #A48969",
"6X c #A58C72",
"7X c #A98F76",
"8X c #BA9D7D",
"9X c #AD957C",
"0X c #CD8351",
"qX c #D88954",
"wX c #CF8652",
"eX c #EA9758",
"rX c #F1914C",
"tX c #CCA844",
"yX c #F6AB52",
"uX c #DF9662",
"iX c #E59C68",
"pX c #F59975",
"aX c #EC8E72",
"sX c #DDA872",
"dX c #EAA876",
"fX c #DAC54B",
"gX c #E7D44D",
"hX c #F6EB50",
"jX c #F6F46F",
"kX c #959783",
"lX c #AE9B81",
"zX c #B19C84",
"xX c #B19E88",
"cX c #BAA48D",
"vX c #C6A685",
"bX c #C0AA92",
"nX c #F7AA84",
"mX c #F3B68C",
"MX c #EBC5A2",
"NX c #E1CE8E",
/* pixels */
"                                                                                                                                ",
"                                                                                                                                ",
"                                                                                                                                ",
"                                                                                                                                ",
"                                                                                                                                ",
"                                                                                                                                ",
"                                                          4XcXxXzXlX{.` W                                                       ",
"                                                        X.@X#X$X$X#X$X! ! R                                                     ",
"                                                        ;.[.1X4X4X_.'.o.R R                                                     ",
"                                                      '.oXiXnXdXnXnXpXC.W ..                                                    ",
"                                                      @XsXmXMXpXdXNX! *XX.V.                                                    ",
"                                                        8.1 qX1 1 j.pXuX*X'.                                                    ",
"                                                      Z.,Xb.iX0XA.aXmXqXL (                                                     ",
"                                                      V.dXtX<X,XyXpXM.A...                                                      ",
"                                                        c.,.f.%.:.:XoXA.n.                                                      ",
"                                                        G.g.Y u.v.&Xl.$.4X7X6X5X                                                ",
"                                                        S.j.7.r.a.c.l.+.6X9X9X5X6X`.                                            ",
"                                                  *.*.` d U.B.U.Y.x.n 6XxXcXbXcXcXzX&.D                                         ",
"                                                7X} / H w S z.q.C Z 6X7XbXvXxXvXcXzX2X(.}                                       ",
"                                              &.} _ H 0 b o N 6.7.}.7X{.).>XyX8XxXzX5X/.)                                       ",
"                                            *.^.^.c ..T Z K t.g.~.5X6X{.A.P.P.yXvX8X5X(.J                                       ",
"                                            | /.c } s.u.p.9.p..X|._.2XT 0.S 0.0.q.z.N n                                         ",
"                                              % ; J _ y.u.t.p..X].`.`.G v.Y.>XiXoXoX'.V.[                                       ",
"                                          c.    ; F J g p p l z x n [ n.b.T.>XeX0XwXoXn.[                                       ",
"                                          G.  X e - b 1 s i i s i a M n.V.K.>XrXwXOXZ.[ /                                       ",
"                                        L.;XH.O._ M - = h k j z z | ) *.n.0X>XrX0X0X{ [                                         ",
"                                      L.,XgXtXF.kX/.B < u.W.W.Q.!.(.H b z.L.T.vXsX).v./                                         ",
"                                    D.;XgXjXjXtXJ.3XH F 7.7.i.i.w._ L qXiXb.1.4X2.1X2.H                                         ",
"                                      K.fXhXgX-X=.5.9 3 3 9 3 K | J I.P.>XqX^.#.2.>.y 7                                         ",
"                                        J.tX-XH %.%.+.O.4 9 5 L.I.I.I.J.'.b.{ t y 6 q 6                                         ",
"                                         .H.[ 6 y @.W.s.L. X'.+XXX Xd.M.[ / < @ y e 7 8                                         ",
"                                        { B 8 9 8 6 U Q. Xf.h.Z N c x d a & & * & - = * )                                       ",
"                                        n.l +.6 5 7 u.y.u.k j j p n % . . * & & & & % * *                                       ",
"                                          x k +.4 k 6.6.v 0 t w E ^ q q 9 5 @ @ o o o X                                         ",
"                                          u.t.k @.& , = ; & H M e E B * 6 5 9 o . . o :                                         ",
"                                            U c n , - - - = = < : : < @ 6 5 : o o . o - <                                       ",
"                                                  } : - - # o & & & % X & # @ o X . . : }                                       ",
"                                                  o - ; - # # O o o . - # o o o % - - < | _                                     ",
"                                                  # F ; ; ; & & % o % M M = & > > : J * / M                                     ",
"                                                  = H B M M = O o & % M - - - 6.G c A | H M                                     ",
"                                                  : J N M M 1 - = o O o = : - y.u.e.Y ) } >                                     ",
"                                                  o , _ ; M M X O # O o M F ; y.u.i.u._ F :                                     ",
"                                                  # } G G M ; $ p O o o B B Z w.w.U 6.x G                                       ",
"                                                  } c N > - B + . o o o B x i.R.T T g.m J                                       ",
"                                                  u.c V M n O s + o . o N p.a.*.&.p.W.Y J                                       ",
"                                                  u.9.c N h d : % . o o N i.u.&.,.p.f.Z J                                       ",
"                                                Y t.p.c M < j M % o o o N ) /.K.Z.2.M H                                         ",
"                                                  K e.n 6.b < O O o o   B 3.2.2X5X2.3./                                         ",
"                                                  e #.3.` w - - - = %   1 ;.%X%X4.1.;.(                                         ",
"                                                  >.` ` w w M - - - &   o ^ #.2.,.j.P 8                                         ",
"                                                    w ~ E B : - - - - -   E y E ( t ~ r                                         ",
"                                                        1 - - - - - - - - ^ x.S.D.D.l.-.                                        ",
"                                                          : : - - - - & - E ` :.;.:.:.&.~                                       ",
"                                                            : < 1 - - & - ( ' <.].>.>.-.~                                       ",
"                                                            - Q E 2 - & - ] ' <.).>.;.#.~                                       ",
"                                                            n g a f = - - q ) #.-.!.} `                                         ",
"                                                            j i s + g - = E H m.).R.7 e                                         ",
"                                                          y.i u u $ = = -     E u.e.9.7                                         ",
"                                                        c z z c n % g =       E c z , 7                                         ",
"                                                      x Y x h b 1 * :         0 d.N.m m                                         ",
"                                                      r r L r r 0 7         g.g.g.g.e.w.F                                       ",
"                                                                          i.f.f.h.U t.P 0                                       ",
"                                                                          Y I P H e 7 6                                         ",
"                                                                          8 r r r t t                                           "
};
