/* XPM */
static char *_1684288850[] = {
/* columns rows colors chars-per-pixel */
"64 64 238 2 ",
"   c None",
".  c #17130B",
"X  c #1A191B",
"o  c #231A0F",
"O  c #2B1A0D",
"+  c #281D14",
"@  c #282519",
"#  c #332514",
"$  c #352B15",
"%  c #3B2D16",
"&  c #352C1A",
"*  c #3C2D1A",
"=  c #3C251B",
"-  c #3C311B",
";  c #3A3116",
":  c #1D2421",
">  c #262624",
",  c #292726",
"<  c #2B2925",
"1  c #26262A",
"2  c #272929",
"3  c #292A2B",
"4  c #262925",
"5  c #362B25",
"6  c #3A3E29",
"7  c #383527",
"8  c #2D2D32",
"9  c #2E3333",
"0  c #343534",
"q  c #3A3935",
"w  c #3C3B3B",
"e  c #373737",
"r  c #32302A",
"t  c #4D1D15",
"y  c #571B13",
"u  c #460A10",
"i  c #6C1814",
"p  c #791817",
"a  c #63110E",
"s  c #432E1C",
"d  c #482A19",
"f  c #58261C",
"g  c #42331C",
"h  c #4B361C",
"j  c #53361B",
"k  c #64251F",
"l  c #79291B",
"z  c #683219",
"x  c #451B22",
"c  c #4D2922",
"v  c #572C23",
"b  c #443422",
"n  c #4A3423",
"m  c #443821",
"M  c #4C3B24",
"N  c #4D3B2C",
"B  c #49392B",
"V  c #553C29",
"C  c #413C39",
"Z  c #5A3F32",
"A  c #692F27",
"S  c #643727",
"D  c #7C3931",
"F  c #73392A",
"G  c #3B442A",
"H  c #3C4139",
"J  c #345621",
"K  c #2C4710",
"L  c #6B4A19",
"P  c #484429",
"I  c #5B442B",
"U  c #584428",
"Y  c #4A4D34",
"T  c #42413D",
"R  c #484734",
"E  c #554432",
"W  c #5D4A33",
"Q  c #594837",
"!  c #4E533A",
"~  c #4D5536",
"^  c #565439",
"/  c #445C2C",
"(  c #61462B",
")  c #694928",
"_  c #764A29",
"`  c #634A37",
"'  c #774736",
"]  c #68563C",
"[  c #765637",
"{  c #6F5726",
"}  c #5B613C",
"|  c #4A7D32",
" . c #77633E",
".. c #60673F",
"X. c #3F4242",
"o. c #434343",
"O. c #4D4C4B",
"+. c #494746",
"@. c #52514E",
"#. c #5B5949",
"$. c #555554",
"%. c #5C5B59",
"&. c #504C46",
"*. c #784949",
"=. c #685347",
"-. c #725B43",
";. c #745B47",
":. c #615B59",
">. c #624B41",
",. c #5A6347",
"<. c #64684B",
"1. c #7D6447",
"2. c #6A6A56",
"3. c #786C55",
"4. c #6C7151",
"5. c #727455",
"6. c #76795D",
"7. c #7E7D44",
"8. c #5F5F64",
"9. c #6B6C6C",
"0. c #666566",
"q. c #787969",
"w. c #787776",
"e. c #6C686F",
"r. c #881819",
"t. c #9A191C",
"y. c #95281C",
"u. c #931A20",
"i. c #882926",
"p. c #932B2B",
"a. c #9A2828",
"s. c #87372B",
"d. c #953528",
"f. c #9C3934",
"g. c #983733",
"h. c #953033",
"j. c #A5322E",
"k. c #A63938",
"l. c #B23A3D",
"z. c #AD2A2B",
"x. c #E22118",
"c. c #845919",
"v. c #84552E",
"b. c #9C4A37",
"n. c #895F37",
"m. c #884930",
"M. c #AA4239",
"N. c #A7502D",
"B. c #946337",
"V. c #8C6F36",
"C. c #AF6B2C",
"Z. c #B45812",
"A. c #CA6A12",
"S. c #E5630D",
"D. c #CF4F2F",
"F. c #E04635",
"G. c #C37531",
"H. c #A43F43",
"J. c #985547",
"K. c #905546",
"L. c #AB4443",
"P. c #A94944",
"I. c #B34949",
"U. c #AA574A",
"Y. c #B15247",
"T. c #AF5D57",
"R. c #B85B54",
"E. c #856A4B",
"W. c #886A4B",
"Q. c #8F7453",
"!. c #807450",
"~. c #9A7C5C",
"^. c #977A58",
"/. c #B4624D",
"(. c #AE6958",
"). c #B27346",
"_. c #846E6C",
"`. c #8A7C66",
"'. c #827E7A",
"]. c #977262",
"[. c #AE7F61",
"{. c #CF5F5D",
"}. c #CD7649",
"|. c #C76664",
" X c #CD796D",
".X c #F07261",
"XX c #4D8937",
"oX c #55A742",
"OX c #7F8463",
"+X c #558C44",
"@X c #B79739",
"#X c #D28C35",
"$X c #B08659",
"%X c #9C8262",
"&X c #99836C",
"*X c #8B8B6F",
"=X c #A38A6E",
"-X c #A18566",
";X c #B5866C",
":X c #A58D73",
">X c #A88F76",
",X c #AA9277",
"<X c #AD937B",
"1X c #AE997F",
"2X c #B98A72",
"3X c #D78755",
"4X c #E58A57",
"5X c #E99657",
"6X c #D9A656",
"7X c #E3A44F",
"8X c #D48B70",
"9X c #E99867",
"0X c #E9906E",
"qX c #EAAA77",
"wX c #F6AA78",
"eX c #EBAB6F",
"rX c #7B7D80",
"tX c #817F80",
"yX c #848383",
"uX c #8C8B8A",
"iX c #858887",
"pX c #94928F",
"aX c #989899",
"sX c #B59C84",
"dX c #A9998A",
"fX c #BBA389",
"gX c #ACA681",
"hX c #CA9184",
"jX c #F79F94",
"kX c #EC9B8C",
"lX c #C0A68E",
"zX c #F5A886",
"xX c #F7B486",
"cX c #FBBB95",
"vX c #EEA78E",
"bX c #FAC299",
"nX c #ECC691",
"mX c #F0D3AB",
/* pixels */
"                                                                                                                                ",
"                                                                                                                                ",
"                                                                                                                                ",
"                                                                                                                                ",
"                                                                                                                                ",
"                                                                                                                                ",
"                                            1.5.`.`.&X&X6.4.                                                                    ",
"                                            / +XoXXX| XX+Xn./                                                                   ",
"                                            K xXnXmXmXmX8X{ J                                                                   ",
"                                            N.qXvXbXwXxXbX9XI                                                                   ",
"                                          4XN.gXmXvXmXnXnXL 0X5X                                                                ",
"                                        bX9X8XF.z.V.nXM x.0XqXxX                                                                ",
"                                        5X9X9XcXvXqXnX0XjXxX}.4X                                                                ",
"                                          -._ 8X9X7X6X6XvX' C.                                                                  ",
"                                      %.%.#.G.6X$Xx u ` #XC.W q %X%X                                                            ",
"                              &X>X=XsX` w e d G.Z.*.s.~.C.).X ;.=X>X,X%X~.                                                      ",
"                            ~.sXfXsX1X-X5 8 8 G.S.D.D.G.C.^ < E.:X:X,X=XQ.                                                      ",
"                          %XsXlXfXfXfXdX^.E.>.X z A.A.c.# q [ E.%X=X,X=X=XW.                      0.2.e 8.                      ",
"                        E.:X>X=X<XsX<X^.2X2X;X{.t . . . k.(.^.[.,XQ.=X%X%XW.=.                9.@.8 X 0                         ",
"                      ] ~.=X,X<X=X,X-.hXhX8X]. XR.Y.F J.I.8X^.~.%X~.V W.Q.-.-.        '.uX9.$.0 > w w                           ",
"                      - -.E.^.^.~.V `. X].;X X(.|.P.f.L.I.|.;XW.^.1.- # b -.N   w.aXaXaXiXo.> w C                               ",
"                      * = d n h M # O K.^.;X|.(.Y.P.k.L.L./.[ E 5 g o.o . :.e.aXpXpXaXuX9.o.o.                                  ",
"                      B.).xXcXwX4Xm . # E.E.R.U.f.s.i.g.h.A + 1 5 5 &.@.O.yXrXyXiXrX9.%.+.^                                     ",
"                      K.8XcXbXxX9XB.o o # C Z A f i f @ > 0 , @ +.'.yX0.8.w + 9.:.X.X.S b.m.                                    ",
"                      v.8XcXcXwX).v.o $ M - = a y + < T X.$.w.yX*Xe.@.o.3 U ( _ $ ' b.I.I.L.                                    ",
"                      [ }.cXcX9Xv._ $ M Q N j & > 8 Q B C yXuXuXw.8.w 0 w ' ) h # T.R.k.L.k.                                    ",
"                      _ !.<X:XOXG V h m j - + 3 q W.`.pXuXw.O.0 9 0 0 0 O.V _ h P.P.k.h.p.i.                                    ",
"                      ] w.$XxXqX9X[ C T $.8.1 1 dX'.w.o.1 3 8 e w X.X.e R U s.{ i.a.a.p p                                       ",
"                    Y <.3X9XkXbXxX3X+.+.w.tXX w.0.@.0 8 9 e e e o.w &   Y Y I l i i p                                           ",
"                    P 0 ).3XbXjX.Xq.w.tX$.8.@.w 0 0 9 e e e H w 3 8 6                                                           ",
"                    G 0 n.M..X_.0.*Xe.$.< 3 8 0 0 0 0 0 e , > > > 6 6                                                           ",
"                      G U ) 9.aX'.&.8 3 3 3 3 C X.X.o.O.) & > > > 6 G                                                           ",
"                          < 3 2 3 3 3 1 2 > 4 0 r.c 3 O d + > , r P                                                             ",
"                            2 3 3 , > 3 4 h r.k f u.f > ! Y + > G Y q                                                           ",
"                              < , , , @ L { D a.r.p j s R W B B ; E * N                                                         ",
"                                , 3 1 % { S i.t.u.j $ N Q E ` Q 7 M h Q                                                         ",
"                                , 4 h g M d y k d $ g I Q ` E E b g N 7                                                         ",
"                                  m 5 -. .P & % # # m g U ` N N W g Q *                                                         ",
"                                r B I h = x ] # . o h b U ' p.A i.h W &                                                         ",
"                                b I s h a.t.A $ o # g U z.H.I.l.f g ` E                                                         ",
"                                  s s U r.r.y s $ - g @ n I.T.T.l.d Q Z                                                         ",
"                                  $ g $ f p y s $ W ` i.b.L.L.k.l.Z ]                                                           ",
"                                  & @ d.j h y g * ^ R s.k.h.f.p.a.n                                                             ",
"                                    f u.j g ; ; & - s.k.k.p.D ] s.n                                                             ",
"                                    # d d g ; % $ g K.1.^ R E.W.` d                                                             ",
"                                    $ $ g j - $ $ ( v R 2.4.] 1.v N                                                             ",
"                                    $ $ $ $ $ $ $ ; ,.5.6.6.6.<.#.~                                                             ",
"                                      $ $ $ $ $ $ % ,.<.5.4.4.U.j.=.                                                            ",
"                                      $ $ $ $ $ $ $ R ~ ^ ! ! W P                                                               ",
"                                        $ $ $ $ * $ ~ P g - $ # @ 5.                                                            ",
"                                              * g & ~ <.5.*X*X*XOX-                                                             ",
"                                                - - ~ } ^ / P Y G Y                                                             ",
"                                                $ m ,.~ Y Y Y ~ ,.Y                                                             ",
"                                                $ ; ! z ^ } ~ P ,.!                                                             ",
"                                                $ $ - z ( ,.*.) ^ !                                                             ",
"                                                $ $ ; ` b.K.E.} l                                                               ",
"                                              g % $ $ y.H.J.;.m.l                                                               ",
"                                              g g $ % s d.U.N.F h                                                               ",
"                                              g g $ g s v j d f s                                                               ",
"                                                g ; - k.k.k.k.j.d                                                               ",
"                                                    A h.M.P.k.a.j                                                               ",
"                                                    ( p.g.d.h.d.I                                                               ",
"                                                    0 = d.y.l < 0                                                               ",
"                                                      7 < @ & r                                                                 "
};
