/* XPM */
static char *_1684288850[] = {
/* columns rows colors chars-per-pixel */
"64 64 239 2 ",
"   c None",
".  c #1F180C",
"X  c #1C1A19",
"o  c #0C0F17",
"O  c #231A0E",
"+  c #281C0D",
"@  c #261B11",
"#  c #241B16",
"$  c #34160D",
"%  c #1E231A",
"&  c #2B210F",
"*  c #2D2313",
"=  c #28241A",
"-  c #332514",
";  c #3B2514",
":  c #342A15",
">  c #3A2C16",
",  c #3A2D1A",
"<  c #36271C",
"1  c #3E3217",
"2  c #3C311A",
"3  c #35341B",
"4  c #1A1D21",
"5  c #211F22",
"6  c #1B2326",
"7  c #252423",
"8  c #2A2624",
"9  c #2B2A26",
"0  c #2D2D2C",
"q  c #272827",
"w  c #332C23",
"e  c #3B2C24",
"r  c #322E2D",
"t  c #3D2720",
"y  c #2D312B",
"u  c #333525",
"i  c #32312E",
"p  c #3A3B28",
"a  c #332E32",
"s  c #2F3334",
"d  c #323232",
"f  c #3B3C3C",
"g  c #383836",
"h  c #2F2F31",
"j  c #5C0B0A",
"k  c #570C0A",
"l  c #4E1A0E",
"z  c #591913",
"x  c #541410",
"c  c #630C0B",
"v  c #6B0D0C",
"b  c #69110D",
"n  c #78120C",
"m  c #6B1213",
"M  c #691B16",
"N  c #761616",
"B  c #740B0C",
"V  c #422C16",
"C  c #492919",
"Z  c #5D2819",
"A  c #43331C",
"S  c #4B341D",
"D  c #4A3B1B",
"F  c #53391E",
"G  c #5C340E",
"H  c #682819",
"J  c #79201F",
"K  c #6B381D",
"L  c #431823",
"P  c #422B21",
"I  c #482928",
"U  c #5E2F29",
"Y  c #443423",
"T  c #4D3A23",
"R  c #4C3629",
"E  c #493928",
"W  c #523C22",
"Q  c #573928",
"!  c #453B36",
"~  c #543E38",
"^  c #7C2923",
"/  c #7E362C",
"(  c #6A3429",
")  c #324D19",
"_  c #3C4527",
"`  c #3E4C34",
"'  c #5D471E",
"]  c #68461B",
"[  c #42452B",
"{  c #454B2D",
"}  c #4C482B",
"|  c #54422D",
" . c #5A442C",
".. c #444A31",
"X. c #4A4636",
"o. c #5C4635",
"O. c #584736",
"+. c #4A5235",
"@. c #555338",
"#. c #535E2B",
"$. c #644528",
"%. c #664C39",
"&. c #7E4B34",
"*. c #695439",
"=. c #785838",
"-. c #6F5029",
";. c #497B2F",
":. c #3D3D46",
">. c #413D45",
",. c #3E4143",
"<. c #444444",
"1. c #454649",
"2. c #4A4A4B",
"3. c #484948",
"4. c #544C42",
"5. c #59564A",
"6. c #4A4D55",
"7. c #4F5154",
"8. c #555453",
"9. c #5B5C5C",
"0. c #595856",
"q. c #4E514E",
"w. c #695A41",
"e. c #735A47",
"r. c #714847",
"t. c #5C6A47",
"y. c #6B6B4C",
"u. c #796345",
"i. c #6D755A",
"p. c #747559",
"a. c #7F7E46",
"s. c #625F60",
"d. c #676767",
"f. c #766B67",
"g. c #7B7169",
"h. c #727575",
"j. c #7B7A7B",
"k. c #706970",
"l. c #881719",
"z. c #800E14",
"x. c #89231F",
"c. c #862623",
"v. c #932724",
"b. c #9A3833",
"n. c #90322A",
"m. c #A02A2A",
"M. c #A73937",
"N. c #B52D26",
"B. c #E22018",
"V. c #DE3D32",
"C. c #B96A16",
"Z. c #8B4C3A",
"A. c #8A583B",
"S. c #9C5F30",
"D. c #B9423C",
"F. c #A94833",
"G. c #8F693B",
"H. c #A46C3D",
"J. c #BE7226",
"K. c #88511D",
"L. c #D15D15",
"P. c #D75531",
"I. c #C7752C",
"U. c #A43940",
"Y. c #944F49",
"T. c #AB4443",
"R. c #B54E48",
"E. c #AA5445",
"W. c #B45854",
"Q. c #84694B",
"!. c #9A674A",
"~. c #866C57",
"^. c #8C7355",
"/. c #97785B",
"(. c #92714E",
"). c #A86947",
"_. c #B67C4C",
"`. c #8A7A66",
"'. c #967C63",
"]. c #877D73",
"[. c #866F6B",
"{. c #AE7865",
"}. c #C25654",
"|. c #C27C4C",
" X c #CD725A",
".X c #EB6F5B",
"XX c #C8736E",
"oX c #CA6C64",
"OX c #E16C61",
"+X c #4C8836",
"@X c #7B846A",
"#X c #549943",
"$X c #B79A3D",
"%X c #D1883D",
"&X c #98815D",
"*X c #BC8459",
"=X c #9A8368",
"-X c #9A8972",
";X c #8A8174",
":X c #A18665",
">X c #A58B72",
",X c #AA8B74",
"<X c #AC9375",
"1X c #AC947C",
"2X c #A69979",
"3X c #B49979",
"4X c #AB9467",
"5X c #C8814D",
"6X c #CE8454",
"7X c #D68B58",
"8X c #DC9359",
"9X c #D38F46",
"0X c #E69758",
"qX c #E38954",
"wX c #E9A657",
"eX c #D28C70",
"rX c #E59768",
"tX c #E48C69",
"yX c #E1A36B",
"uX c #EEAD76",
"iX c #878787",
"pX c #928984",
"aX c #989898",
"sX c #939491",
"dX c #B49B84",
"fX c #BCA58A",
"gX c #A3A099",
"hX c #A8A8A6",
"jX c #B3B5B1",
"kX c #C99688",
"lX c #F19887",
"zX c #FB9E96",
"xX c #C6AD98",
"cX c #EBAC8A",
"vX c #F7AC83",
"bX c #F4B88F",
"nX c #ECC894",
"mX c #ECD2A9",
"MX c #F5DAC2",
/* pixels */
"                                                                                                                                ",
"                                                                                                                                ",
"                                                                                                                                ",
"                                                                                                                                ",
"                                                                                                                                ",
"                                                                                                                                ",
"                                                y.y.p.-X-X=Xi.i.y.                                                              ",
"                                                ` &X#X+X;.+X#X_.`                                                               ",
"                                                ) uXnXmXmXmXeX6X)                                                               ",
"                                                F.uXuXnXvXuXbXvX).                                                              ",
"                                              7X).fXmXcXMXnXmX2XE.0X                                                            ",
"                                              uXtXP.N.G.nX .B.OXqXnX                                                            ",
"                                              7XrXvXlXyXnXtXzXvX8XqX                                                            ",
"                                                ] tXuXwX0XwXcXeXK                                                               ",
"                                              5._.8X$XL k %.9X6XS.5.                                                            ",
"                                          s.6.a e I.L.r./ S.$X%Xe ,.e.=X:X                      8.8.2.                          ",
"                                    ,X<X,Xg.5.r a J.L.P.P.I.C.S.q 3.u.3X1Xu.=X                8.0.2.3.                          ",
"                                (.1X1XdX1XdX1X~ 4.= G L.C.K < r ` 9 &XkXfXfX3X'.          8.9.! h h                             ",
"                              =X=XfXxXfXxX/.'.,X=XF 6 6 X # r 0 ( ^.&XQ.fX<X>X>Xe.e.f.d.8.2.1.s 0                               ",
"                            ^.>X<X,XdXfXe.xXkXkXpXeX}.A.; < Y.A.W.G.~.<X^.=X`.[.;XpXiXh.f q h                                   ",
"                            u.,X>X=X'.e.~.eXkXpXeXoXW.W.^ T.}.F.XXe X 8.8.].pXaXsXiXiXj.2.                                      ",
"                              < Y W %.%.; /.'.{.oX(.W.R.v.M.P % 9 5.O.0.7 9.sXiXj.h.d.d.s                                       ",
"                            -.|.7XrX_.H.. %.(.Q.Z.A.&.Z.I 6 %.o.Y.pXj.d.f 7 h.j.k.s.f :.Y.OX                                    ",
"                            =.7X7XrX7XG.@ @ @ I T E 7 6 n.U ! 4.gXsXd.1.<.s :.f q 7 XXM.M.M.W.                                  ",
"                          !.H.|.6X0XH.A . O @ 1 < X 6.!.r.].jXhX8.>.1.2.X.h 0 7 o Y.M.T.}.v.N                                   ",
"                          %.|.|._.5XH.* = T T , # 6./.e.pXhXiXh.:.g 2.1.1.0 q 5 Y.D.b.m.M.N b                                   ",
"                          w.A.8X8XG.; T g 7 = r  .! pXaXiX1.g s <.g 2.1.i q u u m v x.x.z.m Z                                   ",
"                          y.'.-X-Xp.Y 4.= 5 0 d pXhXiX1.s f 1.<.1.2.<.d = 5.p 3 j c B j C ] F                                   ",
"                        5.i.X.*XyXtXy.X.g 8.aXsXs.2.s ` >.<.<.<.q.d h = #   t.@ * 1 l b Z F                                     ",
"                        @.E =.9XrX.Xf.iX].>.g 2.f :.1.,.<.1.3.3.d q # =.4X>      .H l  .                                        ",
"                        ..= @.N.`.].k.9.<.h 0 3.1.X.1.1.g Y T T X 8 q @.W ,                                                     ",
"                            K.k.[.9.3.d h d 0 8.9.d.d.k.3.A - F 8 7 y < Q P                                                     ",
"                            6 8.,.d i s 0 d 0 q q 9 0 q 7 ' W W A 8 E Y o.w.                                                    ",
"                            8 g h d 0 i h r 7 0.M.b.I s p i 9 9 e e Q | ! O.                                                    ",
"                              X r r y h h u 2 Q v.v.l.( i #.X.1.~.4Xw.R e.Q.o.                                                  ",
"                                0 0 h h 0 H H M J l.c.U g u p ! 3X/.%.O.o.*.X.                                                  ",
"                                  d r i 3.z m N m N m ! 9 = < e.*.O. .E A E e                                                   ",
"                                    9 g o.w.u.n.m M &.. O ; %.~ Q E Y A V A A :                                                 ",
"                                      > ~ =.*.O.!.!.=.# O * R Y A Y A A : 2 S <                                                 ",
"                                    < > A R X.b.R.E.Q @ O + | | S C A ; : * N ;                                                 ",
"                                    2 , A [ S M.-.1 3 Y + + A A V x - k l k l :                                                 ",
"                                      : 1 = n.( U V A P : : A E , C j k j j k                                                   ",
"                                        . n.n./ m.l F : : : %.T Y b c j j j $                                                   ",
"                                        2 v.^ Z C 3 - 1 1 - X.S S M N c v j j                                                   ",
"                                      ; b z.H 2 1 - * : > * E Y l.l.M b v v >                                                   ",
"                                      z m l.H A - - * 1 > : Y D l.z.A b J B -                                                   ",
"                                        c W Q A : * > Y > | r.N C V b b B V                                                     ",
"                                          + . Q T V : + :     > | y.@Xp.w.9 ,                                                   ",
"                                          & : ..[ [ _ - * .   D { +.} ..{ d w                                                   ",
"                                          @.@.{ { [ D - * .     A ....[ x.8                                                     ",
"                                            C Q [ 1 : : & .   9 X.2 : 3 : { w                                                   ",
"                                              T ; * O . * O   - _ +.+.+.@.9 w                                                   ",
"                                                A D > > 1 :   : _ _ , , * y 3                                                   ",
"                                                  V : : 1 >   - { _ _ * M q w                                                   ",
"                                                    > ; V >     ` E p 3 z <                                                     ",
"                                                    , l > >     h N Z C p N                                                     ",
"                                                    - ; : & +     3 c.N z                                                       ",
"                                                  > n l > : .     p K ^ H                                                       ",
"                                                  V n ; : &     E A P U e /                                                     ",
"                                                  + V : : O     A S F.U.m.K                                                     ",
"                                                  : ; : *       D / U.F.M.$.                                                    ",
"                                                  * + +         D ' ^ x.c.R                                                     ",
"                                                                  < w w u i                                                     ",
"                                                                    i i d                                                       "
};
