/* XPM */
static char *_1684288851[] = {
/* columns rows colors chars-per-pixel */
"64 64 238 2 ",
"   c None",
".  c #19160D",
"X  c #1F1A13",
"o  c #1B1A19",
"O  c #0C1A0E",
"+  c #350C08",
"@  c #24190E",
"#  c #291A0E",
"$  c #3B170E",
"%  c #231D13",
"&  c #231D1D",
"*  c #2D1F10",
"=  c #391F1D",
"-  c #2E220E",
";  c #2C2414",
":  c #25241D",
">  c #29251A",
",  c #332514",
"<  c #342B16",
"1  c #3A2B15",
"2  c #352C1A",
"3  c #3B2816",
"4  c #3D321C",
"5  c #393317",
"6  c #31260F",
"7  c #3B1623",
"8  c #262423",
"9  c #282625",
"0  c #2B2A26",
"q  c #2C2C2B",
"w  c #282826",
"e  c #332E2D",
"r  c #362B28",
"t  c #2C312E",
"y  c #3B3B24",
"u  c #33342C",
"i  c #393E29",
"p  c #383626",
"a  c #2C2C32",
"s  c #2D3333",
"d  c #343434",
"f  c #3A3535",
"g  c #3A3935",
"h  c #363738",
"j  c #383739",
"k  c #3B3B3B",
"l  c #363938",
"z  c #322F30",
"x  c #480706",
"c  c #58090A",
"v  c #52160D",
"b  c #531912",
"n  c #581917",
"m  c #441111",
"M  c #640A0B",
"N  c #6A0D0C",
"B  c #69070B",
"V  c #770B0A",
"C  c #6B1313",
"Z  c #731513",
"A  c #7D1717",
"S  c #70100F",
"D  c #432C16",
"F  c #442C1C",
"G  c #482919",
"H  c #522B1D",
"J  c #43331C",
"K  c #4B321B",
"L  c #4C391C",
"P  c #453316",
"I  c #54361D",
"U  c #7E201E",
"Y  c #61291F",
"T  c #4A2D26",
"R  c #443222",
"E  c #453924",
"W  c #4B3929",
"Q  c #553A26",
"!  c #453D37",
"~  c #553E33",
"^  c #742B29",
"/  c #653827",
"(  c #7A332C",
")  c #6D3C32",
"_  c #6A2B2E",
"`  c #2F4919",
"'  c #3D432B",
"]  c #3D4427",
"[  c #3C4234",
"{  c #395128",
"}  c #58421B",
"|  c #42452B",
" . c #4C462C",
".. c #434A2D",
"X. c #4A4428",
"o. c #57442B",
"O. c #434C33",
"+. c #4B4D34",
"@. c #4B4737",
"#. c #5A4735",
"$. c #4D563B",
"%. c #51543B",
"&. c #545A3C",
"*. c #545938",
"=. c #495628",
"-. c #7C4B26",
";. c #654B38",
":. c #7B4731",
">. c #68563B",
",. c #755839",
"<. c #654124",
"1. c #457C2F",
"2. c #6F6430",
"3. c #6D420E",
"4. c #3F3F40",
"5. c #423F42",
"6. c #753C47",
"7. c #3F4143",
"8. c #444544",
"9. c #4B4B4B",
"0. c #464848",
"q. c #564A45",
"w. c #595847",
"e. c #535454",
"r. c #5B5B5C",
"t. c #5A5655",
"y. c #685645",
"u. c #715E4A",
"i. c #6B544C",
"p. c #5D6347",
"a. c #5A6156",
"s. c #67674C",
"d. c #7A6548",
"f. c #686658",
"g. c #776657",
"h. c #727550",
"j. c #666869",
"k. c #737372",
"l. c #7B7878",
"z. c #787361",
"x. c #861917",
"c. c #8F281C",
"v. c #972826",
"b. c #86382C",
"n. c #97312C",
"m. c #823D35",
"M. c #9B3833",
"N. c #8C2D2D",
"B. c #A2332C",
"V. c #A92E32",
"C. c #A63839",
"Z. c #AF2F2E",
"A. c #D13929",
"S. c #954239",
"D. c #9A5A39",
"F. c #87552F",
"G. c #AD4A34",
"H. c #816433",
"J. c #B46C31",
"K. c #9B5D17",
"L. c #E05D10",
"P. c #CB6A11",
"I. c #D4582D",
"U. c #CB7532",
"Y. c #C95618",
"T. c #8A5648",
"R. c #8F574A",
"E. c #AC4B47",
"W. c #B74C4B",
"Q. c #A6534C",
"!. c #BA5955",
"~. c #866C49",
"^. c #986A4E",
"/. c #8B7357",
"(. c #997D5C",
"). c #947859",
"_. c #917150",
"`. c #A76C45",
"'. c #B87646",
"]. c #AE6E54",
"[. c #867B67",
"{. c #937B63",
"}. c #9A7E63",
"|. c #817E7D",
" X c #B87A66",
".X c #A87663",
"XX c #C25958",
"oX c #C57945",
"OX c #C36862",
"+X c #4C8836",
"@X c #568840",
"#X c #56A940",
"$X c #7A8166",
"%X c #B79633",
"&X c #CB933C",
"*X c #9C815D",
"=X c #9F814C",
"-X c #818665",
";X c #99826A",
":X c #8C837A",
">X c #9B8B72",
",X c #A1886A",
"<X c #A99177",
"1X c #B3947A",
"2X c #AA8D71",
"3X c #D28D53",
"4X c #E28E5A",
"5X c #E9955E",
"6X c #E6A951",
"7X c #DC9364",
"8X c #D48F6E",
"9X c #E59662",
"0X c #ED9470",
"qX c #EFB67B",
"wX c #F4AB77",
"eX c #7F8082",
"rX c #878788",
"tX c #949392",
"yX c #9A9D9B",
"uX c #968A8B",
"iX c #B49B83",
"pX c #B89F86",
"aX c #BAA28A",
"sX c #BCA590",
"dX c #BDAB90",
"fX c #AD9FA2",
"gX c #9FA0A0",
"hX c #A9A6A4",
"jX c #B2A6A0",
"kX c #F5998F",
"lX c #F7BA88",
"zX c #F9B993",
"xX c #F4AE85",
"cX c #EDC996",
"vX c #EED89D",
"bX c #E9D6A9",
"nX c #F3DBB4",
"mX c #F8DCC4",
/* pixels */
"                                                                                                                                ",
"                                                                                                                                ",
"                                                                                                                                ",
"                                                                                                                                ",
"                                                                                                                                ",
"                                                                                                                                ",
"                                                s.h./.>X;X;Xf.h.a.                                                              ",
"                                                { $X#X+X1.+X@X2.=.                                                              ",
"                                                ` qXcXbXbXbX8X2.`                                                               ",
"                                                G.qXkXzXxXwXcX0X=X                                                              ",
"                                              9X7X>XvXzXmXcXcX#.F.5X                                                            ",
"                                              wX8XI.Z.H.vXo.A.0X9XcX                                                            ",
"                                              5X4XzX0X0XbXOXzXlXoX5X                                                            ",
"                                              w.F.7X0X9X6X6XxX:.F.                                                              ",
"                                        ,X(.;Xk D.3X%X7 m ;.&XJ.D.y.{.                                                          ",
"                                  iXpXpXaXsXaXe I U.Y.i.^ `.J.^.R u.2X>X,X).                                                    ",
"                                (.iXpXpXsXsXsX9 a J.L.L.I.U.P.q.& d.<XiX<X/.                                                    ",
"                              /.}.<XiXsXaXpXiXu.q.. / P.P.F.* t ~ >.}.<XsXaXpX{.u.                9.j.9.                        ",
"                            >._.(.,X{.,X/.iX1X,X.XXXY . O . b f.q.~.,X{.>X<XiX}.}.>.u.        k.8.u q g                         ",
"                            #.,.~.(.(.R .XOXOX,X1X!.E.v./ ( C.!.^.(.).,XT <X{./.}.u.f.f.  t.k 8 q u q                           ",
"                            L o.K ;.;.@ S.)..XOX!.OXQ.M.B.W.M.R.,.& W {.9.g.g.k.rXtXyXeX5.f q z z                               ",
"                              Q I I I @ @ d.^.!.!.W.E.n.n.;.g s p.q.j o j.eXtXhXtXrXl.e.q d z                                   ",
"                          <.`.'.oX3X3Xo.> p Q N.( ^ T 8 O e [.}.{.[.9.q hXgXrXl.r.9.8.k z                                       ",
"                          y `.'.'.,.R P & > ; - : z r ) ( R.t.tXrXrX! f a j.r.9.4.4.f f                                         ",
"                          ..^.`.<.2 q r 9 z z : ~ _ m.uXhXtXeX9.5.9.z f ! 8.5.d t V.C.n.A                                       ",
"                          %.}.1X;X| [ 8 9 9 7.f R k.hXfXtXj.0.4.k 0.0.8.9.h q 8 A E.C.x.A                                       ",
"                          +.g.'.`.;.oX: q : 8 eXgXtXk.9.8.d 4.0.0.8.0.9.~ 9 o T.C.x.x.Z c c                                     ",
"                        9 p D.4X4XU.jXl.tXyXtXeXe.8.d 8.8.0.0.0.e.d e.p #.r.X x.x.V c x x v                                     ",
"                        % -.J.[.:Xz.:Xq 9.9.0.7.j 8.0.8.0.0.e.r.e.d ; < ;.  q x @ c c x x v                                     ",
"                          t.k.l.l.9.j q 9.0.0.9.8.8.8.0.0.8.@.h 0 . ;.<Xh.    Q L J L L m                                       ",
"                        e.k.9.4.4.h h s ! 0.0.9.8.8.8.@.4.W q 9 q X z.| O.                                                      ",
"                        f.k k h h d h s e.j.j.j.j.j.e.E W E 9 w 9 ; &.&.g                                                       ",
"                          j j j j d h @ . $ + & u 8 f K J % w w 9 , % +.                                                        ",
"                          8.g j h h j m L Z x.7 q 8 f p.| i w 0 0 >.z ;                                                         ",
"                            d f f j f R x x N n u 9 [ $.] p q < W W _.>.F                                                       ",
"                              j j j %.&.c x x n q w d y u u ; 5 o.#.>./.y.                                                      ",
"                                h y.#.,.n + + m s a 9 % 0 ; , o.#. .o.W o.2                                                     ",
"                                  ;.W (.~.).!.XXR.*X~.; > 6 o.~ R L P < 4 ;                                                     ",
"                                  ;.L ,.~ C.V.M.T.X.F ! X @ y.J R K P G 4 @                                                     ",
"                                  ~ J J Q Z c.( G 1 R < X @ - D 1 x.$ M I @                                                     ",
"                                    K 1 J b N V b P E < @ 6 X @ D Z M M P %                                                     ",
"                                      J G J J N b J J J % - D n C C B x.I ,                                                     ",
"                                      , Z P J K b K P 4 1 D V N M M c V #                                                       ",
"                                    1 Z C H H K Q y.o.5 < < E N B B Z V @                                                       ",
"                                      n 4  .W %.>.g.d.5 < , v M c M U S -                                                       ",
"                                      e i s.z.-X$X-Xh.X.5 D v , , ; x.V @                                                       ",
"                                      u ..*.p.p.s.p.! u   > 2 ] y 2 - D @                                                       ",
"                                        ' w.p.p.&.w.O.    > < < 1 y y :                                                         ",
"                                        ' &.&.&.*.v.H |   < < 2 p ' ..8                                                         ",
"                                        0 , 5 R y 4 , +.u 2 2 < ] ] ..e                                                         ",
"                                        q O.$.*.%.&.@.' p 3 : D v x.u y                                                         ",
"                                        0 ' ] ..| ] ' i i X.3 , < > &                                                           ",
"                                        t ' [ +.y.D.' '   0 | | ] ' i                                                           ",
"                                        ' M.b.&.s.s.[ f   0 ' y S.1                                                             ",
"                                          ( ) +.s.%.W z   0 y o.( D                                                             ",
"                                          | [ u.Q.:.T d p p 5 J J J                                                             ",
"                                            ..2.u.S. .  e > 2 1 J J                                                             ",
"                                              H C.m.L   w > 2 1 J L                                                             ",
"                                             .o.V.M.}   ' o./ I T G                                                             ",
"                                          %.%.b.S.B.E $.  | _ _ ^ p                                                             ",
"                                          %.%.V.C.C.B.*.  ! k k k g                                                             ",
"                                          %.$.v.C.C.v.=.                                                                        ",
"                                            %.o.b.b.F.|                                                                         ",
"                                              *.+. .X.                                                                          "
};
