/* XPM */
static char *_1684288851[] = {
/* columns rows colors chars-per-pixel */
"64 64 237 2 ",
"   c None",
".  c #1D150D",
"X  c #1B1B1B",
"o  c #241B0E",
"O  c #24170D",
"+  c #371A0E",
"@  c #281B12",
"#  c #211D15",
"$  c #371C13",
"%  c #1E2119",
"&  c #29230F",
"*  c #2D2313",
"=  c #2D231B",
"-  c #27261A",
";  c #342513",
":  c #342B16",
">  c #34261A",
",  c #352B1A",
"<  c #3C2D1B",
"1  c #3B2815",
"2  c #3C311B",
"3  c #37331A",
"4  c #34250F",
"5  c #1E2528",
"6  c #242424",
"7  c #2B2624",
"8  c #2B2926",
"9  c #272829",
"0  c #2B2B2B",
"q  c #262728",
"w  c #312D2B",
"e  c #382B23",
"r  c #2F3028",
"t  c #363D24",
"y  c #3A3C24",
"u  c #33322D",
"i  c #383625",
"p  c #2D2E30",
"a  c #2E3233",
"s  c #343333",
"d  c #383635",
"f  c #393837",
"g  c #3B3B3A",
"h  c #383936",
"j  c #322F32",
"k  c #48140D",
"l  c #471C15",
"z  c #581D15",
"x  c #510A0C",
"c  c #760D0E",
"v  c #691816",
"b  c #741311",
"n  c #7A1817",
"m  c #6C0E0D",
"M  c #422D19",
"N  c #4B2C1B",
"B  c #452515",
"V  c #572618",
"C  c #43331C",
"Z  c #4C321B",
"A  c #453317",
"S  c #51381C",
"D  c #67281A",
"F  c #78221F",
"G  c #66341C",
"H  c #402D25",
"J  c #542926",
"K  c #433322",
"L  c #493523",
"P  c #4C3B2A",
"I  c #483929",
"U  c #533D2B",
"Y  c #563929",
"T  c #413E3C",
"R  c #463A32",
"E  c #543C33",
"W  c #6B2C23",
"Q  c #772D26",
"!  c #653427",
"~  c #743428",
"^  c #6A3B32",
"/  c #793B33",
"(  c #3B4226",
")  c #3C422A",
"_  c #394A28",
"`  c #3F5829",
"'  c #294B17",
"]  c #584316",
"[  c #43452B",
"{  c #44492D",
"}  c #47462B",
"|  c #59432D",
" . c #464D32",
".. c #4B4E33",
"X. c #454337",
"o. c #564233",
"O. c #5B4432",
"+. c #5A4936",
"@. c #4C5135",
"#. c #4A5338",
"$. c #51543A",
"%. c #5A583F",
"&. c #40522F",
"*. c #754525",
"=. c #624B36",
"-. c #684A37",
";. c #64513C",
":. c #6E523A",
">. c #685135",
",. c #755838",
"<. c #685228",
"1. c #7A623D",
"2. c #5B6029",
"3. c #3E3F41",
"4. c #413F47",
"5. c #673950",
"6. c #3F4042",
"7. c #444344",
"8. c #4D4C4B",
"9. c #494847",
"0. c #544E4C",
"q. c #555647",
"w. c #535452",
"e. c #595858",
"r. c #6C5847",
"t. c #745C43",
"y. c #785A48",
"u. c #625F5D",
"i. c #63694C",
"p. c #7B6648",
"a. c #646757",
"s. c #777659",
"d. c #766B58",
"f. c #685F60",
"g. c #5E6163",
"h. c #656463",
"j. c #6B6868",
"k. c #786B67",
"l. c #797369",
"z. c #737372",
"x. c #7A7977",
"c. c #6E7070",
"v. c #851919",
"b. c #85221B",
"n. c #871E21",
"m. c #872523",
"M. c #982626",
"N. c #983735",
"B. c #8C3531",
"V. c #A1342E",
"C. c #A93735",
"Z. c #DD2014",
"A. c #CD2421",
"S. c #984135",
"D. c #81583A",
"F. c #915634",
"G. c #AA4B32",
"H. c #986338",
"J. c #B66C2A",
"K. c #B75C12",
"L. c #D56122",
"P. c #B13C45",
"I. c #905545",
"U. c #A64343",
"Y. c #B5544F",
"T. c #856A49",
"R. c #966949",
"E. c #89774B",
"W. c #896F51",
"Q. c #9A6B50",
"!. c #8C7451",
"~. c #8E775F",
"^. c #927755",
"/. c #9A7B5B",
"(. c #947757",
"). c #91724C",
"_. c #BC764A",
"`. c #A76A55",
"'. c #B16E53",
"]. c #977D65",
"[. c #867871",
"{. c #85766F",
"}. c #B17D6A",
"|. c #DC5647",
" X c #CA7E4D",
".X c #DD7449",
"XX c #C66969",
"oX c #D07063",
"OX c #4D8E3B",
"+X c #508342",
"@X c #7E807E",
"#X c #B79935",
"$X c #C68C3D",
"%X c #A3845F",
"&X c #9E856D",
"*X c #9A8568",
"=X c #888778",
"-X c #928373",
";X c #A38464",
":X c #A98B6B",
">X c #B88A67",
",X c #AA8E78",
"<X c #A48C74",
"1X c #B68C77",
"2X c #AB9479",
"3X c #B0977B",
"4X c #968355",
"5X c #DB8C58",
"6X c #DB9358",
"7X c #CC904E",
"8X c #EB9359",
"9X c #EEB24E",
"0X c #DA9563",
"qX c #CD8A6F",
"wX c #E29363",
"eX c #E79D6B",
"rX c #F19A72",
"tX c #E3876D",
"yX c #F4AB75",
"uX c #EEA972",
"iX c #D2A358",
"pX c #898989",
"aX c #928885",
"sX c #B49C84",
"dX c #BDA58C",
"fX c #B8A287",
"gX c #E49885",
"hX c #C3A88D",
"jX c #C8AE93",
"kX c #DFB583",
"lX c #F9A58A",
"zX c #F8B987",
"xX c #F5B48F",
"cX c #EBC697",
"vX c #E8CCA4",
"bX c #F2D7A8",
"nX c #F7DECC",
/* pixels */
"                                                                                                                                ",
"                                                                                                                                ",
"                                                                                                                                ",
"                                                                                                                                ",
"                                                                                                                                ",
"                                                                                                                                ",
"                                                i.s.@X*X&X=X@Xi.i.                                                              ",
"                                                _ 4XOXOX2.OXOX,.`                                                               ",
"                                                ' uXkXvXvXvX0X<.`                                                               ",
"                                                G.yXlXxXzXyXcXrXH.                                                              ",
"                                              wX!.:XbXxXnXzXvXD.F..X                                                            ",
"                                              yXkXA.A.*.bXC Z.rXwXzX                                                            ",
"                                              8XwXxXgXyXvXtXlXzX6X8X                                                            ",
"                                              r.D.wXrX9XiX9XkXG ~                                                               ",
"                                        p.r.e.0.J.iX$XJ k y.$X_.H.{ ].                                                          ",
"                                sXsXdXdXdXdXW.s H J.L.5.*.`.J.R., T.e.(.+.                                                      ",
"                              y.sXdXhXdXhXdX1Xp 0 J.L.L.L..XK.y.# T.j.].d.                                                      ",
"                            o.2XsXdXdXdXdXdXdX=.9.0 D K.L.G = s K :.,XjXhXjXdX^.                                                ",
"                            ;X&X].,XfXdXdXfX&X].J 8 0 5 % & - & . ; ].sXhXfXfXfXt.                                              ",
"                          +.W.&X&X<X<X*X{.sXqXqX1XY.V $ . . Z >.p.(.3XT.sX3X*X;X^.                                              ",
"                          =.-.T././.,.P ,X}.1XqXoXsXN.F X n M.Y.}.;X;X<XO.;X%X%X^.o.o.                                          ",
"                            0XN 1 >.U > ~./.].;XXXXXY.N.Q m.Y.Y.`.*X(.%XK (.W.p.E.,.                9.w.9.                      ",
"                          -.0XeX0X_.I.q @ T.W./.`.XXU.U.m.Q G.Y.XX).!.).; P e e @             0.w.8.0.T u                       ",
"                          J.5XeXeXeX5Xj O ; E ! D.^ M.b.m.J M.Q.t.;.R = ; ; y.7X'.    z.h.u.8.8.9 X 0 s                         ",
"                          _.6X XwX XF.- < C K C v n n n M.v $ 8 0 p u w . 0.>X/.>XaXaXpXz.j.6 0 w d                             ",
"                          ,.6X X7X_.H.> < K C C V m.M.v.n.R s s a R w w q j.r.[.aXpXpXx.c.g.6 4.                                ",
"                        8.<XjXjX>Xs.| : C C C P Z L R 5 5 R * B B h.x.d d w.0 pX@Xx.c.g.3.4.0.                                  ",
"                      l.4X@X3XdX,X-X: : C C C < 6 6 9 XXU.~ k.c.l.c.c.w.f d 6 f.8.p 9 p 6 q                                     ",
"                      q.@.=.uXyXeX6X,.: 1 * 7 - ! V.N.k.[.f.j.j.e.a 5 h d f j j q j 4.G.N.B.                                    ",
"                      y ) H.5XeXgXoX_.1 : * 6 7.l.k.f.j.w.4.p X 6 s s s d d T s 9 I.V.v.n m.                                    ",
"                        r Q *.8X|.[.l.h.x.=Xw.h.c.g.7.p # 0 s d s g 7.X.T s     S.n.n v v                                       ",
"                          v.[.x.z.x.c.x.h.e.s 3.0 X j d g f f 8.e.i , , e                                                       ",
"                          j.aXh.w.7.p 0 0 a s f s g d d f d 7.0 q q R :                                                         ",
"                          w.7.7.0 0 0 9 8 8 0 u 6.3.7.7.8 =.X.8 w > ;.O                                                         ",
"                          9.j 0 9 0 q 9 8 9 s - % % p 0 T.r.H 3 A P !.*                                                         ",
"                            s 0 9 9 q 9 9 0 B x l $ 8 7 >.=.t.K I L !.Y                                                         ",
"                              8 9 9 6 /.n.v.x v.v.v 0 7 C L E.O.| P :./.,.                                                      ",
"                                9   ;Xp.V n x v.m + 7 7 D.:X/.o.E -.=.+.2                                                       ",
"                                  I ,.p.).T.D k $ N L C < ,XE.p.p.B.^ +.1                                                       ",
"                                  i | 1.E.(.;X:X:.=.e N K 1 p.-.-.+.Y :.,                                                       ",
"                                  C L O.p.T.P.M.L t.K , I =.< < z Q Q >.,                                                       ",
"                                  A C E U +.o.v.S.;.U M i C L ] 2 V ! S ,                                                       ",
"                                  < P L | =.G v./ =.P C t.U M + V , z ;                                                         ",
"                                  C o.m N N b v ! =.O.C O.^ V l n G 2 O                                                         ",
"                                  2 b m Z S V U U =./   , C & 4 1 c D O                                                         ",
"                                  , b n N S Z L | ;.=.  e & & 4 ; c c O                                                         ",
"                                  2 +.b N Z M U U | } A C ! b.V : & C O                                                         ",
"                                  : 2 $.$.$.$.@.[ @.q.3 3 $.i l B S Z                                                           ",
"                                  3 [ $.@.@...@. .[ q.3 _ { [ s.i.{ w                                                           ",
"                                    ; { V.*.{ { [ { * % {  .@.@.@.@.y                                                           ",
"                                    & 3 ) ..[ [ { * : : 2 {  .@. .{ )                                                           ",
"                                    : F t y y 1 . )   3 o ( [ _  .v                                                             ",
"                                    i q.} } ) t ) (   h y ; = * @                                                               ",
"                                    y N.&._ P V ) t   t 3 ( ( {                                                                 ",
"                                      / ..@.Y k (   t t : ( y ,                                                                 ",
"                                      1 n n k 2 *   ( ( 3 t J 7                                                                 ",
"                                      1 z v V + @   y [ 4 : r q                                                                 ",
"                                      1 N B V x +     v & : - 6                                                                 ",
"                                      V m.m.M.v.      b : : 7 8                                                                 ",
"                                      F B.N.V.F S     b c C , i                                                                 ",
"                                      m.N.N.C.m.n.    , W l I                                                                   ",
"                                      m.M.M.M.v.Q       s y                                                                     ",
"                                      Q W W W I R                                                                               ",
"                                      } ..{ ) u                                                                                 "
};
