/* XPM */
static char *_1684360477[] = {
/* columns rows colors chars-per-pixel */
"64 64 94 2 ",
"   c None",
".  c #020202",
"X  c #070606",
"o  c #0C0B0A",
"O  c #0F0D0C",
"+  c #100F0D",
"@  c #14120F",
"#  c #141210",
"$  c #151311",
"%  c #171616",
"&  c #191714",
"*  c #1D1A17",
"=  c #1C1B19",
"-  c #211E19",
";  c #21201E",
":  c #25211C",
">  c #24211D",
",  c #2C2319",
"<  c #30271C",
"1  c #3B2D1B",
"2  c #3B2D1C",
"3  c #232322",
"4  c #232323",
"5  c #282520",
"6  c #2B2924",
"7  c #282828",
"8  c #2A2A2A",
"9  c gray17",
"0  c #2E2C29",
"q  c #2C2C2C",
"w  c #2D2C2C",
"e  c #332B20",
"r  c #362E24",
"t  c #30302C",
"y  c #32302D",
"u  c #3C362C",
"i  c #323130",
"p  c #343431",
"a  c #373431",
"s  c #383430",
"d  c #383835",
"f  c #3C3A35",
"g  c #3B3B3A",
"h  c #3D3B38",
"j  c #3F3D39",
"k  c #3E3D3B",
"l  c #3F3F3E",
"z  c #45321B",
"x  c #48361F",
"c  c #4E371E",
"v  c #50381B",
"b  c #593D1E",
"n  c #553F27",
"m  c #403A31",
"M  c #463D33",
"N  c #413F3B",
"B  c #7B501D",
"V  c #5D4329",
"C  c #40403D",
"Z  c #5F4A31",
"A  c #624221",
"S  c #6A4623",
"D  c #6B4623",
"F  c #6E4D23",
"G  c #66482C",
"H  c #684E2E",
"J  c #734B26",
"K  c #7C5023",
"L  c #64503C",
"P  c #705331",
"I  c #795834",
"U  c #7D5938",
"Y  c #424240",
"T  c #444441",
"R  c #444443",
"E  c #464542",
"W  c #464642",
"Q  c #484844",
"!  c #494946",
"~  c #4A4A47",
"^  c #494948",
"/  c #4A4A49",
"(  c #545453",
")  c #555554",
"_  c #595958",
"`  c #5F5F5E",
"'  c #695542",
"]  c #6F6F6E",
"[  c #98671F",
"{  c #845520",
"}  c #875D25",
"|  c #8A622E",
" . c #9C7023",
".. c #936F38",
/* pixels */
"                                                                                                                                ",
"                                                                                                                                ",
"                                                                                                                                ",
"                                                                                                                                ",
"                                                                                                                                ",
"                                                                                                                                ",
"                                                                                                                                ",
"                                                                                                                                ",
"                                                                                                                                ",
"                                                                                                                                ",
"                                                                                                                                ",
"                                                                                                                                ",
"                                                                                                                                ",
"                                                                                                                                ",
"                                                                                                                                ",
"                                                                                                                                ",
"                                                                                                                                ",
"                                                                                                                                ",
"                                                                                                                                ",
"                                                                                                                                ",
"                                                                                                                                ",
"                                                                                                                                ",
"                                                                                                                                ",
"                                                                                                                                ",
"                                                                                                                                ",
"                                                                                                                                ",
"                                                                                                                                ",
"                                                                                                                                ",
"                                                                                                                                ",
"                                                                                                                                ",
"                                                                                                                                ",
"                                                                                                                                ",
"          o                                                                                                                     ",
"          # 2 2   J                                                                                                             ",
"          # < v A S J                                                                                                           ",
"          4 < 2 A A S J J U K S                                                                                                 ",
"            + < v v v A G S S S J v   Z                                                                                         ",
"            # : x v v b c S A A A b b x 6 s   #                                                                                 ",
"            # = 2 v 2 v v V b b v b b r 5 t ^ Y a l                                                                             ",
"            9 # - < , 2 : 2 e z < z v < * 6 d T _ _                                                                             ",
"              & @ : . : o , o * o < * - & : t m p ` ] )                                                                         ",
"              # . . % .   . ; . & . o ; : : 6 d u q * ` _ Q                                                                     ",
"                7           O     X . . * q d t d a R m R R l R                                                                 ",
"                                  X     5 @   g C d g m g g t R g a                                                             ",
"                                          g   * C d g g g g t ^ * a t                                                           ",
"                                              d R     R g a t R h % , C g                                                       ",
"                                                          ) d g & C 6 A J l R                                                   ",
"                                                            L ' 9 : 5 n A I | / Q                                               ",
"                                                                    i A v V P .. .^ C                                           ",
"                                                                      v v v A A H [ ^ (                                         ",
"                                                                        v v x v v b } [ _ R                                     ",
"                                                                            c v v x J A F  .^ l h                               ",
"                                                                                c v x x v v B { l l Q                           ",
"                                                                                    c v x x A b S A R ( N                       ",
"                                                                                        c v x v v J * & C R                     ",
"                                                                                            v x A S t t * & R (                 ",
"                                                                                                v S 6 & t = # * l C             ",
"                                                                                                  2   w - *     @ & R M         ",
"                                                                                                          w         # *         ",
"                                                                                                                                ",
"                                                                                                                                ",
"                                                                                                                                ",
"                                                                                                                                ",
"                                                                                                                                "
};
