/* XPM */
static char *_1684360478[] = {
/* columns rows colors chars-per-pixel */
"64 64 80 1 ",
"  c None",
". c #050504",
"X c #080706",
"o c #090806",
"O c #0C0B0A",
"+ c #110F0E",
"@ c #13110E",
"# c #151312",
"$ c #191612",
"% c #1C1916",
"& c #1E1C1A",
"* c #231D16",
"= c #211F1B",
"- c #24211C",
"; c #2D251B",
": c #31271B",
"> c #352A1C",
", c #3C2D1C",
"< c #262422",
"1 c #282623",
"2 c #2B2926",
"3 c #2D2C29",
"4 c #372F25",
"5 c #32312D",
"6 c #39352E",
"7 c #353531",
"8 c #383632",
"9 c #3A3936",
"0 c #3C3C3A",
"q c #44321D",
"w c #4B361C",
"e c #4E381D",
"r c #533A1E",
"t c #5B3F1F",
"y c #423322",
"u c #4D3A23",
"i c #423628",
"p c #4A3C2B",
"a c #543C22",
"s c #5B3E20",
"d c #523F28",
"f c #423C34",
"g c #413E3A",
"h c #61421F",
"j c #4E402B",
"k c #5D4121",
"l c #53422E",
"z c #5F462D",
"x c #42413E",
"c c #484138",
"v c #554637",
"b c #5B4834",
"n c #5F4F3B",
"m c #634322",
"M c #6B4724",
"N c #6E4924",
"B c #604429",
"V c #724B26",
"C c #724F2B",
"Z c #7B5427",
"A c #74532A",
"S c #7B592A",
"D c #6E5636",
"F c #6D5A3A",
"G c #765E35",
"H c #444442",
"J c #484744",
"K c #4D4A43",
"L c #4D4D4B",
"P c #504F4D",
"I c #565552",
"U c #585857",
"Y c #5C5C5B",
"T c #6B5A49",
"R c #766340",
"E c #656564",
"W c #696867",
"Q c #805A28",
"! c #8D662B",
"~ c #90682C",
/* pixels */
"                                                                ",
"                                                                ",
"                                                                ",
"                                                                ",
"                                                                ",
"                                                                ",
"                                                                ",
"                                                                ",
"                                                                ",
"                                                                ",
"                                                                ",
"                                                                ",
"                                                                ",
"                                                                ",
"                                                                ",
"                                                                ",
"                                                                ",
"                                                                ",
"                                                                ",
"                                                                ",
"                                                                ",
"                                                                ",
"                                                                ",
"                                                                ",
"                                                                ",
"                                                                ",
"                                                                ",
"                                                                ",
"                                                                ",
"                                                                ",
"                                                                ",
"                                                                ",
"                                                          $     ",
"                                                      C wq$     ",
"                                                    MVVMw>@     ",
"                                                VVVVVMmmq:=     ",
"                                            d kNNMNMksrr,$      ",
"                                        < 83qesmmmktrwww-@      ",
"                                       09H5<:wrssrrwqqq>%#      ",
"                                      EUx72*=,q,,4>:::>-#=      ",
"                                     WJ993-$%=*$%%*#*$*@#       ",
"                                   YP32661==%O.oXOo#O+o.#       ",
"                                 0JJ7088553=#.o&       %        ",
"                               9H800f99070<< %+                 ",
"                             53<97990xJ0-<2                     ",
"                           9f4<9x57HJL 031                      ",
"                         Jgzmy739gLI                            ",
"                       JKDZmty22vT                              ",
"                     JKG~Akrku                                  ",
"                    IF!Amtarw                                   ",
"                  KR!Shreura                                    ",
"                xn!SNkrwea                                      ",
"              HvCZkrewea                                        ",
"            L0BMsteewa                                          ",
"          x91;mrrwwa                                            ",
"        J9<=5imseel                                             ",
"      H02%&336twj                                               ",
"    602%  &=1 p                                                 ",
"    -%                                                          ",
"                                                                ",
"                                                                ",
"                                                                ",
"                                                                ",
"                                                                "
};
