/* XPM */
static char *_1684360478[] = {
/* columns rows colors chars-per-pixel */
"64 64 69 1 ",
"  c None",
". c #040403",
"X c #0B0B0A",
"o c #12100F",
"O c #161412",
"+ c #191714",
"@ c #1C1915",
"# c #1D1C19",
"$ c #231D16",
"% c #211E1A",
"& c #262017",
"* c #2A2116",
"= c #24211E",
"- c #2D241A",
"; c #352A1B",
": c #382B1C",
"> c #262522",
", c #292622",
"< c #2C2A26",
"1 c #2E2D29",
"2 c #322D25",
"3 c #302D28",
"4 c #31312E",
"5 c #3A352C",
"6 c #353432",
"7 c #393632",
"8 c #3B3A36",
"9 c #3C3C3A",
"0 c #44321C",
"q c #4C371D",
"w c #4F381C",
"e c #533A1E",
"r c #593D1E",
"t c #4C3720",
"y c #4B3A24",
"u c #473928",
"i c #493A29",
"p c #533C23",
"a c #5A3E21",
"s c #523E28",
"d c #423C35",
"f c #4A3E31",
"g c #413F3B",
"h c #5E401F",
"j c #5F4123",
"k c #554129",
"l c #4F4133",
"z c #42413F",
"x c #524436",
"c c #574837",
"v c #5B4C3A",
"b c #644323",
"n c #6C4724",
"m c #6E4A26",
"M c #734B25",
"N c #795527",
"B c #795328",
"V c #7D5B2C",
"C c #64543B",
"Z c #68593F",
"A c #444442",
"S c #484846",
"D c #4D4C4A",
"F c #504F4E",
"G c #52514F",
"H c #545452",
"J c #6C5D42",
"K c #695948",
"L c #825C2A",
/* pixels */
"                                                                ",
"                                                                ",
"                                                                ",
"                                                                ",
"                                                                ",
"                                                                ",
"                                                                ",
"                                                                ",
"                                                                ",
"                                                                ",
"                                                                ",
"                                                                ",
"                                                                ",
"                                                                ",
"                                                                ",
"                                                                ",
"                                                                ",
"                                                                ",
"                                                                ",
"                                                                ",
"                                                                ",
"                                                                ",
"                                                                ",
"                                                                ",
"                                                                ",
"                                                                ",
"                                                                ",
"                                                                ",
"                                                                ",
"                                                                ",
"                                                                ",
"                                                                ",
"                                                                ",
"                                                                ",
"                                                                ",
"                                                                ",
"                                                                ",
"                                                                ",
"                                                                ",
"                                        Hz6                     ",
",7769666696dxxcvCJJJCCCCCcxlf5136z9SHHHGDDzz84>b                ",
"#++##+##%>>pbbnBVVLLLLVLVBmbbe,,3969z83127d4<,%0ejnMMM          ",
"       #>61japrrerrrjeeaaaaprr<689169dd9577<=&+-qeajbnMMMMMM    ",
"       >#><aarqqqqqqqqqqwweprp<,19899A99984<,@@#;0qajbbbbbnmhq0&",
"           siuysssskskssskksu    CKHHFSSAz649%=+O$*;0tpweeehr0:$",
"                                         9=> #=X...O@*:000qeq:-%",
"                                          9>#8  X.oXXO@$-;000-+ ",
"                                                 OO  XXX@$-;-@+ ",
"                                                        +X+$++O ",
"                                                          XX.X  ",
"                                                            +#  ",
"                                                                ",
"                                                                ",
"                                                                ",
"                                                                ",
"                                                                ",
"                                                                ",
"                                                                ",
"                                                                ",
"                                                                ",
"                                                                ",
"                                                                ",
"                                                                ",
"                                                                "
};
