/* XPM */
static char *_1684360478[] = {
/* columns rows colors chars-per-pixel */
"64 64 82 1 ",
"  c None",
". c #060605",
"X c #0D0C0B",
"o c #100F0D",
"O c #14130F",
"+ c #161513",
"@ c #191511",
"# c #1D1915",
"$ c #1D1B19",
"% c #221D16",
"& c #211F1B",
"* c #262017",
"= c #282017",
"- c #24221D",
"; c #2C2419",
": c #30261A",
"> c #362A1B",
", c #3C2D1C",
"< c #252422",
"1 c #282623",
"2 c #2B2A26",
"3 c #2D2C2A",
"4 c #312B23",
"5 c #392F25",
"6 c #312F2C",
"7 c #33312D",
"8 c #39352F",
"9 c #353432",
"0 c #393734",
"q c #3A3935",
"w c #3D3C3A",
"e c #45331D",
"r c #4B361D",
"t c #4E381E",
"y c #533A1E",
"u c #423322",
"i c #4A3723",
"p c #4C3A23",
"a c #40372C",
"s c #533C23",
"d c #5A3E21",
"f c #523E28",
"g c #433D36",
"h c #5E4122",
"j c #53402A",
"k c #4B4136",
"l c #42413F",
"z c #49433A",
"x c #524435",
"c c #5E4A33",
"v c #504639",
"b c #574D3E",
"n c #5A4D3B",
"m c #5C513E",
"M c #634423",
"N c #6A4623",
"B c #674923",
"V c #6D4925",
"C c #61472B",
"Z c #724B25",
"A c #714C28",
"S c #735026",
"D c #795527",
"F c #74552D",
"G c #785628",
"H c #76592F",
"J c #6B5636",
"K c #63553D",
"L c #6E5A3A",
"P c #795C33",
"I c #444442",
"U c #484643",
"Y c #484845",
"T c #4C4B4A",
"R c #5F5646",
"E c #51504F",
"W c #555553",
"Q c #585755",
"! c #5A5958",
"~ c #675746",
"^ c #695B43",
"/ c #805A29",
/* pixels */
"                                                                ",
"                                                                ",
"                                                                ",
"                                                                ",
"                                                                ",
"                                                                ",
"                                                                ",
"                                                                ",
"                                                                ",
"                                                                ",
"                                                                ",
"                                                                ",
"                                                                ",
"                                                                ",
"                                                                ",
"                                                                ",
"                                                                ",
"                                                                ",
"                                                                ",
"                                                                ",
"                                                                ",
"                                                                ",
"                                                                ",
"  -90                                                           ",
"   $29l                                                         ",
"     $399                                                       ",
"       $19wl                                                    ",
"        $-39gz                                                  ",
"       <<231fxvk                                                ",
"        <<3syMCcnb                                              ",
"          5dMdMAFL^R                                            ",
"           fyyyyBHPLKb                                          ",
"            ipttyyA/PJKm                                        ",
"              sfytyyBGHJKv                                      ",
"                fsytyyBDFcxg                                    ",
"                  ffttyyBVCfa7                                  ",
"                    ffttydddi339                                ",
"                      fjsyydu239ww                              ",
"                        ffss479qqwTW                            ",
"                             29w6wITW!!Tw                       ",
"                              kg00wq7lTTq                       ",
"                               ~Uwglq77lzI                      ",
"                                 EYww0800096                    ",
"                                   Ylw096211uh                  ",
"                                     l972-$$es                  ",
"                                     q377-#%,yhV                ",
"                                     w139-%$>tyBZZ              ",
"                                      1&2$#+%,yhMVA             ",
"                                           .X%,sMVZZ            ",
"                                           X..%,tdMVZZ          ",
"                                           oXoO#>rddBVZ         ",
"                                            +  +%,rtyhZh        ",
"                                               X@%>etdhyr,      ",
"                                                X+=>etyee:=     ",
"                                                 +@=,ee>;%      ",
"                                                  X%;;=##       ",
"                                                   o@##+        ",
"                                                    .X+@        ",
"                                                    $+          ",
"                                                                ",
"                                                                ",
"                                                                ",
"                                                                ",
"                                                                "
};
