/* XPM */
static char *_1684360478[] = {
/* columns rows colors chars-per-pixel */
"64 64 248 2 ",
"   c None",
".  c #020202",
"X  c gray1",
"o  c #040404",
"O  c #050504",
"+  c gray3",
"@  c #0A0A09",
"#  c #0B0A09",
"$  c #0C0B0A",
"%  c #0C0C0B",
"&  c #0C0C0C",
"*  c #0D0C0C",
"=  c #0F0D0C",
"-  c #12100F",
";  c #131211",
":  c #151412",
">  c #151413",
",  c #161412",
"<  c #171512",
"1  c #151515",
"2  c #181613",
"3  c #191613",
"4  c #1C1712",
"5  c #191714",
"6  c #181717",
"7  c #1A1916",
"8  c #1D1915",
"9  c #1D1A15",
"0  c #1F1A14",
"q  c #1C1916",
"w  c #1E1B17",
"e  c #1A1A19",
"r  c #1C1A18",
"t  c #1D1B18",
"y  c #1D1B19",
"u  c #1E1C19",
"i  c #1E1D1A",
"p  c #201B15",
"a  c #231D15",
"s  c #221D16",
"d  c #201D18",
"f  c #231E19",
"g  c #211E1A",
"h  c #221F1B",
"j  c #262017",
"k  c #2A2116",
"l  c #22201D",
"z  c #23201E",
"x  c #23211E",
"c  c #24211C",
"v  c #24221F",
"b  c #27241F",
"n  c #2B2218",
"m  c #2B231A",
"M  c #2D241A",
"N  c #2D251A",
"B  c #2D251B",
"V  c #2F251A",
"C  c #35291B",
"Z  c #362A1B",
"A  c #362A1C",
"S  c #382B1B",
"D  c #382B1C",
"F  c #262521",
"G  c #272521",
"H  c #262523",
"J  c #282520",
"K  c #292621",
"L  c #2A2722",
"P  c #282624",
"I  c #292724",
"U  c #2A2824",
"Y  c #2A2825",
"T  c #2B2A26",
"R  c #2D2B27",
"E  c #2D2C27",
"W  c #2F2C27",
"Q  c #2D2B28",
"!  c #2D2C28",
"~  c #2E2D29",
"^  c #2F2D29",
"/  c #2E2E2A",
"(  c #2F2E2C",
")  c #302D28",
"_  c #31302C",
"`  c #31312D",
"'  c #32312F",
"]  c #32322E",
"[  c #3B3328",
"{  c #39362F",
"}  c #343330",
"|  c #343331",
" . c #343332",
".. c #353431",
"X. c #353432",
"o. c #363533",
"O. c #373734",
"+. c #3A3630",
"@. c #383735",
"#. c #3C3933",
"$. c #3F3A33",
"%. c #383836",
"&. c #393937",
"*. c #3C3A37",
"=. c #3E3B36",
"-. c #3A3A38",
";. c #3B3A38",
":. c #3B3B39",
">. c #3C3B38",
",. c #3C3C3A",
"<. c #3C3C3B",
"1. c #3D3D3B",
"2. c #3E3E3B",
"3. c #3F3F3E",
"4. c #40301B",
"5. c #40301C",
"6. c #43311C",
"7. c #45331C",
"8. c #45331E",
"9. c #47351D",
"0. c #47341E",
"q. c #4D361B",
"w. c #49351C",
"e. c #4B361D",
"r. c #4D371C",
"t. c #4C371D",
"y. c #4D371D",
"u. c #4E371C",
"i. c #4C371E",
"p. c #4E381C",
"a. c #4F381C",
"s. c #4F381D",
"d. c #52391C",
"f. c #53391C",
"g. c #52391D",
"h. c #533A1D",
"j. c #50391E",
"k. c #523A1E",
"l. c #533B1E",
"z. c #563B1D",
"x. c #543B1E",
"c. c #553B1E",
"v. c #543B1F",
"b. c #563C1F",
"n. c #583C1E",
"m. c #583D1E",
"M. c #4C3720",
"N. c #4F3920",
"B. c #493A25",
"V. c #483A27",
"C. c #493A29",
"Z. c #503921",
"A. c #533A20",
"S. c #523B20",
"D. c #543A21",
"F. c #553D21",
"G. c #563C20",
"H. c #553D23",
"J. c #523E25",
"K. c #503D27",
"L. c #513D27",
"P. c #513E27",
"I. c #583D20",
"U. c #593E21",
"Y. c #5A3E20",
"T. c #5B3E20",
"R. c #593E22",
"E. c #5A3F23",
"W. c #5C3F20",
"Q. c #5D3F20",
"!. c #513E28",
"~. c #523E28",
"^. c #543F28",
"/. c #453D34",
"(. c #4A3E31",
"). c #423E38",
"_. c #403F3E",
"`. c #5E401F",
"'. c #5E4020",
"]. c #5F4225",
"[. c #554028",
"{. c #54412A",
"}. c #55412A",
"|. c #40403E",
" X c #40403F",
".X c #45433F",
"XX c #524333",
"oX c #514437",
"OX c #544637",
"+X c #574837",
"@X c #594A38",
"#X c #5C4E3B",
"$X c #604120",
"%X c #624221",
"&X c #604122",
"*X c #604223",
"=X c #634323",
"-X c #644321",
";X c #654423",
":X c #664423",
">X c #664523",
",X c #634424",
"<X c #654424",
"1X c #664524",
"2X c #6B4723",
"3X c #6C4724",
"4X c #6F4925",
"5X c #6F4C27",
"6X c #704923",
"7X c #714A25",
"8X c #724A25",
"9X c #724B27",
"0X c #744B25",
"qX c #754C25",
"wX c #764D25",
"eX c #795527",
"rX c #795328",
"tX c #7E5928",
"yX c #7C5A2B",
"uX c #7B5A2D",
"iX c #7F5D2E",
"pX c #675039",
"aX c #64543B",
"sX c #64553B",
"dX c #61533D",
"fX c #65563C",
"gX c #68593F",
"hX c #434240",
"jX c #454543",
"kX c #484845",
"lX c #484846",
"zX c #484847",
"xX c #4C4B49",
"cX c #4D4D4B",
"vX c #504F4E",
"bX c #51514F",
"nX c #52514F",
"mX c #525251",
"MX c #545351",
"NX c #545452",
"BX c #545453",
"VX c #555554",
"CX c #6B5C40",
"ZX c #695948",
"AX c #805B28",
"SX c #805A29",
"DX c #855E29",
"FX c #835D2D",
/* pixels */
"                                                                                                                                ",
"                                                                                                                                ",
"                                                                                                                                ",
"                                                                                                                                ",
"                                                                                                                                ",
"                                                                                                                                ",
"                                                                                                                                ",
"                                                                                                                                ",
"                                                                                                                                ",
"                                                                                                                                ",
"                                                                                                                                ",
"                                                                                                                                ",
"                                                                                                                                ",
"                                                                                                                                ",
"                                                                                                                                ",
"                                                                                                                                ",
"                                                                                                                                ",
"                                                                                                                                ",
"                                                                                                                                ",
"                                                                                                                                ",
"                                                                                                                                ",
"                                                                                                                                ",
"                                                                                                                          K     ",
"                                                                                                                      X.X.K     ",
"                                                                                                                  1.X.X.7 i     ",
"                                                                                                              | X.7 7 7         ",
"                                                                                                          X.X.y y 7             ",
"                                                                                                      /.X.P h i                 ",
"                                                                                                  OXoXA.v P F F H               ",
"                                                                                              #X@X;X;X-X]./ z z                 ",
"                                                                                          CXgXtXeXh.F.W.E.Y                     ",
"                                                                                      sXCXFXuXb.b.h.z.E.C.!.                    ",
"                                                                                  fXpXFXDXb.d.d.a.q.B.B.                        ",
"                                                                              sXfXtXtXb.'.'.t.a.P.P.                            ",
"                                                                          XX@XrXSXh.h.h.s.t.B.}.                                ",
"                                                                      [ (.-X5XE.E.a.t.t.[.[.                                    ",
"                                                                  ( / A.%XA.E.s.l.t.!.!.                                        ",
"                                                              1. .P K A.D.n.D.l.}.!.                                            ",
"                                                        BXzX#.] 1.:.X.E F.n.P.}.                                                ",
"                                                mX  NXVXBXhX<.] <.Q Y Y                                                         ",
"                                            | ] cXxXnX) =.=.@.#.#.pX                                                            ",
"                                            1..XcXR / ).).1.1.VXZXpX                                                            ",
"                                        ( #.hX=.=.+.{ 1.1.vXmXVX                                                                ",
"                                    *X*Xh b R R | #.:.lXlXlX                                                                    ",
"                                    d.9.g g F R ] } _.jX                                                                        ",
"                                3Xm.z.M 5 7 9 >.} v :.                                                                          ",
"                            8X6X6XE.l.C s z h   K z 1.                                                                          ",
"                            8X1X%Xt.9.> 5 z h i i v                                                                             ",
"                        wX8X2XE.E.k k . X %   @.                                                                                ",
"                    wXwX0X1X*Xt.7.> O . *                                                                                       ",
"                8X9X8X*X*Xl.A.m 9 2 - - ;                                                                                       ",
"                  8X1Xl.h.5.D 9 > @   >                                                                                         ",
"              q.m.%X%Xt.w.M p 9 $                                                                                               ",
"          j j D 7.t.s.5.A M $ $                                                                                                 ",
"            s V S 5.w.w.n 9 1                                                                                                   ",
"            f   2 M M C 4 *                                                                                                     ",
"                2 p 9 a @ @                                                                                                     ",
"                  > * o                                                                                                         ",
"                    e 5                                                                                                         ",
"                                                                                                                                ",
"                                                                                                                                ",
"                                                                                                                                ",
"                                                                                                                                ",
"                                                                                                                                "
};
