/* XPM */
static char *_1684222405[] = {
/* columns rows colors chars-per-pixel */
"64 64 146 2 ",
"   c black",
".  c #0B0B0B",
"X  c #0C0C0C",
"o  c #0E0E0E",
"O  c gray6",
"+  c #111111",
"@  c gray7",
"#  c #131313",
"$  c gray8",
"%  c #151515",
"&  c #161616",
"*  c gray9",
"=  c #181818",
"-  c #191919",
";  c gray10",
":  c #1B1B1B",
">  c gray11",
",  c #1D1D1D",
"<  c #1E1E1E",
"1  c gray12",
"2  c #202020",
"3  c gray13",
"4  c #222222",
"5  c #232323",
"6  c gray14",
"7  c #252525",
"8  c gray15",
"9  c #272727",
"0  c #282828",
"q  c gray16",
"w  c #2A2A2A",
"e  c gray17",
"r  c #2C2C2C",
"t  c #2D2D2D",
"y  c gray18",
"u  c #2F2F2F",
"i  c gray19",
"p  c #313131",
"a  c #323232",
"s  c gray20",
"d  c #343434",
"f  c #353535",
"g  c gray21",
"h  c #373737",
"j  c gray22",
"k  c #393939",
"l  c #3A3A3A",
"z  c gray23",
"x  c #3C3C3C",
"c  c gray24",
"v  c #3E3E3E",
"b  c #3F3F3F",
"n  c gray25",
"m  c #414141",
"M  c gray26",
"N  c #434343",
"B  c #444444",
"V  c gray27",
"C  c #464646",
"Z  c gray28",
"A  c #484848",
"S  c #494949",
"D  c gray29",
"F  c #4B4B4B",
"G  c #4C4C4C",
"H  c gray30",
"J  c #4E4E4E",
"K  c gray31",
"L  c #505050",
"P  c #515151",
"I  c gray32",
"U  c #535353",
"Y  c gray33",
"T  c #555555",
"R  c #565656",
"E  c gray34",
"W  c #585858",
"Q  c gray35",
"!  c #5A5A5A",
"~  c #5B5B5B",
"^  c gray36",
"/  c #5D5D5D",
"(  c gray37",
")  c #606060",
"_  c gray38",
"`  c #626262",
"'  c gray39",
"]  c #646464",
"[  c gray40",
"{  c #676767",
"}  c #686868",
"|  c DimGray",
" . c #6A6A6A",
".. c gray42",
"X. c #6C6C6C",
"o. c #6D6D6D",
"O. c gray44",
"+. c #717171",
"@. c #727272",
"#. c gray45",
"$. c #747474",
"%. c gray46",
"&. c #767676",
"*. c #777777",
"=. c gray47",
"-. c #797979",
";. c gray48",
":. c #7B7B7B",
">. c gray49",
",. c #7E7E7E",
"<. c gray50",
"1. c #808080",
"2. c #818181",
"3. c gray51",
"4. c #838383",
"5. c #848484",
"6. c gray52",
"7. c #868686",
"8. c gray53",
"9. c #888888",
"0. c gray54",
"q. c #8B8B8B",
"w. c gray55",
"e. c #8E8E8E",
"r. c gray56",
"t. c #909090",
"y. c gray57",
"u. c #929292",
"i. c #939393",
"p. c gray58",
"a. c #959595",
"s. c gray59",
"d. c #979797",
"f. c #989898",
"g. c gray60",
"h. c #9A9A9A",
"j. c #9B9B9B",
"k. c gray61",
"l. c #9D9D9D",
"z. c gray62",
"x. c #9F9F9F",
"c. c #A0A0A0",
"v. c gray63",
"b. c gray64",
"n. c #A4A4A4",
"m. c #A5A5A5",
/* pixels */
"G n - & 5 y B G F F 5 L y y - & 5 y B G F F 5 L y z F 5 + 5 8 x G G G 8 G x y G y + , 8 z B G G z f G L y & - 8 f F G G z f F 8 ",
"8 5 - , a z n B B n , w , , - , a z n B B n , w , 5 8 - , 8 z n B n n w 8 8 , w , - 5 a n B B n f 5 w w , - 8 a n n n B f 5 8 - ",
"5 8 w a a a a a f a y x a 5 w a a a a a f a y x a 5 8 8 a a a a a a a a a x 8 8 8 y a a a a a a a w z 8 5 y a a a a a a a w n y ",
"z F y f f f f f f f a | n f y f f f f f f f a | n 8 ( y f f f f f f f f F ` 8 R f a f f f f f f f y | L f a f f f f f f f y $.f ",
"      & 8 8 - &             + - + O             & , w - &             & 8 8 - &             - , + O             & , y - &       ",
"      5 B f ,               & w + O               a F 8 -             5 n f ,               w L 5 &               a F 8 -       ",
"      5 $.! a               - n , 5               G :.f w             8 $.! a               z 6.f y               G $.f y       ",
"      8 e.#.f               5 ` G f               ` e.n a             8 e.#.f               n x.G f               ` e.B y       ",
"      5 d.1.x               z d.` f               ] d.R y             8 d.1.x               B c.` f               | d.R y       ",
"      5 c.e.B y             G m.o.x             8 #.f.( y             5 c.0.B y             G m.o.x             8 $.f.( y       ",
"- , w w x.6.f y f x ] | | | G m.` y a f F ] | | L $.d.L w a z R | | | z c.6.f y f x ] | | | G c.` y a f F ] | | L $.f.L w a f ! ",
"5 y B f o.] f a ! :.f.f.f.f.n $.G y n ( 0.f.f.f.$.L #.n y F o.i.f.f.f.L o.] f a ! :.f.f.f.f.n :.G y n ( e.f.f.f.$.L #.n y F o.i.",
"8 8 5 x F F n F F F F G G F B L B F F F F F F G G n L n F F F F F F F F B F B F G F G F F F B G n B G G F F F F F B L n F F F F ",
"& - - y F ` y f f f f f f f a | n a f f f f f f f a $.z f f f f f f f f F ` y f f f f f f f a | B a f f f f f f f a $.f f f f y ",
". . O & , , & & & - & & - & - 5 - & - & & - & & - - 5 - & - - & & - & & , , - & & - & & & - - 5 - & - & - & & & & - 5 & & & & & ",
"      5 a y -               5 x , &               5 z , +             5 a y -               5 x , &               8 z , &       ",
"      8 o.G a               z $.f w               G | f w             5 o.G a               f :.f y               G | f w       ",
"      5 6.o.a               x d.B a               ! 0.x y             5 0.o.a               x d.B a               ! 0.x y       ",
"      5 d.>.x               B x.( f               | i.G y             8 d.:.x               B x.! f               ] d.L y       ",
"      8 f.e.n               F m.| z               #.f.( y             5 x.0.n               F m.| z               #.f.! y       ",
"- - w w c.6.z w f z ` | | | G m.` a a f F ] | | R #.d.L w a f R | | | z c.6.z y f x ` | | | G m.` a a f F ] | | L #.d.L w a f ! ",
"5 a B f o.] f a ! :.f.f.f.f.n $.F y n ( 0.f.f.f.$.L #.n y F #.i.f.f.f.L o.` a a ( :.f.f.f.f.n $.F y n ( e.f.f.d.$.L #.n y F o.i.",
"8 w y x z w n F R ! ! ! ! ! B a a B G ! ! ! ! ! R n w z B G ! ! ! ! ! G z w n F R ! ! ! ! ! B a a n G ! ! ! ! ! R n w z F G ! ! ",
", , 5 f G $.a x n n n n n x z $.G z n n x n n n x a 0.x n n n n x n n n L $.a n x n n x n x z #.L z n n x n n n n a 0.x n n x z ",
"O O + - 8 w , , , , , , , , , y 5 , , , , , , , , , a , , , , , , , , , 8 w , , , , , , , , , y 5 , , , , , , , , , a , , , , - ",
"      - a y &               , z , &               5 z , +             - a w -               , z , &               5 z , +       ",
"      8 R x 8               a ( 8 5               x L w ,             8 R x 8               a ` 8 5               x L w ,       ",
"      8 1.| a               x d.n a               R 6.x a             8 1.| a               x i.n a               R 0.x a       ",
"      8 i.>.x               B c.( f               | i.G y             5 d.>.x               B x.( f               ] d.G y       ",
"      8 x.0.n               G c.| z               #.f.! a             8 f.0.B               F m.| z               #.f.! y       ",
"& - z a x.6.n w y y B B B F F m.] f w y z B B F z $.f.! y y y x B F B a x.0.x y y a B B B F G m.] f w y z n F B x $.d.! w y y n ",
", 8 1.G i.1.f y G o.x.x.c.c.B x.( w z L 1.x.c.c.$.| d.G 8 n ( e.x.x.x.F d.1.a y G | x.x.x.x.B c.( w z L 1.x.x.c.$.| d.G 8 n ` i.",
"8 a | G a w z n ( ] | ] ] | x a a x F ` | ] | ] ! z w a B L ] ] ] | ] L a w z B ( ] | ] | ] x a y x G ` ] | ] | ! z w a B L | ] ",
"5 8 F F G | x F G F F F G G B ] L n F F G F G F F x $.B G G G F F F F F G | x F F F F F G G B ] L B F G F F G G F z $.n F F G G ",
"+ + 8 5 f x 8 5 8 5 8 5 8 5 8 B w 8 8 5 8 5 8 5 8 5 F 8 8 5 8 8 8 8 5 8 f z 8 5 8 5 5 8 8 8 5 B w 8 8 5 8 5 5 8 8 5 F w 5 8 8 5 ",
"      - 8 8 - &             - w - &             & , w - &             & 8 8 & &             - y - &             & , w - &       ",
"      8 R x 8               a ` w 5               x R w ,             5 R x 8               a ( 8 5               x L w ,       ",
"      5 >.| a               x i.n a               R 6.z y             5 >.| a               x i.n a               R 0.x y       ",
"      8 i.$.z               B x.L f               ` e.F y             8 i.$.z               n x.L a               ] i.B y       ",
"      5 f.0.x               F c.| f               o.f.! y             5 d.0.n               F c.| z               o.f.! y       ",
"+ + 8 5 c.e.B w 8 8 8 5 5 8 G m.o.x 5 5 5 5 5 5 8 #.f.( y 8 8 8 8 5 5 5 c.e.B w 8 8 5 5 8 5 F m.o.x 5 5 5 5 8 5 8 #.f.` y 8 8 5 ",
", 8 $.F f.1.a y B ! e.d.d.d.G c.( w z F #.i.d.d.#.o.d.G 8 x L 1.d.d.d.F f.1.a y B ! e.d.d.d.F c.( 8 z F o.i.d.d.o.o.d.G 8 x L 6.",
"5 a >.L F F a z ` $.6.6.6.6.z L z a B ] 1.6.6.6.o.n G f z G #.1.6.6.6.L G F a z ( :.6.6.6.6.x L z a B | 1.6.6.6.o.n G f z G $.6.",
"8 8 G F B G n F F F F F F F B G n F F F F F F F G B L n F F F F G F F F B F n F F F G G F F F G B B F F F G F F G B L B F F F F ",
"+ + 8 5 f z 8 5 8 5 5 8 5 8 8 B w 8 5 8 8 8 5 5 8 5 F w 5 8 5 8 8 5 8 5 f z 5 8 5 8 8 5 5 8 8 B w 8 5 5 8 8 5 8 5 8 F 8 5 8 5 5 ",
"      & 8 8 & &             - y - &             - , w - &             & 8 8 - &             - y , &             & , w - &       ",
"      8 B f ,               w L 5 ,               a F 8 -             5 n f 5               w L 5 ,               a F 5 -       ",
"      8 $.! a               z 1.z y               G $.f w             8 $.! y               z 1.z y               G :.f w       ",
"      8 e.#.f               B x.G a               ` e.B y             5 i.$.f               B f.G a               ` e.n a       ",
"      8 d.1.x               B x.` f               | d.R y             5 d.1.x               B x.` f               | d.R w       ",
"      8 c.e.B y             G m.o.z             8 $.f.( a             8 x.0.n y             G m.o.x             8 $.f.( y       ",
"- - G z c.6.f w f x ] | | | F m.` y a z F ] | | L #.d.L w a z R | | | z x.6.z w z x ] | | | F m.` y a f G ] | | L #.f.L w a z ( ",
"5 a 1.L G F a z ( :.6.6.6.6.x L x f B ] 1.6.6.6.o.n G f z G #.1.6.6.6.L F B f z ( :.6.6.6.6.x L z a B | >.6.6.6.o.B G z f G $.6.",
"8 8 F F B F B F F F G F F F F G B B F F G G G F F B L B G G F F G F G G B F B F G F F F F F F G n F F G G G F F F B G n G F F F ",
"- - f f F ` y f f f f f f f a | n a f f f f f f f y $.f f f f f f f f f F ` y f f f f f f f a | n a f f f f f f f y $.f f f f f ",
". . - & , , - & & & - & & & - 5 - - & & - & & - & - 5 - & & - & - & & - 5 , & & & - & & & - - 5 - - & & - & & - - - 5 - & & - & ",
"      , #.| a               z >.G w               L :.B 5             5 #.| a               f >.G w               L $.B 8       ",
"      5 :.:.y               z 0.! 5               L 0.F +             5 $.:.y               z e.! 5               L e.G +       ",
"      8 | $.w               f >.R ,               F 6.B +             5 o.$.w               f >.R ,               F 6.B +       ",
"      5 ` #.5               a #.L -               x >.x O             8 ` o.5               a #.L &               x :.x O       ",
"      8 L R ,               y ` f -               z ` w &             5 L R ,               y ` z -               z ` w &       ",
"      8 F L -               w ! z -               a ( y &             8 F L ,               w R z -               a ( y &       ",
"        y B -                 z f                 5 n w                 a n -                 z f                 8 n w         ",
"          8                     5                   w 5                   8                     5                   w 5         "
};
