/* XPM */
static char *_1684222404[] = {
/* columns rows colors chars-per-pixel */
"64 64 146 2 ",
"   c black",
".  c gray3",
"X  c #0B0B0B",
"o  c #0C0C0C",
"O  c gray5",
"+  c #0E0E0E",
"@  c gray6",
"#  c #101010",
"$  c #111111",
"%  c gray7",
"&  c #131313",
"*  c #151515",
"=  c #161616",
"-  c gray9",
";  c #181818",
":  c #191919",
">  c gray10",
",  c #1B1B1B",
"<  c gray11",
"1  c #1D1D1D",
"2  c #1E1E1E",
"3  c gray12",
"4  c #202020",
"5  c gray13",
"6  c #222222",
"7  c #232323",
"8  c gray14",
"9  c #252525",
"0  c gray15",
"q  c #272727",
"w  c #282828",
"e  c gray16",
"r  c #2A2A2A",
"t  c gray17",
"y  c #2C2C2C",
"u  c #2D2D2D",
"i  c gray18",
"p  c #2F2F2F",
"a  c gray19",
"s  c #313131",
"d  c #323232",
"f  c gray20",
"g  c #353535",
"h  c gray21",
"j  c #373737",
"k  c gray22",
"l  c #393939",
"z  c #3A3A3A",
"x  c gray23",
"c  c #3C3C3C",
"v  c gray24",
"b  c #3E3E3E",
"n  c #3F3F3F",
"m  c gray25",
"M  c #414141",
"N  c gray26",
"B  c #434343",
"V  c #444444",
"C  c gray27",
"Z  c #464646",
"A  c gray28",
"S  c #484848",
"D  c #494949",
"F  c gray29",
"G  c #4B4B4B",
"H  c #4C4C4C",
"J  c gray30",
"K  c #4E4E4E",
"L  c gray31",
"P  c #505050",
"I  c #515151",
"U  c gray32",
"Y  c #535353",
"T  c gray33",
"R  c #555555",
"E  c #565656",
"W  c gray34",
"Q  c #585858",
"!  c gray35",
"~  c #5A5A5A",
"^  c #5B5B5B",
"/  c gray36",
"(  c #5D5D5D",
")  c gray37",
"_  c #5F5F5F",
"`  c #606060",
"'  c gray38",
"]  c #626262",
"[  c gray39",
"{  c #646464",
"}  c gray40",
"|  c #676767",
" . c #686868",
".. c DimGray",
"X. c #6A6A6A",
"o. c gray42",
"O. c #6C6C6C",
"+. c #6D6D6D",
"@. c gray44",
"#. c #717171",
"$. c gray45",
"%. c #747474",
"&. c gray46",
"*. c #767676",
"=. c gray47",
"-. c #797979",
";. c gray48",
":. c #7C7C7C",
">. c gray49",
",. c #7E7E7E",
"<. c gray50",
"1. c #808080",
"2. c #818181",
"3. c gray51",
"4. c #838383",
"5. c #848484",
"6. c gray52",
"7. c #868686",
"8. c gray53",
"9. c #888888",
"0. c gray54",
"q. c #8B8B8B",
"w. c #8D8D8D",
"e. c #8E8E8E",
"r. c gray56",
"t. c #909090",
"y. c gray57",
"u. c #929292",
"i. c #939393",
"p. c gray58",
"a. c #959595",
"s. c gray59",
"d. c #979797",
"f. c #989898",
"g. c gray60",
"h. c #9A9A9A",
"j. c #9B9B9B",
"k. c gray61",
"l. c #9D9D9D",
"z. c gray62",
"x. c #9F9F9F",
"c. c #A0A0A0",
"v. c gray63",
"b. c gray64",
"n. c #A4A4A4",
"m. c #A5A5A5",
/* pixels */
"      @ 6 , %               - 8 % @               , 8 % @             % 6 , %               % e % @               , 8 % %       ",
"      % z y -               2 B , ,               8 z , -             % z y ,               , B , -               8 z , -       ",
"      % A z 8               y  .g 6               s A e 2             , ) H 6               6 H e 6               B ) y 2       ",
"      2 :.O.n               A x.` g               ~ :.H y             8 s.2.n               z 7.E g                .s.E y       ",
"- % % 6 c.0.A e 8 8 8 8 8 8 H m. .n 6 6 8 8 8 8 8 *.h.) s 6 8 8 8 8 8 8 c.0.A e 8 8 8 6 8 8 H m.O.n 6 8 8 8 8 8 8 *.h.) s 8 8 8 ",
"2 8 z s h.2.s y A ~ t.s.s.s.F c.) e z F $.t.s.s.$.O.s.H 8 n E :.s.s.s.F h.2.s y A ~ w.h.s.s.F c.) e z F $.t.s.s.$.O.s.H 8 n I 2.",
"6 g n z H A s z ` =.7.7.7.7.n H z g A } :.0.7.7. .B H g z H *.2.7.7.7.I F A g z ` =.7.7.7.7.z I z s A } :.7.7.7. .B I g z H $.2.",
"8 8 8 n A F A F F F F H F F F H B A F H F F H F H A H B F H F H F H F F A F A F F H F H F F F H B A F F H H H F F A H B F H F H ",
"- , , y H ` y g g g g g g g s  .B y g g g g g g g y *.g g g g g g g g g F ` y g g g g g g g s  .B s g g g s g s g y *.g g g g y ",
"X X @ - 2 2 - - - , - - - - , 6 , , - - - - - - , , 2 , - - - - , - - - 6 2 , - - - - - - - , 6 , - - - , - , , - , 6 , - - - - ",
"      6 s y ,               6 n 2 -               6 n 2 %             2 s y ,               6 n 2 -               6 n 2 %       ",
"      8 O.I y               g =.s y               H  .s e             8 O.I y               z =.s e               H  .s e       ",
"      8 w.$.g               A h.H g               ` w.A s             8 w.*.g               B h.H g               ` w.B y       ",
"      8 s.2.n               A x.` g                .s.E y             8 s.2.n               F c.` g               } s.E y       ",
"      6 c.w.A y             F m.O.n             8 $.h.) s             8 x.0.A y             H m.O.z             8 *.h.) s       ",
", 2 8 e c.7.g y g n }  . . .F m.` s s g F }  . .I $.h.H e s z E  . . .n x.7.g y g n `  . . .H m.` s s g F  . . .I $.s.I e g g ~ ",
"2 s A g O.} s g ~ =.h.s.h.s.n *.F y B ) w.s.s.h.*.I $.B y F O.t.s.h.h.I O.` g s ~ =.h.s.h.s.B *.H y B ` 0.s.h.h.$.I $.B y F $.t.",
"8 e y n z e B A I ~ ~ ~ ~ ~ A s s A F E ~ ~ ~ ~ I B e z A H ~ ~ ~ E ~ H z e B A I ~ ~ ~ ~ ~ B s s A F ~ ~ ~ ~ E I B e g A H ~ ~ ",
"2 2 6 s I *.s n n n B n n n z *.I z n n B n n n n s 7.n B n n n n B B n I *.s n B n n n n n z $.H z B n n n B n B s 7.n n n n z ",
"@ @ % , 8 8 2 2 2 2 , 2 2 2 2 y 2 2 2 2 , , 2 2 2 2 s 2 , 2 2 2 2 , 2 2 8 e 2 2 2 2 2 , 2 2 2 y 6 2 , 2 2 2 , 2 2 , s 6 2 2 2 , ",
"      6 s y ,               6 n 2 -               8 n 2 %             6 s s ,               6 B 2 -               8 z 2 %       ",
"      8 O.I y               z =.g e               H  .s e             6 O.H y               g =.g e               H  .s 8       ",
"      8 7.O.g               n s.A s               ~ 0.n y             8 7.O.s               B s.A s               ) w.n s       ",
"      6 s.:.n               A c.~ g               } s.I y             8 s.:.n               A c.~ g               } t.I y       ",
"      8 x.0.B               F c. .z               O.h.) s             8 x.0.B               F c. .z               $.h.~ y       ",
"- - z s c.7.n e y s B A A A H m. .g y y g B F A z *.s.~ y e y n A A A s x.7.n e y s A A A A H m. .z e y g A A A z $.h.~ y y y B ",
"2 e 7.F s.2.g y H O.x.x.x.x.A x.) e z I 7.x.x.c.*. .s.H 8 B ` t.x.x.x.H s.2.s y H  .x.x.x.c.A x.) e z I 7.x.c.x.*. .s.H 8 B ` t.",
"8 s  .H s e z B ) } } } } } n y y n H ` }  .} } ~ z e s A I } } }  .} I s e z A ) } } } } } n y y n F ` } } } } ~ z e s A I  . .",
"6 2 n n H =.s n B n n n B n z *.I z n n B n n n B s 0.n n n n n n n B n H =.s B n n B n n n z *.I z n n n n B n n s 7.n n n n B ",
"@ @ 2 2 8 e 2 2 , 2 2 2 , 2 2 y 6 2 2 2 , 2 2 2 2 2 s 2 , 2 2 2 2 2 , 2 8 e 2 2 2 2 , 2 2 2 , s 6 2 2 2 2 2 , 2 2 2 s 2 2 2 2 , ",
"      , s e ,               2 z 2 -               6 z 2 %             , s y -               2 z 2 -               6 z , %       ",
"      8 E n 8               s ` 8 6               n I e 2             6 E n 8               s ` 8 6               n E e 2       ",
"      8 :. .s               n t.A s               E 0.z y             8 2. .s               n t.A s               E 7.n y       ",
"      8 t.*.z               B x.I s               } w.A s             8 w.*.z               B x.H g               ` w.A s       ",
"      8 h.0.B               F c. .g               O.h.~ y             8 h.0.B               F c. .g               O.h.) y       ",
"% % 8 8 c.0.A e 8 8 8 8 8 8 H m. .n 8 8 8 8 8 8 6 *.h.) s 8 8 8 8 8 8 8 x.0.A e 8 8 8 8 8 8 F m.O.n 8 8 8 8 8 8 8 *.h.) y 8 8 8 ",
"2 e 7.H s.2.g y H O.x.x.x.x.A x.) e z I 7.x.x.x.*. .s.H 8 B ` t.x.c.c.H t.7.s y H O.x.x.x.x.A x.) e z I 7.x.c.x.*. .s.H e B ) t.",
"8 s  .H s e z B ) } } }  .} n y y B F ` }  .} } ~ z e s B I  .} }  . .H s e z A ) } } } } } n y y n H ` } } }  .) z e s B I  . .",
"8 8 H F H O.n F H F F H F H A } I A H F H F F F F n *.B F H H F H F H H H  .z F F H H F F H A } I A F F F F H F F z $.B F H H F ",
"- % 8 8 s n 6 8 8 8 8 8 8 6 6 A e 8 8 8 8 8 8 8 8 8 H 8 8 8 8 8 8 8 8 8 g n 8 8 8 8 8 8 8 8 6 F e 8 8 8 8 8 8 8 8 8 F e 8 8 8 8 ",
"      - 8 6 , -             , y , -             , 2 e 2 -             , 8 8 , -             , e , -             , , e 2 -       ",
"      8 w.7.z               B h.} y               ` t.E 6             6 w.2.z               B h.` s               ` s.I 6       ",
"      8 *.=.y               z 0.E 2               H 0.F %             8 *.=.y               z 0.~ 2               F w.F %       ",
"      8 } *.8               g =.E ,               A :.A @             8 } *.8               g =.E ,               A :.A @       ",
"      8 ~  .2               s O.F -               n $.g %             8 ~  .2               s O.F -               n $.z %       ",
"      8 H I 2               y ` g ,               g ) e -             8 I H 2               y ` g ,               g ) e -       ",
"        B H ,               e H z ,               y ~ e                 B H 2               e H z ,               y E e         ",
"        y n 2                 g s                 6 n e                 y n 2                 g s                 8 n e         ",
"          @                                         X                     @                                         X           ",
"                                                                                                                                ",
"                                                                                                                                ",
"                                                                                                                                ",
"                                                                                                                                ",
"                                                                                                                                ",
"                                                                                                                                ",
"                                                                                                                                ",
"                                                                                                                                ",
"                                                                                                                                ",
"                                                                                                                                ",
"                                                                                                                                ",
"                                                                                                                                ",
"                                                                                                                                ",
"                                                                                                                                ",
"                                                                                                                                "
};
