/* XPM */
static char *_1684222405[] = {
/* columns rows colors chars-per-pixel */
"64 64 140 2 ",
"   c black",
".  c #0B0B0B",
"X  c #0E0E0E",
"o  c gray6",
"O  c #131313",
"+  c gray8",
"@  c #151515",
"#  c #161616",
"$  c gray9",
"%  c #181818",
"&  c #191919",
"*  c gray10",
"=  c #1B1B1B",
"-  c gray11",
";  c #1D1D1D",
":  c #1E1E1E",
">  c gray12",
",  c #202020",
"<  c gray13",
"1  c #222222",
"2  c #232323",
"3  c gray14",
"4  c #252525",
"5  c gray15",
"6  c #272727",
"7  c #282828",
"8  c gray16",
"9  c #2A2A2A",
"0  c gray17",
"q  c #2C2C2C",
"w  c #2D2D2D",
"e  c gray18",
"r  c #2F2F2F",
"t  c gray19",
"y  c #313131",
"u  c #323232",
"i  c gray20",
"p  c #343434",
"a  c #353535",
"s  c gray21",
"d  c #373737",
"f  c gray22",
"g  c #393939",
"h  c #3A3A3A",
"j  c gray23",
"k  c #3C3C3C",
"l  c gray24",
"z  c #3E3E3E",
"x  c #3F3F3F",
"c  c gray25",
"v  c #414141",
"b  c gray26",
"n  c #434343",
"m  c #444444",
"M  c gray27",
"N  c #464646",
"B  c gray28",
"V  c #484848",
"C  c #494949",
"Z  c gray29",
"A  c #4B4B4B",
"S  c #4C4C4C",
"D  c gray30",
"F  c #4E4E4E",
"G  c gray31",
"H  c #505050",
"J  c #515151",
"K  c gray32",
"L  c #535353",
"P  c gray33",
"I  c #555555",
"U  c #565656",
"Y  c gray34",
"T  c #585858",
"R  c gray35",
"E  c #5A5A5A",
"W  c #5B5B5B",
"Q  c gray36",
"!  c #5D5D5D",
"~  c gray37",
"^  c #5F5F5F",
"/  c #606060",
"(  c gray38",
")  c #626262",
"_  c gray39",
"`  c #646464",
"'  c gray40",
"]  c #676767",
"[  c #686868",
"{  c DimGray",
"}  c #6A6A6A",
"|  c gray42",
" . c #6C6C6C",
".. c #6D6D6D",
"X. c gray43",
"o. c gray44",
"O. c #717171",
"+. c #727272",
"@. c gray45",
"#. c #747474",
"$. c #767676",
"%. c #777777",
"&. c gray47",
"*. c #797979",
"=. c gray48",
"-. c #7B7B7B",
";. c gray49",
":. c #7E7E7E",
">. c gray50",
",. c #808080",
"<. c #818181",
"1. c gray51",
"2. c #838383",
"3. c #848484",
"4. c gray52",
"5. c #868686",
"6. c #888888",
"7. c gray54",
"8. c #8B8B8B",
"9. c #8E8E8E",
"0. c gray56",
"q. c gray57",
"w. c #929292",
"e. c #939393",
"r. c gray58",
"t. c #959595",
"y. c gray59",
"u. c #979797",
"i. c #989898",
"p. c gray60",
"a. c #9A9A9A",
"s. c #9B9B9B",
"d. c #9D9D9D",
"f. c gray62",
"g. c #9F9F9F",
"h. c #A0A0A0",
"j. c gray63",
"k. c gray64",
"l. c #A4A4A4",
"z. c #A5A5A5",
/* pixels */
"- 3 h i a.1.i 0 m E 9.u.u.u.Z j.~ 0 h m @.e.u.u.....u.Z 3 n H ;.u.u.u.Z a.1.i 0 m E 9.a.u.u.Z g.~ 0 s Z ..e.u.u.@...u.S 3 n S 1.",
"2 i x h S Z i h ) &.4.4.4.4.x H h i n ] 1.4.4.4...n S s h S @.1.4.4.4.H S Z i h ) &.4.4.4.4.x H h i m ] 1.4.4.4.| n S s h S #.1.",
"3 3 3 x m Z n Z Z Z Z Z Z Z m S n m Z Z Z Z Z Z S m H n Z Z Z Z S Z Z Z m Z n Z Z Z Z Z Z Z m S n m Z Z Z Z Z Z Z n S n Z Z Z S ",
"$ * * 0 Z ) e s s s s s s s i | n i s s s s s s s e #.s s s s s s s s s Z ) e s s s s s s s i | n i s s s s s s s e #.h s s s e ",
"      * 3 3 * $             * e - $             $ - 0 * $             $ 3 2 * $             * e * $             $ * e * $       ",
"      3 m s -               0 S 3 -               i Z 2 *             3 m h -               0 S 2 -               i Z 2 $       ",
"      3 #.E i               h 4.h e               S &.s 0             3 #.E i               h 4.h e               S &.s 0       ",
"      3 9.@.s               n a.S i               ) 9.m e             3 9.@.s               n a.S s               ) 9.m e       ",
"      2 u.1.x               m j.) s               | u.H e             3 u.1.x               m j.) s               | u.I 0       ",
"      2 g.8.m 0             S z.| x             2 #.a.~ e             3 j.8.n 0             S z...h             3 @.a.~ i       ",
"* * 3 e g.4.s e s x ) | ] | S z.) e i s Z ] ] | H #.a.H 0 i h I ] | | h g.4.s e s x ) | | ] S z.) e e s Z ] | ] H #.a.S 0 i s E ",
"- i m s | ] i s E &.a.u.u.u.n #.Z e x ) 8.a.u.a.#.H ..n e Z ..e.u.u.a.H | ] i i E &.a.u.a.u.n #.S e n ) 8.u.u.a.#.H @.n e Z ..e.",
"3 3 3 x m Z m Z Z Z Z Z Z Z m H n m Z Z Z Z Z Z S m H n Z Z Z Z Z S Z Z m Z n Z Z Z Z Z Z Z m S n m Z Z Z Z Z Z Z m S n Z Z Z S ",
"* * * e Z ] e s s s s s s s i | n i s s s s s s s e #.s s s s s s s s i Z ) e s s s s s s s i ] n i s s s s s s s i #.s s i s e ",
". X X $ - - $ $ $ $ $ $ $ $ * 2 * $ $ $ $ $ $ $ $ * 2 * $ $ $ * $ $ $ $ 2 - $ $ $ $ $ $ $ $ * 2 * $ $ $ $ $ $ $ $ * - * $ $ $ $ ",
"      - i e $               - x - $               3 h - O             2 i e $               2 x - $               2 x - O       ",
"      3 ..H e               s &.s 0               S | i 3             3 ..S e               h &.i e               S | i 3       ",
"      3 4...s               x u.m i               E 8.x e             3 8...i               x u.m i               E 8.n e       ",
"      3 e.;.h               m g.E s               | u.S e             3 e.;.x               m j.E s               ] e.S e       ",
"      3 g.8.n               Z z.| h               ..a.~ e             2 g.8.n               Z j.| h               @.a.E e       ",
"* - S x g.4.h 0 s x ) | ] | Z z.) e i s Z ] ] | H #.a.S 0 s h I | | | h g.4.h 0 s x ) | | | Z z.) e e s Z ] | ] H @.a.S 0 i h E ",
"- e 8.H ..) i i ~ &.u.a.u.u.n #.Z e x ) 8.a.u.u.#.H @.n e Z ..9.u.u.a.S | ] i i E &.a.u.u.u.x #.S e n ) 8.u.a.u.#.H @.n e Z ..e.",
"3 e E Z h 0 n m H E E I E E m i i m Z I E E E E H n 0 h m S E E E E E S h 0 n m H E E I E E m i i m Z I E E E E I n 0 h m S E E ",
"- 2 x n S #.i n x x n n x x h #.H h n x x x x x x i 4.x x n n n x x x n S #.i n n x x n x x h #.H h n x x x x x x i 4.x n n x x ",
"X X - - 3 0 - - - - 2 - - - - e 2 - - - - - - - - - i - - - - - - - - - 0 0 * - - - - - - 2 * e 2 * 2 - - - - - * - i - - - - - ",
"      - H Z 3               e E s -               x I i *             * H Z 3               0 E s 2               h I i -       ",
"      3 4.1.s               x e.) 0               ~ e.H -             3 4.1.s               x u.~ 3               E e.H -       ",
"      3 ..#.0               s 1.I -               Z 4.m X             3 ..#.0               s 1.E -               Z 4.m O       ",
"      3 ) @.2               i @.H *               x &.x X             3 ) @.-               i @.H *               x &.x X       ",
"      3 I ~ -               e | n *               h | i $             3 I ~ 2               e ] m *               h ..i $       ",
"      3 Z S -               e E s *               i ~ 0 $             3 S S *               0 E i *               s ~ 0 $       ",
"        h S *               3 m h *               0 S e                 h S *               0 m h *               0 S 0         ",
"        3 e                   3 0                   0 3                 3 0                   3 0                   0 3         ",
"                                                                                                                                ",
"                                                                                                                                ",
"                                                                                                                                ",
"                                                                                                                                ",
"                                                                                                                                ",
"                                                                                                                                ",
"                                                                                                                                ",
"                                                                                                                                ",
"                                                                                                                                ",
"                                                                                                                                ",
"                                                                                                                                ",
"                                                                                                                                ",
"                                                                                                                                ",
"                                                                                                                                ",
"                                                                                                                                ",
"                                                                                                                                ",
"                                                                                                                                ",
"                                                                                                                                ",
"                                                                                                                                ",
"                                                                                                                                ",
"                                                                                                                                ",
"                                                                                                                                ",
"                                                                                                                                ",
"                                                                                                                                ",
"                                                                                                                                ",
"                                                                                                                                ",
"                                                                                                                                ",
"                                                                                                                                ",
"                                                                                                                                ",
"                                                                                                                                ",
"                                                                                                                                "
};
