/* XPM */
static char *_1684222405[] = {
/* columns rows colors chars-per-pixel */
"64 64 109 2 ",
"   c black",
".  c #0B0B0B",
"X  c gray5",
"o  c gray6",
"O  c #111111",
"+  c gray7",
"@  c #151515",
"#  c #161616",
"$  c gray9",
"%  c #181818",
"&  c #191919",
"*  c gray10",
"=  c #1B1B1B",
"-  c gray11",
";  c #1D1D1D",
":  c #1E1E1E",
">  c gray12",
",  c #202020",
"<  c gray13",
"1  c #222222",
"2  c #232323",
"3  c gray14",
"4  c #252525",
"5  c gray15",
"6  c #272727",
"7  c #282828",
"8  c gray16",
"9  c #2A2A2A",
"0  c gray17",
"q  c #2C2C2C",
"w  c #2D2D2D",
"e  c gray18",
"r  c #2F2F2F",
"t  c #313131",
"y  c #323232",
"u  c gray20",
"i  c #353535",
"p  c gray21",
"a  c #373737",
"s  c gray22",
"d  c #393939",
"f  c #3A3A3A",
"g  c gray23",
"h  c #3C3C3C",
"j  c #3E3E3E",
"k  c gray26",
"l  c #434343",
"z  c #444444",
"x  c gray27",
"c  c #464646",
"v  c gray28",
"b  c #484848",
"n  c #494949",
"m  c gray29",
"M  c #4B4B4B",
"N  c #4C4C4C",
"B  c gray30",
"V  c #4E4E4E",
"C  c gray31",
"Z  c #505050",
"A  c #515151",
"S  c gray32",
"D  c #535353",
"F  c gray33",
"G  c #555555",
"H  c gray34",
"J  c gray35",
"K  c #5A5A5A",
"L  c #5D5D5D",
"P  c gray37",
"I  c #5F5F5F",
"U  c #606060",
"Y  c gray38",
"T  c #626262",
"R  c #676767",
"E  c #686868",
"W  c #6A6A6A",
"Q  c #6C6C6C",
"!  c #6D6D6D",
"~  c gray44",
"^  c #717171",
"/  c #727272",
"(  c gray45",
")  c #747474",
"_  c #767676",
"`  c #777777",
"'  c gray47",
"]  c #797979",
"[  c gray48",
"{  c #7B7B7B",
"}  c gray49",
"|  c #7E7E7E",
" . c gray50",
".. c #808080",
"X. c #818181",
"o. c gray51",
"O. c #838383",
"+. c gray52",
"@. c #868686",
"#. c gray54",
"$. c gray55",
"%. c gray56",
"&. c #929292",
"*. c #959595",
"=. c gray59",
"-. c #9A9A9A",
";. c #9F9F9F",
":. c gray63",
">. c #A5A5A5",
/* pixels */
"      + 2 % +               # 0 + +               % 3 + X             + 2 % +               # 0 + +               % 3 + +       ",
"      + d w %               % l - #               3 j - #             + d w %               % l % %               3 j - #       ",
"      % U B 3               w E i 2               t x 0 2             % U B 3               w R i 2               x L w -       ",
"      3 =...j               x :.U i               F | B w             3 =...j               x :.U i               E =.F w       ",
"+ + 3 3 :.#.x 0 3 3 3 3 3 3 B >.E j 3 2 3 3 3 3 3 ) -.L t 3 3 3 3 3 2 2 :.%.x 0 3 3 3 3 2 2 B >.! j 3 3 3 3 2 3 3 ) -.L t 2 2 3 ",
"- 3 ( M -...t w x K %.=.=.=.M :.L 0 d M ( &.=.=.( ! =.B 3 j A ..=.=.=.M -...t w x K %.=.=.=.M :.K 0 d x ( &.=.=.( ! =.B 3 l A @.",
"2 i ..A B x t d U ] @.@.@.@.d A d i x R | @.@.@.! l B i d B ) ..@.@.@.A B x t d U ] @.@.@.@.d A d i x R | @.@.@.E x B i d B ( ..",
"3 3 M M M M l M M M M M M B x B x x M M M M M M M l B l B M M M M M M B x M x M M M M M M M M B x x M M B M M M M x B l M M B B ",
"% % i i M R w i i i i i i i t E l t i i i i i i i t ) i i i i i i i i i M U w i i i i i i i t E l t i i i i i i i w ) i i i i i ",
"X . # # - - % # % # % # # % % 2 % # # % % # % # % % 2 % # # % # # % % # 2 - # # % # # % % % % 2 % # % # % # % % % % 2 % # % # % ",
"      2 ) E t               d | B 0               A ) x 2             2 ( R t               i | A 0               A ) x 2       ",
"      3 ] ] w               d %.K 2               A %.M +             2 ] | w               d %.K -               A %.M +       ",
"      3 R ( 3               i ] F -               x | l X             3 E ( 3               i ] F %               x | l X       ",
"      3 L ( 2               t ( A %               j ] j +             3 L ( 2               t ( F %               j ] j +       ",
"      3 A F -               w U d %               d U w %             3 A A -               w L d -               d U w #       ",
"      3 M A -               0 K d %               t L w #             3 M A -               w K d %               t L w #       ",
"        w x %                 d i                 3 l 3                 w x %                 d i                 3 l 0         ",
"        - -                   % 2                   % 2                 - -                   # 2                   # 2         ",
"                                                                                                                                ",
"                                                                                                                                ",
"                                                                                                                                ",
"                                                                                                                                ",
"                                                                                                                                ",
"                                                                                                                                ",
"                                                                                                                                ",
"                                                                                                                                ",
"                                                                                                                                ",
"                                                                                                                                ",
"                                                                                                                                ",
"                                                                                                                                ",
"                                                                                                                                ",
"                                                                                                                                ",
"                                                                                                                                ",
"                                                                                                                                ",
"                                                                                                                                ",
"                                                                                                                                ",
"                                                                                                                                ",
"                                                                                                                                ",
"                                                                                                                                ",
"                                                                                                                                ",
"                                                                                                                                ",
"                                                                                                                                ",
"                                                                                                                                ",
"                                                                                                                                ",
"                                                                                                                                ",
"                                                                                                                                ",
"                                                                                                                                ",
"                                                                                                                                ",
"                                                                                                                                ",
"                                                                                                                                ",
"                                                                                                                                ",
"                                                                                                                                ",
"                                                                                                                                ",
"                                                                                                                                ",
"                                                                                                                                ",
"                                                                                                                                ",
"                                                                                                                                ",
"                                                                                                                                ",
"                                                                                                                                ",
"                                                                                                                                ",
"                                                                                                                                ",
"                                                                                                                                ",
"                                                                                                                                ",
"                                                                                                                                "
};
