/* XPM */
static char *__attack1684622352[] = {
/* columns rows colors chars-per-pixel */
"64 64 245 2 ",
"   c None",
".  c #1A191A",
"X  c #130A14",
"o  c #241615",
"O  c #360F0F",
"+  c #332C17",
"@  c #111130",
"#  c #2B1330",
"$  c #27262A",
"%  c #302A35",
"&  c #490A09",
"*  c #540409",
"=  c #5A0708",
"-  c #56180E",
";  c #520F15",
":  c #650505",
">  c #6B0505",
",  c #6C0B05",
"<  c #630B0A",
"1  c #6C0C0C",
"2  c #650709",
"3  c #740504",
"4  c #7B0404",
"5  c #7A0906",
"6  c #720508",
"7  c #740B0A",
"8  c #7B0C0A",
"9  c #7D0609",
"0  c #6A140C",
"q  c #74120C",
"w  c #680C13",
"e  c #760B12",
"r  c #651715",
"t  c #731313",
"y  c #7B1414",
"u  c #7C1A1B",
"i  c #791718",
"p  c #4F2A16",
"a  c #7B270B",
"s  c #792C12",
"d  c #691C26",
"f  c #70132B",
"g  c #513430",
"h  c #782E30",
"j  c #561A21",
"k  c #31401F",
"l  c #3D5923",
"z  c #404116",
"x  c #7F441E",
"c  c #4B5131",
"v  c #66462E",
"b  c #5F6330",
"n  c #070B4A",
"m  c #161647",
"M  c #040652",
"N  c #090955",
"B  c #120E52",
"V  c #393944",
"C  c #302B56",
"Z  c #060768",
"A  c #040678",
"S  c #120C6F",
"D  c #3E1D66",
"F  c #2C0A49",
"G  c #401D77",
"H  c #3F4645",
"J  c #4A4949",
"K  c #524A4B",
"L  c #54534E",
"P  c #5A5A4E",
"I  c #4C4B50",
"U  c #584D52",
"Y  c #545354",
"T  c #5D5C5B",
"R  c #57585A",
"E  c #4B5352",
"W  c #6A5354",
"Q  c #5B625D",
"!  c #62625E",
"~  c #555567",
"^  c #586266",
"/  c #556974",
"(  c #656565",
")  c #6C6B6C",
"_  c #67686A",
"`  c #736A6C",
"'  c #7A786C",
"]  c #6A6C71",
"[  c #697277",
"{  c #737373",
"}  c #7D7D7D",
"|  c #767677",
" . c #737273",
".. c #840304",
"X. c #8C0404",
"o. c #820A06",
"O. c #8B0A06",
"+. c #840C0A",
"@. c #8C0C0A",
"#. c #880709",
"$. c #940404",
"%. c #9C0303",
"&. c #950A06",
"*. c #9B0B06",
"=. c #940D0B",
"-. c #9C0B0A",
";. c #99040A",
":. c #84140A",
">. c #98140C",
",. c #841C1D",
"<. c #881A19",
"1. c #8F1017",
"2. c #A50403",
"3. c #AC0403",
"4. c #A30A06",
"5. c #AC0A06",
"6. c #AC0509",
"7. c #A60C0A",
"8. c #B40303",
"9. c #BC0403",
"0. c #B40A05",
"q. c #BB0A05",
"w. c #BB0C09",
"e. c #B70809",
"r. c #A4150B",
"t. c #B8130B",
"y. c #BB1515",
"u. c #B11116",
"i. c #89241F",
"p. c #91270A",
"a. c #881E21",
"s. c #991F2A",
"d. c #862221",
"f. c #8B2324",
"g. c #8B2B2B",
"h. c #932B2B",
"j. c #952828",
"k. c #98312F",
"l. c #9B2E31",
"z. c #9C3333",
"x. c #993534",
"c. c #88332F",
"v. c #A52A2B",
"b. c #A13536",
"n. c #A33C3B",
"m. c #A63939",
"M. c #C40303",
"N. c #CB0403",
"B. c #C30905",
"V. c #CC0A09",
"C. c #C60A08",
"Z. c #D30302",
"A. c #DC0203",
"S. c #D30A05",
"D. c #D60807",
"F. c #CB1115",
"G. c #E30302",
"H. c #EB0203",
"J. c #ED0A0C",
"K. c #E90906",
"L. c #F30304",
"P. c #F40708",
"I. c #F71917",
"U. c #F3110A",
"Y. c #F53020",
"T. c #ED2C13",
"R. c #8C4D18",
"E. c #86403E",
"W. c #A5413D",
"Q. c #982E41",
"!. c #885152",
"~. c #AC4343",
"^. c #A94746",
"/. c #B54D4C",
"(. c #B14746",
"). c #B54E50",
"_. c #B55352",
"`. c #BB5555",
"'. c #BD5A5A",
"]. c #BB5856",
"[. c #B3514C",
"{. c #84787B",
"}. c #8D6D6A",
"|. c #C45C5D",
" X c #CC6C6C",
".X c #C86565",
"XX c #D57676",
"oX c #CD6F6E",
"OX c #E05A57",
"+X c #78847E",
"@X c #898D2E",
"#X c #CFAD31",
"$X c #80817F",
"%X c #929077",
"&X c #D8847D",
"*X c #04038C",
"=X c #080589",
"-X c #13078A",
";X c #09069C",
":X c #0E188F",
">X c #0304A2",
",X c #050AAC",
"<X c #0707A8",
"1X c #1508A4",
"2X c #0607B6",
"3X c #1110B9",
"4X c #383991",
"5X c #7E7B83",
"6X c #0304C4",
"7X c #0304CC",
"8X c #0508C7",
"9X c #0205D2",
"0X c #0C11CE",
"qX c #0207E1",
"wX c #817F80",
"eX c #789891",
"rX c #798E88",
"tX c #71AAA5",
"yX c #848384",
"uX c #8A8A8B",
"iX c #878A87",
"pX c #8C979A",
"aX c #949494",
"sX c #94969A",
"dX c #9A9C9C",
"fX c #969998",
"gX c #8B9186",
"hX c #AD9391",
"jX c #99A292",
"kX c #A0A09F",
"lX c #9B9DA5",
"zX c #99A2A8",
"xX c #A4A3A5",
"cX c #A8A9A9",
"vX c #A9B9B6",
"bX c #B6B6B9",
"nX c #B0ACAD",
"mX c #A18DA1",
"MX c #DB8786",
"NX c #E58B8D",
"BX c #C2BDBA",
"VX c #B7C5C0",
"CX c #C3C3C7",
"ZX c #D3CED2",
"AX c #DCE4E9",
/* pixels */
"                                                                                                                                ",
"                                                                                                                                ",
"                                                                                                                                ",
"                                                                                                                                ",
"                                                                                                                                ",
"                                                                                                                                ",
"                                                                                                                                ",
"                                                                                                                                ",
"                                                                                                                                ",
"                                                                                                                                ",
"                                                                                                                                ",
"                                                                                                                                ",
"                                          !                                                             (                       ",
"                      _                 ( `                                         )                 ` _                       ",
"                      ( {               ] wX                                        yX                { (                       ",
"                        )               | sX                                        aX|             { (                         ",
"                        T yX5X          yXcX                                        cX}           rX} T                         ",
"                          ) yX          } cX                                        xX{         } yX`                           ",
"                          ! { iXuX      ( dXaX              G.H.H.D.C.            dXaXQ       uXyX .R                           ",
"                          L ) yXuXyX    I yXsXpX    y.C.M.G.G.N.A.D.N.N.C.y.    sXfX} I     uXuXyX( L                           ",
"                            Y ) wXaXsX .a 5 2.M.9.M.9.A.C.N.L.P.I.L.C.G.C.5.M.M.M.2.0   yXfXaX{._ I                             ",
"                              R _ uXlXlXh y 8.Z.Z.Z.2.A.P.B.L.OXI.P.D.L.A.$.A.Z.M.3.4 W xXdXuX( Y                               ",
"              yX              L ! ) 5XnXCXAXl.6.B.A.4.q.S.L.t.L.P.q.L.A.9.N.Z.M.9.mXZXCXbX} ) Q K               yX              ",
"                uX              Y ( _ 5XbXCXAX!.A.9.G.2.B.B.q.A.A.e.B.9.2.A.A.A.nXAXBXBX5X) ( I               uX                ",
"                  | kX|     9.N.6.E ] )  .| sX{.L.C.;.e.4.Z.q.8.M.A.N.%.2.4.H.L.hXlX| ` ) _ E 6.C.    iX) aX|                   ",
"                  {.| xXcX| s.C.7.; Q ] )  .} ' L.M.8.3.M.3.H.7.e.H.3.9.6.8.A.L.rX[  .) ) R +.C.M.h  .xXaX]                     ",
"                      T uXlXeX5Xv.M.t.d ^ ^ ( V.N.e.A.A.0.M.8.q.M.4.9.q.A.A.8.Z.N.] ^ R F.>.8.W wXaXaX} I                       ",
"                      U Y 5XrX[ !.:.%.S.N.D.K.A.8.2.Z.A.M.9.$.8.2.*.8.N.A.B.2.9.G.S.C.N.N.=.@.^  .yX} R                         ",
"                      A.V.V J F.L.q.7 2.$.&.3.8.9.N.G.M.M.%.4 > > 4 $.M.M.A.Z.M.8.5.5 %.2.%.8.L.c.I J A.5.                      ",
"                    6.9.L.G.A.G.N.N.M.5 %.2.8.8.N.G.H.H.N.4.#.4 4 $.8.Z.H.G.A.9.3.3.3.&.8 5.M.Z.K.N.Z.G.8.                      ",
"                  e.9.2.9.6.8.M.X.O.7 f.1 7 9 $.2.8.N.S.D.G.=.%.X.O.G.S.N.M.3.2.$.8 7 w ,.O.@.@.9.q.6.6.6.8.6.                  ",
"                  9.M.A.=.+.6.7.H.G.9.u 0 1 y ,.e %.*.M.w.M.4.O.X.4.q.C.q.$.$.<.,.i t q <.q.G.G.5.4.8 -.Z.9.5.                  ",
"                  8 ..*.5.G.*.0.Z.e.j.z.a.a.h.z.x.i.o.@.C.S.q.N.N.5.Z.M.2...,.k.z.z.f.d.h.u M.Z.e.8.H.;.4.o.o.                  ",
"                a 3 7 ..O.B.o.3.3.a.b.n.a.g.h.z.l.f.q O.9.w.3.0.8.9.9.9.9 4 h.z.m.j.a.d.^.z.,.q.6.@.M.X.4 3 ,                   ",
"                3...> 3 , $.3 j.z.|.XX`._.f.a.h.k.a.q 8 4 *.O.5 4 4.&.$.e e d.z.h.d.z.`.oX`.n.a.t ..$.6 > 2 #.2.                ",
"                0.8.%.> > > : W./..X`. X).x.a.a.i i u t + l p #X#X+ l + u t i d.i.f.m.(.'..X.Xx.k.1 > > > %.M.9.                ",
"              C.H.M.8...: : y k.|.m.`.`.oXoX/.m.a.g.n.W.<.p p R.x p u ,.z.k.x.g.~.`. X X|.(.'.l.i.7 : = 4 q.N.H.N.              ",
"              M.Z.M.3..., : = h.^.z.^./. X.XoX|.f.k.`./.`.].l.k.l.x.[.'.~.z.m.l..X X XoX`.h.m.g.s < : = : 3.9.A.9.              ",
"              8.8.;.O.W.h.& T 0 y ,.z.~.'.`./.k.(.]..X].MX&X].^.^..XXX&X.X|.~.l.~.|.].`.m.i t a p.Q - 5 ....2.9.8.              ",
"              2.2.O.b.(.k.O fXv i u u ~._.W.m.~._..XNXXXMXNX[.[.W.|.NXMXMX&X`./.j.b.n.z.i.t < g { $X& $.2.4 ..2.@.              ",
"              : 3 z.^.z.7 o R lX] 1 w i.f.j.u i.z.^..XXX.X XMXx.g.MXoXoXoX.Xm.k.i j.1 w & * g sX$ V o 3 ..%.3 4 2               ",
"              :.7 g.x.= & $ X ` xXd 0 - O & 0 t i u W.|.(./..Xc.h.XX_.[.'.x.i.<.i t u * ; g yX~ g X O : 4 4 > 3 p.              ",
"              7 9 ..9 2.8 . . N B N B cX1.' * * ,.v.d.d.<.z.l.~.W.b.k.d.k.f.j.,.u ^ r vXm M B N X & & 4 3 > 6 3 4               ",
"              %.4 8.2.q.+X$ $ n M M N jX% nXF = w =.P E.j.a.d.n.n.i.,.j.g Q r.>.:XzX% %Xn M M Z X : 2 / 3.7 $.4 ;.              ",
"              2.8.N.N.+.Q s . $ % M N Z Z ! -X:X<X<X%X%Xf u ^.hXoX^.c.D uX+X9X2X-X4XZ C B M n = < 1 p rXu.8.Z.6.                ",
"                5.M.&.M.E + - $ $ n N Z Z A <X,X,X<XP P qX~ ) aXH jXG :XR b 8X8X,X;X=XA N n @ r ,.p g P V.4.9.6.                ",
"                  =.G.L.T.N.P - {.$ n Z A A ,X<X6X,X,X3XqX0XS @X@X3X1X8X2X8X8X2X8X;X<XZ Z * ; ) z h Z.Y.H.A.=.8.                ",
"                  4.Z.C.P.W vXg bXR.= N N =X>X9X7X;X6X8X8X1X6X8X0X9X2X9X8X2X8X7X<X;X<Xm e :.i.VXp pXz.K.t.9.6.                  ",
"                  q.$.3.A.G.j o tXL 1 = # *X,X6X2X-X9X9X;X7X7X7X7X9X9X2X9X7X6X1X2XS w d p.w rXtXp d A.N.2.3.5.                  ",
"                    9.&.*.Z.A.9.c.8.M.:.: # =X6X<X<X6X6X,X6X6X6X7X6X6X6X6X6X2X2X2Xw :.#.r Z.6.g 6.Z.N.6.5.2.                    ",
"                  3.8.4.9.N.>.8.=.>.*.o.X.6 O n 2X1X<X>X;X>X>X>X>X;X>X>X>X>X2X2Xf 4 < w -.V.B.+.e.4.M.9.*.2.                    ",
"                  2.2.X.2.7.G.M.0.+X0.q 4 1.> * @ nXZ *X*X*X*X*X*X*X*X=X=XC nX# w 1.9 1 @.8 ] h.e Z.6.@.o.-.                    ",
"                  ;..., 5 %.8.&.B.A.0.4.4.&.u e R cX} v Z Z Z Z Z Z Z Z c wXxXU d.<.<.4.=.q.w.6.7 8.o.3 6 $.$.                  ",
"                  o.7   ..o.%.7 0.P.K.r.s.<.*.@.U aXyXP @ H ` B N %Xm # ( iXsXW -.;.4.h V.J.J.N.1 2.5     > $.                  ",
"                    4 Z.M.$.7 G.H.>.V.I.Z.F.eX~.T _ aXR =.` kXW iXdX% <.' gX( d eXtXF.Z.I.y.e.H.A.1 $.M.M.@.                    ",
"                      3 > : Z.}.d P.w.J.J.K.t.u.%.] eXR e.W dX!.}.lX% 8. .rXJ -.y.w.A.P.P.A.H.g R N.2 > 4                       ",
"                            { BXzX+.J.r.L.P.J.P.o...4 2.Z.A.G.G.H.G.A.N.2.....O.P.I.J.P.5.G.r bXBX5X                            ",
"                            ` iX) < J.;.L.V.G.G.H.&.8 q.G.G.Z.A.A.S.K.A.q.1 @.K.t.G.t.H.>.A.; ] 5X|                             ",
"                            U Y J C.A.0.7.+.$.$.8 H.H.A.4.7.%.8 5 &.0.3.A.G.H.:.6.  8 B.5.H.#.H I T                             ",
"                            U K   & > 8 C.6   ..7 7 A.A.3.O.3 X.$.5 $.*.A.G.o.4 X.4 o.C.q 3 &   !                               ",
"                            K           3.M...5     3.2.$.3 > 3.o.> 3 %.  $.X.&.7 4 9.$.6       K                               ",
"                                          O.7 X.N.  7 X., :   9.Z.4.= ..o.o.  N.o., ..  7                                       ",
"                                            4 ..< > > = = 2.N.< * N.3.= * : : 6   7                                             ",
"                                                      : > 3 7     < 3 >         4                                               "
};
