/* XPM */
static char *__attack1684622352[] = {
/* columns rows colors chars-per-pixel */
"64 64 245 2 ",
"   c None",
".  c #040305",
"X  c #0B0405",
"o  c #04030A",
"O  c #0A050A",
"+  c #08090B",
"@  c #120B0B",
"#  c #040412",
"$  c #0C0514",
"%  c #0C0913",
"&  c #07061B",
"*  c #140918",
"=  c #191416",
"-  c #0E1411",
";  c #2D0F11",
":  c #192B13",
">  c #352716",
",  c #04032C",
"<  c #0B0727",
"1  c #04033E",
"2  c #0A0532",
"3  c #141138",
"4  c #282829",
"5  c #38262A",
"6  c #3A3737",
"7  c #2D2B37",
"8  c #5D0506",
"9  c #5B0B0C",
"0  c #55090A",
"q  c #481315",
"w  c #571412",
"e  c #5D0D12",
"r  c #640405",
"t  c #6C0504",
"y  c #650609",
"u  c #630A0B",
"i  c #6C0A0A",
"p  c #690807",
"a  c #740303",
"s  c #7C0303",
"d  c #7C0907",
"f  c #730C0B",
"g  c #7A0B09",
"h  c #770707",
"j  c #761609",
"k  c #6B1514",
"l  c #7D1415",
"z  c #781917",
"x  c #6B0F11",
"c  c #542D1D",
"v  c #7A2018",
"b  c #763015",
"n  c #4B1824",
"m  c #7A1F21",
"M  c #442827",
"N  c #503531",
"B  c #742F2C",
"V  c #2C5219",
"C  c #374B31",
"Z  c #326723",
"A  c #275F1C",
"S  c #47413F",
"D  c #58403B",
"F  c #66403C",
"G  c #644B1E",
"H  c #040344",
"J  c #03034B",
"K  c #070946",
"L  c #030254",
"P  c #040758",
"I  c #3D3A41",
"U  c #03026B",
"Y  c #040865",
"T  c #060571",
"R  c #041373",
"E  c #703B41",
"W  c #454646",
"Q  c #494948",
"!  c #534848",
"~  c #4C5353",
"^  c #5D5B5C",
"/  c #565656",
"(  c #515050",
")  c #645A5A",
"_  c #69484D",
"`  c #586A5A",
"'  c #60605F",
"]  c #5C5E61",
"[  c #4F5E61",
"{  c #695E64",
"}  c #5A6B6E",
"|  c #566E78",
" . c #636363",
".. c #6C6B6B",
"X. c #676768",
"o. c #726B6B",
"O. c #676C73",
"+. c #6B7574",
"@. c #747374",
"#. c #7C7B7D",
"$. c #787775",
"%. c #707272",
"&. c #830404",
"*. c #8B0303",
"=. c #840906",
"-. c #8B0A06",
";. c #830509",
":. c #840B0A",
">. c #8B0B0A",
",. c #8B0408",
"<. c #930304",
"1. c #9B0304",
"2. c #940A06",
"3. c #9C0A06",
"4. c #930508",
"5. c #940B0A",
"6. c #9C0C0A",
"7. c #88120C",
"8. c #97120D",
"9. c #841B1B",
"0. c #881718",
"q. c #8E1217",
"w. c #A40404",
"e. c #AC0403",
"r. c #A40A05",
"t. c #AB0A05",
"y. c #A40B09",
"u. c #AB0C0A",
"i. c #A60609",
"p. c #B40303",
"a. c #BB0303",
"s. c #BC0A04",
"d. c #B70A08",
"f. c #A3120C",
"g. c #AB130A",
"h. c #B61606",
"j. c #B80E13",
"k. c #88231E",
"l. c #8C2B0F",
"z. c #AD2D0D",
"x. c #811B21",
"c. c #842423",
"v. c #8B2323",
"b. c #8D2D2B",
"n. c #8B2B24",
"m. c #952425",
"M. c #932C2B",
"N. c #9C2C2D",
"B. c #972727",
"V. c #873A27",
"C. c #9C3434",
"Z. c #973836",
"A. c #923432",
"S. c #A43B3B",
"D. c #A63938",
"F. c #A3302F",
"G. c #C30303",
"H. c #CC0303",
"J. c #CB0A05",
"K. c #CB0C09",
"L. c #D40203",
"P. c #DC0303",
"I. c #DB0607",
"U. c #C4100B",
"Y. c #E30303",
"T. c #EC0403",
"R. c #EB0906",
"E. c #E50909",
"W. c #F20305",
"Q. c #F40808",
"!. c #F51817",
"~. c #F01614",
"^. c #EF2C1E",
"/. c #F33024",
"(. c #C03D0E",
"). c #934309",
"_. c #B54914",
"`. c #876F15",
"'. c #9B4038",
"]. c #A5433E",
"[. c #B0413F",
"{. c #977A23",
"}. c #E24423",
"|. c #AC3F40",
" X c #924A4A",
".X c #AA4746",
"XX c #B34948",
"oX c #B6514F",
"OX c #BB5454",
"+X c #BB5756",
"@X c #AB5749",
"#X c #B86A55",
"$X c #BE5D60",
"%X c #857372",
"&X c #B8746D",
"*X c #806859",
"=X c #C55A5B",
"-X c #C0544B",
";X c #C1605D",
":X c #C86967",
">X c #CD6F71",
",X c #CB7976",
"<X c #D67676",
"1X c #5C972C",
"2X c #698578",
"3X c #AE8519",
"4X c #D39B1D",
"5X c #F0D034",
"6X c #888A7C",
"7X c #D5837E",
"8X c #D6D855",
"9X c #030685",
"0X c #050496",
"qX c #08128A",
"wX c #0402A6",
"eX c #0602B7",
"rX c #7F7E80",
"tX c #0502CB",
"yX c #0602E6",
"uX c #0205F5",
"iX c #937A81",
"pX c #788A88",
"aX c #76B8A1",
"sX c #62C2BA",
"dX c #848383",
"fX c #878A8A",
"gX c #8C8B8C",
"hX c #878788",
"jX c #8E8B93",
"kX c #8A9796",
"lX c #979899",
"zX c #94938C",
"xX c #A99594",
"cX c #9E9EA0",
"vX c #91ABA7",
"bX c #A6A3A2",
"nX c #B8B9BC",
"mX c #A8ACAE",
"MX c #97A593",
"NX c #D98C89",
"BX c #D6938C",
"VX c #DFA9AA",
"CX c #BEBFC7",
"ZX c #C5C5C5",
"AX c #CED5D1",
/* pixels */
"                                                                                                                                ",
"                                                                                                                                ",
"                                                                                                                                ",
"                                                                                                                                ",
"                                                                                                                                ",
"                                                                                                                                ",
"                                                                                                                                ",
"                                                                                                                                ",
"                                                                                                                                ",
"                                                                                                                                ",
"                                                                                                                                ",
"                                                                                                                                ",
"                                @.                                                            %.                                ",
"                                $.                                                            $.                                ",
"                                @.#.                                                        $.$.                                ",
"                                %.hX                                                        pXX.                                ",
"                                 .#.fX      ^                                     )       gX#. .                                ",
"                                ^ $.hXfX    %.                                    @.    fXfX@.^                                 ",
"                                Q ^ dXgXgX  jXo.            R.!.~.I.i.          iXkX@.gXgX#.) Q                                 ",
"                                  / ..fXjXkXW B         J.W.I.Q.Q.G.5.L.3.p.p.a.Q N lXkXhXX.(                                   ",
"                      @.#.        Q / X.%XbXAXAXw.J.P.Y.t.G.H.G.d.G.p.3.<.2.3.p.AXCXcX#.X./ W         #.                        ",
"                        X.lX        Q X.%.#.nXCXCXI.G.e.e.w.P.U.I.L.2.w.p.Y.s.ZXCXnX#.X.' Q         cX..                        ",
"                        X.gXrX    s.W X.@...+.lX%XY.G.p.p.H.P.T.Y.L.G.i.e.P.J.bXlX%X......W       gX$.                          ",
"                          { lXlX} T.H.( } ..O.O.%XY.p.L.P.s.3.3.<.e.a.P.G.a.T.$.%...$./ Q e.j.X.lXjX .                          ",
"                          ) X.6XjX| h.e.P.N Q ~ P.r.w.t.a.G.-.&.=.<.L.w.L.L.3.P.D ! N I.r.Y.O.fX@. .                            ",
"                            ~ O.X.{ Y.:.7.G.I.Y.s.e.J.P.L.p.*.d &.2.i.Y.T.Y.e.p.I.P.I.:.g T.} O.} ]                             ",
"                          E.f.a.I.W.y.a.*.1.p.p.3.e.P.T.E.L.1.d 1.u.E.E./.T.H.p.=.s d =.p.f.W.U.a.s.P.                          ",
"                        H.Y.u.e.>.i.G.5.v.f ;.1.w.1.a.H.J.I.G.L.H.L.T.T.T.H.p.1.f k h b.2.G.3.d p.a.P.                          ",
"                      s.y.4.2.J.u.P.G.q.z z B ;.=.e.r.a.L.Y.L.t.p.L.L.G.H.e.w.x z v k l 7.y.P.p.p.8.-.p.G.                      ",
"                      p.p.a.P.i.H.T.i.0.M.b.n..XZ.c.u.E.~.W.L.w =.i.~.L.L.e.v.C.'.k.n.c.v.a.W.a.4.L.1.a.r.                      ",
"                      d s w.G.-.p.3.N.Z.].l.v M.M.M.f #X> : d ).b j - ).@Xe M.N.b.k.v .XC.C.w.e.,.G.-.d g                       ",
"                      y a =.1.f =.v.C.oXXXk.v z Z.A.l z.> V {.8X8X`.V ).l.l A..Xk.z C..X@XM.7.s h 1.d a y 4.                    ",
"                    a.;.a t p b..XN..X>XOXS.M.9.m..Xl.3XG Z 1X5X5XZ A 3X3XM..Xv.l Z..X$X,XD.N.C.k h r t ;.e.1.                  ",
"                  1.G.r.2.y h f M..XOX:X:X;X+XXX].0.D.n.l.C C Z V V `.B F.S.v.XXXXoX:X:X+X=X|.A.q.f y w.p.e.4.                  ",
"                1.1.p.L.P.r.e.H.w v c.oX+XXX=X>XBX<XOX.XZ.b _.: : _.).A..X;XNXVXNXXXXXS.].v.z 8.p.r.r.H.G.e.1.                  ",
"                *.-.p s -.e.L.3.2X4 f 7.B.OX,X>XD.D.].XXOXXX,XN.oXBX@X+XXXD.F.D.<X>Xv.l 7.0.I '.4.I.2.*.&.t -.                  ",
"                  <.i r t h 1.u i._ O.k lX! e f m.N.=XNX,X:XNXD.9.NX:X:X,X&XC.B.l d o.6X5 o.c 4.i 1.s a 8 s <.                  ",
"                  t.w.r r a a p h 4 7 n %.) $.N q q.m.=X=XoX&XA.v.<XD.:XOXm.9.9 C +.$.^ 3 Q M f p a t p y 1.p.                  ",
"                L.T.H.e.s r u A.<.p ; $ = W pXzXf 9 9.9.c.N.N.S.].C.B.v.m.0.u -.X.hX^ = $ y -.*.m.r 8 s e.Y.Y.H.                ",
"                a.Y.G.w.y 8 r c.i a o + + 7 ^ ..; @ / E B.z 9.C.C.9.0.N.D D = c X.} W @ # $ <.h f r 8 a w.H.Y.G.                ",
"                a.G.i.,.a t 8 i y @ . . X < * = X . ( gX4 c *XxX&X XB 6 6X4 . X * = T O 2 o @ a x e a h &.e.G.p.                ",
"                w.*.<.<.p.p.kXmX8 X . . O $ . . . . 4 X.= 7 N MX6XW = 4 } * J + . O qXO + . @ s AX+.r.e.=.*.4.w.                ",
"                r.a.L.t.:.r.kX{ 8 X . X + % . . . o O o . . @ lXjXW + . + + + P + $ & o . . 8 d zXzXp.w.>.L.e.w.                ",
"                  p.G.H.t.Y.} 5 9 X . O 2 o . . o * o . . . . . . # < o . o . & < < # . . . r 4.q ` P.H.u.a.r.t.                ",
"                z.(.3.Y.W.R./.2.f ; o Y # + o . $ $ o o o o o o o o $ U o o . o & 3 o . . X r 2.G./.R.E.Y.3._.                  ",
"                h.  3.Y.Y.K.R.P.1.d 9XR # . + + R & o , , , , P P , , Y # . . o $ < + . . ; s l.W.Q.H.U.Y.r.h.                  ",
"                  J.r.r.r.L.R.m M 6X2 & o # K * o o 1 H H H 9XwXwX9XH J J . . o 0X& . . X vXc ` m W.L.i.i.e.G.                  ",
"                    a.P.t.p.R.M MX) ZXR Y P # o . . & L L 9XeXuXuXeX9XL J o o . < qXo + q zX5 vXB E.i.G.H.s.                    ",
"                    p.t.a.8.T.T.k ! _ qX0X< . . . . L U T tXyXuXuXyXwXU U , . . & 9X& &.d dX7 k E.I.G.d.e.p.                    ",
"                      6.d f 8.s.E.J.G.w.4.O . . . . 1 L U wXtXuXyXtX0XU L & . . . $ ;.i 6.I.P.E.i.q.g 5.e.p.                    ",
"                      3.p.a.8.:.G.I.I.>.g y X X . . 1 J J U 0XeXeX0XU J J o . . O &.,.e L.I.y.5.>.5.G.p.w.e.                    ",
"                    p.p.2.a.P.3.8.3.5.7.w.4.; X . X . & J J U 9XU P L J J o X X *.t u w.e.d.7.r.f.G.p.6.e.e.                    ",
"                    <.<.*.4.p.Y.h.a.V.y.j x V.z @ bXiX- o 1 H 1 1 H 2 o 4 hXjX>.b.V.f j 1.B b.f P.i.4.*.2.1.                    ",
"                    1.a   &.1.p.s.J.}.y.pXu.>.:.n gXpXN = 5 = + O 6 % > ( lXdXl q.<.p.` u.^.J.a.w.4.;.  i <.                    ",
"                    -.a.  =.*.1.f 7.Y.!.j.aXu.u.w X.lX} c ( gXN W cX4 5 o.xX@.7.y.i.sXK.~.E.:.f 1.;.    a.<.                    ",
"                      d 3.a.p P.j.T.f.W.~.P.f.pXt.X.kX[ 5.) lXo.%XkX7 z @.vX~ r.X.g.I.Q.Q.J.R.p.H.i p.&.<.                      ",
"                            _ $.AX} T.H.u.Q./.T.5.<.u <.d.t.0.P.Y.v d.p.-.i ;.e.W./.Q.f.E.E.%XZXO.                              ",
"                            o.iXlXO.Y.P.u.W.R.Y.P.,.i p.H.Y.Y.P.P.Y.T.P.d.i 4.E.K.T.R.8.T.G.O.lXdX                              ",
"                            ) ] ] ~ P.p.P.6.i.3.g.T.h.P.Y.P.e.p.e.t.P.Y.s.d.R.8.3.w.6.P.t.G.Q / ]                               ",
"                              (     0 i G.7.s ;.p h G.P.p.-.h *.<.a <.t.P.y.<.=.*.d 3.a.f 0   Q /                               ",
"                              !       a <.L.s *.  *.-.    g 9 <.h r 1.e.3.-.g   *.s G.*.        !                               ",
"                                      h &.  *.p H.  2.*.&.8   a.L.  8 a &.3.G.G.p 1.&.                                          ",
"                                          a d   &.r t r 0 e.H.u 0 L.e.9 8 t t &.s a                                             ",
"                                              s s a p     a s     p a r r r a   h                                               "
};
