/* XPM */
static char *__attack1684622352[] = {
/* columns rows colors chars-per-pixel */
"64 64 253 2 ",
"   c None",
".  c #05040C",
"X  c #09060B",
"o  c #050513",
"O  c #0C0A16",
"+  c #0D051A",
"@  c #080718",
"#  c #140A1C",
"$  c #140716",
"%  c #150F0E",
"&  c #2A090D",
"*  c #37080C",
"=  c #0D0523",
"-  c #0B0A2C",
";  c #08062B",
":  c #160821",
">  c #040335",
",  c #080639",
"<  c #150A3A",
"1  c #1F1D24",
"2  c #2E112E",
"3  c #3B3838",
"4  c #362627",
"5  c #37361F",
"6  c #490308",
"7  c #5C0406",
"8  c #5C050A",
"9  c #580606",
"0  c #5A161A",
"q  c #55080F",
"w  c #640404",
"e  c #6C0404",
"r  c #650C0B",
"t  c #6C0B0A",
"y  c #670708",
"u  c #740304",
"i  c #7C0303",
"p  c #7C0B06",
"a  c #730B0B",
"s  c #7B0C0B",
"d  c #7A0608",
"f  c #6A120E",
"g  c #76150A",
"h  c #680813",
"j  c #750F13",
"k  c #6A1814",
"l  c #7B1B1B",
"z  c #791516",
"x  c #7B2417",
"c  c #6F2C0F",
"v  c #521222",
"b  c #472A25",
"n  c #4E3334",
"m  c #563636",
"M  c #65252B",
"N  c #78302F",
"B  c #681D20",
"V  c #464338",
"C  c #575139",
"Z  c #040344",
"A  c #03044A",
"S  c #0A0A48",
"D  c #040354",
"F  c #080759",
"G  c #120D54",
"H  c #270F55",
"J  c #313044",
"K  c #04026C",
"L  c #0B0A69",
"P  c #080766",
"I  c #160965",
"U  c #070576",
"Y  c #120B72",
"T  c #4C3D46",
"R  c #783C42",
"E  c #3C4846",
"W  c #4B4949",
"Q  c #584A4D",
"!  c #495454",
"~  c #595756",
"^  c #4B4F51",
"/  c #655858",
"(  c #6E5150",
")  c #5D715C",
"_  c #66635C",
"`  c #5C6465",
"'  c #5A7071",
"]  c #646364",
"[  c #6A6464",
"{  c #6C6C6C",
"}  c #69666A",
"|  c #706D6E",
" . c #726766",
".. c #766F72",
"X. c #657476",
"o. c #747374",
"O. c #7B7A7B",
"+. c #777679",
"@. c #726F71",
"#. c #645D72",
"$. c #830404",
"%. c #8C0404",
"&. c #8C0A05",
"*. c #840C0B",
"=. c #8C0C0A",
"-. c #850707",
";. c #940304",
":. c #9B0404",
">. c #930A06",
",. c #9C0A06",
"<. c #9B0609",
"1. c #930B09",
"2. c #9B0B09",
"3. c #92070B",
"4. c #87130B",
"5. c #941108",
"6. c #831D1D",
"7. c #891717",
"8. c #960E15",
"9. c #A30403",
"0. c #AC0303",
"q. c #A40A06",
"w. c #AB0B05",
"e. c #A40B09",
"r. c #AB0C0A",
"t. c #A40408",
"y. c #B40303",
"u. c #BC0303",
"i. c #B30A04",
"p. c #B40C0A",
"a. c #BB0B07",
"s. c #A3110B",
"d. c #AB1109",
"f. c #B2120C",
"g. c #A51B1B",
"h. c #85370A",
"j. c #88231E",
"k. c #903013",
"l. c #8A1C21",
"z. c #852222",
"x. c #8A2223",
"c. c #8B2928",
"v. c #962B29",
"b. c #99312D",
"n. c #9D3333",
"m. c #993836",
"M. c #8C2E31",
"N. c #A53937",
"B. c #B02D30",
"V. c #C30403",
"C. c #CC0303",
"Z. c #C90808",
"A. c #D30303",
"S. c #DB0303",
"D. c #D40A05",
"F. c #D70A09",
"G. c #CE110B",
"H. c #E30303",
"J. c #EB0303",
"K. c #E50B06",
"L. c #EA0905",
"P. c #E7060A",
"I. c #F20403",
"U. c #F5090A",
"Y. c #F11614",
"T. c #F53729",
"R. c #F62D23",
"E. c #F8271F",
"W. c #8D5314",
"Q. c #A46A17",
"!. c #A87718",
"~. c #A7423F",
"^. c #AD4537",
"/. c #9E541D",
"(. c #ED4421",
"). c #AD3E40",
"_. c #8E5049",
"`. c #AC4343",
"'. c #A94645",
"]. c #B34D4C",
"[. c #B74849",
"{. c #BC5454",
"}. c #BA5857",
"|. c #B55252",
" X c #827273",
".X c #9B655F",
"XX c #C35B5B",
"oX c #C66463",
"OX c #C96765",
"+X c #CE7572",
"@X c #D87879",
"#X c #D26E70",
"$X c #C2605C",
"%X c #7C8375",
"&X c #BF9528",
"*X c #B38D26",
"=X c #B28517",
"-X c #C99C32",
";X c #C39529",
":X c #CEAD36",
">X c #87877C",
",X c #8F8B68",
"<X c #D8837F",
"1X c #ECDB4D",
"2X c #F3E55D",
"3X c #E7D652",
"4X c #030688",
"5X c #150688",
"6X c #061486",
"7X c #060395",
"8X c #090797",
"9X c #061494",
"0X c #110A98",
"qX c #0403AC",
"wX c #0507A6",
"eX c #0805B7",
"rX c #0815AE",
"tX c #0505C8",
"yX c #0704D5",
"uX c #0213D0",
"iX c #0607E9",
"pX c #0705F4",
"aX c #0E11FA",
"sX c #1512F8",
"dX c #342DFB",
"fX c #1F23FE",
"gX c #4334F9",
"hX c #234AF4",
"jX c #564FF7",
"kX c #7669EE",
"lX c #7452F4",
"zX c #817F80",
"xX c #77858A",
"cX c #77AFA7",
"vX c #838384",
"bX c #8C8C8B",
"nX c #878688",
"mX c #8B9594",
"MX c #979898",
"NX c #908F8F",
"BX c #9CA69A",
"VX c #90A695",
"CX c #A19FA0",
"ZX c #94B2AC",
"AX c #ADACAF",
"SX c #AD959C",
"DX c #DD8584",
"FX c #E68988",
"GX c #BFC3BA",
"HX c #C0C3B6",
"JX c #BFBCC2",
"KX c #BEC4C8",
"LX c #D0D4D5",
/* pixels */
"                                                                                                                                ",
"                                                                                                                                ",
"                                                                                                                                ",
"                                                                                                                                ",
"                                                                                                                                ",
"                                                                                                                                ",
"                                                                                                                                ",
"                                                                                                                                ",
"                                                                                                                                ",
"                                                                                                                                ",
"                                                                                                                                ",
"                                                                                                                                ",
"                                |                                                             [                                 ",
"                                o.                                                          o.]                                 ",
"                                +.                                                          @.]                                 ",
"                                | vX                                                      nX]                                   ",
"                                ~ nXbX                                                  nXxX/                                   ",
"                                ~ O.bXbX    o.                                  @.    bXbXO.~                                   ",
"                                  } nXbXo.~ NX                                  nX[ >XbXnX{                                     ",
"                      [           ~ { O.MXMX]   B.Z.  t.y.S.F.L.Z.S.e.2.      / } MXMXO.[ ^           /                         ",
"                        @.        W ! }  XAXLXJXs.S.t.3.;.C.a.Z.p.C.3.%.4.H.y.LXJXAXO.] ~ W         @.                          ",
"                        bXzX        ~ } o.mXAXLXe.P.t.<.,.i.A.d.H.u.t.0.y.I.j LXAXNX} ] ~         bXO.                          ",
"                        ] } zX      W } @.X.{ MXf.J.p.u.a.C.2.J.2.u.V.C.V.J.4.xX+.{ | [ W       MX} }                           ",
"                          } +.NX{ P.S.b ^ { ! g.A.p.0.A.S.V.:.%.0.p.S.u.0.V.S.M.` ] ~ z u.H. XMX+.]                             ",
"                            ] xX+.( 4.t.D.Z.F.y.y.y.u.t.0.<.d d d 9.w.H.H.w.y.V.Z.D.V.=.u.' nXo.]                               ",
"                            ! ` X.P.e.s :.*.=.*.u.A.H.J.C.V.i u %.y.H.L.I.V.q.;.;.=.<.a g J.' ` ^                               ",
"                          Z.C.A.S.C.A.V.;.:.0.:.a.V.I.P.J.C.9.p w.H.K.U.I.H.u.%.r s a V.C.D.S.C.u.u.                            ",
"                        a.C.<.u.2.%.a s 6.t t <.0.i.U.T.P.i.i.&.d.V.E.Y.P.u.9.r j c z j $.%.0.V.p.a.                            ",
"                      V.y.<.,.u.D.J.0.l.z c.l.`.j.*.p.C.P.P.S.g L.F.F.S.u.j z v.c.c.l x.y.J.p.y.0.=.C.y.                        ",
"                      9.<.u.H.u.V.A.v.b.n.v.c.b.6.6.3.Y.T.G./.W.h.S.D.u.>.6.x.m.c.b.M.l.l S.y.V.S.9.9.9.                        ",
"                      -.d %.0.:.:.c.m.`.n.6.l {.|.l f W.Q.*X:X-X&X*XQ.h.j l ].|.l.l ).'.m.l :.:.0.-.d %.                        ",
"                      $.e i i j.n.n.[.|.$Xn.z.z.N.b.x !.-X2X3X-X2X2X;X!.x n.N.z.z.'.}.].N.n.v.z i e 7 r 0.q.                    ",
"                    y.:.y y u m.`.N.XXOX|.`.N.v.~.}.c.!.;X3X2X:X2X:X;XQ.n.[.`.x.N.`.{.#XoXn.'.c.a y y 0.y.9.                    ",
"                  9.y.i.u.t p f f `.`.}.+X^.[.XXDXFX+XoXB.k.!.:X=Xb.).oXDXFXFX|.`.].#X].[.n.4.g s t V.u.0.9.,.                  ",
"                  &.-.;.:.u.S.7 c f v.v.`.N.OX@X@XXXXXOX@XDX/.n./.DX#X$XXXoX@XDXoXN.`.x.z 7.4.r S.,.:.%.-.&.5.                  ",
"                  5.w e i d 9.$.E O. .g.BXk j.oXOXOX+X#XoX@Xb.|.~.DX+X+XoX`.].XX].B BXM._ | n 9 0.-.i t w 4.                    ",
"                  ,.$.w e u w %.3 T ^ 3 mX8...g j.v.XX#XXXXXb.|.n.XXoX#X).l.6.N.m h MX3 ~ 3 4 e %.u u 7 $.<.                    ",
"                V.J.C.9.e w e n.h.b S - %X3 MX/ v.6.l x.n.].n.b.v.).n.c.6.6.7.[ mX3 ` A - v h..Xe w e 9.S.J.u.                  ",
"                V.C.V.9.9 7 7 c ,.X G O ~ 1 ` V G c / v.6.l M.m.v.6.v.n.( b H Q ~ 1 3 O = L g c 7 7 9 9.C.A.V.                  ",
"                u.u.9.$.u w 7 &.% X - $ - O 1 < F 4X>X .n M..XDX.Xc.4 >X%X, # 2 J < O U < # X f r u u i 0.u.y.                  ",
"                w.9.%.%.:.%.%Xe X $ L U 9XO O - S 8XC ) O VXW ^ J MX# / ` S + 9XI 6X$ P # X & 9 ! p :.%.%.0.9.                  ",
"                9.y.C.w.q.y.mXd 9 # @ X 9XO @ o P tXU - , L J ,XV < P 6X- @ - wXK S F o , * 6 q xX>.,.*.A.0.9.                  ",
"                  9.y.u.q.0./ a w X . X - F o . 8X0X, A Z 0X8XwX4XP < I > > + 5X5XG - F + * 6 9 _ :.V.&.y.9.w.                  ",
"                i.y.w.S.e.S.V.<.e X X U = F o . qX4X> A F eX8XqX7XU D P A ; ; I wX- L @ = * 6 9 ;.i.Z.9.0.y.                    ",
"                  5.>.A.i.J.P.e.u X X U o L O o 4XS A D P eXqXtXqX4X4X0XD > ; : I O L O = & h a u.H.D.0.9.5.                    ",
"                  q.;.V.S.w.L.<.a % O 6X. F o O 4XA Z D K uXeXtXqX7X5XY A > > $ < . L O $ & s 0.C.S.f.u.:.5.                    ",
"                  a.u.0.i.H.H.M x ~ rX- o = 6XF Z A F 4X8XeXkXsXyXeXiX5XD A Z I # @ 6Xo 8 +.c 0 H.H.u.;.a.y.                    ",
"                  u.V.3.:.d.P.CXO.HX#.O % rX= > A A K 8XqXyXsXlXpXyXtXpXK D A S # - # r O.GXZXZXL.s.9.;.V.u.                    ",
"                  i.i.y.0.5.L.0 3 xXm H tXF > A D K 7XeXyXpXjXkXdXpXyXyXwXK D Z yXrX@ h xXxXb M H.>.V.w.y.y.                    ",
"                    V.w.9.5.u.S.Z.5.%.u 2 , > A D K 4XeXtXpXdXjXfXpXiXpX8XP D Z S H u y.V.s.U.F.p.*.0.y.u.w.                    ",
"                    u.0.-.s w.D.P.f.&.y.8 + ; > A F 4XqXeXpXdXjXsXiXyXpX7XU K D L v t.V.Z.s.P.Z.e.&.-.0.y.                      ",
"                      2.s >.7.4.e.J.D.&.y X + ; A A K 7XqXgXpXsXpXtXeXyXY Y uX9Xq h <.u.P.P.f.4.7.:.9.q.0.                      ",
"                      u.w.u.S.A.4.0.y.&.;.a 6 @ > , S K 5XiXyXiXtXqX4X8XtXhXF h d -.<.t.y.D.0.2.A.0.y.y.9.                      ",
"                      :.-.>.0.*.t z.( 5.g r M.3.Q CXQ - iX6XwXtXqX4X7XeX~ mXn j z.s c ;.<.z.a i.r.3.i ;.;.                      ",
"                      t   $.:.a u.L.L.q.X.,.=._. .AX+.b S Y 4XwX4XP 5X3 zXbX/ M.5.,.X.w.K.F.0.;.;.$.  a                         ",
"                      i V.  %.9.4.d.U.T.0 ZXM ,. .NXbXW 5 ,XL K P >XC ^ bXmX( 9.T cX8.Y.U.e.%.<.-.<.  e                         ",
"                        s ;.a A.H.H.Z.P.P.C.2..X0 { mXE y.nXVXa.VXBX0.^ NXX.*. Xd.F.Y.G.Z.J.J.A.t %.e                           ",
"                        4.r y.Q H.U.H.Z.F.Y.R.A.3.i a e.C.4.p.S.8.4.V.q.k i *.H.T.U.Z.A.H.I.p.T M.                              ",
"                        N N ..LX' P.P.S.I.I.I.K.2.%.t C.D.H.L.J.H.H.S.S.r $.u.J.H.L.H.L.K.K. XLX X                              ",
"                            nXO.~ F.J.e.K.2.<.q.S.S.a.S.w.u.A.d.A.,.A.S.r.J.a.V.<.>.A.p.J.r.~ nX..                              ",
"                            ]   R C.s r S.a $.a $.a H.S.:.-.e $.e %.  V.J.d i $.  d V.  j A./ }  .                              ",
"                                        ;.:.9.%.C.  u.$.e i V.g C.  $.$.4.  A.p 9.:.            (                               ",
"                                          %.  i t 9.p 9 9   ;.;.y.  9 9 9.;.a i   %.                                            ",
"                                              i   u     e e u     u e     u   i                                                 "
};
