/* XPM */
static char *__attack1684622352[] = {
/* columns rows colors chars-per-pixel */
"64 64 247 2 ",
"   c None",
".  c #030205",
"X  c #0B0405",
"o  c #05040A",
"O  c #09050B",
"+  c #0B090B",
"@  c #050809",
"#  c #120C0C",
"$  c #050512",
"%  c #0C0413",
"&  c #0D0A13",
"*  c #090618",
"=  c #140817",
"-  c #161612",
";  c #360509",
":  c #351916",
">  c #250C11",
",  c #17210E",
"<  c #1B2613",
"1  c #193519",
"2  c #312D1B",
"3  c #090728",
"4  c #120926",
"5  c #04043D",
"6  c #090636",
"7  c #141138",
"8  c #26262A",
"9  c #3C3A3C",
"0  c #362C33",
"q  c #350423",
"w  c #490709",
"e  c #5D0507",
"r  c #5D0B0C",
"t  c #5B0607",
"y  c #591516",
"u  c #4F0F13",
"i  c #640305",
"p  c #6C0403",
"a  c #630A0A",
"s  c #6C0B0A",
"d  c #670808",
"f  c #740404",
"g  c #7B0404",
"h  c #7C0907",
"j  c #730B0A",
"k  c #7A0B0A",
"l  c #760807",
"z  c #6D120E",
"x  c #65170C",
"c  c #77140E",
"v  c #7A0E12",
"b  c #681413",
"n  c #7B1B15",
"m  c #791917",
"M  c #640C12",
"N  c #792514",
"B  c #762C0C",
"V  c #501725",
"C  c #641D22",
"Z  c #4A3938",
"A  c #502D30",
"S  c #762A29",
"D  c #713032",
"F  c #583E1A",
"G  c #2E5618",
"H  c #397124",
"J  c #436D1D",
"K  c #48463D",
"L  c #644312",
"P  c #030342",
"I  c #04034B",
"U  c #020355",
"Y  c #050459",
"T  c #100C43",
"R  c #040664",
"E  c #040378",
"W  c #04126D",
"Q  c #2A2841",
"!  c #483A41",
"~  c #3B4645",
"^  c #454645",
"/  c #4B4949",
"(  c #544A4A",
")  c #545555",
"_  c #5C5B5B",
"`  c #58565A",
"'  c #4E5257",
"]  c #645D5E",
"[  c #655855",
"{  c #754B48",
"}  c #58675B",
"|  c #66645E",
" . c #5D5E61",
".. c #615F61",
"X. c #5A6A6B",
"o. c #52696D",
"O. c #646363",
"+. c #6B6665",
"@. c #6C6B6C",
"#. c #646868",
"$. c #756C6B",
"%. c #696C71",
"&. c #726F72",
"*. c #757474",
"=. c #7C7B7C",
"-. c #777677",
";. c #677875",
":. c #840405",
">. c #8C0404",
",. c #840906",
"<. c #8D0C07",
"1. c #820608",
"2. c #840B0A",
"3. c #8B0B0A",
"4. c #8F0609",
"5. c #940403",
"6. c #9B0304",
"7. c #9D0A06",
"8. c #930508",
"9. c #940C0A",
"0. c #9B0C09",
"q. c #960807",
"w. c #8D130D",
"e. c #84120B",
"r. c #92120B",
"t. c #9A110D",
"y. c #831B1B",
"u. c #8C1C1D",
"i. c #861718",
"p. c #941617",
"a. c #8F0A13",
"s. c #A30404",
"d. c #AC0404",
"f. c #A40A05",
"g. c #AA0A05",
"h. c #A40609",
"j. c #A40B09",
"k. c #AB0C09",
"l. c #AD070B",
"z. c #B30304",
"x. c #BC0303",
"c. c #B30B05",
"v. c #BA0A05",
"b. c #B5090A",
"n. c #A8130C",
"m. c #B41508",
"M. c #B21411",
"N. c #8C2A15",
"B. c #AD2603",
"V. c #A21820",
"C. c #8A2A28",
"Z. c #932B2A",
"A. c #962929",
"S. c #99322E",
"D. c #8C3A36",
"F. c #9C3434",
"G. c #993836",
"H. c #94342F",
"J. c #A13434",
"K. c #A53B3A",
"L. c #B3232A",
"P. c #881F24",
"I. c #C30303",
"U. c #CB0303",
"Y. c #C80C08",
"T. c #D30303",
"R. c #DB0303",
"E. c #D90608",
"W. c #D01109",
"Q. c #D61616",
"!. c #E30303",
"~. c #EC0304",
"^. c #ED0B0B",
"/. c #E80808",
"(. c #F10203",
"). c #F20808",
"_. c #F61715",
"`. c #ED1412",
"'. c #F0331E",
"]. c #F32924",
"[. c #F23726",
"{. c #B24C0F",
"}. c #91592F",
"|. c #A1502D",
" X c #D87E17",
".X c #AE3F42",
"XX c #9B3244",
"oX c #9C5953",
"OX c #9F4A46",
"+X c #AB4745",
"@X c #B44A4A",
"#X c #B64848",
"$X c #BB5353",
"%X c #BD5A58",
"&X c #AE534D",
"*X c #B6685E",
"=X c #B76C67",
"-X c #887065",
";X c #C45B5A",
":X c #C0605F",
">X c #C65F63",
",X c #C86866",
"<X c #CC7774",
"1X c #CE7372",
"2X c #468631",
"3X c #698578",
"4X c #9D811D",
"5X c #B2A430",
"6X c #E3B22D",
"7X c #CDA71E",
"8X c #8A897D",
"9X c #CD8678",
"0X c #E9DF62",
"qX c #040987",
"wX c #070B8C",
"eX c #0402A7",
"rX c #0403B7",
"tX c #7B7D82",
"yX c #0602C8",
"uX c #0403D8",
"iX c #0303F5",
"pX c #1906FA",
"aX c #788B8F",
"sX c #72ACA0",
"dX c #858585",
"fX c #858A8C",
"gX c #8B8A8B",
"hX c #888887",
"jX c #8D8E92",
"kX c #878E90",
"lX c #869895",
"zX c #939494",
"xX c #98999B",
"cX c #91908D",
"vX c #AA8790",
"bX c #89A599",
"nX c #A2A49C",
"mX c #999CA2",
"MX c #9AA6A9",
"NX c #8CAFAC",
"BX c #A4A5A5",
"VX c #B5B5B8",
"CX c #D58887",
"ZX c #E58C90",
"AX c #E79EA2",
"SX c #CDCFCD",
"DX c #D2DEE2",
/* pixels */
"                                                                                                                                ",
"                                                                                                                                ",
"                                                                                                                                ",
"                                                                                                                                ",
"                                                                                                                                ",
"                                                                                                                                ",
"                                                                                                                                ",
"                                                                                                                                ",
"                                                                                                                                ",
"                                                                                                                                ",
"                                                                                                                                ",
"                                                                                                                                ",
"                                *.                                                          &.@.                                ",
"                                *.                                                          =.+.                                ",
"                                *.                                                          *.O.                                ",
"                                &.dX                                                      gX@._                                 ",
"                                | hX        _                                   ]         hX..                                  ",
"                                _ tXhXhX  O.&.                                  *.#.  hXgXdX_                                   ",
"                                ^ @.hXgXgX@.jX              ^.].^.z.h.          zX@.jXgXhXO./                                   ",
"                                  ` -.gXzXdX^ u.      c./.~.(._.~.7.z.U.  d.z.D Z gXzXhX*.)                                     ",
"                      *.=.        ' ` +.zXBXDXXXt.!.M.c.I.x.U.c.I.x.6.2.,.!.f.vXSXBXgX#.` /         =.                          ",
"                        gXxX      ^ ) O.$.jXBXDXn.~.l.j.9.v.!.c.!.z.s.s.z.(.3.DXVXdX@...) /       MX*.                          ",
"                        +.gX=.    z.' @.%.-.-.mXM.~.v.g.z.g./.R.!.g.j.s.d.~.2.MX-X@.@.@./       hX-.O.                          ",
"                          O.xX=.X.T.l.) @.%.%.-X/.T.f.R.U.I.3.z.6.I.T.T.g.T.Y.tX&.*._ / h.!.+.gXgXO.                            ",
"                          ] +.jXkX| 3.d.U.9 / u.k.z.s.v.I.d.,.g 2.I.g.k.!.f.U.S ( K R.k.g.} hXdXO.                              ",
"                            ' X.%.Q.e.2.r.U.E.!.h.x.R.T.I.z.h f 5.h.U.~.~.k.9.T.T.R.r.k 4.L.%.%._                               ",
"                          /.n.I.E.(.I.v.4.9.z.z.s.x.R.~./.I.,.:.s.Y.!.(.(.U.x.s.h z 5.x.I.~.m.v.b.E.                            ",
"                        U.!.k.2.2.x.U.q.r.j :.6.s.s.c.Y.T.R.U.d.R.!.~.~.U.I.d.m z l p.r.R.f.2.<.I.R.U.                          ",
"                      v.9.q.9.U.k.!.z.p.m b S h q.7.l.U.R.!.n.7.U.R.U.Y.I.g.2.b n N b i.6.R.z.U.w.5.9.I.                        ",
"                      z.6.x.R.x.T.!.2.i.C.C.C.&XC.c x.)._.~.x.: U.^.^.W.I.m F.+XC.y.C.u.v ~.x.x.T.q.d.f.                        ",
"                      h :.h.I.d.d.v J.F.A.N.n Z.S.C.j {.< - B.B B.- < B s Z.A.S.P.B K.F.F.v d.s.I.<.>.l                         ",
"                      d l 1.6.h :.J.+X&X.XN n C.G.C.M {.< J 5X0X4XJ , N.M C.H.F.n N K.&XF.G.1.g 6.l f d q.                      ",
"                  s.x.1.p p j S.+XK.$X1X#XF.Z.y.G.&Xm 6X1 H 6X0X5X2X< 7XB OXJ.N D.G.#X<X@XA.F.H.f p p 1.d.6.                    ",
"                  s.I.g.j e l v C.#X;X*X,X%X%X.XA.A.F.C 7X1 J G J 1 &XA.J.S.A.#X$X,X,X%X$X#XH.u.j r h z.d.s.                    ",
"                6.6.d.U.U.f.z.U.y m A.$X$X@X;XZXZX,X*X+XJ.|.1 < L }.A.+X&X<XAXZX#X.X.X|.G.m n.l.f.f.U.I.d.6.                    ",
"                <.e.l g 6.s.T.x.3Xy v v .X%X<X;XF.F.#X#X;X.X9Xm 9XF.@X@X.XS.A.,X1XZ.y.i.u.: D.6.T.8.6.g j e.                    ",
"                  q.a i f l 6.a h.$.X.z lXV.M m Z.K.=X1X,XCXC.CX$X<X,X1X;XK.S.c l b MX: [ X.4.s 6.g f e g :.                    ",
"                  f.s.i p f f u.l 9 Q V tXS =.l M i.K.;X@X*XC.OXF.*X@X>XK.y.r s ;.y aX7 0 ~ j P.f f i p 6.6.                    ",
"                R.(.U.d.i e d }.8.r Y & O.9 tX' j p.i.y.C.F.S.S.F.J.P.u.i.y.s $.dX0 ' * 4 h <.}.d e p d.!.~.U.                  ",
"                v.I.I.s.t e i B s > o o ' 8  .^ > F ( S.u.N S.A.A.i.A.J.] 2 # [  .8 K % * :.c N.i e e s.U.T.I.                  ",
"                z.x.d.1.f p a l a X . . 4 & - $ . + 8X$.A D =XvXoXD 0 8X8X. . O - = = 6 % X f b a f f 1.d.x.z.                  ",
"                s.>.5.5.s.z.aXx e X . . & O . . @ X ;.#.+ mX8 -.8 tXX ` X.R = o % wX$ o . X g V ;.g.5.1.>.4.f.                  ",
"                f.z.T.d.4.f.lXl t . . X O o . . @ R o o @ X 8 MXO.# . X o O & O % T o o . ; h t cXl.3.3.T.z.h.                  ",
"                  z.I.T.9.!.X.b t . . O & . . @ R $ . . . . . . @ qXo . . o o 6 3 4 . . . ; 8.z } R.j.k.I.d.g.                  ",
"                B.t.0.R.'./.'.9.k # O W o o o o W o o o o . o % @ O R = . . . O 7 $ . . . w q.s.[.^.`.!.h.<.                    ",
"                B.v.0.!.W.W.).<.6.> 4 W o o o o W o o 3 3 3 5 R P 6 5 * . . . $ 4 o . . X w e.R.).U.Y.!.7.x.                    ",
"                  U.f.s.7.R./.$.A NX= + o $ I * . o 5 5 P U wXrXwXI P P . . . E 3 . . @ N MX} o.~.T.h.g.d.I.                    ",
"                    x.R.2.z.(.mXbX#.lXqX6 W $ . o . I U U eXuXiXyXeXR U 5 . . $ qX% O u -XMXNX| ^.h.q.U.x.v.                    ",
"                    z.g.U.w.~.r.b NXn wXqX* . . . o R R E uXiXpXiXyXE E R . . o qX4 = g k sXb b.E.v.U.d.z.                      ",
"                      7.l j t.R./.U.I.d.; @ . . . o I R E eXuXiXuXeXE Y U . . . % q a t.T.I./.Y.p.k h l.z.                      ",
"                      7.k.x.r.r.I.T.R.<.k ; X . . . 5 I I qXeXyXeXE U I $ . . . :.s k T.!.v.9.2.9.I.l.s.d.                      ",
"                    z.z.d.z.R.c.t.g.I.e.d.r ; . . o o I 5 U E E Y U I I O . X w p g 2.d.I.9.g.T.I.z.d.d.d.                      ",
"                    5.5.>.q.z.7.c.t.n.f.B z C.6.Z VX( + % 5 5 5 P 6 O o +.mX0 a D.h x 7.k S c d.h.5.4.q.6.                      ",
"                    6.f   :.6.k v./.~.k.D f.<.-X..BXdXF # -.$ $ $ -.& 2 &.tX] S 8.g.| k.^.E.I.1.4.:.  s 5.                      ",
"                    3.x.  ,.>.6.l T.`._.N.NXk.k.$.zXcX( 2 gX| 9 | zXK ^ fXfX( 7.d.sXp._.^.x.s :.,.    z.5.                      ",
"                      l x.x.s R.M.(.7./.`.I.t.oXM %.jX^ z.cXlXm fXlXd.^ kXX.9.oXn.W.`.).9.(.z.R.s z.h.5.                        ",
"                            { tXSXV ~.U.W._.].R.<.g s h.U.n v.!.n.e.Y.7.z :.k !.[.).W.!.!.A SXaX                                ",
"                            $.jXxX0 ~.!.(.~.~.W.0.4.j I.T.~.!.!.R.!.R.T.a ,.v.(./.^.!.~.~.] xXzX                                ",
"                            ] ..] ! ~.z./.9.s.7.R.R.k.!.!.I.f.<.x.T.!.T.k.~.v.g.f.r.T.z.(.Z ` %.                                ",
"                              O.  y p s R.l g :.h s R.R.z.q.5.5.g ,.7.U.!.:.:.>.h 2.U.s l b / /                                 ",
"                                    d f g.6.g l   >.x.  d.d r 6.r s   s.d.s   :.g s.7.        (                                 ",
"                                      l :.  >.>.  x.h l p :.x.T.g.  g g :.I.  :.6.5.                                            ",
"                                          f g   s i f t i   z   <.  e t p p f   f f                                             ",
"                                              g f f     p d 5.    l p e     f                                                   "
};
