/* XPM */
static char *__attack1684622352[] = {
/* columns rows colors chars-per-pixel */
"64 64 243 2 ",
"   c None",
".  c #140B0A",
"X  c #1B1E08",
"o  c #1B1115",
"O  c #281918",
"+  c #311513",
"@  c #1A2C10",
"#  c #2B2E16",
"$  c #342D37",
"%  c #3B3B3C",
"&  c #363538",
"*  c #342D29",
"=  c #1C1530",
"-  c #490708",
";  c #5B0404",
":  c #580808",
">  c #5B1816",
",  c #501312",
"<  c #620504",
"1  c #6C0303",
"2  c #660909",
"3  c #6B0B0A",
"4  c #680708",
"5  c #730404",
"6  c #7C0404",
"7  c #730B0A",
"8  c #7B0C0B",
"9  c #760707",
"0  c #6A100E",
"q  c #73100C",
"w  c #690E13",
"e  c #681415",
"r  c #731414",
"t  c #7C1A1A",
"y  c #791716",
"u  c #542D18",
"i  c #7D271B",
"p  c #752A0E",
"a  c #6E1E29",
"s  c #562827",
"d  c #49393A",
"f  c #53392B",
"g  c #632224",
"h  c #7B2924",
"j  c #713436",
"k  c #365826",
"l  c #3B413F",
"z  c #356A27",
"x  c #4E4935",
"c  c #42732B",
"v  c #0E104C",
"b  c #321956",
"n  c #13146E",
"m  c #251E74",
"M  c #423D42",
"N  c #3E4B4A",
"B  c #454545",
"V  c #4A4645",
"C  c #4B4A4B",
"Z  c #474947",
"A  c #544D4D",
"S  c #5B4945",
"D  c #58554D",
"F  c #484A51",
"G  c #544C51",
"H  c #545352",
"J  c #5A5555",
"K  c #5D5B5C",
"L  c #555759",
"P  c #4A5755",
"I  c #625A5A",
"U  c #734C5B",
"Y  c #64635C",
"T  c #72685A",
"R  c #555862",
"E  c #645968",
"W  c #586666",
"Q  c #53666C",
"!  c #646263",
"~  c #6C6B6B",
"^  c #666669",
"/  c #74696A",
"(  c #76756E",
")  c #696C71",
"_  c #746C75",
"`  c #6A7678",
"'  c #747474",
"]  c #7A7A7C",
"[  c #77787A",
"{  c #840404",
"}  c #8C0403",
"|  c #840A06",
" . c #8C0906",
".. c #840B0B",
"X. c #8B0D0B",
"o. c #890609",
"O. c #940303",
"+. c #9B0303",
"@. c #930C05",
"#. c #9B0A06",
"$. c #930B0A",
"%. c #9B0B0A",
"&. c #990508",
"*. c #861608",
"=. c #961309",
"-. c #8C0F11",
";. c #960C15",
":. c #821414",
">. c #831C1D",
",. c #871B17",
"<. c #951516",
"1. c #A40303",
"2. c #AB0303",
"3. c #A30A05",
"4. c #AC0904",
"5. c #A40B09",
"6. c #A80709",
"7. c #B30403",
"8. c #BC0303",
"9. c #B40905",
"0. c #BB0A05",
"q. c #B30C0B",
"w. c #B90909",
"e. c #AB1507",
"r. c #B61307",
"t. c #B91413",
"y. c #B30B11",
"u. c #84221D",
"i. c #8B211E",
"p. c #8F2B1C",
"a. c #8A1E21",
"s. c #8C2523",
"d. c #882825",
"f. c #932A26",
"g. c #932B2B",
"h. c #952727",
"j. c #96312D",
"k. c #9C3331",
"l. c #9A3635",
"z. c #962E31",
"x. c #A32929",
"c. c #A13535",
"v. c #A43C3A",
"b. c #A73B3B",
"n. c #B92731",
"m. c #AD2204",
"M. c #C30303",
"N. c #CC0303",
"B. c #C30A05",
"V. c #CB0B06",
"C. c #C30A0A",
"Z. c #CB0609",
"A. c #D30302",
"S. c #DC0303",
"D. c #D40A04",
"F. c #DC0905",
"G. c #D7090A",
"H. c #C91310",
"J. c #E30303",
"K. c #EB0302",
"L. c #E30B05",
"P. c #EC0C0D",
"I. c #E80908",
"U. c #F30402",
"Y. c #FA0403",
"T. c #F30908",
"R. c #F81313",
"E. c #F00E11",
"W. c #F83632",
"Q. c #AD413F",
"!. c #B5453B",
"~. c #9D4337",
"^. c #A33F41",
"/. c #B03F45",
"(. c #91494C",
"). c #AC4242",
"_. c #AB4A48",
"`. c #B44C4C",
"'. c #B34747",
"]. c #BB5454",
"[. c #BD5B5A",
"{. c #BB5556",
"}. c #AB534F",
"|. c #92694D",
" X c #897C76",
".X c #B86568",
"XX c #9F5F64",
"oX c #C35C5C",
"OX c #C15556",
"+X c #FF5F5F",
"@X c #FA4C4B",
"#X c #C8605F",
"$X c #C96767",
"%X c #D26B6C",
"&X c #CC7473",
"*X c #D47273",
"=X c #D8767A",
"-X c #D27070",
";X c #FF7B7B",
":X c #7D867D",
">X c #83857E",
",X c #DB817E",
"<X c #031497",
"1X c #29228E",
"2X c #7A7D83",
"3X c #667E83",
"4X c #060CD7",
"5X c #1823C2",
"6X c #D87D81",
"7X c #7C8585",
"8X c #7C9989",
"9X c #6EA599",
"0X c #64C7B1",
"qX c #848484",
"wX c #868689",
"eX c #848A8A",
"rX c #8B8A8C",
"tX c #898887",
"yX c #999A99",
"uX c #959596",
"iX c #8C8F91",
"pX c #A79895",
"aX c #BA9798",
"sX c #96A59A",
"dX c #AFA59D",
"fX c #9C9EA1",
"gX c #A19DA2",
"hX c #9AA4A8",
"jX c #93B1B4",
"kX c #A4A3A4",
"lX c #A9A9AA",
"zX c #B0B3B4",
"xX c #DE8385",
"cX c #E48C8D",
"vX c #E99394",
"bX c #EF9399",
"nX c #EDA7A6",
"mX c #D99EA5",
"MX c #CCC0BE",
"NX c #B6CACC",
"BX c #B8D0D2",
"VX c #B2D7E0",
"CX c #D2CFCF",
/* pixels */
"                                                                                                                                ",
"                                                                                                                                ",
"                                                                                                                                ",
"                                                                                                                                ",
"                                                                                                                                ",
"                                                                                                                                ",
"                                                                                                                                ",
"                                                                                                                                ",
"                                                                                                                                ",
"                                                                                                                                ",
"                                                                                                                                ",
"                                                                                                                                ",
"                                          ^                                       !                                             ",
"                                          ~                                       /                                             ",
"                                        ~ rX                                      wX~                                           ",
"                        !             ~ qXuX                                      yX[               !                           ",
"                        !             ~ wXkX                                      kX'               !                           ",
"                        K ~           K ' lX'                                   rXkX~             ~ H                           ",
"                        K ! ^         H ~ fXuX        7.  5.4.9.9.5.          [ uXyX!           ' K Z                           ",
"                        J H ' wX        ! rXiX2X` %.1.1.U.U.U.T.K.A.N.2.7.  ` 2XwXqXK         qX) A C                           ",
"                        B Z ^ ' [       ! 2X(.2.7.M.8.V.I.q.J.K.K.9.9.D.M.8.7.2.qXqXK       tX[ ! C                             ",
"                          Z Z ~ tXyX  * , 2 | M.N.M.N.J.D.S.;X+XP.A.2.S.6.M.N.M.6 4 + V   yXtX! H Z                             ",
"                            B L ' eXhXyXl.H.T.U.Y.N.B.J.D.F.+X@X@XJ.3.J.6.A.U.Y.G.t.XXpXfX>X[ H Z                               ",
"                            % B ! ' uXzXNXCXlXH.Y.D.6.J.S.G.W.+XR.K.4.J.1.A.Y.(.pXCXzXzXuX( K Z &                               ",
"                            a % C J ' rXkXCXCXiXP.V.5.K.w.J.P.Y.K.A.C.U.#.A.aXdXCXCXkXrX_ D C & q.                              ",
"              K wXqX      8.J.g l C ! '  XkXzXeXP.w.N.J.U.V.0.K.9.N.Y.M.7.J.CXpXdXkX_ ( I V % 6.S.        qX'                   ",
"                  I 7XlXlXn.X.G.s % C ! ! ~ [ 3XT.B.4.8.J.Y.7.8.7.Y.Z.M.1.0.Y.[ ( _ ^ ! C & 8 q.;.n.pXhX' H                     ",
"                  I J [ hXhX7XQ K.f & Z L W ` G.J.M.5.8.&.D.A.4.K.w.2.9.5.8.K.A.W ^ C B & s J./ tXhXkX[ A                       ",
"                      L J 2X7X) P.y #.w.Z.D.J.N.8.6.U.U.M.2.M.A.6.7.S.U.S.#.7.A.S.C.C.0.7.F.e.) qX' C S                         ",
"                      S.w M R P H.A.@.{ 6 &.7.7.M.N.S.S.0.&.9 6 6 %.8.N.S.N.8.7.1.{ | | O.A.w.Q W & $.9.                        ",
"                      V.K.K.u :.S.A. .O.1.8.0.8.B.U.J.S.M.2.6 1 { 1.M.K.U.K.N.8.8.8.2.6.1.7.S.-.g K.I.6.                        ",
"                    q.7.J.J.-...6.8.2.$.O.@.1.0.M.K.Y.Y.V.8.{ 6 } 8.D.Y.Y.J.M.7.+.@. .8 A.N.q.D.G.K.K.6.7.4.                    ",
"                  7.8.6.M.1.2.1.O.| 7 s.0 8 8 } 2.0.N.Y.Y.N.A.+.8.N.U.K.N.7.1.O.9 q 0 j...$.#.8.A.A.8.2.7.2.                    ",
"                &.8.9.S.$.2.0.M.K.J.o.r s.t y 3 h O.} 1.7.M.2.@.7.7.9.1.| } d.7 r y >.t o.K.U.M.7.9.| A.8.6.+.                  ",
"                *...| #.8.S.3.7.S.4.{ k.i ,.d.y q 1 d...&.2.2.+.1.3.+.7 ,.2 0 y t i.i z.o.7.J.M.$.K.#.1.| o.*.                  ",
"                @.2 ; 5 | 8.} +.X.X.k.c.h.p g.d.d.t , 3 X X X X X X X : , >.d.f.j.p g.Q.z.} O.+.} 7.} 6 < 2                     ",
"              M.N.} 5 1 2 1 7 >.,.}.b.$X$Xk.f.i.g.g.w ..# @ c c z @ @ :.3 k.d.s.i.v.].[.k.'.(.l.5 1 < < 5 +.N.8.                ",
"              Z.S.7.$.1 ; < g.g.b.%Xk.-X*XoXQ.l.g.g.d.h j.* z k k # h.s.g.l.f.k.Q.oX*X$XQ.&Xv.u.d.< ; 1 O.7.S.M.                ",
"              7.N.7.O.< 1 3 i u.l.).v.[.oX*X&X#X`.k.>.>.t y r r t t t >.s.z.`.$X-X&XOX].Q.}._.e > 1 5 4 +.7.M.8.                ",
"              4.7.+.{ } 1 8 q u.z.h.c.'.].].{.xX*X[.[.'.k.g.y r a.h.c.`.].[.=XcX#X].`.`.k.h.g.p x : 3 } { +.7.8.                ",
"              7.2.O.6 +.1 4 e 0 s.a.g.).]./.$XcX*XoXoX`.`.).c.r l.^.].].$XoX=XcXoX'.`.b.g.>.e p ! : 5 O.6 O.7.4.                ",
"              7 } { +.O.5 O ! d _ 7 h '.Q.[.6X'.z./.].oX=X=XOX>.$X=X=X{.OXb.b.$XxX'.`.'.u.r h & >X+ 1 +.+.6 } }                 ",
"                1 6 O.6 ; o L A gX[ t g.c.].).OX%X6XOX{.=XbXnXk.nXvX-X`.'.=XoXOX).OXk.h.:.r / P T + ; 6 } 5 5                   ",
"              +.+.+.5 5 ; ; . O ! 2Xe >.i.h.c.OXoX-XxX[.bXbXcXz.xXvX,X].cX%XOX`.c.j.x.t 0 uXrXO . - < 5 6 1.+.*.                ",
"              6.4.7.7 +.h - - o $ / M e - >.h.).`.$XcX$XxXbX*X#XcXcX=X*XxX$X`.b.u.:., -.! ) L . - - h #.6 9.6.+.                ",
"              #.M.V.4.N.jXp ..- M v S iXfXI + >.u.k.$X*X{.$Xh..X'.$X).*XOXk.,.y O C eXqXS H * 2 r r NXu.8.N.2.1.                ",
"                3.M.0.V.( f :.X.0 : v R [ F uXt w y g.'.`.[.l.^.x.[._.Q.s.u.3 t yXY ` $ v D O :.q f sXH.3.N.4.#.                ",
"              r.8.1.9.L.B.A.u N ` > v = C M >Xg w s.h.s.t a.l.^.k.u.u.d.,.s.w g  XK C = v 1 d S x N.0.I.S.4.0.e.                ",
"                r.1.+.K.Y.R.E.A.8Xo.a 4 n * L M & D pXQ s.d.Q.}.f.s.f.L yXV $ B B * v 5 g p.BXC NXx.U.F.+.2.m.                  ",
"                r.5.@.| A.I.W.T.M.=.e 9 : v <X_ 2X$ tXB |.|.|.pX|.|.|.Z iXC [ E , $.%.> *. .hXe q L.e.1.3.M.e.e.                ",
"                  7.1.7 { ..S.F.P.L.X.6.&.9 n _ tX] m 4X1XG b U m I 5X4Xb qXwX) h <.u.#.=.9.S.E.C.8.| N.4.7.4.                  ",
"                  1. .h.%.O.O.7.B.I.7.<.;.6.1./ qXuXu <XK  X<X1Xm T J b $ wX7XL %.%.2.d.t.D.K.2. .@.N.9.6.7.                    ",
"                  @.1.k.c.}.O.8 { 6.R.A.H.9Xb.I 3XtXP &.7XhX-.;.e fX7Xq C wX( j 8X0XH.Z.R.r.6.O.| N.4. .1.+.                    ",
"                  O.+.f.c._.| o.2.O.I.P.L.t.y.1.` 2X<.8.7XhXq.S.%.hXiX7.s 2XC 6.t.w.F.E.F.2. .$.q 8.1.}   +.                    ",
"                  } 6   <. .O.#.+.1.2.J.P.T.U.=.#.+.4.A.S.J.K.T.U.J.L.N.7.+. .6.U.R.U.J.3.O.=.:.9 +.| 2.3 O.                    ",
"                    } 3  .A.L.S.U.D.+.O.M.B.B.K.I.K.K.S.0.F.J.J.L.S.e.F.J.K.I.K.Z.8.8.7.} !.,.J.N.{ { 8.                        ",
"                      | 3.B.BX.Xt.K.o.} o.7.7.M.D.K.M.8.9.A.A.S.S.N.N.7.A.K.K.0.7.6.{ } i.J.K.F.J.A.8                           ",
"                        U / ] P G.J.&.J.S.1.$.1.7.M.+.$.0.3.M.N.M.$.2.| 2.9.7.1.1.8.S.S.4.I.q.NXVX3.p.                          ",
"                        ~ ^ ) L C.I.%.S.8.&.o.#.#.2.| S.{ 8.7. .N.8.| S.| 7.%.#.o.1.0.J.%.L.2.) ] '                             ",
"                        ! K ~ J A.J.B.5...  } 9 7. .K.K.  { +.7.} O.1.K.U.1.8.8 O.  | M.#.K.6.G ^ !                             ",
"                          J K & , 1 | M.8 6 { 9 6 N.S.#.O.9 } O.O.6 }   J.N.{ 6 {     7.7 2 , M I K                             ",
"                          A       8 1.4.8.{ 9 9 6 5   } < 1 { 5 6 2 < }   9 7   1 } #.O.          G                             ",
"                          j       t X.6.2.9 4 N.N.M.5 ; 1 6 1 1 5 5 5 ; 6 N.N.8.2 +.                                            ",
"                                              1 5 1 ; ;       1   1 < ; ; 1 5 5 9                                               "
};
