/* XPM */
static char *__attack1684324921[] = {
/* columns rows colors chars-per-pixel */
"64 64 237 2 ",
"   c None",
".  c #060404",
"X  c #0D0D0C",
"o  c #080606",
"O  c #150E0B",
"+  c #1B1306",
"@  c #15110D",
"#  c #1C140A",
"$  c #1F180B",
"%  c #1B1507",
"&  c #151413",
"*  c #1D1C1B",
"=  c #1B1712",
"-  c #3B0D09",
";  c #22140B",
":  c #2B140D",
">  c #221A0C",
",  c #281E0E",
"<  c #201707",
"1  c #33120D",
"2  c #241B11",
"3  c #2A1E11",
"4  c #201D1D",
"5  c #291614",
"6  c #311712",
"7  c #250F0D",
"8  c #2A210E",
"9  c #26200D",
"0  c #32250C",
"q  c #37280F",
"w  c #2C2312",
"e  c #2C231A",
"r  c #242019",
"t  c #322515",
"y  c #3A2614",
"u  c #352A14",
"i  c #3A2D16",
"p  c #32251A",
"a  c #362B1B",
"s  c #3C2D1A",
"d  c #3C261A",
"f  c #3F321F",
"g  c #1F1E21",
"h  c #222222",
"j  c #2D2C2C",
"k  c #282827",
"l  c #352C25",
"z  c #373029",
"x  c #343433",
"c  c #3A3936",
"v  c #3B3B3B",
"b  c #3B3535",
"n  c #2E3231",
"m  c #440A06",
"M  c #470B08",
"N  c #5A0B07",
"B  c #43100C",
"V  c #461915",
"C  c #581414",
"Z  c #54130E",
"A  c #640C09",
"S  c #6C0C09",
"D  c #640906",
"F  c #7B0805",
"G  c #74130C",
"H  c #6C1511",
"J  c #422E16",
"K  c #432E1C",
"L  c #413116",
"P  c #44321B",
"I  c #4A351C",
"U  c #4D391D",
"Y  c #543B1C",
"T  c #5A3B1C",
"R  c #54341C",
"E  c #6B321B",
"W  c #4E3A22",
"Q  c #473423",
"!  c #533C23",
"~  c #5B3D22",
"^  c #523621",
"/  c #433A3A",
"(  c #3F403E",
")  c #6C431E",
"_  c #5C4224",
"`  c #594126",
"'  c #47423F",
"]  c #52483D",
"[  c #634324",
"{  c #6A4524",
"}  c #65432A",
"|  c #6C452A",
" . c #6C492A",
".. c #6E4824",
"X. c #734A25",
"o. c #744C2B",
"O. c #7A4E2B",
"+. c #774828",
"@. c #7D522D",
"#. c #765029",
"$. c #7E5331",
"%. c #784F30",
"&. c #433F41",
"*. c #444443",
"=. c #4A4948",
"-. c #504E4D",
";. c #555453",
":. c #5C5B5A",
">. c #585856",
",. c #54514E",
"<. c #67584F",
"1. c #64615F",
"2. c #5D5D61",
"3. c #626361",
"4. c #6D6C6B",
"5. c #706D69",
"6. c #757475",
"7. c #7B7A79",
"8. c #6E6F71",
"9. c #870906",
"0. c #960807",
"q. c #A60807",
"w. c #B50805",
"e. c #AB130C",
"r. c #93261B",
"t. c #872F25",
"y. c #D70905",
"u. c #DA1A1A",
"i. c #E80605",
"p. c #F00A0C",
"a. c #F32A17",
"s. c #E92F2A",
"d. c #834D2A",
"f. c #83532E",
"g. c #8B562A",
"h. c #935C2A",
"j. c #855632",
"k. c #8C5B33",
"l. c #895833",
"z. c #925D34",
"x. c #945E39",
"c. c #9B5A39",
"v. c #9B6336",
"b. c #946139",
"n. c #9C643B",
"m. c #986538",
"M. c #8D603B",
"N. c #A2653D",
"B. c #A4693E",
"V. c #AA6B39",
"C. c #AA733D",
"Z. c #B76C3A",
"A. c #A95023",
"S. c #CC7332",
"D. c #DB5D26",
"F. c #9D6140",
"G. c #AB6C42",
"H. c #A56B44",
"J. c #B26E41",
"K. c #AE7143",
"L. c #B47244",
"P. c #BB7544",
"I. c #BC7649",
"U. c #BE794A",
"Y. c #B97746",
"T. c #817574",
"R. c #A45A54",
"E. c #C37C4C",
"W. c #C77B4B",
"Q. c #C67D52",
"!. c #D86F54",
"~. c #DB504F",
"^. c #7F807E",
"/. c #BE8333",
"(. c #A18257",
"). c #81817D",
"_. c #CC824D",
"`. c #CC8253",
"'. c #C78556",
"]. c #D38455",
"[. c #D38954",
"{. c #D78B5A",
"}. c #DB8C5C",
"|. c #D78758",
" X c #DB925D",
".X c #DD9262",
"XX c #DD8965",
"oX c #E49565",
"OX c #E69A6C",
"+X c #EB9C6C",
"@X c #E79967",
"#X c #F19D6C",
"$X c #D9A573",
"%X c #EFA16F",
"&X c #F0A16F",
"*X c #EDA171",
"=X c #E9A47C",
"-X c #F2A372",
";X c #F6AA7C",
":X c #F9AB7C",
">X c #F4A777",
",X c #F8B17F",
"<X c #E9A15C",
"1X c #817F85",
"2X c #838383",
"3X c #8C8B8B",
"4X c #898786",
"5X c #9A9998",
"6X c #928F89",
"7X c #A19F9D",
"8X c #ADAEAD",
"9X c #A6A4A4",
"0X c #B4B3B2",
"qX c #BBBABB",
"wX c #B3B0AD",
"eX c #FAB489",
"rX c #F9BB95",
"tX c #F3B288",
"yX c #C2BFBC",
"uX c #E59E9A",
"iX c #FBC29D",
"pX c #FAC8A9",
"aX c #F3CDB6",
"sX c #C4BFC0",
"dX c #C4C4C3",
"fX c #CACBCA",
"gX c #D5D4D2",
"hX c #DCDBDA",
"jX c #DAD8D7",
"kX c #CFCFCC",
"lX c #EDD9D7",
"zX c #EBE2DE",
"xX c #ECECEB",
"cX c #E8E5E5",
"vX c #F4E7E7",
"bX c #F3F2F2",
"nX c #DAE5CF",
/* pixels */
"                                                        K.XX-X+X`.&X+X.XG.                                                      ",
"                                              =.,.H.rX@X:XoXpXiX@X:XpXoX:XrXK.x.                                                ",
"                                          ( ^.=.j 4 XX].;XoX*XtXoXtX#XE.>XiXk & b 7X                                            ",
"                                    j T.=.*.p.C l d.d.Z.F.@XL.W.I.J.E.E.M.!.A ^ k u./ 2.=.                                      ",
"                                    x 3Xk 5 C # X Z.C f.h }.B.j.z.Q W.|.l i e.S.<.Z D -.:.x                                     ",
"                                    & k & # = o . R +.t j.$XQ.C.C.k.OX$XM.{ c.^ = r O 3 * * &                                   ",
"                                    . # P 9 w = O     = 3 E D.a.s.a.nXE t 2     @ o O , . o &                                   ",
"                                    X . . o =       q > p Z A./.<XS.<XV 0         O = 3 # &                                     ",
"                                             .n.l.I p u i E c.D.y.D.H.` J e l.m.                                                ",
"                              x.L.z.u > K } `.oXL.k._.X.i V.H r.t.t.h.C.s G.n.`.Q.^                                             ",
"                          G.}.eX`.c.W l.Q.].&X&X*X-X&X%X'._ I p $ s _ ! K.:X:X>XeXl.b.m.  ].|.E.                                ",
"                        G b.|.+XI.m.o.j.J.L.{.&X-X:XiXrXrX.XF.~ P k.}.OXpXpXpXpXrX}.Q.L.Q.OXrXXXB.H.                            ",
"                  w.0.r.~ w t P Q _ b.f.O.l.k.V.G.Y.E.Q.E.}.E.L.N.|.+X#X+X#X&X&XOXE.J.|.G.U.Q.N.Q..X                            ",
"                  9.  j.f.2 8 3 l.k.! i ! f.C._._.E.`.|.}.].L.E.b.E.}.}.I.N.b.z.x.H.j.%.} '.Q.tX+XE.                            ",
"                y.9.  V.~ > t i 5 > % > > i @.L.W.{.@X&X:XOXY.].L.@X*X*X+X-X-X:XeX:X Xw K N.H.W.oXoXo.                          ",
"                i.  ) W.z.> > > + + + % < 5 , , , I @.b.H.H.l.U.Q.k.U.W.H.#.Y ! [ o.! K @X*X@X:XpXeXU.                          ",
"                i.  6 { U $ > $ < > , $ ..s  .R , > $ > > > } G.L.P t w 8 > 3 < > > > B.OX=XtXtXeXeX_.N.                        ",
"                i.J i , $ $ < % # $   w 3 w k.8 i U K +.z..XE.Y.[.E.b.{ P u , < J { t [.x.K.!.E.oXW.n.f.                        ",
"                G k w > # % < # = >   i t , 0 3 ) #.v.Y.b.T g.f.B._.Y.C.{ I , , T P y B.~ [ N.L.E.G.x.Y                         ",
"                fX2 $ + % $ @ 9       U T a J R X.E.2 _ n.c.U _ Z.a , ! U.`.~ J 3 > > K } $.L.J.uX'.'.                          ",
"              Q ~ > > + % < , 8       i u u ~ _.c.8 , T _ p 9 2 _ P.O.y 8 P.V.g.t + k jXkX-XaXzXjXzXxXa                         ",
"              [ R $ > O $ > >           3 3 V.[ P > > J t 2 > > 0 ..N.X.< L _ L 3 ] jX8.fXaXvX9XbXxXbX .                        ",
"            j.z.I w P 0 < >               8 $ $ < $ > > < < < > % > , Y > > ) #.c xXsXqXxXbXhX1XcXxXdX[. .                      ",
"            Q X.s I ! u > ,                 + + + + @ # # M m O + + + + $ + $ = 4.j v g x p.s.&.*.4 ^.} Q                       ",
"          >._ [ { U P = w                   # : N S 1 A ; 0.0.7 ; 7 7 F 9.# ; D 4 * b gXhXuXvXhXjXhXx Q W                       ",
"          3Xp %.#.I s w w                 N - D 1 0.6 G 7 q.y.# M 1 0.M w.7 O - 4 4 3XjXlXvXqXcXcXgXx x a                       ",
"          dXf.l. .p 8 2                   F M S 7 # S 9.N w.q.w.m F M w.0.- Z ; 3 6.bXbXvXkX:.xXfX5X* *.e                       ",
"          Q f.n.#.a 6.                    N m A 5 0.D m D 9.- 0.1 - 5 m : F 1 - , qX1X( / l l j 2X:.h v                         ",
"          O.k.n.I 4X3.                    > m - A N : ; M F : F > : 9.> A M # $ = ,.k h g * g h c *.n c                         ",
"        $.P.o.!                         y 3 5 # > : A # : M m : G 0.: N > > > 5 = * * 5.k ;.4Xh h / 4.x                         ",
"        d }.`.K                       e X.I 3 W 3 M C 3 3 y 6 q e.5 6 8 T g.3 | m.* * j o X k X & h x h                         ",
"        | N.p                         m. .j.x.| f.O.h.k.f.z.n.z.K.Q.E.U.V. .N.n.K.= * * * & X X & *.x                           ",
"      h.j.{ R                         b.[ _ Z.g.! W [ ! { +.k.v.z.n.v.k.$._ @.@.n.2 2 * @ . . X & * j                           ",
"      P E., s k.                  o.6XL.I.Q.b.W.[.| ; ; # # % $ , w s s t s o.I t P M.* = & & & X & g                           ",
"        K h.! O.              _ Q.OX{.n.I.|.#Xd.k.|.X.1 N 2 w 8 8 > 2 2 $.Q.H.o.U | X.* & X X X X X                             ",
"          % ` o.            $.k.|.n.N.|.@XoXQ.[.W.5 ~ 6 Y u > % + > P U  .n.v.{ o.m.o.w U                                       ",
"            w W             K.F.].x.z.-X:X-XQ.L.P.@.K J s w $ + % t a i U k.#.W #.b.} W  .                                      ",
"                          | `.~ E.H.W.tXeX:XW.v.k.i I > >     > > P. .w i W t w _ [ P k.C.                                      ",
"                          P V.O.[.P.N.oX*X`.v.! w : l t         > > _ k.3 9 $ > U U Y @.b.                                      ",
"                          w $.b.|.E.N.W.E.V.j.3 $ > K 3         $ $ > i i > > > f P P [  .                                      ",
"                          2 w m.L.C.[ O.j.[ > > > s j.            > 8 $ $ > 2 > > > w i U 8                                     ",
"                        g ] gXn.k.+.! ! 2 > > > 3 X.a             8 9 > > < < $ $ > $ > u w                                     ",
"                        :.fX2X .n.k.o.s % $ > > < U                 2 9 > 8 8 > $ $ $ $ > u i                                   ",
"                      k c 5X7.[ C.k.#.w > > $ y , w                   9 $ 8 8 8 $ $ $ $ $ u w                                   ",
"                      =.dX6.5.s T P P i $ < 0 w P                       8 $ % $ $ $ % $ $ >                                     ",
"                    =.9X2.>.:.= $ > < > k U w s                         < > % + + + + % 9                                       ",
"                  x 3.wX' >.,.$ $ $ > , ] ! Y a                           $ 9 $ + + + $ u T                                     ",
"                  ;.^.4 =.-.v ( > $ > j W i <.                            > $ + + O + % < i                                     ",
"                * k g *.0X7X8X5X_ a j x k T.                              > $ @ < % $ $ 8 i u                                   ",
"                  0./ dX2X7.7.8.4.4.x k *.k                                 > # > 9 9 $ 9 I U I                                 ",
"                H ~.6.fX6.2Xh 6.3.3.3.* h j                                 > # $ 9 9 $ $ u L i                                 ",
"              x 5XkXqX4X3XD 9.2.>.*.' *                                     $ % % $ $ $ % $ 8 8                                 ",
"            h *.9X0X9X6.1Xw.y.8X;.;.h                                         9 % + $ 9 $ > 8                                   ",
"            x ;.9X8X5X6./ i.q.7X>.v                                             , $ > 8 w 9 u u                                 ",
"            n j 4 0X3X6.9.0.9X1Xj                                               9 w i U Y ..[ I X.f.                            ",
"            * h &.hXwX5Xe.1XsX>.                                                  , u I Y  .[ U ` _ i                           ",
"            3.2XsXxXbXzXkXuX~.l                                                   % $ $ $ , 8 0 3 > <                           ",
"          c :.5XhXgXcXsX0X4.<.S                                                   + + % 0 K P I L u 8                           ",
"          h 4 j :.dXhX0X3X-.b 5                                                   + $ < w i P U i u 8 #                         ",
"          j 3.2X9XgXxXfX8X!.i.3                                                   # $ < w i P _ I J w >                         ",
"          x *.;.7.9XjX0X3X6.R.G                                                   + $ 8 u P ` _ W W w >                         ",
"          j n v >.9XgX0X1X>.v 5                                                   % + O + $ $ 3 > % % %                         ",
"          h v *.3.0XgX8X3X=.b 2                                                                                                 ",
"            * 9 h x c x x g 4                                                                                                   "
};
