/* XPM */
static char *__attack1684324921[] = {
/* columns rows colors chars-per-pixel */
"64 64 256 2 ",
"   c None",
".  c #090706",
"X  c #110E0D",
"o  c #1B1207",
"O  c #1B140A",
"+  c #1E190C",
"@  c #15110B",
"#  c #1E1E1D",
"$  c #1A1712",
"%  c #3D0D09",
"&  c #22150C",
"*  c #221A0C",
"=  c #27190B",
"-  c #37180B",
";  c #241C11",
":  c #2A1B12",
">  c #281916",
",  c #331B12",
"<  c #381713",
"1  c #280F10",
"2  c #2A220E",
"3  c #27210F",
"4  c #34230D",
"5  c #3C270E",
"6  c #2C2313",
"7  c #282417",
"8  c #332513",
"9  c #342A14",
"0  c #3A2B16",
"q  c #3D2C19",
"w  c #372718",
"e  c #3C321B",
"r  c #232223",
"t  c #2C2C2B",
"y  c #292624",
"u  c #342B28",
"i  c #393125",
"p  c #353334",
"a  c #3C3B3B",
"s  c #2E2E31",
"d  c #232022",
"f  c #460B08",
"g  c #5D0405",
"h  c #580808",
"j  c #481915",
"k  c #541710",
"l  c #640405",
"z  c #630B0A",
"x  c #6C0B0A",
"c  c #680605",
"v  c #750303",
"b  c #720B0A",
"n  c #7C0B0B",
"m  c #7B0605",
"M  c #6C1609",
"N  c #751B05",
"B  c #791A09",
"V  c #681513",
"C  c #751514",
"Z  c #442B16",
"A  c #572913",
"S  c #44331B",
"D  c #4B371A",
"F  c #533B1D",
"G  c #57381B",
"H  c #6C2409",
"J  c #762306",
"K  c #792309",
"L  c #773215",
"P  c #493524",
"I  c #523B21",
"U  c #5A3E23",
"Y  c #583826",
"T  c #453937",
"R  c #452B21",
"E  c #613C22",
"W  c #732D27",
"Q  c #5D421D",
"!  c #69441D",
"~  c #78471A",
"^  c #594223",
"/  c #49433B",
"(  c #644324",
")  c #694728",
"_  c #744C2B",
"`  c #784B28",
"'  c #7D512D",
"]  c #7A5527",
"[  c #7A4A35",
"{  c #3B3F41",
"}  c #413E40",
"|  c #3E4241",
" . c #4A4846",
".. c #574C48",
"X. c #575857",
"o. c #575348",
"O. c #696B6B",
"+. c #635D57",
"@. c #830403",
"#. c #850C0A",
"$. c #890A07",
"%. c #9C0402",
"&. c #930905",
"*. c #960A07",
"=. c #871908",
"-. c #841715",
";. c #90150D",
":. c #A30B06",
">. c #AB0A05",
",. c #A40C0A",
"<. c #AC0C0A",
"1. c #A50403",
"2. c #BC0503",
"3. c #B40C05",
"4. c #BD0B04",
"5. c #B40C09",
"6. c #B80806",
"7. c #A6130B",
"8. c #B7150A",
"9. c #B91A12",
"0. c #A51414",
"q. c #842305",
"w. c #8D2B04",
"e. c #882707",
"r. c #942D03",
"t. c #982708",
"y. c #89340C",
"u. c #9B3504",
"i. c #983607",
"p. c #903016",
"a. c #A52D03",
"s. c #A33403",
"d. c #AA3D04",
"f. c #A73808",
"g. c #B43B05",
"h. c #B42E0E",
"j. c #AF312B",
"k. c #8A2F2B",
"l. c #C30302",
"z. c #C90805",
"x. c #DA0403",
"c. c #D60905",
"v. c #C7150C",
"b. c #D8150F",
"n. c #EB0904",
"m. c #E70605",
"M. c #F80705",
"N. c #FD1109",
"B. c #F71B15",
"V. c #E3170D",
"C. c #CA310C",
"Z. c #F52619",
"A. c #EE2614",
"S. c #DB2B2B",
"D. c #F1302B",
"F. c #84471B",
"G. c #9D400F",
"H. c #A54308",
"J. c #B34405",
"K. c #BB430A",
"L. c #B64808",
"P. c #B65010",
"I. c #87552A",
"U. c #985A2B",
"Y. c #845531",
"T. c #8B5A33",
"R. c #8A5836",
"E. c #935D35",
"W. c #975D38",
"Q. c #884C24",
"!. c #AB512E",
"~. c #9C633B",
"^. c #976235",
"/. c #A3673B",
"(. c #A86A3B",
"). c #B26A38",
"_. c #C24C04",
"`. c #C94B08",
"'. c #D74808",
"]. c #CD550A",
"[. c #C75508",
"{. c #D65A09",
"}. c #CD5718",
"|. c #D75715",
" X c #E75708",
".X c #E54D12",
"XX c #DB640A",
"oX c #D86613",
"OX c #CD6B11",
"+X c #E4630B",
"@X c #E7690A",
"#X c #E86813",
"$X c #F26C15",
"%X c #F57616",
"&X c #ED7110",
"*X c #F64A38",
"=X c #E35820",
"-X c #F97B24",
";X c #F56E39",
":X c #A96D44",
">X c #B47343",
",X c #BB7645",
"<X c #BF7B48",
"1X c #B47246",
"2X c #8C7263",
"3X c #F25A42",
"4X c #EB5C59",
"5X c #F65854",
"6X c #EC4C45",
"7X c #C37B4A",
"8X c #C47B48",
"9X c #D37055",
"0X c #F16D5A",
"qX c #EC7872",
"wX c #E75C5D",
"eX c #7D8179",
"rX c #BD901A",
"tX c #CB8C32",
"yX c #F78A37",
"uX c #F49236",
"iX c #F78B2E",
"pX c #F7A73B",
"aX c #FB9917",
"sX c #FDFC0D",
"dX c #FAF01A",
"fX c #FDF822",
"gX c #CFC73E",
"hX c #8F8068",
"jX c #CA824D",
"kX c #CD8352",
"lX c #CD8955",
"zX c #D58857",
"xX c #DE915F",
"cX c #F09252",
"vX c #D98D69",
"bX c #E49564",
"nX c #EA9C6B",
"mX c #F38E73",
"MX c #EDA46B",
"NX c #F2A866",
"BX c #F5A877",
"VX c #F1AD76",
"CX c #F3A056",
"ZX c #EBCF4E",
"AX c #FAFC7C",
"SX c #EBD160",
"DX c #888887",
"FX c #97938A",
"GX c #A09493",
"HX c #D7908F",
"JX c #F5B88C",
"KX c #F9C88F",
"LX c #F4CEA7",
"PX c #DCD5B8",
"IX c #D1D4D2",
"UX c #F3E9D7",
/* pixels */
"                                                        1XxXnXmX7XMXmXxX:X                                                      ",
"                                              / o.~.JXbXBXbXLXLXbXJXLXbXBXKX1XR.                                                ",
"                                          } GX..T 0.vX9XJXkXBXJXbXBXNX8XlXLXp <.T GX                                            ",
"                                    p O. .a tXA y F.Q.,XW.kX1X<X#X$X).F.I.jXV G u rXV O. .                                      ",
"                                    s DXy > oX_.$ !.k ' 7 ,X/.[ J.U H.Q.w v.0.jXo.gX'.T X.p                                     ",
"                                    $ y $ O 6 . . F G 8 Y.8XkXE.f.U.oXXXP.e.P.D $ 7 b #.b d X                                   ",
"                                    . @ x 4 6 $ o     $ 2 L ;XA.Z.Z.mXL N $     $ X @ = X . X                                   ",
"                                    . . . . $       4 + 8 j L.tXVXOX6Xj e         . o 2 O X                                     ",
"                                            [ /.Y.S q 8 9 U !.|.XX X@XP S 7 _ _                                                 ",
"                              W.,XT.8 * q E zXbX1XY.kX' w [.W j.OX+XF.].q E.' Y.~.I                                             ",
"                          /.bXJXkX~.P R.7XzXnXMXnXxXxX8X:XI U 9 + 4 w.L Y.^.' _ W._ E.T.  ^.^.Y.                                ",
"                        C W.zXnX<X^._ Y.:X1XxXMXBXBXnXbXxXzXU.Y 0 U./.E.E.T.R.R.Y.R.W.^.T._.XXJ.' _                             ",
"                  3.1.C G 6 8 S P ^ E.Y.' T.T.:X1X,X8X8X).XX@X1X~.8XlXkXzX8X,X,X:X/.^.f.H.&X%X@XXX_.                            ",
"                  @.  Y.Y.* 6 : Y.^.I 9 ^ ' ).jX7X,X(.E.T.U.Y.^.( G.|.XX+X@X&X#X@XU.q.d.H.K.[.{.J.H.                            ",
"                c.    /.U * 8 0 3 ; O O ; 8 Y.>X<XjX8X)./.U./.W.( ~ f.G.L.[.P.P.P.P.d.H S XX&X%XXX[.F                           ",
"                m.  ) 8XE.* * + o o o o + ; * * 3 H y.K._.+X`.U.H.L.XX{.XX{.oXXX].'.u.2 f._.J._.{.{.y.                          ",
"                M.  = ( F $ + * o * * * w.e g.G : & o 3 6 K y.F.[.A ;.e.i.u.H.f.H = = d.+X#XoX$X%X%XL.d.                        ",
"                m.w 0 * O * + o O O   6 3 7 '.J Z F D ! ] E.L._.].U.U.~ e 9 2 = N i.5 {.%X%X$X$XiXyXK._.                        ",
"                C 6 6 + o * o o + *   9 8 ; H + ! ` ).].[.( L._.{.XXXXOX! S & * r.t.H _.uXiX$X$XyXiX].d.x z                     ",
"              b.IX; & o O O o 3       F G 6 0 F ~ P.= S D g.y.F ^ 9 7 D @XXX_.G ; ; * =.oX'.}.}.$X+X{.        l                 ",
"              R U & & o o * * 3       0 0 7 Q L.H.7 * Q d.d.2 * H ].s.>.9 {.$X{.N $ j 9XqXqXqXHXqXB.v.< f v v                   ",
"              ( I + * o + * *           3 7 ).( D * + 0 8 ; * * 4 k u.g.B e.J.i.: Y 9XS.mXHXqXwX4X9.D.b f $.n   z               ",
"            R.T.D 6 Z 4 + *               6 O + O & * = = & * & v : b 6.n 2.e.9.x.N.M.6X5XB.M.z.N.9.6.6.b f @.1.v l             ",
"            P _ e D F 0 * *                 O o O @ o o o f f @ g n &.;.6.&.-.<.6.C -.W W m.D.k.n.v.x.l.&.%.h c                 ",
"          X.^ ( ( I S ; 3                   O = c n , z $ 6.$.O & %.&.*.x.2.x.x.g.z.9.4X5X5X6X>.m.m.4.$.c.l.v                   ",
"          DXw _ ` S 0 6 8                 c f h - 3.1 C 1 5.c.1 l V :.b z.i.x.m.v.8.n.5X*X4X4X8.M.A.c.z.z.2.v l                 ",
"          IX' T._ e 2 ;                   v f x = 1 *.6.f c.3.7.z.5.f l.,.>.*.4.M.M.v.Z.=XD.j.A.3XC.8.c.m v c                   ",
"          P Y.~._ i O.                    h f c : &.>.$.% z.h x.,.x > f , $.b -.M.$X$Xv.iXb.A.CX#X}.2.V                         ",
"          _ R.~.S DXX.                    * f % x h 1 , f <., m.k > *.> *.f 1 : 3.-XcX$XKX0XNX%X$X.X#.a                         ",
"        ' ,X_ Y                         8 6 = O = * ,.= 1 b % , n 7.$.n.> <.: : + h.-XSXsXLXUXcX0.,.DXs                         ",
"        w xX7XP                       7 ` Z 8 I 3 - k > > 6 - 4 8., s.e.i. X< ~ {.NXLXfXUXsXfXKX&XC.t d                         ",
"        ) /.w                         ^._ Y.T.) _ ~ H.f.( K y.Q.e.&X{.@X].+X'.V.L.%XZXKXAXfXVXuX.Xn.l.m                         ",
"      I.I.) D                         E.( ^ ).Y.^ R ! D ^ ! ~ t.f.`.`.J.g.C.n.n.L.].aXsXfXKXuX-X&X'.z.=.$.z z                   ",
"      q 8X; Z ^.                  _ FX1X1X,XR.XXXXY + $ + o O * > > &.*.3.z.z.z.;.*.yXdXyX`.4.2.3.x.M.8.t.>.,.%.@.l             ",
"        q ^.I _               U <XnX7X~./.:X|._ I +X) k :., s.a.Z v &.%.:.7.6.*.t.~ $X%Xh.g.7.C l h m 3.>.%.1.*.n   l           ",
"          * ^ _             R.W.zX~.E.kXlX(.g.@XXX> a.k g.q.: * % , &.%.1.*.&.M L [.].i.a.4.3.#.    l m l.2.l.@.$.c c l c       ",
"            7 ^             >X~.zXR.W.bXxX,X_ ].{.F.B B H 7 * O & A @.$.%.i.w.K i.L.[.q.t.5.g.&.    g g :.6.l.%.%.@.v           ",
"                          ) kXU <X:X7XbX7X(._.L.U.8 S * 3     O * B &.@.u.3.B 9 w.J.J.:.*.@.&.1.z       @.&.@.m %.l             ",
"                          S /.' <X:XW.zXU._.].g.i.; w.=         * 4 e.t.r.e.0 - N r.s.7.l.*.1.%.z           @.z g %.l           ",
"                          6 Y.W.>X~.W.7XQ.].].d.u.; i.=         + * Z J J 0 * , A r.s.z.%.1.1.$.g h             x   l           ",
"                          ; 6 /.~.W.) ` J._.g.r.J A u.            * ; * * * + * Z r.a.3.3.%.&.m g                               ",
"                        > / IX~.R._ U F y.r.e.; - u.K             2 3 * * * * * = K =.B >.c m   g                               ",
"                        X.wXX.) ' ) S 9 : = = + + q.                * 3 * B 2 * * * 4 H J 5 Z h                                 ",
"                      r p S. .E ' ^ e 6 * + * 8 : 8                   3 * 2 t.=.* * = w Z 4 g f                                 ",
"                       .D.#. .9 F M N t.= + 4 ; q                       * * 4 D : & * * = *                                     ",
"                    { GXM.z.P > * + + N w D 7 e                         * * * O o o o o 2                                       ",
"                  s X.B.m.c.*.3 * + * 3 %.Y A w                           * 2 o o o @ = B Q                                     ",
"                  X.eXd  .[ c.#.+ * * m m b 9.                            * o o o o O O = 9                                     ",
"                # y d T *Xm.M.M.n.4.y b <.M.                              * O o o o = 4 r.q.0                                   ",
"                  ;.T HXB.m.5.c.n.n.z.t z.y                                 * O O J M k u.u.r.D                                 ",
"                C S. .wXB.h.#.6.c.n.v.> y R                                 * @ + q.N - w.s.w.Z                                 ",
"              p ..P.}.D. Xz b W c.x.C d                                     * O O * * = 4 w.J 6                                 ",
"            r / X.K.}.B.f.6.V.cXc.z.r                                         * O O * 3 + - :                                   ",
"            p  .X.g..XN.R m.c.=Xx.;.                                            3 O + 3 4 J N 0                                 ",
"            p s # C.Z.N.C 8.iXZ.n                                               = 2 B r.s.L.J.w.J.J.                            ",
"            # d { D.B.;XN.pXZX8.                                                  * 4 e.r.u.u.F d.i.Z                           ",
"            O.hX0XcXVXMXMXZXiXR                                                   O O o * 2 ; 7 $ + *                           ",
"          p  .<.M.t.b.3XvXuX}.<.                                                  O O @ 8 e.w.r.w.N 6                           ",
"          r d t 5.4.m.*X*XK.v.&.                                                  o + = 2 9 A u.Z 8 * O                         ",
"          y T  .8XCXcXNXSXgXtX>                                                   o o * 6 =.e.u.e.K 7 +                         ",
"          y p a .. .0.B.#XuX}.b                                                   o o = N q.w.u.r.w.M O                         ",
"          y s s  .O.X.z.A.uXv.;                                                   o O o o + * * + O o o                         ",
"          # t p  . .<.M.B.`.<.;                                                                                                 ",
"            # > y s p s s d d                                                                                                   "
};
