/* XPM */
static char *result[] = {
/* columns rows colors chars-per-pixel */
"64 64 140 2 ",
"   c #070C00",
".  c #090E00",
"X  c #0E1202",
"o  c #111504",
"O  c #141A04",
"+  c #1B1D04",
"@  c #14160C",
"#  c #19170D",
"$  c #16190B",
"%  c #1A1C0C",
"&  c #161712",
"*  c #1A1C13",
"=  c #1D1D1B",
"-  c #201F0D",
";  c #201F1D",
":  c #1D2307",
">  c #1E220B",
",  c #1E2112",
"<  c #1F211B",
"1  c #222205",
"2  c #22240D",
"3  c #29270E",
"4  c #26290F",
"5  c #2A2C0E",
"6  c #2D3504",
"7  c #2F3801",
"8  c #2C330D",
"9  c #363907",
"0  c #3A3C05",
"q  c #33330B",
"w  c #38370C",
"e  c #35390C",
"r  c #3B3D0C",
"t  c #222314",
"y  c #282610",
"u  c #252914",
"i  c #2A2D15",
"p  c #23241C",
"a  c #292718",
"s  c #26291C",
"d  c #2B2D1D",
"f  c #2D3313",
"g  c #2E311C",
"h  c #333514",
"j  c #383712",
"k  c #353A15",
"l  c #3B3B13",
"z  c #33351C",
"x  c #38371A",
"c  c #35391C",
"v  c #3B3B1C",
"b  c #1F2020",
"n  c #242523",
"m  c #272823",
"M  c #2B2C23",
"N  c #2C2C2B",
"B  c #2E3123",
"V  c #2F302B",
"C  c #333524",
"Z  c #383723",
"A  c #363924",
"S  c #3A3C24",
"D  c #33352B",
"F  c #36392B",
"G  c #3A3C2C",
"H  c #2F2F30",
"J  c #2F3030",
"K  c #343533",
"L  c #383730",
"P  c #373832",
"I  c #3B3C34",
"U  c #383738",
"Y  c #3C3D3B",
"T  c #403F1B",
"R  c #413F24",
"E  c #403F2B",
"W  c #403F37",
"Q  c #403F3C",
"!  c #3D411E",
"~  c #3D4125",
"^  c #3E412C",
"/  c #3E4134",
"(  c #3F403A",
")  c #414115",
"_  c #42421B",
"`  c #424324",
"'  c #444B25",
"]  c #42432C",
"[  c #454B2A",
"{  c #4A4B2D",
"}  c #51522B",
"|  c #424335",
" . c #484736",
".. c #454933",
"X. c #4A4934",
"o. c #42433C",
"O. c #46493C",
"+. c #494B3D",
"@. c #4C5134",
"#. c #4F503E",
"$. c #525333",
"%. c #51533C",
"&. c #3F3F40",
"*. c #3F4040",
"=. c #444443",
"-. c #474842",
";. c #4A4B44",
":. c #464648",
">. c #474848",
",. c #4B4B4B",
"<. c #504F43",
"1. c #4F5045",
"2. c #4F504A",
"3. c #525444",
"4. c #565946",
"5. c #5D5F44",
"6. c #52534B",
"7. c #56594A",
"8. c #5A5C4B",
"9. c #535453",
"0. c #575857",
"q. c #5B5C53",
"w. c #575758",
"e. c #5B5B5B",
"r. c #5F6153",
"t. c #5F605B",
"y. c #616353",
"u. c #686B56",
"i. c #62645C",
"p. c #66685C",
"a. c #696B5C",
"s. c #6E715F",
"d. c #646563",
"f. c #676861",
"g. c #6A6B64",
"h. c #6A6B69",
"j. c #6E7165",
"k. c #6F706B",
"l. c #707269",
"z. c #717270",
/* pixels */
"Y I I I m V W W U W Y L G D G A z g A C B A A F F F z g A C G I v G P M M Y G L =.&.=.:.W Z C d u , , g A M g V g i V / P P *.>.",
"Y G I L a K W =.Y Y Q I I G G I ~ B D F B z F G G G A C A D I G v I *.n m *.S | =.&.:.=.B M d M > % 4 F B g V ( A g D P G D ( ( ",
"Q I W E - L o.Q Y U W W I G C G F F D I F A I I / ^ G I I =.o.G R Q >.N m U G -.:.:.=.=.G C C D C u C P B B F G P G P / P / ( *.",
"=.Q =.G - D Q W U U *.Q I P B G S F F F F P Z o.| ^ I / o.=.o.W ] W =.N N :.E o.:.=.&.&.W I Y Y I C F I F B C F / / ( / I Y ( Y ",
"Q O.=.G ; L ] W =.=.>.O.| P C A c B A ( ^ I F ( / o...I / =.-.O.X.Q &.N M o.E W =.&.=.&.=.:.=.&.Y F ( / P F ^ / ^ ^ / ( ( I ( &.",
"U W L D n D L U K P U G D d u > > u i A g g f B C A B B F ( W G Z H K N M W Z Y &.&.&.U &.&.U &.U P P U P G A F C B B F P F U Y ",
"* * = = ; # # - * * = * o X X     X X X X X X X o X X o * * * # # * & ; ; = # = b b = & = = & = = * = * * @ X @ O X o * @ @ = b ",
"V V V H d 3 a m N N V s 2 4 > O : 4 5 > u 5 s u i i s $ M D M A Z D U K B V M H K K H H H H H H V N N m p s M g u u , p B B J U ",
"Q o.W Y V x F P L U P C z z g 5 8 i f g A ! A ^ ) ! F $ D O.I E Z Q :.Q L W W U =.=.=.Y Q =.U U &.*.I P D / O./ d A , s / P -.*.",
"*.Y I I K Z I Y P I F z A C B i 8 8 f ! A ! ~ ( ) e G $ i W G S Z W Q U U Q U Y =.=.&.&.&.&.Q U Y ( P ( F G o./ A A s < P / ( Y ",
"*.Y o.=.Y Z I &.Y Y P A / / F z 8 f k k ~ ! A / ) r S o z E | S G W Q &.&.=.=.=.,.:.&.:.:.&.=.U &.*.( ( A G | ( F c > < F G ( *.",
"Q *.:.=.Y Y Y ( =.*.Y P ( ( P A A k f k c k / ~ q e z . d | ;.E E =.,.,.:.:.=.:.,.,.,.,.9.,.:.=.:.,.;.;.G F / o./ A < s P ( =.( ",
"*.=.=.*.Y U I =.*.( ( ( ( ( / / A g k ! 8 ! o.G 9 6 g o i / :...R | ,.,.9.,.:.:.9.,.,.9.9.,.,.:.,.6.,.;.^ F / o.I G m m P ( =.*.",
"*.*.G W Y P Y Y U Y *.*.o.o.( P G ~ k 8 k ` ..^ r 6 c O B -.+.+.T  .,.,.w.w.9.w.e.,.=.9.w.9.9.:.2.,.9.q.../ o.-.o./ N m ( *.=.*.",
"=.*.W L P P Y Y Y U *.=.-.>.( G ^ ( A 7 ^ [ ....6 6 C O G 1.9.-.T X.w.w.e.t.e.w.w.,.:.w.d.e.w.,.2.e.i.t.+.o.-.2.:.| N n Y :.>.*.",
":.=.Q D P Y ( ( *.=.( -.o.2.( F / | ^ 7 ! -...~ ! 9 C O P 2.0.>.T X.9.w.e.t.e.d.9.=.:.e.h.e.e.9.w.e.f.d.6.;.O.;.2.2.K m -.,.>.*.",
"=.=.Q D P I o.Q =.*.Y Y  ...P F ../ / 7 ! ../ ^ 0 9 c > P 2.9.,.R <.,.,.w.e.e.e.9.:.:.e.h.e.w.e.t.d.h.h.q.6.;.o.;.;.V N *.:.:.o.",
"=.=.Y Z G G Y Y =.:.U U o.o./ F ( / -.e ^ ,.O...! ! A > F 6.2.>.` -.:.:.,.e.e.e.9.:.9.w.h.h.d.d.h.h.z.h.d.6.6.,.-.+.V N >.:.>.=.",
"=.-.=.I L I P Y Y =.Y U =.o./ S O./ ;.A / ,.;.( ~ ~ G : P 2.2.-.`  .:.:.:.,.9.9.9.:.9.w.d.d.h.h.h.h.h.k.f.2.;.-.;.1.g V =.=.=.=.",
":.:.=.U Y G P Q Y U =.Y =.-.^ F o.o.>.^ ( ;.;.O.~ A A , F 2.6.2.{ <.:.,.9.9.:.,.,.:.9.e.d.d.d.h.d.h.h.d.0.;.1.,.0.2.d M =.=.:.=.",
":.,.o.I Y G G W U Y =.Y =.:.I I *.( *.~ / ;.*.O.^ A g , P 9.9.9.%.9.6.9.w.9.9.9.w.:.9.w.e.9.,.9.w.e.e.9.,.2.0.q.0.;.M M :.>.:.:.",
":.,.,.Y *.o.o.W =.>.>.:.,.,.o.o.;.( *./ ^ ;.( 1.^ ~ c > F :.,.,.,.,.:.2.9.9.w.9.9.9.,.,.,.:.=.&.>.>.,.,.;.;.6.6.6.2.D N 2.,.,.2.",
"V H N n N m p p H N N N N N n m M M b , > m < < > > + O * m n m n n N N H H H H H H H H N N b b m n N m m s M m s m p m N H K N ",
"n ; = n b p m m n n m m n n n p , , < , > m < , O > o * n n b n n n n ; n n n b b n n n n n n n n n b = < * , * , p p p < n n n ",
"K V U Y n V Q *.Y U Y Q Y Q *.U F c G A z G C D f S f S =.*.*.Q W U K n N :.Q Q =.=.=.=.Y =.=.=.:.:.I ( ( / D F P Y Y D U ( Y Y ",
"U H Y U n N Y Y U U Y *.*.*.Y U F v P d i F B B h A i F *.U Y U U U H n n :.&.=.:.>.=.:.=.( =.( *.*.&.P D B g D D I I P P U U U ",
"U U Y Y n N Y Y Y &.U Y =.U U P ] R Y B 8 P F F c ~ c / W Q Y U K L U n n :.:.=.>.>.( -.o.K U =.( *.( P C g i V B D P P K Y Y U ",
"Y U Y U n H &.=.Y Y Y E | Y I G R ~ ( B f o.I P F ^ A G G P Y U L H U N n &.Q :.=.,.-.:.o.D P o.( ( P V ( C i B d V P Y U *.*.Y ",
"Q Y &.U n D I =.=.=.Q W S Z Z A R l S G c o.Y / ^ ^ ~ o.Y I Y D C K U n N =.U =.=.:.I =.( B V ( P ( P G / B i i i B F I P ( ( *.",
"Y =.Q K n K Q Q &.&.Y Y I P D G R l G G z o.Y Y G G S I Y Y P L Z Y &.n H &.U :.;.*.( o./ B A ( ( ( P P G d u u s B V B V P Y Y ",
"=.*.:.Y = H *.=.=.&.Y Y I L G I S v G G S G ^ G G S Z I Y Y Y Y W W Q n N =.Q ,.,.>.=.-.( B F ( ( -.( P A B C B g D D F D U *.:.",
"=.:.:.Q n K Q W =.&.Y Y I Z G I S T W I ! I P / I P G o.=.P W Y W &.Q N N ,.:.,.=.>.o.-./ A A / / o.( P / S B A A F P P F I *.-.",
"=.=.=.&.n Y :.o.>.*.*.( ( / @.( o.` I | S G I ( G I I o.-.Y Y Y Y U *.H N :.:.:.>.>.>.O.^ ^ F ^ / ( / ( ( ^ V B ^ ^ ( / K ( *.*.",
">.*.=.Y n Y ,.,.>.;.2.;.*./ ( ( o.G I Y ~ ^ I P S | o.-.=.o.:.:.=.*.=.N H ,.Q :.>.;.;.( A A ~ / D ( ( ( / D ~ B ~ D D D / ( *.*.",
"=.=.=.&.n U >.:.>.,.;.( O.( ( ;.O.| o.o.^ G D I Z W o.Y =.o.( =.Q W *.V N ,.=.=.-.( ;.( B A ^ / / ( / P ^ V D g B V ~ ~ ^ ( *.,.",
":.( ( ( n Y *.*.*.>.( ;.O./ / ( | / | o.^ G I / G | o.P o.o.=.=.Y U W M N ,.=.=.;.( ( O.^ A ^ ( ( / / P V ^ / V / ( ( ( / ( 2.*.",
"-.I o.W < ( >.:.;.>.;.;.( / / ( ^ I o.Y P Y / | I Y I G I o.*.=.W Q W y N ,.Q o.;.( O.O.^ C ^ / / / / J D / ( D ( ( -.*.( ( *.*.",
">.=.:.o.n ( 6.,.,.3.1.1.( ( O.3...| o.;.O.-.| | X.O.W o.>.>.,.=.W |  .B a =.o.o.( *.( ;.^ ~ ~ / / D / ^ / ( ( / O.>.-.*.*.2.2.;.",
"Y Y U U m P *.( ( ( *.( / ^ D / Z F I o.P G A Z S P K V Y &.Y U U L U K d L D M D P P P B d g g N B V B N / D / / ( K P ( ( *.*.",
"b = = ; b b < $ , $ < , & $ o @ O $ * * % X X o o @ & @ = < b = * = ; b n = # @ @ & @ o X o o o @ @ $ $ @ & & & * = = < < b b b ",
"K K K D K K V C V B V P / P ~ / Z F B P V i i g f C V = V U Y J M H K H K D M M D F P B s g s > u B B B B V V V V Y m N K U I Y ",
"&.=.Y I Y I I | ( ( ^ ( *.*.O./ G / O.2...A z z f F P < K *.&.( G W Y U Y Y P I I / o.C B P / C P / P A ( Y ( / ( ( m m ( -.( *.",
"=.=.*.Y I G I A ^ ( / *.3.O.O.;.^ F o.3.3.^ ~ A c F V = U *.Y ( G U Y U Y =.o.I F I / A A ^ ^ F / ( / S o.o.o.( / ( m s I ( K Y ",
"*.=.Q U G F A Z ~ / ;.2.3.3.1.( S G o.#.r.4.^ ~ g ~ V < U *.I *.G U U U U U Y P V / G G B B V D P o./ ^ O.o.o.I ^ ( M < Y / P ( ",
"=.o.P U F G / B ~ ( 2.6.6.6.3./ k k / %.7.3.^ ~ f ~ B , D U U =.G Y U U Y Q Q P A G A C g C F F G / / ^ o.( ( Y / o.M < P / I -.",
"=.-.( Y / / ( A / ( 2.r.r.3.4.O.F ! ;.( @.3.~ c f A C $ D K U *.E W L U &.Q *.I V F D z B A D F / / / / ^ o.o.o.o.( N p D o.( :.",
"=.O.( ( o.O./ F / ( 3.t.r.7.5.O.^ ^ ;.;./ +./ ! 5 z g O M Y P o.E W L I *.Y Y P P F A F B B F F G ^ / / F / o.I o.o.m % C | W :.",
"=.,.=.I / o.P G / ( 2.r.p.r.u.4.^ / 3.( ^ / / g 8 f g @ M C K ( W *.Y Y U Y U Y / ( C G A ^ / / / / / ^ z / | / O.P p % z | o.;.",
"-.O./ I ( O.^ A [ ..3.y.a.a.u.p.3.3.%.#.]  .;.^ k k z O M G I -.o.-.P K I Y U Y ( ( ^ A A F o.| G G / / ~ / / ( o.O.M < F O.o.o.",
":.;.o.P o./ / G  ...4.f.j.j.j.a.q.q.q.g.r.8.7.@.' ~ / , g ( Y ( o.=.Y =.o.*.Y Y ( *.^ S F G / ^ F ^ ^ / ^ O./ / -.-.V m / ;.:.O.",
"-.,.=.G o.o.~ S ^ ~ $.f.j.j.j.g.p.i.g.h.f.p.q.4.@.' A % M S v o.W =.&.=.Y Y I Y o.>.G B / ( o.o./ F ^ / / / / ( o.( B B W O.O.O.",
"O.-.I I / ] G A c ! %.g.j.l.l.l.h.g.i.e.r.0.;.@.[ ' F * B / I o.o.&.Y ( Y K Y Y ( ( I G / ( / ( / ^ / O.^ ^ / / ( >.V B o.O.W o.",
":.o./ *.( | S G c v ;.q.p.g.k.g.h.i.q.4.4.q.6.] ~ ~ A < V ( ( ( W Y U K Y Y Y P P ( ( P ( I / / F / / ^ / / / O.o.;.M M | O.=.I ",
"o.I I G S c A / ^ ..;.7.i.f.g.g.i.e.q.8.%.4.O.^ ! c B = P ( Y I Y o.Y U U Y Y U I *.o.( o.( ( o.( / / / / / ( O.<.+.M m  . .=.Q ",
"G I U Z Z h x G S ^ o.6.q.e.i.q.6.6.6.$.} +.O.P G ~ P < P ( ( / G Y o.Y U &.Y Y *.( ( o.o.-.-.=./ ^ O.( O.....O.;.6.V V <.;.W G ",
"* * # # % o O # : + 2 t s m s n p ; > > , t , * * % * & < < < < = b n n < b b < < < < < m p < , , $ , , < , , , p N n p a s p * ",
"t t - y % # + - # + 2 2 2 t - 2 2 1 + + 2 % * - , > , M p m N m m n N m n N N n m n m p * p , > , p , p p % t * p p d M m a a a ",
"S Z Z B - i h 3 h k z G G L z x j r w w c A D z A h F / I I =.-.:.:.:.N N *.Y Y Y =.*.I I I I ^ F I I ( W z G P I W W W W ] ] E ",
"Z x x g - i 5 3 h x S F P P F D h j l z x z A A C 5 I I G F ( -.-.=.-.N n *.Q Y Y *.=.I I I I C C ( A F S j S P U I W I Y W E W ",
"W S v x - g Z v e k / I S D D C x w x h F C C A g 8 I I I Y Y o.o.:.=.M n *.=.Y Y Y =.W G / I h Z / S / S v S I I I Y Q o.o.W W ",
"G I Z S - B W Z _ v I W o.P P S v x Z z P S A A Z A o.o.=.Y o.:.:.=.=.M p =.Q *.Y *.=.Y | I G j S I ~ | R _ ` Y W Y W | S ] R W ",
"v S S A - C G D R S G W W G G v l x x j G Y G v A ~ o.F G Y =.-.-.=.Q N m Q Q Q *.=.=.*.-.I l ) ~ _ r S l T T o.=.Q W W R ] T T ",
"G I P P y x G L R R I Q W z v j h z z d z I G A G I I F F F I I I Y *.H N &.Y *.*.*.=.=.=.| T _ ` T 3 x ` l v *.Y G Q W R T x v ",
"I U U I 3 x G U S R W Y P S I x Z Z P C C G P D F G F F D C S G I U Q H N Y &.Q Y Y Y =.o.| E S o.S q v R j Z &.W G L W T E Z T "
};
