/* XPM */
static char *_c92fbda142e452cee659915630e924alpyUAV09L6ohfsSh[] = {
/* columns rows colors chars-per-pixel */
"339 36 2 1 ",
"  c None",
". c #C20F08",
/* pixels */
"  ............    ............   ............   ............  .............            ............               ..............  ...........               ...........   ............   ............  ......  .....             ...................   ......  ............             ............    ...........    ...........   ............  ",
"  ..............  .............  ............. .............  .............             .............             .............. .............             .............  ............. ............. .......  .....             ...................   ...... .............             .............  .............  ............. .............. ",
"   .............  ..........................................................            .............             .............  .............             ..................................................  .....             ...................   .....................            .......................................................... ",
"   .............  ..........................................................            .............             .............  .............             ................................................... .....             ...................   .....................            .......................................................... ",
"   .............  ..........................................................            .............             .............  .............             ................................................... .....             ...................   .....................            .......................................................... ",
"   .............  .....  ............................  ............. .......            .............             .............  .............             ....................  ...................................             ...................   .....................            ..................................................  ...... ",
"   .....   .....  .....   ............  ............   ............   .....             .....   .....              ............  .....   .....             .....  .............   ...........   ....................             ............  .....   ............   ......            .....   ............   ............  ............   ...... ",
"   ....    .....  .....  ............    ...........          .....                     .....                         ......     .....   .....             .....   ............   ...........   ....................                ......     .....   ............   ......            .....   ............   ............   ...........   ...... ",
"   ....    .....  ..... .............    ...........          .....                     .....                         ......     .....   .....             .....   ............   ...........    .... ..............                 .....     .....   ............    ....             .....   ............   ............   ............ ....... ",
"   ....    .....  ....................         ......         .....                     .....                         ......     .....   .....             .....   ............  .............         .............                 .....     ......  ............                     .....   ............   ............   .................... ",
"   ....    .....  ............. ........       .......        .......                   .........                     ......     .....   .....             .....   .............................       .............                 .....     .......................                  .....   ............   ............   .................... ",
"   ....    .....  ...........   ........       .........      .........                 ..........                    ......     .....   .....             .....   .............................       .............                 .....     .......................                  .....   ............   ............   ..................   ",
"   ....    .....  ...........   ........        ..........    ...........               ..........                    ......     .....   .....             .....   .............................       .............                 .....     .......................                  .....   ............   ............   ..................   ",
"   ....    .....  ............. ........         ...........    ...........             ..........                    ......     .....   .....             .....   ...................  ........       .............                 .....     .......................                  .....   ............   ............   ...................  ",
"   .....  ......  ......................           ..........     .........             ..........                    ......     .....   .....             .....   .................    ........       .............                 .....     .......................                  .....   ............   ............   .................... ",
"  ...... .......  ......................             ........      .........            ..........                    ......    ......   .....            ......   ................     ........       .............                ......     .......................                  .....   ............   ............  ..................... ",
"  .............. .....  .............                 .......        ......            .....                         ......     .....   ......            .....   ...............      ......         ..............                ......    .....................                    ......  .............  ............   ............  ....... ",
" .............  .....   ............   .....         ......         ......            .....                         ......     .....   ......            .....   .............        ......  .....................                ......    ......  .............  ......            ....................   ............   ............  ......   ",
" ............   .....   ............   ......  ...   ....... ...    ......            .....   ......                ......     .....   ......            .....   .............        ......  .....................                ......    ......   ............  ......            ....................   ............   ............   .....   ",
"  ..........     ......  .............  ............   ............  ......            ......  ......                ......     ......  ......            ......  .............        ......   ....................                ......     .....   ............   ......           .............  ......  .............  ............   ...... ",
"   ........       .....   ............. .............. .............  ......            .....  ......                 ......     ......  ......            ......  ............         ....... .....................                .....     ......  .............. ......            ...........    ......  .............  ............  ...... ",
"   ......         .....   ..................................................            ..... .......                 ......     .............             ....................         ....................  ......                 .....     .....   .....................            .........      ..................................   ...... ",
"   .....          .....   ..................................................            .............                 ......     .............             ....................         ....................  ......                 .....     .....   .....................            ........       ..................................   ...... ",
"   .....          .....   .....  ............  .............. .............             .............                 .....      .............             ............. ......         .............  .....  ......                 .....     .....   ...... .............             ......         .............  ............. .....   ...... ",
"   .....           ....   ....    ..........    ...........    ...........              .............                 ....        ..........                ..........     ....          ..........     ....  .....                  ....       ....   .....   ..........               .....           ..........     ..........    ....   ....   ",
"   .....            ...   ..       .......        ........      .........               ............                  ...          ........                  ........       ...            .......       ...   ...                   ...          ..   ...       .......                ....             ........       ........       ..   ...    ",
"   .....              .   .         .....          .....         ......                 ...........                   ..            ......                    ......         ..             .....          .   ..                    .             .   ..         .....                 ..                ......         .....          .          ",
"   .....                              ..            ...            ...                  .........                                    ...                       ...                           ..                                                                    ..                                       ..            ...                      ",
"   .....                                                                                ........                                                                                                                                                                                                                                                   ",
"   .....                                                                                .......                                                                                                                                                                                                                                                    ",
"   .....                                                                                ......                                                                                                                                                                                                                                                     ",
"   ....                                                                                 ....                                                                                                                                                                                                                                                       ",
"  ....                                                                                  ...                                                                                                                                                                                                                                                        ",
"  ...                                                                                  ...                                                                                                                                                                                                                                                         ",
"                                                                                       ..                                                                                                                                                                                                                                                          ",
"                                                                                                                                                                                                                                                                                                                                                   "
};
