/* XPM */
static char *result[] = {
/* columns rows colors chars-per-pixel */
"64 64 95 2 ",
"   c #030302",
".  c #070804",
"X  c #0A0A06",
"o  c #0D0D0B",
"O  c #100F0E",
"+  c #0F100B",
"@  c #101007",
"#  c #13130C",
"$  c #17180E",
"%  c #1A1A0F",
"&  c #151513",
"*  c #171813",
"=  c #1B1B14",
"-  c #1C1C1A",
";  c #201F15",
":  c #201F1A",
">  c #1E2114",
",  c #1F201C",
"<  c #222215",
"1  c #23231C",
"2  c #28271C",
"3  c #26281C",
"4  c #2B2B1D",
"5  c #302F1F",
"6  c #30311F",
"7  c #252522",
"8  c #282723",
"9  c #272822",
"0  c #2B2B25",
"q  c #2E2D2A",
"w  c #302F22",
"e  c #302F2A",
"r  c #2F3026",
"t  c #2F3129",
"y  c #333324",
"u  c #383724",
"i  c #363827",
"p  c #3A3A26",
"a  c #33322D",
"s  c #36392D",
"d  c #3A3C2D",
"f  c #353532",
"g  c #383734",
"h  c #373831",
"j  c #3A3A34",
"k  c #3B3C3A",
"l  c #403F2B",
"z  c #3D412E",
"x  c #3E4133",
"c  c #3F4139",
"v  c #42422D",
"b  c #48472F",
"n  c #49482F",
"m  c #424534",
"M  c #494733",
"N  c #444A35",
"B  c #4B4C35",
"V  c #42443B",
"C  c #48473A",
"Z  c #464A3B",
"A  c #494C3B",
"S  c #504E35",
"D  c #455237",
"F  c #47513A",
"G  c #4A533B",
"H  c #4C593F",
"J  c #515035",
"K  c #585737",
"L  c #54543B",
"P  c #57593D",
"I  c #5B5B3D",
"U  c #615F3E",
"Y  c #61603F",
"T  c #444542",
"R  c #474842",
"E  c #4A4C43",
"W  c #4B4C4A",
"Q  c #4B5342",
"!  c #4E5149",
"~  c #5D5D41",
"^  c #505050",
"/  c #646442",
"(  c #686743",
")  c #666845",
"_  c #6A6A45",
"`  c #666649",
"'  c #6B6C4A",
"]  c #706F45",
"[  c #727146",
"{  c #73734C",
"}  c #78774A",
"|  c #7C7C51",
" . c #808054",
".. c #888958",
"X. c #91925C",
/* pixels */
"h a e j T k k Z j f q q & 7 k k f k T T k T W k f f k f x H x a a r e a g g h m Q j x E Z - 7 q f x N E T h a a y a N d a k s a ",
"g e h k k k k R k f a a - , f k k T W T k ^ W k f k k k D Q D i t t e e g h j V ! T j Z k - 7 e t j D Q V h s m a j B m a m s a ",
"h e f j j g g V k h f f & 7 k k k k T T T W T k f k k k c Q x t q a e q f e g V ! T k V k * 8 f a s x F j q a j f h m j s v s a ",
"e f f g f f g k g j e e & , k f f T T T T W T k f f k g x Z d t e a a a f f k T ! T T V j * 7 f t z N x h 0 a a a j j g k j s a ",
"a e f g g g k T k f q f & 7 f f k k W W W ! k g f f q f c E x t q e q f q a k T W R E c k - 7 e a x x x c t a q e h m g s s a a ",
"e q e g f g k R T f q q & 7 f f k T W W W W c k f f f a F F x t e f f f f a T W ^ ^ W E k - 7 q t x x h f 0 h f f g N d w g s a ",
"e e q a f f k T k f q f - - f f a k R T R R V k q k q 7 x D a t e f e f f q k T W T W W T - 7 8 t h d s t 0 t a f g V d 8 i s e ",
"* & & & - - - 7 7 & & & O O & & & - 7 , 7 1 , * & & & & = 7 = & & - & & 1 a s k f 8 8 8 , O & & * - , y x r 3 * & & 1 : & # & # ",
"7 7 , 7 q 8 8 e q 7 7 7 7 7 7 7 0 a s a a z r 7 8 8 8 8 1 , 0 8 0 a g y y y y U I d j C k f a 8 8 y v ) N s p 0 7 7 9 1 * & O 1 ",
"q f f q f k k T k f q f q q a q g m Z c j m x a f f f a 0 = a h a e l Y P B d v U p y s C A C w 0 y I m d J I / m q a 0 9 * o e ",
"f f f f k k k k f q q q 8 8 q 7 a a c T m Z V f a f k g 0 & 0 j j 9 l S ( / ~ v J S 4 B  .X...Y 4 b P m I ) ' I v 4 9 0 a 1 O e ",
"f f q f f g k k k f f q e q q 8 e a j T Z j j j f f c k a & 3 a w 4 y & < d I _ ` ` L v ' { [ S B _ ~ ' / B 4 = y p 4 q 9 = # 0 ",
"q e 8 f f f k T k f f f q q e q 0 a j T R k f k a q f f a = 9 t 1 w < $ . % v _ / L A u I L I u B S ~ { A 1 X % < 6 2 r 0 = # e ",
"f q q f f k k T T f f g f q e q 0 h g C R k a k f a f f f = 9 t 2 y < $ .   @ 2 = # M y 1 : < 4 M = = y <   . @ % 4 3 r 0 = # a ",
"f 8 8 f f k k k k q q g f 8 8 q 0 a a R Q R f f k f f f f & 9 t 1 6 % # X     % 4 s I y . . . ; I d 0 2 #     @ @ 4 < y e * o q ",
"e q q q g g g T T e 8 f f q q 0 e h h V E Z k k q f f k q * 9 t 2 4 $ .     # y 4 d S 4 = # ; ; n d y p 5     . X < 2 0 y * O 0 ",
"f f f f k k k T k q q e f q e e q a k C E E k g f q k k q & 9 t 4 < o       ; y 5 y $ . # < * . @ 2 y y 5       . % 3 4 y * & a ",
"f e e f k g k k k e a g f q f a a s g V A R c j g f k k t & 3 a ; % X     o 0 4 = < O   # u ;   X < = 1 y #     . % < 4 t = # 9 ",
"g e e f f k k T T a e f e q f h a d j V Z Z Z V k g k k f = 7 a ; % X     o v Y S 5 O # d _ B = @ < b U B #       % % 0 a * O 0 ",
"g f f f k k T T V a q a f e e a s a g V Z V m k f f k k h > 9 t 1 = o       ; u U ] I v B | I l S ] _ p <       . < = y a & O 8 ",
"k f f f f f k T j a 0 a a q 0 a s a j Z A N x a f f f k h > 3 a 1 = #         1 K / l 5 v { J 4 u U _ 5 .       @ 3 = y i $ O 9 ",
"k f f f f q g k m s 0 e a e a a a g j V A m j h h f g k s > r h 8 O #     X   $ u = $ 4 = i 3 2 ; $ < $         @ + , y s = # q ",
"q f f f q q q g N g 0 q q e f q w g j x Z x d x f f g f r , i s 1 O o     = O   @   ; l %   X 6 5 X .     O X   X . 1 i a * o 8 ",
"& & & O O o o = = & O O o o o o o # * * < = > - & O O + # > * + o .       o X   X X O ; #   X < O @ X     o         # = $ X . O ",
"f f f f f q q z j a 0 0 : - q 0 e a s a s p z i 9 4 0 9 y z y 9 8 1 & # - 9 1 X   = 4 < $   @ < 2 4 +   - 3 = o & - i z i 0 q q ",
"k k k k g f f x x h q h 7 1 e a g g V g Z N m z a a a a d D z i a e 0 0 0 a e -   = v p 3 $ < v z =   O 0 a 0 1 7 a j m x h g k ",
"k k f f f t t x x f f g 1 - 0 a h k V m A B x d a a d s z x z s g s a a a h g a #   = N Y Y Y K <   o 7 s a a a a g j j j t f g ",
"k k k f a a t x x f f f 1 : a s g T l m Z G D d a a j d x D z s g g g g g j j x 9 +   X < < 4 @   o , j m s a y f j x j j f q f ",
"f k k q q f t x d a a f 7 1 a j j V C k V Q Z h s s d m m D N z g g f f g j a Z x , + o       . # , a T T a h a a g m z a h a a ",
"k k f q q f t c d 0 q h q 1 f k j k Z V j E Z j g h j x x H D x h h g f a g j Z E t 3 , &   o & , t c R E j a 0 a h m z a d a 0 ",
"f k k f q q q k i 0 t a q , e g k V C V V A Z f h g g j N H m x g j g f t h j V Q j h a 7 o & 7 q k W W E l s 0 a s m j a d s 0 ",
"k k f q q f f T a 0 0 a 7 7 f k j j V x g Q Z g f g k V x H N j j j q t f k j V Q h x Z a o - e f T W ^ R g s i a g N d a s d a ",
"f k k g g k k R h 8 8 e 7 - f g j j Z j j Z N f f x c h c Q Z f g j f e f k g c Q a x A j + - f h j T W T a a x r a m d a a s e ",
"k k k k k j j C h q e k 8 7 f f j g Z x j Z N f t c k k x F c f f j k f f f k T F a V E k + 7 h a k T W T f f h s g m m s s g f ",
"k f g k f a j k a q e f 8 8 g f g j m m N N x t f f h h x x x h f k f f f a f c F x m N a o 7 h a j T T c k f f h a V g s s g f ",
"f f k f q q a m f q q f 8 8 f q s g x j Z Z j a t f h x c x j f e g g f t r f x N d N m t o 7 k h V T T k f f f h f N d g g g e ",
"a a f e 0 q a A x f q a 8 8 f e s m Z N G N d t t f f h Z F j f f k g f t a j Z F N F A f o 7 g g T T T k a f a g j A V g s a f ",
"f a a q 0 y a N V f q a 8 8 f e g m V N B B x a a f h t x Z f f f f g f t a j Z D N N N h o 7 k g T W k f f f f g k E Z j x g a ",
"8 q 8 7 7 7 7 d s q 7 7 7 , q 8 e a h s j x h 7 7 8 0 7 a j t t q q q q 9 7 t j x s x j 0 X - f e f f q f q q q q a k x a a a 8 ",
"+ O o o $ 3 r p 4 & o o o o o o O * = 0 N a 4 # o o o o o o o o o O o o o o # = = # = - O   X # O O & O O o o O o + & & & o o o ",
"t q y s y i w S _ v 0 9 w e 0 8 0 p m ) B u d i y 0 0 0 : o 0 a q q a q f f f x x z z x 0 7 w e e a a w a e e e q q a s s 4 & q ",
"t q s I Y K M p L M 6 4 d A B a 4 r J B d L Y ) K y 0 q 1 o 0 e q q f f f f h x D x m N a q a e e a d e i e i e 0 0 y a g 0 * a ",
"r 1 p v I U ~ B C ~ y l | X.X.{ y v I V P / ) P v 6 1 w 2 o 9 a q q q f a f f h d x N b t 0 e e w i i a a e e w 0 0 a e f 7 & f ",
"0 1 p $ $ w I ' ' ` ~ l Y ' ' K n _ ~ ' ' A 3 = 4 z 1 0 4 # r a q q q f f f j k j N N x q q e e 8 e d s i a a e h h m k h q & e ",
"0 6 4 %   X w P / B B p B L P p v M B _ J 4 X # % 6 2 4 3 $ 0 a 8 q q f f f k g h V V V a q e e w e s d a a a f f h k V k 8 & a ",
"4 6 < % @   . = ; o d v = ; = < M 4 # 4 1 .   O @ 2 4 4 1 + t f q e q f q f k k j Z Z V h h k g g s a s a e a e e j j l k 8 & e ",
"; 6 ; @ o   . $ 2 p I n X . . # L B u 4 = .   o X < 4 1 1 # t j e a q f f f f k c R E R g f g k g g a j j f f e e f k m j 7 & f ",
"< 4 % .     X y w y l 5 % = < = p p 0 d p X     . % 2 , 1 # a k g f q a q f f f k Z ! E f e g f g j V j g f e g f g V V k 8 & k ",
"; 2 @       $ 0 2 y ;   X < = . . ; u 2 u X       # < < 1 + h j a e q f t f k f k V Z T f f g f a g k j f f f f f k c V k q & f ",
"= = @     . 3 u < ; #   o u w     = ; 2 u ; .     $ < 2 3 & h h q q q a j t k k k V E Z k f g a g g j V k f k k f k c V j 0 & t ",
"1 % @     . y U U p = $ u _ Y 4 # < v U J = X     # = 8 r > h g a a f f t t j a k V Z R c f a e f j k V k f k k k k k R j 7 & g ",
"3 = $       o 0 S } ( M v { ( l B ] } v : .       = = q a > j j f q q f q t k g k Z E c k f f f h k k T k f k f f f c R k 7 & f ",
"7 & =         * S Y l 4 s _ U w 2 B ( p X       . < * f a = d a q q f f a e g k c Z A x h h j g k k c c T f k f a a m N j 7 & a ",
"9 # O .   .   o 5 % # 4 ; 1 ; 1 4 # % %         o $ - k y > m j q q q k f e f k c Z Z V j j g f k j k k k g f f g a j A A q & a ",
"7 # . .   & O   @ . # s 1     0 y o .   . & O   . X - q 7 = a q 7 7 7 q 8 7 9 a h j j s f t 8 q q q a f f q q q t q 0 x h 1 # 7 ",
"* & .     O O .   @ @ $ =   . = # # #   o , & .   X & - - q 9 7 - & & - * - - , 7 - 3 9 q & O - - - , - - - - - - - 7 q 7 * * * ",
"a q - O & 7 e -   $ 4 < % . X < 2 4 $   7 k f 7 & , q f k E C j k f f f f f f k c g m V Z - , g k k k f k k k g k k T T c a a a ",
"a e 0 3 7 q q 8 O X u b p < < v M :   o h W T k 8 q f f j V V s q q f f f q q f j j Z N V * 7 V c g k k k k k k g g k C V a a a ",
"a a q e t t q k ;   O u Y Y Y U 9 .   7 V E E T g f j f g m Z j f f f f f q f f x N B A m * , k k k T f f f g g k k k Z M s y 0 ",
"a a f e a f a c y &     @ % $ @   . - q Z E T C g f j a j N N g k q q k q 8 q f a N Z E C * - j j k k f k g f f f f c A N j a e ",
"s e a a a a f c k , O o .   . X o & 7 k N Z Z V k a f q j Z m h g g e f a q q h s d V T V , - f j j j k j j h f q y m B j a a g ",
"s w e a q f k c k k 7 & O o & & - 7 k T c E Z R k f f f x B m s a e q f f f t s x j V T V - 7 a f j f f g a h a q a Z A N s a f ",
"g a e g k g k R R c f q & & 8 8 q k T T T ^ R R k g g f V N B g f q 0 h h h h d x V V T V - 1 0 a a s a a a a e q s N B M j a f ",
"l g g g g k j V E k q f - - g k k T T T T W W T k f g e h m x a f a 0 a h a s s x c j k k * 7 t a a s s g a a a 0 h m A C g g a "
};
