/* XPM */
static char *_99d673d2a8949c9ecf6bdd802155ddaLsiuZGQxcGMt4Jtq[] = {
/* columns rows colors chars-per-pixel */
"64 64 134 2 ",
"   c #170700",
".  c #170D03",
"X  c #1C0C00",
"o  c #1E1102",
"O  c #220E00",
"+  c #280E00",
"@  c #241201",
"#  c #2A1501",
"$  c #271805",
"%  c #2F1A05",
"&  c #2D1807",
"*  c #2C1A06",
"=  c #2D1B07",
"-  c #2D1A04",
";  c #2B1C05",
":  c #2D1D04",
">  c #2F1D05",
",  c #2F1E04",
"<  c #2E1E05",
"1  c #2E1C06",
"2  c #2F1D07",
"3  c #2C1904",
"4  c #211509",
"5  c #271708",
"6  c #281608",
"7  c #2A1708",
"8  c #2B1709",
"9  c #261908",
"0  c #281808",
"q  c #281809",
"w  c #291909",
"e  c #2B1A08",
"r  c #2A180A",
"t  c #2B180A",
"y  c #2B190B",
"u  c #2B1A0A",
"i  c #2C1908",
"p  c #2E1908",
"a  c #2D1A09",
"s  c #2C1B09",
"d  c #2F1A09",
"f  c #2C190B",
"g  c #2E180A",
"h  c #2F180A",
"j  c #2C1B0B",
"k  c #2E1B0A",
"l  c #2B1C09",
"z  c #2E1C08",
"x  c #2F1D09",
"c  c #2D1C0A",
"v  c #2E1D0B",
"b  c #2E1B0D",
"n  c #2D1C0C",
"m  c #2E1D0D",
"M  c #2F1E0C",
"N  c #2F1C0E",
"B  c #2F1E0E",
"V  c #2D1B09",
"C  c #301600",
"Z  c #311700",
"A  c #301701",
"S  c #301701",
"D  c #301800",
"F  c #331B01",
"G  c #311802",
"H  c #331902",
"J  c #321903",
"K  c #301A02",
"L  c #301A03",
"P  c #331B03",
"I  c #341A01",
"U  c #351B02",
"Y  c #341A03",
"T  c #301C03",
"R  c #341C02",
"E  c #331A04",
"W  c #351B04",
"Q  c #341B05",
"!  c #311D04",
"~  c #321C05",
"^  c #301F05",
"/  c #311C07",
"(  c #321E06",
")  c #331F07",
"_  c #341C04",
"`  c #361C05",
"'  c #351C06",
"]  c #361D07",
"[  c #341E06",
"{  c #331B04",
"}  c #381E06",
"|  c #301B0A",
" . c #321D08",
".. c #331E09",
"X. c #301E0A",
"o. c #311F0B",
"O. c #351F08",
"+. c #371E08",
"@. c #341F0A",
"#. c #301D0C",
"$. c #311E0D",
"%. c #301D0F",
"&. c #301F0F",
"*. c #321E0A",
"=. c #381F09",
"-. c #381F0A",
";. c #321F10",
":. c #2F200D",
">. c #302006",
",. c #342006",
"<. c #392107",
"1. c #31210A",
"2. c #342008",
"3. c #362008",
"4. c #372109",
"5. c #35200B",
"6. c #32200C",
"7. c #36210C",
"8. c #37210C",
"9. c #35230D",
"0. c #37220D",
"q. c #34220E",
"w. c #35230F",
"e. c #35210C",
"r. c #382008",
"t. c #392109",
"y. c #39200A",
"u. c #38220D",
"i. c #3A230B",
"p. c #372010",
"a. c #362110",
"s. c #352311",
"d. c #392513",
"f. c #392816",
/* pixels */
". . . . . . . . . . . . . . o . . . . o . o . o . . .     X X X   @ .   @   X X   X X X X O X X X   X       X   @ X X X   X   X ",
"4 4 o o o o . . o o . o o . . o o o o o o o @ @ 9 5 5 5 5 5 5 7 @ 9 X o 9 @ 5 7 7 7 8 g N N b ;.;.b N $.N b c s 5 5 5 @ 5 @ @ @ ",
"5 e y 5 @ @ @ O o @ o X o @ @ @ o @ @ @ $ $ $ @ 3 & 3 3 & & & 8 9 l o @ = $ u s 3 5 3 3 g b  .s & s c *.O.q.u.q.*.*.*.( *.& c *.",
"3 e e e e & & h 7 e 3 3 & s u u 3 3 3 - ; ; - - - @ - - & Z - & e 3 X @ ; @ @ e @ O X o O @ + O O + + @ @ - Z Y - - - - - - # - ",
"- Z Y W W ] +.+.+.+.=.=.r.=.=.O.,.e.( ` ` W / W - # Y Z Z A C Z $ $ o @ : @ 3 3 3 3 # 3 - - - # # - @ - # # @ # + + + + + + + O ",
"W W Y Y W W ` ` Y W W Y W H Z - # # - @ # @ # # # + + + C # C @ ; ; X @ >.; ; ; >.>.: : H / H Z H H W W I I W W Z - - H - Z C - ",
"Z - C # C # + # + + C C C # # + O O + @ + @ @ @ # @ # # + C # - : >.@ @ : @ 3 @ @ @ @ # # # & # # # Z - W W } } O.O.<.,.} ` =.=.",
"+ + + + + + + + + + + # Z Z Z H 3 3 3 = = = *.*.=.-.-.-.-.p.-.p.9.>.X X $ o O o O O O + @ @ S + # # # # - - - - # - # # - - - - ",
"- - - & / ( ( e.-.*.*.e.e.e.O.*.m m l m 9 l u u 7 3 7 7 8 8 h s c ; 5 @ 8 *.*.*.;.s.;.p.;.;.-.;.1.= = = = = = = & & & = = = = = ",
"@ @ # 3 3 e e & 8 @ @ @ e 3 3 @ @ @ @ @ @ @ @ @ 5 5 7 7 7 # 6 6 @ @ X O @ 7 r 7 g g 8 $.h h h h e 9 $ @ 5 3 9 @ @ @ o @ @ o @ @ ",
"O o X X X X X X @ @ X o o @ @ X X X . X . o X o     X X X X X   O O X X X O O + O O O O O O O X @ X X X X o X X o o @ o X o X o ",
"s.q.s.:.s.:.N b u 5 @ @ @ 9 @ @ l l u l m m m m s.s.s.s.d.d.s.-.b s 8 8 b 7 # # h h h h h h h 8 e 9 $ $ $ 9 9 9 $ $ 5 $ 9 $ $ 9 ",
"c & s e 8 3 3 # s & @ @ 5 & = 3 + O X O O O O O @ # 3 & h  .g & s & & = & - # @ O O + O O O + O 3 @ 3 @ @ $ 3 3 3 $ 3 # 3 ; = = ",
"e - # - & Z @ - & & @ + @ & & # - - # # @ # @ # @ # @ - A A & & # @ @ 3 # # - # h + - & & # Z - @ O @ @ + @ @ @ @ # # - # 3 3 - ",
"+ O + O + @ @ @ - H # + @ ( ( - Z - - - - C Z Z Z Z Z Z Z Z Z Z ( T ,.,.,.,.e.t.+.O.=.` } } } } T T T ,.: T ,.,.- - : - H - - - ",
" .` ` O.-.i.i.i.H ` Y + # r.r.` t.t.} t.t.y.i.i.+.` ` W Y Y Y W - - - - - - - - Z - Z - Z - H - H T R T H H R ,.t.<.t.<.,.,.R R ",
"/ H H T ( ` ,.e.H T # @ @ ` T - H H - - - # # + @ @ @ O @ @ 5 @ $ @ 3 @ # $ @ @ @ @ O @ @ @ @ @ @ @ # # Z - Z H H = H H / H - - ",
"# @ # @ @ @ @ @ @ @ @ @ # ` ,.- - - - - - # - - @ @ @ 3 @ # @ 4 e 3 3 3 @ # @ @ @ @ @ @ O @ + O + O @ @ @ @ @ @ # - - - - - - - ",
"@ @ @ @ @ @ @ @ @ @ @ o @ 1.q.& ,.,.` ` ( ( W ] q.s.s.s.;.;.&.&.& = ; e 3 3 3 @ e 3 e 3 & e e e - / / / / - - / - - - & & & - - ",
"e 5 e $ 5 e u & @ 5 @ @ @ l u 9 ( R ( ( H - - & @ @ @ @ O O X X @ @ @ @ @ @ @ # # # = = *.= q.1.O.O.q.O.u.u.e.e.e.r.O.u.e.O.O.W ",
"@ o o o o @ o 4 @ o o o o @ @ @ O @ + O O X O X O @ O O @ X X X   X   X   X X O X @ @ @ @ O @ @ + @ @ # - # # # # + - @ - @ - # ",
"o o o X X . . X   . o . . . X X O O O O O + O + X O X X X X O O @ @ @ O o @ @ O X @ @ @ @ o X O O O O O + + O + O X O O O O O + ",
"9 4 @ o X o o o o o X o o o @ o 3 # - - # - 3 3 s s s s s s s b 3 e & # 3 # 3 @ @ 3 & c & 3 3 e @ - - & - 3 3 & A & / / / Z & / ",
"; ; 5 3 e e $ e # e e e 9 @ 5 @ 3 3 # # # # @ @ @ @ O @ O + O O X X @ @ X @ @ X @ 3 = c = = c 1.u.u.O.-.O.-.*. .-.O.O./ & - # @ ",
"3 & ( O.*.O.O.-.*./  . . .O.-.*.3 3 3 3 3 3 $ @ @ @ # @ & @ & # 3 e = 3 = = e @ @ @ 3 3 @ @ @ 3 # # - - - / / / s / & / - H & - ",
"H ( O.O.W / / W O.*.W W ] W ] *.3 ; ; 3 3 3 3 3 3 3 # - h 8  .h = = *.= 1.q.c # @ @ @ @ @ @ @ @ @ + + @ @ # # # - # # # - # # - ",
"C Z W Z Z Z - Z + # # @ + # + + @ @ @ o @ X @ X @ @ # # # A &  .& 3 e = = c e @ @ @ ; 3 3 @ 3 @ - - # - H / & - - - - 3 - / - H ",
"+ # C - C Z Z H ` W Y W A Z C - 3 @ 3 @ # e @ # # @ @ # @ - & s 3 e 3 @ 3 e # @ @ @ = = 3 e 3 $ @ @ + @ @ + + + + O + + + # @ @ ",
"Y Z A A  ./ ] / -.=.-.-.-.*.|  .; = c c c 1.q.:.O.] -.*.$.| | -.*.*.c = = c & @ X @ e & ; = & 3 # @ @ # @ # @ @ @ - - - - - - Z ",
" .& & 3 - & # # # # # 3 # 3 # @ e e ; c c *.*.1.u.;.;.-.-.-.O.*.*.1.>.& = 1.= 3 @ # & = & = = = W / / ] q.u.i.u.r.r.e.q.u.u.u.p.",
"@ @ O O O O O O + + @ 6 6 7 6 @ ; c c = = *.c *.& 3 @ @ # + @ + @ @ @ @ @ @ @ @ @ @ - e 3 3 e e # # @ Z H / & & - - # # # # - - ",
"O X   X X O X X   X X @ O O O @ @ X o O o X O X + O + O O O O O   X X   @ @ @ @   @ @ O X o O O @ @ + + @ @ @ O + + + @ @ + @ + ",
"@ # @ @ @ X   @ O X O X O X X X X O X O X @ O @ X O X @ @ @ # @ @ @ @ @ @ @ @ @ 5 @ @ @ @ o @ X @ @ @ @ @ @ @ @ @ @ @ @ @ X X # ",
"9.9.>.>.e.3 @ = @ @ @ @ + @ @ @ @ @ @ @ @ $ @ # ( = = = = = = = d.q.s.-.q.s.w.w.*.*.*.c c = & & @ 3 3 @ $ 3 @ e @ e @ 3 ; @ @ e ",
"3 ; 3 3 = @   # e # & ; y b N q.1.( *.1.1.e.1.e.c ( = : : 3 3 3 - - Z - - Z - # @ + @ + @ + + + @ @ @ @ 3 # 3 e 3 3 @ 3 e @ X & ",
"@ 3 # 3 e @ @ & = & & c *.c *.1.c *.*.( 1.1.1.1.1.*.= : 3 - 3 - - # # # # @ # # + @ + @ + @ @ @ # @ @ @ @ @ @ @ 3 e @ 3 3 @ X 3 ",
"& 3 @ @ 3 @ O *.3 3 @ 3 @ @ 3 @ @ @ @ # @ @ 3 @ @ @ @ @ @ # 3 3 Z Y Y Z Y W W W W R ` ` } R } ,.( c c c ( c c ( = = & = & @ @ = ",
"e 3 @ @ @ X   @ @ @ @ @ @ @ @ @ @ @ @ @ @ @ @ @ X O X @ o @ @ @ # + # - C Z Z H } R } } } } =.` w.w.w.q.q.q.1.q.= = ; = = @ @ :.",
";.*.*.N c @ X 3 3 3 3 3 $ 3 @ 3 @ 3 $ # 3 @ $ @ 3 3 3 3 3 3 - - # C C Z - H H H ` W W / W / / H H e = = = = = = 3 3 @ e e @ O e ",
"u b b s.s.@ @ 3 ; ; 3 3 3 3 3 3 : : 3 3 ; 3 3 3 3 $ 3 # 3 @ # 3 @ + # @ @ # @ @ @ @ @ + @ @ @ @ @ @ @ @ @ @ 3 @ @ 3 3 @ 3 @ @ = ",
"u 5 3 7 7 @ # 3 = ( : & : - : 3 3 3 3 3 3 3 3 $ - 3 @ 3 # @ @ $ @ @ O @ @ @ @ @ X o O @ o @ @ o X O X @ @ @ @ 3 3 @ @ & e @ @ e ",
"O O O @ @ O @ @ = *.1.1.,.9.w.w.9.9.9.w.9.9.9.9.e.1.>.1.= 3 3 = 3 5 9 4 9 9 9 4 u 9 9 9 j j j j f.d.d.d.s.u.f.f.w.1.*.1.= @ @ 3 ",
"X   X O @ O X @ X X @ X @ X @ @ @ @ @ @ @ @ @ @ @ X @ @ @ O @ @ o o @ o o o 4 o @ o @ o o @ 4 4 @ X X X X X X X @ @ @ # @ X   @ ",
"+ @ @ @ @ @ @ @ O @ @ @ @ @ @ O @ @ @ @ @ @ @ @ $ @ @ @ @ X X @ X . X . X X     . . . . . X X   X O O @ @ @ @ @ X X X @ @ O @ @ ",
"3 3 3 3 # 3 3 $ e e e = c *.s.*.9.9.9.q.w.9.9.9.w.w.9.( # @ @ # @ @ O @ @ 4 @ o O X @ @ o @ O @ @ @ @ @ @ # @ @ 1.= = = = & ; = ",
"3 = : - 3 = e 3 3 # # 3 e 7 7 3 3 3 3 3 3 3 3 3 3 3 : 3 @ @ @ - 3 u 3 3 3 7 3 3 3 u 5 3 3 5 3 3 e & e e e e = = c = = e = e e 3 ",
"@ ; : # $ 3 3 3 s & 7 7 5 @ @ @ @ @ @ @ @ @ @ @ @ @ # # @ @ e 1.3 3 # - 3 # - - & - - 3 # # - # 3 3 @ @ @ @ @ @ @ @ @ @ @ 3 @ @ ",
"@ 3 ; @ @ 3 3 3 @ 3 @ # @ 3 5 3 @ @ # @ # $ @ @ # @ # @ @ X + & & H ( T & H / H H - H H - H - H = = e 3 @ # @ @ e # @ $ 3 = & - ",
"+ O O @ + @ @ @ # - = ; 3 3 l q.e.,.r.9.r.9.e.r.( / / & @ @ S ] r.<.<.} t.t.y.y.R W Z Z H H W ( e.e.r.u.e.q.u.q.O.u.i.w.e.O.( / ",
"3 - - - - Z - - @ - & = e 3 ; = - - - H T H ( H H & H - @ + @ ] ` R W W H H W Y H H Z C - Z - & - - - - - - - Z - & & ( ( - - - ",
"H Z - # - @ @ @ @ @ @ # @ @ @ @ @ + @ @ # # # @ & # # # @ + @ & - # # + # @ + @ # @ # # @ @ + + @ @ @ O @ @ @ @ O @ @ @ # @ @ # ",
"# - # # # @ @ O @ + @ @ @ o @ X @ @ # @ # # # - & # # - # + # $.# - # - & A g g + @ + # # + + + @ # @ @ @ @ @ @ @ # @ # 3 3 # # ",
"u.i.u.d.i.i.-.q.w.w.w.q.q.q.c c # 3 @ 3 e # e # 3 # 3 7 5 @ 7 b & g 7 g N N b ;.p.;.d.;.;.;.;.;.3 @ @ 3 @ @ @ $ $ $ # e $ 3 @ e ",
"O + O + @ @ O O @ O X X X X X X @ @ @ @ @ @ O @ O X O O O X X O + + O + O + + + O X + + O O + X @ @ @ o o @ @ X @ @ @ @ @ o o @ ",
"# @ - - 3 3 # # 3 @ @ @ @ @ $ @ @ X @ @ X o O X O X X X X   X X X O X X X O X O 4 + 6 6 7 7 @ 5 o X O @ X X X X X X X X X   X X ",
"( ( ` e.>.,.( ( : 3 @ @ $ 3 ; = 3 e 9 3 e e e u e 5 5 3 3 O @ @ + O 4 + + 6 6 r + 6 6 8 8 s s u e e e @ e @ # 5 @ @ X @ @ @ @ @ ",
"Z - - @ @ @ O + X @ X X # c = :.e.e.1.e.e.w.q.q.*.s.;.-.;.*.;. .b u e 3 3 = 3 3 & & = e e 3 e # $ e 3 e e ; = c e $ 3 e $ 3 $ $ ",
"- - - - - # # # @ # @ X # e 3 e - / - & = = / / s s N *.$.s 8 8 3 # # @ $ @ @ @ X @ @ @ @ X @ O @ @ X o @ @ @ @ @ @ # 3 3 e ; = ",
"Z / ( ( ` >.O.O.= >.3 @ @ $ @ @ @ @ @ @ # @ # # @ @ @ @ @ @ & # # # @ # # 3 # @ # # - - - - - 3 # 3 3 # 3 3 / & >.= = = ; 3 3 3 ",
"` ` ,.e.,.e.q.O.= 1.# @ $ 3 $ @ @ + # @ @ # @ @ @ + O + + + + + # # 3 3 - H T : ,.,.` R ,.,.,.,.>.= ( ( *.>.O.O.( = T : # 3 # @ ",
"/ W - H - - - - 3 = @ X $ ; 3 3 - - Z - Z - Z Z Z Z - # S S h S Z # & S - - H - C Z Z - - C C # # @ # @ # @ # # + + + @ @ @ # - ",
"@ @ @ @ @ @ + O @ - @ X @ = ; = T R W W R ` } ` y.y.=.=.-.-.+.-.+.] E E T H - - # # & # # # # @ @ # + # @ @ + @ + @ @ # - @ # # ",
"@ @ # # # # # 3 : = @ @ @ = e : W W W W R ` W W } } ` ` ' ' S S E A + S S + # + + S h E Y A A Y T H W W R R } R ` ,.R R W W Y Y ",
"H H - ( ,.,.e.u.e.9.3 @ 3 ; @ 3 Z Z Z Z Z Z C C C + C # + + O + O O O O + O + + + + + + S + # - H H H H R R <.<.<.,.<.<.<.t.} } "
};
