/* XPM */
static char *__death1684622396[] = {
/* columns rows colors chars-per-pixel */
"64 64 250 2 ",
"   c None",
".  c #150B0A",
"X  c #290D0D",
"o  c #211919",
"O  c #37171B",
"+  c #191529",
"@  c #2D0E2E",
"#  c #2C272A",
"$  c #3A3939",
"%  c #2E2835",
"&  c #312419",
"*  c #490708",
"=  c #5C0505",
"-  c #5D0906",
";  c #550509",
":  c #59090A",
">  c #460E14",
",  c #540B13",
"<  c #591517",
"1  c #4D1610",
"2  c #640504",
"3  c #6B0403",
"4  c #640805",
"5  c #650A0A",
"6  c #6C0B0C",
"7  c #690708",
"8  c #730303",
"9  c #7B0404",
"0  c #7C0906",
"q  c #730B0A",
"w  c #7B0B0A",
"e  c #770808",
"r  c #68110F",
"t  c #681415",
"y  c #741414",
"u  c #7D1B1A",
"i  c #7A1717",
"p  c #741110",
"a  c #592315",
"s  c #4B261E",
"d  c #752710",
"f  c #5B0A39",
"g  c #4A102C",
"h  c #771922",
"j  c #6F122B",
"k  c #47373C",
"l  c #512A2A",
"z  c #752324",
"x  c #6D242E",
"c  c #4C4234",
"v  c #7D552C",
"b  c #12154F",
"n  c #161471",
"m  c #301A68",
"M  c #362556",
"N  c #4E3F43",
"B  c #4E1B7B",
"V  c #540F4A",
"C  c #315573",
"Z  c #464545",
"A  c #4C4C4B",
"S  c #484747",
"D  c #56504B",
"F  c #49585B",
"G  c #555453",
"H  c #5A5555",
"J  c #5C5C5B",
"K  c #59595A",
"L  c #514D52",
"P  c #635E5D",
"I  c #635D56",
"U  c #6A4F51",
"Y  c #66625F",
"T  c #5B5E63",
"R  c #655F61",
"E  c #596667",
"W  c #486863",
"Q  c #636363",
"!  c #6C6B6B",
"~  c #696667",
"^  c #736969",
"/  c #75716E",
"(  c #6B6D72",
")  c #646C71",
"_  c #726F71",
"`  c #6A7578",
"'  c #747373",
"]  c #7C7B7C",
"[  c #787778",
"{  c #830404",
"}  c #8B0403",
"|  c #8B0A06",
" . c #830B0B",
".. c #8D0B0A",
"X. c #860708",
"o. c #940303",
"O. c #9B0403",
"+. c #930906",
"@. c #9D0A05",
"#. c #940B0A",
"$. c #9B0A0A",
"%. c #97060A",
"&. c #85110C",
"*. c #96150C",
"=. c #870A16",
"-. c #9B0917",
";. c #831D1D",
":. c #881717",
">. c #951417",
",. c #A30303",
"<. c #AB0404",
"1. c #A40A05",
"2. c #AB0806",
"3. c #A4050A",
"4. c #A30C09",
"5. c #AB0C0A",
"6. c #B40303",
"7. c #BC0403",
"8. c #B50B05",
"9. c #BB0B05",
"0. c #B30B09",
"q. c #B70909",
"w. c #A6110B",
"e. c #B61309",
"r. c #A70811",
"t. c #A71718",
"y. c #B60D13",
"u. c #8D261B",
"i. c #B12F0B",
"p. c #921228",
"a. c #B10A2C",
"s. c #852322",
"d. c #8B2422",
"f. c #8F2929",
"g. c #942B2B",
"h. c #972728",
"j. c #97322D",
"k. c #9D3434",
"l. c #9D3A38",
"z. c #88323D",
"x. c #A42928",
"c. c #A2322E",
"v. c #A23335",
"b. c #A43D3C",
"n. c #A63A39",
"m. c #B62F38",
"M. c #C40303",
"N. c #CB0303",
"B. c #C20905",
"V. c #CB0A06",
"C. c #C40A0A",
"Z. c #CD0A0A",
"A. c #C5040A",
"S. c #D40303",
"D. c #DC0303",
"F. c #DC0906",
"G. c #D50C0B",
"H. c #D70709",
"J. c #C81109",
"K. c #D90615",
"L. c #CA1516",
"P. c #E40304",
"I. c #EC0403",
"U. c #E70909",
"Y. c #F30402",
"T. c #F90304",
"R. c #F40B06",
"E. c #F4090B",
"W. c #F70808",
"Q. c #F7130D",
"!. c #FB1917",
"~. c #E80E14",
"^. c #C62F17",
"/. c #F31B21",
"(. c #F9342C",
"). c #F53032",
"_. c #D81C29",
"`. c #A7443E",
"'. c #B34134",
"]. c #F54E3A",
"[. c #A53F40",
"{. c #881F5E",
"}. c #DA397F",
"|. c #995659",
" X c #8E484A",
".X c #AC4544",
"XX c #A94545",
"oX c #B34C4B",
"OX c #B44947",
"+X c #BC5857",
"@X c #AD544C",
"#X c #B56764",
"$X c #C25A5B",
"%X c #C94C49",
"&X c #F9595B",
"*X c #F84E47",
"=X c #C96766",
"-X c #D27172",
";X c #F1787A",
":X c #C66D51",
">X c #75827C",
",X c #82927E",
"<X c #E2887B",
"1X c #141088",
"2X c #28148E",
"3X c #190EB7",
"4X c #0D15B2",
"5X c #2F13B6",
"6X c #1F20B5",
"7X c #342BA7",
"8X c #4B229B",
"9X c #7B7F81",
"0X c #5D5FB5",
"qX c #0B13D3",
"wX c #1A2AE7",
"eX c #2259CF",
"rX c #3B63E2",
"tX c #807A84",
"yX c #D37C84",
"uX c #E27E83",
"iX c #5F819F",
"pX c #77888B",
"aX c #7398A3",
"sX c #848484",
"dX c #898888",
"fX c #8C9495",
"gX c #949495",
"hX c #9A9B9C",
"jX c #8A8E8D",
"kX c #AB9B98",
"lX c #B0A79B",
"zX c #9E9FA1",
"xX c #818BB8",
"cX c #A49EA1",
"vX c #9CA3A7",
"bX c #8CAFA1",
"nX c #A4A4A5",
"mX c #A9AAAA",
"MX c #AEB4B1",
"NX c #8EA29B",
"BX c #D88C88",
"VX c #E8898C",
"CX c #CFABB0",
"ZX c #B9C2B9",
"AX c #95C1B7",
"SX c #C8C0BD",
"DX c #B5CDCC",
"FX c #BAE8E0",
"GX c #D4D5D5",
"HX c #CCCDCE",
/* pixels */
"                                                                                                                                ",
"                                                                                                                                ",
"                                                                                                                                ",
"                                                                                                                                ",
"                                                                                                                                ",
"                                                                                                                                ",
"                                                                                                                                ",
"                                                                                                                                ",
"                                                                                                                                ",
"                                                                                                                                ",
"                                                                                                                                ",
"                                                                                                                                ",
"                                          ~                                       ~                                             ",
"                                        ~ !                                       / !                                           ",
"                                      ! ! sX                                      sX_                                           ",
"                        Q             _ sXgX                                      zX]               Q                           ",
"                        Q !           ! sXmX                                      nX]             Q Q                           ",
"                        J !           H / mX[                                   dXnX! J           ! A                           ",
"                        J Q Q         D ~ zXgX'           $.6.7.7.1.          [ gXhXQ H         ' T S                           ",
"                        A G ' sX      A Y sXfX[ (   ,.#.I.Y.R.R.I.S.M.O.,.  ( tXdXsXJ D       sX! G S                           ",
"                        S S Q ' /     c J pX X<.6.M.M.V.Y.0.U.I.P.6.8.S.N.7.6.<.tXsXG       dX[ Q S                             ",
"                          Z A ( dXhX  $ < - 9 M.N.M.N.P.Z.I.<X&XE.D.<.D.<.M.M.M.0 7 O D   gXdXQ D Z                             ",
"                            Z G _ jXcXvXk.L.R.T.T.N.M.D.F.F.&X*X].P.2.D.,.S.Y.W.U.y.|.lXnX,X' G S                               ",
"                            $ Z E ' gXmXDXHXmXL.T.S.6.D.D.F.*X&XQ.P.5.P.,.S.W. XkXGXZXMXgX' J Z $                               ",
"              Q             z $ A K ' jXbXGXGXfX~.S.4.Y.I.D.Y.W.Y.H.Y.Y.@.S.CXkXSXHXmXaX_ G S $ 5.                              ",
"              P sXdXsX    N.P.x $ A Q ' |.nXMXpX~.N.N.P.T.q.9.F.q.C.T.D.3.D.CXkXlXmX|.9XP S $ 5.P.      sXdX                    ",
"                P J ] mXnXm.=.H.l $ S Q E ! ] ` R.9.2.8.I.T.6.D.0.T.P.M.3.8.R.] / ^ ~ P S $ i 0.>.m.cXnX[ K J I                 ",
"                  P K ' vXvXpXE E.l $ S F K pXH.P.7.4.9.1.T.8.M.0.Y.#.4.4.9.I.N.E E L N % s P.^ sXcXnX' H J                     ",
"                      H G 9XdX) ~.&.@.q.Z.H.P.S.7.3.Y.I.S.9.8.8.D.$.D.Y.D.$.6.S.D.V.w.#.} A.y.' sX' D U                         ",
"                      H.< N F F V.S.| { 9 ,.8.7.N.D.U.D.S.M.I.N.P.7.7.N.6.7.M.6.7.,.- 4 { M.C.F T $ %.2.                        ",
"                      C.I.P.s i F.M.#.o.O.7.7.7.N.P.I.F.7.+.2.2.#.1.7.7.<.P.M.8.6.6.} 8 = 7.B.:.s P.I.0.                        ",
"                    2.6.I.P.#.&.3.M.e 8 O.7.7.M.M.T.I.U.7.,.0 ,.9 <.1.<.S.I.D.6.M.6.O.} 3 3 q P.U.I.P.2.6.2.                    ",
"                  6.q.3.M.,.<.<.#.| 3 8 3 o.1.9.M.R.I.F.7.,.9 8 { O.2.S.U.Y.8.6.3.3.: = e { 9 6 6.S.q.,.6.<.                    ",
"                  7.9.D.| <.7.N.Y.P.7 7 i y u 0 ..<.T.D.7.,.9 3 { <.7.Y.T.M.w 0 6 7 2 @ j 6.,. .e o.} N.7.2.3.                  ",
"                  w | o.7.P.4.7.P.2.9 i i u i u s.o.I.U.7.,.8 3 { <.M.T.P.<.u q , : g b 5X%.6.%.4 I.0 <.{ w 1.                  ",
"                  5 = 9 0 7.| O.&. .s.;.s.i ;.5 6 * ,.Y.J.M.X.9 } 7.V.S.<.6 2 6 2X=.y f -.=.3.O.e M.{ 9 4 3                     ",
"              B.S.| 8 2 2 3 q :.;.+XXXg.d.y i 5 6 : g.*.Y.H.N.,.6.S.T.=.t * g n i =.6Xh x ;.i s.4 7 3 = 9 } M.N.                ",
"              N.D.6.o.3 - 3 f.g.v.-Xv.XXb.s.t p u : 5 <.Y.M.M.3.7.S.Y.w > * @ p.V -.V 7Xm v.b.s.p 3 ; 3 O.6.P.S.                ",
"              q.N.<.O.3 3 6 ;.d.k.XXb.+XoXj.s.;.g.l.u : 6.6.@.O.O.7.r :.f $.>.7X3X3X5Xt.p.OXOXd.s.2 3 7 O.<.M.7.                ",
"              2.7.%.{ } 3 p y ;.g.f.k.OXb.h.b.=XBX=X.Xl.q { 9 5 9 w y s.c.1X*.f qX2Xh.B =.p.g.u u = 3 } { O.6.7.                ",
"              6.<.} 9 O.3 6 r ;.g.f.k.OXn.g.oX-XVX=X=XoXj. .0 r e r s.k.[.^.V 4Xn V qXp.h h.p.;.p 4 3 o.9 o.6.<.                ",
"              q o.{ ,.O.9 1 fXl w i d..Xb.+XyXuX$Xm.k.-XyX=X`.;.`.BX%Xz.[.i.n t qXj :X7X=.> a k NX* 3 O.O.9 } |                 ",
"              d 7 8 o.9 4 X ] c ` e u g.[.$X=X[.=X=Xh.j.=X+Xn.d.l.h.h.c.%X<Xg h d.oX2XL.< X.d # >X1 - 0 } 8 3 e                 ",
"              O.O.o.8 9 = X o Z hXjXy i h.j.v.oX$X=XoX$X-XoXk.XXf.+X-X#X=Xm oXx.s.z v.u.r ! ] c o X * 3 { ,.O.d                 ",
"              <.6.6.q O.z ; . & ~ ' k t > u h.OXoX+X@X=X-X.Xj.#Xd.=X<X=XyX@X`.XX;.=., :.K jXgXo . * - O.0 9.2.O.                ",
"              @.M.N.2.7.DX1 * X b ( l gXfXA O :.:.c.j.OX.X.Xk.`.k..Xn.m.x.x.>.i O k fXpXU I Q X * 8 FXw.6.S.<.,.                ",
"                1.M.B.D.pXa q : % b b L sX( fXt d ;.:.u x.v.|.'.k.h.h.x.x.p.>.s.mXF NX% b F # 7 u v ! N.1.S.2.@.                ",
"              i.B.2.8.Y.J.G.a W pXr + + $ % l U nXk 0XeX{.{.|.lX@Xp.B eXaX, 5 , 1X+ $ + , 7 F W d M.B.U.B.2.8.i.                ",
"                  <.+.&.F.P.(./.J.*.8.9.@.t t U sXjXC p.aXvX>.}  .AX0Xr.C nXY C x g < < t z 5./.F.D.q...$.M.e.                  ",
"                9.M.<.q 0 4.U.P./.t.w.e.5.6.r.%.R dX=.A.lXMXr.D.4.ZXbXM.x aXl %.0.#.2.2.<.V.!.H.Z.6.1.7.M.M.9.                  ",
"                  6.| g.$.} o.<.8.F.Z.5.C.a.).j r.-.6.P.F.H.I.U.Y.I.I.P.6.%.#.<.D.P.B.Z.(.J.6.| @.D.M.M.,.7.                    ",
"                  6.*.k.`.t.0 0 ,.7.!.G.E.8XT.~.~.0XE.a.Q.Q.!.V.P.<X]./.G.G.~.W.VXVXU.U.E.7.{ o.q D.w.O.,.<.                    ",
"                  o.o.h.k.k.{ { O.X.A.P.K.E._.a.p.}.).&X*X~.E.B.M.W.!./.(.].*X&X(.Q.H.V.C.} | XXe 1.O.w o.@.                    ",
"                  O.o.f.k.XX} { ,...A.C.H.8XK.rXwX2X].*X(./.I.0.9.T.!.!.(.<X&X;XVXU.V.B.7.o.#.'.q @.o.{ o.o.                    ",
"                    q   :.o.{ ..O.#.7.A.Z.H.K.4X5X2Xj 8XW.H.D.3.M.D.U.Q.Q.Q.W.R.I.P.D.N.q.| *.j.r @.e    .}                     ",
"                    { 9  .N.U.D.Y.N.X. .O.2XK.K.K.5XD.M.C.S.H.4.6.B.8.B.N.N.S.M.6.+. .} :.P.Y.F.P.N.q {                         ",
"                        <.B.DX#Xy.I. .M.A.-.3.5Xa.-.7.3.1.7.M.} o.2.@.<.6.B.q.6.O.,.7.7.@.I.9.ZXAX7.O.                          ",
"                         X! 9XF G.P.#.U.-...| 3.0.8.} S.| 6.O.{ o.M.{ P.{ <.@.O.| O.0.P.@.I.3.) [ [ z.                          ",
"                        U ~ _ F Z.I.9.J.,.O.%. .%.| 5.Y.| +.O.{ o.{ O.T.#.+.@.<.O.O.O.P.,.I.$.T ' (                             ",
"                          ~ ! G N.P.6.5.w   o.e 6...I.I.  } o.} O.{ <.I.I.@.6.{ |   w M.<.P.r.L ! Y                             ",
"                          U K $ > 8 w M.  q { 8 q M.D.O.{ 6 } } o.8 }   P.M.{ e { { 9 6.q - > k K G                             ",
"                          H N       +.<.7.9 9   O.q   } = 3 9 { 9 7 2 } X.0 w   q } O.o.&.i                                     ",
"                                        O.{ 4 S.M.7.9 ; 3 8 3   3 8 8 ; 9 7.M.M.5 O.                                            ",
"                                              3 2 2 ;     8 3 7 8 8 2   = = 4 8 | o.                                            "
};
