/* XPM */
static char *__death1684622397[] = {
/* columns rows colors chars-per-pixel */
"64 64 256 2 ",
"   c None",
".  c #3A0A18",
"X  c #37191B",
"o  c #2B1215",
"O  c #2C0C2B",
"+  c #372527",
"@  c #39393A",
"#  c #382E33",
"$  c #2B172A",
"%  c #490A0B",
"&  c #540609",
"*  c #53090A",
"=  c #5A0607",
"-  c #470B15",
";  c #580915",
":  c #471418",
">  c #561414",
",  c #54140B",
"<  c #640404",
"1  c #6C0303",
"2  c #630A0A",
"3  c #6B0B0B",
"4  c #690708",
"5  c #730404",
"6  c #7C0304",
"7  c #740906",
"8  c #7D0906",
"9  c #750C0A",
"0  c #7B0B0A",
"q  c #740608",
"w  c #680B15",
"e  c #750913",
"r  c #6D1314",
"t  c #751413",
"y  c #7B1514",
"u  c #7D1B1A",
"i  c #7A1519",
"p  c #701809",
"a  c #4B271D",
"s  c #491032",
"d  c #791B23",
"f  c #6D0A2B",
"g  c #572A2A",
"h  c #44393C",
"j  c #4D2920",
"k  c #742D2A",
"l  c #49423F",
"z  c #7D422B",
"x  c #150C57",
"c  c #1F124E",
"v  c #2E0E4C",
"b  c #140D74",
"n  c #280A67",
"m  c #281573",
"M  c #310E73",
"N  c #352A6B",
"B  c #383C52",
"V  c #440A4A",
"C  c #54104D",
"Z  c #72124D",
"A  c #433543",
"S  c #54106F",
"D  c #581767",
"F  c #384C4A",
"G  c #4B4A4B",
"H  c #474747",
"J  c #544B4E",
"K  c #4B5A5C",
"L  c #555353",
"P  c #5C5B5B",
"I  c #595857",
"U  c #4F4E51",
"Y  c #675D59",
"T  c #63615D",
"R  c #5C5F64",
"E  c #5A6869",
"W  c #5A707A",
"Q  c #636363",
"!  c #6C6C6C",
"~  c #696566",
"^  c #766A69",
"/  c #75726D",
"(  c #666A73",
")  c #6A7577",
"_  c #737373",
"`  c #7B7A7B",
"'  c #777679",
"]  c #6D726F",
"[  c #5A6359",
"{  c #840403",
"}  c #8B0404",
"|  c #820A06",
" . c #8C0905",
".. c #830B0A",
"X. c #8C0B0A",
"o. c #880509",
"O. c #940404",
"+. c #9B0403",
"@. c #930905",
"#. c #9B050B",
"$. c #930B09",
"%. c #9B0A0A",
"&. c #9A0708",
"*. c #83150B",
"=. c #9B150D",
"-. c #870C12",
";. c #960917",
":. c #831211",
">. c #871B1B",
",. c #961917",
"<. c #A30404",
"1. c #AB0303",
"2. c #A20A06",
"3. c #AC0905",
"4. c #A30C0A",
"5. c #A9080A",
"6. c #B30404",
"7. c #BC0404",
"8. c #B40A05",
"9. c #BB0A05",
"0. c #B8090A",
"q. c #A7110C",
"w. c #B41209",
"e. c #A90814",
"r. c #B60717",
"t. c #A4131B",
"y. c #89231C",
"u. c #952B1D",
"i. c #8A2C06",
"p. c #AF2A1C",
"a. c #8F1428",
"s. c #A51524",
"d. c #B00729",
"f. c #8D2423",
"g. c #892727",
"h. c #932B2A",
"j. c #962827",
"k. c #9D3433",
"l. c #9E3A38",
"z. c #90352A",
"x. c #A63528",
"c. c #A33B3B",
"v. c #A53737",
"b. c #B1322D",
"n. c #C40303",
"m. c #CB0303",
"M. c #CC0A0A",
"N. c #C70908",
"B. c #D30303",
"V. c #DC0403",
"C. c #D20A05",
"Z. c #D30A0A",
"A. c #DC0A09",
"S. c #C5110B",
"D. c #C70610",
"F. c #CA141A",
"G. c #D50D0F",
"H. c #E30303",
"J. c #EB0304",
"K. c #E90A08",
"L. c #F30303",
"P. c #F70708",
"I. c #FC130E",
"U. c #F10915",
"Y. c #FC1715",
"T. c #E80E0F",
"R. c #F62716",
"E. c #ED3D1D",
"W. c #C6332C",
"Q. c #FC3F3C",
"!. c #F92827",
"~. c #E01D20",
"^. c #AB413C",
"/. c #BC4233",
"(. c #F3503D",
"). c #8B0E45",
"_. c #8D2A50",
"`. c #AF3C42",
"'. c #913C66",
"]. c #9B454C",
"[. c #964D47",
"{. c #A84544",
"}. c #B44D4B",
"|. c #B74844",
" X c #B3574E",
".X c #B25365",
"XX c #867976",
"oX c #A45B74",
"OX c #C45A58",
"+X c #CA504C",
"@X c #F84842",
"#X c #FE5A5C",
"$X c #F34F4D",
"%X c #C2655D",
"&X c #F66459",
"*X c #EC6158",
"=X c #C95D65",
"-X c #C86464",
";X c #D97A78",
":X c #CD7270",
">X c #ED7573",
",X c #EC5F64",
"<X c #79817A",
"1X c #AE846D",
"2X c #130C8D",
"3X c #331889",
"4X c #0A0CAB",
"5X c #1914A7",
"6X c #0D0BB7",
"7X c #1212A3",
"8X c #2516A9",
"9X c #371BAB",
"0X c #1B2AB7",
"qX c #2521B6",
"wX c #212389",
"eX c #481993",
"rX c #462B8F",
"tX c #5F2A93",
"yX c #6D7286",
"uX c #0B11C9",
"iX c #271ACB",
"pX c #1223D3",
"aX c #353AD4",
"sX c #0916E6",
"dX c #090EF4",
"fX c #142CF0",
"gX c #203BE3",
"hX c #164AF1",
"jX c #316AED",
"kX c #3351F8",
"lX c #6867F6",
"zX c #847C81",
"xX c #AB7E93",
"cX c #DE7F82",
"vX c #7F8384",
"bX c #848484",
"nX c #858588",
"mX c #8A8B8D",
"MX c #878586",
"NX c #8B9796",
"BX c #959697",
"VX c #8F948D",
"CX c #A59B99",
"ZX c #999FA1",
"AX c #98B1AD",
"SX c #A3A2A4",
"DX c #A8A8A8",
"FX c #AEB1AE",
"GX c #AAA49F",
"HX c #D98585",
"JX c #CE8784",
"KX c #EA888B",
"LX c #C5AFB2",
"PX c #DBBEC5",
"IX c #B6CACB",
"UX c #D0D0D0",
/* pixels */
"                                                                                                                                ",
"                                                                                                                                ",
"                                                                                                                                ",
"                                                                                                                                ",
"                                                                                                                                ",
"                                                                                                                                ",
"                                                                                                                                ",
"                                                                                                                                ",
"                                                                                                                                ",
"                                                                                                                                ",
"                                                                                                                                ",
"                                                                                                                                ",
"                                          Q                                       T                                             ",
"                                        Q !                                       ] Q                                           ",
"                                        ! MX                                      bX/                                           ",
"                        Q             _ MXmX                                      SX` !             Q                           ",
"                        Q             ! bXDXXX                                    DX' !             Q                           ",
"                        P !           P / DX_                                   MXDX! P           ! U                           ",
"                        P Q _         L ~ SXBX'       3.  &.6.7.6.$.+.4.      / BXSX! L         ` P H                           ",
"                        I L _ VX      G T MXBXyX' %.+.&.J.L.P.J.J.B.m.1.1.  ) nXmXbXT G       MX! L G                           ",
"                          G ~ _ ~     l P nX[.<.6.n.n.N.P.8.H.J.H.6.7.m.n.7.6.1.XXbXP       bX' Q H H                           ",
"                          H G ! MXBX    , 2 8 n.m.m.m.H.M.L.cX#XU.V.3.H.1.n.m.n.6 4 X + ' BXMXT L H                             ",
"                            G L _ mXSXZXk.S.J.L.L.B.n.V.C.H.$X$XQ.V.3.H.<.B.L.J.T.0.{.DXSXbX_ I H                               ",
"                            @ G Q _ BXFXIXUXFXF.P.C.8.V.H.A.(.&XY.H.w.H.<.B.P.].CXUXDXFXVX/ P H h                               ",
"                            d @ G P _ mXSXUXUXmXT.B.2.L.J.V.L.P.J.C.L.L.&.B.LXGXPXUXGXmX_ L G @ 5.            P                 ",
"              P MXbX        A.g @ U Q _ ` SXFXnXT.M.m.V.P.8.9.K.0.N.L.V.5.V.PXCXGXDX_ / T H @ q.H.      bXbX`                   ",
"                  P ` DXCXW.:.C.g @ H E Q ! ` ) P.9.5.6.L.L.6.V.w.L.H.m.<.7.L.' ^ ^ ! T H @ y 8.,.b.CXSX' L                     ",
"                  Q P _ AXZXmXE J.g @ H K R <XZ.H.7.q.n.2.L.7.7.1.L.%.q.2.7.J.B.E E U A # : H.^ zXSXDX_ L                       ",
"                      K L ` nX( T.:.+.9.M.Z.H.B.7.5.L.L.B.8.w.8.V.%.V.L.B.2.6.B.V.M.q.$.6 N.r.] MX_ J I                         ",
"                      V.r A K K S.B.X.{ 6 <.7.7.m.V.J.B.m.m.J.m.H.n.6.B.7.7.B.m.7.<.& * q 7.9.K R @ :.B.                        ",
"                    5.M.J.H.a -.H.n.X.O.<.6.7.7.m.J.J.V.7. .3.3.%.+.9.7.2.V.C.M.7.6.O.5 5 n.B.,.j H.J.8.+.                      ",
"                    1.6.K.H.$.*.4.m.5 q +.7.7.n.m.L.J.V.7.<.0 <.6 3.<.6.B.J.B.m.7.6.+.{ & q O.V.H.H.H.1.6.                      ",
"                  6.6.5.n.<.1.1. . .1 5 1 O.4.7.m.L.J.V.7.<.6 q { +.1.C.H.L.8.1.#.#.2 5 6 s v <.6.m.0.<.6.6.                    ",
"                <.7.8.V.$.1.7.m.L.H.4 4 u t u | X.1.L.B.7.<.6 5 { 1.7.L.L.m...} g w > < pXD.m.v ; o...m.6.5.<.                  ",
"                $.0 | &.7.V.2.7.H.3.8 u i i i u g.} J.J.7.<.5 1 6 <.n.L.V.1.z w :.5X3 ; v jX0.6.% n...<.| | +.                  ",
"                  2 < 5 { 6.} +.:...d y.y.i u 2 < % <.L.S.n.o.q  .7.M.B.+.q 4 w ;.8XfXS 9Xo.-.O.q +.{ 6 < 4                     ",
"              9.B.} q 4 < 1 7 >.y. X`.h.f.t t 3 w & 9 ..L.B.m.<.7.B.L.-.w ; m C fX0XhXaX-.wXZ 4 = < 1 = 6 O.B.6.                ",
"              n.H.1.O.1 = 1 z.h.v.:Xv.{.c.g.r r u * ; *.9.B.m.O.8.B.q.0 q b f 5XiXjX2Xb C a.[.g.u 1 & 1 O.6.B.7.                ",
"              7.B.1.+.< 4 3 y.g.c.{.c. X}.z.g.g.g.l.3 2 0 y.3.0 7.:.- *.f F.4XqXhXuXm p.V }.}.a.>.= 1 4 +.6.B.1.                ",
"              1.6.&.{ } 4 t r u h.f.c.}.c.g.^.-XHX-X{.2 ; : ; : = 0Xe pXm 8X6X2Xc fXx b -.z.h.u i = 1  .{ O.1.1.                ",
"              6.6.} 6 +.1 9 r u j.h.l.|.c.h.}.:XKX=X%X Xj.-.q.: s ;.p.D n jXb c 2XpXgXg.aXu.k a.p < 5 O.8 O.6.7                 ",
"              9 } { +.+.5 , NXa 9 i f.{.c..X;XcXOX`.c.;XJX.Xv.j b.;XkXn aXc 7X2X6XuX].].w , d B XX. 5 +.<.1 } i.                ",
"              p 3 5 O.6 < o <X# ( 9 u h.c.=X:Xv.-X-Xk.k.=XOXW.z._.gXb 0XtX.X5X X9X'.c.g.- | k # NX= 1 6 O.O.4  .                ",
"              +.O.@.5 1 = 1 # + mXnXr i f.k.k.}.OX-X^.%X:X}.x._.p.8X=XeX+XoXOX}.j.N p.f.y ) yX# & & = { 8 +.O.<.                ",
"              1.2.8.9 +.<.q < - ] ' H r - >.y.{.}.=X}.-X;X.XW.rXv.3XCX:XJXrXv.v.=.m : :.I bXZX* = % 1 { 6 6.6.+.                ",
"              2.n.B.%.8.1.} 6 4 2 ] + VXVXY X y >.x.h.|.^./.p.}.h. X/. Xv.v.j.>.X # ) VXh # & = 2 < * +.m.B.6.<.                ",
"              8.3.n.1.8.0.6.o.6 q 2 - Y ] XXW y t u.y.y.p.x.3Xk.j.,.j.x.f.k *.+.FX] E + % & 1 1 < 2 2 9.m.7.<.1.                ",
"              7.7.3.N.H.B.M.J.A.s.V., @.. $ v A MXJ <X[ ,.d Y :X/.a.g N BXF XX+ . o X = 9 +.} 9 7 n.n.C.&.+.6.9.                ",
"                  <.@.O.H.T.R.P.e.U.v e.0.r.V 0.L.J.Z.n.O.f - e.a.r.R._.n K.J.L.K.K.V.M.2.+.<.| %.m.w.} &.n.                    ",
"                  n.1.0 3.%.J.T.R.G.V r.r.f 2X~.U.A.E.A.m.f s e.M Q.eXQ.,XP.P.P.(.T.C.V.C.H.J.B.n.9.<.7.6.n.                    ",
"                  6. .f.eXe 1.0.e.D.A.#.O.x 0 . e : r.(.m.#.uXS d.>X&X!.Y.I.I.R.L.J.P.G.&XC.6.| +.B.m.8.<.6.                    ",
"                  5.$.k.{.t...w e.3XF.O - v v 6XO c t %.n.0 eX).d.$X>X@XKX@XR.I.I.K.&X$XT.n.{ +.9 V.3.+.1.<.                    ",
"                  +.&.h.k.l.o.o.0.G.n 4X6XdXdX4X6X> } 8X3XdXsX6X).U.U.!.Q.(.$X&X,XY.M.m.n.} X.c.7 %.+.6 +.+.                    ",
"                  +.O.h.k.{.o.9 M e.d.n 6XlXfX4X2X6XsXsXn V 7Xd.V U.Y.!.,X>X,XKXcXP.M.C.6.O.$.^.7 +.O.{ O.+.                    ",
"                    3   >.+.8 &.5.f f J.v { % O O % p V 3Xd.eX0.t.S D.s.V.Z.P.P.J.V.8.1...@.=.j.p +.7   6 @.                    ",
"                    X.4 X.m.A.V.P.H.e.Z...6.7.N.B.m.0.Z.-.r.9Xs D D.#.d 1.n.m.7.6.2.}  .>.H.L.T.H.m.9 |                         ",
"                        <.7.IXoXw.J.7.n.m.5.} <.1.7.8X;.;.6.e.#.%.n.#.o.} 7.7.1.+.<.7.6.<.J.9.FXAX7.+.                          ",
"                          / XX[ Z.H.#.J.q.O.|  .X.$.n.J.%.@.@.@.X...{ L.o.O.1.#. .+.3.H.4.J.<.( ` '                             ",
"                          ] _ R Z.H.m.w.<.5.+.+.1.{ 4.L.2.O.+.{ +.o.O.L...6 +.<.+.+.&.H.<.J.#.E _ )                             ",
"                          ~ ! G M.H.7.4.  } O.6 6...J.J.1.{ O.} +.5 1.L.L.$.6.| @.} 0 m.<.H.#.L ! ~                             ",
"                          P I @ % q 0 n.0 7 6 7 7 n.V.+.6 5 O.{ O.5 {   H.m.| { { { | 6.9 7 % A L I                             ",
"                          J           2.n.5 8   8 7   { = < { { 5 1 1 |   7     O.O.+.O.                                        ",
"                                        0 8 2 m.  7.q = 1 6 1   5 5 5 & 5 7.  n.2 5.} } 7                                       ",
"                                          6   3 < 1 &   5   5 5 5       & 1 4 7 }   } {                                         "
};
