/* XPM */
static char *__death1684622397[] = {
/* columns rows colors chars-per-pixel */
"64 64 256 2 ",
"   c None",
".  c #151A17",
"X  c #151117",
"o  c #3B140F",
"O  c #301215",
"+  c #152314",
"@  c #1A3717",
"#  c #392B1A",
"$  c #2F3015",
"%  c #0B0C27",
"&  c #150E26",
"*  c #171427",
"=  c #180439",
"-  c #0F142F",
";  c #261727",
":  c #311032",
">  c #282727",
",  c #382B25",
"<  c #383836",
"1  c #2D2B33",
"2  c #192831",
"3  c #460B0C",
"4  c #59090A",
"5  c #4A0B17",
"6  c #560A18",
"7  c #481418",
"8  c #541415",
"9  c #6D0405",
"0  c #640C0C",
"q  c #6C0C0B",
"w  c #660708",
"e  c #750505",
"r  c #7C0605",
"t  c #720A0A",
"y  c #7B0B0B",
"u  c #780608",
"i  c #77110D",
"p  c #7B0A15",
"a  c #681415",
"s  c #761515",
"d  c #6A0F12",
"f  c #513517",
"g  c #782618",
"h  c #490A36",
"j  c #500C2C",
"k  c #6C0E30",
"l  c #482623",
"z  c #443C39",
"x  c #4F312B",
"c  c #6F2F2F",
"v  c #254F1C",
"b  c #2F4D2A",
"n  c #336A29",
"m  c #35722C",
"M  c #4A4917",
"N  c #584528",
"B  c #4F4833",
"V  c #675735",
"C  c #795436",
"Z  c #68562D",
"A  c #726333",
"S  c #605C20",
"D  c #1E0745",
"F  c #16104C",
"G  c #350948",
"H  c #2D0E50",
"J  c #322D45",
"K  c #1B0D65",
"L  c #190B78",
"P  c #171478",
"I  c #120E6A",
"U  c #260D74",
"Y  c #320F71",
"T  c #1A246A",
"R  c #1E2047",
"E  c #510C4C",
"W  c #771048",
"Q  c #423A42",
"!  c #522743",
"~  c #4D1274",
"^  c #662761",
"/  c #3C4340",
"(  c #454343",
")  c #4A4949",
"_  c #544D4C",
"`  c #5B5B5B",
"'  c #565656",
"]  c #4F5150",
"[  c #6C5B51",
"{  c #5D615D",
"}  c #67635D",
"|  c #7B6540",
" . c #5A5F64",
".. c #655F61",
"X. c #5D6365",
"o. c #646362",
"O. c #6C6B6B",
"+. c #676768",
"@. c #6C7573",
"#. c #747374",
"$. c #7C7C7C",
"%. c #757578",
"&. c #716F6D",
"*. c #830404",
"=. c #8C0504",
"-. c #830C0B",
";. c #8C0C0B",
":. c #880808",
">. c #930404",
",. c #9C0504",
"<. c #9E0906",
"1. c #930C0B",
"2. c #9C0C0A",
"3. c #970708",
"4. c #86120B",
"5. c #97120D",
"6. c #890916",
"7. c #990A13",
"8. c #861715",
"9. c #991A18",
"0. c #A40505",
"q. c #AB0404",
"w. c #A30A06",
"e. c #AB0B06",
"r. c #A30B0A",
"t. c #AB0B09",
"y. c #A8050B",
"u. c #B30404",
"i. c #BB0403",
"p. c #B30C0A",
"a. c #B90708",
"s. c #A4120D",
"d. c #B7120C",
"f. c #A80815",
"g. c #BA0915",
"h. c #A71719",
"j. c #B81518",
"k. c #8A2118",
"l. c #B32A14",
"z. c #881A23",
"x. c #93122B",
"c. c #B41228",
"v. c #8B2726",
"b. c #952726",
"n. c #993533",
"m. c #923130",
"M. c #AB3230",
"N. c #C40404",
"B. c #CC0304",
"V. c #C70709",
"C. c #D40303",
"Z. c #DB0404",
"A. c #D4060B",
"S. c #DA0709",
"D. c #C70812",
"F. c #D60716",
"G. c #CA1310",
"H. c #E30404",
"J. c #EA0404",
"K. c #E2040A",
"L. c #E3090B",
"P. c #EA070A",
"I. c #F30203",
"U. c #F80706",
"Y. c #FD191B",
"T. c #EF0E11",
"R. c #C90F2E",
"E. c #FB3738",
"W. c #F42B2B",
"Q. c #D8232C",
"!. c #9E4239",
"~. c #866E34",
"^. c #9F5229",
"/. c #D54D2D",
"(. c #EE4F35",
"). c #90256E",
"_. c #8E2046",
"`. c #EC354A",
"'. c #944B42",
"]. c #B0534F",
"[. c #8F724E",
"{. c #B66B5D",
"}. c #AB5377",
"|. c #847C7E",
" X c #8E6F72",
".X c #B7786B",
"XX c #D45349",
"oX c #F64F50",
"OX c #D4746D",
"+X c #F07071",
"@X c #E95B62",
"#X c #388229",
"$X c #479330",
"%X c #579E3B",
"&X c #6D8778",
"*X c #56B447",
"=X c #5AC74A",
"-X c #62D253",
";X c #9D8127",
":X c #97885A",
">X c #88857A",
",X c #B5AF6B",
"<X c #CE816A",
"1X c #E88078",
"2X c #09088A",
"3X c #160988",
"4X c #0C168A",
"5X c #0B0A9A",
"6X c #160A99",
"7X c #091496",
"8X c #191796",
"9X c #280F8C",
"0X c #29258C",
"qX c #0B0BA6",
"wX c #160CA6",
"eX c #0A0BB6",
"rX c #1012B2",
"tX c #2511B1",
"yX c #122AB6",
"uX c #2D25A9",
"iX c #102496",
"pX c #49188D",
"aX c #71269C",
"sX c #0816C9",
"dX c #0713DA",
"fX c #100DD0",
"gX c #1229D6",
"hX c #2E31CF",
"jX c #0609E8",
"kX c #0D12F2",
"lX c #0F2AEF",
"zX c #2A1FE8",
"xX c #5A34F6",
"cX c #1D4DEC",
"vX c #4754C7",
"bX c #817F82",
"nX c #75888C",
"mX c #888787",
"MX c #8A9797",
"NX c #969798",
"BX c #918E90",
"VX c #A88F8D",
"CX c #989CA2",
"ZX c #A3A2A3",
"AX c #A8A8A9",
"SX c #B6ADAC",
"DX c #8FA6A4",
"FX c #D28C85",
"GX c #E48584",
"HX c #C5AFB1",
"JX c #C6C3BF",
"KX c #B9BBC1",
"LX c #B9C8C8",
"PX c #B5DAE1",
"IX c #CFD0CF",
"UX c #DFE3E1",
/* pixels */
"                                                                                                                                ",
"                                                                                                                                ",
"                                                                                                                                ",
"                                                                                                                                ",
"                                                                                                                                ",
"                                                                                                                                ",
"                                                                                                                                ",
"                                                                                                                                ",
"                                                                                                                                ",
"                                                                                                                                ",
"                                                                                                                                ",
"                                                                                                                                ",
"                                          +.                                      O.                  (                         ",
"                                        O.#.                                      #.                                            ",
"                                        &.BX                                      mX#.              O.                          ",
"                        o.            O.mXZX                                      AXmX&.              mXo.                      ",
"                        O.O.          +.$.AX                                    &.ZX#.o.              #.                        ",
"                        ` o.%.        ' &.ZXmX              i.i.i.              NXZXo.`         %.#.%.                          ",
"                        ` ..mX&.      _ o.BXNX%.    ,.0.w.;.V.u.N.y q.,.3.    %.NXNX..]         mX%.O.o.                        ",
"                        ) ) O.$.&.      { $. X5.<.u.u.2.I.I.a.i.t.B.C.,.q.u.s.s.MX$.` _     ` mX%.) )                           ",
"                        ) (  .%.BXX.    ` 8.-.q.i.N.N.Z.H.V.U.U.Z.B.e.C.t.i.i.e.:.8.'     $.NX$.` (                             ",
"                          ) ) o.bXNXNXB N.r.e.N.B.B.B.H.V.P.+XoXY.C.w.H.y.B.i.i.e.e.r.  ZXNXmX` <                               ",
"                          z ( ) +.bXNXAXLXSX|.U.U.C.i.Z.J.S.E.@XY.H.e.Z.,.Z.U.U.VXHXSXZXNXnX+.< <         &.  O.                ",
"                            < Q ` +.mXZXIXSXIXnXU.B.e.L.N.Z.Y.Y.U.H.d.H.3.C.GXVXIXUXSXZXmXO.' <                                 ",
"              ..%.          S.< Q ' +.bXNXSXIXmXT.V.u.I.I.V.G.U.d.V.I.I.<.Z.HXSXIXSXNXbXo.] z A.V.      BX|.                    ",
"                o.BX      F.V.K.< ( ` #.@.mXCXMXT.a.C.y.U.d.N.J.i.S.I.H.,.C.HX|.ZXMXO.) ' J f.g.V.S.  NX>XmX  @.                ",
"                  ' o.NXAXCX$.c B.z ( ] ` O.&Xh.J.N.r.B.C.U.i.B.e.I.2.J.1.p.I.c @.+.z G.5.q B...@.BXNXO.]     o.                ",
"                    ` ` MXCXMX@.P.C.l Q ` o.+.Z.C.q.Z.p.,.I.a.u.p.I.H.a.Z.p.S.H.@.X.7.8 i w.u.bXMXO.' '                         ",
"                      p.] ` @.@.T.p.-.B.S.S.C.0.0.a.I.J.p.2.C.t.J.2.C.N.e.<.i.e.S.,.u.0 u u p &XnX, Q                           ",
"                      D.K.2.] B S.B.4.0.0.N.N.i.B.J.I.J.i.1.N.B.s.2.i.q.e.H.C.B.N.y.0.=.r 5 u.J.S.Z.L.t.y.    v.                ",
"                    p.A.F.J.S.S.S.B.>.r q w.e.N.N.Z.J.H.C.;.,.C.i.,.u.J.J.H.V.B.V.a.:.0 4 5 h F.vXd.j.e.e.t.                    ",
"                  u.p.p.1.i.4.4.y.i.e t s e q i.N.I.L.Z.I.<.q r =.>.i.e.U.J.C.w.c a h i gX<.G f.;.J.Z.w.u.q.                    ",
"                  e.B.B.4.e.H.L.Z.S.q e q p 8.q.i.H.U.I.C.q.u e y ,.r.J.V.H.N.y.7.k U p E h gXW a :.y.0.-.0.                    ",
"                1.w.w.u.i.Z.5.4.C.8.e 0 a a o X v.u.U.U.V.B.q.*.C.3.t.a.d u.d d = & gXF cXhXh f.6 N.B.0 u.>.                    ",
"                4.t =.:.p.Z.2.i.-.n.a v.s a 4.* 7 i u.h.J.Z.Z.y Z.P.r.I.:.6 6 & d O hXcXj G H D.8 6.4 y e w 4.                  ",
"                q.4 4 e 4.<.-.;.m.v.m.s s 7 * > * 1.S * h.d 3.>.e.g t.C.5 ; f - X gXhXuXK :.7.U : 9.0 w 4 *.>.                  ",
"              C.Z.q q s b.4.].n.OX].v.n.v.5.> & - l < x N ~.A.g.N.Z.: * - , N l * % % S 8Xl.! M.9.t 4 4 3 =.C.B.                ",
"              a.Z.i.*.0 k.n.n.b.].n.!.v.b.; * f % & [.:X| C y a.7 9.O @ # l B N # gX~.c = F Y G.c t 4 4 0.B.N.B.                ",
"              p.N.<.=.*.q s v.v.m.M.M.b.^.M.: * % [.C V # n ;.>.4 6 gXv # + N Z B Z N ; gXl.M.uXx.8.z.w 9 =.i.q.                ",
"              u.q.3.=.>.9 0 s k.8.].{.{.c FX].- Z [.N V $ M o p r I I X f + x V | B , z H T 4X;.8.z.q 9 ,.>.*.0.                ",
"              w.e.*.y ,.9 0 a g 8.n.9.m.<XFX^ c.C C #X$Xb 5.,XF F iXF L $ $ $ # Z [.B @ @ I s c.hX1.s &Xo =.i =.                ",
"              q e =.,.=.9 O DX` l a b.!..X].1X].[.%X2 b $Xm gXF D - b G R f M + ; ~.A A C 9.7 X -.} f 3 >.>.>.>.                ",
"                r q -.e 4 X < < NXc 6.8.b.XX1 < :X< $Xb *X$XI ).yXT 5XjXwX> > > F [.A Z V 8.k.* O O.DX3 o >.r t                 ",
"              0.1.q q.q t o m.B mX&.MXd 8.m.% v #X=X=X=X*X#X9.uXXXOXdXzX9X+ m.1 [.~.* * . [.>XNXMX> X 3 *.3.>.>.                ",
"              <.N.d.B.i e.o g X.} DX2 mXX.j & v m -Xn > *Xn ^.K 0XQ.XXtXR > B A > S R P , - . @.o o 3 o e.i u.0.                ",
"              w.e.e.N.N.A.4 V.k R t.J R 1 '.% . v n @ @ b n 0X}.<XW <X0XpXb J N rXdXfXfX7XrX7X] _ &XO 0.i.B.u.w.                ",
"                B.N.L.s.P.g G.W f.a.: x f.!.Q.X @ n n m n n M.T ~ ]./.aX<X, J P dXlXlXkXsXsX9X< 9 g 3 0 i N.i.e.                ",
"                l.e.2.J.V.d.L.x.j 7 E ; = 1 % f X . + + . X K XXV R.0XM.c U ^ sX6XlXlXhXrXqXY q.3.q ,.B.i i.l.                  ",
"                  a.q.4.V.T.9.P.~ N.h J ~.S 1 : : l X . -.h /.6 k F.h iXx.(.R.uXW kXkXfXF.c.D.D.p.-.;.N.a.3.                    ",
"                  e.w.4.y 5.L.L.W D & ;X^ < F 4X4XP 5 j P ).9.7.: k gX:XVXoX`.3XU.fXjXtXP._.c.D.N.i.-.u.u.0.                    ",
"                  u.V.9Xy.3.a.p.hXj cXuX7XK J qXqX2X5 : p 6 6.a.k lXlXF.Y.+XW.F.`.fXeXwXP.T.}.8.d B.r.i.0.u.                    ",
"                  M.n.f.r.i i k g.K hXtXc rXtXsXqX5XqX5 6.f.g.E lXR.R.OXoXGXOXW.@X6XfX9XF.T.c.d q B.3.:.,.y.                    ",
"                    b.b.1.8.f.7.8XU kXjXkXzXkXkXdXjXfX9XlX~ fXx.pXfXT.pXoXE.E.+XU.3XeXK V.2.-.-.i i w.t >.>.                    ",
"                      '.b.j _.sXh dX~ wXkXxXzXkXfXfXY D k E H dXaXkXW oXE.oX+XGX+XU qXU 2.-.1.n.p 8.q.e >.>.                    ",
"                    r.8.d Z.K.K.f.R.G dXwXjXjXkXkXjXeXeXqXkXF.wXY F.yX`.~ pXT.G.GXD 5XD p c.d.L.S.d >.u.r                       ",
"                      5.A.A.h.K.7.g.w g.fXsXqXjXjXL 6XeXk k g.c.f.9.g.H A.K.A.Z.S.D 3XL f.P.d.V.V.N.,.4.                        ",
"                        l.D.h.j.K.H 7.D.3XwXE eXfX: wXpXE D.Y 8XE f.6 P.y p 1.N.7.D 3X2Xj.H.N.LXPXt.9.                          ",
"                          %...P.K.K.F.A.3X6XU wXeXj wXK S.k 9XV.6.6.f.J.B.t 3.3.A.D 3X2Xf.J.2. .%.#.[                           ",
"                             ._ D.K.7.f.U Y 6.qXeX: ; 9Xx.L.j a.p y.3.C.4.-.a.i.6.= 2X7Xc.J.3...#.&.                            ",
"                          O.[ Q p.u =.7.6XqXU 5X6X7.d.D.j S.,.1.3.>.:.t C.1.y.t u = 3X7Xp p a.Q } X.                            ",
"                        O. ._ x 8 4 -.y.U G 9XqX6XA.A.P.G   1.-.>.9 *.=.y H.y u u D 2X7X6 6 0   ` '                             ",
"                        ` '       y.V.a.6X5X9X6X5X0 3.:.q   e q e 0 4 r   q     w = 2X2X          ]                             ",
"                                        2X  qX5X6Xy.  4 4 4 9   e r e   w 3.:.0 w = 2X                                          ",
"                                        2X  5X  5X6 4     9 w       9 w w 9 u *.  = 2X                                          "
};
