/* XPM */
static char *__death1684622397[] = {
/* columns rows colors chars-per-pixel */
"64 64 256 2 ",
"   c None",
".  c #090807",
"X  c #110E0D",
"o  c #13180E",
"O  c #0B0B1C",
"+  c #170D14",
"@  c #1A1512",
"#  c #161813",
"$  c #0C1612",
"%  c #291915",
"&  c #371B17",
"*  c #2A0F11",
"=  c #172615",
"-  c #173816",
";  c #15270E",
":  c #2B2619",
">  c #352716",
",  c #2C3214",
"<  c #060826",
"1  c #17102A",
"2  c #2B062C",
"3  c #380726",
"4  c #2A1925",
"5  c #311235",
"6  c #362A22",
"7  c #3A3839",
"8  c #2E3029",
"9  c #490A09",
"0  c #560B15",
"q  c #431413",
"w  c #581719",
"e  c #560A0E",
"r  c #6C0B0A",
"t  c #650908",
"y  c #730906",
"u  c #7B0D0B",
"i  c #790706",
"p  c #79120C",
"a  c #690A15",
"s  c #780A15",
"d  c #781516",
"f  c #671311",
"g  c #412D19",
"h  c #49341A",
"j  c #56371D",
"k  c #522B1E",
"l  c #6B2C1C",
"z  c #4D112D",
"x  c #6C102C",
"c  c #4B3624",
"v  c #583925",
"b  c #472E2E",
"n  c #6C3728",
"m  c #244A19",
"M  c #265A17",
"N  c #2F6A1A",
"B  c #324C2D",
"V  c #336B22",
"C  c #1C4D1B",
"Z  c #504719",
"A  c #69451C",
"S  c #5B4326",
"D  c #4A4430",
"F  c #674628",
"G  c #704F2D",
"H  c #746524",
"J  c #4A6E21",
"K  c #060556",
"L  c #150956",
"P  c #12114B",
"I  c #261856",
"U  c #280D51",
"Y  c #2E2F45",
"T  c #090965",
"R  c #190B67",
"E  c #040677",
"W  c #190D73",
"Q  c #37156A",
"!  c #2D1072",
"~  c #162E55",
"^  c #4E1151",
"/  c #6D124A",
"(  c #4A344C",
")  c #51106F",
"_  c #3F6547",
"`  c #494747",
"'  c #594D4B",
"]  c #4B5455",
"[  c #5C5A5B",
"{  c #555455",
"}  c #544D4F",
"|  c #67544C",
" . c #6E6551",
".. c #5D6B69",
"X. c #646363",
"o. c #6A6869",
"O. c #737273",
"+. c #7D7C7C",
"@. c #77777B",
"#. c #6F7070",
"$. c #5E5E64",
"%. c #8D0404",
"&. c #830C0C",
"*. c #8B0B0B",
"=. c #860807",
"-. c #930404",
";. c #9B0404",
":. c #920C0A",
">. c #980809",
",. c #88120B",
"<. c #860A16",
"1. c #970816",
"2. c #881416",
"3. c #9A1716",
"4. c #96130C",
"5. c #A40505",
"6. c #AC0504",
"7. c #AC0A05",
"8. c #AD0309",
"9. c #A30C0B",
"0. c #AC0B0A",
"q. c #A50907",
"w. c #B40404",
"e. c #BB0404",
"r. c #BB0A0A",
"t. c #B60809",
"y. c #A71208",
"u. c #A70617",
"i. c #B80717",
"p. c #B11210",
"a. c #892419",
"s. c #B12C1C",
"d. c #8E0A2C",
"f. c #AC0E2B",
"g. c #882624",
"h. c #992A27",
"j. c #973430",
"k. c #AC3433",
"l. c #C30404",
"z. c #CC0404",
"x. c #C60907",
"c. c #D40404",
"v. c #DB0304",
"b. c #D80809",
"n. c #C70515",
"m. c #D70917",
"M. c #CF1913",
"N. c #E40404",
"B. c #EB0303",
"V. c #E30809",
"C. c #F30303",
"Z. c #F90707",
"A. c #EA0915",
"S. c #EF1211",
"D. c #FD231A",
"F. c #C70724",
"G. c #D50B2F",
"H. c #E60D32",
"J. c #F73430",
"K. c #CE2A29",
"L. c #8D5C39",
"P. c #8E5032",
"I. c #AE4D38",
"U. c #836738",
"Y. c #97692D",
"T. c #B4723A",
"R. c #9A5419",
"E. c #D66D2E",
"W. c #9B234A",
"Q. c #EB1857",
"!. c #CE3F49",
"~. c #C31871",
"^. c #E5325C",
"/. c #AF4747",
"(. c #987B56",
"). c #996F50",
"_. c #AA6A44",
"`. c #B97746",
"'. c #B86C43",
"]. c #8A7A72",
"[. c #A75C55",
"{. c #CB514A",
"}. c #F85551",
"|. c #C17B4C",
" X c #CD7E54",
".X c #CF716E",
"XX c #F06A6B",
"oX c #3E8332",
"OX c #479133",
"+X c #4DA03E",
"@X c #798077",
"#X c #52A046",
"$X c #5CCA53",
"%X c #6EE45A",
"&X c #B58C48",
"*X c #87827E",
"=X c #AA9272",
"-X c #9C875D",
";X c #D48A55",
":X c #D59368",
">X c #EA966A",
",X c #ECAA72",
"<X c #E09667",
"1X c #0A0589",
"2X c #140889",
"3X c #03049D",
"4X c #050898",
"5X c #150997",
"6X c #1A1799",
"7X c #19158D",
"8X c #29108E",
"9X c #0404A3",
"0X c #0705A9",
"qX c #0404B4",
"wX c #0808B6",
"eX c #150FAE",
"rX c #2C11A9",
"tX c #0922A9",
"yX c #372CA6",
"uX c #142590",
"iX c #4A109B",
"pX c #3D6ABC",
"aX c #66698A",
"sX c #0206C7",
"dX c #1716DB",
"fX c #1012D3",
"gX c #2C0CCD",
"hX c #1E2BDB",
"jX c #2B24D7",
"kX c #0809E9",
"lX c #0714ED",
"zX c #1613F0",
"xX c #2C1BE8",
"cX c #1424F6",
"vX c #2727EE",
"bX c #4815C8",
"nX c #6D32D1",
"mX c #4149D8",
"MX c #873AA8",
"NX c #C82595",
"BX c #807F82",
"VX c #7E8486",
"CX c #7E9595",
"ZX c #8B8B8B",
"AX c #858586",
"SX c #979697",
"DX c #908D8F",
"FX c #A59796",
"GX c #9EA09F",
"HX c #9CA4A9",
"JX c #A5A5A6",
"KX c #B7B0AF",
"LX c #A09EA7",
"PX c #C4B3B3",
"IX c #DDAA90",
"UX c #D2D2D2",
/* pixels */
"                                                                                                                                ",
"                                                                                                                                ",
"                                                                                                                                ",
"                                                                                                                                ",
"                                                                                                                                ",
"                                                                                                                                ",
"                                                                                                                                ",
"                                                                                                                                ",
"                                                                                                                                ",
"                                                                                                                                ",
"                                                                                                                                ",
"                                                                                                                                ",
"                                                                                                                                ",
"                                                                                                                                ",
"                                          [                                                                                     ",
"                                          o.                                                                                    ",
"                                          VX                                        o.                                          ",
"                                        O.DX                                      SXO.                                          ",
"                        X.              ZXJX                                      JXZX                                          ",
"                        o.o.            ].JX@.                                  #.JX#.o.          o.o.                          ",
"                        [ o.O.          O.JXDX              e.r.w.              SXGXo.[           O.                            ",
"                        { [ +.#.        $.ZXSXaX#.0.5.5.:.N.C.B.B.q.6.-.*.0.o.VXSXAX{ `       @XO.[                             ",
"                          ` X.@.#.      [ AXL.w.w.e.l.z.C.0.B.B.B.w.t.c.l.w.w.6.AX].}       DX@.o.                              ",
"                          ` [ #.ZXZX    ] ;.=.e.l.e.z.N.c.b.J.J.b.c.6.b.6.e.l.w.5.;.`     SXZX#.}                               ",
"                            } { @.SXJX+.m.B.B.C.N.z.l.v.x.V.XX}.J.v.7.N.5.z.N.B.B.B.9.*XGXDXVX] `                               ",
"                            ` ` o.@XSXHXPXKX].Z.Z.v.e.v.B.b.}.}.D.B.7.v.5.c.Z.Z.FXPXKXJXSX].o.7                                 ",
"                            7 7 ] $.AXGXJXUXLXCXS.c.q.B.r.v.Z.Z.Z.c.N.B.;.v.IXFXPXUXKXFX@XX.` 7                                 ",
"                            b.7 ` } o.AXSXKXUXVXS.l.w.B.C.r.M.Z.t.x.C.C.5.v.PXJXUXKXGXaXo.} b M.x.      LX                      ",
"                [ #.DX  ZXB.p.V.7 D { X.o.@XAXCXS.w.z.y.C.v.l.N.w.C.b.x.5.c.J.#.DX@.X.| ( B b. .x.V.  DX].                      ",
"                  [ [ +.HXGXAX..C.b 7 ] ] $.@Xb.N.e.y.l.9.Z.r.e.0.C.x.z.7.e.N.c...o.q i.u ,.t.#.AXSX#.}                         ",
"                      } @.DXDX@XS.4.0.5 b ' 3.N.e.5.B.z.q.B.7.e.x.c.N.v.b.:.7.c.2.| 6.w f -.,.AXDX[ ` {                         ",
"                      b.( { $...V.b.:.&.d r.p.;.l.v.c.B.0.l.B.q.B.>.e.7.z.q.>.=.p e.6.0 i y p #.] &.,.r.                        ",
"                    0.b.v.9.] B b.z.&.5.q.l.l.t.c.N.C.B.e.*.l.z.y.4.e.7.y.v.c.z.z.w.;.:.=.& 0.V.b.N.N.7.                        ",
"                    t.c.r.0.A.V.z.w.=.y r ;.;.r.l.C.B.N.C.6.-.e.&.>.q.B.C.v.c.c.l.*.0 t a 0 3 x pXb.V.x.7.6.                    ",
"                  t.0.t.:.r.*.&.8.e.i r d i u l.l.C.V.N.C.q.t i %.-.e.7.C.B.v.7.j.u z i hX`.T.T.h B.c.;.w.;.                    ",
"                  w.z.v.,.*.B.V.V.V.y y r f l 3.w.0.C.Z.z.e.=.y i w.e.B.N.v.e.<.4 % 8 Y.n '.'.I.:X&.p :.*.5.                    ",
"                  u &.:.l.v.>.e.;.k.p g.f f * % d p C.Z.N.x.z.u l.z.9.B.a r s.z > @ > c ;X X;X& q x.l.f u i                     ",
"                  y y =.q.c.:.t.p g.d 2.,.h A A > e.& n x.*.z.p b.V.q.Z.s 0 & ,X|.4 6 h ;X;X<X=.,.g.e i y t *.                  ",
"                w.  i r k.p u h.l a.j.w &.g A j A j > L.u.b.x.&.v.z.>.1.9.& g P ,XIXn b &.`.>XK.7X2.r t t t >.                  ",
"              z.v.r r p g.d /.k..Xj P.L.X . . . o % 4 v G L.c.t.r.N.4 : 1 : F g @ @ b Y.uXh o /.<.r e t 9 i c.7.                ",
"              r.c.w.%.t G h.g.h.I.F j h >X,X,Xn o % -X(. .H >.1.w & .X4 > > S D D yXH B > # l h d 3.t r =.6.7.                  ",
"              w.w.;.=.%.y &.<.h., v L.<X;XG P.> > -XG 6 2.aX<.;.p Q eX&X; , F F F D Z ( 6XY.S : 6 Y.k t %.i %.-.                ",
"              ,.y i -.i t * 7 ]., : ;X X|.S > h (.S `. XE 3.6X+ 1 b :X[.6 h 4 # I U.v  .} l X . . P.> i =.%.y y                 ",
"              ;.5.-.i i e * 4 6 # 8 G `.`.v ;XS -Xn `.{.d Q 1 U.O >X;X> # 6 j.L.U.(.v A : ;Xc X X T.&X> * i %.;.                ",
"              7.q.  7.f :.* d } $ Y v _.`.v `.(.H g._..Xw & a.| + :XT.: # 8 S D 6 Y.G T.4 h <X;X;XP.n r w.r w.;.                ",
"              q.x.w.4.r.9.I b.w . v n L._.S 6 , A h % /.p + @ @ : G S Z Z B A | Z 8 8 Z ` 3.* ,XR.b % w.l.l.>.                  ",
"                y.7.S.0.b.I 6X% . n S L.T.h o . . X h b g.h.k.j.k.k.j.l k J H v I P ! R.P 5 s.{.d ` 9 q p l.z.7.                ",
"                r.4.b.m.S.B.^ * X X n G P.> . . . . q 3.P.k.k.{.{.[./.I.E.T #.F Y z x W I p n.>.s ;.r e.*.x.y.                  ",
"                x.0.q.>.iXvXf.1 # $ `.h Z . . X . ; 9 t *.h.k..X:Xx K.W V.E.f.].U fXU fXfXsXeXi.*.;.u 3.V.p                     ",
"                  r.q.,.8Xx K.&X'.T.F @ . . . > o - X . % j =Xl z M.jX&XmXgXD.Z.fX!.sXlXkXkXkXn.c.z.7.c.&.r.                    ",
"                  9.d Q 8X^ b.v c h 6 . . . . = m o X , c v n.n.U rXdXd.Q.>XxXS.zXbXH.kXkXlXgX5Xu.l.t.9.*.8.)                   ",
"              5X  i.s.) Q W z 1 O < O . . X $ M X - 9 ; v a.q d.iXbXzXD.Q.nXNXNXxXG.zXNXrXlXfX5X3 z.e.5.;.w.                    ",
"                  rXk.I.u.<.8.s 1 < < < < O - # ; - o * 2 U 8X2.^ rXH.xXNX}.XX}.zXH.zXkXkX8XsXeX1.s 8.  ;.1.                    ",
"              9X    f.j.yXi.) W + 9X< < < C V O N - + e <.8X7XdXzXzXF.}.MXvX>X}.vXH.bX) 0X5X2XqXwXr.<.a =.%.                    ",
"                9X    8Xx ^ fXf.1 < < < < N C OX- = @ 2X5X) i.eXm.W.dXJ.J.rX~.nXvXG.8Xf.1X1X5XrX! t.w.  a                       ",
"              0X0X    d.7XF.^ F.fX1 1 O - B - V X = & Q ^ 8Xm.x i.d.n.7XA.rXZ.A.H.F.eXU W tX4XdXF.z 1.eXqX    qX                ",
"              qX      0X  fXf.xXf.5Xi.Z V oXV V $ T tXu.I u.iX^ n.n.0 m.<.n.b.m.A.m.fX8X2X2XR kXm.1.8XeX  qX                    ",
"              3X    3X  0X8X8Xd.f.i.~ _ $X#X+XoXm 0 L 5 n.u.^ u.! <.i.i.8Xu.x.4.c.d.8X<.i 2XsX1.^ 8X5X5XqX                      ",
"              3X  3X9XwXqX  5X) cXlXC $X%X- OX+XM I U ^ m.3.Q 8.<.<.u.F.6X>.z.8.V.>.eX/ t.E E R 0X0X0X  qX                      ",
"                3X3X3XqX2X3XE E T T B C V C N - M 1.c.n.c.a s *.&.*.;.<.n.d.z.a a   R W R L 4XqX3X9X9X9X9X  qXqX                ",
"              3X3X  3X  qX1X1X1XK T - - m - - m = =.<.t 0   0 9 ;.0 s 0 v.c.8.f %.L T T K 9X0X2XqX  0X  0X                      ",
"                  3X      3X9X9X4X4XM = o = ; ; ~ s 3 3 2 2 3 3 3 3 2 5 T R T T E 3X3X9X0XwX0XqXqX9X  qX    wX                  ",
"                                  wX    ; $ $     K K K K   K     K K T 9XsXsXsXqXwXsXsX  wXwXqX5X    qX  wX                    ",
"                      3X  9X              K K     K     K             K T sX    sXsX  wX      9X  qX                            "
};
