/* XPM */
static char *__death1684622397[] = {
/* columns rows colors chars-per-pixel */
"64 64 239 2 ",
"   c None",
".  c #17140E",
"X  c #170518",
"o  c #1A1515",
"O  c #0D0B0B",
"+  c #281D15",
"@  c #321819",
"#  c #230811",
"$  c #162713",
"%  c #1A3815",
"&  c #242413",
"*  c #352516",
"=  c #3A3218",
"-  c #140927",
";  c #100434",
":  c #351926",
">  c #310C32",
",  c #122B2F",
"<  c #3D232D",
"1  c #470608",
"2  c #590709",
"3  c #49160E",
"4  c #560716",
"5  c #511717",
"6  c #650505",
"7  c #6C0404",
"8  c #680909",
"9  c #760505",
"0  c #7C0305",
"q  c #730D0C",
"w  c #780708",
"e  c #7B140D",
"r  c #680514",
"t  c #750719",
"y  c #671414",
"u  c #781616",
"i  c #472819",
"p  c #4C3419",
"a  c #5A3A19",
"s  c #53281B",
"d  c #6A371D",
"f  c #77231F",
"g  c #48072A",
"h  c #580727",
"j  c #550A2E",
"k  c #670826",
"l  c #760826",
"z  c #6E0938",
"x  c #6F0F30",
"c  c #563A26",
"v  c #452F32",
"b  c #582F34",
"n  c #643726",
"m  c #713637",
"M  c #1D4016",
"N  c #254F1A",
"B  c #27552B",
"V  c #326C22",
"C  c #5A482E",
"Z  c #624523",
"A  c #6D5629",
"S  c #79502D",
"D  c #796435",
"F  c #0C0449",
"G  c #160647",
"H  c #160A57",
"J  c #0D0954",
"K  c #280946",
"L  c #260959",
"P  c #3A0C54",
"I  c #2F1B4E",
"U  c #202A5D",
"Y  c #0B0666",
"T  c #160566",
"R  c #060677",
"E  c #170C76",
"W  c #171276",
"Q  c #0A1C63",
"!  c #290D7F",
"~  c #2F0D6D",
"^  c #182F59",
"/  c #590954",
"(  c #441158",
")  c #53134B",
"_  c #740B51",
"`  c #513B41",
"'  c #603941",
"]  c #50126D",
"[  c #781570",
"{  c #325E5C",
"}  c #1F4F4A",
"|  c #4B4847",
" . c #5B5B5A",
".. c #545456",
"X. c #534D4F",
"o. c #615F5F",
"O. c #7C5F5E",
"+. c #5F5F60",
"@. c #615F60",
"#. c #6C6C6C",
"$. c #656566",
"%. c #726C6E",
"&. c #71706F",
"*. c #696D72",
"=. c #757375",
"-. c #79797A",
";. c #756F72",
":. c #840405",
">. c #8C0404",
",. c #870A09",
"<. c #940304",
"1. c #9C0304",
"2. c #9B0907",
"3. c #970809",
"4. c #87160A",
"5. c #880916",
"6. c #980616",
"7. c #851C1C",
"8. c #951211",
"9. c #A40303",
"0. c #AB0304",
"q. c #A70909",
"w. c #B20405",
"e. c #BC0304",
"r. c #B40906",
"t. c #BA0709",
"y. c #A70616",
"u. c #B80817",
"i. c #AB1211",
"p. c #87211F",
"a. c #980C29",
"s. c #900837",
"d. c #82162C",
"f. c #A80723",
"g. c #B0072E",
"h. c #892424",
"j. c #9D3435",
"k. c #95312D",
"l. c #A43B39",
"z. c #C40303",
"x. c #CB0404",
"c. c #C30408",
"v. c #C70808",
"b. c #D30503",
"n. c #DB0403",
"m. c #D6070A",
"M. c #C80814",
"N. c #D00F17",
"B. c #E30404",
"V. c #ED0303",
"C. c #E6080B",
"Z. c #F50F0C",
"A. c #E9281F",
"S. c #CD1038",
"D. c #CB292E",
"F. c #FB2E2C",
"G. c #895A34",
"H. c #94592F",
"J. c #B04D36",
"K. c #986239",
"L. c #8E6C2C",
"P. c #AE7C3D",
"I. c #B77A3D",
"U. c #A8693C",
"Y. c #8B7718",
"T. c #C17F22",
"R. c #880A49",
"E. c #B50D4C",
"W. c #9D175B",
"Q. c #C43864",
"!. c #915D41",
"~. c #AB4846",
"^. c #91764D",
"/. c #B97645",
"(. c #C57A50",
"). c #C45F7D",
"_. c #3A852D",
"`. c #409C3E",
"'. c #51BA43",
"]. c #64E154",
"[. c #57C444",
"{. c #BC8322",
"}. c #C28522",
"|. c #BF8552",
" X c #D68B58",
".X c #D18F5C",
"XX c #EEA674",
"oX c #E6935A",
"OX c #0A0888",
"+X c #170A88",
"@X c #03039B",
"#X c #060699",
"$X c #130D98",
"%X c #0C138F",
"&X c #311490",
"*X c #0404A3",
"=X c #0305AB",
"-X c #0907A6",
";X c #0E13A7",
":X c #1415AB",
">X c #0304B3",
",X c #0304BB",
"<X c #090ABA",
"1X c #1618B5",
"2X c #170BB5",
"3X c #3410A9",
"4X c #2B10B3",
"5X c #382DA2",
"6X c #6417B4",
"7X c #7F7F81",
"8X c #0303C3",
"9X c #0303CA",
"0X c #1615C9",
"qX c #1518D8",
"wX c #0E14D1",
"eX c #2719D5",
"rX c #2916CD",
"tX c #1616E9",
"yX c #0F17F5",
"uX c #271BFB",
"iX c #1227EB",
"pX c #2F32F1",
"aX c #6938CA",
"sX c #4726E3",
"dX c #555AE3",
"fX c #8532BF",
"gX c #AA3482",
"hX c #C33381",
"jX c #BF4D80",
"kX c #BB7380",
"lX c #AB61A2",
"zX c #848283",
"xX c #8C8B8C",
"cX c #9A999B",
"vX c #8E9093",
"bX c #9E9FA1",
"nX c #ADACAE",
"mX c #BDBDC3",
"MX c #C8D4D6",
/* pixels */
"                                                                                                                                ",
"                                                                                                                                ",
"                                                                                                                                ",
"                                                                                                                                ",
"                                                                                                                                ",
"                                                                                                                                ",
"                                                                                                                                ",
"                                                                                                                                ",
"                                                                                                                                ",
"                                                                                                                                ",
"                                                                                                                                ",
"                                                                                                                                ",
"                                                                                                                                ",
"                                                                                                                                ",
"                                                                                                                                ",
"                                                                                                                                ",
"                                                                                                                                ",
"                                                                                                                                ",
"                                                                                                                                ",
"                                                                                                                                ",
"                                                                                                                                ",
"                                                                                                                                ",
"                                                                                                                                ",
"                                                                                                                                ",
"                                                                                                                                ",
"                                                                                                                                ",
"                                                                                                                                ",
"                                                                                                                                ",
"                                                                                                                                ",
"                                                                                                                                ",
"                                                                                                                                ",
"                                                                                                                                ",
"                                                                                                                                ",
"                                        7X                                                                                      ",
"                                        7X                                                                                      ",
"                                        *.lX                                                                                    ",
"                                        $.zXxX    #.                                                                            ",
"                                         .zXxX|.  &.              B.                    xXcXxX                                  ",
"                                        X. .-.xXcX..l.N.B.  B.n.B.Z.b.2.w.9.z.b.D.  cXxX=.o. .                                  ",
"                                        | ..o.zXcXMXi.i.B.D.c.V.m.v.e.w.9.2.v.V.).mXbXzXo.| |                                   ",
"                                $.nX      |  .*.=.nXMXM.C.c.w.t.B.r.n.2.1.b.V.5.mXnX=.$.+.|                                     ",
"                                  $.bX%.v.q.| #.#.*.`.S.c.w.b.x.q.n.q.x.w.z.n.8.-.&.#.&.b x.  &.bX                              ",
"                                    =.vX*.m.w.m ..+.&.m.q.z.C.x.2.,.9.t.z.>.b.z.#.*. .v e.v.&.vX`.lX                            ",
"                                    ..*.$.C.e ,.v.b.b.q.x.V.c.w.0 7 0 q.r.B.w.9.6 6 6 q ,.b #.+...                              ",
"                                    b ' j.V.q.,.3.<.0.q.b.C.V.r.9.8 9.b.B.B.x.e.7 7 7 0 z.w v v k                               ",
"                                t.n.e.,.0.c.b.7.q 8 w <.w.w.x.B.w.1.n.8.q.0.e.9.y 1 .XXXXXe 9 :.t.b.b.                          ",
"                                r.8.2.z.w.3.,.q 8 f q :.9.9.9.r.e.3 8 z.<.:.<.:.2 d U.H. X.X4.>.1.b.r.                          ",
"                              0.r.3.b.z.z.9.9 q p.k.l.k.0.V.F.z.<.a c 2 9.1.8 1 /.K.i p.c (.K.e b.w.q.t.                        ",
"                            <.,.9.2.n.e.,.9 u u u 2 2 :.b.Z.z.:.5 C c 3 @ 1 1 L.S * & & S G.Z 1 <.:.:.:.                        ",
"                            4.8 :.3.1.>.9 7.u k.u * 3 8 ,.4 9 8 p i 5 = C 1 1 i < J E U K.Z s 2 n.b.w 7                         ",
"                          z.w 6 7 7 7 p.~.k.k.u 8 * = a c p k.4 W y.y.U.: l.N.5.1XwXpXdXqX2 2 9.v.V.Z.8 >.                      ",
"                        x.c.v.8 q 6 ~.j.~.l.y * O Z * O . C A ' $X$XwXpXtX6XQ.Z.dXA.rXpXpXY 4 <.0.n.b.,.b.z.                    ",
"                      c.M.m.qX&XL 8 p.k.l.* * /.XXZ & p ^.^.D 5 5./ tXuXuXfXQ.6XdXW.s.yXyX8X$X7 3.2.1.>.<.9.                    ",
"                      B.qXqX4XK j > r u u & H.oXL.= + n D b < N.t iX&XaXjXkXtXR.aXQ.yX4XwX_ $XwX:Xl <.2 0 :.                    ",
"                    4 +Xs.yXyXqX+X- 2 2 + + .XA . d /..XZ  X&X> 1XeXqXS.D.pXg.lX6XS.qX0X;Xh k r H #X<XH +Xh 0                   ",
"                  w.z y.3XR.eXg.pXP 5X..o . K.8 2 * Z T.o ;X:XE.] ] N.&XW.&XE.[ wXrX6.y.t qXu.:Xh K t 3XP 2Xg 6                 ",
"                  z OX( / 0Xf.s.:Xu.4XM.%Xo G.2 2 s + |.@ ~ ~ f.a.M.u.P ( N.rXeX;X&Xx.5.l E k t h OXt u.~ t.> :.                ",
"                  T R ~ ;X#Xz 2X) 1X0X&Xg.: G.1 2 i + /.W f.f.l s.&Xs.l W 5.c.&Xj q.w.K E 6.0.<.- - 0 9._ l g 6                 ",
"                  Y R Y T L z wXx B c wXtX: K.3 1 3 & {.H L u./ _ a.5.C.W.>.E G e.t L >.r G G ; - Y +X7 j k g #                 ",
"                >X>X>XR Y Y Y N '.'.`._.^ b /.K 2 # Z A &Xa.y.6.i.q.5.) +X~ F G 6.E r r G R R #X#X#X#XOX#X$XT                   ",
"              =X=X,X<X#X@XOXR V ].[._.V N (.!.;X>X- I.+ L x P E g W j r 5.J F ; 4 G 2 2 OX#X#X>X>X,X9X,X>X-XOX                  ",
"                #X#X%XU { } %XM % . M M , H.}.}.}.{.Y.X Y R T T 4 t 6 K H Y R @X=X*X=X,X9X9X9X,X,X*X*X*X*X                      ",
"                          V B $ % % % $ $ M Q *X@X@X@X@X*X#X*X*X*X*X*X*X=X>X,X8X9X8X<X>X@X*X@X*X                                ",
"                                          $ N , @X@X=X>X*X*X                *X*X*X*X*X                                          "
};
