/* XPM */
static char *__damaged1684288886[] = {
/* columns rows colors chars-per-pixel */
"64 64 232 2 ",
"   c None",
".  c #1F170B",
"X  c #241C0F",
"o  c #28180D",
"O  c #241C12",
"+  c #271E16",
"@  c #1A2610",
"#  c #2D2414",
"$  c #2B251A",
"%  c #282316",
"&  c #332513",
"*  c #342B15",
"=  c #392B15",
"-  c #352C1B",
";  c #3C2D1B",
":  c #3B2418",
">  c #293419",
",  c #35341C",
"<  c #3D321B",
"1  c #2B230F",
"2  c #1C1B22",
"3  c #271F22",
"4  c #252524",
"5  c #2B2624",
"6  c #262926",
"7  c #2B2926",
"8  c #2C2C2B",
"9  c #2A2628",
"0  c #312D2D",
"q  c #362C25",
"w  c #2D322B",
"e  c #343524",
"r  c #363B25",
"t  c #3A3D25",
"y  c #32322A",
"u  c #3A3827",
"i  c #2E2E30",
"p  c #312F31",
"a  c #2D3131",
"s  c #2F3239",
"d  c #343333",
"f  c #393535",
"g  c #3C3C3C",
"h  c #383937",
"j  c #560B0B",
"k  c #5B0B0A",
"l  c #54070A",
"z  c #481D13",
"x  c #591813",
"c  c #54140C",
"v  c #6B0C0B",
"b  c #630B09",
"n  c #72110E",
"m  c #691614",
"M  c #761615",
"N  c #700D0C",
"B  c #442D1A",
"V  c #482717",
"C  c #572719",
"Z  c #43331C",
"A  c #4A321C",
"S  c #4A3A1F",
"D  c #573A1E",
"F  c #65251C",
"G  c #68271B",
"H  c #762C18",
"J  c #66361E",
"K  c #462D25",
"L  c #5A2625",
"P  c #4A3826",
"I  c #533C2C",
"U  c #533223",
"Y  c #433A37",
"T  c #523E30",
"R  c #672924",
"E  c #762C23",
"W  c #6B3B26",
"Q  c #743627",
"!  c #2B4D1B",
"~  c #3C432A",
"^  c #3A4328",
"/  c #3F4737",
"(  c #325B27",
")  c #336528",
"_  c #306218",
"`  c #42452C",
"'  c #434A2E",
"]  c #4A452A",
"[  c #57432C",
"{  c #454D32",
"}  c #494835",
"|  c #5D4B33",
" . c #5A4C36",
".. c #4A5133",
"X. c #475337",
"o. c #555A3C",
"O. c #555539",
"+. c #634A2C",
"@. c #654726",
"#. c #674D3A",
"$. c #68553B",
"%. c #7A5535",
"&. c #724D30",
"*. c #5A7D2E",
"=. c #686034",
"-. c #4A471D",
";. c #3E3F41",
":. c #3F4040",
">. c #434343",
",. c #4B4B4B",
"<. c #52534B",
"1. c #4C4F50",
"2. c #575858",
"3. c #4D504F",
"4. c #6E5845",
"5. c #755A44",
"6. c #685853",
"7. c #5F6147",
"8. c #67694C",
"9. c #6E7258",
"0. c #787557",
"q. c #78634A",
"w. c #5F6465",
"e. c #636669",
"r. c #69696A",
"t. c #796E63",
"y. c #7A7965",
"u. c #777877",
"i. c #6B7275",
"p. c #841413",
"a. c #8D1A1B",
"s. c #92191D",
"d. c #81251E",
"f. c #902A14",
"g. c #B62C14",
"h. c #8A1D22",
"j. c #892625",
"k. c #992A2B",
"l. c #8C3835",
"z. c #9B3535",
"x. c #8B372B",
"c. c #A32E26",
"v. c #A62D32",
"b. c #A63637",
"n. c #BA3A2A",
"m. c #C60006",
"M. c #F51000",
"N. c #C0393D",
"B. c #9A4637",
"V. c #8B5837",
"C. c #8F5234",
"Z. c #A84A3D",
"A. c #AC5037",
"S. c #94653E",
"D. c #93723D",
"F. c #BC7638",
"G. c #AC7038",
"H. c #B95009",
"J. c #CB5308",
"K. c #D86710",
"L. c #E46E12",
"P. c #F86A19",
"I. c #C46B3A",
"U. c #F27521",
"Y. c #9B5249",
"T. c #91534C",
"R. c #B34A49",
"E. c #AF554B",
"W. c #BA5453",
"Q. c #BD5859",
"!. c #AD4A42",
"~. c #87694B",
"^. c #986A48",
"/. c #89734D",
"(. c #98724F",
"). c #886E55",
"_. c #887659",
"`. c #967856",
"'. c #AC7447",
"]. c #B97847",
"[. c #A36956",
"{. c #B4664B",
"}. c #877A64",
"|. c #847D76",
" X c #927864",
".X c #B0756D",
"XX c #C65255",
"oX c #C77648",
"OX c #C6605A",
"+X c #CA7D53",
"@X c #C56261",
"#X c #CA7472",
"$X c #C57A6B",
"%X c #EA6F41",
"&X c #54832E",
"*X c #708854",
"=X c #F68118",
"-X c #F18122",
";X c #988456",
":X c #898768",
">X c #9A8764",
",X c #85827E",
"<X c #958978",
"1X c #A28463",
"2X c #A6876A",
"3X c #B98A65",
"4X c #AC957A",
"5X c #AD9375",
"6X c #B2A275",
"7X c #C78856",
"8X c #D98A5A",
"9X c #D18645",
"0X c #EA9158",
"qX c #D18D6F",
"wX c #D5A66F",
"eX c #ECAC74",
"rX c #EA9F6F",
"tX c #7D7F81",
"yX c #7E8283",
"uX c #8A8585",
"iX c #91908D",
"pX c #918B8E",
"aX c #AD9986",
"sX c #B39C83",
"dX c #B99D89",
"fX c #B9A38B",
"gX c #A4A399",
"hX c #B8B9B5",
"jX c #C29A8A",
"kX c #ECB689",
"lX c #D6B09E",
"zX c #F3C296",
/* pixels */
"                                                                                                                                ",
"                                                                                                                                ",
"                                                                                                                                ",
"                                                                                                                                ",
"                                                                                                                                ",
"                                                                                                                                ",
"                                                                          0.0.0.y.*Xy.>X                                        ",
"                                                                        9X8XlXzXrX7X_.<X_.9.                                    ",
"                                                                      ) _ zX*.! &X'.%XD._ *X9.                                  ",
"                                                              J.        wXkXeX].-.7X].) ) ! (                                   ",
"                                                                      qX0X0XeXzXkXrX3X( F.> !                                   ",
"                                                                  L.  I.5.s.6.kX8XrXwX7XG.$.!                                   ",
"                                                                      K.V F b U.I.0XoXA.+.> @                                   ",
"                                                                  -X  L.M.m.U -XoX7X7X%.r @                                     ",
"                                                                  t. X^.U.P.P.8XrX9XF.F.+.                                      ",
"                                                        1X1X1X1X>X0.r.i.H.K.J.J.Y d s s >.                                      ",
"                                                        1X1X>X`.2X[.T.r.p.f.f.g.q.t.).}.}.>X4X`.                                ",
"                                                    2X1X2X1X1XaXE.W.Q.z.b.R.OXjXdXaXaX).aXfX4X`.).                              ",
"                                                  `.1X2X1X2X#XXXdX$XW.b.Z.W.@XjXdXdXsX5XaXfXsX4X2X X5.                          ",
"                                                  q (.^.I 3XOX[.@XR.OXb.R.W.@X#XfXdXdX4X5X6X4X4X2X/.4.                          ",
"                                                '.oXI.].[ _.}.:X[.Y.R.b.R.W.R..X>X`.).#.V V K V < ).$.4.                        ",
"                                                '.~.5.} 6 2 6 w 0 3 T..Xv.h.p.c..XuXY q +.(.(.4.u h a                           ",
"                                                8 8 9 $ 0 | |. X0 5 1.hXdXlXhXgXhXr.:.0 9 8 0 p h g 4                           ",
"                                      Y 6 6 a a 8 | [ u 2.t.u.uX2.1.yXpXuXuXpXpX2.5 q 0 4 3 4 6 y f 3XV.                        ",
"                                    6 6 9 f   |.uX,X|.u.e.e.h :.>.g >.tXyXtXi.i.e.9 4 4 #.V.S.].<X5X+.P                         ",
"                                  >.6 6 p 3.u.|.u.u.6.;.f >.:.>.>.f Y i.r.e.w.w.2.p 4 4 {.G.G.S.8.>X8.]                         ",
"                        <.6.r.t.u.2.u.r.r.w.>.g g h s h h :.>.>.>.f g f i l.!.v.!.j.F * A.+X{.A.o.o.<.'                         ",
"                      2.8 d d d d d f ;.;.;.d ;.:.>.>.>.>.>.>.>.;.f d 9 E M M j n h.d.z G Z.B.B.Q ..r `                         ",
"                      6 p d p p 0 8 8 >.>.g ;.:.:.>.>.>.>.3.<.>.a h d 4 9 v k l k b b k k k.C.W @.e q                           ",
"                        6 8 d 8 a 8 >.,.,.3.3.1.h g g 0 8 8 6 6 8 s g w i 2 k l l l k k k j B Z S -.                            ",
"                        9 0 p i a R v.5 a d 9 w Q R   f 9 7 6 5 y.%.V.G.S.'.^.^.7...{ e $ * e                                   ",
"                          0 8 p p m m n.4 4 8 a 6     o.8 6 8 9 X.[ J D @.A o V % $ o.O.# X #                                   ",
"                          9 p p     M x g.0 a a 6 4   ` y 8 6 6 w +.@.@.[ @.Z @.w @ = y % # r                                   ",
"                                      m M R p 8 q 8   5.- y 7 7 $ Z A A S A A 1 /.;XP 8 8 y                                     ",
"                                              d       #.P - - * < ~ ` ....o.=.u `.>X`.q # X o                                   ",
"                                                      4.[ - # $ * > ....{ <.7.4.;Xq.~.; * X X                                   ",
"                                                  4.|  .P $ + q 6X& 8 y ~ X.8 ~.).5.#.= * * * Z                                 ",
"                                                  /.u z.N.l.x.L >X$ % + + q $.>X1X).%.- * * # .                                 ",
"                                                   .&.W.~.K Z.$XI [ # * % [ q.&.q.v.x.= * # & .                                 ",
"                                                  [ 5.#.} $.Y.+.I I # # # S 4.$.C.E Q ; * * # .                                 ",
"                                                  I | I T.C.F A A A & * X /.(.J A A S B = * & .                                 ",
"                                                  Z P U v.M c V < B -   X q.T.k.a.H C ; ; < = o                                 ",
"                                                  P K C.h.M x G | * *   | 4. .x.n c x p.& = *                                   ",
"                                                  ; - s.N : R s.B -       A #.Q x V V N V Z *                                   ",
"                                                    * M z H s.p.V Z       Z Z D J v v V A < =                                   ",
"                                                    = U z v p.N V = Z     * , d.M v b A ; S *                                   ",
"                                                    / u B V W M A * *     * t Z I ] { ' ' P Z                                   ",
"                                                    ~ 9.o.^ , A + X % X     ^ { ' ' ..{ > &                                     ",
"                                                    7 ....X...' ^ t a X     = ^ { { ..{ H #                                     ",
"                                                    ~ ~ ^ t z x m = 1 %     X & * = * # o v                                     ",
"                                                    t t r ^ r * # ` * #     . , < r u t e o                                     ",
"                                                      r ^ = * * , * $       t r { ` ` r r r                                     ",
"                                                          & Z e * , ^       t ' ' ' ' r Z t                                     ",
"                                                          # X < * * <       A ] / ....' P r                                     ",
"                                                          # + B * * *       ; B ..{ X.~ P r                                     ",
"                                                            = * = , O       B r k._.$.Z , =                                     ",
"                                                          G B + = < X         A M v.v.x ; *                                     ",
"                                                        ; B B = # Z +         : E Q j.C 1                                       ",
"                                                      R p.B B B B = *         R A U H C :                                       ",
"                                                    P E R C - - - 9 9         = z.k.c.z.D                                       ",
"                                                    0 K K 0 q q 5             Z j.b.z.s.F                                       ",
"                                                                              & H d.f.@.*                                       ",
"                                                                              O % % # # %                                       ",
"                                                                              5 5 $ # $ 9                                       "
};
