/* XPM */
static char *__death1684324953[] = {
/* columns rows colors chars-per-pixel */
"64 64 241 2 ",
"   c None",
".  c #050303",
"X  c #0C0B0B",
"o  c #0A0706",
"O  c #140F0A",
"+  c #171107",
"@  c #191207",
"#  c #15120B",
"$  c #1B140A",
"%  c #1F180C",
"&  c #141413",
"*  c #1A1611",
"=  c #1D1A12",
"-  c #1C1C1B",
";  c #171818",
":  c #10100F",
">  c #280D09",
",  c #3C0D0A",
"<  c #300C07",
"1  c #23150C",
"2  c #2B150C",
"3  c #221A0C",
"4  c #2C1D0D",
"5  c #261807",
"6  c #38150D",
"7  c #251D12",
"8  c #291D12",
"9  c #221D1B",
"0  c #281819",
"q  c #351913",
"w  c #330D13",
"e  c #2B230D",
"r  c #26200D",
"t  c #38230E",
"y  c #2C2311",
"u  c #24211E",
"i  c #2B2814",
"p  c #322514",
"a  c #332A13",
"s  c #3B2C15",
"d  c #3B2C1A",
"f  c #392717",
"g  c #3D3117",
"h  c #241F23",
"j  c #242323",
"k  c #2C2C2C",
"l  c #292827",
"z  c #362B26",
"x  c #333332",
"c  c #3B3B3B",
"v  c #383737",
"b  c #302F31",
"n  c #470B07",
"m  c #570A07",
"M  c #43120D",
"N  c #4C1308",
"B  c #57140C",
"V  c #561613",
"C  c #481614",
"Z  c #650A09",
"A  c #7B0907",
"S  c #66140A",
"D  c #6B1410",
"F  c #78100E",
"G  c #422C16",
"H  c #432D1A",
"J  c #492717",
"K  c #45331A",
"L  c #4B341B",
"P  c #493418",
"I  c #533D1D",
"U  c #593B1B",
"Y  c #62391E",
"T  c #7B2E0F",
"R  c #4A3624",
"E  c #553B23",
"W  c #5B3D23",
"Q  c #543725",
"!  c #423D35",
"~  c #523A3E",
"^  c #653E25",
"/  c #7D3422",
"(  c #5D4517",
")  c #6C4214",
"_  c #5C4223",
"`  c #564121",
"'  c #44423E",
"]  c #594A3D",
"[  c #644424",
"{  c #6D4625",
"}  c #684529",
"|  c #754C2B",
" . c #774C27",
".. c #7D512D",
"X. c #795227",
"o. c #7A4D31",
"O. c #7C5535",
"+. c #674433",
"@. c #4B4B4B",
"#. c #474646",
"$. c #564C47",
"%. c #545352",
"&. c #585858",
"*. c #515050",
"=. c #605D5C",
"-. c #624F43",
";. c #61615E",
":. c #5F5E60",
">. c #615F65",
",. c #676765",
"<. c #726867",
"1. c #727272",
"2. c #7B7A7A",
"3. c #787778",
"4. c #71706F",
"5. c #840706",
"6. c #84110E",
"7. c #8F130E",
"8. c #B50806",
"9. c #A60F09",
"0. c #962C11",
"q. c #B33209",
"w. c #851C2A",
"e. c #C70805",
"r. c #D70805",
"t. c #D2130D",
"y. c #E50604",
"u. c #E21817",
"i. c #C5270B",
"p. c #CC2F19",
"a. c #C42724",
"s. c #D73329",
"d. c #ED2F2E",
"f. c #A54F0E",
"g. c #92631A",
"h. c #85562C",
"j. c #865533",
"k. c #8C5B34",
"l. c #8A5938",
"z. c #925B33",
"x. c #975A38",
"c. c #9D5E2C",
"v. c #9C643B",
"b. c #9B6235",
"n. c #92632F",
"m. c #A4653B",
"M. c #A46A3E",
"N. c #A56738",
"B. c #B66C3A",
"V. c #AC7339",
"C. c #994921",
"Z. c #CD542D",
"A. c #9A6541",
"S. c #876F5D",
"D. c #AB6A41",
"F. c #B36E42",
"G. c #A87349",
"H. c #B37243",
"J. c #BB7545",
"K. c #BB7648",
"L. c #BC794A",
"P. c #B87648",
"I. c #A77856",
"U. c #BD7F55",
"Y. c #867B75",
"T. c #C47C4C",
"R. c #C57849",
"E. c #CB7E52",
"W. c #ED6A5E",
"Q. c #F67D79",
"!. c #DC8630",
"~. c #B28B73",
"^. c #CB834E",
"/. c #D2844D",
"(. c #CD8352",
"). c #C78451",
"_. c #D38554",
"`. c #D48A59",
"'. c #DB8D5C",
"]. c #D48B55",
"[. c #DC925B",
"{. c #E18C5B",
"}. c #E5915E",
"|. c #E8A559",
" X c #DE9263",
".X c #E39463",
"XX c #EA9A66",
"oX c #EC9D6B",
"OX c #E69867",
"+X c #F19D6A",
"@X c #EBA26E",
"#X c #F2A76D",
"$X c #F3A473",
"%X c #FAAD7C",
"&X c #F7AB76",
"*X c #F9B17D",
"=X c #EAA373",
"-X c #867E82",
";X c #B67E82",
":X c #8C8B8A",
">X c #878585",
",X c #939293",
"<X c #9A9A98",
"1X c #928F8F",
"2X c #A19F9E",
"3X c #AF9A8C",
"4X c #B2A799",
"5X c #A8A8A7",
"6X c #B1B0AE",
"7X c #B5B4B3",
"8X c #BAB9B8",
"9X c #EE9689",
"0X c #F8AE82",
"qX c #FBB285",
"wX c #FCB488",
"eX c #F8B789",
"rX c #FDBB91",
"tX c #FBBF98",
"yX c #E7B582",
"uX c #C1BDBD",
"iX c #F1AFB0",
"pX c #FAC29B",
"aX c #CAC1B4",
"sX c #F8C9A7",
"dX c #BFBEC0",
"fX c #C4C2C1",
"gX c #CDCCCA",
"hX c #C9C8C5",
"jX c #D5D5D4",
"kX c #DBD9DA",
"lX c #D5DECB",
"zX c #F5D4D7",
"xX c #ECD1D4",
"cX c #DEE1DF",
"vX c #E1E0DE",
"bX c #DFE1E6",
"nX c #E4E4E2",
"mX c #ECECEB",
"MX c #EAE7E6",
"NX c #F2F2F1",
"BX c #EBF1EE",
/* pixels */
"                                                                                                                                ",
"                                                                                                                                ",
"                                                                                                                                ",
"                                                                                                                                ",
"                                                                                                                                ",
"                                                                                                                                ",
"                                                                                                                                ",
"                                                T.'..X XK._.E.                                                                  ",
"                                          %.=.] .XtX$X$X0XoX%X.X                                                                ",
"                                        u %.%.j -.+XpX0XOXS.Y.c x j                                                             ",
"                                      C :X,.;.%.,.Y.%.@.$.s.x.B.R z k k         4.                                              ",
"                                      F ! z ! c k @.: X Y OX XyXP.F.- Y.%.    @.x                                               ",
"                                        d g s % O O J | o.^.p.lXx.iX: x r.d.v o o                                               ",
"                                          . # s 1 y i Q b.N.M S & f . o & 9 . . .                                               ",
"                                        [ 3 (. .Y m.W h._.^.A 5.        . . .                                                   ",
"                        OX).x.      (..X| H }.{ M.`.z.J. X`.Z.4X4X                                                              ",
"                    .XwXqX_.M.v.F.&X=XE.m.F.OXK.qXk.p 8 _ { .Xj.F.H...        R.`.                                              ",
"                  l.| W ..x.M.{ E | (.$XoXL.K.R.(.XXF.Y 8 f Q H Q OX`.L.z.k.v.+XpXrXOX                                          ",
"                u d x..XqX_.| K P.l.} H.K.T.R.`.H.K._.'.E.oX$XoX}.`._.].L.D.E.{.oX0X'.x.                                        ",
"        e.y.y.=XsXD.| G 8 3 = 3 7 _ k.).qXrXOX X.XOXT.m.U._._.T.L.v.l...v.o.$XqXOXE.k.K.XX).                                    ",
"      e.t.x.x.XXqXOXk.G 3 % 5 % 3 1 e R  .n.(.T.@X.XK.T.OXU.rX*XXX+X@X.XT...8 L | [ .X_...D.`.                                  ",
"    e.    A.f o.m.(.F.u 3 % % % 5 ^. .p 1 % 3 3 3 p _ m.}.` _ } L y 4 1 $ + + + 3 8 D.'.$XrXqXT.N.                              ",
"    e.  5XG.O.2 p _ j.M.J.r % 3 3 g _ (.W 3 3 3 a j..X#Xg.i.q 7 3 3 3 5 + % 7 % # D.sXD.).K.'.(.T.L.                            ",
"    y.  bXj 8 7 3 3 J.'.E   5 r 3 _ 3 y T._.H.XXU.k...R Z , 6 a d.A 3 t 7 3     3 L E.'.W | | ..j.U.vXMXkX                      ",
"    y.D dX&.I.1 7 ^ R i       [ e G 3 L.k.M.[ s P.H.p > # $ 1 m A a.5.A 3 =       3 L ..K y d ~.].fXnXMXvXgXh                   ",
"    e.T.W %XQ W H.W 7       3 h.8 3 p [ k.p 3 [ a y i P r 8.m m 6 d.9.8 4           1 7 y ;XMXfXuXgX8X7Xw.W.xXxXBXjXhX          ",
"    s.@XR.=Xx.z.$X8           K 8 3 { H.s 3 3 s r 3 g  .f.r.0.6 1 a.8.8 J           K 3 * 9XzXmXMXkXuXv Y.Q.iXzXzXMXmXvX6X      ",
"  ` 0XsXOXwXpXrX+.d           3 1 8 3 % % 3 3 1 % 3 3 5 t ) ) X.3 r.r.V D             p 3 @.5XjXvX3.c -XfXjXgX,.1.,Xk v #.:X    ",
"  z +XrX}.sXtX_.G.                3 % 1 % 3 > % 6 N Z 7 % 3 3 e 4 F V     Z             j.z u #.4.k & @.,XfXMXMX5Xu l 8XjXv     ",
"  8X~.wX0X%X{.^ +.                3 % 1 1 8.7.2 r.w A 7 1 % 3 , 1 N         5.  D         |.8 e u c & # ; - x 4.- - %.& o k >X  ",
"  3.z.$X@X/.z.R                   1 2 m Z A S 0 C B B m m n q 9.5.=                         i * 9 l j & # # $ i - - ; ; X - j >X",
"  R .XeX&X8 % W                   s 5 Z 2 5.7 8.M V 6 Z n # w e.e , 4                         & # - b * & : - a 3 % # o o ; - @.",
"  l.eX#Xd gXc                   3 % < m , 6 q 2 % 6 3 n + 1 > Z = < M                             - u u & & & - + * 3 * & ; - j ",
"  OXI.y u $.                  L 3 1 5 M r A 3 3 4 > > 5 6 N 1 , = f                                 a G 3 & & $ e e e y - - - - ",
"9 G [.I.z.                  ^  ._ 3 d 4 5 5.p 3 J ..M r 8 9.9.2 ( q.  g.                                K ;           G u -     ",
"l.Q 3 d ].                f .XF.{ L.b.L.T.L.v.b.c.g.t.r.u.m n m D r.B 0.                                                        ",
"f ..0 ).].              :XH R.R.R.}. XQ ` P K ( T 6.9.r.W.A , m u.t.T K                                                         ",
"8 3 I y f             `.0XOX%XwXrX%XXX'./ , $ 5 r 3 5 3 6 @ O $ s L J [                                                         ",
"  3 (               D.rX X`.qXeX|.!.qX/.'.V 5 e e 3 3 + # # O < S K % R k.                                                      ",
"                  T.o.eXT.'.0X0.6 4 Z.E.L N.7 3 5 + @ % 1 n n m q.4 + q.d P                                                     ",
"                x.A.9 rX.X&Xv.6.m M B./.) y %   % + e a s y T f.k.+ M p.s  .                                                    ",
"                Q O.~..XoX$XR.i.y.0.R.[ s r       % e e h.z.t { K 1 e.f.L P.[                                                   ",
"                & [ 3XT.oX_.&XeXeX@X[ % p           3 3 3 L L 3 3 r P P K N.[                                                   ",
"              9 $ >X] M.`.l...F.v.K % 5 y           e 3 3 % 3 3 e % e 3 y [ s                                                   ",
"              @.u mX! N.L.h.g 3 3 3 % a             e e r 5 3 $ % @ % @ 5 e a                                                   ",
"              4.x mX! c.J.v._ 5 % % % 8               e e $ % 3 @ @ $ $ % i a                                                   ",
"            v ! >X7X' j.J.k.| a % e i L                 r % 3 3 5 + + + % r                                                     ",
"          c 2.,.cX1X! K d 3 d e 3 % j                   r r $ % % + + @ 5                                                       ",
"          3.:XjX3.4.- y % 1 % i 7 j                       3 3 # # + + @ %                                                       ",
"        c 2.dX#.&.*.*.p 7 % s l l j                       1 s % + @ + % a L                                                     ",
"        #.*.h b bX<X8X-.s c u j j                         3 8 + + + @ e d g                                                     ",
"        D 6.8.5X,X,.%.@.@.k j -                             % # $ % $ @ P P s                                                   ",
"        -XkXMXjX4.%.u v c b j                               y # # % % % 3 y e                                                   ",
"      %.2XvXMX5X,.w V #.x                                   7 + @ $ % % + % y                                                   ",
"    b *.1XdXmX,X#.e.&.#.                                      3 + @ 5 a 3 3 y                                                   ",
"    l b h ,.mX1X0 F :.v                                         % r e s ` _ [ P W ..                                            ",
"      ; c 5XBX<XA ~ #.                                            % e P I ` [ ` I _ p                                           ",
"    :.:XdXNXNXnXjX9Xw.                                              @ % % % e a e % %                                           ",
"  l c :.1XgXcX7X<X&.H                                               % 5 r y s K K a e                                           ",
"  . o : ; k x b k & X                                             + % % e a d P K d y %                                         ",
"  j ! &.3.6XgX8X,X<.0.                                            + + r y s P _ ` P y +                                         ",
"  j k #.,.6XgX7X:X@.l *                                             + $ $ % 3 r 3 $ $ +                                         ",
"  - b #.,.uXhX7X:X#.= 7                                                                                                         ",
"    - u j b x x k 9                                                                                                             "
};
