/* XPM */
static char *__death1684324953[] = {
/* columns rows colors chars-per-pixel */
"64 64 256 2 ",
"   c None",
".  c #040303",
"X  c #0B0B0B",
"o  c #09070A",
"O  c #140E07",
"+  c #1A1207",
"@  c #1C140A",
"#  c #1E190B",
"$  c #16130A",
"%  c #1C1C1B",
"&  c #181714",
"*  c #260E07",
"=  c #330C05",
"-  c #330E0A",
";  c #3B0D0B",
":  c #3C0B05",
">  c #23140B",
",  c #2C130A",
"<  c #231A0D",
"1  c #291D0C",
"2  c #2C1805",
"3  c #33130C",
"4  c #38160C",
"5  c #241C12",
"6  c #2A1E12",
"7  c #211E1C",
"8  c #281612",
"9  c #3A1813",
"0  c #2B220E",
"q  c #29250B",
"w  c #33260E",
"e  c #2C2312",
"r  c #26221A",
"t  c #322414",
"y  c #352914",
"u  c #3A2B15",
"i  c #3B2C1A",
"p  c #34271A",
"a  c #3C3216",
"s  c #252323",
"d  c #2C2C2B",
"f  c #272627",
"g  c #342A26",
"h  c #3A3526",
"j  c #343333",
"k  c #393636",
"l  c #3C3C3C",
"z  c #3D3935",
"x  c #302F30",
"c  c #212121",
"v  c #450604",
"b  c #4C0505",
"n  c #440B0A",
"m  c #4B0B0B",
"M  c #470B06",
"N  c #540C0B",
"B  c #5B0C0B",
"V  c #580706",
"C  c #48140D",
"Z  c #451712",
"A  c #551512",
"S  c #581814",
"D  c #59150E",
"F  c #630505",
"G  c #630C0A",
"H  c #6C0B08",
"J  c #740C0B",
"K  c #7B0C0B",
"L  c #780705",
"P  c #6B150D",
"I  c #64140B",
"U  c #76170D",
"Y  c #651414",
"T  c #751913",
"R  c #6C0E11",
"E  c #56260B",
"W  c #462B17",
"Q  c #562718",
"!  c #423215",
"~  c #44331A",
"^  c #4C351D",
"/  c #4B3618",
"(  c #563A1A",
")  c #4B290E",
"_  c #73240A",
"`  c #622114",
"'  c #67361B",
"]  c #763518",
"[  c #712614",
"{  c #432A22",
"}  c #4B3524",
"|  c #5A3D22",
" . c #543A23",
".. c #463B33",
"X. c #542C27",
"o. c #653A27",
"O. c #773A25",
"+. c #75322B",
"@. c #73431B",
"#. c #5C4127",
"$. c #47463A",
"%. c #6B4423",
"&. c #684629",
"*. c #724C2A",
"=. c #7B4D2C",
"-. c #76442A",
";. c #7D512D",
":. c #785429",
">. c #7B5633",
",. c #704C33",
"<. c #70601A",
"1. c #3C3E42",
"2. c #4D4C4B",
"3. c #464445",
"4. c #5C5B5B",
"5. c #565453",
"6. c #51514E",
"7. c #6E5450",
"8. c #64615D",
"9. c #6D6C6B",
"0. c #6A6765",
"q. c #747372",
"w. c #6F6E6F",
"e. c #870907",
"r. c #940504",
"t. c #9E0D0B",
"y. c #970A07",
"u. c #87150B",
"i. c #98180B",
"p. c #831614",
"a. c #9D1C1B",
"s. c #A80907",
"d. c #B40B06",
"f. c #B70705",
"g. c #A81414",
"h. c #B41807",
"j. c #87230C",
"k. c #873218",
"l. c #993A12",
"z. c #8C2D0E",
"x. c #AD2A12",
"c. c #843527",
"v. c #913024",
"b. c #B12C24",
"n. c #AD1D23",
"m. c #C60704",
"M. c #D80604",
"N. c #CB1610",
"B. c #E60706",
"V. c #F70603",
"C. c #F01A17",
"Z. c #D32B15",
"A. c #CD3D2C",
"S. c #F62E2B",
"D. c #EF352F",
"F. c #CE1420",
"G. c #8A4914",
"H. c #AB4612",
"J. c #86552C",
"K. c #8D5B35",
"L. c #895633",
"P. c #955D36",
"I. c #8D4E2C",
"U. c #AC4E27",
"Y. c #86653C",
"T. c #9B6539",
"R. c #8F6827",
"E. c #A4653B",
"W. c #A5693D",
"Q. c #AB6A3E",
"!. c #B26D39",
"~. c #AD611A",
"^. c #D15910",
"/. c #EB6C10",
"(. c #CC5739",
"). c #CD7436",
"_. c #F06E2B",
"`. c #DE521C",
"'. c #936543",
"]. c #A96D43",
"[. c #B36D42",
"{. c #B37244",
"}. c #BA7445",
"|. c #BA774A",
" X c #B47758",
".X c #AB6F4F",
"XX c #867977",
"oX c #8A7E6C",
"OX c #A8564E",
"+X c #CF5449",
"@X c #EB574F",
"#X c #C37B4D",
"$X c #CB7D4C",
"%X c #C27649",
"&X c #C57B52",
"*X c #D37748",
"=X c #D06F69",
"-X c #F17579",
";X c #EF7D59",
":X c #B7893E",
">X c #EE843A",
",X c #D58232",
"<X c #B78F53",
"1X c #938A68",
"2X c #CE8453",
"3X c #C88356",
"4X c #D28555",
"5X c #DC8D5C",
"6X c #D6895A",
"7X c #D2884E",
"8X c #E4864C",
"9X c #E4965B",
"0X c #EE9558",
"qX c #DB8E62",
"wX c #DD9266",
"eX c #C99069",
"rX c #E39464",
"tX c #E59965",
"yX c #EB9C6B",
"uX c #E79A69",
"iX c #EC9D71",
"pX c #EF936D",
"aX c #E9A569",
"sX c #F2A46D",
"dX c #ECA374",
"fX c #F4A475",
"gX c #F5AA7A",
"hX c #F6A77A",
"jX c #F4B17B",
"kX c #8C8B8C",
"lX c #878485",
"zX c #989696",
"xX c #96918C",
"cX c #B3908A",
"vX c #A9AAA6",
"bX c #B8B6B6",
"nX c #B5ACA7",
"mX c #ABADA0",
"MX c #E3908C",
"NX c #F7AE84",
"BX c #F9B488",
"VX c #FABA94",
"CX c #E8B095",
"ZX c #CFB5B0",
"AX c #E9B7AC",
"SX c #BEC0BD",
"DX c #C1C2BE",
"FX c #F9C7AB",
"GX c #EEC5AD",
"HX c #FCB8C3",
"JX c #CACBC9",
"KX c #D7D8D7",
"LX c #D1CFCF",
"PX c #E2DCD9",
"IX c #E8E6E5",
"UX c #DCE1E2",
/* pixels */
"                                                                                                                                ",
"                                                                                                                                ",
"                                                                                                                                ",
"                                                                                                                                ",
"                                                  4X|.                                                                          ",
"                                          5.'..XNXVXgXdX3X4X4X                                                                  ",
"                                        f 9.0.d K.fXVXhXNXyX0X7.0.                                                              ",
"                                      8 0.0.5.9.lXvX5.,.$..X3.% i (                                                             ",
"                                      L 5.3.2.2.3.w.& & J (.dXwX{ f g                                                           ",
"                                      @ t u a < $ & 8 ( J.pXc.CXL.eXd d                                                         ",
"                                        o . X r # # e ~ &.|.C z.f *X..2.3.kX3.9.2.                                              ",
"                                          O p e p i / *.*.Q.m , o G.3...+XXX1.7 l                                               ",
"                                      E.6 ~ |. .#.$X| '.-.+.G m o . o & X.g o .                                                 ",
"                                  ].&X3X5 T.#X .rX{.$XqX].<X@Xv.    . . . . .                                                   ",
"                    2XyXuX2XP.  |.uXqX|.T.yX;.$XNXL.i E.%.9X+Xb.W.Q.%.                                                          ",
"                  5XyXiXrXT.*.*.W.5XyXrX#X{.#X5X6X'.=.=.*.*.K.J.P.}.}.{.[.W.].|.6XuXrX}.                                        ",
"                *.| ^ ;.E.#X|.K.J.J.2XrXyXrX6X5XuXNX,X{.|.aXjXNXtXdX5X2X{.Q.E.}.fXBXhXyX{.                                      ",
"                6 &.[.5X4XK.u &.E.K.4XfXjXBXBXfX8X^./._.rX$XCXVXyXBXgX5XtXqX#X{.qXhXBXuX|.&X                                    ",
"        M.N.}.FXBXP. .t 5 # < < >  .;.{.yXjXNX6X/.,XaXNXVX!.Y.Y.K.1X6XyX5X4X3X4XrX&X=.|.%X6X                                    ",
"      m.  +.I.uXhXtXE.^ 0 < > 5 w e < e / I.*.:.,X7X4X].U.H.a t C ` -.,.| } 5 < t p #X].6XNXyX                                  ",
"    f.s.jX{ ^ *.W.$XT.h 5 < < &.J.J. .t.E <X`.p.=XP ' o.u.r.D S n b t.(.8 8 , + > &.2XhXBXNXyX4XK.                              ",
"    s.  8.W.p 6 u #.P.{./ < < t ! p T.S.F.x.U.g.` Z L s.m.B.y._ P I T y.u.9 4 r < fXgXE.$X2X4X}.$X                              ",
"    s.  bX} ~ 8 5 ! {.6X~ < 1 1 ! U G.B.g.x.B y.s.S K g.z.i.R p.s.B R f.n 4 3 e < P.rXW.>.P.].4X XZXIXKX                        ",
"    m.K bX4.} 5 5 ^ :.i     w i h a U.Z.N N S J ; r.u.B.B.V.V._ u.C n v v v ; m < 1 :.~ ( T CXUXUXPXKXSX9.                      ",
"    g.o...&X].i ,.].5       t Q Q !.[ t.u.Z d.t.Y J e.Q E M.z.Y e.m.m V S.C.3 8   t 8 r zXJXMXZXnXvX+X-XJXvX                    ",
"    W.;XpXiXqX{.dX|         q w 5 u.Z.9 3 R m.Z H V.m.s.d.` B.U S e.F N v V B b     a g.-XHXPXbXlX7.S.AXIXIXKXzX                ",
"    I.GXfXfXBXVX5Xi           < @ V m H m.s.C u p r.V.t.I d.B ) e.B s.a b m Z.A.9 A   9 C.-X0.1.1.bXPXkX4.x x j w.              ",
"    J.FXfXfXBXhX}.              y + - > * - = 6 M M P I y.C z.V L ; G ; L K b V D B   {.=.y.{ s % B.lXvX4.3.9.lXq.q.            ",
"     .FXNXfXhX9Xp                 - > > - v n m.N L N m V H b r.e.& M 4 +.c.C.y.F P   [.}.! f f c $ 9 x s k c o c 2.kX          ",
"    q.nXiXpX9X!.g                 < 1 e.n n H n r.F V F E U D L H k.a 3 b : F.Z 9 N L   i < c d s & & % r % % % & f j           ",
"    d >.rXqXwX1XnX                C 1 L Y M e.s.y.; e.L ` U.] W <.T.Q ; V   B             5 % r r % % % % < X o X % % 6.        ",
"      | #XiXyX7Xp             a 3 1 , , e.G * 6 U ) ' ] < w w ; 3 9 = T           e.D         e y & % $ < # @ & % % r d         ",
"      ^ 5X.X,.6             p u = , : M W P 8 6 N.i.j.[ M 3 n n 2 I ; T                       t u e # 0 y e # < % % %           ",
"      i Y.fXwX#.          1 ].%.^ ) ! K.J.R.J.Q.m.B.MXOXm K s.; E h.S G.' ' t.Z x.                  r % e 0 ! # %               ",
"      K.1 8 &.aX<X    zX,.].6XE.;.P.%.@.z.p.@.J.%.s.m.M.L ; v V u.f.J m f.S.C.j.(                             u                 ",
"      p W.'.aX-.    .XGX XwXNX5X6X>XyXyX&Xv.( ! q q L J e.d.L i.i.f.m.b t W ) ) (                                               ",
"     .< p 6 1 :.  .XBXBXFXGXqX0X_.T `.7XD.8Xq 3 ; L b r.I e.t.i.N.m.e.B > 9 ~ 5 i K.                                            ",
"      < 1       E.!.BX/.^.GX(.+.&.d.Q ^.-.! ; M B s.F D I i.M.M.B.V.u.L s.r.m                                                   ",
"        ! R.    &Xt wX).8Xx.S M.m.d.m.Y ` Q / @ n F @ $ e m r.M.U i.M.I B J &.&.                                                ",
"                yX1 }.iX).f.d.f.M.B.m.K [ W %.> + : t ^ a r.e.t._ d.j.J K _ v.! |                                               ",
"              t wXf =.sX+Xx.s.M.M.d.K V.+.{ 6 8 < q N y.Z G Y B.D f.V C _ _ l.W %.                                              ",
"              5 T.ZX%.6X9XS.D d.s.y.S n.&X=.5   < e p.N , V V V G M L C e.s.G./ J.                                              ",
"              l h IX! G.Q._. XK R y.a.-.R.< &   < < 2 W @ I J p.R K y.< 3 r y i &.                                              ",
"            f 0.k KX! z.^ ).wXx.k.e.^.~.} 1     # , # # > u _ j.-.] l.< 3 1 1 e ^                                               ",
"            f 2.XXZX! H.T ~  .T.W.( ~.p 6 y       0 = b 1 / ) / 0 1 @ @ F V > e t                                               ",
"          l 9.k AX1Xi T.H.p e r 5 r # 8 t         0 0 1 1 q < q < + O - J V S 0                                                 ",
"          5.0.lX@XoXu ~ #.! e y e 5 s s             = b > + * @ + * v ; # ; < 0                                                 ",
"          9.lXbX=X%.e e ] y / e 5 r s               V m v @ # F : + + O > + <                                                   ",
"        j w.kXnX2.b.f r # r % w s f                 B V # # q > + , + # $ < t                                                   ",
"        1.lX9...zXcX@X>.p f z s s s                     < < * = ; + + = 3 G ! u                                                 ",
"        f c y.0.bXq.4.4.3.d c r s               L F     5 2 = V : @ + $ V B y u                                                 ",
"        7.=XcXKXXX8.l z 3.k s                             0 + > : 1 < - 1 3 y ~                                                 ",
"      2.kXLXUXJXg.g D x h                                 > < + ; > , , # > 1 t                                                 ",
"    k 2.zXKXUXJXn.I u.O.~                                 0 > $ + $ 1 + > # 1                                                   ",
"    d 2.w.kXLXcXs.d.$.i.                                    e # @ @ @ y y w q y ^                                               ",
"    d % & 5.bXvX9 Y p.Q                                         < # w / | *.*.&.;.J.                                            ",
"      % j zXKXvX....M.                                            < q u a ! / ~ ! y e                                           ",
"    4.bXIXIXIXPXAXD.a.                                              + # < 0 y / u e q                                           ",
"  s x 2.lXLXKXbXlXn.t.@                                           + @ # 0 q a ~ a y q @                                         ",
"  o d 5.w.lXkX'.v.e.&                                             + + # q t ~ ^ ^ u e @                                         ",
"  f k 3.9.vXJXbXkXV.p.5                                           + $ q e a ~ #. .! 0 @                                         ",
"  s d l 8.bXJXbXkX+.9 <                                             + @ @ # @ q < @ @                                           ",
"  7 d 2.4.vXvXzXw.1.7                                                                                                           ",
"      % d k l k x c                                                                                                             "
};
