/* XPM */
static char *__death1684324953[] = {
/* columns rows colors chars-per-pixel */
"64 64 250 2 ",
"   c None",
".  c #0A0809",
"X  c #110E0E",
"o  c #1A1107",
"O  c #1D150A",
"+  c #1A1715",
"@  c #0E1219",
"#  c #2A0B07",
"$  c #3C0B0A",
"%  c #380B07",
"&  c #241B0B",
"*  c #29170C",
"=  c #241C11",
"-  c #241C1B",
";  c #291D16",
":  c #381713",
">  c #31130E",
",  c #2B220D",
"<  c #2B2213",
"1  c #262417",
"2  c #322414",
"3  c #3B2B17",
"4  c #3B321E",
"5  c #36280D",
"6  c #1C1E21",
"7  c #251E22",
"8  c #1E2723",
"9  c #242423",
"0  c #2C2C2C",
"q  c #292726",
"w  c #343333",
"e  c #3A3A39",
"r  c #2F3132",
"t  c #430505",
"y  c #4C0404",
"u  c #430B0A",
"i  c #4C0B0C",
"p  c #470907",
"a  c #530405",
"s  c #5D0404",
"d  c #540B0B",
"f  c #5D0A0B",
"g  c #560808",
"h  c #43110C",
"j  c #4C1D0B",
"k  c #5C110C",
"l  c #57100D",
"z  c #550E10",
"x  c #451B14",
"c  c #571814",
"v  c #470D10",
"b  c #640404",
"n  c #6D0404",
"m  c #650C0B",
"M  c #6C0B0A",
"N  c #6A0807",
"B  c #750505",
"V  c #7C0303",
"C  c #7D0A06",
"Z  c #740A0A",
"A  c #7C0A0A",
"S  c #770808",
"D  c #68140D",
"F  c #76140A",
"G  c #671611",
"H  c #791715",
"J  c #472515",
"K  c #542815",
"L  c #46341B",
"P  c #53391F",
"I  c #742909",
"U  c #69330D",
"Y  c #652714",
"T  c #7B221A",
"R  c #693B1A",
"E  c #7A3615",
"W  c #74300A",
"Q  c #4B3822",
"!  c #573724",
"~  c #433736",
"^  c #6D3728",
"/  c #3D403F",
"(  c #5E411F",
")  c #754419",
"_  c #64501B",
"`  c #5B4B2E",
"'  c #654726",
"]  c #774B2C",
"[  c #71532E",
"{  c #3E3F43",
"}  c #394040",
"|  c #4B4C4B",
" . c #444644",
".. c #575756",
"X. c #4F4E51",
"o. c #656966",
"O. c #546467",
"+. c #840404",
"@. c #8C0404",
"#. c #830C0A",
"$. c #8D0C0A",
"%. c #870A06",
"&. c #940404",
"*. c #9B0504",
"=. c #930906",
"-. c #9B0906",
";. c #9D0B0A",
":. c #970B0A",
">. c #87160C",
",. c #98120B",
"<. c #891814",
"1. c #931A14",
"2. c #A30504",
"3. c #AC0404",
"4. c #A50A06",
"5. c #AC0906",
"6. c #AC0B09",
"7. c #A70909",
"8. c #B30404",
"9. c #BD0404",
"0. c #BC0A06",
"q. c #BB0B08",
"w. c #B50A07",
"e. c #A8150B",
"r. c #B4110B",
"t. c #B61906",
"y. c #A41815",
"u. c #B41513",
"i. c #872B0A",
"p. c #972B09",
"a. c #873608",
"s. c #993709",
"d. c #87281B",
"f. c #88361A",
"g. c #9C3616",
"h. c #93241D",
"j. c #A13503",
"k. c #A9291B",
"l. c #B62516",
"z. c #B12F0B",
"x. c #8B1F21",
"c. c #982B24",
"v. c #9B3B39",
"b. c #903428",
"n. c #A8372C",
"m. c #C40404",
"M. c #CB0405",
"N. c #C40A06",
"B. c #CC0A06",
"V. c #C20C0A",
"C. c #CA0C08",
"Z. c #D40504",
"A. c #DB0404",
"S. c #D40906",
"D. c #DB0A06",
"F. c #D30C09",
"G. c #DB0B0A",
"H. c #D50508",
"J. c #CB120A",
"K. c #C6150B",
"L. c #D3120C",
"P. c #D81109",
"I. c #C81011",
"U. c #E30404",
"Y. c #EB0404",
"T. c #E40A06",
"R. c #EB0A05",
"E. c #E70A09",
"W. c #F40404",
"Q. c #FA0403",
"!. c #F30A06",
"~. c #FC0906",
"^. c #F50609",
"/. c #FC0309",
"(. c #FC0C0C",
"). c #F30A09",
"_. c #E3110A",
"`. c #E81407",
"'. c #FB140D",
"]. c #FC0F10",
"[. c #EA1914",
"{. c #FD1513",
"}. c #FC1A18",
"|. c #CA2F0C",
" X c #EE2717",
".X c #FD2222",
"XX c #F92B27",
"oX c #F93936",
"OX c #F2352B",
"+X c #C43836",
"@X c #8A4716",
"#X c #964C10",
"$X c #A9490A",
"%X c #BA4808",
"&X c #B4451A",
"*X c #B15019",
"=X c #8A452B",
"-X c #964B28",
";X c #8A5934",
":X c #965C38",
">X c #8B4B31",
",X c #A8423B",
"<X c #B2572F",
"1X c #9A6728",
"2X c #9A643A",
"3X c #B97534",
"4X c #C3460B",
"5X c #D55A08",
"6X c #CA5309",
"7X c #E45109",
"8X c #D76313",
"9X c #E6660A",
"0X c #F47615",
"qX c #ED7312",
"wX c #CD5334",
"eX c #ED4A2B",
"rX c #D06F2F",
"tX c #EB7A2D",
"yX c #A84D43",
"uX c #AE5943",
"iX c #95674F",
"pX c #B56F43",
"aX c #B37442",
"sX c #AC7052",
"dX c #9D6D6B",
"fX c #F74844",
"gX c #F45650",
"hX c #C77B49",
"jX c #C97F50",
"kX c #ED7756",
"lX c #EA7A6E",
"zX c #F66F6C",
"xX c #B98035",
"cX c #FB8426",
"vX c #F78733",
"bX c #F8923A",
"nX c #ED8529",
"mX c #D68130",
"MX c #D5844F",
"NX c #E48C56",
"BX c #EE8E46",
"VX c #FAA45B",
"CX c #E59062",
"ZX c #F6A56C",
"AX c #F3A776",
"SX c #EBAD76",
"DX c #D99766",
"FX c #AC9987",
"GX c #999897",
"HX c #F3B589",
/* pixels */
"                                                                                                                                ",
"                                                                                                                                ",
"                                                                                                                                ",
"                                                                                                                                ",
"                                                                                                                                ",
"                                                                                                                                ",
"                                                                                                                                ",
"                                                                                                                                ",
"                                                    ..hXhX                                                                      ",
"                                                  o. . .| NXNX                                                                  ",
"                                                : 7 + 7 O.^ | iX                                                                ",
"                                                @ : b &.E.B.> w } sX                                                            ",
"                                                  . % p G m ! aX1X7 |                                                           ",
"                                              *.  g.< * 5 : h 2 =X! X ;                                                         ",
"                                                s.4X3 i.< 1 _ 7X8X4X1X                                                          ",
"                                        v.m O $ +.F I N.V.Z.@.#.t < % t                                                         ",
"                                      uXK [ n.8.>.B.S.#XI %Xt.i.x d.k.<.a                                                       ",
"                              CXjX  Y c yXz.l.C.!./.k.n.#X0.=.5.i.<.6X2Xf.D b n                                                 ",
"                          SXHXNXcX5XrXpXk.n.p.#X|.s.@X%XI.U.M A 2.$.,X&X9Xt.R.j.'                                               ",
"                        2X;X2X2X] ( [ ) n.i.=X:Xg.n.^.`.(.Y.q.q.A.Y.(.D.,Xa.D G *X9XMXpX                                        ",
"                      Q L 3XNXbX9X>.k W E q.yXv.V.J.z.L.N.C.G.E.C.F.).J.e.&.l l.9X0X0XBX                                        ",
"                      NX-X_ W z.I k I <.m.iX(.z.>.W E.r.A.).Y./.fX].H.:.%.B ;.%X] :XMXZXMX                                      ",
"              C.  >XAXZXvXR L $ k F -XM.Y..XXX(.H.w.A.T./.oX.X.XoX{.A A N.D.6.%X0XcXcX9XrXjX                                    ",
"            5.  SXQ hXBX0X) J g , % &.8.Y.E.~./.,._.T./.(.{.XX.X].P.A :.)..XT.a.d 2.sXnXrXvXHX                                  ",
"            8.  l.aX` -X-X2X0X= & [ t.m S.F.D.S.4.].]._.).{.fXXX{.^.6.:.^.}.^.&.=.#.m.sXcXtXbXpX                                ",
"            B.   Xq., ; ;X9XqX  ; >.P.l T.K.b._.8.R.~._.Y././.}.fX.XH.2.M.^.T.*.C.%.,.A.BX9XtXBX2X                              ",
"            N.3 n.<XL 4 @Xj.j.  & $ w.D {.`.T./.m.R././._.A.^.oXzXgX).9.$.Y.q.4.Z.4.u F 9X@X1XjX]                               ",
"            ;XHXHXZXcX0X%X      m s *.@.m.W.C.R.D.5.w.H.^.).K.^..X]./.B.m.M.[.C.A.9.D z.#X5X3XbXjX                              ",
"            zXHXZXZXqX5XR         % y t M *.C.w.W.G.M.*.8.5.M.H.P.G.Y.7.*.M.!.A.5.z i 0.Q.`. XXXzX;X                            ",
"          h.CXHXtXtX4X9X)             C m.A 8.1.I.Q.Y.M.9.M.$.3.w.w.2.n ;.<Xl.8.f *.Z F T.[..XzXzXuX                            ",
"          :XDXrX[ }.E $X              t A.3.n 2 ! Y.A.M.w.A.M.q.H.w.=.q.H.s.8.n c.M ,.W.r.T.].kX .AX                            ",
"          Q hXVXrX9.        ,.$XH a   y V +.&.t 1 2.2.A $.M.).U.^.XXG.Y.$.p.3.2.s n Y.gX~.W.CXdXX.SX                            ",
"          ;X' R =XxX        p.;.M.A m 7.9.m m *.S 8.8.3.Z d S &.+.@.+.y i &.9.a @.XXG.:.^.lXFX0 | ]                             ",
"          4 R 1 U 0X      M F =.p.s.$.m.H.M.F.E.9.8.A.m.+.$ @.&.V m s +.&.*.N 8.'.H.#.N +.+ X.+ { +                             ",
"          = 7X^ Y +XwX  K r.H.C 1.i.q.C.0.Z.Y.A.3.9.A H.5.b m.Y.7.A 7.9.m.7.&.H.).S W.H N . e  .0 q                             ",
"            1 6X^ bX&XuXb.-X&XC.%.&.4.u.u.4.M.3.@.;.m H 9.@.H.H.A.M.q.3.q.T.H.5.).:._.* 3.# - GX7 0                             ",
"              3 P rXB f.mX9X[.Z =.m.C.B.9.6.m.T.2.&.A.+.5.F C.V.5.3.=.3.m.F.H.#.3.W.;.5.y a $ 6 0                               ",
"              ' 1 Q 6X,.E K.H.m.L.W.Q.D.Q.A.S.R.M.y *.9.A.M.Y.H.t. XW.D.M.^.M.5.$.r.N.V s y y ;                                 ",
"              [ e M z.*X%.m.<.J.Q.Q.W.R.Q.Q.C.S.m.s Z A.W.Q.D.~.~.`.E.6.A.~.R.U.0.A.).5.B n y y                                 ",
"              4 0 A M r.*XU.g.^.Q.!.W.Y.W.Q.w.m.m.N %.M.5.W.`.Q.~.XXW.Z.U.'.W.W.8.B.w.l                                         ",
"              + r S b #.0.R.K.).P.Q.W.m.8.D.4.v.3.@.+.6.$.F.9.N.W.W.T.Z.D.(.(.Z.%.6.@.y                                         ",
"              9 0 8.l k.p.S.:.8.Z.8.Z.0.N.m.@.-.3.&.9.8.^ L.B./.Q.Y.N.m.H.T.q.&.a V y y s Z.                                    ",
"              q 6 Y.d.x $XS.m.*.e.@.q.Z.A.w.;.M.f.*.M.9.6.1.H.Q.T./.!.q.Y.R.Y.A F C n y g                                       ",
"              0 X S.` 1.( f.K <.H.Y.~.~.E.K.Z.v.F B 9.A #.k.5.q.M.H.S.A.Z.H.3.*.2.&.B y b                                       ",
"              w @ T 2 =XM K -.0.H.Q.~.W.A.9.<.d.B u V 3.&.i.n *.3.&.&.@.5.=.n C 5.4.g b y   V                                   ",
"              w r ` J E d.% I 4.U.U.Z.m.7.8.T Z y x N b $.8.t &.B 5.2.+.D F *.&.B V t n y                                       ",
"              0 | ` 5.2 j p U f %.*.%.S M.m.3.z G h @.i b 3.4.V @.S 3.9.A.9.m.+.$ y ^                                           ",
"              r X.b.<.A 9.m 1 i.M *.*.B S d.R < i   f s +.n @.@.V u +.+.B B B s V H 2 i                                         ",
"                K T y }.E.t.W 1 s.j.$.c.c.< + :       J 3 x m s B >.+.k s s b $ g :                                             ",
"                v h h.G.$.5.S.$.% > + 1 = p p             = P x.: H T Y % b t                                                   ",
"                L.H.'.9.#.B V k i s C C : 1 7             t t $ t t t t t % y K                                                 ",
"              ~ | 4XC.0.d m e.h X X X +                   & b n *.i y @.f V y 2                                                 ",
"            + 0 } -XU.E.$.Z.,.                            , D g b b # m 5.> #                                                   ",
"            + q 9 r u.y.L.L.a                 $.        a   * y $ t , # n N s h V                                               ",
"              + 6 w ).L.XXD.                            a y   & h t O $ p d D U I U                                             ",
"            o.FX8XoXeXXXwX!                                     * D O O O O , , O & ;                                           ",
"          6 - 0 X.X.<.r.H.&.O                                       o o & < 3 L 3 , &                                           ",
"          1 X.FXmXwXeXXXOXl                                         o & & 2 L ( L 2 < o                                         ",
"          q e | ..| M.S.Y.2.:                                       o & O , < 3 2 , o                                           ",
"          9 w | o.| / A.Z.2.>                                                                                                   ",
"            9 r w 0 9 8 1 -                                                                                                     ",
"                                                                                                                                ",
"                                                                                                                                ",
"                                                                                                                                "
};
