/* XPM */
static char *__death1684324954[] = {
/* columns rows colors chars-per-pixel */
"64 64 176 2 ",
"   c None",
".  c #040403",
"X  c #0A0706",
"o  c #1A1007",
"O  c #1C150C",
"+  c #140F10",
"@  c #121312",
"#  c #1A1615",
"$  c #1B1C10",
"%  c #1A191A",
"&  c #250D06",
"*  c #2B0B04",
"=  c #2B0D09",
"-  c #3D0405",
";  c #330807",
":  c #3B0905",
">  c #340C0B",
",  c #3D0C0C",
"<  c #25170D",
"1  c #211A0C",
"2  c #311007",
"3  c #31100C",
"4  c #281313",
"5  c #251810",
"6  c #211C1B",
"7  c #341310",
"8  c #391110",
"9  c #312115",
"0  c #450303",
"q  c #4C0304",
"w  c #4E0904",
"e  c #420609",
"r  c #4C0609",
"t  c #45090A",
"y  c #4E0C0C",
"u  c #540304",
"i  c #5C0404",
"p  c #550B07",
"a  c #540508",
"s  c #5C0609",
"d  c #540A0B",
"f  c #5C090A",
"g  c #55130D",
"h  c #5A1208",
"j  c #590B10",
"k  c #640405",
"l  c #6C0404",
"z  c #670907",
"x  c #6E0806",
"c  c #630609",
"v  c #680708",
"b  c #630A0B",
"n  c #6C0A0B",
"m  c #740405",
"M  c #7B0404",
"N  c #770E06",
"B  c #7B0906",
"V  c #720708",
"C  c #790709",
"Z  c #730A0A",
"A  c #7B0A0A",
"S  c #641205",
"D  c #671409",
"F  c #6A110D",
"G  c #6D1D09",
"H  c #7C1801",
"J  c #72120A",
"K  c #7E110B",
"L  c #711C09",
"P  c #631212",
"I  c #6C1413",
"U  c #711410",
"Y  c #7C1D1C",
"T  c #4F220F",
"R  c #412210",
"E  c #4C2913",
"W  c #4A351B",
"Q  c #63240C",
"!  c #830404",
"~  c #8C0404",
"^  c #840807",
"/  c #8D0A06",
"(  c #840608",
")  c #8D0709",
"_  c #830C09",
"`  c #8B0B09",
"'  c #930404",
"]  c #9C0505",
"[  c #950906",
"{  c #9C0A06",
"}  c #930608",
"|  c #9C0708",
" . c #930C0A",
".. c #9C0A09",
"X. c #8C1305",
"o. c #891A01",
"O. c #8C130B",
"+. c #931705",
"@. c #9E1706",
"#. c #931B03",
"$. c #9F1B04",
"%. c #941309",
"&. c #9B120A",
"*. c #801A10",
"=. c #831C19",
"-. c #A30505",
";. c #AC0404",
":. c #A50A06",
">. c #AC0A06",
",. c #A60608",
"<. c #A80608",
"1. c #A30C09",
"2. c #AB0B09",
"3. c #B30404",
"4. c #BB0504",
"5. c #B30A06",
"6. c #BC0A06",
"7. c #B70408",
"8. c #B40B09",
"9. c #BB0C09",
"0. c #A11305",
"q. c #AB1204",
"w. c #A5140A",
"e. c #B41009",
"r. c #BC140A",
"t. c #852503",
"y. c #8E2404",
"u. c #902404",
"i. c #9D2407",
"p. c #922B06",
"a. c #9D2B04",
"s. c #962108",
"d. c #992208",
"f. c #89350F",
"g. c #943204",
"h. c #9B3503",
"j. c #9E3D03",
"k. c #963008",
"l. c #802A1C",
"z. c #952D1B",
"x. c #AC2904",
"c. c #B52205",
"v. c #A23603",
"b. c #A43B02",
"n. c #A93E03",
"m. c #C40404",
"M. c #CB0404",
"N. c #C40906",
"B. c #CC0906",
"V. c #CD0508",
"C. c #C40C09",
"Z. c #CB0D09",
"A. c #D40504",
"S. c #DB0404",
"D. c #D30A06",
"F. c #DC0A06",
"G. c #D10708",
"H. c #D30B08",
"J. c #DA0A08",
"K. c #C4110A",
"L. c #DE1308",
"P. c #E30404",
"I. c #EC0404",
"U. c #E40905",
"Y. c #EB0A06",
"T. c #E20D09",
"R. c #E90B09",
"E. c #F30403",
"W. c #FC0403",
"Q. c #F20905",
"!. c #FE0903",
"~. c #FD0709",
"^. c #E6120B",
"/. c #F9130C",
"(. c #9D4410",
"). c #AD4002",
/* pixels */
"                                                                                                                                ",
"                                                                                                                                ",
"                                                                                                                                ",
"                                                                                                                                ",
"                                                                                                                                ",
"                                                                                                                                ",
"                                                                                                                                ",
"                                                                                                                                ",
"                                                      + % @ . . .                                                               ",
"                                                  -.~ ~ ~ D 4.-.k X                                                             ",
"                                              l ;.3.~ ! u.! >.m.5.~                                                             ",
"                                w ;.3.l   t l / 3.( y.3.m.A.A.N.3.3.! c r                                                       ",
"                                { { C l 3.0.-.;.>.C.A.S.B.m.m.N.B.P.I.m.-.i                                                     ",
"                              ;.-.h.;.4.M.K.D.P.P.S.A.I.A.3.[ { ;.M.m.7.;.k   0 r q                                             ",
"                          q q s o.] 3.@.8.P.W.W.E.H.S.P.S.A.4.>.6.M.m.B t H c 3.4.} l                                           ",
"                        ! ! l 0 M -.} g.A.W.W.Y.U.I.D.M.M.A.S.S.A.A.m.! -.{ h.:.>.;.{ C d v.                                    ",
"                       .;.( q u M ~ ] m.A.E.W.S.7.M.M.M.P.Q.!.W.U.I.N.] s 1.A ' x c  .4.;.k ).                                  ",
"                    0 -.~ k v J s A ,.G.P.A.{ ' m.S.D.S.H.D.I.I.H.F.F.S.S.] / 3.m.} m i.A.N.~ L                                 ",
"                      u l X.g.P / 3.>.S.P.6.! 5.J.H.6.:.m.F.P.E.Y.S.m.M.U.P.m.{ S.G.-.v >.B. .0                                 ",
"                    h s #.a.h.N.6.M.<.B.P.H.2.I.W.S.,.S.P.W.!.!.W.E.G.5.N.Y.W.8.N.P.A.M ~ 3.] q                                 ",
"                  h., ] w.i.6.B.6.N.;.G.B.S.m.P.I.7...r.Y.!.!.!.W.S.;.` >.W.!.S.A.F.S.1.x ~ ! q                                 ",
"                  R ' 4.| 0.m.R.A.B.A.M.Z.P.1.m.m.>.M.F.D.E.Q.W.E.I.>.{ >.4.P.I.A.4.5.A.a.N ( a                                 ",
"                  c ;.' l } M.F.7.P.I.Y.E.G.` | ;.P.W.!.Y.I.!.W.W.E.Z.M.4.5.A.F.P.m.[ r.I.;.4.! 0                               ",
"                  ! 2.s k ~ m.M.5.6.B.I.R.T.8.} 3.D.Y.W.Y.Y.!.!.E.W.W.Y.A.2.A.m.B.m.7.C.P.>.4.{ q 0                             ",
"                0 B *.t c s.m.m.7.n _ 8.I.I.G.:.N.5.M.B.A.E.W.W.W.W.W.E.P.N.I.4.V.P.>.1.A.;.4.{ q 0 0                           ",
"                0 B :.s M 3.>.m.N.l s :.I.R.8.3.B.C.` ] 4.A.W.W.W.W.Q.P.M.Y.W.B.S.U.;.Z ;.C ;.X.0 k 0                           ",
"                : l ;.m ] :.;.{ 7.B ^ _ F.P.;.1.B.I.N.N.7.6.P.U.E.W.I.A.E.!.W.B.Y.P.| e V ! ' V r k 3                           ",
"              m T q M m ~ ~ 7.~ ] 3.7.A 7.| [ m.9.R.~.~.E.G.I.S.m.U.!.W.W.!.!.S.E.S.| b l ' u m ' M D                           ",
"              9 >.2 l u z ~ M.C l ` 4.] ! l n 8.B.W.!.!.R.S.E.S.7.9.I.W.Y.!.W.P.I.A.) B C ^ z i ;.M G n.                        ",
"              W T Q m u u ~ m.] q s ;.4.^ s ) 7.M.G.R.!.W.T.E.F.2.P.~.U.M.P.S.B.M.B.` m.~ ;.] 0 -.l Q n.                        ",
"              W (.b.' c q M 3.] a r ] 7.] / >.7.1.` C.E.~.~.~.W.Q.Y.W.M.;.:.[ ,.6.Z.D.A.-.m.{ 0 -.a v.                          ",
"                (.h.! ~ c i M ~ C w m ' ' -.m.M.3.-.,.4.A.P.E.S.B.B.G.A -. .s Z >.A.S.>.7.6.#.s ~ O k.                          ",
"              f.n.t.u ! ~ k 0 ' A.7.A C u ' 4.N.M.V.6.A.N.7.M.U.P.P.] ,.] ] :.^ ' ~ _ ] B.%.E ] -.S                             ",
"            h.h.b 0 l m k u q d 7.Z.6.3.b m  .8.S.A.A.I.I.U.U.I.I.K.A.M.{ -.-.i k M ] ;.p.d ' A.]                               ",
"            v.l ' :.M.4.' x n  .;.Z.E.Z.3.| ;.B.S.I.I.C.7.m.^.~.W.Q.Z._ s } -.x ( -.;.[ i M -.| e                               ",
"            w ~ 7.B.;.3.m.m.3.-.>.G.B.S.>. .3.6.B.E.E.G.<.>.H.U.T.S.M.M.7.7.<.[ m.S.Z r ' M M > b                               ",
"          s M 4.c.).l m.,.' ] M.F.m.4.7.e.-.;.{ | N.J.J.m./ M.I.E.W.W.W.Y.A.7.' ] S.^.3.-.m s i                                 ",
"      3.    -.x.c./ ;.7.3.8.5.:.A.A.N.{ N.r.>./ A 3.M.I.V.4.>.m.M.P.I.S.N.5.4.[ ! 1.H.P.C ] B k                                 ",
"    ' P t.z.b M.{ ~ P.M.U.Z.;.-.5.N.M.N.4.4.M.7.6.7.7.6.M.m.A.6.;.4.M.A.I.P.M.M.] 6.3.m.' n ~ 3.m s B                           ",
"    p.n.p.M i 7.' >.e.m.Q.K.M.M.9.Z.S.P.P.>.7.M.F.E.A.M.M.P.A.m.[ 4.S.S.m.4.A.A.-.>.m.{ ! m i ^ ,.  } P                         ",
"      g.c m d :.~ 4.-.N.E.D.D.>.6.A.M.F.E.m.' ' | B.M.B.m.6.>.3.m.S.6.M.D.F.M.m.;.M ~ ' 3.3.! k ;.i c (                         ",
"      k { b -.m.3.~ ' M.D.D.B.M.I.Y.D.6.I.Y.4.6.6.;.m.M.M.8.7.B -.4.-.A.S.T.P.A.6.3.~ B B.M.] q k 0 0 q 0                       ",
"      i s ! 3.S.;.] ] ;.S.B.B.A.Y.I.P.S.!.E.m.4.M.A.A.S.S.S.| v -.3.&.8.U.Y.U.P.A.M.5.n 8.M.2.d i M 0 0                         ",
"      n ;.{ m.P.1.3.M.' B.B.8.G.S.D.A.I.E.S.m.>./ ] ;.m.B.S.>.l -.3.6.M.P.S.H.S.A.I.1.n n M.m.m ! ' i                           ",
"        ;.3.M.E.I.3.P.A.V.C.1.V.B.B.2.3.;.%.s.] V k n { 7.>.>.m ;.P.6.m.I.P.E.S.>.A.;.:.C 3.V.A k ~ q                           ",
"      u ] -.B.Y E.I.M.S.U.N.;...7.;.m V -.1.7.] ] ] m ` ;.b ~ ] 3.P.m.m.4.A.S.M.3.m.<.8.q.,.M.N 0 Z                             ",
"          M 4.4.K q.-.! 1.7.8.6.;. .;.] ^ -.m.S.2.v u C ! d B ' C } M.9.>.1.4.5.4.w.3.-.l ;.3.i u i                             ",
"          m ] B.6.B.0.c k ~ A m.H.A.6.,.;.` ` ,.~ l l v C B ] ;.] ! 4.N.3.;.4.M.>.-.B Z ' -.~ M v   i                           ",
"        m ] 4.m.U.D.>.N N 6.D.w.4.4.i.5.P.9.5.m.l k ' ! k i +.4.M.;.[ M.M.6.D.Z.>.-.;.' ^ 3.4.' l                               ",
"          ~ 4.0.M.I.B.1...q.E.E.F.5.A.L.Y.Q.B.` l k ~ -.N x } 1.B.M.>.,.m.M.B.A.N.B.M.-.>.m.~ m                                 ",
"          - ! X.a.>.6.-.u.,.3.A.S.I.I.P.S.m.^ i q q k -.-.f k ^ -.7.8.M.M.-.~ ~ ;.m.m.@.{ ! q r                                 ",
"          m 0 0 0 q 0 k k m m ! ` b c ' u M m m k 0 0 i ;.5._ i l M ,.M.M.;.~ 4.M.w.' q u u q                                   ",
"          4.v q 0 0 i M 0 0 x x C :.` ] 0 u k ^ ' 0   0 v ;.' l k l e ~ -.~ ! ' X.u q u w                                       ",
"            d 4 q 0 0 0 q l k 0     q 0   s ! ;.! q     0 0 i 0 q M ! s r 0 l M q 0 0 0                                         ",
"            # @ # > ! 0 0 0 0 q           u w r q           0 0 0 q ' ;.4.-.' k - 0 q                                           ",
"            M 3.P./.Q.;.n k                               a x j 0 0 i m m l m 0 0 0 r                                           ",
"          ; a I | S.A.M.;.M 1                           , d z d ' N o o > - q b p a 0 *             Z                           ",
"          : I ' ;.M.B.3.] k                           7 g $ g w 0 i o o ; - p b b d - = r                                       ",
"          > z I } A.F.P.} u 5                               1 1 1 1   * 0 0 w a w : - &                                         ",
"          > d c Y M.A.M.4.C <       n                                                                                           ",
"            8 d I Y =.^ y 6                                                                                                     ",
"                                                                                                                                ",
"                                                                                                                                ",
"                                                                                                                                "
};
