/* XPM */
static char *__death1684324954[] = {
/* columns rows colors chars-per-pixel */
"64 64 118 2 ",
"   c None",
".  c #1B0F07",
"X  c #1D0F08",
"o  c #13140C",
"O  c #1E190C",
"+  c #2C0A01",
"@  c #3C0507",
"#  c #340905",
"$  c #340D0B",
"%  c #261008",
"&  c #2B140C",
"*  c #21180B",
"=  c #29180F",
"-  c #221B1B",
";  c #361111",
":  c #450203",
">  c #4B0304",
",  c #430904",
"<  c #440609",
"1  c #4C0609",
"2  c #450909",
"3  c #4C0A0C",
"4  c #530304",
"5  c #5C0304",
"6  c #540B07",
"7  c #5C0804",
"8  c #540609",
"9  c #5B0609",
"0  c #54090A",
"q  c #5C0A0B",
"w  c #59100F",
"e  c #630404",
"r  c #6B0404",
"t  c #630907",
"y  c #6C0907",
"u  c #630609",
"i  c #6B0609",
"p  c #640A0A",
"a  c #6B0A0A",
"s  c #740404",
"d  c #7B0404",
"f  c #740906",
"g  c #7C0806",
"h  c #720708",
"j  c #7D0708",
"k  c #730A0A",
"l  c #7C0A09",
"z  c #63100F",
"x  c #7A110E",
"c  c #620F10",
"v  c #6D1312",
"b  c #701311",
"n  c #7D1313",
"m  c #7E1D1B",
"M  c #7A201C",
"N  c #840404",
"B  c #8B0404",
"V  c #840906",
"C  c #8C0806",
"Z  c #830608",
"A  c #8C0508",
"S  c #840B0A",
"D  c #8B0B09",
"F  c #930404",
"G  c #9B0504",
"H  c #940906",
"J  c #9B0906",
"K  c #930708",
"L  c #9D0608",
"P  c #940A09",
"I  c #9B0B09",
"U  c #89100D",
"Y  c #96100E",
"T  c #9A160D",
"R  c #811511",
"E  c #821A16",
"W  c #841E19",
"Q  c #A30504",
"!  c #AB0504",
"~  c #A40A06",
"^  c #AC0906",
"/  c #A10708",
"(  c #A30B09",
")  c #AC0C09",
"_  c #B40404",
"`  c #BC0404",
"'  c #B30906",
"]  c #BB0A06",
"[  c #BE0708",
"{  c #B40C09",
"}  c #BB0C09",
"|  c #A5120B",
" . c #A9120C",
".. c #B3110A",
"X. c #84211F",
"o. c #C30404",
"O. c #CB0504",
"+. c #C30A06",
"@. c #CB0A06",
"#. c #C50B08",
"$. c #CC0A08",
"%. c #D30404",
"&. c #DB0403",
"*. c #D40905",
"=. c #DB0A06",
"-. c #DA0E09",
";. c #CD110A",
":. c #E40504",
">. c #ED0404",
",. c #E40906",
"<. c #EC0905",
"1. c #E30D08",
"2. c #ED0B09",
"3. c #F30403",
"4. c #FB0404",
"5. c #F30905",
"6. c #FB0804",
"7. c #FC0508",
/* pixels */
"                                                                                                                                ",
"                                                                                                                                ",
"                                                                                                                                ",
"                                                                                                                                ",
"                                                                                                                                ",
"                                                  d Q ! ) ` A s N 5                                                             ",
"                                  >           e F _ _ _ ` ! ! ! _ ` s                                                           ",
"                      >   : : : >   8 s _ O.O.O._ ` #.%.#.} %.&.o.o.^ d r e d 9                                                 ",
"                        1 e r > 4 0 K $.4.5.:.o.! @.&.+.O.` %.*.O.O.%.o.S 7 s G e :                                             ",
"                    4 s Q N r r J o.=.>.3.:._ O.! o.o.Q A B ' ` ] %.&.&._ d s N 7 : : : : :                                     ",
"                    F ! F s   F ` ` =.,.@.! ! { ^ ^ ! ` ` ^ d s l V ` ] ` d r J B J A 9   >   >                                 ",
"                  N P B r 5 e B s / :.$.Q _ o.:.>.=.;.&.:.:.! O.] ! Q ! _ ! N ! l d C Q y e 2                                   ",
"                e N s e 5 5 s > 4 G &.O.@.>.5.&.o.*.3.4.4.4.3.=.o.&.&.=.` ! Q ` ] _ Y _ H H ^ O.d                               ",
"                > 5 4 5 e 5 d r 6 V ! _ 3.<.#.S / 3.4.6.4.4.4.4.>.4.<.>.&.` F Q ) #.%.o.L B C &.} :   :                         ",
"                : > 4 s s 5 g B r s ! } @.%.' %.>.5.3.3.>.4.5.>.>.3.-.} ! %.) o.' { %.&.#.o./ D o.>                             ",
"            :   s e s F B 3 F k 5 g O.L ^ ^ %.<.4.6.4.4.>.:.:.,.,.<.:.#.L F G G ! _ ' %.$.*.+.z l r :                           ",
"            > k N h F ! B F [ u N L _ Z j J %.,.4.4.4.*.O.@.O.} O.$.o.$.@._ S 8 a Q ' _ @.-.@.N k S : :                         ",
"          : 2 S l B ( G ! o.o.P ] F D S G J o.<.>.:.+.V h F ( D ' O.%.o.S ` #.` N D o.} o.&.:.O.^ F d   :                       ",
"          : r B h B _ _ O.&.[ =.:.L L F Z _ $.*.&.O.) a d G &.=.%.{ o.[ k D o.&. .N ( +.) o.=.:.) ] ` s :                       ",
"          : B N N Q o.&.>.:.&.5.%.! ` ` F { &.2.4.%.! G Q +.3.3.:.O.' I P S G $.O.A B } ! ! ' &.%.! ` N > :                     ",
"          e F A V ( O.%.>.:.4.>.&.G %.#.` $.6.4.3.^ Q ! o.&.%.&.o.[ ! K Q Q k J ` ( J @.V _ q ^ ,./ q r >                       ",
"          t G G Q ( @.$.,.4.4.3.$.! @.&.,.3.5.4.*.^ ] &.*.] ! Q P B k d Z / Z i _ ( _ ! a G 1 f *.! 9 e > :                     ",
"        > 6 F _ L ! _ { 2.4.6.>.o.( O.:.4.4.6.<.%.O.&.>.[ A ~ Q / G ` A j ~ _ h ! ` o._ N 5 e 0 ` Q F Q 8                       ",
"          > A Q L ! ' D :.7.6.*.O.#.$.:.5.4.4.>.%.o.@.@.` ~ J Q K ! o._ L ^ K Q ( _ @.o.` Q 5 r N i e ` r : :                   ",
"            d F J J ` S %.7.4.[ %.#.%.=.3.6.4.,.%.^ O.%.' ' O.` Q _ ! J Q K F G ` L %.%.O.^ 1 s r d 5 ` r :                     ",
"          > 1 0 r s Q Q @.4.7.*._ H ~ o.:.4.>.=.O.` O.O._ ` %._ ! ` ! ` ` I K F G ) *.%.-.Y 5 5 r F > ! r : e                   ",
"              e G s L L o.<.3.*.#.7 f ! @.>.2.%.o.} I ^ / ^ *.{ Q ! ` [ I x F / _ ] &.&.:.F d e V r > s e   r                   ",
"              d J d r g D o.*.o.Q q r N o.:.:.%.O.o.^ k g S / ) ` P ) _ { I &.$.:.:.%.%.Q F ^ r F 4 > N > > : >                 ",
"              d Q N d h F / _ o.` d 9 k Q S ~ ( #.%.@.( F l N S L F G +.%.7.>.:.4.1.&.} ~ G _ B d > 4 B 1 4 :                   ",
"            5   d Q B s V G ] ! ~ B 8 e s F h p J &.%.%.! B N F Q G %.<.4.:.%.7.6.:.@.` Q Q _ ! _ > s d e 8 >                   ",
"          N d e 4 B N r g J / ! B K 9 1 9 S a 5 h ! _ O._ d s F A j ` _ ] o.=.7.4.*.O.` L o.o._ ` r B N s d 5                   ",
"        e V 5   > 4 G N s G H N F L Z r 3 u d s r K / ! _ J j / o.[ K +.3.2.:.4.:._ { o.! o.` o.%.8 s s N F 7                   ",
"        r e : > 7 d > d F A k e e r d F Q Q ~ N a V Z G _ ` ) ! ` %.` ] -.4.5.=.#.| Q o.O.O.%.=.&.> r B N G                     ",
"      t e 5 N Q d r r 4 5 r d h : s 7 l ! ! _ ! Q Q _ ^ Q B ( ' o.o.` %.&.&.[ ' ` :.&.%.o.%.%.@.o.5 N B B F                     ",
"        : N ` G e q ! ! d r r F r 8 s p F _ #.@.&.#.` o.o.o.` { o.o.O.&.:.o._ ! o.%.{ ~ %.&.&.` F e Q F B 7 e                   ",
"        d Q G y e e ! o.o.A B ! a 8 F l f A Q ` #.o.o._ _ ` +.o.&.' L o.( ` _ l G Q d ! :.%.` B > C F s r   N                   ",
"    < 5 ^ H F h r F ! L _ &.&.N H p l _ P 8 1 r a G G k u a s u h G F r l K 9 r d e S ` ` B 0 : 4 B s : > t e                   ",
"    e 5 ! N Q G Q o.@.| %.` o.^ B N f Q ) ~ l r > 1 7 B F G u 5 r N _ :.{ B N F V d G ` J s s d e 4 > : :                       ",
"  e 4 > h C ` Q ^ >.3.&.Q A B B F N N 9 N F A N d 9 4 N Q _ ^ ' O.O.%.:.+.G ! ` ` _ _ ! s e s Q F 4 : p > 4 5 5                 ",
"  >   > 6 s r d J *.` Q B ! Q G G G A d e d N p 8 d N f ! %.4.6.4.4.3.>.%.` ` o._ Q N r > : 4 N Q N > 4 e :   t                 ",
"  5 > > 8 4 r N { ! ` D G G k ! ! G N G 8 q Z ~ S p B h B { 4.6.4.<.=.3.%.o.H V ! k e d 8 4 < e B G N 4 d 8   t                 ",
"  1 d N s d a r ! o.&.@.I s N a 7 a D A S ! %.) 8 s r h F _ %.&.@.) o.Q N 0 1 V g d r Q j 5 s q F Q Q > r d   7                 ",
"4 > N B e F H I _ Q :.] J h a Z G h F ` ^ o.:.&.G 1 t a r h D ! g F _ G F N a F F d F _ Q r N N y B B > 5 r >                   ",
"> e B N a F F ^ H ` &.Q k V N N _ e P O.)  .&.:.O.Z s g G Q L B < e r F G k 3 l Q V G o.! h e s e s N 4 5 4 5                   ",
"7 r N N N d 7 5 P o.) H V B F L F Z #.+.! ' ` { %.Q l r y N e r r s Q Q V g k { #.) [ [ I s u Q G 5 7 r B 4 4                   ",
"> r d N r r 8 S Q +.o.Q H V H G B ` %.` / %.D j _ F u : : > > 4 s Q ^ k d l G ` ' ! L ^ o.K ! Q _ N r h G 5                     ",
"  : 9 N y q r G F ^ / k F G A N ! ! N h _ @./ G N e N N N V N s N d F N N B H G G G ` +.J ` d Q Q k i N G e                     ",
"5 : : N d D N / Q ` g d k / ( A F G ! h / Q u 9 d e F _ _ B g ~ F N B d h V @.` _ ` O.o.Z h j K ) a G B F 4 5                   ",
"5 > : 5 1 B ' ^ Q ' ! A N G ! ~ ` _ Q N F B t 9 5 s B F F r ' _ _ ! G J G A ! ! A Q _ F 8 r u V ! l Q A d > 1                   ",
"5 4 : 4 N e r G _ o._ Q C y f ! _ B e < r 5 N r F : : : : : l G ~ _ _ G G F e a V F s u N N 7 F G _ G N >                       ",
"  e 4 > d s : e B B F F B q 5 N B d 4 , 8 K G e B : : > N 4 : d g H Q X.5 > e 7 u r A K ! g l V B ! N 4 > e                     ",
"    d : > G G e : : r 5 8 N d A s 4 < 5 G %.Q F e : : : r , > > 4 e r R R ^ G ' ' _ _ ! J 9 5 4 s > > 5 r                       ",
"      4 : r r r e 5 7 d 4 e B Q s h B B O.&.Q N 4 : : > 5 N > e : 4 5 g m ~ ~ ' T / _ ! N : : > : :   7                         ",
"          : 5 r B B 5 1 t 1 4 r e F F G ! Q 5 : 4 r 4 : > r s d r e 5 6 w P W E n ` ^ ` > : :     > >                           ",
"            : > 5 5 e : : > 4 F ! ! _ F r 5 > : 5 e e 5 : : : 5 e e 4 e d F ! G J ` S V : 4                                     ",
"            5 > : : > 1 > : : > 5 5 4 : : : : : : : : : : : r 8 4 9 5 5 e e 5 : : : > > e h                                     ",
"          # 8 r d d N r r s e 5 > : : : : : : 5 5 :     2 6 t w F r > : : : 4 p t < : $ 1                                       ",
"          # v F ! o.] G ~ H @           : e r >   <   $ 6 o 6 , 4 r X . # < 5 v c 5 @ # <               G                       ",
"          $ u b C %.&.,.:.l =                               O O O *   + > > 6 t 7 , < %                                         ",
"          $ 3 p M @.*.%.o.r =       a                                                                                           ",
"            ; 0 v m W V 3 -                                                                                                     ",
"                                                                                                                                ",
"                                                                                                                                ",
"                                                                                                                                "
};
