/* XPM */
static char *__death1684324954[] = {
/* columns rows colors chars-per-pixel */
"64 64 106 2 ",
"   c None",
".  c #1B120A",
"X  c #260F0D",
"o  c #2D0C0A",
"O  c #3E0505",
"+  c #320805",
"@  c #3A0906",
"#  c #3A0708",
"$  c #370B08",
"%  c #3E0F0A",
"&  c #26130F",
"*  c #2B120F",
"=  c #2A180D",
"-  c #371509",
";  c #3D130D",
":  c #351E0B",
">  c #221312",
",  c #291714",
"<  c #331311",
"1  c #292112",
"2  c #450203",
"3  c #4B0203",
"4  c #450609",
"5  c #4C0609",
"6  c #440A0B",
"7  c #4C0C0B",
"8  c #530303",
"9  c #5C0303",
"0  c #530907",
"q  c #540608",
"w  c #5B0608",
"e  c #540A0C",
"r  c #5A0A0A",
"t  c #4C180F",
"y  c #5B100E",
"u  c #4A0E10",
"i  c #630303",
"p  c #6B0303",
"a  c #660805",
"s  c #6C0806",
"d  c #650608",
"f  c #6A070A",
"g  c #64090A",
"h  c #6B0B0A",
"j  c #730403",
"k  c #7B0303",
"l  c #750807",
"z  c #7E0906",
"x  c #740509",
"c  c #780508",
"v  c #730A09",
"b  c #7B0C09",
"n  c #64120E",
"m  c #71100D",
"M  c #771A0F",
"N  c #641314",
"B  c #691A18",
"V  c #791211",
"C  c #711912",
"Z  c #7C1916",
"A  c #7D1B1A",
"S  c #7F221F",
"D  c #830403",
"F  c #8B0403",
"G  c #840906",
"H  c #8C0906",
"J  c #830B09",
"K  c #8E0B0B",
"L  c #940403",
"P  c #9B0403",
"I  c #920906",
"U  c #9D0905",
"Y  c #960908",
"T  c #980A08",
"R  c #891612",
"E  c #801C17",
"W  c #851D1B",
"Q  c #891F1B",
"!  c #991512",
"~  c #901917",
"^  c #A40403",
"/  c #AB0403",
"(  c #A40906",
")  c #AB0A05",
"_  c #AF0E0C",
"`  c #B40403",
"'  c #BC0403",
"]  c #B10A05",
"[  c #A31610",
"{  c #BA1818",
"}  c #8A2422",
"|  c #8C2A27",
" . c #8C2E28",
".. c #952C21",
"X. c #942E2C",
"o. c #9A2F2E",
"O. c #95352F",
"+. c #9A3334",
"@. c #A33E3C",
"#. c #C20403",
"$. c #CB0304",
"%. c #CB0806",
"&. c #D40303",
"*. c #DA0303",
"=. c #D40D06",
"-. c #E10301",
/* pixels */
"                                                                                                                                ",
"                                                                                                                                ",
"                                    6 8     4 j D a p 8 2 2 4                                                                   ",
"                                  2 3   4 i 9 3   d D D D j e p 2       2   2 2                                                 ",
"                                      2 2     2 3 p s D / / D 5 i 2 2 2         2                                               ",
"                                2 2 2 2 2   2     2 2 8 D F H D 9 2 2 2 2 2 2     3 p 2                                         ",
"                          2 4 3 8 i p p 8 5 i j p k k j 2 3 p k j p 9 O       3 2     i                                         ",
"                      3 p b j D P / P F p D k j 8 9 l F D i 5 p F D z F k 2 3 2 2   2 3 8   2                                   ",
"                2 2 2 3 i d p U ( / ` L k j k f 9 2 i 9 9 5 8 4 2 2 i p j 9 2 3 2   2   2 2                                     ",
"              3 l l i 2 2 d 9 G L D L Y ^ / / ^ L v D c i i i w 9 3 2 2 8 w 8 2 2 2 2 2 2 p i p q 4                             ",
"            3 w r 2 z 8 3 8 5 j 9 c P ( $.$.$.] ^ ^ U P ^ ` / L D G D p q 8 k i 2 9 i 3 2 8 j i q 8 2                           ",
"            3 8 2 8 j 8 2   3 5 8 D L Y $.$.$.$.&.' ) ' $.#.^ F F / ` ` F D F D 9 2 9 j 2 2 8 2 2   2 2                         ",
"            2 2 2 P k q 9 3   9 f F v Y ' $.*.*.*.*.&.$.#.( j p x f k P T / L H D 9 4 3 3 k G D 8 3   2 2                       ",
"            2   3 j 9 9 3 3 3 j L L K / ) ` $.*.*.%.#.' ` ^ k j w 9 8 8 p k f L D 5 8 9 2 8 D L P k 5   4                       ",
"            3 3 3 9 0 8 8 9 9 D P J P / J z / ' ' ( P F D k c c D p p 8 2 f c F D 8 2 w 2 2 9 F P ^ G 2 2 2                     ",
"              8 8 3 8 8 k D i k D F ^ ^ v x K / ( D D D f w 2 8 j j c z 8 3 5 D k q 2 i j 2 2 j L ^ P 9 2 2                     ",
"          8 8 8 5   9 p L F i p d G P k 9 s P P D F ( U F q d i 9 2 8 k k i w p k i 3 8 k 2 2 2 D P P 9 3 2                     ",
"        8 9 8 8 3 8 k D D k i 5 9 G j i 2 c L P G ^ H 5 5 8 9 9 i 9 2 2 g F F G 2 8 3 3 j 2 2   3 k z 8 2 2 3                   ",
"      9 8 L i 3 2 p F P L D w w p D j 9 d k D L ^ L D k j f c j 2 2 2 2 2 9 j F e 2 2 2 5   3 2 3 k k i 8 2   2                 ",
"      j q i i 9 5 J P ' ' F p d k D j i D k k k k 9 9 d 8 F / L 3 3 2 2 2 2 2 k j 2 2 2 2 3 3   8 9 k D 9 4   2 2               ",
"      8 9   k k j k / ' ' L D p D z j c L s p j 8 2   2 3 9 k 2 2 2 2   2     5 9 2 3 2 2 2     8 3 9 L k 8   2 4               ",
"        8   d P D k ` ' ` F D j L F f D D f 2 9 3       2 2 2 2 2   2         3 2 9 9 2 2 2       8 9 L D p 2   2               ",
"          8 p F j j ' #./ v p p L P D k F F i 8 8         2 2           2       8 j k 3 3   5 8   8 8 i j D 2   2               ",
"      8 8 3 i k p p ] ' ^ D p p L ( Y ^ / L k c z       2 2 2           2       5 k k 3 p 8 j 5   2 p 3 q D 2   2               ",
"  8 8 8   8 8 i p 9 L ` L F j p L / / / ) U c k L       2 D 8           2 5     j D k 5 k s j k 3 9 F 9 8 p 2 2                 ",
"      8 5 2 8 3 9 8 j F D k 9 j D U / ' / ^ F D Y 2   2 2 F G 9 4         2   9 k D p i D e G ^ D j P 9 8 8 3 2 3               ",
"      8 s 8   2   3 9 D D p 8 9 D F ^ ' ' / L D P 2     2 D F k 2             p D D p k D p ^ ` ^ D P 9 8   2     4             ",
"        s k 3 r     8 k L k p 8 k D D P / / ^ D P 2 2   2 2 2 2       2     2 z G j p j p L ^ ' ` P k 5 2 2 2     4             ",
"        9 i 8 k 2   9 9 p i 9 8 9 z L P F D D D P 9 3     3                 8 k D p p d L ^ P / P F j j 5 2 3 2                 ",
"      8   2 8 9 4 8 k i 9 j 8 2 4 9 D F k i 9 q D F 8       2 2 2           3 k k i 2 i ^ / F j k v 6 j j 2 2 2   2             ",
"        8 4 2 8 4 8 k p 8 j 9 2   # 2 8 5 2 2 4 9 D p 3       2 2           3 k 8 8 9 x ^ U f 4 j D 2 i F 2   4 3               ",
"        3 2 2   3 6 F k 9 q 9 2       2 2       5 8 8 p 9 3 9 2 2 2       3 3 8 9 f L ( ] L 8 4 i z 8 w F 9 2   2   2           ",
"          3   2 2 3 F P L 9 2 3 2       2 2   8 9 8 3   i 9 9 k i 2 2 2 2 i k ^ #.=.-.] ' Y 9 3 k / F 8 i 3 2   2 2             ",
"    2     2 2 3 3 4 D L L j 3   2 p q 2 p v 3 2 9 j 2       9 F F k 8 8 j / ` #.-.%.*.Y I F 5 f F / L 9 2 3 3 3 3 2             ",
"            2 3 8 8 F F F k 8     8 9 9 9 g i 8 6 i 8       3 9 p v F P P U G F P #.` k i 9 j H P / F 3 2   2 i 9 2             ",
"      3 8 3   3 D D L F F i 8 2 2 3 8 p p F F L F w 3       2 3 5 w p i p p p L P D ^ k i p F D U ^ p 2 2   2 j i i 2           ",
"  2 8 i 8 2 3 D D k F D D D j i 9 9 9 2 j F L F F j 8 3   9 j D D D i 2 8 8 8 3 3 3 3 8 k D k j F k 8 3     9 D p 9 2           ",
"    2 2 2 2 9 k i z D j k k j 9 9 8 5 3 9 F F D j p j k p i 8 3 8 8 i j j 9 2 2 2 2 2 8 c v i F F j 2     3 j D p 3 4           ",
"      O 2 9 F D i F p e i j i 9 9   3 3 2 2 9 3 3 8 i k k G j k D F D k i 9 3 2 p i 2 9 9 q F ^ D 8 2   3 3 9 i 2 2             ",
"2     2 2 G D d j z 8 8 8 9 9 8 8   2   2 2 2 2 2 2 2 3 8 i D D F F p 9 9 9 9 2 2 8 8 8 L T ` P k 2   2   2     2   2           ",
"2 2     2 j 3 8 D F 9 8 9 8 i 8     2 2 2 2 2 2 2 2 2 3 i p i j p i 9 9 i p 9 3 8 3 4 k L U k w 8 2 3 3   4       2             ",
"4   2   2 4 8 D P P 8 2 2 2             8 P P j 9 2 2 2 3 8 p i 9 p p j j k j p 9 2 8 p i 2 2 2 2 3 3 k 9 2                     ",
"2   2 2 2 3 s F L k 2 4       4     2 2 2 2 i i 3 8 8 3 9 9 D F F D D F L F F p 8 3 i 8 2 2 4   2 8 8 D j 3   2                 ",
"2 2 2 2 8 i p j p 2 2     4 2 2 2 2 2 5 2 2 3 3 2 3 2 8 9 9 F L P P / ` ` / L 8 8 k q 3 2 2       3 k j i 3   2 2               ",
"2 2 9 D 9 p i 8 2 2               2 2 2   3 8 j q 3 4 5 3 8 p k F ^ / ^ ] P p 8 j D k 3 2 3   2 2 p p 9 2       2 4             ",
"2 3 D k 9 q j 9 2             2 2 2 2 p 8   8 k k k p i i p p 9 i j j p i 8 8 9 k 9 8 2 8 8 4 3 3 j 8 9 2     2 2 2             ",
"  3 p 8 5 8 k 9 2           2 2 3 2 3 D p j D L H k 9 9 9 p 9 3 2 3 2 2 8 8 i 8 2 8 d p k i 3 3 i j 9 5 2   2   2 3             ",
"2 2 i 8 i 2 p 9 8       2   2 2 2 2 3 p j F F ^ L k 8 3 3 2 2 2 3 9 3 8 8 3 2 2 2 8 9 5 F 9 3 j L p p 3   2 o   2 4             ",
"4 2 8 3 j 8 3 i 9 2 2 2     q d 2 3 3 8 k F F F D j p 8 2 2 2     2 2 2 2 2 2 2 2 2 8 P G r k D k r 2       *   2               ",
"  2 2 3 r k 3 8 2 2 3 c / ] L k 2 3 2 3 j D D k j p j 8 3 2   2           2 2 2 3 p P ^ k d a 9 k 3 2   2   p   4               ",
"    2   2 a 8 3 9 p j / / J P 9 2 2 2 3 j j j 8 3 3 i j 3 2 p e 9 p q 3 2 2 2 5 p L P D 3 3 3 9 D 8 2 3 2 8 i     2             ",
"2 2 p 3     2 3 p Z k g v j k D 9 p i k p 8 5 3 2 2 8 8 2 & v D ` $.&.H 6 8 p s k D D j 2 2 3 9 p 2   9 j j 3   2               ",
"    9 8 5 i 3 n G L ~ D 9 j j 9 i 9 8 8 3 2 8 2 2 2 2 3 2 3 9 9 D ' !  . .E F k j j k j 8 3 2 3 2   9 p j a   2                 ",
"        8 9 5 y j F W s p j q 9 2 3 2 3 5 j p 3 2 2 2 3 3 2 2 3 r / e p m V Q Q W L D i 2 2       8 p i 9                       ",
"    4 2   2 2 2 8 r } d k p 5 p d 8   8 j k q 2 2   2   2 9 3 2 2 j 6 3 a a [ K +.` G p 2   8 2     > 5 3         4             ",
"    2   2 2 2 2 5 r Z 9 8 9 9 i 2 8 8 i k j   2 2   2 2 2 2 0 i i 3 5 8 9 i D s p i 3 8 3 9 9       2 O   2 4                   ",
"      4   3 r V { @.D b F p $ 2 t 8 8 9 3           2     i s j j i 8 8 8 8 3 C g 8 3 2 j 3   2 2                               ",
"          2 2 O E O.Y m D c 9 2 2 3 8 2 2           2 n ` 1 B r p k + 2 2 3 3 h n 8 8 6 i 8 9   g                               ",
"          3 g N | o.R _ -.( 6 2 2 2 2       3     2 2 & , - - : : = . @ 8 8 N M M d 8 o 5 2 2 0 r 3     h                       ",
"          3 8 r Z X.W } &.F ;                 3 2     3 8 d w 9 9 9 7 8 9 9 9 9 9 8 9 a G D h i       u K                       ",
"          2 q 7 A X.} } G %     9 e k g                     5 2 2 2 9 9 9 9 8 3 4 3 3 6         k   ..g                         ",
"                                                                                                                                ",
"                                                                                                                                ",
"                                                                                                                                "
};
