/* XPM */
static char *__death1684324954[] = {
/* columns rows colors chars-per-pixel */
"64 64 93 2 ",
"   c None",
".  c #1F1409",
"X  c #3F0605",
"o  c #3D0905",
"O  c #3B0E09",
"+  c #2D160D",
"@  c #251A0D",
"#  c #381209",
"$  c #460304",
"%  c #4B0303",
"&  c #440B07",
"*  c #4A0A06",
"=  c #430808",
"-  c #4B0A08",
";  c #530303",
":  c #5B0303",
">  c #560708",
",  c #590709",
"<  c #570A09",
"1  c #5B0B0A",
"2  c #630303",
"3  c #6B0403",
"4  c #650806",
"5  c #6D0806",
"6  c #6C0609",
"7  c #630B0A",
"8  c #6B0B0B",
"9  c #740403",
"0  c #7B0403",
"q  c #770907",
"w  c #7F0807",
"e  c #720909",
"r  c #7D0D0B",
"t  c #66110F",
"y  c #6B1409",
"u  c #761E0B",
"i  c #6F0F10",
"p  c #661010",
"a  c #6B1313",
"s  c #721312",
"d  c #791511",
"f  c #781818",
"g  c #502C12",
"h  c #463117",
"j  c #7D231F",
"k  c #830503",
"l  c #8B0504",
"z  c #870807",
"x  c #840A09",
"c  c #8E0C08",
"v  c #900706",
"b  c #990504",
"n  c #950806",
"m  c #9B0E0C",
"M  c #8E1305",
"N  c #8C110F",
"B  c #811311",
"V  c #831E1D",
"C  c #931513",
"Z  c #941E18",
"A  c #A20504",
"S  c #AA0705",
"D  c #A30807",
"F  c #A60B0A",
"G  c #AC0E09",
"H  c #B60403",
"J  c #BC0704",
"K  c #BC0904",
"L  c #B70F0B",
"P  c #B3120F",
"I  c #A11210",
"U  c #A41815",
"Y  c #87211F",
"T  c #A32E08",
"R  c #832221",
"E  c #8B2422",
"W  c #992925",
"Q  c #942F2A",
"!  c #96322B",
"~  c #A02220",
"^  c #A3312D",
"/  c #CA0A06",
"(  c #C20E0B",
")  c #D70905",
"_  c #D50A08",
"`  c #C41506",
"'  c #CD110B",
"]  c #EA0503",
"[  c #EB0B06",
"{  c #E01612",
"}  c #D9251E",
"|  c #EB2321",
" . c #F82A26",
/* pixels */
"                                                                                                                                ",
"                                                                                                                                ",
"                                                    % : $                                                                       ",
"                          $                       ; : 3 9 ; % $   % $ $                                                         ",
"                                $ $ $             % % : 2 3 ; %                 $                                               ",
"                          ; ; ; %                 % ; %   ; 2 : ; $                                                             ",
"                        $ 2 3 3 2 2 : ; : ; % $ $ : : %   ; % ; : : ;         $ $     $ $                                       ",
"                        ; 9 0 0 2 : : : 2 9 9 9 2 , % ; ; : : $ % 2 2 : 2 , ;   $ $       $                                     ",
"              %         ; 3 2 : : : 3 9 k 0 9 9 3 9 2 : : % %     ; : 2 9 9 3 %               $                                 ",
"              %           % % $ % ; 2 0 9 9 3 9 0 k 9 2 : ; $ $ : ; 3 0 w w 9 %                                                 ",
"                  %       $ $ $ $ % 2 2 3 3 3 0 k 0 9 : ; $ = % 3 2 2 : 2 3 0 2 : %   $ $                                       ",
"                % ;   $   % ; $ $ ; 3 9 9 2 3 0 9 2 ; $       % $ $ $ $   % 2 0 3 ; $   $ $   $ $ ; ; $                         ",
"                $ $       ; 2 % $ 2 0 0 6 : : : ; % % ; $             $ $ $ $ , % $ $ $     = $ $ 3 3 2 ;                       ",
"                $ %       % % $ % 3 3 2 ; ; % % ; ; ; %     $ $         $ $ $ $ $     $ $       $ ; 2 3 :   $                   ",
"                % ; ;     $ % $ ; 2 : % % ; ; : 2 % %                     $   $ $ $     -           ; : 2 : $                   ",
"                ; : %     $ $ ; 3 : ;   ; ; 2 2 % $                             $                   ; , 2 >                     ",
"              ; 2 2 % $ $   $ ; ; %       ; ; % $     $       $             $   $ $                 $ 2 2 ;                     ",
"            ; : 3 : 2 ; %   $ % $ % ;   ; ; % $ $           $ =                                   % ; : ; ; $                   ",
"            ; 3 3 9 9 2 $       % ;     %   $ $ $       $ $ $ -                                   $ ; ; ; ; %                   ",
"            : 9 0 0 0 3 %     % % %   $ $ $ $                                                       % : ; % $ $                 ",
"            > 3 k 9 9 : $ $ ; ; 2 > $ $   $                                             =           $ ; ; $ $                   ",
"$     $ $   , 9 0 0 : % % ; ; : 3 ; $     $                                             $ $         $ $ $ $ $     $             ",
"      $ $   ; 2 2 2 % % ; 3 2 : : % $ $ - $                                               = $         $   $                     ",
"      $   $ ; ; % % % : 2 9 9 2 : $ $ $   $                                               $         $     $                     ",
"        $   ; : $   % : 3 9 9 9 : $ $                                                               $ $     $                   ",
"  $         % ; $   % : 3 9 9 9 2 ; $ $                                                     =   $     $                         ",
"$ $           % $ $ ; : 9 9 9 0 6 > $ $     $                                             *     =     $ $                       ",
"              $ $ $ ; 3 9 9 9 9 9 2 $                                                 $ $ $ $ $ $ $   ; $                       ",
"              $ $ $ % 2 9 9 9 q 9 3 $                                               $ $ $ $   % ; % ; 3 ;                       ",
"  =             $ $ % : 3 9 9 : ; : $                                               - $ $ $ ; 3 , : 2 3 ;                       ",
"                $ $ % ; : 2 2 $ $ $ $   $                                           $ $   % 3 3 ; ; 2 , %                       ",
"          % = $ $ $   % ; ; ; $   $     $ =                                               ; 9 3 % ; : :                         ",
"          X : ; $ $     %   $   $                                                       , : : : % ; : ; $                       ",
"        $ % : ; $ $               $   -     $ $                                       ; : ; ; 3 :   : %                         ",
"    $ : : : 2 ; $                                                                       % : 9 2 % : 2 ; $       : %             ",
"  $ % : : 2 2 ; $                                                                       % 9 9 ; % 3 9 : $     % : %             ",
"    % : 2 3 2 : $                           $                                   % : : % ; 9 9 2 : 9 9 ; $ $     $               ",
"      % 2 2 2 ;     %                 $ %                                   % ; 9 9 2 ; ; 9 2 ; 2 0 6 $ $ $ = $                 ",
"  $   % : : : ; $ $         - $       % :                               $ % ; ; : % ; % ; : % : 3 9 ; $               $         ",
"    : % : : > $ $   $                   % %               = * $ $ $             % % $ % %   ; 2 3 3 % $                         ",
"    ; ; : ; %                                               $ $ $ $                 % ; % % 2 3 3 3 2 $                         ",
"    % : : % %                         $                                       $     % $ $ ; : : 3 0 3 ;     $                   ",
"$   % % % $       $                                                           $ $   $ $ % % % : 9 0 2 ;                         ",
"$ $ $ $ $       $                                         $ $           $ $ ; %   % $     % ; 3 9 2 ;                           ",
"$ $ $                                                       $   $ $   $ ; ; 2 ; ; % % $ $ % ; : ; %     $                       ",
"$ $ $                                           $           $ $ $ $ $ ; 2 3 3 2 ; ; % % $ % % % %     $ $                       ",
"  $     $     $                           $     $ $ $ $       $ $ % : 3 3 3 ; ; ; :         %   $   %                           ",
"        $     $                       $ $ $ $     % :               % ; ; ; % % ; %     $ % % % $ % % $ $                       ",
"        $ $             ] ' ` q     $ $ $ $ % % % % % %         $     $ $ $           $ % ; % % ; % % $ $                       ",
"$                   D / / [ L 6         $ $ % 2 : : % ; %                   % %       ; ; % % ; : ; % $                         ",
"$ $               0 D D x D )         $   % ; 2 3 3 : : ;                           % 2 ; ; % % ; ; $ X   $ $                   ",
"* $ $       = u M c C z 8 z v J         $ % ; 3 3 3 2 % %   _  .} | | r       $ % % ; : 2 2 % % $     $ $ $                     ",
"  = $     & g T K I C x q b l k       $ $ % ; : 2 ; % $ & y G L { ' ~ W E f   8     ; : 9 : ; % $   $ $                         ",
"            h j n Z c c D e b r         $ $ ; % % $       @ y k S S s a a E ! ! ^ x ; 2 2 % ; %         $ $                     ",
"            + O < j s q e 0 0 e     $ $   $ % $ $         . O > 3 2 $ > 8 P U r V w 7 3 % % ; $       % $                       ",
"            1 1 p B x 0 e : : - $ $ $           $       % = ; > > % % ; ; 1 : , 2 : - % % $ %           $                       ",
"          $ > > i s 0 e 9 > = $ $ $ $                     ; ; 4 : > $ $ % % ; 2 4 ; = = %                                       ",
"            > < 8 i 9 e 0 : $ $ $ %                   & o # * - > = X $ $ % ; : 2 , $ > % ,   d 7 6                             ",
"        A % , p R E C m H 0 % ; 2 9 0 k   l     %   w < 1 * & & & O & $ $ % ; 4 , % = - 3 q q 5 5 k 0                           ",
"    5 z l ; ; 1 V Q E Y F 9 % ; ; ; 2 l A k ;           9 z 0 k k 0 9 9 0 0 0 w 0 0 3 3 5 k q                                   ",
"        q ; $ - a R f a ; = ; ; ; 5 6 9           3               1   9 9 e           3 k k         s p                         ",
"                                                                                                                                ",
"                                                                                                                                ",
"                                                                                                                                "
};
