/* XPM */
static char *__death1684324954[] = {
/* columns rows colors chars-per-pixel */
"64 64 118 2 ",
"   c None",
".  c #1D150E",
"X  c #3E0503",
"o  c #340803",
"O  c #3A0906",
"+  c #330B09",
"@  c #3F0A0A",
"#  c #24140E",
"$  c #34120C",
"%  c #3D0D10",
"&  c #460304",
"*  c #4B0303",
"=  c #440806",
"-  c #4F0B07",
";  c #450508",
":  c #440A09",
">  c #4D0B0B",
",  c #530303",
"<  c #5A0302",
"1  c #540807",
"2  c #590A06",
"3  c #520709",
"4  c #5E060A",
"5  c #560D0B",
"6  c #5C0B0B",
"7  c #551E0E",
"8  c #5A1F0D",
"9  c #4D0F10",
"0  c #500D10",
"q  c #461611",
"w  c #640302",
"e  c #6B0203",
"r  c #640907",
"t  c #6C0905",
"y  c #6E0609",
"u  c #640B0A",
"i  c #6C0B0B",
"p  c #740403",
"a  c #7B0303",
"s  c #790906",
"d  c #7F0709",
"f  c #720C0A",
"g  c #6A100C",
"h  c #7C100E",
"j  c #620F11",
"k  c #6C1413",
"l  c #741312",
"z  c #7A1313",
"x  c #7A1B1C",
"c  c #4F2410",
"v  c #413018",
"b  c #49331C",
"n  c #772114",
"m  c #820504",
"M  c #8B0503",
"N  c #830906",
"B  c #8B0905",
"V  c #830C0B",
"C  c #8F0E0A",
"Z  c #950402",
"A  c #9A0601",
"S  c #950905",
"D  c #990A05",
"F  c #93090A",
"G  c #9B0C0A",
"H  c #8D100F",
"J  c #9C110D",
"K  c #801616",
"L  c #8A1111",
"P  c #851D1E",
"I  c #9A1310",
"U  c #A30604",
"Y  c #AE0401",
"T  c #B60302",
"R  c #BC0603",
"E  c #AF160E",
"W  c #8A2406",
"Q  c #892A05",
"!  c #8B2217",
"~  c #AB3507",
"^  c #A72A10",
"/  c #B1281D",
"(  c #842321",
")  c #8A2223",
"_  c #932926",
"`  c #922C29",
"'  c #992E2C",
"]  c #99312F",
"[  c #9C3332",
"{  c #943B36",
"}  c #A13735",
"|  c #A63D3D",
" . c #C50101",
".. c #CB0302",
"X. c #C10903",
"o. c #C70308",
"O. c #C00A0A",
"+. c #D50502",
"@. c #DA0B05",
"#. c #C0120C",
"$. c #CF120B",
"%. c #D11008",
"&. c #E10504",
"*. c #EA0403",
"=. c #E30608",
"-. c #F70405",
";. c #F90503",
":. c #F10D07",
">. c #FC1A13",
",. c #F42E27",
"<. c #F13F37",
"1. c #83420E",
"2. c #9D473C",
"3. c #B04734",
"4. c #C44636",
"5. c #9F4341",
"6. c #A24945",
"7. c #B0574F",
/* pixels */
"                                                                                                                                ",
"                                                                                                                                ",
"                            &                       - <                                                                         ",
"                            &                                                                                                   ",
"                                                                    &                 &                                         ",
"                          <           *           &         &       &   * * & &                                                 ",
"                    & &   , * * &       =       &         &   & ; ;     * * < , *                                               ",
"                        * , *         < < *                             * & * - * &                                             ",
"              &           *       * * * * & & * ,                   & & & & = *                                                 ",
"                      &   &     , w < * * , < w e =     = =                       & &                                           ",
"                        &   &   * * < * & & * w ,                           ;                                                   ",
"                            ,     w w ,   * * &                           & ;                         & * &     &               ",
"                            *     w < * &                                                               * <                     ",
"                  &             * < &                                                                     *                     ",
"            * ;             & &   &       ; *                                                                                   ",
"            &               &             ; ;                                                                 ;                 ",
"          = <     &           ;           &                                                                                     ",
"          , , = &         &           =                                                             &   *                       ",
"          , < , &             ;                                                                           ,     &               ",
"          * , &         ;                                                                                 ,     = *             ",
"            *                                                                                                                   ",
"                    &     ; & &                                                                                                 ",
"    &           &       *   & &                                                                                                 ",
"        ; &     &     & &         &                                                                                             ",
"        & &     &   & * * &                                                                                                     ",
";         &           , < &                                                                                                     ",
"                  &   * < * &                                                                               &                   ",
"                & < , , , *   &                                                                                                 ",
"                * < < , , ,                                                                                   ;                 ",
"&               & < * * * * &                                                                             &                     ",
"              & & 1 , &   &   &                                                                   &                             ",
"                * * , &     &                                                                   = &             &               ",
"          * * &       = &                                                                       &     &         &               ",
"    *   * , & &         ;                                                                             * &                       ",
"    , * < ,                                                                                           &     *                   ",
"  * , < < &     =                                                                                   * &     , *                 ",
"      , ,                                                                                           < & & & , &                 ",
"      * , &                                                                                         & *     ,       &           ",
"&   * & &                                                                                                 & *                   ",
"& , , & *   *                   &                                                         , & &           , &                   ",
"  * , * &                         &                                                     * * &     &     & ;                     ",
"  * * *                                                                                       & *     & & &                     ",
"                                                                                              & * & & * *                       ",
"                                                                                              * &   & * & * *                   ",
"  =                                                                                                       < ,                   ",
"=                                                                 & &                                   * , &                   ",
"*                                                             &             * & &   & *     &           =                       ",
"  =                                                                       * , < * * * &             &                           ",
"                        *.$.^ u                                     & & & * , * & & &   &         ; &   &       &               ",
"                    F ;.;.:.;.4             &                               * < *     &           &   &   &                     ",
"                    X.#.T G @.            & &       & &                     * & &                   = * &                       ",
"              Q Q G 4.&.j ..X. .              & & & &                                       & , < *                             ",
"            b ~ &.+./ f y T G a                   < , * & *               x K V       & & & * * & * & &                         ",
"> *         v 1.V J 3.z T V y N                 * < w * & * E ,.<.X.` ' ( ) [ 7.2.J             & , *         *                 ",
"            . # 4 { 5.C V +.4 m       &   & & & , w , * X 8 %.%.*.O.P l l =.>.i 6.o.V         * & *         &                   ",
"            , > > u L *.+.+.u 7             & & * * & *   $ c z o.d , , w 1 w , > - & =   & *   &                               ",
"          & : , U x m g s u $     *           & *       i G k ! A q & & * & * z k 3 ; O       0   *         >                   ",
"          + ; * j } p G ..t :   =           ; M > @ h n 6 R F i r a X ; & & , l k 6 & # , 4 e i h u a                           ",
"        Y * - 5 l ] < r e w 4 u p m V N Z N m M B a a N 5 > , < : o ; , 1 5 i l i 3 : O y i i t u M Z Z 6                       ",
"    M Z f * , 2 l 6.} P H Z * - 1 p M M U Y D S B u M B B B B Z Z B p m Z A A Z A M p m s m M p 6 e e 9 V                       ",
"    p m f * * < i [ [ _ u & * e e N S N p e             w e e e p r t i a i p p a p w w           6 l j                         ",
"                                                                                                                                ",
"                                                                                                                                ",
"                                                                                                                                "
};
