/* XPM */
static char *__death1684324954[] = {
/* columns rows colors chars-per-pixel */
"64 64 138 2 ",
"   c None",
".  c #240E07",
"X  c #390705",
"o  c #320807",
"O  c #3A0807",
"+  c #3E050A",
"@  c #3D0F0D",
"#  c #23110C",
"$  c #211A0B",
"%  c #2E1913",
"&  c #2F2A14",
"*  c #322517",
"=  c #362918",
"-  c #440304",
";  c #4B0303",
":  c #4E0806",
">  c #4B0509",
",  c #40080A",
"<  c #4D0B0B",
"1  c #540304",
"2  c #5C0304",
"3  c #540906",
"4  c #5D0D07",
"5  c #53070A",
"6  c #5D0709",
"7  c #550B0C",
"8  c #5C0B0B",
"9  c #551408",
"0  c #5A170D",
"q  c #5F0E12",
"w  c #4A1511",
"e  c #5F1F16",
"r  c #630403",
"t  c #6B0403",
"y  c #6F0B07",
"u  c #640508",
"i  c #6E0609",
"p  c #630B0B",
"a  c #6C0D0D",
"s  c #740303",
"d  c #7C0404",
"f  c #760906",
"g  c #7C0805",
"h  c #730709",
"j  c #730B0A",
"k  c #7A0A0A",
"l  c #6B110E",
"z  c #601B0A",
"x  c #6C0F11",
"c  c #6B1312",
"v  c #6C1F18",
"b  c #741313",
"n  c #791512",
"m  c #751817",
"M  c #791C1A",
"N  c #4A2A12",
"B  c #523615",
"V  c #69250F",
"C  c #7B2224",
"Z  c #764437",
"A  c #830303",
"S  c #8B0404",
"D  c #850906",
"F  c #810F0D",
"G  c #890C0B",
"H  c #920504",
"J  c #9C0502",
"K  c #930806",
"L  c #9C0806",
"P  c #910E0E",
"I  c #990A0B",
"U  c #85100D",
"Y  c #8C110F",
"T  c #9D150E",
"R  c #891411",
"E  c #831D1E",
"W  c #9A1411",
"Q  c #A40403",
"!  c #AB0504",
"~  c #AB0A05",
"^  c #A70C0A",
"/  c #AC0D0A",
"(  c #B20403",
")  c #BD0301",
"_  c #B70A0A",
"`  c #BA0E0A",
"'  c #A3130E",
"]  c #B0160F",
"[  c #BD110B",
"{  c #A51D17",
"}  c #B21515",
"|  c #BB1412",
" . c #B21D19",
".. c #953603",
"X. c #92251F",
"o. c #A7200E",
"O. c #872520",
"+. c #892524",
"@. c #8A2B2A",
"#. c #932D2C",
"$. c #9B302C",
"%. c #9E3938",
"&. c #A13534",
"*. c #A83D36",
"=. c #A63B3B",
"-. c #C40202",
";. c #CF0503",
":. c #C40A05",
">. c #CB0E07",
",. c #C70409",
"<. c #C90E0D",
"1. c #D70401",
"2. c #DE0704",
"3. c #D10A05",
"4. c #DA0907",
"5. c #DA0B08",
"6. c #C2130B",
"7. c #D4150E",
"8. c #E20504",
"9. c #E80A06",
"0. c #F10504",
"q. c #FA0404",
"w. c #F7080E",
"e. c #FB0A0C",
"r. c #FB1B16",
"t. c #D2382F",
"y. c #DF3A32",
"u. c #924413",
"i. c #A1413C",
"p. c #B54A3A",
"a. c #BF4A3E",
"s. c #AC4944",
"d. c #B04A4B",
"f. c #C94E47",
"g. c #E14A42",
"h. c #F5534A",
"j. c #D26157",
"k. c #CC8082",
/* pixels */
"                                                                                                                                ",
"                                                                                                                                ",
"                                                                                                                                ",
"                                                                                                                                ",
"                                                                                                                                ",
"                                                                                                                                ",
"                                                                                                                                ",
"                                                                                                                                ",
"                                                                                                                                ",
"                                                                                                                                ",
"                                                                                                                                ",
"                                                                                                                                ",
"                                                                                                                                ",
"                                                                                                                                ",
"                                                                                                                                ",
"                                                                                                                                ",
"                                                                                                                                ",
"                                                                                                                                ",
"                                                                                                                                ",
"                                                                                                                                ",
"                                                                                                                                ",
"                                                                                                                                ",
"                                                                                                                                ",
"                                                                                                                                ",
"                                                                                                                                ",
"                                                                                                                                ",
"                                                                                                                                ",
"                                                                                                                                ",
"                                                                                                                                ",
"                                                                                                                                ",
"                                                                                                                                ",
"                                                                                                                                ",
"                                                                                                                                ",
"                                                                                                                                ",
"                                                                                                                                ",
"                                                                                                                                ",
"                                                                                                                                ",
"                                                                                                                                ",
"                                                                                                                                ",
"                                                                                                                                ",
"                                                                                                                                ",
"                                                                                                                                ",
"                                                                                                                                ",
"                                                                                                                                ",
"                                                                                                                                ",
"                                                                                                                                ",
"                                                                                                                                ",
"                              r                                                                                                 ",
"                      Q 8.9.{ S u                                                                                               ",
"                    D 8.e.7.q.h                                                                                                 ",
"                    ( 0.2.G 6.R                                                                                                 ",
"              V ..^ f.0.x ( 1.) J                                                                                               ",
"            = u.:.0.y._ 7 L P G f                                     #.  m E U L                                               ",
"            * B ! _ a.{ Q G 6 L z                           T w.h.| +.$.+.E &.i.d.W p.                                          ",
"            $ $ : j k.b ^ -.u D                           N >.5.4.8.E b q ,.r.I *.<.n 3.                                        ",
"              e Z t.g.q.q.9.8 0                           @ & L _ L 1 2 2 2 2 3 < : 3 r                                         ",
"          - 1 3 -.s.} ` R :.% 9                         5 O.M F ^ w - - ; ; ; b m 8 ; .                                         ",
"            - 4 C j. .' } :.r                   6 - k v d r p L 1 t O - - - 1 c a p + # 1 r t y +.s s s ^                       ",
"        d 1 3 7 m %.@.' ` 3.i t s g D S A g f g H S D ) l 7 5 ; ; O - ; 3 3 8 j b 3 , o u f j t r S I I S <                     ",
"  r S S S r 1 1 a %.=.M M -.> ; : h J Q Q ! J J J Q ! ( ( ! ! Q J L D S J J J J J H f d k A D g p t K d H                       ",
"    t d a 2 - 1 r #.&.#.a 1 ; t h S J h s 3 t r s d j A S S A d d t s g A j j A A s t r S           p c   7                     ",
"                                                                                                                                ",
"                                                                                                                                ",
"                                                                                                                                "
};
