/* XPM */
static char *__damaged1684324885[] = {
/* columns rows colors chars-per-pixel */
"64 64 237 2 ",
"   c None",
".  c #040203",
"X  c #0D0D0C",
"o  c #080605",
"O  c #1A0F0A",
"+  c #171107",
"@  c #1A1206",
"#  c #16110A",
"$  c #1C140A",
"%  c #1F180C",
"&  c #1D1805",
"*  c #141413",
"=  c #1B1513",
"-  c #1E1912",
";  c #1D1C1B",
":  c #181817",
">  c #3D0C09",
",  c #22150C",
"<  c #221A0C",
"1  c #291E0D",
"2  c #2C120C",
"3  c #311B0E",
"4  c #37130D",
"5  c #241B12",
"6  c #2B1D13",
"7  c #221D1B",
"8  c #241610",
"9  c #3A1A16",
"0  c #1A2013",
"q  c #2A220D",
"w  c #33250E",
"e  c #2C2312",
"r  c #262219",
"t  c #322514",
"y  c #342A14",
"u  c #3C2B14",
"i  c #3C2C1B",
"p  c #37251A",
"a  c #3C321A",
"s  c #242322",
"d  c #2A2322",
"f  c #2C2C2B",
"g  c #292827",
"h  c #3F3527",
"j  c #343333",
"k  c #3B3B3B",
"l  c #393637",
"z  c #332D2D",
"x  c #450D09",
"c  c #4A0A06",
"v  c #530B08",
"b  c #46120D",
"n  c #56130D",
"m  c #4B1210",
"M  c #630B0A",
"N  c #690906",
"B  c #760B07",
"V  c #6D110C",
"C  c #6D1313",
"Z  c #432D15",
"A  c #432E1A",
"S  c #4A2A18",
"D  c #44331B",
"F  c #4C351B",
"G  c #4D391D",
"H  c #443015",
"J  c #533C1D",
"K  c #57391C",
"L  c #5D2A15",
"P  c #78300D",
"I  c #4C3523",
"U  c #4B3523",
"Y  c #543A22",
"T  c #583B24",
"R  c #493F3B",
"E  c #613E25",
"W  c #5D411C",
"Q  c #62421F",
"!  c #774314",
"~  c #5D4123",
"^  c #564224",
"/  c #43403E",
"(  c #644324",
")  c #6B4524",
"_  c #6A4827",
"`  c #734B2A",
"'  c #7B4C2C",
"]  c #744724",
"[  c #7B522D",
"{  c #7E5233",
"}  c #3F4042",
"|  c #454443",
" . c #494745",
".. c #4C4C4B",
"X. c #494B46",
"o. c #535353",
"O. c #5C5B5B",
"+. c #585755",
"@. c #534F50",
"#. c #765F58",
"$. c #68625E",
"%. c #5C6661",
"&. c #656463",
"*. c #6B6A68",
"=. c #7A7876",
"-. c #73716E",
";. c #890B06",
":. c #870A07",
">. c #9C0A06",
",. c #8A110B",
"<. c #B80905",
"1. c #B00D07",
"2. c #97380E",
"3. c #B03E0F",
"4. c #C50A06",
"5. c #D40603",
"6. c #CF1309",
"7. c #E40706",
"8. c #EB1815",
"9. c #DB221A",
"0. c #EB322A",
"q. c #965115",
"w. c #814E2D",
"e. c #86552B",
"r. c #845533",
"t. c #845A34",
"y. c #8B5A33",
"u. c #8E5A39",
"i. c #955E34",
"p. c #945D3A",
"a. c #985B36",
"s. c #8D532C",
"d. c #A65937",
"f. c #956135",
"g. c #9C643B",
"h. c #9A6236",
"j. c #93662B",
"k. c #A2643B",
"l. c #A5693D",
"z. c #AB6B3D",
"x. c #A66836",
"c. c #B06D35",
"v. c #B25A14",
"b. c #C25D1F",
"n. c #D5783F",
"m. c #B85540",
"M. c #9C624B",
"N. c #AB6C43",
"B. c #A46941",
"V. c #B47243",
"C. c #BA7444",
"Z. c #BC7649",
"A. c #BD794A",
"S. c #B57747",
"D. c #B0704C",
"F. c #857B7C",
"G. c #84796C",
"H. c #C47B4C",
"J. c #C67949",
"K. c #C87D51",
"L. c #DA7159",
"P. c #C57D66",
"I. c #E6736D",
"U. c #F26958",
"Y. c #BC892D",
"T. c #D09531",
"R. c #BF804E",
"E. c #83827E",
"W. c #CA834E",
"Q. c #CD8253",
"!. c #C78254",
"~. c #D38555",
"^. c #D68B5A",
"/. c #DA8D5C",
"(. c #D78856",
"). c #DD915E",
"_. c #D7935F",
"`. c #CD914E",
"'. c #E2995C",
"]. c #E59154",
"[. c #D7BA40",
"{. c #D98E61",
"}. c #DE9262",
"|. c #D19C69",
" X c #E39462",
".X c #E59866",
"XX c #E59A69",
"oX c #EB9C6B",
"OX c #E99866",
"+X c #F19E70",
"@X c #F2A26B",
"#X c #EDA475",
"$X c #F3A473",
"%X c #F5A874",
"&X c #F7AA7B",
"*X c #F8B27B",
"=X c #E7A36A",
"-X c #DAA370",
";X c #DBCA4C",
":X c #807E82",
">X c #7E8080",
",X c #848383",
"<X c #8A8989",
"1X c #918F8F",
"2X c #959392",
"3X c #9C9C9C",
"4X c #93908F",
"5X c #A29A98",
"6X c #ADACAC",
"7X c #A6A5A3",
"8X c #B8B8B7",
"9X c #B5AEAC",
"0X c #DE9084",
"qX c #F9AE80",
"wX c #FBB78C",
"eX c #F8B587",
"rX c #FBBB93",
"tX c #F8BB95",
"yX c #EFA8A0",
"uX c #F9C29A",
"iX c #FBCDAA",
"pX c #F6BEC5",
"aX c #BEC4C1",
"sX c #CCCBCB",
"dX c #C6C5C4",
"fX c #D1CFCC",
"gX c #D2D0CB",
"hX c #DCDBDA",
"jX c #D7D5D4",
"kX c #F3D2D2",
"lX c #E1E1DE",
"zX c #F3DCE4",
"xX c #DEE1E1",
"cX c #E5E4E4",
"vX c #ECEBEA",
"bX c #EAE8E6",
"nX c #D6E4D4",
/* pixels */
"                                                                                                                                ",
"                                                                                                                                ",
"                                                                                                                                ",
"                                                A.~..X/.H./.J.                                                                  ",
"                                        |  .@...(.tX&X&X&X$X%XXXS.                                                              ",
"                                      d f X.&.f  .OXuX%XOX%.G.k k s j                                                           ",
"                                      V 4X=.&.o.O.2Xo.X.R 8.K.a.^ { D f         &.                                              ",
"                                      5.g d R / z *.; * ` oX|.-XM.H.F o.F.    l k                                               ",
"                                      : 7 w H q @ < # E u.H.8.xXd.P.7 j ,.0Xf .                                                 ",
"                                        X o X K % q e ( V.p.x L 7 7 O . X = . .                                                 ",
"                                      C.y 1 i.l.D ] A ` C.c.B B         . . .                                                   ",
"                        .X!.k.    f.~. XF 5 oXy.` #X` (.J.|.0.D.M.w.                                                            ",
"                  K.oXqXwX XN.g.Q.eX).A.k.l.$XN.wXH.G u i x.(.s.B.B.y.        K.^.                                              ",
"                Z.r.( D ' p.N.` T y.).%X~.A.A.C.Q.OXJ.Z u p ( A p Z.XXA.g.y.N.qXuX&X/.C.                                        ",
"                ~ I J u.!.~.).g.V.i Z.^.}.A.A.H.A.J.}.u.r.&XeX#XXX(.J.Z.z.r.XX&X}./.XX}.                                        ",
"                I I V.N.z._ 5 1 ( l.C.J._./.~.(.}.K.H.K.V.XXXX.X{.}.K.D.y.(  X&XwXwXoX{./.                                      ",
"        5.5.J.rXrX~.e e 5 % < % < D r.h.'.$X%XoXoXoX!.Q.S.XX#X^.H.H.Q.~.OXg.y.}.` Y N.^.C.B.K.                                  ",
"      <.  V.` K.}.~.{ A 1 % % < < S < 1 1 1 w D _ f.y.K.~.p.H.H.N.[ ` E D $ $ % 5 A p.p..XtXuXV.                                ",
"    7.    %X6 U ` l.` Y I 5 < % e ^ !.W.e 8 @ O $ 8 i oXc.P q < 1 < < $ @ $ @ % = p.H.~. X.X%X).C.                              ",
"    6.  dXd Z , 5 e S.H. Xt   < q 5 < D _ ` G T k.@XOXb.1.<.D r B N < e , <   6 % N.tXtXw.' g.g.V.`                             ",
"    7.  hX,Xe 1 1 T f.t.J     u t e < {  X#XW._ u [ ` x , , x < 5.9.> :.8       , Z k.J.Y ) U d gXbXfX7XjXhXxX                  ",
"    <.S h #.i e ~ ^ 1 e       [ 5 A t =Xh.i 1 K z.[ < 6 , c % x S 5.0.2 ,         1 < i F 6 o.6X5X2X6XcX8.8.:XcX<X              ",
"    a.J.L.wXu.N..X<           q < < f.h.y q < u r < q q.3.6.q.> < V 9.6 Z <.        e 5 % L.kXzXlXjX7Xs F.I.yXpXzXbXbXhX7X      ",
"    ~.iXoX$XtXqXp A           < < e - % % % < < % % % q u P e.D t ;.7.C V             i 8 j 3XdXlXX.| 4XsXjXhX:XX.6Xs l |       ",
"    K.kXoX&XiXoXI               < < % % % < % < < N N $ < u D y e >.7.m n C             G ; k =.6Xs / sXbXvXvXvX9Xl s f j dX    ",
"  r gXuX$XwX].E V.                , & % < % N , 3 ;.5.$ % % % < % 6     M                 '.- e %.; * ; k @.1XaXO.; *.f @.g     ",
"  E.#.wX$XoXr.z.                  < < M m 4.4 N 5.;.4., 8 >.B 8 < 5                       x.F - d | * X $ : 5 y ; ; j X * 7 *.  ",
"  d s.@X@X_.i {                   8 1 v : b 6 v v >.>.N M 8 B ;.5 :.<                       t - ; g s : X X : r r ; o : : ; s 6X",
"  D }.iX;X2Xr                   Z , 1 c B 3 v <.< ;.B :.N O $ 4.1 N 5                           * ; y * * * * ; ; : - X X ; ;  .",
"  g.oX{ - O.                  S < % < x m ,.2 < < n > v , 2 O >.1 x n                             - y e * * X ; < e q - : ; ; s ",
"  r.*XU F                   5 x.< , 8 c , :., , 1 4 b $ V 2.- B < q.                                  u q : :     q q u ; ;     ",
"y.8 6 eXW.                  u.J.A z.I ' ' p K F e.n.p a ! ,.w ! j.>.A 4.                                              A e       ",
"5 =X5 _.y c.              r }.J.C./.T ( y.y.h.x.s.2.<.0.L.N ;.v >.0.>.P                                                         ",
"D % t.< S.[.            5X-..X+XoX X@Xk.1 e q e q y <.V ;.2 @ 4 S B v Y                                                         ",
"  < x.              N.#XwX*XqXrXtXuXoX(.x.4 & & < < , % $ @ @ O , ( - a f.                                                      ",
"  < r Y.            ~.wX$XZ.qXrXT.].$X(.).' v < q 1 $ $ O O O c v ! - Q h.                                                      ",
"                g.{ K.&X~.Z.&Xd.6 n T.N.h w.6 < < % + % < c c ;.<.F $ 4.W D                                                     ",
"                }.t T #X.XXXW.4.x M (.V.W i <   & + < t u y P q.j., c 6.) )                                                     ",
"                N.= {.}.oXXXQ.3.4.x.J.Z J 5       & < t y.[ Z ( F , 1.v.i c.                                                    ",
"                T s p.D.XX!.%XwX*X(.D , 5           < < 1 J i < < 5 i F 1 h.                                                    ",
"              ; y hXe.!.W.f.[ B.y.t < q t             < % % < < q < q q < J                                                     ",
"              &.; bX( V.z.y.G e < , < y               q < & & % < @ & & % q                                                     ",
"            k | <XaX~ V.S.g.[ y % < - J               q q < q % & @ @ @ % q                                                     ",
"            =.| bX2XG ` ( ~ _ W % q d                   q < < & $ $ + @ <                                                       ",
"          k 2X8X,X=.D 5 5 < < $ 5 s                     < < @ @ , @ + $ %                                                       ",
"          *.6XO.+.%.5 r , < % a r                         % q % @ + + + <                                                       ",
"        f -.8X} -.| ..i < < 1 g g                         < 1 $ + + + < q                                                       ",
"        s =.7 @.lX9X,X$.D f f s                           < = + + + + < t y                                                     ",
"        :.9 C hX:X%.@.@...l ; s                           < % + @ % < @ a G                                                     ",
"        -.sXvXaX&.} s j l k g                               % + @ < < & & t y                                                   ",
"       .1XjXbX2XO.B z @.k                                   < @ + @ % < @ 1 e                                                   ",
"    s  .:X6XvX>Xg >.&.@.j                                     % % @ % y 5 < q                                                   ",
"    g j s | bX>XC l o.R                                         % % e y J W ( D _ [                                             ",
"      * f <XbX,XM -.} j                                           % q D G ~ ( ^ J J t                                           ",
"    O.=.8XbXcXxXsXU.s                                               & % % - q t e % <                                           ",
"  s j o.<X6XfX8X<X..p 5                                             $ & < y H D H e < +                                         ",
"  : r g @.6XsXdX-.l e $                                             + < < t a F H e q +                                         ",
"    X.=.3XsXcXjX9X8.3                                               + < e y H ~ F y e %                                         ",
"  ; f k O.2XsX6X:X..t 8                                             @ @ % e t D y e % @                                         ",
"  ; f j +.3XdX8X=.k 5 =                                                                                                         ",
"    ; f } &.&.&.j r 7                                                                                                           ",
"                                                                                                                                ",
"                                                                                                                                ",
"                                                                                                                                "
};
