/* XPM */
static char *__damaged1684324885[] = {
/* columns rows colors chars-per-pixel */
"64 64 256 2 ",
"   c None",
".  c #050404",
"X  c #0C0A0A",
"o  c #160E0A",
"O  c #1A1206",
"+  c #14120C",
"@  c #1C140A",
"#  c #1F190C",
"$  c #1A1506",
"%  c #131312",
"&  c #1C1A14",
"*  c #1C1C1B",
"=  c #1A1614",
"-  c #0F1010",
";  c #340C06",
":  c #3C0B06",
">  c #3D0B09",
",  c #380907",
"<  c #23150C",
"1  c #2C130B",
"2  c #231A0C",
"3  c #2A1C0E",
"4  c #221706",
"5  c #35190D",
"6  c #241C12",
"7  c #2A1D14",
"8  c #241B18",
"9  c #381913",
"0  c #2C220D",
"q  c #27200D",
"w  c #34260E",
"e  c #2C2313",
"r  c #27221A",
"t  c #332514",
"y  c #332914",
"u  c #3A2B15",
"i  c #3C2C1A",
"p  c #352619",
"a  c #3B331B",
"s  c #242423",
"d  c #2C2B2B",
"f  c #292626",
"g  c #362E27",
"h  c #3A332A",
"j  c #3C3A3A",
"k  c #373534",
"l  c #2E3031",
"z  c #1E211F",
"x  c #430605",
"c  c #4B0604",
"v  c #430906",
"b  c #440B0A",
"n  c #4A0B0A",
"m  c #490907",
"M  c #530C0C",
"N  c #5B0B0A",
"B  c #590806",
"V  c #49120D",
"C  c #59110C",
"Z  c #491211",
"A  c #571512",
"S  c #490F11",
"D  c #640C0A",
"F  c #6C0C0B",
"G  c #680806",
"H  c #7C0503",
"J  c #750B0A",
"K  c #7B0B0A",
"L  c #770805",
"P  c #6C140A",
"I  c #79160A",
"U  c #641311",
"Y  c #6A1713",
"T  c #761612",
"R  c #6C0D10",
"E  c #452C16",
"W  c #433116",
"Q  c #44321B",
"!  c #4B341B",
"~  c #4C391C",
"^  c #4A3515",
"/  c #533B1D",
"(  c #58381B",
")  c #592F13",
"_  c #6A240C",
"`  c #76280B",
"'  c #77380B",
"]  c #622513",
"[  c #643A1A",
"{  c #792D16",
"}  c #4B3724",
"|  c #543C22",
" . c #5B3D22",
".. c #593A29",
"X. c #54322C",
"o. c #663D25",
"O. c #7D2D28",
"+. c #421F22",
"@. c #5A431F",
"#. c #64441D",
"$. c #5B4224",
"%. c #54443C",
"&. c #644224",
"*. c #644329",
"=. c #6C4526",
"-. c #734B2B",
";. c #7A4E2C",
":. c #754825",
">. c #7B522A",
",. c #7B5331",
"<. c #704E31",
"1. c #4B4B4A",
"2. c #474645",
"3. c #54524B",
"4. c #555455",
"5. c #5B5A5B",
"6. c #505052",
"7. c #685854",
"8. c #67635D",
"9. c #76675C",
"0. c #686767",
"q. c #767574",
"w. c #7A7879",
"e. c #736D6C",
"r. c #5D6161",
"t. c #870906",
"y. c #940503",
"u. c #920B0A",
"i. c #9A0A06",
"p. c #97130D",
"a. c #951B13",
"s. c #861713",
"d. c #AC0905",
"f. c #A70906",
"g. c #B20B06",
"h. c #BC0C0A",
"j. c #B80705",
"k. c #AA120D",
"l. c #98370A",
"z. c #87271D",
"x. c #882D0B",
"c. c #A82E0B",
"v. c #892823",
"b. c #973625",
"n. c #953430",
"m. c #AA3533",
"M. c #C80907",
"N. c #DC0504",
"B. c #D40806",
"V. c #C6110B",
"C. c #E80805",
"Z. c #F70504",
"A. c #EE1512",
"S. c #F2332A",
"D. c #F02317",
"F. c #8E4D13",
"G. c #B24910",
"H. c #84552E",
"J. c #844B31",
"K. c #845532",
"L. c #8C5A32",
"P. c #885836",
"I. c #945C35",
"U. c #945B37",
"Y. c #8A5028",
"T. c #AA5431",
"R. c #9B633A",
"E. c #986136",
"W. c #8E6330",
"Q. c #A1643C",
"!. c #A8693B",
"~. c #BA6B37",
"^. c #D55912",
"/. c #ED7216",
"(. c #EB4339",
"). c #F1433E",
"_. c #D0662F",
"`. c #E9703D",
"'. c #E55F0E",
"]. c #B7544F",
"[. c #8A6C4D",
"{. c #AD6D42",
"}. c #A46941",
"|. c #AE7248",
" X c #B47245",
".X c #BC7345",
"XX c #BC7749",
"oX c #BA7049",
"OX c #C47B4C",
"+X c #CA7C4C",
"@X c #C77847",
"#X c #CA7F50",
"$X c #D26852",
"%X c #F66855",
"&X c #D0756D",
"*X c #ED7B71",
"=X c #DC5B4C",
"-X c #BF971F",
";X c #F18C3C",
":X c #CBB63C",
">X c #9C8C71",
",X c #CD804E",
"<X c #CD8253",
"1X c #CE8459",
"2X c #D28455",
"3X c #D58B5B",
"4X c #DA8B5B",
"5X c #D98857",
"6X c #DD935C",
"7X c #D48B4E",
"8X c #E28B5A",
"9X c #E3915D",
"0X c #E5874E",
"qX c #DD8D60",
"wX c #DD9362",
"eX c #E39462",
"rX c #E59A6A",
"tX c #EB9B6B",
"yX c #E89867",
"uX c #EF9572",
"iX c #ECA26F",
"pX c #ECA273",
"aX c #F3A575",
"sX c #F7A97A",
"dX c #F5A672",
"fX c #D8CD51",
"gX c #817F81",
"hX c #8A8888",
"jX c #969696",
"kX c #8D9489",
"lX c #A29B9A",
"zX c #ADA595",
"xX c #AAA7A7",
"cX c #BDBCBB",
"vX c #B7B5B2",
"bX c #B2AEAE",
"nX c #9BA5A1",
"mX c #EA978A",
"MX c #F6AD84",
"NX c #FAB284",
"BX c #F7B489",
"VX c #FBBA93",
"CX c #F7B895",
"ZX c #EDAB80",
"AX c #C3BBB8",
"SX c #EEB1B2",
"DX c #FCC19D",
"FX c #F7C5A4",
"GX c #F1D2BC",
"HX c #E0D2B2",
"JX c #C7C5C5",
"KX c #D9DAD9",
"LX c #CED1CF",
"PX c #E5DCDE",
"IX c #E6E4E3",
"UX c #D8E1E0",
/* pixels */
"                                                    <X2X<X                                                                      ",
"                                            2.0.8.J.tXVXMXaX4X2X2X                                                              ",
"                                          8 1.hX0.d }.wXFXaXaXpX1Xe.lX0.                                                        ",
"                                        z 8.q.1.5.e.jXLX0.4.X.n.j % #.E.-.                                                      ",
"                                        * 9.1.1.5.5.w.bXs l U a.%X+X7 >.i                                                       ",
"                                          Y.* y r * - a X ~ -.5X<X*XOX@X!.d                                                     ",
"                                          X . . & # q # q $.P.@X&._ p 8.mX0.6.j     jX                                          ",
"                                              u -.y $.$.$.E.,.!.n + . . ) j A C.k d %                                           ",
"                                        |.u & -.OXQ U.wX*.XXU..Xt.K X . . . - = X . X                                           ",
"                                       X1X7 # {. Xh rXsX|.4X~.+XV.v.    . . . . . .                                             ",
"                        rX5X1XK.  }.<X6XwX,.<.aX>.<XBX|.| 1XU.@X=Xh.$XH.L.                                                      ",
"                  OX4XNXVXyX<X!.L.wXeXtXwX{.{.!.#X9XqXR. .K.>./ %.-.o.L.3XL.        XX2X5X<X                                    ",
"                XXK.;.| -.L.I.I.-.=.Q.4XiXyXiX4X2X#X4XtX,XW.Q.OXtXiXeXwXeX<X X!.R.R.XXsXVXCXyX.X                                ",
"                 .! ! -.XX5X9X,X!.E.&.{.,XrXyXrX3XeXMXBX0X,X.X,XVXVXaXrXiX9X1X<XOXOXeXsXsX4XyX#X X                              ",
"              8XX.| K.!.}.,./ 2 q L.H.!.yXsXsXNXDXiX'.G.'.9XeX5X9XpX5XqXNXeX5XtXwX<XqXsXNXVXdXXXwX                              ",
"        B.B.@XFXDX<XP.a e 2 2 2 2 2 2 ~ H.,X,XdXiX,X/.eXdXsXsX X:.H.>.<.>X,XwX2X.XK.R.@X|.}  X@X@X+X                            ",
"      j.    &.+XiX4X4XE./ 2 2 2 2 y E w < y ! $...J.^.U.+X;.n.z.E 6 v b N Y.| ! y < < 6 e -.Q.tXZXGXtX                          ",
"      d.iXwX .H.XX3X5XL.u e 2 # i -.;.^ f.e a .X~.m.=Xv.v.o.T D C p b x M v.d.Z 6 @ O 2 e }.tXNXFXVXyXI.                        ",
"    d.  e.*.o.e ! ;.P.K.E.r 2 2 y =.#.&._.=Xp.h.S.U U Z F p.M.C.p.A P B t.a.R a.Z w 2  .qXBXXX,X2XeX4X.X#X                      ",
"    d.  PX0.p 2 r t *.#XR.    2 2 ( [ [ k.g.F c.F f.f.Y R h.G.l.T y.M.j.M K F c m x 6 & e 5XI.*.:.L.Q.U.AXIXIXxX                ",
"    h.t.vXq.%.8 e p K.p a     2 ~ -.( ~.(.Z M D i.t.7 J t.N.C.Z.C.g.' t.u x x b x b 3   2 t u E Q C.mXUXIXUXJX3.2.              ",
"      ! %.0.XXe Q K.| q       2 ! &.U.=.d.d.5 F j.B.7 J U  .a.M.{ p.] g.u.c y.S.D.7 2   e 6 t g 6.mXS.SXJXbX].].vXvX            ",
"      D.wXqXrXK.OXeXQ           W ~ F.V.Z b J t.u.V d.C.M.d.l.' M.M.Q f.d.M x : c x x     p p mXSXPXPXbXhXA.lXPXIXIXPXAX        ",
"    } FXMXuXsXCXuXp Q           2 $ B F G t.T N.D u t y.A.R K y.C ' G F F y.9 c N D.Z       7 S.*XSX[.6.6.nXlX8.hX0.k j e.      ",
"    -.FXdXtXVXMX+Xo.              2 < < 1 1 ; 4 6 e x > u.d.f.F I b i.y.b E c B M u.R H D   ..=.Q h.l z +.9.JXLXjX2.r.cXlXhX    ",
"    j CXtXMXsXaXU.                  @ 1 @ , 1 x c y.n m n B G B x G H G > c b R h.k.S         OX}.8 f z % J 1.j k k g - s z q.  ",
"      AX8XsXdX9Xi                   6 < < 1 B x t.f.G G F c y.t.N D t.5 1 b 5 B b.S.j.D K      XQ.e l f * % e s r g z X * * 4.  ",
"      xXtXdXyX,Xr                 E > 2 f.N M x t.t.K x B B ] _ Y M V s.v.E 5 v , p.      L J   t = * s s % * q s & - % % = s xX",
"      -. XOXeXGXfX                  6 2 n u.K x t.d.d.J f.Z ' >.Y.#.) #.W v w F   t.                = e * * z * * # + % % * * 2.",
"      } R.eX4XP.7               E v # ; ; t.F N < 5 p y ( x.7 0 w n v 1 L m T             A           y E # & 2 t 6 2 & * * * * ",
"      =.oXMXg 7               = Q x c c v u p E 7 y C.C.D.C , > : 2 q 7 7 b {       t.                  a e @ e t 0 e * * * *   ",
"      &.3 -.dXP.            8 {.H.~ / :.E.H.L.L...Q.M.V.).m.B n d.v y c.F.Y F.Z M.p.] x.                    z       e e *       ",
"      rX7 2 3 <.7X      vX*.J.yX@XL.Q.o.F.l.{ 9 Y.>.) f.J y.J C B L U i.i.M V G S.h.&.                                          ",
"      2 3X=.R.4X    9.uXCX9X8X%XtX0X/.;XiX5X3XO.~ 7 & 6 t.C U y.F x.h.d.N.p.> 2 [ E ! &.                                        ",
"      q 6 -.7 |.:X[.|.CXCXCXBXS.%X`.G.'.iX7X@X<.0 q c B Z L P C f.j.C.h.M.i.n < ( p t } E.                                      ",
"      2 4 !.      XXwXpX/./.BX%XoXo.a.Y ^.Q.V.) , c G y.t.' y.j.B.N.M.Z.Z.I t.f.A                                               ",
"        7 Q -X  }.;.$.tX'.0X/.T C.M.j.j.v.s.Y $.t v B n > # v M P V.K i.M.g.C V K &.                                            ",
"                3Xg 3 rXaX'.k.f.j.C.B.B.t.J b./ ( # ; B 2 / t t.J i.I _ C.x.K y.x.=.e                                           ",
"                XXe 8 +XsXT.V.j.h.C.N.N.u.J :.~ u 2 < < 5 ~ w y.d.M.` ` i.` L T x.I.u                                           ",
"                ;.O vXH.tX(.].F j.M.d.t.C.z.U.! 2 < 2 e B J G Z P j.J M J H P K p.F.;.|                                         ",
"              r e kXJX=.9X;X(.z.j.f.u.P s.oX,Xy 2   3 e [ N < b B M G N c B 9 b G.&.L.=.                                        ",
"              3.r IXxX) F.L.~.5Xl.T y.b.T.W.! #     # 4 2 2 # w P T v.P a.` 1 > 2 q $.~                                         ",
"              e.r IX[.#.:.( ^ Q.@XL.#.~.&.6 & y       0 < : 6 t ( F.~ y q # @ b < 2 e                                           ",
"            l 5.%.UX[.#.G.P W u E &.^ H.t e e         q # : 3 t w w q q $ o < n n 2 e                                           ",
"            4.j vXxX9.( L.:.^ q t # 0 8 6 t             e e 2 $ 4 0 # o O @ D D : w                                             ",
"            q.hXmX>X=.^ ~ Q u A u e 2 s f               5 > O O $ @ O O , C @ 4 ; 2                                             ",
"          l q.vX&XX.} 6 7 C V e t 2 r s                 L : 0 # 4 C n ; o o O $ $                                               ",
"          j q.AX4.} Q * 2 2 e & & r s f                 H B q 2 0 # c $ ; o < < 2 w                                             ",
"        s r.jX4.5.zX$X&X} e e g d s s                       < q O O < ; O < m > t ^ u                                           ",
"        d 2.8 f AXgXw.0.4.g f d 8 s                 t.S     6 2 o V c < O O 2 n V a y                                           ",
"          k.k.bXxX8.r.1.1.1.2.r s                             6 $ < 1 2 2 2 v 6 7 t                                             ",
"        0.jXPXPXjXn.6.s g j j f                               y O : c : : 3 # # D 3                                             ",
"      2.w.xXUXLXn.) A T ..h                                     < 4 ; 2 $ 6 : : < e                                             ",
"    f 1.q.jXJXJXB.T g. .u.                                      q $ @ O < 0 e 2 2 q                                             ",
"    s k s z 0.cX+.B.h p.E                                           2 2 2 q W ~  .@.! -.>.                                      ",
"    s % % d nXcXR f.3.d.                                              q q W / @.>.>.-.H.,.@.                                    ",
"      d l 4.LXLXkX..v.M.                                                # 2 0 0 w W W u y 0                                     ",
"    2.gXKXJXIXcXbX*XS.U                                                   O # # y ! ~ Q u 0                                     ",
"  * d s 6.q.LXcXnX7.B.G                                                 $ # # 2 y a ^ a y 0 #                                   ",
"    6.[.nXvXUXSX*XA.C.>                                                 $ # 2 0 i Q @.~ ^ 0 &                                   ",
"  s k 6.e.hXJXcXjX(.C.R                                                 o $ e 0 a @.$./ ~ u 2                                   ",
"  z d k 4.q.JXcXjX7.N.2                                                   O $ @ # 2 2 # @ @ $                                   ",
"  * d 2.5.q.JXvXnX5.2.&                                                                                                         ",
"      * s d l k g z 8                                                                                                           "
};
