/* XPM */
static char *__death1684289022[] = {
/* columns rows colors chars-per-pixel */
"64 64 238 2 ",
"   c None",
".  c #1F1A17",
"X  c #3E0C0A",
"o  c #3A0A06",
"O  c #241A0E",
"+  c #28160B",
"@  c #3B120B",
"#  c #371508",
"$  c #241913",
"%  c #2D1A14",
"&  c #3A1211",
"*  c #361D18",
"=  c #2D2412",
"-  c #2A2817",
";  c #332513",
":  c #342A15",
">  c #392B13",
",  c #342D19",
"<  c #3B2C1A",
"1  c #32321D",
"2  c #3B321B",
"3  c #332F10",
"4  c #272424",
"5  c #2B2525",
"6  c #2A2827",
"7  c #2A2728",
"8  c #2C2A2A",
"9  c #3C2724",
"0  c #332D2C",
"q  c #3A2826",
"w  c #3B3422",
"e  c #363A24",
"r  c #3B3C25",
"t  c #3A3C28",
"y  c #363629",
"u  c #333333",
"i  c #393535",
"p  c #3B3935",
"a  c #37383B",
"s  c #3B3A3A",
"d  c #383739",
"f  c #2E2E32",
"g  c #450504",
"h  c #4C0503",
"j  c #440A05",
"k  c #4B0A05",
"l  c #430E0A",
"z  c #4C0A09",
"x  c #530503",
"c  c #5C0504",
"v  c #540A05",
"b  c #5B0905",
"n  c #540C0A",
"m  c #5B0C0A",
"M  c #5A0509",
"N  c #4C140D",
"B  c #47150A",
"V  c #561409",
"C  c #471A18",
"Z  c #521513",
"A  c #5D1E11",
"S  c #560D12",
"D  c #640404",
"F  c #6B0404",
"G  c #640C04",
"H  c #6C0A05",
"J  c #630C0A",
"K  c #6B0D0C",
"L  c #6C070B",
"P  c #740504",
"I  c #7B0403",
"U  c #730B05",
"Y  c #750B0A",
"T  c #7B0E0B",
"R  c #780607",
"E  c #65130D",
"W  c #69130D",
"Q  c #6D1607",
"!  c #76160D",
"~  c #6D1411",
"^  c #691C13",
"/  c #731312",
"(  c #741A15",
")  c #741B19",
"_  c #7D1C19",
"`  c #7A1817",
"'  c #412C1B",
"]  c #482817",
"[  c #5B261C",
"{  c #5B2417",
"}  c #43341C",
"|  c #49371B",
" . c #792403",
".. c #7E3A08",
"X. c #66241A",
"o. c #7C251D",
"O. c #6E2911",
"+. c #423621",
"@. c #493726",
"#. c #5D3C21",
"$. c #513527",
"%. c #4A3636",
"&. c #503431",
"*. c #7B2421",
"=. c #653C2B",
"-. c #743726",
";. c #3C422A",
":. c #39432B",
">. c #37403A",
",. c #3E6629",
"<. c #43442C",
"1. c #46492D",
"2. c #4A462A",
"3. c #454A34",
"4. c #484C35",
"5. c #464B34",
"6. c #564B3D",
"7. c #5B563A",
"8. c #4F553A",
"9. c #6C4A29",
"0. c #764C39",
"q. c #6A563D",
"w. c #755437",
"e. c #734D2F",
"r. c #3A3E40",
"t. c #3D4649",
"y. c #4B4B4B",
"u. c #474644",
"i. c #524B4B",
"p. c #524847",
"a. c #585844",
"s. c #4A5154",
"d. c #555455",
"f. c #5B5C5D",
"g. c #555758",
"h. c #484E53",
"j. c #695144",
"k. c #765744",
"l. c #615B5C",
"z. c #5B6D4F",
"x. c #67654A",
"c. c #7A7048",
"v. c #7C6C55",
"b. c #756D50",
"n. c #5F6365",
"m. c #646365",
"M. c #6A6C6E",
"N. c #696D73",
"B. c #717273",
"V. c #737679",
"C. c #76797A",
"Z. c #6F7071",
"A. c #830404",
"S. c #8C0303",
"D. c #830C03",
"F. c #880807",
"G. c #940404",
"H. c #9A0503",
"J. c #920903",
"K. c #9A0A09",
"L. c #9A0A06",
"P. c #881507",
"I. c #99180C",
"U. c #871B18",
"Y. c #981315",
"T. c #8C0C11",
"R. c #A40403",
"E. c #AD0303",
"W. c #A70907",
"Q. c #B40303",
"!. c #BD0204",
"~. c #B70A07",
"^. c #A71508",
"/. c #A71F18",
"(. c #AC0F11",
"). c #86261D",
"_. c #95301E",
"`. c #A52418",
"'. c #BE3F1C",
"]. c #951F21",
"[. c #852221",
"{. c #8A2925",
"}. c #8C362A",
"|. c #95392A",
" X c #973633",
".X c #8C2F2F",
"XX c #AC2E24",
"oX c #C20304",
"OX c #CD0303",
"+X c #C90709",
"@X c #DE0503",
"#X c #D30305",
"$X c #C5140E",
"%X c #E60304",
"&X c #ED1010",
"*X c #C62613",
"=X c #FD2416",
"-X c #C93B3B",
";X c #EE362A",
":X c #854A32",
">X c #964A39",
",X c #865534",
"<X c #965636",
"1X c #82522A",
"2X c #B44427",
"3X c #A25639",
"4X c #966336",
"5X c #A2653C",
"6X c #885943",
"7X c #A94946",
"8X c #AE5E44",
"9X c #856A47",
"0X c #987245",
"qX c #867657",
"wX c #936F4E",
"eX c #A77648",
"rX c #AE6947",
"tX c #AE7970",
"yX c #EE4C4B",
"uX c #CE7948",
"iX c #7C8672",
"pX c #CE9025",
"aX c #8A884F",
"sX c #AB8A5D",
"dX c #9F9879",
"fX c #91826A",
"gX c #BF897E",
"hX c #C78356",
"jX c #D0A05B",
"kX c #F3937A",
"lX c #E5DA4C",
"zX c #DDCA63",
"xX c #7F8689",
"cX c #898988",
"vX c #8B9194",
"bX c #94989A",
"nX c #828E90",
"mX c #F69E92",
/* pixels */
"                                                                                                                                ",
"                                                                                                                                ",
"                                                                                                                                ",
"                                                                                                                                ",
"                                                                                                                                ",
"                                                                                                                                ",
"                                                                      P.D.        J.oX                                          ",
"                                                                      I        ...                                              ",
"                                                                            b D Q  .                                            ",
"                                                                  XX/.  D.  P oXG F.b P                                         ",
"                                                    H.    oX  F   x.k.wXtX#X!.b     I b   Q  .                                  ",
"                                                          G.  ;XyX$X%X~.mXkXH.L.A.F I       x                                   ",
"                                                %X          A.%XQ.U D.W.&XyX!.T V         x                                     ",
"                                                      E.    %XF.x h c ~.A.$X'.,.:.H                                             ",
"                                                              h g x k pXlXzX+.jX1.3 U                                           ",
"                                                          &X  uXk h h g ..'.=X>X2.                                              ",
"                                                  G.F.Q.G.!.F OX+X].R M S.^.>X*X- k   H.  3                                     ",
"                                          S.          P !.R.I P S.R.@X%XL.&XaXq # D.    L.G                                     ",
"                                                I     c S.F F S.I R.oX%X~./.}.I.    W.  G                                       ",
"                                            A.I oX!.>X(.Q.E.7XbXK.(.P.tXj.! H.).    !                                           ",
"                                        A.  S.!.@XOXA.G.oXR.T T.Y..X].T.O.H.o.:X6XwXdXk.                                        ",
"                                          H Q.!.!.oXQ.x I S.L.+XT Y.A.R.E.^.).E.H.).R.qXqXq.                                    ",
"                                          #.P.S.I P R.H.h F F ) Y W.I E.E.F.I Q V -.W.c 9Xj.                                    ",
"                                          <X5XS.A.D c P D h x c H.D P I R.K.x.> c.{ n b m j.q.                                  ",
"                                        1X2XL.Q.Q.J.c D c h   x L h h F G.F.! I.`.2XW.^.1Xe.#.    h                             ",
"                                      !.5XI.L.oXI G A./ >X{.h     c   m R.I D.K.~.~.sX!.D.4Xw.                                  ",
"                                      U 5XI.G V D P H M g z H       XX-X{.! C q.H.W.c.0XD.,X[ v                                 ",
"                                  (.  9XiXE 9Xc.H L ) .X X`.  OX!.  S.!.c J 0.w.9.S.H.fX-.^ N z                                 ",
"                                    <X4X,Xx.x.7.W b Q.D g S.v c #XD x h D Y E  XeX0X~.T iXz.2.                                  ",
"                                  5XhXrXrX:Xw.8.=.A.!.Q.F D D H L 7X.X`  X*.[ }.,XrX9X] 7.u.%.                                  ",
"                                  >XhX>X8X5X,X  T I S.G.~.R.M v U.K ~ m ~ ~ )._ U.X.x.f.s.t 0                                   ",
"                              ).U.` ). X}.<XO.    F I H D.R L F K W J ! ( ! Q G %.g.h.y u 0                                     ",
"                              ( [.).{. X<X{.  P     F c Q.OXT @Xn U.D Y v j k 9 s.s f 4 q C                                     ",
"                            ~ `  XU.{.{.{.    F Q.E.G.H oXM & +X/ `.6X%.cXbXnXd 8 f %.Z L M h                                   ",
"                              ~ / {./ (     c P E.Q.E.J S &.7 $ p.vXvXvXcXm.d.u.r.Z v x h x c                                   ",
"                              ~ J W W       F 9 %.9 * = y.C.iXC.m.y.l.d.p.u.5 u & h h x x h                                     ",
"                                      =.0.6.8 5 $.p.Z.nXC.M.d.s s s i.i.fXb.q % + j h     h x                                   ",
"                                  ,X  u.i 4 #.l.B.vXbXB.y.s d s s 8 C X l fX< ; > 2 B                                           ",
"                                9.%.+.% r.qXvXvXV.g.i d s a d d d 2 C v H Y b # } = # h                                         ",
"                                g.8 . B.bXZ.d.s u u 0 f u d d = . =.N J b D D v j o @ h                                         ",
"                                V.5 M.B.y.s u u u u u d s 0 = $ < o h wXT G | o g o #                                           ",
"                            n.nXd.N.d s u f d f f d t.@ @ ' = > O dXq.+.| @.< g g = %                                           ",
"                        m.cXn.g.8 8 i p s u f d & l o % ' k o j g G Q T U H G j o ; +                                           ",
"                  i.d.V.B.d.8 8 6 6 u s t.a a >.) K m * a.> , j j g c F b k b g v ;                                             ",
"                  0 p.B.8 8 7 7 7 6 f 7 4 7 5 X k k j k l : l j   7.q.U B | v g <.;                                             ",
"                    8 8 7 8 7 6       4 5 5 5 m b k g h k k j     +.} | ] v j j # >                                             ",
"                      7 8 7 7           4 - 4 6.g g E v ' 2 }     > [ ! V v ] ' @.>                                             ",
"                        8 7               l B k k g j m 2 : , ;   > r <.1.5.3.;.w 2                                             ",
"                                            , x.z.3.t < O O O     , 3.1.5.4.5., >                                               ",
"                                            4 3.;.3.8.:.;.t u ,     - 5.4.5.5.{ ;                                               ",
"                                            t <.;.<.e Z Z ; ; ,     % > > : ; + N                                               ",
"                                              t ).y e : = ;.-       = r r t r t                                                 ",
"                                              w e < : > 1 , -       t ;.3.;.y ] 2                                               ",
"                                                < : N t - t :.    r t a.}.1.2 ] w                                               ",
"                                                  ; O l l l l     +.] ^ 3.1.@.] w                                               ",
"                                                    m m j k O       > $.{ 6.X.< 2                                               ",
"                                                    g g L 3.k         $.W *.~ B :                                               ",
"                                                m m J h g g g         N m V B %                                                 ",
"                                              m J m M J h h g         ) z m N %                                                 ",
"                                            m ~ ( ) J v x g g       m m o.( U.g                                                 ",
"                                            h h h h h g h           S J _ *.( M h                                               ",
"                                                                    m S ( ( ~ h g                                               ",
"                                                                    l x m m m h g                                               ",
"                                                                    5 & h g g g                                                 "
};
