/* XPM */
static char *__death1684289022[] = {
/* columns rows colors chars-per-pixel */
"64 64 218 2 ",
"   c None",
".  c #1C0C0B",
"X  c #1C130E",
"o  c #181B09",
"O  c #1B0D12",
"+  c #1D1514",
"@  c #1E1914",
"#  c #1E181A",
"$  c #2A0A06",
"%  c #240D0C",
"&  c #2B0D09",
"*  c #350B06",
"=  c #3C0B05",
"-  c #340B0A",
";  c #3B0C0A",
":  c #3C0207",
">  c #2A1505",
",  c #231E07",
"<  c #23130C",
"1  c #2B140A",
"2  c #231D0C",
"3  c #2C1A0A",
"4  c #331306",
"5  c #32140A",
"6  c #351C0C",
"7  c #3B1509",
"8  c #210D12",
"9  c #2E0D11",
"0  c #231412",
"q  c #211B13",
"w  c #281618",
"e  c #3B1215",
"r  c #321316",
"t  c #1E210B",
"y  c #17200A",
"u  c #25250F",
"i  c #2D2311",
"p  c #2D2817",
"a  c #362815",
"s  c #33391B",
"d  c #2E3617",
"f  c #282629",
"g  c #373927",
"h  c #3D3A34",
"j  c #450403",
"k  c #4B0504",
"l  c #440A05",
"z  c #4C0904",
"x  c #450608",
"c  c #4B070A",
"v  c #440A08",
"b  c #4C0B0A",
"n  c #530404",
"m  c #5B0504",
"M  c #530A05",
"N  c #5B0A03",
"B  c #53070B",
"V  c #550A09",
"C  c #5D0B0A",
"Z  c #441209",
"A  c #4D130A",
"S  c #4C190B",
"D  c #5C120B",
"F  c #57160C",
"G  c #5C0F11",
"H  c #4B1913",
"J  c #581516",
"K  c #640404",
"L  c #6C0403",
"P  c #640A04",
"I  c #6A0A04",
"U  c #640C0A",
"Y  c #6B0D0B",
"T  c #63070C",
"R  c #730404",
"E  c #7C0503",
"W  c #720A04",
"Q  c #7B0905",
"!  c #750709",
"~  c #720D0E",
"^  c #7E0A09",
"/  c #7C070B",
"(  c #64120C",
")  c #6A120D",
"_  c #671A08",
"`  c #73130C",
"'  c #691D14",
"]  c #6A1415",
"[  c #731312",
"{  c #7E1313",
"}  c #7C1A15",
"|  c #751E1A",
" . c #791C18",
".. c #751914",
"X. c #412A19",
"o. c #4B2A19",
"O. c #44351C",
"+. c #4A3219",
"@. c #54361C",
"#. c #5D3017",
"$. c #752604",
"%. c #7A3302",
"&. c #672613",
"*. c #792E1C",
"=. c #582922",
"-. c #483C27",
";. c #573523",
":. c #4F3B3B",
">. c #673F2F",
",. c #752B26",
"<. c #2E412E",
"1. c #6A4416",
"2. c #574828",
"3. c #504330",
"4. c #794C2F",
"5. c #7C5C2F",
"6. c #685533",
"7. c #785D39",
"8. c #5B4F42",
"9. c #615843",
"0. c #616955",
"q. c #830504",
"w. c #8C0404",
"e. c #830B05",
"r. c #8C0A06",
"t. c #8C0C09",
"y. c #830D0B",
"u. c #940503",
"i. c #9B0403",
"p. c #930B04",
"a. c #9B0A04",
"s. c #9A0D09",
"d. c #950A0C",
"f. c #971009",
"g. c #8B1A1B",
"h. c #881616",
"j. c #941612",
"k. c #8C160A",
"l. c #A40503",
"z. c #AC0603",
"x. c #A40A04",
"c. c #AC0A05",
"v. c #AA0B0A",
"b. c #B40403",
"n. c #BB0403",
"m. c #BC0804",
"M. c #B1060B",
"N. c #A41508",
"B. c #B8130B",
"V. c #B11814",
"C. c #87261A",
"Z. c #99221F",
"A. c #8B2B06",
"S. c #AB291F",
"D. c #832920",
"F. c #932522",
"G. c #962528",
"H. c #8D322D",
"J. c #953127",
"K. c #8D3A3A",
"L. c #933630",
"P. c #9A3939",
"I. c #A1342A",
"U. c #A23D3F",
"Y. c #A83938",
"T. c #A12824",
"R. c #C30503",
"E. c #CA0403",
"W. c #C40A05",
"Q. c #C80B06",
"!. c #D60302",
"~. c #D90406",
"^. c #D80A06",
"/. c #C1100E",
"(. c #E20C03",
"). c #EA0304",
"_. c #F30400",
"`. c #E9140F",
"'. c #FD1316",
"]. c #CA2311",
"[. c #E23018",
"{. c #E6261D",
"}. c #AD4204",
"|. c #B64F0D",
" X c #944630",
".X c #8F5D31",
"XX c #8C4A26",
"oX c #A04521",
"OX c #B0563E",
"+X c #A54335",
"@X c #8A633A",
"#X c #926D35",
"$X c #CA4505",
"%X c #C65C16",
"&X c #DB7128",
"*X c #9F4B43",
"=X c #B6494A",
"-X c #B2544C",
";X c #B55647",
":X c #AB5958",
">X c #B34D4E",
",X c #8D7452",
"<X c #8F6546",
"1X c #BF7161",
"2X c #E44F4B",
"3X c #C1635A",
"4X c #D8665B",
"5X c #E66150",
"6X c #C67068",
"7X c #CA7773",
"8X c #FF6260",
"9X c #E1822F",
"0X c #B48E56",
"qX c #8A8D6E",
"wX c #C6994D",
"eX c #EC8178",
"rX c #FF9B9B",
"tX c #FEBBBC",
/* pixels */
"                                                                                                                                ",
"                                                                                                                                ",
"                                                                                                                                ",
"                                                                                                                                ",
"                                                                                                                                ",
"                                                                                                                                ",
"                                                      L                         m N   $.                                        ",
"                                                  w.    L L L     u.                                                            ",
"                                                        Y K +.0.qX            5XE v.                                            ",
"                                                    R   4XrX&X/.    W.      u.{.R 7X2X    R                                     ",
"                                                        '.`.c.!.E     P $XE.L K ~.8XtX            %.                            ",
"                                                  i.      b.R n   k &.j M K E.L K m p.            M N $.                        ",
"                                u.                        q.    = O.#.z k x E.n.E q.              M M                           ",
"                                                  i.l.i.  n k       x     c j n n         j                                     ",
"                              w.  i.z.+.      u.  b.R.b.R   K         z     n c m R n     j     %.                              ",
"                              w.l.!.R.  v.:.    L   n.i.E k / 6XB.m.p.g.  K Q.E (._.W P     z   z N _                           ",
"                              L i.l.m.q.m.q.      m z E   m Y.T.g.Z.=X    n l.!.).! U wX_       N z                             ",
"                                m E l.n.  R i.      m m     t.R.-X[ q.^ z   K ~.^.[.L Y XX                                      ",
"                            i.      P L   b.L     m     k   q.U.M./.E z.R.^.m m L R._.i.Y                                       ",
"                                          m L   j c c       Y Y T L u.w.m q.E b.(.q.q.l.i.Y =.                                  ",
"                                  @.    E     L m h.U.:X>Xn j n n   B k K q.E q.M.q.R u.( 3.8.;.                                ",
"                                  2.%Xw.L m   r.h.D.D.G L k n j z   K q.z.l.E z.z.w.b.b.x.[ 9.-.                                ",
"                                  9XN.a.c.u.K m G.U.:XP.k j k j n j n i.E i.u.w.w.i.b.w.q.^ _ ' o.    D                         ",
"                                |.N.x.Q.c.m w.F. .] J J z j k j j j   L q.n m K E l.b.z.f.a 6 I   j     D                       ",
"                        u.    x.$XN.q.W m w.R ~ U.-X7XG.j     k j j     n W q.6X+X~ w.y.a X.A 6.Z z j                           ",
"                                .Xk.*.N.C L K Z.V B B b k k n n   k   k   K K M C L R.I p.v.x.) 6.S                             ",
"                              4.5.@.@.2.y.m E j K : x m n                 k M G.=X=Xj.u.b H v.r.1.*.                            ",
"                            $X#X<Xo.| d g W W.l.K E x m n j k     j         n     M R z <.g 2.' ` F C                           ",
"                          y.e.j.B.oX,.U     ! n z k j     n               L.T n     x l.].H.` 2.3.S A                           ",
"                        e.}.L.;X XA.) ,XI I     L j k j k j k               c n   i.R.f.o.B.B.@X-.S n N                         ",
"                      } { j.V.S.0Xe.l B.! K L     L K                   D.J.T M l.b.l.e.I.Q.J.@XO.7 M I K                       ",
"                       .| K.K.<XP.V j M q.  z j         j                 C M m b.n.E [ ) T } 7.d 4   n                         ",
"                    ` :Xr.t.r.B.s.n j *X    j k j K                   ..V z n c K i.[ C F D  .W W n n                           ",
"                    ) Y     h.h.F.  v Q R k j k j     j         3X  [ C z B j j     M V M B K E z n n                           ",
"                          +XJ.{ }     E     j j j   j j       P.) B  .k z ;Xc j       n M n z       n n                         ",
"                        Y )   F.)         R R               F.Y x       T V x   k n z k n     k z                               ",
"                                U       K n.z.q.  j         Y   j j   s.` j j   = k z z k n n j                                 ",
"                                      m R b.n.z.        j   j z k z j N c j z & + # # X X n k j     k                           ",
"                                n     K E   n.x.k     z v j j   k j n j z N   : 8 O + + + < z k                                 ",
"                              E Q j     j   :.  q.m   j j   j   j z E E   K K q.Q K j 8 . . k j   n                             ",
"                          k     E n       r 9 M w.M l.n =   j j j L K E q.  E W L x v x - . n     n                             ",
"                                      = L R ! z q.K r.a.0 ; = j K u.u.i.w.u.q.! h f - k . .                                     ",
"                              n   % & < c.z.[ m w.! K - c & 0 B R R R B   q.E L w - j - + .                                     ",
"                                  j k 0 W z.L T u.R r.w + - v n L E B   E m z R l.n x j + &     j j j                           ",
"                                  j j & ' R x.R u.! q.- s.1 + % m L K R M j z   v.P j 9           j                             ",
"                                j j = L m m I w.u.u.! W n.i.R 0 M.=.U M x j     r z x # +                                       ",
"                                    & b p.k n w.p.z.i.* * $ $ z t.Y e c.j     j V - ; % - j :   x                               ",
"                              n   j j % Q W Y E w.E q.y.q @ @ # e ~ m L x.j x j 0 # f       j                                   ",
"                                    * ! & z R u.i.L l D 2 1 O   7 = l m u.i.e.* 9 - r                                           ",
"                                    0 e.b 1 q.L P z l o o ~ X * w 0 U r.t.N L l T l.A +                                         ",
"                              n         R 4 4 E l 4 l > e.u + * b @ p 3 g s W 3 a D 0 b j                                       ",
"                                          z = ( y f M Z N 4 + = 1 + < 3 u i 7 z 6 8 x     j                                     ",
"                                    m m       t s ( * , > * X l   1 z l M x = 4 v k                                             ",
"                                    n n         u i 3 1 1 3 @ =     , 3 L < a > i                                               ",
"                                                  x = j v l -     l d ( a s a A 6                                               ",
"                                                    4 j j j x l   v t _ a p F 3 3                                               ",
"                                                    j j j j <   z M t p _ ' ) p ,                                               ",
"                                                  j j j j 1 j j   k z = D F b 7 4                                               ",
"                                                  j j k j k j j     k j z C Z 4                                                 ",
"                                                j k k j k k j k     z j b V V x                                                 ",
"                                                k k j j k k j j     z j j V V z j                                               ",
"                                                j j k j j k k       k n ) ) C z j                                               ",
"                                                                    j ( ) Y ( k j                                               ",
"                                                                    z : k k j j                                                 "
};
