/* XPM */
static char *__death1684289022[] = {
/* columns rows colors chars-per-pixel */
"64 64 214 2 ",
"   c None",
".  c #160E0D",
"X  c #1D0C0C",
"o  c #190806",
"O  c #1C1213",
"+  c #1E181B",
"@  c #2F0C05",
"#  c #230F0C",
"$  c #2C0E0B",
"%  c #290908",
"&  c #3D0504",
"*  c #340D06",
"=  c #3C0A04",
"-  c #3E0709",
";  c #340B0A",
":  c #3C090C",
">  c #23120E",
",  c #2B120E",
"<  c #35120E",
"1  c #39170E",
"2  c #250F10",
"3  c #290D10",
"4  c #241414",
"5  c #2B1314",
"6  c #241817",
"7  c #231719",
"8  c #281919",
"9  c #311413",
"0  c #3D1112",
"q  c #341B1C",
"w  c #3A1916",
"e  c #3A2414",
"r  c #3B2C16",
"t  c #303015",
"y  c #251A20",
"u  c #262125",
"i  c #2A2224",
"p  c #2D2A26",
"a  c #450403",
"s  c #4B0504",
"d  c #430905",
"f  c #4A0905",
"g  c #440608",
"h  c #4A0708",
"j  c #440B09",
"k  c #4D0C0A",
"l  c #530504",
"z  c #5B0504",
"x  c #530904",
"c  c #5D0905",
"v  c #5D060A",
"b  c #530A09",
"n  c #5B0B09",
"m  c #540609",
"M  c #43100A",
"N  c #571407",
"B  c #520F13",
"V  c #421416",
"C  c #630504",
"Z  c #6C0504",
"A  c #620A06",
"S  c #6C0B04",
"D  c #63060A",
"F  c #640C0A",
"G  c #6A0C0B",
"H  c #6D050C",
"J  c #730403",
"K  c #7B0403",
"L  c #750B06",
"P  c #7D0A04",
"I  c #730D0C",
"U  c #7B0A0B",
"Y  c #7B060E",
"T  c #6B110F",
"R  c #771609",
"E  c #6B0D10",
"W  c #640F10",
"Q  c #780F13",
"!  c #631212",
"~  c #691816",
"^  c #751515",
"/  c #7B1C15",
"(  c #7C191A",
")  c #7A1714",
"_  c #57210A",
"`  c #492E1B",
"'  c #5F2113",
"]  c #5A3319",
"[  c #54361A",
"{  c #6C2406",
"}  c #7C2408",
"|  c #7E3D0E",
" . c #79231C",
".. c #62381C",
"X. c #672716",
"o. c #4C3B22",
"O. c #573821",
"+. c #5E4326",
"@. c #4D4438",
"#. c #604123",
"$. c #774024",
"%. c #830504",
"&. c #8C0404",
"*. c #860B04",
"=. c #8A0905",
"-. c #84060C",
";. c #820B09",
":. c #8F080A",
">. c #940403",
",. c #9C0503",
"<. c #950B03",
"1. c #9B0B04",
"2. c #920F09",
"3. c #9B0B0A",
"4. c #970708",
"5. c #861109",
"6. c #9C1508",
"7. c #841213",
"8. c #8C1415",
"9. c #831C1C",
"0. c #8D1D1C",
"q. c #871F10",
"w. c #951919",
"e. c #A40504",
"r. c #AC0403",
"t. c #A30A05",
"y. c #AC0A02",
"u. c #AC0B0A",
"i. c #B30404",
"p. c #BA0302",
"a. c #B50A03",
"s. c #B20C09",
"d. c #BC0907",
"f. c #A8120A",
"g. c #A30D10",
"h. c #A91314",
"j. c #B81607",
"k. c #882A01",
"l. c #823507",
"z. c #85211D",
"x. c #8A201F",
"c. c #962F14",
"v. c #B9220C",
"b. c #AA201C",
"n. c #B82C1F",
"m. c #B6380B",
"M. c #871D21",
"N. c #941B24",
"B. c #862521",
"V. c #8E2323",
"C. c #882922",
"Z. c #96292B",
"A. c #9B2E2D",
"S. c #94342B",
"D. c #9A322B",
"F. c #9B2D31",
"G. c #9C3535",
"H. c #9B3A33",
"J. c #863437",
"K. c #AD3327",
"L. c #A13534",
"P. c #A53C35",
"I. c #A23B3A",
"U. c #C20401",
"Y. c #CB0504",
"T. c #C20805",
"R. c #CF0A05",
"E. c #C3090D",
"W. c #D40505",
"Q. c #E50506",
"!. c #FD070C",
"~. c #E10910",
"^. c #F31013",
"/. c #BC4A1A",
"(. c #905024",
"). c #954237",
"_. c #A05F23",
"`. c #AA473C",
"'. c #B3433B",
"]. c #A44925",
"[. c #816F2B",
"{. c #9C6532",
"}. c #837234",
"|. c #866738",
" X c #D87C1D",
".X c #FD503A",
"XX c #DA723B",
"oX c #E87738",
"OX c #FF3B40",
"+X c #9D4747",
"@X c #AB4C40",
"#X c #AC4D4C",
"$X c #A74445",
"%X c #B24C4F",
"&X c #B54D4B",
"*X c #B9514D",
"=X c #B5534E",
"-X c #B85C56",
";X c #9D694A",
":X c #9E7440",
">X c #AA794F",
",X c #BD6558",
"<X c #A77C50",
"1X c #B57162",
"2X c #C46753",
"3X c #FD6F59",
"4X c #C15D60",
"5X c #C46364",
"6X c #C66C64",
"7X c #C96968",
"8X c #A5823A",
"9X c #D29536",
"0X c #D68169",
"qX c #FA9B97",
/* pixels */
"                                                                                                                                ",
"                                                                                                                                ",
"                                                                                                                                ",
"                                                                                                                                ",
"                                                                                                                                ",
"                                                                                                                                ",
"                                                                            C     OXqX      ;.e.                                ",
"                                                      z.P                         ^.qX        =.                                ",
"                                                  H K XXoX                        R.                                            ",
"                                                    r.!.Q.K       O.>X    |.      R.                                            ",
"                                                  .X3XJ J z =     e `   o.#.    v i.H m                                         ",
"                                                  Q.K l h j     +.r r   w `   s 1.*.Q.Y.L e.                                    ",
"                                              K     m s a           e   k   L   h f R.e.r.T.                                    ",
"                                    Y.                              Z   =.a v s a h a %.S _.                                    ",
"                                              >.                F.&Xg.d.u.0XD h s a f s l c.|                                   ",
"                          &.                                    A.8.9.+XM.9.v T.z h f a K J (.                                  ",
"                                  C               K e.  s s l   >.E.-.h.4.e.=.E.r.    h s d l.                                  ",
"                      &.        Z >.            U.,.%.l s s s   A  .L d.U.y.v z K           {                                   ",
"                              r.r.J >.%.      K J Z z     l l   c C v Z K e.&.e.K                                               ",
"                            %.i.r.>.K         Z C C s z K           l     C &.,.              d                                 ",
"                            %.p.W.r.            z z z y.i.C               z D                 f     N N                         ",
"                            C %.,.                  s e.r.P           l s z J ,.%.A a   Z K           N                         ",
"                              Z     J     s       l s l %.l s a         l a C l h l Z >.>.r.Z       j                           ",
"                                        %.*.      s x z l s s   s a         l s s g ~.W.K %.,.  i                               ",
"                          C             4.    =X  Q ~ a a d     a a   l     9.@X%X=XQ Y >.r.&.V u p                             ",
"                                            #X4X    h a a a a a a       J >.8.( #X6X%X4XY p.e.t.u q u                           ",
"                      c } R g s           ,X7XQ I.  W a a a a a a   a   x f A B.K.L.*X*X6X&.Z C   I q                           ",
"                         X6.4.Z       K :.$XD `.7X    a a s s h           x Z s a h h l A Z h s Z j j -.                        ",
"                    >.9Xj.t.p.<.z z C a.4.B.G.5XB.        F               l l   a a a h z C z s l N [.p j                       ",
"                    v.k.G 2.s.P e.U l ,.&.A Z.! g   a a n                 h S.  a s s a Z a l s s s @ [ }.J                     ",
"                  ..[ ]...@.B P 1.z s &.&.l J C h s s       ^                 l s a s s z s a l C & <.$.t & r.                  ",
"                  ] ] ;.m.n.<.C l z x s K i.z n l h s   f                   s x   a l   z J &.t.h C Y.{.u & z                   ",
"                    X.P P u.T.z l   s c d.&.a z l a s       ^           f         9.h   %.Y.r.&.`.p.7.8X+ j                     ",
"                      2.1X<X;.z     l l J s z s l C s     D                     B.D.l A Z p.=.F W x 7.N O a s                   ",
"                    P /.b.<X' Z C   s l z x s l C s s a h                   W     C.l s a Z A x l l R T x C 1                   ",
"                  / z.J.).;XU P s   l     l l l l s s                     ~     F 9.l       a a d s   d s l                     ",
"                  ^ w.7.1.y.G a z s s       s                               ( T s D.m k       l     l   s                       ",
"                  T T 0.9.N.7.z             a                         #X$X    h ! ^ s                 s                         ",
"                  T G `.V. .I   %.          a a                       G.B.z.^ x.@X'.a a C                                       ",
"                    T T   M.    ,.i.K J       s a                   I.n s     l b l a s D C                                     ",
"                          E v A >.p.r.K             z         s   G.b a a     P.z s   a / z     z                               ",
"                              C ,.p.p.=.s     a               z   B.g P s z -.0.h       / l z     z l                           ",
"                            a C l   U b             z       a z     G ^ ) h A ^ a     s l s   z z z   z                         ",
"                                  8 5       7X      Z       Z z K l       s ^ h c   s Z z J %.Z l # > o l a                     ",
"                                  d       L.5X    z J       J K l     &.    z h h e.J s Z %.J z z = = . = K                     ",
"                                z &     k D.L.7.d.j $       z J l   4.z       l l l ,.,.>.&.%.8 O a l X s                       ",
"                                > P y.    A.I.E d Z X     # 6.B <.&.C           z l >.&.%.&.0 p - a # .                         ",
"                              a @ $ i.&.D Z.D.H F 7 $ f L t.i.j 3.K v   Z   C       z J Z l %.a & & + . =                       ",
"                              a = 8 g.P D G.V.E k 4 j > = 8 V f.A r.l Z =.C   G.$Xl     s *.Y.Y.a z .     l                     ",
"                                  & x C Z H.H.H v f.a.l x     < <.3 &.f J C D Z.*Xs Z z a a i.P l 7 O       l                   ",
"                                s <.c s ^ v c 8.z A 1.g f x   , s <.u.>.K A ^ l A b s &.x x l x O = d   a                       ",
"                              a ; < =.F 2XG.`.) =., 4 $ x s f , s 4 >.e.Z l A G h a s K Z X 4 u   & a                           ",
"                              a l @ z a S 2.=.Z x ~ 4 4 6 O O >   d d J C f a s & &.%.a 6 O 7       a                           ",
"                                > x @ L K Z n d j O # S d = = , a   8 n =.K f d Z K C *.= <.6.O                                 ",
"                                > <.M 0 L s a f ; # L 9 d a s d   s z G &.%.C Z f %.2.9                                         ",
"                                = a d @ 0 ;.7 < = ;.6 ; d d d * a s s 6 J s Z Z s a l a                                         ",
"                                l x     = + < S % < a d a a 4 a a s s 4 h s a c s a &                                           ",
"                                                    a a a a a a a   a n a a a a s                                               ",
"                                                    a s a a a a a   s a a a a a                                                 ",
"                                                    a a a a a a a a s a a a a a                                                 ",
"                                                    a a a a a a   a a a a a a a                                                 ",
"                                                                  a a a a a a                                                   ",
"                                                                  a a a a a a                                                   ",
"                                                                    a s a a                                                     "
};
