/* XPM */
static char *__death1684289023[] = {
/* columns rows colors chars-per-pixel */
"64 64 190 2 ",
"   c None",
".  c #1B1615",
"X  c #260D0C",
"o  c #2B0C0A",
"O  c #260C07",
"+  c #360606",
"@  c #3B0504",
"#  c #350A06",
"$  c #3C0A05",
"%  c #340C0B",
"&  c #3B0A0A",
"*  c #25100E",
"=  c #3F1007",
"-  c #34110E",
";  c #3D160C",
":  c #290E10",
">  c #231313",
",  c #2C1315",
"<  c #2E191B",
"1  c #2D171B",
"2  c #331415",
"3  c #311E1B",
"4  c #342412",
"5  c #3B2B16",
"6  c #362914",
"7  c #450303",
"8  c #4B0403",
"9  c #440904",
"0  c #4C0905",
"q  c #4B0608",
"w  c #470B08",
"e  c #4B0C09",
"r  c #530403",
"t  c #5B0403",
"y  c #530A06",
"u  c #5C0904",
"i  c #520508",
"p  c #5B070A",
"a  c #530B09",
"s  c #5C0A0B",
"d  c #4C100E",
"f  c #5A1409",
"g  c #5D0A10",
"h  c #421818",
"j  c #640402",
"k  c #6C0403",
"l  c #640906",
"z  c #6C0904",
"x  c #640B0A",
"c  c #6C0D0D",
"v  c #730403",
"b  c #7B0403",
"n  c #720903",
"m  c #7C0905",
"M  c #760708",
"N  c #740B0C",
"B  c #7A0C0A",
"V  c #681803",
"C  c #6C100D",
"Z  c #641309",
"A  c #70130F",
"S  c #6E0C11",
"D  c #760D14",
"F  c #6C1212",
"G  c #721514",
"H  c #7C1212",
"J  c #7C1C15",
"K  c #74191B",
"L  c #7B1919",
"P  c #78151A",
"I  c #462D14",
"U  c #413018",
"Y  c #4C351A",
"T  c #593C1E",
"R  c #5C3F21",
"E  c #7F2C27",
"W  c #76362E",
"Q  c #664728",
"!  c #644423",
"~  c #774F2E",
"^  c #724F27",
"/  c #78512B",
"(  c #840403",
")  c #8B0403",
"_  c #850D05",
"`  c #8C0B03",
"'  c #820609",
"]  c #8A050C",
"[  c #830B0A",
"{  c #8B0C08",
"}  c #930302",
"|  c #9C0402",
" . c #910A05",
".. c #9A0C05",
"X. c #970608",
"o. c #9D0808",
"O. c #960C0B",
"+. c #8B120E",
"@. c #971105",
"#. c #831B15",
"$. c #871917",
"%. c #951D1A",
"&. c #9B1E18",
"*. c #A20403",
"=. c #AB0502",
"-. c #A00904",
";. c #AD0A06",
":. c #A50808",
">. c #B40402",
",. c #BB0402",
"<. c #B20A06",
"1. c #BE0A03",
"2. c #BF0D0A",
"3. c #B61809",
"4. c #A41414",
"5. c #A01D18",
"6. c #883407",
"7. c #993609",
"8. c #84241E",
"9. c #862A1C",
"0. c #9D2B1F",
"q. c #A43F0D",
"w. c #B33F15",
"e. c #891F22",
"r. c #9A1C21",
"t. c #802420",
"y. c #8A262A",
"u. c #8B2422",
"i. c #902C23",
"p. c #97262A",
"a. c #963526",
"s. c #9D332A",
"d. c #9C3625",
"f. c #9B3433",
"g. c #9A3934",
"h. c #A53623",
"j. c #B63720",
"k. c #A82E30",
"l. c #A53736",
"z. c #A23E36",
"x. c #A33B3B",
"c. c #B6303C",
"v. c #C30302",
"b. c #CB0401",
"n. c #D20503",
"m. c #DD0704",
"M. c #E60806",
"N. c #F40B0A",
"B. c #F71310",
"V. c #C23B05",
"C. c #D33A0B",
"Z. c #EC2614",
"A. c #FD2317",
"S. c #FB3334",
"D. c #9F560C",
"F. c #8C651F",
"G. c #924A2A",
"H. c #945C21",
"J. c #8B5730",
"K. c #8D5F3E",
"L. c #BC5123",
"P. c #A7423F",
"I. c #AB413B",
"U. c #AF503C",
"Y. c #B6683C",
"T. c #A47C3A",
"R. c #E4500B",
"E. c #C0473D",
"W. c #A33F40",
"Q. c #A54E43",
"!. c #AD4A4E",
"~. c #B64C4B",
"^. c #AB5645",
"/. c #B8564C",
"(. c #B7575A",
"). c #B55A59",
"_. c #BB5559",
"`. c #C05944",
"'. c #C25654",
"]. c #FF5250",
"[. c #CC6C6A",
"{. c #C87B6A",
"}. c #D3756A",
"|. c #D17C75",
" X c #FB9A1F",
".X c #BF8550",
"XX c #CE9E6D",
"oX c #E28B77",
"OX c #DD9692",
"+X c #FD8481",
/* pixels */
"                                                                                                                                ",
"                                                                                                                                ",
"                                                                                                                                ",
"                                                                                                                                ",
"                                                                                                                                ",
"                                                                                                                                ",
"                                                                                                                                ",
"                                                                                                                                ",
"                                                                                                                                ",
"                                                                                                                                ",
"                                            C q                                 v       +X                                      ",
"                                          S c                                     v     S.].                                    ",
"                                                                                  j j   M.                                      ",
"                                            (             l       J.          K.        n.      }                               ",
"                                        8         Y..X X      T   I ~       ! ~       r v.q     v (                             ",
"                                        r     k j Z.N.o.      Y Q 6 U       Y R     8 1.b.M.y                                   ",
"                                  k     j 8     b | j 8       4 5 6 5       5       7 r @ k n.*.                                ",
"                                                B.v.8 7         4 4             5   @ 7 7 @ t ..q.                              ",
"                                              A.N.( 8 7               =               r r 7 @ @ D.                              ",
"                              ,.  k             k     7                           9 j ( j @ j _ H.                              ",
"                                                                                a.>.v.*.5.j @ t F.                              ",
"                            v                           7 9                     t.p.c.(.e.8 k 8 6.                              ",
"                      }     k               8 8                                 ,.z u j b b ) k                                 ",
"                            b               8                                   %.  t q t r >.m.                                ",
"                          *.v =.v                 7   7 7                           ( r 7 7 8 }                                 ",
"                        ( *.) =.b         | |         7 7                           k     7 8 b                                 ",
"                        ( *.n.b.(       >.v.>.v 8                                                                               ",
"                        k ) ,.|         r >.| b 8                             y     j   q                                       ",
"                          t k (       r j r v t 8                                 } =.j 7   k       7     V                     ",
"                    }                   8 7 7 8                         r     r 8 } ' 8 7 v N.X.=.)       u V                   ",
"                                  7               v | v     7                 8 8 8 S x._.x.r.] ,.n.M     r                     ",
"                                k v               | >.=.r 7 8 7                     }.'./.[.(.).] >.' M                         ",
"                                l }             r 7 *.} r 7 7                       8     s.E.~.k.z   v a                       ",
"                      u         H !.            7 t t r r 8 7       j             k u 8         j k 8 ) } %                     ",
"                                l.~.L     r r   8 r ( j 7 8 8                   l ) j 8   p t 8 k v r ) *.s h                   ",
"                j             ` H x oX      r     8 7 8 7   7                     8       8 t 8 @ 7 r 8 8 k (  .                ",
"                  7.          ;.c p.U.            z.q q q 7   y                             7 8 r   r t t u  .3 b               ",
"                T.C.( ] q     ( ' D {.i         x 9.d.                                #.n     t t 8 t 8 j 8 k z T b             ",
"          @.  T.R.o.>.v.r r   -.t p g.q t ' m G 8 K 7                                 p ^.N M ( k k k ) } { u k r j             ",
"            -.3.{ O.3._ ) z   j ,.>.x M z l t t 8 H I.                                  D $.$.b b M ,.v.| M 4.) 7 8             ",
"              n V.L.Y.+.z t   j ;. .r t v ( ( n p J e                         c         z         n ) ,.z Z f r 8 ;             ",
"            V B _ +.v.n r 8     q z k r j j j j @ r q                                   7 7       8 8 j a 8 8 7 9               ",
"                h.XX_ a y r t t r r 8 8 j b b 8 ( 7 7                                     N r     8 7 8 7 8 7 8 j               ",
"              z w.4.`.^ q u t     t p j b j j ) j r                   )                 z a.t     8   7 8   8 r                 ",
"              J W 4.8.G.9 t   t     r r 8 l j r t             r                           i p       8     r                     ",
"            G i.&.%.j.+.  t t t     8 r 8 r t                                             $.t               r                   ",
"            F s.[ H o.+.    u         r                                 x.f.          x.s q r                                   ",
"              C y.f.$.Q.|               8       t         t             [.P.      G M z 7 M k           t                       ",
"                #.S L s >.<.) 2 <   7 s }.|.    v         8 t j       I.8.L x   8 8 ( r 8 u i       p   t                       ",
"                    h.s <.,.*.p       c l.Q.  j u   b   b k b l       P x q 7 G 7 t #.y 7 8 p.}     r   8 t t                   ",
"                  9 p r ( ,.-.8 j     F f.f.:.X.*       r v r q       c 7 7     }.p.r   7 8 >.) >.)   + * + 8 8                 ",
"                    r 7   p 7 O ;.<.  P l.f.v % $ o     w b b )   t   8 8 z q   C 8     8 ) u q | *.)  .) 8 7 j t               ",
"                          7 7 > z ;.v P g.p.{ > > y   X ;.O.- ..l       q r 8 8 8 7 8 r v u     j =.} *.j 8 7                   ",
"                            7 o f b k y.p.u._ % u o 0 l +.-.2 M t y y j       8 9   8 0 r       j ) | | } 8 r r                 ",
"                              j t r x H s.P M z | % 9 X , c ' v | t z 8       8 r           p j   j ( v } 8   t t               ",
"                              x *.7 Q.l y ^.M # <.*.7 w 7 r t b *.) v v   l | m i t       7 ( 8 j k 8 r 8     t                 ",
"                        r 8 7 X j y #.%.+.[ ' B w O 7 7 8 7 7 8 ) >.z b *.j | ) t OXF p   | v.| ,.r 8 8     t                   ",
"                            8 8 8 q y ) ( x 9 e > . 9 8 7 7 7 7 8 v r 7 b } } ) K 8.s 8 >.b.j >.v.z r 8     8 8                 ",
"                            @ t # 7 b j t q w . X X r 8 8 8 7 7 7 7   7 v ( =.-.9.x 0 0 v m 8 r j @ 7       7                   ",
"                          7 > ( & e e z # % 0 X ` l t 8 7 7 7 7 8 7 8 ( j b r z r 8 7 j r r $ 7   @                             ",
"                            % u v , < s . 1 p - w o 7 7 7 7 8 8 8 7 7 j ' k b 8 8 7 k } v @ % 8                                 ",
"                              u       * * w $ % $ 7 7 7 7 7 7 7     7 7 j b ) b 8 8 b b v e 8 8                                 ",
"                                                                    7 8 @ z ( j v t 7 k - o 8                                   ",
"                                                                    7 7 # X r 7 t t 7 7 7 8                                     "
};
