/* XPM */
static char *__death1684289023[] = {
/* columns rows colors chars-per-pixel */
"64 64 183 2 ",
"   c None",
".  c #18191A",
"X  c #1C1314",
"o  c #2D0B06",
"O  c #270A0B",
"+  c #2C0C0A",
"@  c #340604",
"#  c #3D0505",
"$  c #350A06",
"%  c #3A0A06",
"&  c #340C0C",
"*  c #390A09",
"=  c #2B120D",
"-  c #3D1008",
";  c #33140E",
":  c #280E11",
">  c #231414",
",  c #2C1314",
"<  c #341514",
"1  c #3F1011",
"2  c #332311",
"3  c #3C2B16",
"4  c #291D23",
"5  c #262023",
"6  c #450303",
"7  c #4B0303",
"8  c #440904",
"9  c #4A0A05",
"0  c #4D0A0B",
"q  c #470808",
"w  c #530403",
"e  c #5B0403",
"r  c #540905",
"t  c #5A0905",
"y  c #520708",
"u  c #5B0708",
"i  c #540A09",
"p  c #5C0C0B",
"a  c #4E1502",
"s  c #5B1007",
"d  c #410B10",
"f  c #481619",
"g  c #640403",
"h  c #6C0403",
"j  c #640906",
"k  c #6C0A04",
"l  c #640709",
"z  c #6B0708",
"x  c #650C0B",
"c  c #6C0D0C",
"v  c #730403",
"b  c #7C0402",
"n  c #740B05",
"m  c #7C0903",
"M  c #730309",
"N  c #730A0B",
"B  c #7A0B0A",
"V  c #7D0609",
"C  c #64120E",
"Z  c #68100D",
"A  c #6E1206",
"S  c #771F06",
"D  c #761C08",
"F  c #77150D",
"G  c #6B0C15",
"H  c #770D10",
"J  c #6F1519",
"K  c #721313",
"L  c #7B1413",
"P  c #751815",
"I  c #7F1917",
"U  c #7D171A",
"Y  c #46230F",
"T  c #492F15",
"R  c #4D3618",
"E  c #47311D",
"W  c #6B2A04",
"Q  c #702608",
"!  c #682918",
"~  c #593D22",
"^  c #654828",
"/  c #745129",
"(  c #830403",
")  c #8A0402",
"_  c #830A05",
"`  c #8D0904",
"'  c #8B070A",
"]  c #820D0A",
"[  c #8E0C09",
"{  c #940403",
"}  c #9B0403",
"|  c #920B04",
" . c #9D0903",
".. c #900B08",
"X. c #9A090B",
"o. c #871A17",
"O. c #841D1A",
"+. c #8A1F1C",
"@. c #871616",
"#. c #981013",
"$. c #961B13",
"%. c #A30502",
"&. c #AB0402",
"*. c #A50A04",
"=. c #AD0900",
"-. c #A00B08",
";. c #AA0A0A",
":. c #B30503",
">. c #BB0403",
",. c #B30A03",
"<. c #BC0F0A",
"1. c #AC140D",
"2. c #883C08",
"3. c #85251D",
"4. c #8B221D",
"5. c #90231E",
"6. c #851D21",
"7. c #8F1F23",
"8. c #941E21",
"9. c #8D2423",
"0. c #8B2923",
"q. c #922728",
"w. c #982927",
"e. c #9D312B",
"r. c #972F32",
"t. c #973230",
"y. c #963039",
"u. c #9B3735",
"i. c #A33B3A",
"p. c #A33A39",
"a. c #C30502",
"s. c #CB0404",
"d. c #C60904",
"f. c #D70503",
"g. c #DC0605",
"h. c #D80804",
"j. c #D60809",
"k. c #C11606",
"l. c #E00000",
"z. c #E00809",
"x. c #EA0604",
"c. c #E61308",
"v. c #F81F0B",
"b. c #C42100",
"n. c #FF2113",
"m. c #F81F20",
"M. c #99520E",
"N. c #BF4E15",
"B. c #8C620D",
"V. c #9E412F",
"C. c #9A433C",
"Z. c #875832",
"A. c #AE5627",
"S. c #A35927",
"D. c #AD443B",
"F. c #B6443B",
"G. c #8C6438",
"H. c #C24E1A",
"J. c #E9661A",
"K. c #AD4C47",
"L. c #B44B44",
"P. c #B84E4E",
"I. c #B4564B",
"U. c #BF4F55",
"Y. c #BB5B53",
"T. c #B85452",
"R. c #BB665A",
"E. c #BF6E63",
"W. c #C05651",
"Q. c #C05B56",
"!. c #FF4C4B",
"~. c #FE5659",
"^. c #C55967",
"/. c #CA6963",
"(. c #CD716C",
"). c #D5766E",
"_. c #D37573",
"`. c #C1893A",
"'. c #B98840",
"]. c #B2AB69",
"[. c #CE8B49",
"{. c #C08F60",
"}. c #FFB4B7",
/* pixels */
"                                                                                                                                ",
"                                                                                                                                ",
"                                                                                                                                ",
"                                                                                                                                ",
"                                                                                                                                ",
"                                                                                                                                ",
"                                                                                                                                ",
"                                                                                                                                ",
"                                                                                                                                ",
"                                                                                                                                ",
"                                                                                                                                ",
"                                                                                                                                ",
"                                                                                                                                ",
"                                      Z i                                                                                       ",
"                                      Z                                                                                         ",
"                                                                                  h )                                           ",
"                                      _                                           v 9         ~.}.                              ",
"                                    7                         Z.                              m.!.                              ",
"                                    6         {.[.J.          T                               z.                                ",
"                                    g 7     | v.c._       ^ ^ 2                 G.            a.                                ",
"                                            g ( y 7       2 T 2               ~ /           s.v x.b h                           ",
"                                            ( h #     R     2 2               E ~           9 e 6 f.>.D                         ",
"                            b               l.M 6 6               8           3             6 6 6 # c 2.                        ",
"                                          n.>.e 6 6 6                             3           8 8 8 a B.                        ",
"                              g           &.( 7 6                                           9 :.a.6 ( M.                        ",
"                                                                                        I.%.w.u 7 ) 8 2.                        ",
"                                      6 7                                               O.q.V w 7 *.k                           ",
"                              (       6                                                 d.z h w w g g.                          ",
"                    (   h                                                                 ( v w w e >.                          ",
"                        v                         6                                         e w w h %.                          ",
"                      v     (               b       6                                   7     6 7 7 v                           ",
"                    %.) ( { (                                                                   6 6                             ",
"                    { &.{ ) (       %.          b                             w w                                               ",
"                    ) } a.f.%.    a.>.{   7                                   w w                                               ",
"                      e :.&.{   e b :.) g w             6                                                                       ",
"                        h     h w 7 7 7               6                                                                         ",
"                                  7 7                 6 6 7                                                                     ",
"                n                               h %.,.h 6 6                   w w     { w w   v                                 ",
"                  V                     e       8 &.>.) 6 6                   w y   h &...e   M >.b   w                         ",
"                            h e                 7 7 h y 7 7                       7 e e 6     B j.g.&.s.V                       ",
"                            v e                 7 b h e 7                         e     9.i.W.Q.^.U.N s.:.V   D W               ",
"                      V     u       e v         6 w g 7 6                               9.Y.L.K.K.U.E.) v V 0 $ Q               ",
"                          p.        u     L.      7 6 8                               ( w     M U O.L v w e | <                 ",
"                          6.r.            K e.                                      ( h w   l h   6 t h e g } (     s           ",
"            S.A.( e     l y.R.            u D.                                      e y     7 9   u 7 g w e ) )                 ",
"          H.`.k.a.` 7 g ' K.u.t.          t.@.X.            y                 w             z e     6 6 7 7 7 w V ]             ",
"          *.b.*.1.b M v ' /.T.          u u.Y.u.e.                                        h 4.N 7 7 7 6 7 w e w  .< H           ",
"          k n N.o.{ t t ( 8.G 6.      x y U e.e.+.                  ..                    3.v v e 7 h 7 e 7 h w 8 ) Q           ",
"          c _  .1.9   z &.| Y._.).L 6 u   @ P U x 9 e g                               +.0.w +.K h v N M b ( } y %.@ e           ",
"          ! | '.].9 e   v z q.p.P./.u 6 9 8 , % c z 0 v             Y.L.Y.          w.0 p.4.e O.u.V n ( s.>.) V.<.y 0           ",
"          O.9.#.$.c e g   x l l q.D.7.q y g + O 8 $ 0 %.e         R.+.G H N   x # o.x 6 h w y   c   B k a.) x C y 7 8           ",
"          Z C.X.;.] v 7 ( } 7 u p t.I.( z g & 0 % j N [ } g   w   K l x B   w e $.c 6 6 g {         7 7 g t 7 w 7 w Y           ",
"          Z c 4.C.#.} g -.} M 6 u w 0.w.v j | N d % = 4 q &.  e t 6 6 6 9   o.B y   7 6 ) %.          7 7 6 6 6 6 h             ",
"            c F.J ' a.B c t i ` y P e _ 4.j 9 >.r 9 8 7 < =.e 7 t g h e ) } e w 7   7 w ..6 y       6 6 7 w 8 6 7 w 7           ",
"              j q.u a.:.6 $ & n t 3.K r F n x - * 8 8 7 _ b %.g e w *.z V *.t Y.(.6 z n 6 v )     g  .g *.h w 6 7 7 v           ",
"                c   &.&.7 0 7 7 7 t p p r # < X > 6 7 6 h h v %.) 7 y { { { H x O.y 6 e 6 f.k v w h v :.%.%.7 w 6 @             ",
"                        6 8 # 9 9 y r e t o > + o 7 7 6 6 w 8  .| w 7 ( { ,.F p e 6 8 k f.{ =.` 6 7 h { %.{ g v # O             ",
"                    M   o , ` > s k z o $ o 9 ` r 7 7 6 6 6 7 w j b e b t e g y 7 6 w e r * ,.,.w w 7 ( b v g 7   w e           ",
"                  h ( ( % o h n > 1 < . c @ ; = $ 7 7 6 6 6 6 7 8 7 ` h b g 6 6 6 ) V v = 7 n e @ 7 7 6 7 7 6     w e           ",
"                    e   g g w 7 w 0 & t g o 7 e 6 6 6 6 6 7 7     7 w h ` ( w w t v ( t r k y 6 >     6 6 6 v                   ",
"                          g g w w w 7 7 w e g                   8 7 6 f _ v k v 7 w k O # 7 7               e 7                 ",
"                                                                7 7 8 4 w 7 w g 7 6 8 7 w                     7                 ",
"                                                            7 7 g 7 6 % # 6 6 7 7 6 6 e g 7                                     ",
"                                                                      6 6 6 6 6 6                                               "
};
