/* XPM */
static char *__death1684289023[] = {
/* columns rows colors chars-per-pixel */
"64 64 180 2 ",
"   c None",
".  c #1C1414",
"X  c #1A181B",
"o  c #250C06",
"O  c #2E0C06",
"+  c #270E0A",
"@  c #2C0C0B",
"#  c #3D0403",
"$  c #3E0A06",
"%  c #330708",
"&  c #330C0C",
"*  c #3A0C0B",
"=  c #330304",
"-  c #27120F",
";  c #29100D",
":  c #391007",
">  c #33120D",
",  c #230F10",
"<  c #241213",
"1  c #2D1313",
"2  c #2D171A",
"3  c #371211",
"4  c #351C18",
"5  c #2F2411",
"6  c #322613",
"7  c #3C2B16",
"8  c #3A2915",
"9  c #202327",
"0  c #2D2226",
"q  c #30292E",
"w  c #450403",
"e  c #4B0403",
"r  c #450905",
"t  c #4A0903",
"y  c #4E0509",
"u  c #470808",
"i  c #490E08",
"p  c #530403",
"a  c #5B0404",
"s  c #550905",
"d  c #5A0805",
"f  c #5A0509",
"g  c #5C0B0A",
"h  c #560B0E",
"j  c #42110E",
"k  c #541611",
"l  c #640403",
"z  c #6C0403",
"x  c #640A06",
"c  c #6A0A04",
"v  c #640509",
"b  c #6A050A",
"n  c #660A0C",
"m  c #6B0C0C",
"M  c #730404",
"N  c #7C0403",
"B  c #720904",
"V  c #7B0904",
"C  c #710C0B",
"Z  c #7D0909",
"A  c #790509",
"S  c #6A150F",
"D  c #760E13",
"F  c #6B1016",
"G  c #6E1418",
"H  c #7D1312",
"J  c #771715",
"K  c #402512",
"L  c #4A331B",
"P  c #702003",
"I  c #7C2807",
"U  c #662111",
"Y  c #4E3522",
"T  c #404030",
"R  c #684B29",
"E  c #634626",
"W  c #77552F",
"Q  c #830403",
"!  c #8B0403",
"~  c #840904",
"^  c #8C0903",
"/  c #880B09",
"(  c #8E070B",
")  c #930403",
"_  c #9C0403",
"`  c #910902",
"'  c #9C0B04",
"]  c #930B09",
"[  c #8F150E",
"{  c #891202",
"}  c #991803",
"|  c #881A1A",
" . c #951811",
".. c #95181B",
"X. c #A30402",
"o. c #AA0403",
"O. c #A40B01",
"+. c #AE0A03",
"@. c #A20D0A",
"#. c #B40502",
"$. c #BB0402",
"%. c #B40A03",
"&. c #BC0B04",
"*. c #A01703",
"=. c #BB1806",
"-. c #8D2116",
";. c #903E11",
":. c #8A1C24",
">. c #8D2322",
",. c #8E2A2A",
"<. c #882825",
"1. c #982728",
"2. c #8F3E2A",
"3. c #92332D",
"4. c #912F33",
"5. c #9C3636",
"6. c #AA2B26",
"7. c #A2332F",
"8. c #A23435",
"9. c #A33C36",
"0. c #A8363A",
"q. c #C30303",
"w. c #C40A04",
"e. c #C60508",
"r. c #CF0508",
"t. c #C90501",
"y. c #D20303",
"u. c #D90401",
"i. c #C71402",
"p. c #E90303",
"a. c #E10805",
"s. c #F50208",
"d. c #F40E10",
"f. c #E1340A",
"g. c #F62223",
"h. c #845008",
"j. c #A54A17",
"k. c #80542C",
"l. c #A6483A",
"z. c #AD443D",
"x. c #B54038",
"c. c #9B6C35",
"v. c #A17F3D",
"b. c #D94D10",
"n. c #E0490C",
"m. c #C56217",
"M. c #F5651E",
"N. c #FD473F",
"B. c #A73E41",
"V. c #A53348",
"C. c #9E4542",
"Z. c #A74340",
"A. c #AC4342",
"S. c #AD4D4D",
"D. c #B94647",
"F. c #B04940",
"G. c #B4494B",
"H. c #B75748",
"J. c #BA4E55",
"K. c #B55150",
"L. c #B45A53",
"P. c #B95C55",
"I. c #B15958",
"U. c #B95054",
"Y. c #997441",
"T. c #B8615E",
"R. c #B95B61",
"E. c #B87E67",
"W. c #C15A4E",
"Q. c #C1595B",
"!. c #F94547",
"~. c #C26456",
"^. c #C0605C",
"/. c #C06863",
"(. c #C66D68",
"). c #CA6A61",
"_. c #C47161",
"`. c #D37372",
"'. c #CD8044",
"]. c #FDB4B6",
/* pixels */
"                                                                                                                                ",
"                                                                                                                                ",
"                                                                                                                                ",
"                                                                                                                                ",
"                                                                                                                                ",
"                                                                                                                                ",
"                                                                                                                                ",
"                                                                                                                                ",
"                                                                                                                                ",
"                                                                                                                                ",
"                                                                                                                                ",
"                                                                                                                                ",
"                                                                                                                                ",
"                                                                                                                                ",
"                                                                                                                                ",
"                                                                                                                                ",
"                                                                                                                                ",
"                                                                                                                                ",
"                                                                                                                                ",
"                                                                                                                                ",
"                                                                                                                                ",
"                                                                                                                                ",
"                                m m                                                                                             ",
"                                m                                                               !.].                            ",
"                                                                                    z           d.g.                            ",
"                                c Q                         k.c.                    z A         q.                              ",
"                                w               j.      W R 6 Y                       d         #.                              ",
"                                p           _.M.n.      7 7 6 7                   Y.          o.v w.&.M                         ",
"                                z b       ! s.N         6 6 6       :           L R           w u w z +.-.                      ",
"                                          M z e     L     5                     K L           e w w # P h.                      ",
"                                          q.M w                                   7             e p b t h.                      ",
"                                        N.p.v e r                                   7         p M $.{ p B                       ",
"                                        p.! p u w r                                         E.@. .p e $.w                       ",
"                                    w e     w                                               ' C b a p M y.                      ",
"                                    e                                                         N M a p l u.                      ",
"                        )                                                                       a p p l _                       ",
"                                                                                            e     w e w N                       ",
"                  l                                                                                 e w                         ",
"                            l             a       w                                                                             ",
"                      M                           w                             p p                                             ",
"                    M !   N                       e                             p p                                             ",
"                  ) ! ~ ) N                                                                                                     ",
"                  ) o.) ) M   ) _                                                                                               ",
"                  ! ) t.u.)   $.$.!                                             p p     N b     N                               ",
"                    d $.#.! a A $.N N             w                               p     ! !     M N A                           ",
"                      d 1.9.  s a z         >.    u e                               z ) ) p     B a.y.X._ A                     ",
"                        ,.5.                h ~.    w e                             p N a n 5.Q.G.0.1._ r.o.M                   ",
"                      b :.(.,.              G  .( w w e     v                             Z.S.V.P.R.I.K.o.) ! 0                 ",
"                      z U.l.              b C.P.f w w w                                   p     :.0.W.Q.A a a ` q               ",
"                    Z ] P.T.              v 5.W.6.z M t p           B.J.T.            d a           p a z p a ) N i `           ",
"              2.M d p / K.    `.        M c % @ v * & _ a         S.9.:.<.<.    t <.  p a z.  L.  H.  p M d a X.! X.  `         ",
"            v.f.' Z d O.~ 8.A.Q./.1.M M b p < y e s @.#.a         P.D n N p w w ,.C p w Q 6.t 1.b >.v t e e p a l b %.T         ",
"          i.b.O.y.M b d b ^ g 0.0.(.b a d N ~ : ; * 2 3 V ~ B p a y e y e   ,.~ z p w w d e s l.b d t h p y a ! w w w )         ",
"        ^ z *.m.U _ V p ` _ v r x A.(.C N d g %.t t w & & $.a e p t w   v B g g w     # ' y J B z u u c V $.$.X.-.=.w w         ",
"        M B V } w.d e l ..n * ~ u f C F.[ Q r ' t u u p u ) c e a a +.d ) o.s | 8.e c Q a # V [ H z N G %.) N N t f e a         ",
"        ` g C >.| ( %.c c $ e t e s e p ] e k - @ w w w ^ b X.! N y z ! M N b 4.J.y w p = w.x B a N N Q ~ o.X.e t u u K         ",
"          x S | 3.B w.o.e y w w r a t t l % . . + w e w e B p X.Z e s V o.+.H f x e w w w.t.` a e p N _ Q $.$.p l M a           ",
"          g s p D v q.#.O * i @ l a t e s o - V Q e e w w e e ! _ c w ! l X.n n p # e ! e.g %.w.e e p ! ) l z M l 4 o           ",
"            p p A B B M O * ^ i 9 * s < @ O / > + e e w w # e w e l ~ z a e e e # Q ~ e & % o.Z e p e l l e p # e l l           ",
"                e Q ) ) r r e p r & X ; Q o + t # w w w w e w w e w z l ~ N w w z N B Q r ~ e e , p w w w w e a p p a a         ",
"                  l l e z z a e p t e t e a l l l w             e e t c ^ ! l l e Q ] > w e e e                                 ",
"                                                              e l e e 1 M e z z e w e w w p                     w N w           ",
"                                                          e z z M l e 0 w e w d e w # l l z z #                   w w           ",
"                                                                w p l e w w w e w p a w                                         "
};
