/* XPM */
static char *__death1684289023[] = {
/* columns rows colors chars-per-pixel */
"64 64 177 2 ",
"   c None",
".  c #1F0F10",
"X  c #1E1412",
"o  c #1C191A",
"O  c #2E0807",
"+  c #2C0D0C",
"@  c #220904",
"#  c #340705",
"$  c #3C0503",
"%  c #330906",
"&  c #3E0805",
"*  c #330C0B",
"=  c #3D0A08",
"-  c #24110E",
";  c #28100E",
":  c #3F1E0D",
">  c #280D10",
",  c #2C1313",
"<  c #241D1C",
"1  c #311312",
"2  c #341B1A",
"3  c #3E1516",
"4  c #322311",
"5  c #3A2A14",
"6  c #3E2D18",
"7  c #2B1D23",
"8  c #450403",
"9  c #4B0403",
"0  c #450904",
"q  c #4D0805",
"w  c #4A0708",
"e  c #4D0909",
"r  c #520403",
"t  c #5B0403",
"y  c #530B04",
"u  c #5C0A05",
"i  c #550508",
"p  c #5B0509",
"a  c #5B0B09",
"s  c #520A0B",
"d  c #4C1009",
"f  c #630503",
"g  c #6C0402",
"h  c #630903",
"j  c #6A0A06",
"k  c #690508",
"l  c #630909",
"z  c #6B0C0B",
"x  c #730402",
"c  c #7B0403",
"v  c #730B04",
"b  c #7C0A04",
"n  c #740308",
"m  c #710B0A",
"M  c #7E080B",
"N  c #61130A",
"B  c #611C0F",
"V  c #741005",
"C  c #73140F",
"Z  c #7A0F13",
"A  c #6E1717",
"S  c #621112",
"D  c #721214",
"F  c #7D1917",
"G  c #7D1716",
"H  c #48201C",
"J  c #472E18",
"K  c #4E2A16",
"L  c #49321B",
"P  c #50351E",
"I  c #5A3C1C",
"U  c #732104",
"Y  c #603C1D",
"T  c #74361B",
"R  c #5B3D21",
"E  c #7D302A",
"W  c #5C4024",
"Q  c #755029",
"!  c #784730",
"~  c #830502",
"^  c #8B0503",
"/  c #830B04",
"(  c #8A0803",
")  c #85050A",
"_  c #830F0B",
"`  c #930402",
"'  c #9A0402",
"]  c #920903",
"[  c #9B0904",
"{  c #9C0D0A",
"}  c #820E13",
"|  c #890E11",
" . c #8A1616",
".. c #821919",
"X. c #8C1D19",
"o. c #871716",
"O. c #931512",
"+. c #9F1317",
"@. c #9B181E",
"#. c #A30503",
"$. c #AB0503",
"%. c #A60902",
"&. c #A50808",
"*. c #AB0D04",
"=. c #B20503",
"-. c #BE0503",
";. c #B30A03",
":. c #BD0806",
">. c #BD060B",
",. c #A01F0A",
"<. c #A5130D",
"1. c #8C2F03",
"2. c #8C251E",
"3. c #86211D",
"4. c #BC2816",
"5. c #921D24",
"6. c #862121",
"7. c #8B2322",
"8. c #8F2B2B",
"9. c #98282E",
"0. c #9C2A25",
"q. c #99362C",
"w. c #9F2E35",
"e. c #943833",
"r. c #A4282D",
"t. c #A3312A",
"y. c #AB2D30",
"u. c #A13932",
"i. c #A43F3C",
"p. c #A93735",
"a. c #B13834",
"s. c #C50906",
"d. c #CC0B03",
"f. c #C40705",
"g. c #D30603",
"h. c #C81001",
"j. c #E60A09",
"k. c #E90504",
"l. c #F5080D",
"z. c #F10605",
"x. c #F51614",
"c. c #FF3F3F",
"v. c #A55905",
"b. c #B17219",
"n. c #A5483D",
"m. c #8F653A",
"M. c #C84500",
"N. c #DB5B11",
"B. c #FD620A",
"V. c #D06C3A",
"C. c #9E3642",
"Z. c #A63E40",
"A. c #AD4843",
"S. c #B44340",
"D. c #B64E48",
"F. c #AC514E",
"G. c #A9584E",
"H. c #BF5752",
"J. c #B5565A",
"K. c #BE5C5B",
"L. c #B37D4B",
"P. c #B7605B",
"I. c #B67266",
"U. c #C55851",
"Y. c #CC5E5C",
"T. c #FB5C5F",
"R. c #CA685B",
"E. c #C26163",
"W. c #CB6B67",
"Q. c #D07D6F",
"!. c #CA6E70",
"~. c #C87D77",
"^. c #DA891F",
"/. c #D88049",
"(. c #D88886",
"). c #FD888A",
"_. c #DDA292",
/* pixels */
"                                                                                                                                ",
"                                                                                                                                ",
"                                                                                                                                ",
"                                                                                                                                ",
"                                                                                                                                ",
"                                                                                                                                ",
"                                                                                                                                ",
"                                                                                                                                ",
"                                                                                                                                ",
"                                                                                                                                ",
"                                                                                                                                ",
"                                                                                                                                ",
"                                                                                                                                ",
"                                                                                                                                ",
"                                                                                                                                ",
"                                                                                                                                ",
"                                                                                                                                ",
"                                                                                                                                ",
"                                                                                                                                ",
"                                                                                                                                ",
"                                                                                                                                ",
"                                                                                                                                ",
"                                                                                                                                ",
"                                                                                                                                ",
"                                                                                                                                ",
"                                                                                                                                ",
"                                                                                                                                ",
"                                                                                                                                ",
"                                                                                                                                ",
"                              A r                                                                                               ",
"                            j z                                                                                                 ",
"                                                                                                                                ",
"                              c                                                                     T.).                        ",
"                            0                           Y L.                                        x.                          ",
"                            t p           V.R.B.    R Q 6 5                                         s.                          ",
"                                        k *.f 9     4 5 4 5                         T x           g.:.k.                        ",
"                                        ~ $.9 8 P     4 4           0             W ! f r         r r f v                       ",
"                                        z.>.r 8                                   L I             9 0 0 U 1.                    ",
"                                      T.l.) w 0 0                                 6 J             r 9 & v.b.                    ",
"                                        +.w 8                                       6             0 ' { t /                     ",
"                                9 9                                                             r.` S g q g                     ",
"                    `   t       8 8                                                             E O.h t d.v                     ",
"                                                                                                :.j h l #.s.                    ",
"                                              9                                                   x g t ` d.                    ",
"                    c     f               n.    0                                                   a t ` '                     ",
"                    c } W.                q.7.                                                  s.j.[ ` ~                       ",
"              f     #. .e.                  n.                                            6.H.D.S.r.| :.g.c                     ",
"                  #.M n ~.                ..D <.                                r         K.C.G.!.F.J.) $.) l                   ",
"                  ^ g 5.D.    =.          D Y.5.i                                       x z     u.Y.A.a.n r x e                 ",
"                  g [ @._.s     c       f Z n.~.8 t c               E.F.              ~ `           r k h r ^ ^ e b             ",
"                g   b y.R.    W.        x l > 8 f + ] t           J.u.7.7.    z 8 2.f M n t.f Z./ G 9 k x r ( ` / l 3           ",
"            ^.#.;.w ' $.X.9.E.E.(.n c x h * # w 9 b ;.#.r   f     i.m k ~ 0 0 9 8.h 9 t ( A.r G k 0.i r 9 q t t h ' B K         ",
"          N.,.d.%.f g q [ w X.a.Z.0.l t g b / 1 a - 2 & %.g t t p w 8 w     G x f 8 0 9 u 8 n  .p r 0 a r r x h q 0 f N         ",
"        c v M.m./ #.q ^ %.b 8 8 ..U.X.n b q *.[ 0 0 w 7 ] c f 9 t 8 8 t g j u u       f ] 8 q.g h 8 r / ' -.#.b 4.[ & w         ",
"        x / v h.j w t 2.&.> ~ a 0 h _ I.^ & ] j 9 8 8 h f $.r f t ' [ g $.] w U.s r / c 8 g b 7.k n j O.$.c ~ r 8 i 9           ",
"        i h t.} G ;.%./ q = 8 9 t r 8 c q { ; X 0 0 8 t b c #.c t r ` x n n n R.A 8 9 8 t d.t x h ^ c n ' #.~ 8 q 0 & :         ",
"        t D k u.a ;.-.9 9 & 8 $ 8 r q r 8 - X X 8 9 9 $ g r c =.x 8 x ' $.[ 3.a t 8 8 c g.~ ` 9 t f ^ ' ` -.$.r x g 0           ",
"        q f 8 l m $.f.9 + ^ - k t t q q 9 - y b x 9 8 8 8 9 t #.~ 9 r ^ x ` z t 8 8 9 f.^ ` d.f 9 9 ~ ` c f x g # 2 @           ",
"          0 x x b x c 9 , b ] o < u O < 9 y v , 8 9 8 9 8 8 8 9 r ~ c g r 9 q 9 9 ] t % * x $.h r 9 9 x r r 9 $ t h t           ",
"            $ c ~ ^ ` t 8 0 9 q 8 X X v t - 0 8 8 0 8 9 9 8 8   8 t ~ g ~ f 8 8 ~ g x g r V 8 % + 9 8 8 8 9 r t t t t           ",
"                  g c x g f t t r 0 r r 0 h f g g g 8 8         9 9 q ( ^ ~ g r r ` H O 8 r q 8                                 ",
"                              q x g $                         t t t # % g 9 g f 9 8 8 8 8                     0 9 x             ",
"                                                          g x x t t # 1 8 9 8 t 8 $ r f g x x t                   8 q           ",
"                                                                x x f q 8 8 9 8 9 g t t r 9                                     "
};
