/* XPM */
static char *__death1684289023[] = {
/* columns rows colors chars-per-pixel */
"64 64 179 2 ",
"   c None",
".  c #1C1718",
"X  c #1C1413",
"o  c #2A0C06",
"O  c #240D0B",
"+  c #2C0C09",
"@  c #3D0504",
"#  c #360B07",
"$  c #3D0A05",
"%  c #330C0B",
"&  c #3B0C0B",
"*  c #2D100C",
"=  c #391006",
"-  c #34110D",
";  c #3A120C",
":  c #231212",
">  c #2A1214",
",  c #361414",
"<  c #351B1B",
"1  c #35200E",
"2  c #342412",
"3  c #3C2713",
"4  c #3B2916",
"5  c #311E23",
"6  c #202125",
"7  c #2E2123",
"8  c #3D3823",
"9  c #362F35",
"0  c #450403",
"q  c #4B0403",
"w  c #450904",
"e  c #490803",
"r  c #450E09",
"t  c #4B0409",
"y  c #530503",
"u  c #5B0503",
"i  c #550805",
"p  c #5D0904",
"a  c #51070A",
"s  c #5F070A",
"d  c #540C09",
"f  c #5B0A09",
"g  c #40150E",
"h  c #4A110D",
"j  c #51140E",
"k  c #630503",
"l  c #6C0402",
"z  c #650B06",
"x  c #6C0904",
"c  c #610308",
"v  c #6A0709",
"b  c #650C0B",
"n  c #6A0B0B",
"m  c #740503",
"M  c #7B0502",
"N  c #740A03",
"B  c #7B0903",
"V  c #73070F",
"C  c #780408",
"Z  c #780808",
"A  c #6E120F",
"S  c #73140A",
"D  c #730C12",
"F  c #731414",
"G  c #791210",
"H  c #771816",
"J  c #442C18",
"K  c #442B15",
"L  c #44311B",
"P  c #4B331E",
"I  c #54391E",
"U  c #7E3B1C",
"Y  c #422524",
"T  c #583B20",
"R  c #634023",
"E  c #6B4622",
"W  c #774C2A",
"Q  c #830502",
"!  c #8C0503",
"~  c #850903",
"^  c #8B0A02",
"/  c #8D0508",
"(  c #8A0C09",
")  c #920502",
"_  c #9C0503",
"`  c #940907",
"'  c #9B0A03",
"]  c #950709",
"[  c #990408",
"{  c #9C0809",
"}  c #930E0C",
"|  c #83160C",
" . c #951201",
".. c #9E1303",
"X. c #95120A",
"o. c #81111E",
"O. c #831E1B",
"+. c #981E15",
"@. c #931918",
"#. c #991A1B",
"$. c #A50502",
"%. c #AB0502",
"&. c #A30903",
"*. c #AB0903",
"=. c #AB0208",
"-. c #B10503",
";. c #BB0601",
":. c #B30904",
">. c #BC0B03",
",. c #A01401",
"<. c #B31104",
"1. c #BB1808",
"2. c #9D270A",
"3. c #892010",
"4. c #901E28",
"5. c #9D1C22",
"6. c #8C2123",
"7. c #8F2B2A",
"8. c #842924",
"9. c #992320",
"0. c #912925",
"q. c #9B2B2C",
"w. c #942528",
"e. c #953027",
"r. c #91332C",
"t. c #932D36",
"y. c #9D3235",
"u. c #9F3538",
"i. c #B12D2B",
"p. c #A43D3E",
"a. c #A53735",
"s. c #C20401",
"d. c #CC0A07",
"f. c #C70803",
"g. c #D7050A",
"h. c #DA0609",
"j. c #E3080E",
"k. c #EA0D0C",
"l. c #F7130F",
"z. c #D42107",
"x. c #FA2226",
"c. c #8E5732",
"v. c #A44737",
"b. c #A5423C",
"n. c #AB4439",
"m. c #B1403C",
"M. c #D84016",
"N. c #D74C12",
"B. c #D06D1C",
"V. c #C0503C",
"C. c #AD4644",
"Z. c #B34241",
"A. c #B14E47",
"S. c #B34E48",
"D. c #BE4D4D",
"F. c #AC5041",
"G. c #B55641",
"H. c #B2514C",
"J. c #B6594F",
"K. c #BB5949",
"L. c #B04E54",
"P. c #B35453",
"I. c #BC5455",
"U. c #B4585B",
"Y. c #B75D53",
"T. c #B76360",
"R. c #BE666C",
"E. c #B5726C",
"W. c #C2584B",
"Q. c #C05F5A",
"!. c #FF4846",
"~. c #C6665E",
"^. c #C96255",
"/. c #C46363",
"(. c #CD6A66",
"). c #CB706B",
"_. c #EC746F",
"`. c #AE8A4A",
"'. c #FF9FAD",
/* pixels */
"                                                                                                                                ",
"                                                                                                                                ",
"                                                                                                                                ",
"                                                                                                                                ",
"                                                                                                                                ",
"                                                                                                                                ",
"                                                                                                                                ",
"                                                                                                                                ",
"                                                                                                                                ",
"                                                                                                                                ",
"                                                                                                                                ",
"                                                                                                                                ",
"                                                                                                                                ",
"                                                                                                                                ",
"                                                                                                                                ",
"                                                                                                                                ",
"                                                                                                                                ",
"                                                                                                                                ",
"                                                                                                                                ",
"                                                                                                                                ",
"                                                                                                                                ",
"                                                                                                                                ",
"                                                                                                                                ",
"                                                                                                                                ",
"                                                                                                                                ",
"                                                                                                                                ",
"                                                                                                                                ",
"                                                                                                                                ",
"                                                                                                                                ",
"                                                                                                                                ",
"                                                                                                                                ",
"                                                                                                                                ",
"                                                                                                                                ",
"                                                                                                                                ",
"                                                                                                                                ",
"                                                                                                                                ",
"                                                                                                                                ",
"                                                                                                                                ",
"                          f a                                                                                                   ",
"                        A n                                                                                                     ",
"                                                                                                                                ",
"                          B                                                                                                     ",
"                        t                             c.                                                '.                      ",
"                        0                 O.2.    E R J W                                             x.!.                      ",
"                        k A.            n n.D ,.  T I 4 L                             N               j.                        ",
"                          4.a.          z k v.    3 2 2 3                             z Q       ( k.h.*.$.C                     ",
"                        b w.~.          V A n.+.    2 1                             E z a D t.^.P.q.5.[ d.%.v                   ",
"                        l L.p.        _.g.H.E.}                                   P I     p.P.p./.R.T.J.=.[ / Y                 ",
"                        { P.          l.-.w.n.i.Z                                 4 J       Z.Y.o.C.W.U.C s y _ 9               ",
"                      ^ N /.              s #.X.x   B               H.C.H.            3           a t u m y k / C s )           ",
"              3.C i i &.m     (.        Z l # - p # + B           H.Z.6.e.3.    d 8.    k b.  Y.  V.a y m u k ) Q $.5 /         ",
"            `.M.' ~ k $.] p.C.I.~.  C m k i > q e i ..:.y         K.D b Z a @ 0 7.S w   B 9.t q.v 6.c y y y y u k l *.8         ",
"          z.N.' s.m z l u ( a m.a.(.v s k B ^ = - $ , - B ) l f s a q q w   7.( l y 0 0 p 0 i F.c f q f a q y M @ 0 @ '         ",
"        ) z ..B.8._ B u ^ $.k @ i C.).b B f p <.e w w & % ;.  q i e e   k N u p e     @ ' q H m x 0 q N Q ;.;._ @.1.0 @         ",
"        m N ~  .>.p q u @.b & ( 0 u x W.y.B e ' q 0 w y ; ) x y u p :.i ! $.u 4.y.t z Q u @ B | F l M F :./ M M q s q y         ",
"        ! z n 7.6.^ <.k x 0 q 0 y i q y ( e j : * 0 q 0 ^ k $.~ C q m Q m M c a.W.q 0 q # f.z N k M B M M $.$.q q w $ L         ",
"        w z F Z r.B ;.*.0 e 0 0 @ u y e k # : X O 0 q 0 q M y $.M q i M $.*.F y z q   q s.s.) u q y m _ Q %.;.y l M p           ",
"          p q q D c s.-.% # h % l y q q q o o S ~ y 0 0 0 0 q Q { l q Q k $.l v q 0 y Q f.d :.>.0 q u Q ! l l M k < O           ",
"            y N B M N M % + ^ r 6 ; i : % o ( = o y q 0 0 @ q q y u ~ l k q e q 0 Q ~ y * $ -.B y y q l k y u 0 0 k k           ",
"              u M M ) ^ w e i y w # . % B * o w $ 0 0 0 q 0 0 q 0 q l k ~ M 0 0 x M k Q e ^ 0 y : y 0 0 q 0 q u y y y u         ",
"                  m M Q M l i t q 0 $ $ q k k k l x k q         q e q N Q Q k k 0 M [ - 0 0 q q                                 ",
"                          e l m m M M l u                     u u u q > l y m m y 0 q 0 0 y                     0 Q 0           ",
"                                                          l l m l u q 7 q q 0 i q 0 @ u k l l l                   q 0           ",
"                                                                l M m 0 0 0 0 q 0 u M M l u @                                   "
};
