/* XPM */
static char *__death1684289023[] = {
/* columns rows colors chars-per-pixel */
"64 64 161 2 ",
"   c None",
".  c #1C1413",
"X  c #1B1718",
"o  c #260C06",
"O  c #2B0C06",
"+  c #2D0D0A",
"@  c #340302",
"#  c #3E0503",
"$  c #340D06",
"%  c #3C0C07",
"&  c #320709",
"*  c #340C0B",
"=  c #3B0D09",
"-  c #25110F",
";  c #29110D",
":  c #381006",
">  c #34110C",
",  c #38100D",
"<  c #231414",
"1  c #2B1214",
"2  c #331516",
"3  c #3F1011",
"4  c #371D18",
"5  c #1E2125",
"6  c #2C2022",
"7  c #2F2228",
"8  c #312226",
"9  c #450503",
"0  c #4B0403",
"q  c #440A05",
"w  c #4C0904",
"e  c #440B09",
"r  c #4F0B0A",
"t  c #530503",
"y  c #5C0503",
"u  c #540905",
"i  c #5B0A05",
"p  c #5C060A",
"a  c #570B08",
"s  c #5A0A09",
"d  c #46130E",
"f  c #52130E",
"g  c #630503",
"h  c #6C0402",
"j  c #640A04",
"k  c #6B0905",
"l  c #660608",
"z  c #690709",
"x  c #640C0A",
"c  c #6A0B0B",
"v  c #730503",
"b  c #7C0403",
"n  c #730A04",
"m  c #7B0A03",
"M  c #740C0F",
"N  c #7D0F0C",
"B  c #67110B",
"V  c #741213",
"C  c #7B1311",
"Z  c #7B1D19",
"A  c #442511",
"S  c #452C14",
"D  c #543B1D",
"F  c #5C391D",
"G  c #662011",
"H  c #7C1E24",
"J  c #5B3D21",
"K  c #423F30",
"L  c #7E2423",
"P  c #6A3D24",
"I  c #704B2D",
"U  c #840502",
"Y  c #8C0503",
"T  c #850B04",
"R  c #8B0902",
"E  c #800E08",
"W  c #8D0F08",
"Q  c #940503",
"!  c #9B0503",
"~  c #930B04",
"^  c #9A0A00",
"/  c #910909",
"(  c #88110D",
")  c #971302",
"_  c #9E1001",
"`  c #9A120E",
"'  c #8A1114",
"]  c #841E13",
"[  c #871418",
"{  c #851A19",
"}  c #8C1919",
"|  c #9E1B1E",
" . c #A40502",
".. c #AD0602",
"X. c #AC0A01",
"o. c #B40501",
"O. c #BC0702",
"+. c #B40B03",
"@. c #B90902",
"#. c #A11804",
"$. c #B51606",
"%. c #8C211F",
"&. c #871F20",
"*. c #881F20",
"=. c #A01E20",
"-. c #8C2322",
";. c #892A23",
":. c #8B2528",
">. c #8F2B2B",
",. c #922725",
"<. c #992625",
"1. c #972F2E",
"2. c #982A29",
"3. c #933C27",
"4. c #9C312E",
"5. c #9D3130",
"6. c #9F3D36",
"7. c #9C3738",
"8. c #9F3A3E",
"9. c #A12D2D",
"0. c #A3342E",
"q. c #A93734",
"w. c #A13A36",
"e. c #A33B3B",
"r. c #C40203",
"t. c #CD0304",
"y. c #C20B02",
"u. c #D60608",
"i. c #C21102",
"p. c #EE0908",
"a. c #E53C12",
"s. c #9F443E",
"d. c #A9453F",
"f. c #AD4938",
"g. c #9D763D",
"h. c #D84E12",
"j. c #C66518",
"k. c #A63E42",
"l. c #A54844",
"z. c #AD4A4B",
"x. c #B34440",
"c. c #B34E45",
"v. c #B44C4D",
"b. c #AF504F",
"n. c #B1524F",
"m. c #BC504F",
"M. c #B95D4E",
"N. c #B55656",
"B. c #BE5155",
"V. c #BB5D55",
"C. c #BA575A",
"Z. c #B45D5C",
"A. c #B3625D",
"S. c #BE625F",
"D. c #BA6561",
"F. c #BE666E",
"G. c #BE696F",
"H. c #C35855",
"J. c #C46161",
"K. c #C66B6A",
"L. c #CA736E",
/* pixels */
"                                                                                                                                ",
"                                                                                                                                ",
"                                                                                                                                ",
"                                                                                                                                ",
"                                                                                                                                ",
"                                                                                                                                ",
"                                                                                                                                ",
"                                                                                                                                ",
"                                                                                                                                ",
"                                                                                                                                ",
"                                                                                                                                ",
"                                                                                                                                ",
"                                                                                                                                ",
"                                                                                                                                ",
"                                                                                                                                ",
"                                                                                                                                ",
"                                                                                                                                ",
"                                                                                                                                ",
"                                                                                                                                ",
"                                                                                                                                ",
"                                                                                                                                ",
"                                                                                                                                ",
"                                                                                                                                ",
"                                                                                                                                ",
"                                                                                                                                ",
"                                                                                                                                ",
"                                                                                                                                ",
"                                                                                                                                ",
"                                                                                                                                ",
"                                                                                                                                ",
"                                                                                                                                ",
"                                                                                                                                ",
"                                                                                                                                ",
"                                                                                                                                ",
"                                                                                                                                ",
"                                                                                                                                ",
"                                                                                                                                ",
"                                                                                                                                ",
"                                                                                                                                ",
"                                                                                                                                ",
"                                                                                                                                ",
"                                                                                                                                ",
"                                                                                                                                ",
"                                                                                                                                ",
"                          -.z.            -.                                                                                    ",
"                          ,.              i <.                                                    p.u.O. .b                     ",
"                        V { D.            z f.2.                                            1.v.B.9.=. .t. .v                   ",
"                        k C.              w.A.|                                           7.b.e.F.F.Z.N. .Q U 8                 ",
"                        ! Z.D.            H V.9.k                                   P           [ x.v.D.b l t W                 ",
"                      E v K.z.          v p ' ` h   n               k.B.Z.        J I B E           t g h t l Y v r W           ",
"              3.n   y  .z     J.        v k = + g % * m           N.4.&.;.Z     e J F D c 0.  l.  0.t u v y g ! T ! 7 /         ",
"            g.a.~ T g  .Y w.e.N.K.  v v k t 1 t w t #.o.t     l   V.M c b a % q >.c S D m =.r 1.l 9.p t 0 t t y g k ..K         ",
"          i.h.^ r.v l k l W y q.e.L.k y g n U $ * % 2 > b U v y y 0 t 0 9   >.U h y 9 9 i 0 a d.z a 0 a u u y U 9 u 9 Q         ",
"        Y k #.j.G ! b y ~ ! z 9 y l.L.k b i j $.q 9 q = * o.  w t 0 e   h n i a       q R r Z v k 9 0 n m @.o.! } $.% #         ",
"        v n m ) O.i t y } x * T q y k c.( U q ^ 0 9 9 u d Y h t y y ..y R  .y ,.5.0 k U y # m N V l b V ..Q b b t p t y         ",
"        Q x c :.{ Q X.j k 9 t 0 t t 0 t W r f ; ; 9 w 9 R g  .Y b r k Y v b z -.H.0 9 w @ y.x n y b U b E  . .t r q 0 A         ",
"        9 x c ] L m O...0 u 9 9 # y w w g & < . - 9 0 9 0 v t  .b 0 y m .. .C p j t   9 y.r.Q y 0 t b ! U o.o.t g v y           ",
"          x u 0 V z O.o.+ & e * h t w 9 t O ; m U t 0 9 9 0 0 U Q h 9 Y g ! z c 0 # r U r.y o.y.9 0 y Y Y v h v h 4 o           ",
"            g v b b v b $ ; R q 5 > u < * O T : o w 0 9 9 9 9 0 t g U h g 0 w t # U U t * & o.U t t 0 g g 0 y # 9 g g           ",
"              g b b Y R 9 0 w u w : X * m O ; w # 0 0 9     9 9 9 0 h g U b 9 9 v b h U q E 9 w . 0 9 9 0 9 0 y t y y y         ",
"                0 v b U b v y w 0 9 # # w g y h h h             0 0 0 n U Y g h 0 U Q , 0 0 0 9                                 ",
"                          w h v b v v h g                     y y y 0 1 v 0 h h t 9 0 9 # t                     9 b 9           ",
"                                                          h v v v y 0 6 9 0 9 y 0 9 # g h h h h                   9 9           ",
"                                                                h b v 0 9 9 9 0 9 y v v h g 9                                   "
};
