/* XPM */
static char *result[] = {
/* columns rows colors chars-per-pixel */
"64 64 44 1 ",
"  c #181715",
". c #1A1916",
"X c #1E1C18",
"o c #241711",
"O c #261913",
"+ c #2A1C14",
"@ c #221E19",
"# c #222017",
"$ c #2D2017",
"% c #26231A",
"& c #2B241B",
"* c #2E2B1F",
"= c #322419",
"- c #36291C",
"; c #3A2D1E",
": c #262421",
"> c #292723",
", c #2E2B27",
"< c #3D2F20",
"1 c #312E29",
"2 c #3E3121",
"3 c #37322E",
"4 c #3C3832",
"5 c #443524",
"6 c #473826",
"7 c #4A3A27",
"8 c #4F3E2A",
"9 c #503F2A",
"0 c #53412C",
"q c #59452F",
"w c #5B4730",
"e c #5D4932",
"r c #634D35",
"t c #665036",
"y c #685237",
"u c #685238",
"i c #5B534A",
"p c #635B51",
"a c #72675C",
"s c #74695E",
"d c #766B60",
"f c #7B7064",
"g c #908274",
"h c None",
/* pixels */
"hhhhhhhhhhhhhhhhhhhhhhhhhhhhhhhhhhhhhhhhhhhhhhhhhhhhhhhhhhhhhhhh",
"hhhhhhhhhhhhhhhhhhhhhhhhhhhhhhhhhhhhhhhhhhhhhhhhhhhhhhhhhhhhhhhh",
"hhhhhhhhhhhhhhhhhhhhhhhhhhhhhhhhhhhhhhhhhhhhhhhhhhhhhhhhhhhhhhhh",
"hhhhhhhoooooohhhhhhhhhhhhhhhhhhhhhhhhhhhhhhhhhhhhhhoooooohhhhhhh",
"hhhoooooooooooooooooooooOoOooooooooOoooooooooOoOooOooo+oooooohhh",
"hhhoo+==$====++=-========$++++$++++O+++++O+++OOOOOOO++++++ooohhh",
"hhhoO5875<<6900rreeewwwwwrqrrrrrrrqeqqqrqrrqqq00qq9e95<997<+ohhh",
"hhho+78<X..@59999099998899999q9000qqqqqqeqrrrttttyt7@X.@597+ohhh",
"hhho+75X.,: @69756855688070007709998888888898090006X.,> @77+ohhh",
"hhho+72 1fd>.396;252;288007770079998989889988856882 1fd>.27+ohhh",
"hhho+7< ,dd> <7767755588700000009979988889888856882 ,da>.27+Ohhh",
"hhhoO5;X.>: X;<<2222255552555566667776776675667777<X.:: X<6+ohhh",
"hhhoo-;&.  o&--------------;;;;;;;2;<;5;<<<;2;<<2<;&X  @=;<Oohhh",
"hhhooOoooooooOOOOOOOOOOOOOOOOOO+++++$$+$$&&===-==&++Ooo+==&Oohhh",
"hhhooOooOOOOOOOoOOOOooOoOoOoOOooooooooooooooOOOoooooooooooooOhhh",
"hhhoo=---------OO&&=*&*&&*&&&&&%oo++$%+@++++O+Ooo+====$&++Ooohhh",
"hhho+;;;;;<<;;;oO=->***********OOO***********&$oO;;;<;;;;;-Oohhh",
"hhhoO;;;<-;;<;;oo******,******OoO************#ooO;;;;;;<<;;Oohhh",
"hhhoO;<<5<<555-Oo*******&#&**OoO&*********-*$oooo;;;;;<<;;;Oohhh",
"hhho+6777768676OO***-***%#%*#oO&***********#oo%OO;;<<555562+ohhh",
"hhho+7998888887+O*********&OOO************+oo&*OO;577988997Oohhh",
"hhho+7889898887+O*******-&#oO&***********#oO%*&OO5799998997+ohhh",
"hhhoO7898888887+O*******&#OO&***********$oo&***O+7998888997+ohhh",
"hhho+7889888887Oo*******#oO&***********Ooo&****OO7999898887+ohhh",
"hhho+6999999987+O&*****#oO&***********#oO&****&O+7888999897+ohhh",
"hhho+7997997887+O*****Ooo&***********%oo&******O+7898997887+ohhh",
"hhho+7999999986+o****OOO&***********$oO$**-****O+7889899887Oohhh",
"hhho+6999799887+O***OOO&***********&oO&********O+7898899897+ohhh",
"hhho+7979998885oO*&#oo&******1****#oo&******-,*O+7989997997+ohhh",
"hhho+7998888995+O%#oO&**********&+oO&*****,**>&O+6897999997+ohhh",
"hhho+799888889<oOOOO&**********&OoO&**********&o+7889999977Oohhh",
"hhhoO799898989<oOoO&-**********Oo#&**********&oo+7989799995Oohhh",
"hhho+788989899<oOO**********-&oo+&**********&#oo+7006000602Oohhh",
"hhho+789888779<oO************Oo#*-*********&OOOo+707006070;oohhh",
"hhho+788888<<85oO***********#oO***********&OOO&oO707077000-oOhhh",
"hhho+7898985<85+O**********$oO&**********&OoO**O+670700670;OOhhh",
"hhhO+7888887707+o&********$oO&******1***&ooO***O+7070700985Oohhh",
"hhho+7888998677OO********#oo************OoO***&O+7070070795Oohhh",
"hhho+7888897<26+O*****-&$oo&**********&Oo#*****O+7007070997OOhhh",
"hhho+7898887;<6+O******#oo&**********&OoO*****&O+7070626997OOhhh",
"hhho+7998887556+O*****+oO&**********&OoO*******O+7999767797+ohhh",
"hhho+7998088887+o****#oO&***********OoO********o+6999899997+ohhh",
"hhho+7798888886+O&**#oO$*1*******-&#O#********&O+6975696697+ohhh",
"hhhOO7988888887OO**#oO&**********&Oo#&*********O+796;57<<77+ohhh",
"hhho+7755088887+o&#oo&**********&Oo#&**********O+797576;577+ohhh",
"hhho+76;5808807+o$oo&-**********OOO*%#&*******&O+7997975597+ohhh",
"hhho+7756008887+ooO&**********&OoO**&#%********O+7979997797+ohhh",
"hhho+7798888887+oO&*******>**&ooO****%%%#******O+7999799997+ohhh",
"hhho+7998888987+o$>*********&OoO******&##&****&O+7998888887+ohhh",
"hhho+7999999897+O**********&oo+********&&*****-OO7998899997Oohhh",
"hhhoO<<<<<<<<55oo$$$&&&&&&&Ooo$&&%&&&&&&&%&&&&&oo;5;<<<<<<=O+hhh",
"hhhoooooooooooooooooOooooooooooooooooOoooooooOoOoooooooOooooohhh",
"hhhooO++$++++oo+========&++$+$+$$+$+$+$+$$++++$$++++==$+$=+oohhh",
"hhhoO<66<:@+55579qrrttttttrrrrrrtrrtterrtrrtrrrrrrre95<6975oohhh",
"hhhOO695@   O599990qwrrrtrtrtyyyyttyttttrrteerrer995@  @596+ohhh",
"hhho+59& 4p1 =9755955799000000000000800808008888887+.1>.@75+ohhh",
"hhho+57%.pgi @77;27<;<7988889898888888888898885580; 1fd> <6Oohhh",
"hhho+57% 3i, :7767755799989988880888880899888857882 ,da>.26Oohhh",
"hhhoO<5=... X=<5<255255555555557566667555655555765,X >: X<<OOhhh",
"hhhoo-;;>+@+=-;---=------;-;;;;;;;;;;;;;;;;;;;<2<;<$   X=<-Oohhh",
"hhhooO+O++OO+OOOOOOOOOOOOOOOOOO+++++$+$+$$$$=$==&+OOoooO+++Oohhh",
"hhhoooOOoooooooOoooooooooooooooooooOooooooooooooooooooooOoooohhh",
"hhhhoooooooooooOhhhhhhhhhhhhhhhhhhhhhhhhhhhhhhhhoOooooooOooohhhh",
"hhhhhhhhhhhhhhhhhhhhhhhhhhhhhhhhhhhhhhhhhhhhhhhhhhhhhhhhhhhhhhhh"
};
