/* XPM */
static char *_1684324808[] = {
/* columns rows colors chars-per-pixel */
"64 64 241 2 ",
"   c None",
".  c #0E0E0D",
"X  c #1D160B",
"o  c #1F180B",
"O  c #171209",
"+  c #141212",
"@  c #1A1714",
"#  c #1C1913",
"$  c #1D1C1B",
"%  c #141817",
"&  c #120F0D",
"*  c #3A0C06",
"=  c #330E09",
"-  c #390C08",
";  c #23160B",
":  c #2B150B",
">  c #221A0C",
",  c #2A1D0D",
"<  c #251707",
"1  c #35130D",
"2  c #39140C",
"3  c #251C12",
"4  c #2A1D12",
"5  c #231E1B",
"6  c #261917",
"7  c #341811",
"8  c #2C0E0C",
"9  c #1E201E",
"0  c #2B220D",
"q  c #26200D",
"w  c #32250E",
"e  c #37290E",
"r  c #2D2313",
"t  c #22211E",
"y  c #2D221A",
"u  c #262212",
"i  c #332514",
"p  c #342A14",
"a  c #3B2C15",
"s  c #332419",
"d  c #352B1B",
"f  c #3B2C1A",
"g  c #3B2715",
"h  c #3E3118",
"j  c #201E20",
"k  c #1F2021",
"l  c #232323",
"z  c #2D2C2B",
"x  c #292824",
"c  c #302D2D",
"v  c #312F30",
"b  c #343333",
"n  c #3D3C3B",
"m  c #3A3836",
"M  c #31302F",
"N  c #480B06",
"B  c #570C08",
"V  c #49140B",
"C  c #5E110A",
"Z  c #481614",
"A  c #5A1613",
"S  c #650A08",
"D  c #790C07",
"F  c #69120A",
"G  c #6A1512",
"H  c #7A1209",
"J  c #412E1B",
"K  c #442A16",
"L  c #44331B",
"P  c #4C351C",
"I  c #4C391C",
"U  c #483418",
"Y  c #533B1D",
"T  c #573618",
"R  c #54201C",
"E  c #633E1E",
"W  c #7A251F",
"Q  c #4A3520",
"!  c #4D3822",
"~  c #483927",
"^  c #523B22",
"/  c #5A3C22",
"(  c #523623",
")  c #413B37",
"_  c #672E26",
"`  c #663E27",
"'  c #5B411D",
"]  c #6A421F",
"[  c #5E432A",
"{  c #5B4226",
"}  c #44413F",
"|  c #634224",
" . c #6B4525",
".. c #6B4A26",
"X. c #654429",
"o. c #69452A",
"O. c #6C4A2B",
"+. c #63482B",
"@. c #744B2B",
"#. c #7B4D2B",
"$. c #754827",
"%. c #7D522C",
"&. c #7C5227",
"*. c #774F32",
"=. c #7D5331",
"-. c #755336",
";. c #6D4732",
":. c #444344",
">. c #4B4B4B",
",. c #4B4644",
"<. c #524F4D",
"1. c #59534D",
"2. c #535252",
"3. c #5C5B5B",
"4. c #5A5758",
"5. c #605F5D",
"6. c #495F69",
"7. c #656462",
"8. c #696A69",
"9. c #72716F",
"0. c #78756C",
"q. c #757474",
"w. c #7C7B77",
"e. c #716E68",
"r. c #7B6F5B",
"t. c #850806",
"y. c #980A06",
"u. c #99120B",
"i. c #821517",
"p. c #B00D07",
"a. c #853F13",
"s. c #8C3C2B",
"d. c #C50704",
"f. c #D8180E",
"g. c #EC090A",
"h. c #874716",
"j. c #84532D",
"k. c #86592D",
"l. c #835531",
"z. c #895631",
"x. c #865933",
"c. c #8C5A33",
"v. c #8D5C39",
"b. c #86593A",
"n. c #925D35",
"m. c #935F3A",
"M. c #834E29",
"N. c #A55E3A",
"B. c #B04E3F",
"V. c #946136",
"C. c #9A6336",
"Z. c #956139",
"A. c #9C643A",
"S. c #9C693E",
"D. c #A2663B",
"F. c #A46A3D",
"G. c #AB6D3D",
"H. c #A46737",
"J. c #B06B3E",
"K. c #AB713C",
"L. c #AB722E",
"P. c #936313",
"I. c #C84B36",
"U. c #AC5747",
"Y. c #9A6841",
"T. c #837657",
"R. c #A66B42",
"E. c #AC6E42",
"W. c #AD6D4C",
"Q. c #B26B43",
"!. c #AF7144",
"~. c #AA744E",
"^. c #B37244",
"/. c #BB7646",
"(. c #BC7749",
"). c #BC794A",
"_. c #B67548",
"`. c #827974",
"'. c #A06759",
"]. c #C47C4C",
"[. c #C67B4A",
"{. c #C97D52",
"}. c #CB734C",
"|. c #D16D65",
" X c #E16D6F",
".X c #7E807D",
"XX c #BB824D",
"oX c #83817E",
"OX c #9D8C76",
"+X c #B08A72",
"@X c #CA824E",
"#X c #C4804B",
"$X c #CC8452",
"%X c #C88453",
"&X c #D28555",
"*X c #D38956",
"=X c #D58A59",
"-X c #DA8D5C",
";X c #D88857",
":X c #DC915D",
">X c #D6915E",
",X c #E0965D",
"<X c #DD9262",
"1X c #DC996A",
"2X c #D98F62",
"3X c #E29463",
"4X c #E49A6A",
"5X c #EB9D6D",
"6X c #E69966",
"7X c #EC9F71",
"8X c #EA857B",
"9X c #ECA36E",
"0X c #EBA472",
"qX c #EAA774",
"wX c #F2A475",
"eX c #F7AB7B",
"rX c #DDCD4B",
"tX c #7E7F82",
"yX c #848383",
"uX c #8B8A8A",
"iX c #888786",
"pX c #97938E",
"aX c #9A9897",
"sX c #918E8F",
"dX c #A79A98",
"fX c #A6A49B",
"gX c #B6A091",
"hX c #9FA2A0",
"jX c #ACAAA8",
"kX c #B5B7AC",
"lX c #B6B6B3",
"zX c #B3AFAC",
"xX c #D88580",
"cX c #DAAF9D",
"vX c #F7B48A",
"bX c #F6B388",
"nX c #EFB591",
"mX c #F7C29F",
"MX c #EFC4A9",
"NX c #E4D4C2",
"BX c #D2D1CE",
/* pixels */
"                                                        sX`.-X6X;X6X0X-X                                                        ",
"                                              m n 2.+ - U.wX5XwXwX7XwXwX=X;Xb.2.7.  `.                                          ",
"                                        >.n z + O D _ i.1X3X{.(.3X5X4X3X].6X3Xs.x l = + :.                                      ",
"                                      b z z l + = 0.I.g._ ` Q.[.[.{.^.Q.J.7XW.u.x b z + c 2.                                    ",
"                                      } + . % P R @ ` -.6 qX#.qXG.[.(.Q.qX;.$.z.3 :.G S @ <.b                                   ",
"                                      + . . w @.j.h 3 + f I ..cXs.W B.U.a.%.; , @ % 5 @ 0 + @                                   ",
"                                      9 # . p Q d u + > Y [ #.lX~.'.OXr.*.x r 6 f + + + + L 3                                   ",
"                                                    p 4  ...d U.|. X|.}.l.J       d 3 3 ,                                       ",
"                                              {.3X%XO.M.I g s l.4 4 4 / P 7 3 l.%X                                              ",
"                                {.1X&X^ r P =.4Xv.^.<X3Xx.J 4 , 3 X , , r J 6X].*X<XA.L ; s x.                                  ",
"                              !.eXbX7XA.Q d n.$XZ._.3X5X_.~.*.m., , ; m.` m.4XwX7X-X^.F.z.@.V.!.R.                              ",
"                            v.R.R.wXvX<Xm.m.C.F.E.%X;X-X3X9XwXwX].( A.eXeXbXwX6X3X&XF.D._.].:X<X6XA.Z.                          ",
"                          ! o.v.{.E.W.Q X.! %.A.F.^.E.!.E.F.D.D.@.).E.4X5X<X).F.n.x.o.| x.j.D.bX6X4  .                          ",
"                          f I A.D.*.V.+.s #.F.D.R.F.A.V.A.D.D.A.$.].#./.!.!.F.c.l.$.Y @.{ i L V.[.4 P                           ",
"                          f A.@.f o.4 r / 4 L *.R.&X*X@X*X9X9X{.m.3XZ.>X6X3X_.#X).x.! I > ; > > 3 Y P                           ",
"                      D P :XbX3X].L L @., 3 J 3 , , r , K J | P =.:XY.| 3 , > > > ; o > ; o o o > 6 F.                          ",
"                    t.t.E &XbXwX&X@.*.]., 3 K.` u > , > > > > 4 | 3X^.y > o < o o o ; > o o o o > i -X                          ",
"                  y.    4 j.j.n.D.W.@X<X0 P / { V.@.3 4 r i r A.<X6X3XG./ r > ; o o I U o o o < 0 V.A.@.                        ",
"                  G D G %XQ s ^ j.K.@X=.u , T > 0 #.].E.C.{ f T c...| Y A.C.k.r 0 ; > o o o > o 0 i a u                         ",
"                S   D   1.=.o.$.%.!.o.f I 0 a > 0 :X0X%XY , g =.| %.@.4 3 h G.k.a > o o o o o o q , u 6                         ",
"                A D     9.f A.^ { | u   Y a f u ] $Xp , , ..' 0 p h %.D.I 0 > c.n.e o o o o o o o o o                           ",
"                  g.  y 1X@.%Xx.C.r ,     , > 3 Y V., o > T 3 o < o ; a U ' > u , u >   o o o o o > >                           ",
"                  u.  s 4 Y.(.W./.f >       , r , w o o ; q o ; < o o > ; , o , J 3     o o o o > q o                           ",
"                    f.9X]._.[.0X=XE.s         > > ; o < o o , - S ; o o X X O O O       > o > > U r e                           ",
"                    E.$X:X@X].vX&Xm./       B N O < X 1 1 4 Z 7 y.= V < S B - - O ;     > f  .L L | $.u                         ",
"                    ` ].wX*X!.4X_.K.v.      , * X N N , X A u.d.p.t.2 0 t.B 3 u.t.;     r L V.Q [.! ! A.^                       ",
"                    ^ =.-X-X$X3XG.O.l.      N * , > : N ; d.C d.p.y.V : D y.V d.Z 3   > r Q A.Q [.#.P n.~                       ",
"                    d 9.b./.-X=Xn.>.        = = ; > N ; 3 B ; B B H : V 3 p., H : : , , u ..=.! {.fXsX,.4.~                     ",
"                      ,.b.&X2X%XY.y         = > o o S S B < < - - B u d.B D 4 7 u.t.r s ` zXdX7.OXxXdX8.8.z                     ",
"                      n b.=X4XvXrXd     ; , 0 > < * : D * < X N N ; r H N V T 5 h.R 5 T ` dXuX|.pX8XzXyX.Xm                     ",
"                        #.R.[.^ o.    6.i L > P Y > a 4 > K y.; 6 Z $.M.s J.[.H.H.E.@X[ y cXsXiXpXv.bXyXaXw.                    ",
"                        / P {.o.c.    b o.| r ..h I .. .P z.N.M.A.F.H.n.k.j.#.n.Q./.A.E.T 8XgXdXuX#.+X5.w.pX                    ",
"                        L Y ).@XXX    fX+.O.L f 0 p g a h U I I Y { Y ..k.k.c.c.&X_.D.F.i -X4XlXyXY.8.3..XaXb                   ",
"                          b.g 0 C.    1.Z.%.O.K.r r 0 0 0 > , > , , , ^ [.&X@X[.:X%XC.( e $.J.mX`.jX<.lXzXaX2.                  ",
"                          i S.! F.  I 0 +.&.&.V.%Xs F * * ; > > o Y C.J.^.m.J.-X4X@XX.#.^ L 0XMXw.>.7.BX<.7.yX                  ",
"                          > > #XL.&.h.> p U ' { n.[.2 , 1 > > o X K.| &.#.C./.<X6X-XX./ J J nXnXsXjX8.7.x l x                   ",
"                            r r a k.P., ' d a r 0 a ] 2 i o ; o > C./ P n.n.].4X%X%X{.C., ..Q u 9 k M 1.>.z v                   ",
"                                      r h r 0 0 0 0 > , > > w 0   n.].S.R.R.).=XF.E.H.@.>     x @.n >.3.xX3.4.                  ",
"                                      h r p 0 0 0 > 3 u ; o 0 0   l.F.S.F.F.).@Xc.E.n.v.>     r #.tXe.:.sX9.8.                  ",
"                                      b d e 0 > 0 o ; o o o o     P ..j.F.S.D.F.#.G.n.%.,     r b eX.Xm zXsXpX                  ",
"                                      m x h r p a u o o o o t     c.! x.c.j.x.@.D.O.j.{ h       z mXq.oXMXhXjX                  ",
"                                      b t L d I L p q o o 9 p     j.G./ | o.| [ j., P , h       x eXnXjX1X>.iX:.                ",
"                                      b $ h p I L r > o a $ p     $.H.C.L ..Y  .| > , ; r       e >XmXjXlX>..X3.                ",
"                                      l $ # ; u u , ; # $ t r     0 J  .f L L d 0 > u > r       p v.NXlX3.b M 2.z               ",
"                                      # @ t o + + @ X $ @ t 3       , P J r w > e > o ;         r d l 9 m ) M                   ",
"                                      @ $ 9 $ o X > o o @ $ $         P J 3 # 3 E , , 4           $ $ 9 x z M                   ",
"                                          t o @ @ X o o               ^ D.%.L s C.K @.c.                                        ",
"                                      m $ $ > o O l o 0             #.m.).G.)._./.x.=...                                        ",
"                                      n x 5 i ; O k 3 r           / Z.^.].R.{.2X$X)...h                                         ",
"                                      >.m U Y X O z a f           j.W.&XR.A.[.9X@X^.f 3                                         ",
"                                      4.,.} ) * X b L r           @.c.F.=.j.x.).o.^.s ,                                         ",
"                                      l n 2.>.* : m I r           L j.#.^ o.c.V.d j.@.i                                         ",
"                                      $ $ 9.5.N V ,.| P           r r f x.L c...^ , | r                                         ",
"                                        3.q.q.1.1.<.%.^             r @.A./ | s , r                                             ",
"                                      4.tX7.q. XOX4.5.8.            p ^.A.o.Y u w 4                                             ",
"                                    b :.q.iXhXyXpX[.] M z           ;.=Xl.l.@.P Y r                                             ",
"                                      z n ,.>.:.) ) c l M         c.@X@X].@X%XZ. .a                                             ",
"                                    $ >.q.w.jXuXuX[.^ p z       ^ @.@.%.x.j.z.&.| h                                             ",
"                                    l >.9.q.jXsXuXH.p # x       L I I L ^ Y L a p ,                                             ",
"                                    M m q.q.jXuXyXo.o X t       r r a U Y I a p p 3                                             ",
"                                        n :.>.>.<.:.k           q r d I Y ~ p w 0 o                                             ",
"                                                                q p a h { { h p r >                                             ",
"                                                                q p h I { { L p r o                                             ",
"                                                                o q q u u 0 q o ; >                                             "
};
