/* XPM */
static char *_1684324807[] = {
/* columns rows colors chars-per-pixel */
"64 64 237 2 ",
"   c None",
".  c #010101",
"X  c #0D0C0B",
"o  c #0A0806",
"O  c #110F0C",
"+  c #1A1107",
"@  c #1C150B",
"#  c #1F180B",
"$  c #16120C",
"%  c #141312",
"&  c #1A1613",
"*  c #1C1913",
"=  c #1D1C1B",
"-  c #181718",
";  c #0F1110",
":  c #270F0C",
">  c #3B0E0A",
",  c #370B08",
"<  c #22140C",
"1  c #221A0C",
"2  c #2A1E0D",
"3  c #29120A",
"4  c #39110D",
"5  c #251C12",
"6  c #2A1D12",
"7  c #221E1D",
"8  c #271715",
"9  c #3B1712",
"0  c #3F0B13",
"q  c #1D201E",
"w  c #26200C",
"e  c #2A220D",
"r  c #33250E",
"t  c #372A0D",
"y  c #2C2212",
"u  c #24211D",
"i  c #292217",
"p  c #322513",
"a  c #352914",
"s  c #3B2C15",
"d  c #33251A",
"f  c #3C2C1A",
"g  c #372A1B",
"h  c #3E321A",
"j  c #1D1D22",
"k  c #221F20",
"l  c #252422",
"z  c #292724",
"x  c #2C2C2C",
"c  c #322C28",
"v  c #36312C",
"b  c #353433",
"n  c #3C3B3B",
"m  c #3A3734",
"M  c #2F2E31",
"N  c #440D0A",
"B  c #480B07",
"V  c #5B0D0C",
"C  c #570A06",
"Z  c #46120C",
"A  c #51160F",
"S  c #680904",
"D  c #750A08",
"F  c #66120C",
"G  c #661111",
"H  c #701916",
"J  c #7C0D11",
"K  c #412E15",
"L  c #412E1A",
"P  c #492F1F",
"I  c #4B3416",
"U  c #44321B",
"Y  c #4B351C",
"T  c #4D391B",
"R  c #423114",
"E  c #52361C",
"W  c #533A1D",
"Q  c #5A3E1D",
"!  c #603E1E",
"~  c #443221",
"^  c #4C3721",
"/  c #533521",
"(  c #543B21",
")  c #5B3D23",
"_  c #583B26",
"`  c #453134",
"'  c #633F24",
"]  c #703F25",
"[  c #5B411D",
"{  c #67431E",
"}  c #76481D",
"|  c #5D4124",
" . c #544128",
".. c #4A4137",
"X. c #654424",
"o. c #6B4425",
"O. c #6E4A26",
"+. c #624429",
"@. c #6C4A29",
"#. c #754C2B",
"$. c #7A4E2A",
"%. c #754724",
"&. c #7D522D",
"*. c #745129",
"=. c #7B5331",
"-. c #6F4D34",
";. c #3D3F43",
":. c #454343",
">. c #4D4C4B",
",. c #4B4845",
"<. c #545354",
"1. c #5C5C5A",
"2. c #5A514B",
"3. c #655B55",
"4. c #6F675B",
"5. c #696968",
"6. c #746E69",
"7. c #7A7978",
"8. c #777067",
"9. c #970B07",
"0. c #87110E",
"q. c #8F0E09",
"w. c #B90C06",
"e. c #A7140B",
"r. c #A12A1F",
"t. c #C70702",
"y. c #D40402",
"u. c #C7180F",
"i. c #FC2A1E",
"p. c #83542D",
"a. c #8C5A2C",
"s. c #8A532E",
"d. c #905B2E",
"f. c #845531",
"g. c #8C5A34",
"h. c #865736",
"j. c #925D34",
"k. c #925D39",
"l. c #9A5D35",
"z. c #9D4C2C",
"x. c #A15C27",
"c. c #B44437",
"v. c #8E613A",
"b. c #956234",
"n. c #9A6436",
"m. c #97623B",
"M. c #9B633A",
"N. c #9C683C",
"B. c #A2663B",
"V. c #A46A3C",
"C. c #AB6D3D",
"Z. c #A66936",
"A. c #B06C3D",
"S. c #AD723C",
"D. c #B1703E",
"F. c #854216",
"G. c #B25449",
"H. c #9E6343",
"J. c #916F58",
"K. c #AC6D42",
"L. c #A66743",
"P. c #B16E42",
"I. c #AC7142",
"U. c #B47344",
"Y. c #BA7444",
"T. c #BC7A49",
"R. c #B27052",
"E. c #857C7C",
"W. c #E85B4F",
"Q. c #C57C4B",
"!. c #CA7E4D",
"~. c #C27746",
"^. c #C67A53",
"/. c #D87854",
"(. c #D06D66",
"). c #C65E52",
"_. c #D5AF3D",
"`. c #BF804B",
"'. c #8B847E",
"]. c #A8816B",
"[. c #AD8779",
"{. c #CC814E",
"}. c #C6824E",
"|. c #CC8252",
" X c #CB8958",
".X c #D38554",
"XX c #D48955",
"oX c #D58A5A",
"OX c #DB8D5B",
"+X c #D58858",
"@X c #DC925C",
"#X c #E3935C",
"$X c #D98E62",
"%X c #DD9561",
"&X c #E39464",
"*X c #E59965",
"=X c #E49B6A",
"-X c #EA9D6C",
";X c #EA9A65",
":X c #EC9A76",
">X c #EA836A",
",X c #EAA06C",
"<X c #EAA676",
"1X c #F2A474",
"2X c #F7AA7B",
"3X c #EDB17B",
"4X c #DFB94A",
"5X c #7E7D80",
"6X c #807F81",
"7X c #888887",
"8X c #949293",
"9X c #9B9999",
"0X c #90908B",
"qX c #A49D94",
"wX c #9EA09C",
"eX c #A8A69C",
"rX c #B8A79C",
"tX c #999CA0",
"yX c #AAA7A7",
"uX c #B1ACA9",
"iX c #B9B8B6",
"pX c #B1B1AD",
"aX c #E3948B",
"sX c #F5B389",
"dX c #F0AB90",
"fX c #EDAFA9",
"gX c #C99483",
"hX c #CCC3B7",
"jX c #E9C5A5",
"kX c #E8C7B9",
"lX c #F5D1AE",
"zX c #CAC9C5",
"xX c #DCDBD6",
"cX c #CDD0CF",
"vX c #E6E3DE",
"bX c #E5E5E3",
"nX c #E9E8E4",
/* pixels */
"                                              1.7.3.    :X,XOXOX=X-X#X    iX6.                                                  ",
"                                        :.0X= & I -X;X2X+XsX2X-XsXsX!.1X<X!.= z 7Xb                                             ",
"                                    ,.m z V z >.z.^.3XH.L.&X+X1X/.I.Y.H./.R.+.% O = b                                           ",
"                                  :.b - X F c 2.$XW.$.z $XQ._ !.X.m. X_ r.W.R.- D V b <.b                                       ",
"                                - = % o % - - ; n ] i ) &X$XK.|.H.<X*Xk...x.#.& u & $ z =                                       ",
"                                & o 1 # ; & I # O $ U i x.c.).r.r.gXF.s i y % U X X 3 X X                                       ",
"                                    & & & u         L ' 8.R.[.rX].].2.Y       o X o o X O                                       ",
"                                                K.d o.@.l.G.(.(.(.G.h.E E                                                       ",
"                                            -XT.M.#.l.s ) X.6 6 T g.| 2 p Y m.OX                                                ",
"                              Q.l.f.^  X XOX|.l.k.-X*Xv 6 o.1 1 # +.~ #.;X-XC.!./ I.#._ o.                                      ",
"                          P. XsX!.K.#.V.U.Q.,X=X-X,X1X X+X&X6 6 * *X&XK.oX1XoXK.R.( #._ h.OX|.                                  ",
"                        | U.l.o.Q.*X&XC.L.U.|.#X&X$X&X*X:X&X$XU.K.2X1X1X-X;X&X+XC.V.Y.oXOX&XsX1XV.                              ",
"                        p 6 g U.;XOXY ( X.g.B.I.D.B.B.B.l.M.k.p.p.!.!.!.Y.U.h.M.N.M.f.o.=.K.P.P.o.                              ",
"                        5 Y f.~.h.^ y O.d.U.oXU.U.Q.!.|.^.U.M.j.$.{..X!.Y.C.V.V.m.b.X.n.8 a.a.p.Y                               ",
"                        _ y L 1 1 1 2 5 6 y 6 V.~.|.oXOX*XT.B.g.B.+X!.oXT.I.C.f.Y h y * + # 1 8 d                               ",
"                  q.0.|.sXm.5 Y 1 # 1 1 1 Y 5 2 1 1 p 6 2 s / K.Y.) p 1 1 1 # 1 1 1 5 @ # @ 1 < 5 m.                            ",
"                G   K Y.oXQ. X2 y X.1 1 @.$.b.U.2 < 1 1 1 f OX*X;X#.( 6 1 # # 1 U a.2 + 1 k.P !.-X@Xo.                          ",
"              y.  B 6 %.B.B.I.p | Z.1 2 2 p Y E p y y p #.OXY..X!.+XQ.#.e 2 1 1 g.U # @ < U.U.B.+X%X#.                          ",
"              w.F   2 1 6 a Y ) V.b.s p 2 r 1 #.I.Y.f.~ 2 d.p.&.#.5 5 =.b.C.^ 1 e a @ $ 1 n.a.f.f.h.p y                         ",
"              y.D   6 1 < 2 6 ) i e   { e K e #.| a 1 1 #.U e 2 p.Y.D.1 e t  .a 1 t e 1 1 I L a U y g 5                         ",
"              q.w.H 8 1 1 1 e a y e   X.6 5 5 b.Y.5 1 s I 1 5 1 U b.V.[ 1 e C.{ 1 # 1 1 1 1 e y 1 1 i e                         ",
"              V w.2.z I 5 y W 2 y       2 5 1 T y # 1 1 6 1 1 @ 1 r a } 1 1 5 E 1 e   1 1 # # + < 1 5                           ",
"                A _ d V.| f.W 2           1 # # # # < @ @ + : B @ + 1 1 1 1 1 p y       y 6 1 5 e 1 5 a                         ",
"                D.B.k.%X=X}.g.g           p + @ < + B < @ t.Z 9.$ < + + + + < 1           y h.T.#XXXU g.                        ",
"                I.Y.C.|.<XT.V.U           1 + + B 3 4 < : H > t.$ + 3 V , 2 @ $ e         L OX&XP.+X.XC.                        ",
"                Q. XV.V.!.=.I.            1 < S # C N < Z Z : e.0 C $ 9.q.: 9.8 2         |.&XQ.+X^.l.P.}.                      ",
"              eX&.{.~.K.K.s.U.            N Z B < 5 t.: q.: 3 D B , C B w.4 @ B p     M.B.OX^.B.OXlXkXtXjXC.n.                  ",
"              6.p.T.}.U.k.}.f             > 3 , + D D F B # 3 < , : C B q., 5 C       $.l.dXqXkXkXR.pX6X9X=.~                   ",
"              M 4.D.Q.K.=.d p         E a < 3 # , < < 3 + , 4 < : & < < B 6 F y a     f.' i.8X5X7X^ tXiXyX1.7                   ",
"              U C.M.oXY.5Xb         5 s a 1 1 e 5 1 C < + D 8 , N N > 2 2 ' g.U #.y   OX5 :XyX5.9X%XbXvXuX9Xn                   ",
"                |.U.oXh.cX5.        f T W s L s p V Z 9 4 9.r N > N > f.s #.Y.h.V.|   ;X8 OXuX7.zXjXnXbXpX8X:.                  ",
"                 X*X&Xl.:.      f d -.7X| Y X.K U X.O.o.W a.o.n.Z.j.) g.j.N.I.I.C.W f C.] ~.zXxXnXnX3XbX7.cX7X                  ",
"                k.=./ {.        p.m.n.Y.n.N.D.6 1 Z < # * 5 # 1 # 1 1 s T Q $.M.p.g.L e y ) fXxXpXvXs.qX3.8X1.                  ",
"                A.g 6 g         Y U T &.g.m.f. XL.Z > 2 X.w 1 1 # < 2 #.Z.Z.f.| j.&.B.L 1 i b u 7 x u 2.m x z                   ",
"                $.#X+.a.      f Y y O.f.g.&.#.o.}.F 2 / 5 e 1 # # 1 I &.C.V.| *.f.h.T.E 8 E u 7 7 ;.c ..H ;.M b                 ",
"                1 2 #.%X_.    5 +.h O.X.| W ~ w 5 N.y 2 1 1     < 1 r Y =.p.y ) f.f.( y 7 L 7 =  .;.) g fX7.7X;.                ",
"                5 1 %.) X.      p *.W h s R U W s 1 1 2 t         w 1 s y y 5 W #.&.Q 1 W s 7 7 * yX8.S.eX5.zX,.                ",
"                6 1 T Y.Z.      i | y w y h ^ I 5 1 1 1 f         1 1 1 w w w d $.&.) s y t u u # iX6.4XqX'.iX<.                ",
"                  e 2 5 g       T f w 1 # y a # # # 1 1 5         1 1 1 1 1 Q y O.h.I U y       # qXyXyX`.iX8XyX                ",
"                                k.1 y # # 2 # 1 # 2 e w 2         1 w 1 w 2 1 f b.p.f { y         v iXxX+.bX7XxXn               ",
"                                >.1 e 1 # # # # # 1 5 p w         1 w # # # w T p.#.p W s         * vXnX] vXxXvXn               ",
"                                b z w # # 2 @ # # # # 5           1 1 # 1 # e R W | y e U         w zXiX1.j j x l               ",
"                              7.M z 1 # # # # + # * =             e # 1 1 # e e e a s 1 1         7 = q a.= % = =               ",
"                              >.u = # # # # + @ * u                 # e # # e w e e 1 w 5           l % j % z = =               ",
"                              n m s 1 + + + + $ = k                   e w 1 e e y 2 # 1 s           l % X ; ; = =               ",
"                              C '.*.s a y e + w = =                     e w # w 1 # # 1 1           = =                         ",
"                              u yXm.) W T t 1 w 7 =                     # # # # # # # 1 1                                       ",
"                                pX=.O.u m s e i 7 =                     # # # # # # # 1 1                                       ",
"                          l | M.0X7XE H D L a 7 =                     1 e a R y e 1 1 1 w                                       ",
"                          ,.j.XX'.0X6 y.C E a                         1 T X.&.^ p.a.Q y y                                       ",
"                          :.5.fX7XyXG d J.( u                         # X.f.j.o.k.B.o.h 5                                       ",
"                          l x kX7XyXt.` =X^ 7                         # [ *.p.$.Q.Y.{ { 6                                       ",
"                          7 7 xX9XdXJ 2XrXR                           6 y p #.X.j.a.L s w                                       ",
"                        S 5.8XnXnXfXfX(.7Xb                             a.Y.=.f.j.C.s p 5                                       ",
"                        V x M pXxXjXyXaXaX>.                            ) N.C.M.g.Y.8 a                                         ",
"                        x j M 5.2...` 7.1.6.                            d K.&.I.Y.XX3                                           ",
"                        ;.7.9XvXaXqXyXW.u.l x                         &.V.|.|.XX|.{.|                                           ",
"                        >.E.yXbXfXhXtXE.8.) z                         o.g.M.N.N.B.N.&.                                          ",
"                      x <.b b v ..<.7XtX5.y 7                         # s s W W T I t U                                         ",
"                      . . . . . . . . o & #                           2 s h T T s a e *                                         ",
"                          . . . . . . . . .                         # # s s T T s a e # 1                                       ",
"                              . . . . . .                           # w s s T I s a e # 1                                       ",
"                                                                    # e h R ^  .R s e # <                                       ",
"                                                                      1 # @ # @ # < # 1                                         "
};
