/* XPM */
static char *_1684324808[] = {
/* columns rows colors chars-per-pixel */
"64 64 247 2 ",
"   c None",
".  c #060404",
"X  c #0D0C0B",
"o  c #090604",
"O  c #1A1307",
"+  c #1C140A",
"@  c #1F180B",
"#  c #13110C",
"$  c #151514",
"%  c #1D1C1C",
"&  c #1A1715",
"*  c #110F0E",
"=  c #390D0A",
"-  c #22150B",
";  c #2B150D",
":  c #221A0C",
">  c #2A1C0D",
",  c #201307",
"<  c #33140C",
"1  c #3B130C",
"2  c #32190D",
"3  c #251D12",
"4  c #2A1E13",
"5  c #221D1D",
"6  c #221712",
"7  c #371813",
"8  c #1F201F",
"9  c #2C230E",
"0  c #27200E",
"q  c #31250E",
"w  c #31280F",
"e  c #2D2312",
"r  c #22211E",
"t  c #2B241B",
"y  c #292411",
"u  c #312514",
"i  c #342913",
"p  c #3B2C14",
"a  c #34241B",
"s  c #3C2C1A",
"d  c #362818",
"f  c #3D3016",
"g  c #3E301A",
"h  c #231F20",
"j  c #1F2123",
"k  c #232323",
"l  c #292926",
"z  c #2D2C2B",
"x  c #292625",
"c  c #352D29",
"v  c #31302F",
"b  c #363534",
"n  c #3C3B3B",
"m  c #373637",
"M  c #2F2E30",
"N  c #440B09",
"B  c #4C0C08",
"V  c #580A0A",
"C  c #46100A",
"Z  c #53110D",
"A  c #581413",
"S  c #491111",
"D  c #680C09",
"F  c #790A06",
"G  c #65120D",
"H  c #7B110B",
"J  c #6B1A18",
"K  c #791212",
"L  c #422E1B",
"P  c #422915",
"I  c #433215",
"U  c #43331A",
"Y  c #4B351C",
"T  c #4D391B",
"R  c #4B3416",
"E  c #543C1D",
"W  c #54361D",
"Q  c #4A3422",
"!  c #553C22",
"~  c #5B3E23",
"^  c #523824",
"/  c #433830",
"(  c #643D24",
")  c #5B411E",
"_  c #6D451F",
"`  c #5C4222",
"'  c #41413F",
"]  c #58453F",
"[  c #644424",
"{  c #6B4525",
"}  c #6B4529",
"|  c #6C4929",
" . c #694727",
".. c #734C26",
"X. c #734C2A",
"o. c #794E2C",
"O. c #734727",
"+. c #7C522D",
"@. c #78522A",
"#. c #7C5332",
"$. c #794D31",
"%. c #444343",
"&. c #4B4B4C",
"*. c #4A4A45",
"=. c #525150",
"-. c #5A5858",
";. c #534F4E",
":. c #625C54",
">. c #62635F",
",. c #5E6067",
"<. c #6B6A6B",
"1. c #686663",
"2. c #7C7C7B",
"3. c #757574",
"4. c #72706F",
"5. c #5C6258",
"6. c #8B0C07",
"7. c #960A07",
"8. c #8B1819",
"9. c #BA0805",
"0. c #AA0F0A",
"q. c #AE2D20",
"w. c #C90703",
"e. c #DB0805",
"r. c #CF1610",
"t. c #E80C06",
"y. c #F0302E",
"u. c #D9251D",
"i. c #84562B",
"p. c #835533",
"a. c #865A33",
"s. c #8C5A33",
"d. c #8A5733",
"f. c #925C35",
"g. c #965B36",
"h. c #92572C",
"j. c #956038",
"k. c #9D643B",
"l. c #996336",
"z. c #95612F",
"x. c #A3653B",
"c. c #A4693D",
"v. c #A8693B",
"b. c #B7733D",
"n. c #945726",
"m. c #C14F36",
"M. c #8B5D46",
"N. c #AE5244",
"B. c #986843",
"V. c #826943",
"C. c #A56C42",
"Z. c #A86B41",
"A. c #B26E43",
"S. c #B96F40",
"D. c #B47343",
"F. c #BC7544",
"G. c #BB764A",
"H. c #BE794A",
"J. c #B87747",
"K. c #B6734A",
"L. c #827B76",
"P. c #9C7967",
"I. c #AE766E",
"U. c #C37B4B",
"Y. c #C97D4B",
"T. c #C57846",
"R. c #C56356",
"E. c #C67D53",
"W. c #C26B4D",
"Q. c #D26E65",
"!. c #F07771",
"~. c #EE6553",
"^. c #C3A127",
"/. c #BC874A",
"(. c #8F8479",
"). c #AD8A79",
"_. c #CC814E",
"`. c #CA854D",
"'. c #CE8353",
"]. c #CD8C53",
"[. c #D38554",
"{. c #D48955",
"}. c #D58959",
"|. c #DB8D5B",
" X c #D98659",
".X c #DD915D",
"XX c #DB9157",
"oX c #D1814C",
"OX c #E2925F",
"+X c #DE9462",
"@X c #D88F61",
"#X c #E29563",
"$X c #E59A65",
"%X c #EA9A66",
"&X c #E59A6A",
"*X c #EB9C6C",
"=X c #E99766",
"-X c #F59073",
";X c #DAA779",
":X c #EDA06D",
">X c #EBA372",
",X c #F4A675",
"<X c #F5AB7B",
"1X c #FAAC7D",
"2X c #F4A877",
"3X c #FAB07F",
"4X c #D9B051",
"5X c #8C8B89",
"6X c #898684",
"7X c #949392",
"8X c #9D9D9B",
"9X c #9F9994",
"0X c #938F8D",
"qX c #A19C96",
"wX c #A4A29E",
"eX c #ADACAC",
"rX c #A5A5A2",
"tX c #B2B1AE",
"yX c #BBBBBA",
"uX c #B9B6B4",
"iX c #B4AAA9",
"pX c #EE938F",
"aX c #EAAE81",
"sX c #F8B488",
"dX c #FCBC93",
"fX c #F3BB94",
"gX c #E5B685",
"hX c #C2BDBB",
"jX c #EAB8B4",
"kX c #E3B5AA",
"lX c #D6A490",
"zX c #F8C09B",
"xX c #FBC8A2",
"cX c #C2BFC1",
"vX c #C8C6C5",
"bX c #D4CBC6",
"nX c #D9D8D7",
"mX c #D0D1CF",
"MX c #EAD4D2",
"NX c #DDE0DC",
"BX c #E5E1DD",
"VX c #E4E4E4",
"CX c #EDECEA",
"ZX c #EDE7E6",
"AX c #F0EEE9",
"SX c #F1F0EE",
"DX c #F4F2F1",
/* pixels */
"                                                  -.2.=.    +X:X*XOX X,X*XE.  wX5X=.                                            ",
"                                              7X*.$ X F.2X&X#XE.sX2X,XdXsXE.*XU.B.* c x n                                       ",
"                                        5X/ ' j 8.v -.K  X>XaXH.&XE.=X XG.;XaXK.K -.% 6 r ;.                                    ",
"                                        ;.% $ X & & 5 m.V.O.{. Xp.c d.g.E.+Xd.r.W.z % = p *.z x                                 ",
"                                        z X o X $ o o x.Y t ( :XK.Z.J. XgX^ Y z.T.5 % 0.E 4 r k                                 ",
"                                        o a y . q : & & u p g.lXq.R.G.Q.lXn.u 9 @ % $ O > q * *                                 ",
"                                          . . o o #       4 f.I.9XI.I.M.P.a.@       X o . . X                                   ",
"                                                        E | a.N.!.Q.Q.R.N.U 0                                                   ",
"                                      o.k.+.    }.%X Xp.A.k.U p.d ; 4 p.a.s u i U                                               ",
"                                }.#X}.E. .d ! [.|.|.g.G.<X#X! e i.W : 6 > t s #XH.E.@X                                          ",
"                          9.g.v.Y.#XxXzX<X&X}.|.&X>X,XsXdXdXdXdX1X*X} a g.1XdXsX,X XH.C.j.s s Y v.                              ",
"                        9.A Y ( k.T.<XsX*X|.'.U.}.&XOX*X:X>X*X%X*X&Xv.K.[.,X1X1X1X*X|.|.|.F.Z.F.#X:X                            ",
"                    9.V   #.7 e : 0  . .U.Y.j.k.A._.'._.F.G.F.U.v.x.X.'.C.|.{.'.G.f.#.p.o.a | U.*XE.T.p.                        ",
"                  w.V     s | : e u ~ H.B.e 4 ` D.G.H.|.OX$X1X1X*X}.C.'.#.%X:X*X*X%X+XY.F.s b.t  .s X.[                         ",
"                  w.      i.k.a 9 e [ T 6 : - > u p.s.v.H.`.{.|.{.U.c.{.A.}.%X{.Y.D.k.@.[ 6 s > e : s.!                         ",
"                  e.    t {.Y.x.4 : > : : : : W | W 4 : - 6 q e u u o.[.U.! e : - : 0 : : : - 4 u ^ `.x.                        ",
"                  e.  P : { g w @ : @ 3 0 : : a.U...U.W 4 p i e Y g.{.#X+X{ e : @ @ : > : - } $Xd.$X2XE./.                      ",
"                  8.  2 s e : : + + 0 e   [ O.i.i 6 u p.D.Y.{.'.[ ..+.k.k.U.D.+.` e : I 0 : x.>X'.D.,XsXk.                      ",
"                  t.r.4 4 u 6 @ O @ i 0   l.F.^ 4 : 4 XX%X%X+.s T.x.+.s.` E v.b.c.d 3 : : @ a.+XJ.Y.Y.|.d.+.                    ",
"                    *.<.b : + + : w i     o.$XT Y { _.].{ 4 T z.X.U i l.v.Y.: w ` ` 0 : : - ! j.a.d.k.o.+.U                     ",
"                    ;.M l @ - - E         i O.Y i s.`.l.: : E a 0 @ 6 : e @.@.+ @ ` y @ @   e w d U ` [ s d                     ",
"                    O.5 % @ - : s           e I { e u s - - p T : @ : : - T i.9 @ i e e :   e 3 : L Y s u i                     ",
"                  d.X.u 0 i 9 : @             3 p : : - - : + + , N F O @ - : 6 @ e i       > 6 3 X.Y e i                       ",
"                  | +.I U ` T e :               > + + : O < N & 9.G e.+ + + + + + @         4 g.{.&X.XK.D.o.                    ",
"                  d | ~ Y ` u s                 : + + F 6.H D 7 J F w.B 1 D Z e.J V         } C.,XsXU.*X$Xk.                    ",
"                  5X` p.{ ~ g 0                 - 1 - D 7.7 7 1 7 7.0.F ; 7 w.A 9.6 D       Z.|.=XfXU.v.<XS.                    ",
"                  yX[ l.a.p 5 4                 2 ; : C ; = A D : 6.Z S V 9 ; w.P 9.D     y.iX4.rXx.(.M.8XL.H.                  ",
"                  :.x.A.z.9X                  6 B < 1 F 2 0.G 1 B 2 ; 1 7.B N - ; 1 F   F.!.ZX;.nXT.BX*XVXrX%.r                 ",
"                  Q A.F.B.j.                ~ 6 = D = 6.; F 7.; D 1 C D D 6 = + @ ; u   E.-XVX>.ZX XZXsXZXvX-.e                 ",
"                  $.@X4 }                 d k.L ..s.~ e 9.H Z N e.( 9 w.G G = : 6 7 4 g.Y.pXSX2.DX&XDXZXZXnX4.r                 ",
"                  U.$X`.t                 A.#X}.Z.J.G.D.D..X{.b.{.XXT.oX[.T.b.C.{ j.k.( O.kXZX5XDXxXhXhXuXnX2.3                 ",
"                g.s.2XL f.                J.$X X[.*X%Xk.` ! 4 9 d Y ( Y p e i ~ [ o.i ^ ; Q 5 5 5 x e.J l % %                   ",
"                i.& <X#.                ;XZ.[.[..X*X*X'.~ 4 : : : : @ : : 0 9 e u E 6 4 R k l k l / t.u.' z k                   ",
"                ` J.: ].              x.p.o.D.#X#X:X#Xk.x. X1 : 9 > 0 0 @ - > f.$Xu i q E 5 k k 1.L.!.jX<.;.l                   ",
"                ` p.^ | #.          &X`.Z.g.H.:XsX#X'.G.j.s.k.i 3 - : - @ > [ `.c.: X.: : x 5 k mXcXxXMXuX3.*.                  ",
"                  @ #.H.+.        | [.=Xg.B.`.&XsXG.v.} f.+.U.: @ @ @ 0 9 e ..{ u : T g Y r 5 8 ZXCXCXDXmXnX6X                  ",
"                  Q @ d.o.        ~ D.%Xs.f.F..X,Xv.j.U d.+.}.: @ : @ w E w T i @ : u ) ` r l r SXDXCXDXmXSX5X                  ",
"                                  u d._.j.s.k.U.J.X.~ ! X.{ |.3   @ : : > i 9 9 e 0 e s ) 3   z DXDXCXSXcXDX2.                  ",
"                                  d X.d.b.+.+.k.[ ! | #.~ U +.      , : : R : e 9 9 d e I       <.=.m z h h '                   ",
"                                  d.E ..D.|  .+.! T [ +.T i ~       0 @ 0 d : 9 9 w f 0 Y       n %.qX0Xm k k                   ",
"                                  z.4 T A.[ $.` T X.` U E 9 e         9 w 0 9 9 w w w f y       m M h * z k %                   ",
"                                  X.}.e z.@.+.j.i.i 3 #.c.> i         w w 9 w f f i i I @         z k l k % %                   ",
"                                  eXBX}...| | @.) 8 /.4XG.p e         w w f i f s f f :           l k % % % %                   ",
"                                  VXnXzX` ` U T ..t mXbX*.U           e 9 f i f f f i             k j % % % %                   ",
"                                  eXcXyX: p 9 d { 5.uXhXt 4           w : : 9 9 9 9 :                                           ",
"                                  3.wX0Xe > 9 9 w <.7X0X              0 : - @ @ @ - p s                                         ",
"                                  1.0X2.y : - 0 p 1.6X2.              : : @ @ @ @ @ p e                                         ",
"                                ' *.4.1.(.s.a.C.4.3.-.&.              e 0 9 9 , : w I :                                         ",
"                                l z tX8X7X2.(.rXbXmX% j               : 9 w 9 @ @ w f :                                         ",
"                                X $ eX7X^.i.n.2.eX3.X .                 : p @ @ @ w i                                           ",
"                                  =.8X5XQ ; a 6XeXm X .                 3 u @ @ @ w i                                           ",
"                              =.7XeX5X6X4 J 9.wXBXM                       w @ @ @ 9 :                                           ",
"                              %.7X8X2.8X7 w.D yXeX                        : 0 @ @ - w                                           ",
"                            z %.5XeX6XcXS 7.J uX<.                        w T U i i I @                                         ",
"                            % z &.cX5XVX0.A tXuXl                       @ U ) [ [ [ ` I :                                       ",
"                              $ . VX0XVX9.8.NXpXz                       + O w w f I w : @                                       ",
"                              4.yXCXVXjXpXpX!.u.                        + @ : e d Y T i 9 +                                     ",
"                            % 5XyXnXvXeXuXiXjX~.&.                      O @ @ 9 w f i w 9 O                                     ",
"                            $ j =.vXcXwX9X1.1.' b                       O @ : 9 y d i 9 9 @                                     ",
"                            l *.3.uXnXvXyX!.y.z k                       O + 9 d f U f p i @                                     ",
"                            m m 1.wX8X8X0X6X5X,.z                       O O @ 9 9 i w e > +                                     ",
"                            b m <.rX8X8X7X<.-.%.z                                                                               ",
"                            % l 2.yXyXeX7X4.<.m %                                                                               ",
"                                l n / n b z l k                                                                                 "
};
