/* XPM */
static char *_1684324808[] = {
/* columns rows colors chars-per-pixel */
"64 64 240 2 ",
"   c None",
".  c #0E0D0C",
"X  c #080806",
"o  c #100D0D",
"O  c #160D05",
"+  c #1A1207",
"@  c #1C140B",
"#  c #1F180C",
"$  c #16120D",
"%  c #151413",
"&  c #1C1614",
"*  c #1C1813",
"=  c #1C1C1B",
"-  c #161717",
";  c #0E1011",
":  c #2A0F0C",
">  c #3D0D0C",
",  c #380B07",
"<  c #22140C",
"1  c #221A0C",
"2  c #2A1D0D",
"3  c #2B130B",
"4  c #38130D",
"5  c #241611",
"6  c #241C12",
"7  c #291E12",
"8  c #211E1D",
"9  c #351B11",
"0  c #210F10",
"q  c #1E201E",
"w  c #26200D",
"e  c #2A220D",
"r  c #31250E",
"t  c #32290D",
"y  c #392B0A",
"u  c #2C2312",
"i  c #22201E",
"p  c #2B251B",
"a  c #2B2511",
"s  c #322513",
"d  c #342913",
"f  c #3B2C15",
"g  c #33251A",
"h  c #352A1A",
"j  c #3B2C1A",
"k  c #392716",
"l  c #3F3117",
"z  c #1D1F22",
"x  c #1E2128",
"c  c #242322",
"v  c #292624",
"b  c #2B2B2C",
"n  c #292925",
"m  c #332927",
"M  c #343127",
"N  c #353433",
"B  c #383634",
"V  c #3D3C3B",
"C  c #383738",
"Z  c #2F302F",
"A  c #440D0A",
"S  c #490B07",
"D  c #5A0A08",
"F  c #46130B",
"G  c #431512",
"H  c #51120F",
"J  c #650D08",
"K  c #720B08",
"L  c #6A120C",
"P  c #6D1517",
"I  c #432F17",
"U  c #422E1B",
"Y  c #44321A",
"T  c #4B351B",
"R  c #483417",
"E  c #53361D",
"W  c #533B1D",
"Q  c #583D1D",
"!  c #4A360B",
"~  c #693F1F",
"^  c #443321",
"/  c #4A3620",
"(  c #4E3C24",
")  c #543521",
"_  c #543B23",
"`  c #5B3E23",
"'  c #533D29",
"]  c #413C39",
"[  c #482E2F",
"{  c #623F22",
"}  c #703C23",
"|  c #5D411D",
" . c #65421E",
".. c #75471B",
"X. c #5D4124",
"o. c #554428",
"O. c #644324",
"+. c #6A4425",
"@. c #6E4A24",
"#. c #63432A",
"$. c #6C492A",
"%. c #734B24",
"&. c #744C2B",
"*. c #7B4D2B",
"=. c #784724",
"-. c #7D522E",
";. c #76512E",
":. c #774F32",
">. c #7B5333",
",. c #3B4146",
"<. c #454444",
"1. c #4B4A49",
"2. c #494846",
"3. c #534E4A",
"4. c #565349",
"5. c #525352",
"6. c #5B5B5A",
"7. c #5A5857",
"8. c #4D514B",
"9. c #635955",
"0. c #5E605E",
"q. c #66625E",
"w. c #7C725D",
"e. c #6C6C6B",
"r. c #676764",
"t. c #747472",
"y. c #7C7D7D",
"u. c #797776",
"i. c #73706C",
"p. c #970A06",
"a. c #89110B",
"s. c #B30E07",
"d. c #AA291F",
"f. c #9F2D22",
"g. c #C60804",
"h. c #D90402",
"j. c #E20803",
"k. c #FC2A1F",
"l. c #854216",
"z. c #A15B1E",
"x. c #83532D",
"c. c #8E5B2D",
"v. c #88562B",
"b. c #965C2B",
"n. c #845531",
"m. c #8B5933",
"M. c #885734",
"N. c #925D33",
"B. c #945E39",
"V. c #965C35",
"C. c #934E31",
"Z. c #956134",
"A. c #9B6236",
"S. c #95613C",
"D. c #9B633A",
"F. c #9F693A",
"G. c #A2663C",
"H. c #A46A3C",
"J. c #AB6C3D",
"K. c #B36F3D",
"L. c #AE733C",
"P. c #B1723F",
"I. c #B44338",
"U. c #B05348",
"Y. c #AB6D43",
"T. c #A56644",
"R. c #B36E42",
"E. c #AC7244",
"W. c #B37244",
"Q. c #B97444",
"!. c #BC7A46",
"~. c #BB7A4B",
"^. c #B87549",
"/. c #B26F53",
"(. c #837E7C",
"). c #9F7860",
"_. c #C15D52",
"`. c #E75A4E",
"'. c #C47C4C",
"]. c #CB7D4D",
"[. c #C37649",
"{. c #C97C52",
"}. c #D07A4E",
"|. c #CF6D65",
" X c #CFAD34",
".X c #85837C",
"XX c #AB8470",
"oX c #CB824E",
"OX c #C6814F",
"+X c #CD8352",
"@X c #CC8857",
"#X c #D28554",
"$X c #D28955",
"%X c #D58A5A",
"&X c #DB8D5C",
"*X c #D98757",
"=X c #DD935C",
"-X c #D08347",
";X c #E38B5B",
":X c #E2945E",
">X c #E0B946",
",X c #DE9563",
"<X c #DF976A",
"1X c #D18D63",
"2X c #E39464",
"3X c #E59965",
"4X c #E59A6A",
"5X c #EA9D6C",
"6X c #EA9963",
"7X c #EC9A78",
"8X c #ECA16D",
"9X c #EAA576",
"0X c #F3A575",
"qX c #EDB27A",
"wX c #7E7E81",
"eX c #898887",
"rX c #9D9C9B",
"tX c #959494",
"yX c #90958B",
"uX c #A49D97",
"iX c #A29A8E",
"pX c #BAA297",
"aX c #AAA9A7",
"sX c #B2AEAB",
"dX c #B9B9B7",
"fX c #B1B2AF",
"gX c #C99380",
"hX c #E69F91",
"jX c #F8B289",
"kX c #C0BCB7",
"lX c #EFADA6",
"zX c #C3C2BD",
"xX c #DEC6AF",
"cX c #E7C4A4",
"vX c #ECCBB3",
"bX c #C9C8C5",
"nX c #DBDAD6",
"mX c #E0DFDB",
"MX c #E5E3DE",
"NX c #E9E8E4",
/* pixels */
"                                              6.u.q.  Q.4X7X:X&X4X5X&X    fXt.                                                  ",
"                                        2.eX- & E 8X6X0X{.jX0X7XjXjX}.0X9X].- v eX]                                             ",
"                                    1.B v D v 2.C.|.9XT.S.4X}.5X}.^.^.T.|./.` % . 8 V                                           ",
"                                  <.b - . J Z 9.&X`.&.m ,X}.` }.{ B.@X' f.`./.= K D B 7.B                                       ",
"                                - = - X % - - ; V } p ` 2X&XR.}.S.9X4XZ.o.A.=.% c 5 % v =                                       ",
"                                - X 1 # o & R 1 o $ Y a z.I._.d.d.gXl.k d e $ I o o < . %                                       ",
"                                    - * * =         j { w.).XXkXXXXX4.I       X . X X X $                                       ",
"                                                J.s O.$.B.U.|.|./.U.M.E O.                                                      ",
"                                            3X~.D.&.B.j ` O.7 u ` m.O.7 k I B.&X                                                ",
"                              ~.D.-./ +X+X&X}.B.B.4X4X^ 7 +.1 1 5 #.^ &.5X4XK.{.) E.&._ #.                                      ",
"                          W.%X4X].Y.&.G.Q.OX8X4X5X5X7X@X#X2X7 1 * 3X2XY.&X0X%XY.~./ &.` M.%X*X                                  ",
"                        #.W.A.$.'.9X2XH.T.E.+X:X:X,X2X2X5X4X&XQ.T.0X0X0X4X3X3X$XY.Y.Q.$X*X=X5X&XG.                              ",
"                        s 6 j n.+X~.T W O.M.G.J.R.G.G.G.A.B.B.m.N.].].oXQ.W.M.D.A.D.M.+.>.H.J.J.O.                              ",
"                        6 T n.A.n.) u @.c.W.&X^.W.'.+X{.].W.B.N.x.oX+X{.Q.P.G.F.A.B.O.Z.6 v.c.v.T                               ",
"                        #.s U 5 < 1 1 1 u e u G.[.oX$X&X4X'.F.B.G.$X].*X!.E.H.n./ j 7 5 + < 1 6 p                               ",
"                  p.a.'.*XS.6 T 1 1 1 1 1 E 2 1 1 1 s 7 1 d / T.G.X.d < 1 1 1 1 1 6 1 @ @ @ < 5 1 M.                            ",
"                L   T Q.Q.{.$X1 s O.1 1 $.x.N.W.r < 1 < 1 j '.E.&X;.` 2 1 1 1 1 j c.1 + < m.^ {.2X&X-.                          ",
"              j.  S 7 =.G.G.P.u X.H.1 1 e d / E 7 u u s %.&XW.E.'.$X+X&.e 1 1 1 Z.T 1 + 1 P.Q.J.#X+X*.                          ",
"              g.D   1 1 7 k T O.G.Z.f s 2 t # *.P.!.-.^ 7 c.v.*.%.6 6 -.Z.J.( 1 1 k # + 1 F.n.x.n.m.h s                         ",
"              h.    7 < < 1 6 ` w a    .2 I w &.#.d 1 2 &.Y e e x.[.P.1 e d o.h 1 y 1 # # E I f T 7 h 6                         ",
"              a.  P 5 1 1 6 e f w a   +.e 7 6 N.P.6 1 f R 6 1 5 Y Z.H.| 1 e J. .1 1 w 1 1 1 e 7 1 1 u e                         ",
"              S h.4.v E 5 a W 1 e       1 1 1 W u 1 1 1 2 1 1 @ 1 r f ..1 1 1 E 1 e   1 # # @ + # 1 1                           ",
"                H ' u H.X.-.Q 1           1 * 1 # < < < @ + : S # + < 1 < < 1 g y       s 2 # 5 2 1 1 X.                        ",
"                K.H.S.,X3XOXM.j           s + + < + A < # g.G a.O + $ + + + 1 1           u M.^.:X#XY $.                        ",
"                G.Q.J.+X2XOXH.Y           2 + + S 4 4 + < K > g.& + : D , 3 0 @ r         U &X3XR.%X&XY.                        ",
"                OX$XH.H.{.>.E.            3 < D # D A < H A 0 s.> D @ p.a.@ p.5 2         }.3X].%X].V.R.'.                      ",
"              yX-.oX'.E.Y.v.^.            A A S < 5 g.5 p.1 3 K A , S S s.4 @ A 9     #.G.;X+XT.&XvXxXrXcXS.`                   ",
"              e.x.!.OXQ.B.oXj             > 3 , < K K J S # < < , : D S p.4 6 D       $.A.hXuXxXvXE.sXwXrX>.U                   ",
"              N q.W.].E.-.g a         W l < < < , 5 $ : + , > < < 1 5 < , 2 J 9 s     -.{ k.tXwXyX) rXzXrXr.6                   ",
"              +.J.A.%X^.wXn         6 k d 2 1 r 1 & J < + K 3 , A > > 3 9 r H j %.T   ;X& 7XaXr.tX<XNXnXaXrXV                   ",
"                +XQ.%XM.nX7.        j Y W f U d s D G G > a.9 > A A > >.k %.~.m.H.$.  6X5 ;XaXy.bXcXNXNXsXtX<.                  ",
"                @X2X2XZ.2.          <.Z X.T O.I U +.@. .E b. .G.H.M.O.A.n.N.H.G.J._ Q V.7 [.bXnXNXNXqXNXwXbXyX                  ",
"                m.n.E oX        l Q &..XS.F.J.7 < H < < * 1 1 e a a r 1 a 7 d j ) d I p T Q lXnXdXMXC.rXr.yX7.                  ",
"                K.m 7 j         x.c.Z.] n.Z.n.$XY.4 F 1 O.1 1 1 1 2 1 1 d O.{.6Xk 1 u T   p N i 8 b i 4.[ x n                   ",
"              2 l.=X#.c.      5 @.X.j M.M.-.&.$.~.L 2 E 6 e 1 1 w 1 # e $.A.=X$X1 d a X.g T i = = C p 2.P ,.N b                 ",
"              f 1 u ;.,X X    1 W u +.-.O.W Y w 1 F.p e w 1 $ + 1 t Q a Y +.=.j I ;.T d T U 8 = ' ,.X.g lXwXwX1.                ",
"                6 1 =.` +.    1 O.Y O.X.l Y ^ W d 1 5 1 d       1 1 w I 1 1 2 1 Y R T %.Q f i 8 * aXw.L.uXe.zX5.                ",
"                p 1 T !.H.      ` +.s T j Y ( W a 1 1 1 j       # 1 1 w 1 1 # 1 Y f T O.+.d i i * kXi.>XuX(.dX7.                ",
"                  Y 7 6 h       # W a a t Y I d w e 1 * 6         1 1 l f w 1 a s f I R W       1 uXaXaX@XdXtXaX                ",
"                                ` 1 l 1 t d d e e a u a 5         w 1 a f a e f Y R d l f         M dXnX#.mXeXmXV               ",
"                                1.# l # w y e w e e 1 e f         1 1 1 t w e R | R w d 6         5 mXNX} mXmXnXC               ",
"                                3.i y # e t f w e # # 1           1 t # 1 1 d R d t 1 * 1         u bXdXq.z c b =               ",
"                              u.<.Z w + w y d # # = q =           + # # # 1 t y t 1 1 # 1         8 = z x.= % = =               ",
"                              u.<.B 1 # 1 w # # 1 i b =             + # # # w e # 1 * w 1           b % = % c = =               ",
"                              i.1.Z 1 1 # 1 # # = c n z               # 1 # 1 e # # ! 1 f           c % . ; ; = =               ",
"                              C B i + + # + + + # v s                 # w # # 1 1 1 # # 1           = =                         ",
"                              i - - 1 1 1 + + = * = f                   + # 1 w w w a | R                                       ",
"                              > $ q e w w # w i v = 6                   1 1 1 1 1 1 d T f                                       ",
"                              6 5 n s t w u w a c - o                 1 w t I t e w < 1 6                                       ",
"                                  N d & - # e e u %                   # Y +.*.^ -.c.O.f a                                       ",
"                              B V V d . @ # a e = -                   1 o.| +.&.H.K.W ` j                                       ",
"                              V 2.2.N O @ # a a =                     1 p a &.O.A.n.W Y a                                       ",
"                              2.5.8.1.O + # a N =                     5 #.R.E.n.'.#Xj d 1                                       ",
"                              C B e.6., < B B b =                     Y D.+X'.%X$X+XH.6                                         ",
"                              z q t.q., 3 ] 2.n =                     | v.A.x.x.x.B.A.                                          ",
"                              = q .Xr.S F 1.] = %                     * 8 5 d a 7 e d a                                         ",
"                                5.eX(.8.o.5.2.M                       e f Y T o.I f u 6                                         ",
"                              fXbXbXaXS.E.>.n.8.7.                    e f Y _ X.Y f e 1                                         ",
"                          Z <.i.eXaXeXi.y.%.d a c                   1 a Y W &.@.o.l s e 1                                       ",
"                            n N <.<.8.1.,.M n x c                   # e e u e a w a s 6 +                                       ",
"                          = <.r.tXbXtXe.i._ a w c                   + + + O + + + + + + +                                       ",
"                          c 2.r.rXbXeXr.u.X.w # =                     + + + + O O + O +                                         ",
"                          N <.0.fXbXtXr.q.Y 1 + $                                                                               ",
"                              V 1.8.5.5.5.<.i                                                                                   "
};
