/* XPM */
static char *DoomObjects__1_1684645759[] = {
/* columns rows colors chars-per-pixel */
"64 64 107 2 ",
"   c None",
".  c #161109",
"X  c #200000",
"o  c #330000",
"O  c #3D0202",
"+  c #330C07",
"@  c #2F150C",
"#  c #2D190C",
"$  c #31170C",
"%  c #351A0E",
"&  c #3C1A0F",
"*  c #2A1313",
"=  c #3B1D10",
"-  c #25200E",
";  c #28210F",
":  c #2D2211",
">  c #332613",
",  c #3C2212",
"<  c #362914",
"1  c #3B2C16",
"2  c #440404",
"3  c #4B0202",
"4  c #460B09",
"5  c #4C0A0A",
"6  c #540202",
"7  c #5B0101",
"8  c #5E0B05",
"9  c #520E0E",
"0  c #5D0B0B",
"q  c #46150E",
"w  c #4C150F",
"e  c #551111",
"r  c #5B1414",
"t  c #531D15",
"y  c #591C14",
"u  c #630101",
"i  c #6A0000",
"p  c #6C0B06",
"a  c #630D0D",
"s  c #730101",
"d  c #7D0101",
"f  c #730A0A",
"g  c #6B1009",
"h  c #621717",
"j  c #641A1A",
"k  c #691F1F",
"l  c #701F1F",
"z  c #442313",
"x  c #4A2314",
"c  c #462816",
"v  c #422F18",
"b  c #4E2A1B",
"n  c #5E2117",
"m  c #502718",
"M  c #5E261F",
"N  c #542B1B",
"B  c #5A2E1C",
"V  c #433019",
"C  c #4D351D",
"Z  c #51371E",
"A  c #52381F",
"S  c #63271F",
"D  c #5C2721",
"F  c #563A20",
"G  c #5C3D23",
"H  c #6C2222",
"J  c #602921",
"K  c #6C2D24",
"L  c #722626",
"P  c #742929",
"I  c #7A2E2E",
"U  c #623625",
"Y  c #623C23",
"T  c #693926",
"R  c #6F3929",
"E  c #74352D",
"W  c #7B372C",
"Q  c #703F2D",
"!  c #753630",
"~  c #7E3232",
"^  c #644126",
"/  c #6C462A",
"(  c #6D482B",
")  c #72412E",
"_  c #744A2D",
"`  c #7B4E2F",
"'  c #7D5031",
"]  c #820000",
"[  c #8C0101",
"{  c #930000",
"}  c #9B0000",
"|  c #A00000",
" . c #902220",
".. c #843A3A",
"X. c #883E3E",
"o. c #894C35",
"O. c #87453A",
"+. c #835433",
"@. c #895736",
"#. c #8C5A37",
"$. c #8D5B38",
"%. c #905C39",
"&. c #94603E",
"*. c #98623F",
"=. c #8E4545",
"-. c #935343",
";. c #9E6643",
/* pixels */
"                                                              O                                                                 ",
"                                                              O                                                                 ",
"                                                              O                                                                 ",
"                                                              O                                                                 ",
"                                                              4                                                                 ",
"                                                              5                                                                 ",
"                                                              5                                                                 ",
"                                                              5                                                                 ",
"                                                              5                                                                 ",
"                                                              r                                                                 ",
"                                                              r                                                                 ",
"                                                            r r e                                                               ",
"                                                          e H I P e                                                             ",
"                                                          H P ~ P k                                                             ",
"                                                        r r j P P ! N                                                           ",
"                                                      H H j 5 5 9 O.+./                                                         ",
"                                                    P ~ L r 2 2 9 W %.'                                                         ",
"                                                  W o.=.P e       y +.*.@.F                                                     ",
"                                                  _ ;.X.j         r K @.;.;.^                                                   ",
"                                                A ' -.W e           t ) ;.$.^                                                   ",
"                                                G _ O.j r       I U 9 N _ _ ^                                                   ",
"                                                ` $.L q M j   k o._ B x F _ _                                                   ",
"                                              C _ ' r t E H k =.-._ A 1 C +.$.^                                                 ",
"                                              F Y ^ 5 c S P ..-.O./ A v V +.+./                                                 ",
"                                              Z F C 2 Z w r K / Y C N b < ( ' (                                                 ",
"                                              V A z 2 < 1 = w x z < & z : F ( ^                                                 ",
"                                              < V q 2 - < : & 4 9 ; $ x < V G A                                                 ",
"                                              > 1 1 2 b $ : e 9 5 + @ N < 1 A V                                                 ",
"                                                < V 7 R , # 2 4 O > b T 1 1 1 <                                                 ",
"                                                  v d  .J t 4 4 e C ) ) v > <                                                   ",
"                                                  C 7 { ] a e e r L ~ U < 1                                                     ",
"                                                  V g i s a 7 7 0 f u y D ,                                                     ",
"                                                  t g { f r O o 4 a s [ 0 r                                                     ",
"                                                  2 2 r       o       0 4 2                                                     ",
"                                                    e f     O o O     ] e                                                       ",
"                                                        2   O o O                                                               ",
"                                                      5 o O X o     2 r                                                         ",
"                                                      5 O O 2 o 2 o O 9                                                         ",
"                                                    9 0 5 9 o o o 4 3 6 O                                                       ",
"                                                    o i a * o o 5 7 i i o                                                       ",
"                                                    O w g 6 . 5 u ] [ d O                                                       ",
"                                                    3 6 ] u 2 s ] } { d O                                                       ",
"                                                    7 i [ u 6 ] [ | [ s O                                                       ",
"                                                    s { { 6 6 ] { | { u O                                                       ",
"                                                    3 d u 3 7 [ { | [ 7                                                         ",
"                                                      d O o u { { } d 3                                                         ",
"                                                      i   o 5 ] ] i 7 O                                                         ",
"                                                            6 u 6 u O                                                           ",
"                                                            h l h 7 2                                                           ",
"                                                            r H j 7 2                                                           ",
"                                                            2 4 2 7 o                                                           ",
"                                                            2 6 2 6 o                                                           ",
"                                                          3 u 6 6 i 3                                                           ",
"                                                          2 7 3 7 7 2                                                           ",
"                                                          O 3 3 6 3                                                             ",
"                                                            2 3 2                                                               ",
"                                                            9 5 9                                                               ",
"                                                            h e h                                                               ",
"                                                          r H r r                                                               ",
"                                                          j L h 9                                                               ",
"                                                          j L j 5                                                               ",
"                                                        5 j L e O                                                               ",
"                                                        5 H j 5                                                                 ",
"                                                          e e O                                                                 "
};
