/* XPM */
static char *edit1684198033[] = {
/* columns rows colors chars-per-pixel */
"64 64 174 2 ",
"   c black",
".  c #010101",
"X  c #020202",
"o  c #030302",
"O  c #020303",
"+  c gray1",
"@  c #050103",
"#  c #040202",
"$  c #040303",
"%  c #020501",
"&  c #030304",
"*  c #030206",
"=  c #040105",
"-  c #020404",
";  c #040404",
":  c #040405",
">  c gray2",
",  c #060606",
"<  c #070707",
"1  c #050309",
"2  c #040F0C",
"3  c gray3",
"4  c #090909",
"5  c #090A0A",
"6  c gray4",
"7  c #0B0B0B",
"8  c #0E0B08",
"9  c #0C0C0C",
"0  c gray5",
"q  c #0E0E0E",
"w  c #0F0E0E",
"e  c gray6",
"r  c #110301",
"t  c #100102",
"y  c #120907",
"u  c #111111",
"i  c gray7",
"p  c #131313",
"a  c #171110",
"s  c gray8",
"d  c #151515",
"f  c #161616",
"g  c gray9",
"h  c #191717",
"j  c #1B1617",
"k  c #1E1615",
"l  c #161916",
"z  c #151A16",
"x  c #181915",
"c  c #181816",
"v  c #17171A",
"b  c #181718",
"n  c #1A1618",
"m  c #19171C",
"M  c #171818",
"N  c #171819",
"B  c #151D19",
"V  c #181818",
"C  c #191918",
"Z  c #191919",
"A  c gray10",
"S  c #1A1B1B",
"D  c #1B1B1B",
"F  c gray11",
"G  c #1C1D1C",
"H  c #1D1D1D",
"J  c #1E1E1E",
"K  c gray12",
"L  c #270500",
"P  c #250506",
"I  c #260F0A",
"U  c #230C0D",
"Y  c #291512",
"T  c #2A1216",
"R  c #281516",
"E  c #2D1E19",
"W  c #351112",
"Q  c #3E1A17",
"!  c #311D19",
"~  c #331C18",
"^  c #3D1A18",
"/  c #1D261F",
"(  c #1E261F",
")  c #27211D",
"_  c #2B201D",
"`  c #29201F",
"'  c #311D20",
"]  c #1C2822",
"[  c #1C2429",
"{  c #202020",
"}  c gray13",
"|  c #212321",
" . c #222222",
".. c #232223",
"X. c #222323",
"o. c #232323",
"O. c #252123",
"+. c #262122",
"@. c #242223",
"#. c #252223",
"$. c #242323",
"%. c #202521",
"&. c #202423",
"*. c #222423",
"=. c #212324",
"-. c #222324",
";. c #262125",
":. c #262324",
">. c #212424",
",. c #232625",
"<. c gray14",
"1. c #252525",
"2. c #262425",
"3. c #272425",
"4. c #262526",
"5. c #252726",
"6. c gray15",
"7. c #262726",
"8. c #272727",
"9. c #282327",
"0. c #292327",
"q. c #282828",
"w. c #292829",
"e. c gray16",
"r. c #2A2A2A",
"t. c gray17",
"y. c #2C2C2C",
"u. c #2D2C2D",
"i. c #2D2D2D",
"p. c #2C2F2E",
"a. c gray18",
"s. c #2F2F2F",
"d. c #28302F",
"f. c #283030",
"g. c gray19",
"h. c #313131",
"j. c #323232",
"k. c #333232",
"l. c gray20",
"z. c #343434",
"x. c #363535",
"c. c #373737",
"v. c gray22",
"b. c #393939",
"n. c #3A3A3A",
"m. c gray24",
"M. c #570A0B",
"N. c #5F0B09",
"B. c #5F090D",
"V. c #620307",
"C. c #630506",
"Z. c #660807",
"A. c #620509",
"S. c #65050B",
"D. c #7C0603",
"F. c #7F0407",
"G. c #770A07",
"H. c #720708",
"J. c #7D0508",
"K. c #7C070C",
"L. c gray25",
"P. c gray26",
"I. c #434343",
"U. c #444444",
"Y. c #464646",
"T. c gray29",
"R. c gray34",
"E. c gray36",
"W. c #840106",
"Q. c #8C0302",
"!. c #850308",
"~. c #900502",
"^. c #A20102",
"/. c #A50004",
/* pixels */
"                                                                                                                                ",
"                                                                                                                                ",
"                                                                                                                                ",
"                                                                                                                                ",
"                                                                                                                                ",
"                                                                                                                                ",
"                                                                                                                                ",
"                                                                                                                                ",
"                                                                                                                                ",
"                                                                                                                                ",
"                                                                                                                                ",
"                                                                                                                                ",
"                                                                                                                                ",
"                                                                                                                                ",
"                                                                                                                                ",
"                                                                                                                                ",
"                                                                                                                                ",
"                                                                                                                                ",
"                                                                                                                                ",
"                                                                                                                                ",
"                                                                                                                                ",
"                                                                                                                                ",
"                                                                                                                                ",
"                                                                                                                                ",
"                                                                                                                                ",
"                                                                                                                                ",
"                                                                                                                                ",
"                                                                                                                                ",
"                                                                                                                                ",
"                                                                                                                                ",
"                                                                                                                                ",
"                                                                                                                                ",
"                                                                                                                                ",
"                                                                                                                                ",
"                                                                                                                                ",
"                                                                                                                                ",
"                                                                                                                                ",
"                                                                                                                                ",
"                                                                                                                                ",
"                                                                                                                                ",
"                                                                                                                                ",
"                                                                                                                                ",
"                                                                                                                                ",
"                                                                                                                                ",
"                                            g.i.i.i.q.i.i.i.i.i.g.q.q.q.<.q.q.q.q.q.q.                                          ",
"                                        z.g.i.q.o.o.O.<.o.O.&.( ( &.-.:.O.o.o.<.<.<.o.q.q.                                      ",
"                                      T.n.z.g.q.<.,.<.g.3.8.<.:.9.,.<.<.3.<.o.<.g.q.<.<.i.i.                                    ",
"                                    I.Y.U.P.m.g.J q.i.n.x.z.f.p.f.i.i.i.i.J q.q.z.z.g.i.i.i.                                    ",
"                                    q.J J o.o.K J i.g.c.-.-.O.! ~ O.O.&.o.S t.i.n.<.<.o.J q.o.                                  ",
"                                    <.p C J o.o.<.<.q.i.-.:.E N.Z.' ] O.-.o.<.q.t.-.C p w J S                                   ",
"                                    J w s D C J ,.o.-.o.] E ^ K.G.^ ) :.[ -.o.o.J C g w < g C                                   ",
"                                    C J 7 9 s s S D C C Y C.!./.~.!.S.W B C C g g w 6 - g g p                                   ",
"                                    s 9 S < O O w w g s U C.D.^.Q.W.A.I a w s w & O < C 6 s v                                   ",
"                                    w.g 6 C O 6 i.n.q.w 6 9 L F.H.P y 2 1 q.n.s.6 O C 7 s 8.J                                   ",
"                                    q.o.s 9 D 9 U.R.g.; O % t B.M.t $ O = g.E.I.7 J w s o.q.K                                   ",
"                                    q.o.o.g < g C 6 C g h l l T R k C N m C 6 g C < s K -.w.J                                   ",
"                                    q.J o.J s & & O O $ $ $ O & O O O O = O O < & v E ,.J q.J                                   ",
"                                    q.J C J J C o.q.o.C b b k g c l g v v o.3.O.v B B S J <.J                                   ",
"                                    o.g g s g J s.n.t.C p p s s s s s s J q.v.f.H g p p p <.J                                   ",
"                                    o.w w 7 w S q.g.q.C 9 9 9 9 9 9 w w C <.s.q.D q w w 6 o.J                                   ",
"                                    J O O O < J q.q.-.C = O O O O O O $ C <.w.8.J < & O < J J                                   ",
"                                    <.C v C C J 8.q.8.D N C C C C C b g J <.q.<.J b C v C <.J                                   ",
"                                    q.o.o.o.o.C t.t.q.D o.o.o.o.o.o.O.o.C q.i.t.C o.o.o.o.<.J                                   ",
"                                                                                          p                                     "
};
